%TF.GenerationSoftware,KiCad,Pcbnew,8.0.8*%
%TF.CreationDate,2025-04-07T15:17:30-05:00*%
%TF.ProjectId,finalproject,66696e61-6c70-4726-9f6a-6563742e6b69,rev?*%
%TF.SameCoordinates,Original*%
%TF.FileFunction,Paste,Top*%
%TF.FilePolarity,Positive*%
%FSLAX46Y46*%
G04 Gerber Fmt 4.6, Leading zero omitted, Abs format (unit mm)*
G04 Created by KiCad (PCBNEW 8.0.8) date 2025-04-07 15:17:30*
%MOMM*%
%LPD*%
G01*
G04 APERTURE LIST*
G04 Aperture macros list*
%AMRoundRect*
0 Rectangle with rounded corners*
0 $1 Rounding radius*
0 $2 $3 $4 $5 $6 $7 $8 $9 X,Y pos of 4 corners*
0 Add a 4 corners polygon primitive as box body*
4,1,4,$2,$3,$4,$5,$6,$7,$8,$9,$2,$3,0*
0 Add four circle primitives for the rounded corners*
1,1,$1+$1,$2,$3*
1,1,$1+$1,$4,$5*
1,1,$1+$1,$6,$7*
1,1,$1+$1,$8,$9*
0 Add four rect primitives between the rounded corners*
20,1,$1+$1,$2,$3,$4,$5,0*
20,1,$1+$1,$4,$5,$6,$7,0*
20,1,$1+$1,$6,$7,$8,$9,0*
20,1,$1+$1,$8,$9,$2,$3,0*%
G04 Aperture macros list end*
%ADD10C,0.010000*%
%ADD11RoundRect,0.250000X0.450000X-0.350000X0.450000X0.350000X-0.450000X0.350000X-0.450000X-0.350000X0*%
%ADD12RoundRect,0.250000X-0.450000X0.350000X-0.450000X-0.350000X0.450000X-0.350000X0.450000X0.350000X0*%
%ADD13RoundRect,0.375000X-0.625000X-0.375000X0.625000X-0.375000X0.625000X0.375000X-0.625000X0.375000X0*%
%ADD14RoundRect,0.500000X-0.500000X-1.400000X0.500000X-1.400000X0.500000X1.400000X-0.500000X1.400000X0*%
%ADD15RoundRect,0.250000X-0.350000X-0.450000X0.350000X-0.450000X0.350000X0.450000X-0.350000X0.450000X0*%
%ADD16RoundRect,0.250000X-0.337500X-0.475000X0.337500X-0.475000X0.337500X0.475000X-0.337500X0.475000X0*%
%ADD17RoundRect,0.250000X-0.475000X0.337500X-0.475000X-0.337500X0.475000X-0.337500X0.475000X0.337500X0*%
%ADD18RoundRect,0.032500X0.097500X-0.452500X0.097500X0.452500X-0.097500X0.452500X-0.097500X-0.452500X0*%
%ADD19RoundRect,0.032500X0.452500X-0.097500X0.452500X0.097500X-0.452500X0.097500X-0.452500X-0.097500X0*%
%ADD20RoundRect,0.250000X0.337500X0.475000X-0.337500X0.475000X-0.337500X-0.475000X0.337500X-0.475000X0*%
%ADD21RoundRect,0.250000X0.350000X0.450000X-0.350000X0.450000X-0.350000X-0.450000X0.350000X-0.450000X0*%
%ADD22RoundRect,0.150000X-0.587500X-0.150000X0.587500X-0.150000X0.587500X0.150000X-0.587500X0.150000X0*%
%ADD23RoundRect,0.087500X0.287500X0.087500X-0.287500X0.087500X-0.287500X-0.087500X0.287500X-0.087500X0*%
%ADD24RoundRect,0.250000X0.475000X-0.337500X0.475000X0.337500X-0.475000X0.337500X-0.475000X-0.337500X0*%
%ADD25RoundRect,0.232500X0.232500X0.232500X-0.232500X0.232500X-0.232500X-0.232500X0.232500X-0.232500X0*%
%ADD26RoundRect,0.062500X0.375000X0.062500X-0.375000X0.062500X-0.375000X-0.062500X0.375000X-0.062500X0*%
%ADD27RoundRect,0.062500X0.062500X0.375000X-0.062500X0.375000X-0.062500X-0.375000X0.062500X-0.375000X0*%
%ADD28R,1.570000X0.410000*%
G04 APERTURE END LIST*
D10*
%TO.C,UART-TO-USB1*%
X146820000Y-89817500D02*
X144820000Y-89817500D01*
X144820000Y-87817500D01*
X146820000Y-87817500D01*
X146820000Y-89817500D01*
G36*
X146820000Y-89817500D02*
G01*
X144820000Y-89817500D01*
X144820000Y-87817500D01*
X146820000Y-87817500D01*
X146820000Y-89817500D01*
G37*
%TO.C,U1*%
X145352367Y-98002500D02*
X143953000Y-98002500D01*
X143953000Y-97102996D01*
X145352367Y-97102996D01*
X145352367Y-98002500D01*
G36*
X145352367Y-98002500D02*
G01*
X143953000Y-98002500D01*
X143953000Y-97102996D01*
X145352367Y-97102996D01*
X145352367Y-98002500D01*
G37*
X145352851Y-96082500D02*
X143953000Y-96082500D01*
X143953000Y-95182180D01*
X145352851Y-95182180D01*
X145352851Y-96082500D01*
G36*
X145352851Y-96082500D02*
G01*
X143953000Y-96082500D01*
X143953000Y-95182180D01*
X145352851Y-95182180D01*
X145352851Y-96082500D01*
G37*
X148054310Y-96082500D02*
X146653000Y-96082500D01*
X146653000Y-95181600D01*
X148054310Y-95181600D01*
X148054310Y-96082500D01*
G36*
X148054310Y-96082500D02*
G01*
X146653000Y-96082500D01*
X146653000Y-95181600D01*
X148054310Y-95181600D01*
X148054310Y-96082500D01*
G37*
X148056500Y-98002500D02*
X146653000Y-98002500D01*
X146653000Y-96903029D01*
X148056500Y-96903029D01*
X148056500Y-98002500D01*
G36*
X148056500Y-98002500D02*
G01*
X146653000Y-98002500D01*
X146653000Y-96903029D01*
X148056500Y-96903029D01*
X148056500Y-98002500D01*
G37*
%TD*%
D11*
%TO.C,R4*%
X101409000Y-74533000D03*
X101409000Y-72533000D03*
%TD*%
D12*
%TO.C,R6*%
X97853000Y-72533000D03*
X97853000Y-74533000D03*
%TD*%
D13*
%TO.C,3.3V_1.8V1*%
X81294000Y-89013000D03*
X81294000Y-91313000D03*
D14*
X87594000Y-91313000D03*
D13*
X81294000Y-93613000D03*
%TD*%
D11*
%TO.C,R14*%
X97409000Y-107594000D03*
X97409000Y-105594000D03*
%TD*%
D15*
%TO.C,R2*%
X99568000Y-100203000D03*
X101568000Y-100203000D03*
%TD*%
D16*
%TO.C,C7*%
X125073500Y-87651500D03*
X127148500Y-87651500D03*
%TD*%
D12*
%TO.C,R16*%
X122301000Y-96938500D03*
X122301000Y-98938500D03*
%TD*%
D17*
%TO.C,C1*%
X104013000Y-113668500D03*
X104013000Y-115743500D03*
%TD*%
D18*
%TO.C,UART-TO-USB1*%
X144320000Y-91187500D03*
X144820000Y-91187500D03*
X145320000Y-91187500D03*
X145820000Y-91187500D03*
X146320000Y-91187500D03*
X146820000Y-91187500D03*
X147320000Y-91187500D03*
D19*
X148190000Y-90317500D03*
X148190000Y-89817500D03*
X148190000Y-89317500D03*
X148190000Y-88817500D03*
X148190000Y-88317500D03*
X148190000Y-87817500D03*
X148190000Y-87317500D03*
D18*
X147320000Y-86447500D03*
X146820000Y-86447500D03*
X146320000Y-86447500D03*
X145820000Y-86447500D03*
X145320000Y-86447500D03*
X144820000Y-86447500D03*
X144320000Y-86447500D03*
D19*
X143450000Y-87317500D03*
X143450000Y-87817500D03*
X143450000Y-88317500D03*
X143450000Y-88817500D03*
X143450000Y-89317500D03*
X143450000Y-89817500D03*
X143450000Y-90317500D03*
%TD*%
D20*
%TO.C,C3*%
X106383500Y-93853000D03*
X104308500Y-93853000D03*
%TD*%
D16*
%TO.C,C9*%
X151810500Y-87336500D03*
X153885500Y-87336500D03*
%TD*%
D21*
%TO.C,R10*%
X101123000Y-90043000D03*
X99123000Y-90043000D03*
%TD*%
D15*
%TO.C,R1*%
X104013000Y-100203000D03*
X106013000Y-100203000D03*
%TD*%
D11*
%TO.C,R12*%
X112077000Y-88757000D03*
X112077000Y-86757000D03*
%TD*%
D22*
%TO.C,5V_3.3V1*%
X83058000Y-81280000D03*
X83058000Y-83180000D03*
X84933000Y-82230000D03*
%TD*%
D23*
%TO.C,HEART1*%
X103378000Y-109207000D03*
X103378000Y-108407000D03*
X103378000Y-107607000D03*
X103378000Y-106807000D03*
X103378000Y-106007000D03*
X103378000Y-105207000D03*
X103378000Y-104407000D03*
X100978000Y-104407000D03*
X100978000Y-105207000D03*
X100978000Y-106007000D03*
X100978000Y-106807000D03*
X100978000Y-107607000D03*
X100978000Y-108407000D03*
X100978000Y-109207000D03*
%TD*%
D16*
%TO.C,C11*%
X125200500Y-91461500D03*
X127275500Y-91461500D03*
%TD*%
D12*
%TO.C,R5*%
X105346000Y-72533000D03*
X105346000Y-74533000D03*
%TD*%
D24*
%TO.C,C14*%
X80010000Y-83460500D03*
X80010000Y-81385500D03*
%TD*%
D17*
%TO.C,C15*%
X88011000Y-81385500D03*
X88011000Y-83460500D03*
%TD*%
D16*
%TO.C,C5*%
X125073500Y-83587500D03*
X127148500Y-83587500D03*
%TD*%
%TO.C,C18*%
X151892000Y-83399500D03*
X153967000Y-83399500D03*
%TD*%
D17*
%TO.C,C2*%
X100330000Y-113436000D03*
X100330000Y-115511000D03*
%TD*%
D16*
%TO.C,C12*%
X129899500Y-91334500D03*
X131974500Y-91334500D03*
%TD*%
D12*
%TO.C,R8*%
X111569000Y-77105000D03*
X111569000Y-79105000D03*
%TD*%
D25*
%TO.C,MCU1*%
X129821000Y-97667000D03*
X129821000Y-96517000D03*
X129821000Y-95367000D03*
X128671000Y-97667000D03*
X128671000Y-96517000D03*
X128671000Y-95367000D03*
X127521000Y-97667000D03*
X127521000Y-96517000D03*
X127521000Y-95367000D03*
D26*
X131108500Y-98267000D03*
X131108500Y-97767000D03*
X131108500Y-97267000D03*
X131108500Y-96767000D03*
X131108500Y-96267000D03*
X131108500Y-95767000D03*
X131108500Y-95267000D03*
X131108500Y-94767000D03*
D27*
X130421000Y-94079500D03*
X129921000Y-94079500D03*
X129421000Y-94079500D03*
X128921000Y-94079500D03*
X128421000Y-94079500D03*
X127921000Y-94079500D03*
X127421000Y-94079500D03*
X126921000Y-94079500D03*
D26*
X126233500Y-94767000D03*
X126233500Y-95267000D03*
X126233500Y-95767000D03*
X126233500Y-96267000D03*
X126233500Y-96767000D03*
X126233500Y-97267000D03*
X126233500Y-97767000D03*
X126233500Y-98267000D03*
D27*
X126921000Y-98954500D03*
X127421000Y-98954500D03*
X127921000Y-98954500D03*
X128421000Y-98954500D03*
X128921000Y-98954500D03*
X129421000Y-98954500D03*
X129921000Y-98954500D03*
X130421000Y-98954500D03*
%TD*%
D20*
%TO.C,C13*%
X135276500Y-106876500D03*
X133201500Y-106876500D03*
%TD*%
D16*
%TO.C,C8*%
X151892000Y-90959500D03*
X153967000Y-90959500D03*
%TD*%
D20*
%TO.C,C6*%
X131974500Y-83460500D03*
X129899500Y-83460500D03*
%TD*%
D21*
%TO.C,R15*%
X147304000Y-83399500D03*
X145304000Y-83399500D03*
%TD*%
%TO.C,R3*%
X106219000Y-90043000D03*
X104219000Y-90043000D03*
%TD*%
D16*
%TO.C,C10*%
X129899500Y-87524500D03*
X131974500Y-87524500D03*
%TD*%
D17*
%TO.C,C17*%
X90642000Y-90127000D03*
X90642000Y-92202000D03*
%TD*%
D24*
%TO.C,C4*%
X112077000Y-84349500D03*
X112077000Y-82274500D03*
%TD*%
D12*
%TO.C,R9*%
X95440000Y-82153000D03*
X95440000Y-80153000D03*
%TD*%
D15*
%TO.C,R13*%
X133239000Y-104268500D03*
X135239000Y-104268500D03*
%TD*%
D24*
%TO.C,C16*%
X77307000Y-91483000D03*
X77307000Y-89408000D03*
%TD*%
D21*
%TO.C,R11*%
X101012000Y-93980000D03*
X99012000Y-93980000D03*
%TD*%
D28*
%TO.C,U2*%
X99320000Y-83789000D03*
X99320000Y-83139000D03*
X99320000Y-82489000D03*
X99320000Y-81839000D03*
X99320000Y-81189000D03*
X99320000Y-80539000D03*
X99320000Y-79889000D03*
X105060000Y-79889000D03*
X105060000Y-80539000D03*
X105060000Y-81189000D03*
X105060000Y-81839000D03*
X105060000Y-82489000D03*
X105060000Y-83139000D03*
X105060000Y-83789000D03*
%TD*%
M02*
