%TF.GenerationSoftware,KiCad,Pcbnew,8.0.8*%
%TF.CreationDate,2025-04-07T15:17:30-05:00*%
%TF.ProjectId,finalproject,66696e61-6c70-4726-9f6a-6563742e6b69,rev?*%
%TF.SameCoordinates,Original*%
%TF.FileFunction,Legend,Top*%
%TF.FilePolarity,Positive*%
%FSLAX46Y46*%
G04 Gerber Fmt 4.6, Leading zero omitted, Abs format (unit mm)*
G04 Created by KiCad (PCBNEW 8.0.8) date 2025-04-07 15:17:30*
%MOMM*%
%LPD*%
G01*
G04 APERTURE LIST*
%ADD10C,0.300000*%
%ADD11C,0.150000*%
%ADD12C,0.120000*%
%ADD13C,0.127000*%
%ADD14C,0.200000*%
G04 APERTURE END LIST*
D10*
X78143510Y-107596282D02*
X78357796Y-107667710D01*
X78357796Y-107667710D02*
X78429225Y-107739139D01*
X78429225Y-107739139D02*
X78500653Y-107881996D01*
X78500653Y-107881996D02*
X78500653Y-108096282D01*
X78500653Y-108096282D02*
X78429225Y-108239139D01*
X78429225Y-108239139D02*
X78357796Y-108310568D01*
X78357796Y-108310568D02*
X78214939Y-108381996D01*
X78214939Y-108381996D02*
X77643510Y-108381996D01*
X77643510Y-108381996D02*
X77643510Y-106881996D01*
X77643510Y-106881996D02*
X78143510Y-106881996D01*
X78143510Y-106881996D02*
X78286368Y-106953425D01*
X78286368Y-106953425D02*
X78357796Y-107024853D01*
X78357796Y-107024853D02*
X78429225Y-107167710D01*
X78429225Y-107167710D02*
X78429225Y-107310568D01*
X78429225Y-107310568D02*
X78357796Y-107453425D01*
X78357796Y-107453425D02*
X78286368Y-107524853D01*
X78286368Y-107524853D02*
X78143510Y-107596282D01*
X78143510Y-107596282D02*
X77643510Y-107596282D01*
X79143510Y-108381996D02*
X79143510Y-107381996D01*
X79143510Y-106881996D02*
X79072082Y-106953425D01*
X79072082Y-106953425D02*
X79143510Y-107024853D01*
X79143510Y-107024853D02*
X79214939Y-106953425D01*
X79214939Y-106953425D02*
X79143510Y-106881996D01*
X79143510Y-106881996D02*
X79143510Y-107024853D01*
X80072082Y-108381996D02*
X79929225Y-108310568D01*
X79929225Y-108310568D02*
X79857796Y-108239139D01*
X79857796Y-108239139D02*
X79786368Y-108096282D01*
X79786368Y-108096282D02*
X79786368Y-107667710D01*
X79786368Y-107667710D02*
X79857796Y-107524853D01*
X79857796Y-107524853D02*
X79929225Y-107453425D01*
X79929225Y-107453425D02*
X80072082Y-107381996D01*
X80072082Y-107381996D02*
X80286368Y-107381996D01*
X80286368Y-107381996D02*
X80429225Y-107453425D01*
X80429225Y-107453425D02*
X80500654Y-107524853D01*
X80500654Y-107524853D02*
X80572082Y-107667710D01*
X80572082Y-107667710D02*
X80572082Y-108096282D01*
X80572082Y-108096282D02*
X80500654Y-108239139D01*
X80500654Y-108239139D02*
X80429225Y-108310568D01*
X80429225Y-108310568D02*
X80286368Y-108381996D01*
X80286368Y-108381996D02*
X80072082Y-108381996D01*
X81143511Y-108310568D02*
X81357797Y-108381996D01*
X81357797Y-108381996D02*
X81714939Y-108381996D01*
X81714939Y-108381996D02*
X81857797Y-108310568D01*
X81857797Y-108310568D02*
X81929225Y-108239139D01*
X81929225Y-108239139D02*
X82000654Y-108096282D01*
X82000654Y-108096282D02*
X82000654Y-107953425D01*
X82000654Y-107953425D02*
X81929225Y-107810568D01*
X81929225Y-107810568D02*
X81857797Y-107739139D01*
X81857797Y-107739139D02*
X81714939Y-107667710D01*
X81714939Y-107667710D02*
X81429225Y-107596282D01*
X81429225Y-107596282D02*
X81286368Y-107524853D01*
X81286368Y-107524853D02*
X81214939Y-107453425D01*
X81214939Y-107453425D02*
X81143511Y-107310568D01*
X81143511Y-107310568D02*
X81143511Y-107167710D01*
X81143511Y-107167710D02*
X81214939Y-107024853D01*
X81214939Y-107024853D02*
X81286368Y-106953425D01*
X81286368Y-106953425D02*
X81429225Y-106881996D01*
X81429225Y-106881996D02*
X81786368Y-106881996D01*
X81786368Y-106881996D02*
X82000654Y-106953425D01*
X82429225Y-107381996D02*
X83000653Y-107381996D01*
X82643510Y-106881996D02*
X82643510Y-108167710D01*
X82643510Y-108167710D02*
X82714939Y-108310568D01*
X82714939Y-108310568D02*
X82857796Y-108381996D01*
X82857796Y-108381996D02*
X83000653Y-108381996D01*
X84072082Y-108310568D02*
X83929225Y-108381996D01*
X83929225Y-108381996D02*
X83643511Y-108381996D01*
X83643511Y-108381996D02*
X83500653Y-108310568D01*
X83500653Y-108310568D02*
X83429225Y-108167710D01*
X83429225Y-108167710D02*
X83429225Y-107596282D01*
X83429225Y-107596282D02*
X83500653Y-107453425D01*
X83500653Y-107453425D02*
X83643511Y-107381996D01*
X83643511Y-107381996D02*
X83929225Y-107381996D01*
X83929225Y-107381996D02*
X84072082Y-107453425D01*
X84072082Y-107453425D02*
X84143511Y-107596282D01*
X84143511Y-107596282D02*
X84143511Y-107739139D01*
X84143511Y-107739139D02*
X83429225Y-107881996D01*
X85429225Y-108381996D02*
X85429225Y-107596282D01*
X85429225Y-107596282D02*
X85357796Y-107453425D01*
X85357796Y-107453425D02*
X85214939Y-107381996D01*
X85214939Y-107381996D02*
X84929225Y-107381996D01*
X84929225Y-107381996D02*
X84786367Y-107453425D01*
X85429225Y-108310568D02*
X85286367Y-108381996D01*
X85286367Y-108381996D02*
X84929225Y-108381996D01*
X84929225Y-108381996D02*
X84786367Y-108310568D01*
X84786367Y-108310568D02*
X84714939Y-108167710D01*
X84714939Y-108167710D02*
X84714939Y-108024853D01*
X84714939Y-108024853D02*
X84786367Y-107881996D01*
X84786367Y-107881996D02*
X84929225Y-107810568D01*
X84929225Y-107810568D02*
X85286367Y-107810568D01*
X85286367Y-107810568D02*
X85429225Y-107739139D01*
X86786368Y-108381996D02*
X86786368Y-106881996D01*
X86786368Y-108310568D02*
X86643510Y-108381996D01*
X86643510Y-108381996D02*
X86357796Y-108381996D01*
X86357796Y-108381996D02*
X86214939Y-108310568D01*
X86214939Y-108310568D02*
X86143510Y-108239139D01*
X86143510Y-108239139D02*
X86072082Y-108096282D01*
X86072082Y-108096282D02*
X86072082Y-107667710D01*
X86072082Y-107667710D02*
X86143510Y-107524853D01*
X86143510Y-107524853D02*
X86214939Y-107453425D01*
X86214939Y-107453425D02*
X86357796Y-107381996D01*
X86357796Y-107381996D02*
X86643510Y-107381996D01*
X86643510Y-107381996D02*
X86786368Y-107453425D01*
X87357796Y-107381996D02*
X87714939Y-108381996D01*
X88072082Y-107381996D02*
X87714939Y-108381996D01*
X87714939Y-108381996D02*
X87572082Y-108739139D01*
X87572082Y-108739139D02*
X87500653Y-108810568D01*
X87500653Y-108810568D02*
X87357796Y-108881996D01*
X89572082Y-106881996D02*
X90072082Y-108381996D01*
X90072082Y-108381996D02*
X90572082Y-106881996D01*
X90929224Y-106881996D02*
X91857796Y-106881996D01*
X91857796Y-106881996D02*
X91357796Y-107453425D01*
X91357796Y-107453425D02*
X91572081Y-107453425D01*
X91572081Y-107453425D02*
X91714939Y-107524853D01*
X91714939Y-107524853D02*
X91786367Y-107596282D01*
X91786367Y-107596282D02*
X91857796Y-107739139D01*
X91857796Y-107739139D02*
X91857796Y-108096282D01*
X91857796Y-108096282D02*
X91786367Y-108239139D01*
X91786367Y-108239139D02*
X91714939Y-108310568D01*
X91714939Y-108310568D02*
X91572081Y-108381996D01*
X91572081Y-108381996D02*
X91143510Y-108381996D01*
X91143510Y-108381996D02*
X91000653Y-108310568D01*
X91000653Y-108310568D02*
X90929224Y-108239139D01*
X77929225Y-109296912D02*
X78072082Y-109296912D01*
X78072082Y-109296912D02*
X78214939Y-109368341D01*
X78214939Y-109368341D02*
X78286368Y-109439769D01*
X78286368Y-109439769D02*
X78357796Y-109582626D01*
X78357796Y-109582626D02*
X78429225Y-109868341D01*
X78429225Y-109868341D02*
X78429225Y-110225484D01*
X78429225Y-110225484D02*
X78357796Y-110511198D01*
X78357796Y-110511198D02*
X78286368Y-110654055D01*
X78286368Y-110654055D02*
X78214939Y-110725484D01*
X78214939Y-110725484D02*
X78072082Y-110796912D01*
X78072082Y-110796912D02*
X77929225Y-110796912D01*
X77929225Y-110796912D02*
X77786368Y-110725484D01*
X77786368Y-110725484D02*
X77714939Y-110654055D01*
X77714939Y-110654055D02*
X77643510Y-110511198D01*
X77643510Y-110511198D02*
X77572082Y-110225484D01*
X77572082Y-110225484D02*
X77572082Y-109868341D01*
X77572082Y-109868341D02*
X77643510Y-109582626D01*
X77643510Y-109582626D02*
X77714939Y-109439769D01*
X77714939Y-109439769D02*
X77786368Y-109368341D01*
X77786368Y-109368341D02*
X77929225Y-109296912D01*
X79714939Y-109796912D02*
X79714939Y-110796912D01*
X79357796Y-109225484D02*
X79000653Y-110296912D01*
X79000653Y-110296912D02*
X79929224Y-110296912D01*
X80500652Y-110225484D02*
X81643510Y-110225484D01*
X82643510Y-109296912D02*
X82786367Y-109296912D01*
X82786367Y-109296912D02*
X82929224Y-109368341D01*
X82929224Y-109368341D02*
X83000653Y-109439769D01*
X83000653Y-109439769D02*
X83072081Y-109582626D01*
X83072081Y-109582626D02*
X83143510Y-109868341D01*
X83143510Y-109868341D02*
X83143510Y-110225484D01*
X83143510Y-110225484D02*
X83072081Y-110511198D01*
X83072081Y-110511198D02*
X83000653Y-110654055D01*
X83000653Y-110654055D02*
X82929224Y-110725484D01*
X82929224Y-110725484D02*
X82786367Y-110796912D01*
X82786367Y-110796912D02*
X82643510Y-110796912D01*
X82643510Y-110796912D02*
X82500653Y-110725484D01*
X82500653Y-110725484D02*
X82429224Y-110654055D01*
X82429224Y-110654055D02*
X82357795Y-110511198D01*
X82357795Y-110511198D02*
X82286367Y-110225484D01*
X82286367Y-110225484D02*
X82286367Y-109868341D01*
X82286367Y-109868341D02*
X82357795Y-109582626D01*
X82357795Y-109582626D02*
X82429224Y-109439769D01*
X82429224Y-109439769D02*
X82500653Y-109368341D01*
X82500653Y-109368341D02*
X82643510Y-109296912D01*
X83643509Y-109296912D02*
X84643509Y-109296912D01*
X84643509Y-109296912D02*
X84000652Y-110796912D01*
X85214937Y-110225484D02*
X86357795Y-110225484D01*
X87000652Y-109439769D02*
X87072080Y-109368341D01*
X87072080Y-109368341D02*
X87214938Y-109296912D01*
X87214938Y-109296912D02*
X87572080Y-109296912D01*
X87572080Y-109296912D02*
X87714938Y-109368341D01*
X87714938Y-109368341D02*
X87786366Y-109439769D01*
X87786366Y-109439769D02*
X87857795Y-109582626D01*
X87857795Y-109582626D02*
X87857795Y-109725484D01*
X87857795Y-109725484D02*
X87786366Y-109939769D01*
X87786366Y-109939769D02*
X86929223Y-110796912D01*
X86929223Y-110796912D02*
X87857795Y-110796912D01*
X88786366Y-109296912D02*
X88929223Y-109296912D01*
X88929223Y-109296912D02*
X89072080Y-109368341D01*
X89072080Y-109368341D02*
X89143509Y-109439769D01*
X89143509Y-109439769D02*
X89214937Y-109582626D01*
X89214937Y-109582626D02*
X89286366Y-109868341D01*
X89286366Y-109868341D02*
X89286366Y-110225484D01*
X89286366Y-110225484D02*
X89214937Y-110511198D01*
X89214937Y-110511198D02*
X89143509Y-110654055D01*
X89143509Y-110654055D02*
X89072080Y-110725484D01*
X89072080Y-110725484D02*
X88929223Y-110796912D01*
X88929223Y-110796912D02*
X88786366Y-110796912D01*
X88786366Y-110796912D02*
X88643509Y-110725484D01*
X88643509Y-110725484D02*
X88572080Y-110654055D01*
X88572080Y-110654055D02*
X88500651Y-110511198D01*
X88500651Y-110511198D02*
X88429223Y-110225484D01*
X88429223Y-110225484D02*
X88429223Y-109868341D01*
X88429223Y-109868341D02*
X88500651Y-109582626D01*
X88500651Y-109582626D02*
X88572080Y-109439769D01*
X88572080Y-109439769D02*
X88643509Y-109368341D01*
X88643509Y-109368341D02*
X88786366Y-109296912D01*
X89857794Y-109439769D02*
X89929222Y-109368341D01*
X89929222Y-109368341D02*
X90072080Y-109296912D01*
X90072080Y-109296912D02*
X90429222Y-109296912D01*
X90429222Y-109296912D02*
X90572080Y-109368341D01*
X90572080Y-109368341D02*
X90643508Y-109439769D01*
X90643508Y-109439769D02*
X90714937Y-109582626D01*
X90714937Y-109582626D02*
X90714937Y-109725484D01*
X90714937Y-109725484D02*
X90643508Y-109939769D01*
X90643508Y-109939769D02*
X89786365Y-110796912D01*
X89786365Y-110796912D02*
X90714937Y-110796912D01*
X92072079Y-109296912D02*
X91357793Y-109296912D01*
X91357793Y-109296912D02*
X91286365Y-110011198D01*
X91286365Y-110011198D02*
X91357793Y-109939769D01*
X91357793Y-109939769D02*
X91500651Y-109868341D01*
X91500651Y-109868341D02*
X91857793Y-109868341D01*
X91857793Y-109868341D02*
X92000651Y-109939769D01*
X92000651Y-109939769D02*
X92072079Y-110011198D01*
X92072079Y-110011198D02*
X92143508Y-110154055D01*
X92143508Y-110154055D02*
X92143508Y-110511198D01*
X92143508Y-110511198D02*
X92072079Y-110654055D01*
X92072079Y-110654055D02*
X92000651Y-110725484D01*
X92000651Y-110725484D02*
X91857793Y-110796912D01*
X91857793Y-110796912D02*
X91500651Y-110796912D01*
X91500651Y-110796912D02*
X91357793Y-110725484D01*
X91357793Y-110725484D02*
X91286365Y-110654055D01*
X77429225Y-111711828D02*
X78286368Y-111711828D01*
X77857796Y-113211828D02*
X77857796Y-111711828D01*
X79357796Y-113140400D02*
X79214939Y-113211828D01*
X79214939Y-113211828D02*
X78929225Y-113211828D01*
X78929225Y-113211828D02*
X78786367Y-113140400D01*
X78786367Y-113140400D02*
X78714939Y-112997542D01*
X78714939Y-112997542D02*
X78714939Y-112426114D01*
X78714939Y-112426114D02*
X78786367Y-112283257D01*
X78786367Y-112283257D02*
X78929225Y-112211828D01*
X78929225Y-112211828D02*
X79214939Y-112211828D01*
X79214939Y-112211828D02*
X79357796Y-112283257D01*
X79357796Y-112283257D02*
X79429225Y-112426114D01*
X79429225Y-112426114D02*
X79429225Y-112568971D01*
X79429225Y-112568971D02*
X78714939Y-112711828D01*
X80714939Y-113211828D02*
X80714939Y-112426114D01*
X80714939Y-112426114D02*
X80643510Y-112283257D01*
X80643510Y-112283257D02*
X80500653Y-112211828D01*
X80500653Y-112211828D02*
X80214939Y-112211828D01*
X80214939Y-112211828D02*
X80072081Y-112283257D01*
X80714939Y-113140400D02*
X80572081Y-113211828D01*
X80572081Y-113211828D02*
X80214939Y-113211828D01*
X80214939Y-113211828D02*
X80072081Y-113140400D01*
X80072081Y-113140400D02*
X80000653Y-112997542D01*
X80000653Y-112997542D02*
X80000653Y-112854685D01*
X80000653Y-112854685D02*
X80072081Y-112711828D01*
X80072081Y-112711828D02*
X80214939Y-112640400D01*
X80214939Y-112640400D02*
X80572081Y-112640400D01*
X80572081Y-112640400D02*
X80714939Y-112568971D01*
X81429224Y-113211828D02*
X81429224Y-112211828D01*
X81429224Y-112354685D02*
X81500653Y-112283257D01*
X81500653Y-112283257D02*
X81643510Y-112211828D01*
X81643510Y-112211828D02*
X81857796Y-112211828D01*
X81857796Y-112211828D02*
X82000653Y-112283257D01*
X82000653Y-112283257D02*
X82072082Y-112426114D01*
X82072082Y-112426114D02*
X82072082Y-113211828D01*
X82072082Y-112426114D02*
X82143510Y-112283257D01*
X82143510Y-112283257D02*
X82286367Y-112211828D01*
X82286367Y-112211828D02*
X82500653Y-112211828D01*
X82500653Y-112211828D02*
X82643510Y-112283257D01*
X82643510Y-112283257D02*
X82714939Y-112426114D01*
X82714939Y-112426114D02*
X82714939Y-113211828D01*
X84072082Y-112211828D02*
X84072082Y-113211828D01*
X83714939Y-111640400D02*
X83357796Y-112711828D01*
X83357796Y-112711828D02*
X84286367Y-112711828D01*
X85500653Y-111711828D02*
X85214938Y-111711828D01*
X85214938Y-111711828D02*
X85072081Y-111783257D01*
X85072081Y-111783257D02*
X85000653Y-111854685D01*
X85000653Y-111854685D02*
X84857795Y-112068971D01*
X84857795Y-112068971D02*
X84786367Y-112354685D01*
X84786367Y-112354685D02*
X84786367Y-112926114D01*
X84786367Y-112926114D02*
X84857795Y-113068971D01*
X84857795Y-113068971D02*
X84929224Y-113140400D01*
X84929224Y-113140400D02*
X85072081Y-113211828D01*
X85072081Y-113211828D02*
X85357795Y-113211828D01*
X85357795Y-113211828D02*
X85500653Y-113140400D01*
X85500653Y-113140400D02*
X85572081Y-113068971D01*
X85572081Y-113068971D02*
X85643510Y-112926114D01*
X85643510Y-112926114D02*
X85643510Y-112568971D01*
X85643510Y-112568971D02*
X85572081Y-112426114D01*
X85572081Y-112426114D02*
X85500653Y-112354685D01*
X85500653Y-112354685D02*
X85357795Y-112283257D01*
X85357795Y-112283257D02*
X85072081Y-112283257D01*
X85072081Y-112283257D02*
X84929224Y-112354685D01*
X84929224Y-112354685D02*
X84857795Y-112426114D01*
X84857795Y-112426114D02*
X84786367Y-112568971D01*
D11*
X101863819Y-70716666D02*
X101387628Y-71049999D01*
X101863819Y-71288094D02*
X100863819Y-71288094D01*
X100863819Y-71288094D02*
X100863819Y-70907142D01*
X100863819Y-70907142D02*
X100911438Y-70811904D01*
X100911438Y-70811904D02*
X100959057Y-70764285D01*
X100959057Y-70764285D02*
X101054295Y-70716666D01*
X101054295Y-70716666D02*
X101197152Y-70716666D01*
X101197152Y-70716666D02*
X101292390Y-70764285D01*
X101292390Y-70764285D02*
X101340009Y-70811904D01*
X101340009Y-70811904D02*
X101387628Y-70907142D01*
X101387628Y-70907142D02*
X101387628Y-71288094D01*
X101197152Y-69859523D02*
X101863819Y-69859523D01*
X100816200Y-70097618D02*
X101530485Y-70335713D01*
X101530485Y-70335713D02*
X101530485Y-69716666D01*
X98180819Y-70651666D02*
X97704628Y-70984999D01*
X98180819Y-71223094D02*
X97180819Y-71223094D01*
X97180819Y-71223094D02*
X97180819Y-70842142D01*
X97180819Y-70842142D02*
X97228438Y-70746904D01*
X97228438Y-70746904D02*
X97276057Y-70699285D01*
X97276057Y-70699285D02*
X97371295Y-70651666D01*
X97371295Y-70651666D02*
X97514152Y-70651666D01*
X97514152Y-70651666D02*
X97609390Y-70699285D01*
X97609390Y-70699285D02*
X97657009Y-70746904D01*
X97657009Y-70746904D02*
X97704628Y-70842142D01*
X97704628Y-70842142D02*
X97704628Y-71223094D01*
X97180819Y-69794523D02*
X97180819Y-69984999D01*
X97180819Y-69984999D02*
X97228438Y-70080237D01*
X97228438Y-70080237D02*
X97276057Y-70127856D01*
X97276057Y-70127856D02*
X97418914Y-70223094D01*
X97418914Y-70223094D02*
X97609390Y-70270713D01*
X97609390Y-70270713D02*
X97990342Y-70270713D01*
X97990342Y-70270713D02*
X98085580Y-70223094D01*
X98085580Y-70223094D02*
X98133200Y-70175475D01*
X98133200Y-70175475D02*
X98180819Y-70080237D01*
X98180819Y-70080237D02*
X98180819Y-69889761D01*
X98180819Y-69889761D02*
X98133200Y-69794523D01*
X98133200Y-69794523D02*
X98085580Y-69746904D01*
X98085580Y-69746904D02*
X97990342Y-69699285D01*
X97990342Y-69699285D02*
X97752247Y-69699285D01*
X97752247Y-69699285D02*
X97657009Y-69746904D01*
X97657009Y-69746904D02*
X97609390Y-69794523D01*
X97609390Y-69794523D02*
X97561771Y-69889761D01*
X97561771Y-69889761D02*
X97561771Y-70080237D01*
X97561771Y-70080237D02*
X97609390Y-70175475D01*
X97609390Y-70175475D02*
X97657009Y-70223094D01*
X97657009Y-70223094D02*
X97752247Y-70270713D01*
X80491619Y-86267819D02*
X81110666Y-86267819D01*
X81110666Y-86267819D02*
X80777333Y-86648771D01*
X80777333Y-86648771D02*
X80920190Y-86648771D01*
X80920190Y-86648771D02*
X81015428Y-86696390D01*
X81015428Y-86696390D02*
X81063047Y-86744009D01*
X81063047Y-86744009D02*
X81110666Y-86839247D01*
X81110666Y-86839247D02*
X81110666Y-87077342D01*
X81110666Y-87077342D02*
X81063047Y-87172580D01*
X81063047Y-87172580D02*
X81015428Y-87220200D01*
X81015428Y-87220200D02*
X80920190Y-87267819D01*
X80920190Y-87267819D02*
X80634476Y-87267819D01*
X80634476Y-87267819D02*
X80539238Y-87220200D01*
X80539238Y-87220200D02*
X80491619Y-87172580D01*
X81539238Y-87172580D02*
X81586857Y-87220200D01*
X81586857Y-87220200D02*
X81539238Y-87267819D01*
X81539238Y-87267819D02*
X81491619Y-87220200D01*
X81491619Y-87220200D02*
X81539238Y-87172580D01*
X81539238Y-87172580D02*
X81539238Y-87267819D01*
X81920190Y-86267819D02*
X82539237Y-86267819D01*
X82539237Y-86267819D02*
X82205904Y-86648771D01*
X82205904Y-86648771D02*
X82348761Y-86648771D01*
X82348761Y-86648771D02*
X82443999Y-86696390D01*
X82443999Y-86696390D02*
X82491618Y-86744009D01*
X82491618Y-86744009D02*
X82539237Y-86839247D01*
X82539237Y-86839247D02*
X82539237Y-87077342D01*
X82539237Y-87077342D02*
X82491618Y-87172580D01*
X82491618Y-87172580D02*
X82443999Y-87220200D01*
X82443999Y-87220200D02*
X82348761Y-87267819D01*
X82348761Y-87267819D02*
X82063047Y-87267819D01*
X82063047Y-87267819D02*
X81967809Y-87220200D01*
X81967809Y-87220200D02*
X81920190Y-87172580D01*
X82824952Y-86267819D02*
X83158285Y-87267819D01*
X83158285Y-87267819D02*
X83491618Y-86267819D01*
X83586857Y-87363057D02*
X84348761Y-87363057D01*
X85110666Y-87267819D02*
X84539238Y-87267819D01*
X84824952Y-87267819D02*
X84824952Y-86267819D01*
X84824952Y-86267819D02*
X84729714Y-86410676D01*
X84729714Y-86410676D02*
X84634476Y-86505914D01*
X84634476Y-86505914D02*
X84539238Y-86553533D01*
X85539238Y-87172580D02*
X85586857Y-87220200D01*
X85586857Y-87220200D02*
X85539238Y-87267819D01*
X85539238Y-87267819D02*
X85491619Y-87220200D01*
X85491619Y-87220200D02*
X85539238Y-87172580D01*
X85539238Y-87172580D02*
X85539238Y-87267819D01*
X86158285Y-86696390D02*
X86063047Y-86648771D01*
X86063047Y-86648771D02*
X86015428Y-86601152D01*
X86015428Y-86601152D02*
X85967809Y-86505914D01*
X85967809Y-86505914D02*
X85967809Y-86458295D01*
X85967809Y-86458295D02*
X86015428Y-86363057D01*
X86015428Y-86363057D02*
X86063047Y-86315438D01*
X86063047Y-86315438D02*
X86158285Y-86267819D01*
X86158285Y-86267819D02*
X86348761Y-86267819D01*
X86348761Y-86267819D02*
X86443999Y-86315438D01*
X86443999Y-86315438D02*
X86491618Y-86363057D01*
X86491618Y-86363057D02*
X86539237Y-86458295D01*
X86539237Y-86458295D02*
X86539237Y-86505914D01*
X86539237Y-86505914D02*
X86491618Y-86601152D01*
X86491618Y-86601152D02*
X86443999Y-86648771D01*
X86443999Y-86648771D02*
X86348761Y-86696390D01*
X86348761Y-86696390D02*
X86158285Y-86696390D01*
X86158285Y-86696390D02*
X86063047Y-86744009D01*
X86063047Y-86744009D02*
X86015428Y-86791628D01*
X86015428Y-86791628D02*
X85967809Y-86886866D01*
X85967809Y-86886866D02*
X85967809Y-87077342D01*
X85967809Y-87077342D02*
X86015428Y-87172580D01*
X86015428Y-87172580D02*
X86063047Y-87220200D01*
X86063047Y-87220200D02*
X86158285Y-87267819D01*
X86158285Y-87267819D02*
X86348761Y-87267819D01*
X86348761Y-87267819D02*
X86443999Y-87220200D01*
X86443999Y-87220200D02*
X86491618Y-87172580D01*
X86491618Y-87172580D02*
X86539237Y-87077342D01*
X86539237Y-87077342D02*
X86539237Y-86886866D01*
X86539237Y-86886866D02*
X86491618Y-86791628D01*
X86491618Y-86791628D02*
X86443999Y-86744009D01*
X86443999Y-86744009D02*
X86348761Y-86696390D01*
X86824952Y-86267819D02*
X87158285Y-87267819D01*
X87158285Y-87267819D02*
X87491618Y-86267819D01*
X88348761Y-87267819D02*
X87777333Y-87267819D01*
X88063047Y-87267819D02*
X88063047Y-86267819D01*
X88063047Y-86267819D02*
X87967809Y-86410676D01*
X87967809Y-86410676D02*
X87872571Y-86505914D01*
X87872571Y-86505914D02*
X87777333Y-86553533D01*
X96213819Y-107236857D02*
X95737628Y-107570190D01*
X96213819Y-107808285D02*
X95213819Y-107808285D01*
X95213819Y-107808285D02*
X95213819Y-107427333D01*
X95213819Y-107427333D02*
X95261438Y-107332095D01*
X95261438Y-107332095D02*
X95309057Y-107284476D01*
X95309057Y-107284476D02*
X95404295Y-107236857D01*
X95404295Y-107236857D02*
X95547152Y-107236857D01*
X95547152Y-107236857D02*
X95642390Y-107284476D01*
X95642390Y-107284476D02*
X95690009Y-107332095D01*
X95690009Y-107332095D02*
X95737628Y-107427333D01*
X95737628Y-107427333D02*
X95737628Y-107808285D01*
X96213819Y-106284476D02*
X96213819Y-106855904D01*
X96213819Y-106570190D02*
X95213819Y-106570190D01*
X95213819Y-106570190D02*
X95356676Y-106665428D01*
X95356676Y-106665428D02*
X95451914Y-106760666D01*
X95451914Y-106760666D02*
X95499533Y-106855904D01*
X95547152Y-105427333D02*
X96213819Y-105427333D01*
X95166200Y-105665428D02*
X95880485Y-105903523D01*
X95880485Y-105903523D02*
X95880485Y-105284476D01*
X100544333Y-98269819D02*
X100211000Y-97793628D01*
X99972905Y-98269819D02*
X99972905Y-97269819D01*
X99972905Y-97269819D02*
X100353857Y-97269819D01*
X100353857Y-97269819D02*
X100449095Y-97317438D01*
X100449095Y-97317438D02*
X100496714Y-97365057D01*
X100496714Y-97365057D02*
X100544333Y-97460295D01*
X100544333Y-97460295D02*
X100544333Y-97603152D01*
X100544333Y-97603152D02*
X100496714Y-97698390D01*
X100496714Y-97698390D02*
X100449095Y-97746009D01*
X100449095Y-97746009D02*
X100353857Y-97793628D01*
X100353857Y-97793628D02*
X99972905Y-97793628D01*
X100925286Y-97365057D02*
X100972905Y-97317438D01*
X100972905Y-97317438D02*
X101068143Y-97269819D01*
X101068143Y-97269819D02*
X101306238Y-97269819D01*
X101306238Y-97269819D02*
X101401476Y-97317438D01*
X101401476Y-97317438D02*
X101449095Y-97365057D01*
X101449095Y-97365057D02*
X101496714Y-97460295D01*
X101496714Y-97460295D02*
X101496714Y-97555533D01*
X101496714Y-97555533D02*
X101449095Y-97698390D01*
X101449095Y-97698390D02*
X100877667Y-98269819D01*
X100877667Y-98269819D02*
X101496714Y-98269819D01*
X125944333Y-86331080D02*
X125896714Y-86378700D01*
X125896714Y-86378700D02*
X125753857Y-86426319D01*
X125753857Y-86426319D02*
X125658619Y-86426319D01*
X125658619Y-86426319D02*
X125515762Y-86378700D01*
X125515762Y-86378700D02*
X125420524Y-86283461D01*
X125420524Y-86283461D02*
X125372905Y-86188223D01*
X125372905Y-86188223D02*
X125325286Y-85997747D01*
X125325286Y-85997747D02*
X125325286Y-85854890D01*
X125325286Y-85854890D02*
X125372905Y-85664414D01*
X125372905Y-85664414D02*
X125420524Y-85569176D01*
X125420524Y-85569176D02*
X125515762Y-85473938D01*
X125515762Y-85473938D02*
X125658619Y-85426319D01*
X125658619Y-85426319D02*
X125753857Y-85426319D01*
X125753857Y-85426319D02*
X125896714Y-85473938D01*
X125896714Y-85473938D02*
X125944333Y-85521557D01*
X126277667Y-85426319D02*
X126944333Y-85426319D01*
X126944333Y-85426319D02*
X126515762Y-86426319D01*
X138771571Y-67020319D02*
X139342999Y-67020319D01*
X139057285Y-68020319D02*
X139057285Y-67020319D01*
X139676333Y-67496509D02*
X140009666Y-67496509D01*
X140152523Y-68020319D02*
X139676333Y-68020319D01*
X139676333Y-68020319D02*
X139676333Y-67020319D01*
X139676333Y-67020319D02*
X140152523Y-67020319D01*
X140533476Y-67972700D02*
X140676333Y-68020319D01*
X140676333Y-68020319D02*
X140914428Y-68020319D01*
X140914428Y-68020319D02*
X141009666Y-67972700D01*
X141009666Y-67972700D02*
X141057285Y-67925080D01*
X141057285Y-67925080D02*
X141104904Y-67829842D01*
X141104904Y-67829842D02*
X141104904Y-67734604D01*
X141104904Y-67734604D02*
X141057285Y-67639366D01*
X141057285Y-67639366D02*
X141009666Y-67591747D01*
X141009666Y-67591747D02*
X140914428Y-67544128D01*
X140914428Y-67544128D02*
X140723952Y-67496509D01*
X140723952Y-67496509D02*
X140628714Y-67448890D01*
X140628714Y-67448890D02*
X140581095Y-67401271D01*
X140581095Y-67401271D02*
X140533476Y-67306033D01*
X140533476Y-67306033D02*
X140533476Y-67210795D01*
X140533476Y-67210795D02*
X140581095Y-67115557D01*
X140581095Y-67115557D02*
X140628714Y-67067938D01*
X140628714Y-67067938D02*
X140723952Y-67020319D01*
X140723952Y-67020319D02*
X140962047Y-67020319D01*
X140962047Y-67020319D02*
X141104904Y-67067938D01*
X141390619Y-67020319D02*
X141962047Y-67020319D01*
X141676333Y-68020319D02*
X141676333Y-67020319D01*
X142819190Y-68020319D02*
X142247762Y-68020319D01*
X142533476Y-68020319D02*
X142533476Y-67020319D01*
X142533476Y-67020319D02*
X142438238Y-67163176D01*
X142438238Y-67163176D02*
X142343000Y-67258414D01*
X142343000Y-67258414D02*
X142247762Y-67306033D01*
X124405819Y-98581357D02*
X123929628Y-98914690D01*
X124405819Y-99152785D02*
X123405819Y-99152785D01*
X123405819Y-99152785D02*
X123405819Y-98771833D01*
X123405819Y-98771833D02*
X123453438Y-98676595D01*
X123453438Y-98676595D02*
X123501057Y-98628976D01*
X123501057Y-98628976D02*
X123596295Y-98581357D01*
X123596295Y-98581357D02*
X123739152Y-98581357D01*
X123739152Y-98581357D02*
X123834390Y-98628976D01*
X123834390Y-98628976D02*
X123882009Y-98676595D01*
X123882009Y-98676595D02*
X123929628Y-98771833D01*
X123929628Y-98771833D02*
X123929628Y-99152785D01*
X124405819Y-97628976D02*
X124405819Y-98200404D01*
X124405819Y-97914690D02*
X123405819Y-97914690D01*
X123405819Y-97914690D02*
X123548676Y-98009928D01*
X123548676Y-98009928D02*
X123643914Y-98105166D01*
X123643914Y-98105166D02*
X123691533Y-98200404D01*
X123405819Y-96771833D02*
X123405819Y-96962309D01*
X123405819Y-96962309D02*
X123453438Y-97057547D01*
X123453438Y-97057547D02*
X123501057Y-97105166D01*
X123501057Y-97105166D02*
X123643914Y-97200404D01*
X123643914Y-97200404D02*
X123834390Y-97248023D01*
X123834390Y-97248023D02*
X124215342Y-97248023D01*
X124215342Y-97248023D02*
X124310580Y-97200404D01*
X124310580Y-97200404D02*
X124358200Y-97152785D01*
X124358200Y-97152785D02*
X124405819Y-97057547D01*
X124405819Y-97057547D02*
X124405819Y-96867071D01*
X124405819Y-96867071D02*
X124358200Y-96771833D01*
X124358200Y-96771833D02*
X124310580Y-96724214D01*
X124310580Y-96724214D02*
X124215342Y-96676595D01*
X124215342Y-96676595D02*
X123977247Y-96676595D01*
X123977247Y-96676595D02*
X123882009Y-96724214D01*
X123882009Y-96724214D02*
X123834390Y-96771833D01*
X123834390Y-96771833D02*
X123786771Y-96867071D01*
X123786771Y-96867071D02*
X123786771Y-97057547D01*
X123786771Y-97057547D02*
X123834390Y-97152785D01*
X123834390Y-97152785D02*
X123882009Y-97200404D01*
X123882009Y-97200404D02*
X123977247Y-97248023D01*
X106052580Y-114872666D02*
X106100200Y-114920285D01*
X106100200Y-114920285D02*
X106147819Y-115063142D01*
X106147819Y-115063142D02*
X106147819Y-115158380D01*
X106147819Y-115158380D02*
X106100200Y-115301237D01*
X106100200Y-115301237D02*
X106004961Y-115396475D01*
X106004961Y-115396475D02*
X105909723Y-115444094D01*
X105909723Y-115444094D02*
X105719247Y-115491713D01*
X105719247Y-115491713D02*
X105576390Y-115491713D01*
X105576390Y-115491713D02*
X105385914Y-115444094D01*
X105385914Y-115444094D02*
X105290676Y-115396475D01*
X105290676Y-115396475D02*
X105195438Y-115301237D01*
X105195438Y-115301237D02*
X105147819Y-115158380D01*
X105147819Y-115158380D02*
X105147819Y-115063142D01*
X105147819Y-115063142D02*
X105195438Y-114920285D01*
X105195438Y-114920285D02*
X105243057Y-114872666D01*
X106147819Y-113920285D02*
X106147819Y-114491713D01*
X106147819Y-114205999D02*
X105147819Y-114205999D01*
X105147819Y-114205999D02*
X105290676Y-114301237D01*
X105290676Y-114301237D02*
X105385914Y-114396475D01*
X105385914Y-114396475D02*
X105433533Y-114491713D01*
X157480095Y-58357819D02*
X157480095Y-57357819D01*
X157480095Y-57834009D02*
X158051523Y-57834009D01*
X158051523Y-58357819D02*
X158051523Y-57357819D01*
X158480095Y-57453057D02*
X158527714Y-57405438D01*
X158527714Y-57405438D02*
X158622952Y-57357819D01*
X158622952Y-57357819D02*
X158861047Y-57357819D01*
X158861047Y-57357819D02*
X158956285Y-57405438D01*
X158956285Y-57405438D02*
X159003904Y-57453057D01*
X159003904Y-57453057D02*
X159051523Y-57548295D01*
X159051523Y-57548295D02*
X159051523Y-57643533D01*
X159051523Y-57643533D02*
X159003904Y-57786390D01*
X159003904Y-57786390D02*
X158432476Y-58357819D01*
X158432476Y-58357819D02*
X159051523Y-58357819D01*
X140335714Y-92928319D02*
X140335714Y-93737842D01*
X140335714Y-93737842D02*
X140383333Y-93833080D01*
X140383333Y-93833080D02*
X140430952Y-93880700D01*
X140430952Y-93880700D02*
X140526190Y-93928319D01*
X140526190Y-93928319D02*
X140716666Y-93928319D01*
X140716666Y-93928319D02*
X140811904Y-93880700D01*
X140811904Y-93880700D02*
X140859523Y-93833080D01*
X140859523Y-93833080D02*
X140907142Y-93737842D01*
X140907142Y-93737842D02*
X140907142Y-92928319D01*
X141335714Y-93642604D02*
X141811904Y-93642604D01*
X141240476Y-93928319D02*
X141573809Y-92928319D01*
X141573809Y-92928319D02*
X141907142Y-93928319D01*
X142811904Y-93928319D02*
X142478571Y-93452128D01*
X142240476Y-93928319D02*
X142240476Y-92928319D01*
X142240476Y-92928319D02*
X142621428Y-92928319D01*
X142621428Y-92928319D02*
X142716666Y-92975938D01*
X142716666Y-92975938D02*
X142764285Y-93023557D01*
X142764285Y-93023557D02*
X142811904Y-93118795D01*
X142811904Y-93118795D02*
X142811904Y-93261652D01*
X142811904Y-93261652D02*
X142764285Y-93356890D01*
X142764285Y-93356890D02*
X142716666Y-93404509D01*
X142716666Y-93404509D02*
X142621428Y-93452128D01*
X142621428Y-93452128D02*
X142240476Y-93452128D01*
X143097619Y-92928319D02*
X143669047Y-92928319D01*
X143383333Y-93928319D02*
X143383333Y-92928319D01*
X144002381Y-93547366D02*
X144764286Y-93547366D01*
X145097619Y-92928319D02*
X145669047Y-92928319D01*
X145383333Y-93928319D02*
X145383333Y-92928319D01*
X146192857Y-92928319D02*
X146383333Y-92928319D01*
X146383333Y-92928319D02*
X146478571Y-92975938D01*
X146478571Y-92975938D02*
X146573809Y-93071176D01*
X146573809Y-93071176D02*
X146621428Y-93261652D01*
X146621428Y-93261652D02*
X146621428Y-93594985D01*
X146621428Y-93594985D02*
X146573809Y-93785461D01*
X146573809Y-93785461D02*
X146478571Y-93880700D01*
X146478571Y-93880700D02*
X146383333Y-93928319D01*
X146383333Y-93928319D02*
X146192857Y-93928319D01*
X146192857Y-93928319D02*
X146097619Y-93880700D01*
X146097619Y-93880700D02*
X146002381Y-93785461D01*
X146002381Y-93785461D02*
X145954762Y-93594985D01*
X145954762Y-93594985D02*
X145954762Y-93261652D01*
X145954762Y-93261652D02*
X146002381Y-93071176D01*
X146002381Y-93071176D02*
X146097619Y-92975938D01*
X146097619Y-92975938D02*
X146192857Y-92928319D01*
X147050000Y-93547366D02*
X147811905Y-93547366D01*
X148288095Y-92928319D02*
X148288095Y-93737842D01*
X148288095Y-93737842D02*
X148335714Y-93833080D01*
X148335714Y-93833080D02*
X148383333Y-93880700D01*
X148383333Y-93880700D02*
X148478571Y-93928319D01*
X148478571Y-93928319D02*
X148669047Y-93928319D01*
X148669047Y-93928319D02*
X148764285Y-93880700D01*
X148764285Y-93880700D02*
X148811904Y-93833080D01*
X148811904Y-93833080D02*
X148859523Y-93737842D01*
X148859523Y-93737842D02*
X148859523Y-92928319D01*
X149288095Y-93880700D02*
X149430952Y-93928319D01*
X149430952Y-93928319D02*
X149669047Y-93928319D01*
X149669047Y-93928319D02*
X149764285Y-93880700D01*
X149764285Y-93880700D02*
X149811904Y-93833080D01*
X149811904Y-93833080D02*
X149859523Y-93737842D01*
X149859523Y-93737842D02*
X149859523Y-93642604D01*
X149859523Y-93642604D02*
X149811904Y-93547366D01*
X149811904Y-93547366D02*
X149764285Y-93499747D01*
X149764285Y-93499747D02*
X149669047Y-93452128D01*
X149669047Y-93452128D02*
X149478571Y-93404509D01*
X149478571Y-93404509D02*
X149383333Y-93356890D01*
X149383333Y-93356890D02*
X149335714Y-93309271D01*
X149335714Y-93309271D02*
X149288095Y-93214033D01*
X149288095Y-93214033D02*
X149288095Y-93118795D01*
X149288095Y-93118795D02*
X149335714Y-93023557D01*
X149335714Y-93023557D02*
X149383333Y-92975938D01*
X149383333Y-92975938D02*
X149478571Y-92928319D01*
X149478571Y-92928319D02*
X149716666Y-92928319D01*
X149716666Y-92928319D02*
X149859523Y-92975938D01*
X150621428Y-93404509D02*
X150764285Y-93452128D01*
X150764285Y-93452128D02*
X150811904Y-93499747D01*
X150811904Y-93499747D02*
X150859523Y-93594985D01*
X150859523Y-93594985D02*
X150859523Y-93737842D01*
X150859523Y-93737842D02*
X150811904Y-93833080D01*
X150811904Y-93833080D02*
X150764285Y-93880700D01*
X150764285Y-93880700D02*
X150669047Y-93928319D01*
X150669047Y-93928319D02*
X150288095Y-93928319D01*
X150288095Y-93928319D02*
X150288095Y-92928319D01*
X150288095Y-92928319D02*
X150621428Y-92928319D01*
X150621428Y-92928319D02*
X150716666Y-92975938D01*
X150716666Y-92975938D02*
X150764285Y-93023557D01*
X150764285Y-93023557D02*
X150811904Y-93118795D01*
X150811904Y-93118795D02*
X150811904Y-93214033D01*
X150811904Y-93214033D02*
X150764285Y-93309271D01*
X150764285Y-93309271D02*
X150716666Y-93356890D01*
X150716666Y-93356890D02*
X150621428Y-93404509D01*
X150621428Y-93404509D02*
X150288095Y-93404509D01*
X151811904Y-93928319D02*
X151240476Y-93928319D01*
X151526190Y-93928319D02*
X151526190Y-92928319D01*
X151526190Y-92928319D02*
X151430952Y-93071176D01*
X151430952Y-93071176D02*
X151335714Y-93166414D01*
X151335714Y-93166414D02*
X151240476Y-93214033D01*
X105179333Y-95892580D02*
X105131714Y-95940200D01*
X105131714Y-95940200D02*
X104988857Y-95987819D01*
X104988857Y-95987819D02*
X104893619Y-95987819D01*
X104893619Y-95987819D02*
X104750762Y-95940200D01*
X104750762Y-95940200D02*
X104655524Y-95844961D01*
X104655524Y-95844961D02*
X104607905Y-95749723D01*
X104607905Y-95749723D02*
X104560286Y-95559247D01*
X104560286Y-95559247D02*
X104560286Y-95416390D01*
X104560286Y-95416390D02*
X104607905Y-95225914D01*
X104607905Y-95225914D02*
X104655524Y-95130676D01*
X104655524Y-95130676D02*
X104750762Y-95035438D01*
X104750762Y-95035438D02*
X104893619Y-94987819D01*
X104893619Y-94987819D02*
X104988857Y-94987819D01*
X104988857Y-94987819D02*
X105131714Y-95035438D01*
X105131714Y-95035438D02*
X105179333Y-95083057D01*
X105512667Y-94987819D02*
X106131714Y-94987819D01*
X106131714Y-94987819D02*
X105798381Y-95368771D01*
X105798381Y-95368771D02*
X105941238Y-95368771D01*
X105941238Y-95368771D02*
X106036476Y-95416390D01*
X106036476Y-95416390D02*
X106084095Y-95464009D01*
X106084095Y-95464009D02*
X106131714Y-95559247D01*
X106131714Y-95559247D02*
X106131714Y-95797342D01*
X106131714Y-95797342D02*
X106084095Y-95892580D01*
X106084095Y-95892580D02*
X106036476Y-95940200D01*
X106036476Y-95940200D02*
X105941238Y-95987819D01*
X105941238Y-95987819D02*
X105655524Y-95987819D01*
X105655524Y-95987819D02*
X105560286Y-95940200D01*
X105560286Y-95940200D02*
X105512667Y-95892580D01*
X152681333Y-86016080D02*
X152633714Y-86063700D01*
X152633714Y-86063700D02*
X152490857Y-86111319D01*
X152490857Y-86111319D02*
X152395619Y-86111319D01*
X152395619Y-86111319D02*
X152252762Y-86063700D01*
X152252762Y-86063700D02*
X152157524Y-85968461D01*
X152157524Y-85968461D02*
X152109905Y-85873223D01*
X152109905Y-85873223D02*
X152062286Y-85682747D01*
X152062286Y-85682747D02*
X152062286Y-85539890D01*
X152062286Y-85539890D02*
X152109905Y-85349414D01*
X152109905Y-85349414D02*
X152157524Y-85254176D01*
X152157524Y-85254176D02*
X152252762Y-85158938D01*
X152252762Y-85158938D02*
X152395619Y-85111319D01*
X152395619Y-85111319D02*
X152490857Y-85111319D01*
X152490857Y-85111319D02*
X152633714Y-85158938D01*
X152633714Y-85158938D02*
X152681333Y-85206557D01*
X153157524Y-86111319D02*
X153348000Y-86111319D01*
X153348000Y-86111319D02*
X153443238Y-86063700D01*
X153443238Y-86063700D02*
X153490857Y-86016080D01*
X153490857Y-86016080D02*
X153586095Y-85873223D01*
X153586095Y-85873223D02*
X153633714Y-85682747D01*
X153633714Y-85682747D02*
X153633714Y-85301795D01*
X153633714Y-85301795D02*
X153586095Y-85206557D01*
X153586095Y-85206557D02*
X153538476Y-85158938D01*
X153538476Y-85158938D02*
X153443238Y-85111319D01*
X153443238Y-85111319D02*
X153252762Y-85111319D01*
X153252762Y-85111319D02*
X153157524Y-85158938D01*
X153157524Y-85158938D02*
X153109905Y-85206557D01*
X153109905Y-85206557D02*
X153062286Y-85301795D01*
X153062286Y-85301795D02*
X153062286Y-85539890D01*
X153062286Y-85539890D02*
X153109905Y-85635128D01*
X153109905Y-85635128D02*
X153157524Y-85682747D01*
X153157524Y-85682747D02*
X153252762Y-85730366D01*
X153252762Y-85730366D02*
X153443238Y-85730366D01*
X153443238Y-85730366D02*
X153538476Y-85682747D01*
X153538476Y-85682747D02*
X153586095Y-85635128D01*
X153586095Y-85635128D02*
X153633714Y-85539890D01*
X99480142Y-92147819D02*
X99146809Y-91671628D01*
X98908714Y-92147819D02*
X98908714Y-91147819D01*
X98908714Y-91147819D02*
X99289666Y-91147819D01*
X99289666Y-91147819D02*
X99384904Y-91195438D01*
X99384904Y-91195438D02*
X99432523Y-91243057D01*
X99432523Y-91243057D02*
X99480142Y-91338295D01*
X99480142Y-91338295D02*
X99480142Y-91481152D01*
X99480142Y-91481152D02*
X99432523Y-91576390D01*
X99432523Y-91576390D02*
X99384904Y-91624009D01*
X99384904Y-91624009D02*
X99289666Y-91671628D01*
X99289666Y-91671628D02*
X98908714Y-91671628D01*
X100432523Y-92147819D02*
X99861095Y-92147819D01*
X100146809Y-92147819D02*
X100146809Y-91147819D01*
X100146809Y-91147819D02*
X100051571Y-91290676D01*
X100051571Y-91290676D02*
X99956333Y-91385914D01*
X99956333Y-91385914D02*
X99861095Y-91433533D01*
X101051571Y-91147819D02*
X101146809Y-91147819D01*
X101146809Y-91147819D02*
X101242047Y-91195438D01*
X101242047Y-91195438D02*
X101289666Y-91243057D01*
X101289666Y-91243057D02*
X101337285Y-91338295D01*
X101337285Y-91338295D02*
X101384904Y-91528771D01*
X101384904Y-91528771D02*
X101384904Y-91766866D01*
X101384904Y-91766866D02*
X101337285Y-91957342D01*
X101337285Y-91957342D02*
X101289666Y-92052580D01*
X101289666Y-92052580D02*
X101242047Y-92100200D01*
X101242047Y-92100200D02*
X101146809Y-92147819D01*
X101146809Y-92147819D02*
X101051571Y-92147819D01*
X101051571Y-92147819D02*
X100956333Y-92100200D01*
X100956333Y-92100200D02*
X100908714Y-92052580D01*
X100908714Y-92052580D02*
X100861095Y-91957342D01*
X100861095Y-91957342D02*
X100813476Y-91766866D01*
X100813476Y-91766866D02*
X100813476Y-91528771D01*
X100813476Y-91528771D02*
X100861095Y-91338295D01*
X100861095Y-91338295D02*
X100908714Y-91243057D01*
X100908714Y-91243057D02*
X100956333Y-91195438D01*
X100956333Y-91195438D02*
X101051571Y-91147819D01*
X104846333Y-98396819D02*
X104513000Y-97920628D01*
X104274905Y-98396819D02*
X104274905Y-97396819D01*
X104274905Y-97396819D02*
X104655857Y-97396819D01*
X104655857Y-97396819D02*
X104751095Y-97444438D01*
X104751095Y-97444438D02*
X104798714Y-97492057D01*
X104798714Y-97492057D02*
X104846333Y-97587295D01*
X104846333Y-97587295D02*
X104846333Y-97730152D01*
X104846333Y-97730152D02*
X104798714Y-97825390D01*
X104798714Y-97825390D02*
X104751095Y-97873009D01*
X104751095Y-97873009D02*
X104655857Y-97920628D01*
X104655857Y-97920628D02*
X104274905Y-97920628D01*
X105798714Y-98396819D02*
X105227286Y-98396819D01*
X105513000Y-98396819D02*
X105513000Y-97396819D01*
X105513000Y-97396819D02*
X105417762Y-97539676D01*
X105417762Y-97539676D02*
X105322524Y-97634914D01*
X105322524Y-97634914D02*
X105227286Y-97682533D01*
X78256000Y-68161819D02*
X78589333Y-69161819D01*
X78589333Y-69161819D02*
X78922666Y-68161819D01*
X79256000Y-69161819D02*
X79256000Y-68495152D01*
X79256000Y-68161819D02*
X79208381Y-68209438D01*
X79208381Y-68209438D02*
X79256000Y-68257057D01*
X79256000Y-68257057D02*
X79303619Y-68209438D01*
X79303619Y-68209438D02*
X79256000Y-68161819D01*
X79256000Y-68161819D02*
X79256000Y-68257057D01*
X79732190Y-68495152D02*
X79732190Y-69161819D01*
X79732190Y-68590390D02*
X79779809Y-68542771D01*
X79779809Y-68542771D02*
X79875047Y-68495152D01*
X79875047Y-68495152D02*
X80017904Y-68495152D01*
X80017904Y-68495152D02*
X80113142Y-68542771D01*
X80113142Y-68542771D02*
X80160761Y-68638009D01*
X80160761Y-68638009D02*
X80160761Y-69161819D01*
X81160761Y-69161819D02*
X80589333Y-69161819D01*
X80875047Y-69161819D02*
X80875047Y-68161819D01*
X80875047Y-68161819D02*
X80779809Y-68304676D01*
X80779809Y-68304676D02*
X80684571Y-68399914D01*
X80684571Y-68399914D02*
X80589333Y-68447533D01*
X77597048Y-69923866D02*
X78358953Y-69923866D01*
X77978000Y-70304819D02*
X77978000Y-69542914D01*
X80645048Y-70177866D02*
X81406953Y-70177866D01*
X110881819Y-88399857D02*
X110405628Y-88733190D01*
X110881819Y-88971285D02*
X109881819Y-88971285D01*
X109881819Y-88971285D02*
X109881819Y-88590333D01*
X109881819Y-88590333D02*
X109929438Y-88495095D01*
X109929438Y-88495095D02*
X109977057Y-88447476D01*
X109977057Y-88447476D02*
X110072295Y-88399857D01*
X110072295Y-88399857D02*
X110215152Y-88399857D01*
X110215152Y-88399857D02*
X110310390Y-88447476D01*
X110310390Y-88447476D02*
X110358009Y-88495095D01*
X110358009Y-88495095D02*
X110405628Y-88590333D01*
X110405628Y-88590333D02*
X110405628Y-88971285D01*
X110881819Y-87447476D02*
X110881819Y-88018904D01*
X110881819Y-87733190D02*
X109881819Y-87733190D01*
X109881819Y-87733190D02*
X110024676Y-87828428D01*
X110024676Y-87828428D02*
X110119914Y-87923666D01*
X110119914Y-87923666D02*
X110167533Y-88018904D01*
X109977057Y-87066523D02*
X109929438Y-87018904D01*
X109929438Y-87018904D02*
X109881819Y-86923666D01*
X109881819Y-86923666D02*
X109881819Y-86685571D01*
X109881819Y-86685571D02*
X109929438Y-86590333D01*
X109929438Y-86590333D02*
X109977057Y-86542714D01*
X109977057Y-86542714D02*
X110072295Y-86495095D01*
X110072295Y-86495095D02*
X110167533Y-86495095D01*
X110167533Y-86495095D02*
X110310390Y-86542714D01*
X110310390Y-86542714D02*
X110881819Y-87114142D01*
X110881819Y-87114142D02*
X110881819Y-86495095D01*
X81328833Y-78956819D02*
X80852643Y-78956819D01*
X80852643Y-78956819D02*
X80805024Y-79433009D01*
X80805024Y-79433009D02*
X80852643Y-79385390D01*
X80852643Y-79385390D02*
X80947881Y-79337771D01*
X80947881Y-79337771D02*
X81185976Y-79337771D01*
X81185976Y-79337771D02*
X81281214Y-79385390D01*
X81281214Y-79385390D02*
X81328833Y-79433009D01*
X81328833Y-79433009D02*
X81376452Y-79528247D01*
X81376452Y-79528247D02*
X81376452Y-79766342D01*
X81376452Y-79766342D02*
X81328833Y-79861580D01*
X81328833Y-79861580D02*
X81281214Y-79909200D01*
X81281214Y-79909200D02*
X81185976Y-79956819D01*
X81185976Y-79956819D02*
X80947881Y-79956819D01*
X80947881Y-79956819D02*
X80852643Y-79909200D01*
X80852643Y-79909200D02*
X80805024Y-79861580D01*
X81662167Y-78956819D02*
X81995500Y-79956819D01*
X81995500Y-79956819D02*
X82328833Y-78956819D01*
X82424072Y-80052057D02*
X83185976Y-80052057D01*
X83328834Y-78956819D02*
X83947881Y-78956819D01*
X83947881Y-78956819D02*
X83614548Y-79337771D01*
X83614548Y-79337771D02*
X83757405Y-79337771D01*
X83757405Y-79337771D02*
X83852643Y-79385390D01*
X83852643Y-79385390D02*
X83900262Y-79433009D01*
X83900262Y-79433009D02*
X83947881Y-79528247D01*
X83947881Y-79528247D02*
X83947881Y-79766342D01*
X83947881Y-79766342D02*
X83900262Y-79861580D01*
X83900262Y-79861580D02*
X83852643Y-79909200D01*
X83852643Y-79909200D02*
X83757405Y-79956819D01*
X83757405Y-79956819D02*
X83471691Y-79956819D01*
X83471691Y-79956819D02*
X83376453Y-79909200D01*
X83376453Y-79909200D02*
X83328834Y-79861580D01*
X84376453Y-79861580D02*
X84424072Y-79909200D01*
X84424072Y-79909200D02*
X84376453Y-79956819D01*
X84376453Y-79956819D02*
X84328834Y-79909200D01*
X84328834Y-79909200D02*
X84376453Y-79861580D01*
X84376453Y-79861580D02*
X84376453Y-79956819D01*
X84757405Y-78956819D02*
X85376452Y-78956819D01*
X85376452Y-78956819D02*
X85043119Y-79337771D01*
X85043119Y-79337771D02*
X85185976Y-79337771D01*
X85185976Y-79337771D02*
X85281214Y-79385390D01*
X85281214Y-79385390D02*
X85328833Y-79433009D01*
X85328833Y-79433009D02*
X85376452Y-79528247D01*
X85376452Y-79528247D02*
X85376452Y-79766342D01*
X85376452Y-79766342D02*
X85328833Y-79861580D01*
X85328833Y-79861580D02*
X85281214Y-79909200D01*
X85281214Y-79909200D02*
X85185976Y-79956819D01*
X85185976Y-79956819D02*
X84900262Y-79956819D01*
X84900262Y-79956819D02*
X84805024Y-79909200D01*
X84805024Y-79909200D02*
X84757405Y-79861580D01*
X85662167Y-78956819D02*
X85995500Y-79956819D01*
X85995500Y-79956819D02*
X86328833Y-78956819D01*
X87185976Y-79956819D02*
X86614548Y-79956819D01*
X86900262Y-79956819D02*
X86900262Y-78956819D01*
X86900262Y-78956819D02*
X86805024Y-79099676D01*
X86805024Y-79099676D02*
X86709786Y-79194914D01*
X86709786Y-79194914D02*
X86614548Y-79242533D01*
X99434190Y-111331819D02*
X99434190Y-110331819D01*
X99434190Y-110808009D02*
X100005618Y-110808009D01*
X100005618Y-111331819D02*
X100005618Y-110331819D01*
X100481809Y-110808009D02*
X100815142Y-110808009D01*
X100957999Y-111331819D02*
X100481809Y-111331819D01*
X100481809Y-111331819D02*
X100481809Y-110331819D01*
X100481809Y-110331819D02*
X100957999Y-110331819D01*
X101338952Y-111046104D02*
X101815142Y-111046104D01*
X101243714Y-111331819D02*
X101577047Y-110331819D01*
X101577047Y-110331819D02*
X101910380Y-111331819D01*
X102815142Y-111331819D02*
X102481809Y-110855628D01*
X102243714Y-111331819D02*
X102243714Y-110331819D01*
X102243714Y-110331819D02*
X102624666Y-110331819D01*
X102624666Y-110331819D02*
X102719904Y-110379438D01*
X102719904Y-110379438D02*
X102767523Y-110427057D01*
X102767523Y-110427057D02*
X102815142Y-110522295D01*
X102815142Y-110522295D02*
X102815142Y-110665152D01*
X102815142Y-110665152D02*
X102767523Y-110760390D01*
X102767523Y-110760390D02*
X102719904Y-110808009D01*
X102719904Y-110808009D02*
X102624666Y-110855628D01*
X102624666Y-110855628D02*
X102243714Y-110855628D01*
X103100857Y-110331819D02*
X103672285Y-110331819D01*
X103386571Y-111331819D02*
X103386571Y-110331819D01*
X104529428Y-111331819D02*
X103958000Y-111331819D01*
X104243714Y-111331819D02*
X104243714Y-110331819D01*
X104243714Y-110331819D02*
X104148476Y-110474676D01*
X104148476Y-110474676D02*
X104053238Y-110569914D01*
X104053238Y-110569914D02*
X103958000Y-110617533D01*
X125595142Y-90141080D02*
X125547523Y-90188700D01*
X125547523Y-90188700D02*
X125404666Y-90236319D01*
X125404666Y-90236319D02*
X125309428Y-90236319D01*
X125309428Y-90236319D02*
X125166571Y-90188700D01*
X125166571Y-90188700D02*
X125071333Y-90093461D01*
X125071333Y-90093461D02*
X125023714Y-89998223D01*
X125023714Y-89998223D02*
X124976095Y-89807747D01*
X124976095Y-89807747D02*
X124976095Y-89664890D01*
X124976095Y-89664890D02*
X125023714Y-89474414D01*
X125023714Y-89474414D02*
X125071333Y-89379176D01*
X125071333Y-89379176D02*
X125166571Y-89283938D01*
X125166571Y-89283938D02*
X125309428Y-89236319D01*
X125309428Y-89236319D02*
X125404666Y-89236319D01*
X125404666Y-89236319D02*
X125547523Y-89283938D01*
X125547523Y-89283938D02*
X125595142Y-89331557D01*
X126547523Y-90236319D02*
X125976095Y-90236319D01*
X126261809Y-90236319D02*
X126261809Y-89236319D01*
X126261809Y-89236319D02*
X126166571Y-89379176D01*
X126166571Y-89379176D02*
X126071333Y-89474414D01*
X126071333Y-89474414D02*
X125976095Y-89522033D01*
X127499904Y-90236319D02*
X126928476Y-90236319D01*
X127214190Y-90236319D02*
X127214190Y-89236319D01*
X127214190Y-89236319D02*
X127118952Y-89379176D01*
X127118952Y-89379176D02*
X127023714Y-89474414D01*
X127023714Y-89474414D02*
X126928476Y-89522033D01*
X105800819Y-70589666D02*
X105324628Y-70922999D01*
X105800819Y-71161094D02*
X104800819Y-71161094D01*
X104800819Y-71161094D02*
X104800819Y-70780142D01*
X104800819Y-70780142D02*
X104848438Y-70684904D01*
X104848438Y-70684904D02*
X104896057Y-70637285D01*
X104896057Y-70637285D02*
X104991295Y-70589666D01*
X104991295Y-70589666D02*
X105134152Y-70589666D01*
X105134152Y-70589666D02*
X105229390Y-70637285D01*
X105229390Y-70637285D02*
X105277009Y-70684904D01*
X105277009Y-70684904D02*
X105324628Y-70780142D01*
X105324628Y-70780142D02*
X105324628Y-71161094D01*
X104800819Y-69684904D02*
X104800819Y-70161094D01*
X104800819Y-70161094D02*
X105277009Y-70208713D01*
X105277009Y-70208713D02*
X105229390Y-70161094D01*
X105229390Y-70161094D02*
X105181771Y-70065856D01*
X105181771Y-70065856D02*
X105181771Y-69827761D01*
X105181771Y-69827761D02*
X105229390Y-69732523D01*
X105229390Y-69732523D02*
X105277009Y-69684904D01*
X105277009Y-69684904D02*
X105372247Y-69637285D01*
X105372247Y-69637285D02*
X105610342Y-69637285D01*
X105610342Y-69637285D02*
X105705580Y-69684904D01*
X105705580Y-69684904D02*
X105753200Y-69732523D01*
X105753200Y-69732523D02*
X105800819Y-69827761D01*
X105800819Y-69827761D02*
X105800819Y-70065856D01*
X105800819Y-70065856D02*
X105753200Y-70161094D01*
X105753200Y-70161094D02*
X105705580Y-70208713D01*
X144819905Y-109016319D02*
X144819905Y-109825842D01*
X144819905Y-109825842D02*
X144867524Y-109921080D01*
X144867524Y-109921080D02*
X144915143Y-109968700D01*
X144915143Y-109968700D02*
X145010381Y-110016319D01*
X145010381Y-110016319D02*
X145200857Y-110016319D01*
X145200857Y-110016319D02*
X145296095Y-109968700D01*
X145296095Y-109968700D02*
X145343714Y-109921080D01*
X145343714Y-109921080D02*
X145391333Y-109825842D01*
X145391333Y-109825842D02*
X145391333Y-109016319D01*
X145819905Y-109968700D02*
X145962762Y-110016319D01*
X145962762Y-110016319D02*
X146200857Y-110016319D01*
X146200857Y-110016319D02*
X146296095Y-109968700D01*
X146296095Y-109968700D02*
X146343714Y-109921080D01*
X146343714Y-109921080D02*
X146391333Y-109825842D01*
X146391333Y-109825842D02*
X146391333Y-109730604D01*
X146391333Y-109730604D02*
X146343714Y-109635366D01*
X146343714Y-109635366D02*
X146296095Y-109587747D01*
X146296095Y-109587747D02*
X146200857Y-109540128D01*
X146200857Y-109540128D02*
X146010381Y-109492509D01*
X146010381Y-109492509D02*
X145915143Y-109444890D01*
X145915143Y-109444890D02*
X145867524Y-109397271D01*
X145867524Y-109397271D02*
X145819905Y-109302033D01*
X145819905Y-109302033D02*
X145819905Y-109206795D01*
X145819905Y-109206795D02*
X145867524Y-109111557D01*
X145867524Y-109111557D02*
X145915143Y-109063938D01*
X145915143Y-109063938D02*
X146010381Y-109016319D01*
X146010381Y-109016319D02*
X146248476Y-109016319D01*
X146248476Y-109016319D02*
X146391333Y-109063938D01*
X147153238Y-109492509D02*
X147296095Y-109540128D01*
X147296095Y-109540128D02*
X147343714Y-109587747D01*
X147343714Y-109587747D02*
X147391333Y-109682985D01*
X147391333Y-109682985D02*
X147391333Y-109825842D01*
X147391333Y-109825842D02*
X147343714Y-109921080D01*
X147343714Y-109921080D02*
X147296095Y-109968700D01*
X147296095Y-109968700D02*
X147200857Y-110016319D01*
X147200857Y-110016319D02*
X146819905Y-110016319D01*
X146819905Y-110016319D02*
X146819905Y-109016319D01*
X146819905Y-109016319D02*
X147153238Y-109016319D01*
X147153238Y-109016319D02*
X147248476Y-109063938D01*
X147248476Y-109063938D02*
X147296095Y-109111557D01*
X147296095Y-109111557D02*
X147343714Y-109206795D01*
X147343714Y-109206795D02*
X147343714Y-109302033D01*
X147343714Y-109302033D02*
X147296095Y-109397271D01*
X147296095Y-109397271D02*
X147248476Y-109444890D01*
X147248476Y-109444890D02*
X147153238Y-109492509D01*
X147153238Y-109492509D02*
X146819905Y-109492509D01*
X148343714Y-110016319D02*
X147772286Y-110016319D01*
X148058000Y-110016319D02*
X148058000Y-109016319D01*
X148058000Y-109016319D02*
X147962762Y-109159176D01*
X147962762Y-109159176D02*
X147867524Y-109254414D01*
X147867524Y-109254414D02*
X147772286Y-109302033D01*
X118324000Y-81560200D02*
X118466857Y-81607819D01*
X118466857Y-81607819D02*
X118704952Y-81607819D01*
X118704952Y-81607819D02*
X118800190Y-81560200D01*
X118800190Y-81560200D02*
X118847809Y-81512580D01*
X118847809Y-81512580D02*
X118895428Y-81417342D01*
X118895428Y-81417342D02*
X118895428Y-81322104D01*
X118895428Y-81322104D02*
X118847809Y-81226866D01*
X118847809Y-81226866D02*
X118800190Y-81179247D01*
X118800190Y-81179247D02*
X118704952Y-81131628D01*
X118704952Y-81131628D02*
X118514476Y-81084009D01*
X118514476Y-81084009D02*
X118419238Y-81036390D01*
X118419238Y-81036390D02*
X118371619Y-80988771D01*
X118371619Y-80988771D02*
X118324000Y-80893533D01*
X118324000Y-80893533D02*
X118324000Y-80798295D01*
X118324000Y-80798295D02*
X118371619Y-80703057D01*
X118371619Y-80703057D02*
X118419238Y-80655438D01*
X118419238Y-80655438D02*
X118514476Y-80607819D01*
X118514476Y-80607819D02*
X118752571Y-80607819D01*
X118752571Y-80607819D02*
X118895428Y-80655438D01*
X119324000Y-81607819D02*
X119324000Y-80607819D01*
X120323999Y-80655438D02*
X120228761Y-80607819D01*
X120228761Y-80607819D02*
X120085904Y-80607819D01*
X120085904Y-80607819D02*
X119943047Y-80655438D01*
X119943047Y-80655438D02*
X119847809Y-80750676D01*
X119847809Y-80750676D02*
X119800190Y-80845914D01*
X119800190Y-80845914D02*
X119752571Y-81036390D01*
X119752571Y-81036390D02*
X119752571Y-81179247D01*
X119752571Y-81179247D02*
X119800190Y-81369723D01*
X119800190Y-81369723D02*
X119847809Y-81464961D01*
X119847809Y-81464961D02*
X119943047Y-81560200D01*
X119943047Y-81560200D02*
X120085904Y-81607819D01*
X120085904Y-81607819D02*
X120181142Y-81607819D01*
X120181142Y-81607819D02*
X120323999Y-81560200D01*
X120323999Y-81560200D02*
X120371618Y-81512580D01*
X120371618Y-81512580D02*
X120371618Y-81179247D01*
X120371618Y-81179247D02*
X120181142Y-81179247D01*
X121323999Y-81607819D02*
X120752571Y-81607819D01*
X121038285Y-81607819D02*
X121038285Y-80607819D01*
X121038285Y-80607819D02*
X120943047Y-80750676D01*
X120943047Y-80750676D02*
X120847809Y-80845914D01*
X120847809Y-80845914D02*
X120752571Y-80893533D01*
X78083580Y-83065857D02*
X78131200Y-83113476D01*
X78131200Y-83113476D02*
X78178819Y-83256333D01*
X78178819Y-83256333D02*
X78178819Y-83351571D01*
X78178819Y-83351571D02*
X78131200Y-83494428D01*
X78131200Y-83494428D02*
X78035961Y-83589666D01*
X78035961Y-83589666D02*
X77940723Y-83637285D01*
X77940723Y-83637285D02*
X77750247Y-83684904D01*
X77750247Y-83684904D02*
X77607390Y-83684904D01*
X77607390Y-83684904D02*
X77416914Y-83637285D01*
X77416914Y-83637285D02*
X77321676Y-83589666D01*
X77321676Y-83589666D02*
X77226438Y-83494428D01*
X77226438Y-83494428D02*
X77178819Y-83351571D01*
X77178819Y-83351571D02*
X77178819Y-83256333D01*
X77178819Y-83256333D02*
X77226438Y-83113476D01*
X77226438Y-83113476D02*
X77274057Y-83065857D01*
X78178819Y-82113476D02*
X78178819Y-82684904D01*
X78178819Y-82399190D02*
X77178819Y-82399190D01*
X77178819Y-82399190D02*
X77321676Y-82494428D01*
X77321676Y-82494428D02*
X77416914Y-82589666D01*
X77416914Y-82589666D02*
X77464533Y-82684904D01*
X77512152Y-81256333D02*
X78178819Y-81256333D01*
X77131200Y-81494428D02*
X77845485Y-81732523D01*
X77845485Y-81732523D02*
X77845485Y-81113476D01*
X90050580Y-83065857D02*
X90098200Y-83113476D01*
X90098200Y-83113476D02*
X90145819Y-83256333D01*
X90145819Y-83256333D02*
X90145819Y-83351571D01*
X90145819Y-83351571D02*
X90098200Y-83494428D01*
X90098200Y-83494428D02*
X90002961Y-83589666D01*
X90002961Y-83589666D02*
X89907723Y-83637285D01*
X89907723Y-83637285D02*
X89717247Y-83684904D01*
X89717247Y-83684904D02*
X89574390Y-83684904D01*
X89574390Y-83684904D02*
X89383914Y-83637285D01*
X89383914Y-83637285D02*
X89288676Y-83589666D01*
X89288676Y-83589666D02*
X89193438Y-83494428D01*
X89193438Y-83494428D02*
X89145819Y-83351571D01*
X89145819Y-83351571D02*
X89145819Y-83256333D01*
X89145819Y-83256333D02*
X89193438Y-83113476D01*
X89193438Y-83113476D02*
X89241057Y-83065857D01*
X90145819Y-82113476D02*
X90145819Y-82684904D01*
X90145819Y-82399190D02*
X89145819Y-82399190D01*
X89145819Y-82399190D02*
X89288676Y-82494428D01*
X89288676Y-82494428D02*
X89383914Y-82589666D01*
X89383914Y-82589666D02*
X89431533Y-82684904D01*
X89145819Y-81208714D02*
X89145819Y-81684904D01*
X89145819Y-81684904D02*
X89622009Y-81732523D01*
X89622009Y-81732523D02*
X89574390Y-81684904D01*
X89574390Y-81684904D02*
X89526771Y-81589666D01*
X89526771Y-81589666D02*
X89526771Y-81351571D01*
X89526771Y-81351571D02*
X89574390Y-81256333D01*
X89574390Y-81256333D02*
X89622009Y-81208714D01*
X89622009Y-81208714D02*
X89717247Y-81161095D01*
X89717247Y-81161095D02*
X89955342Y-81161095D01*
X89955342Y-81161095D02*
X90050580Y-81208714D01*
X90050580Y-81208714D02*
X90098200Y-81256333D01*
X90098200Y-81256333D02*
X90145819Y-81351571D01*
X90145819Y-81351571D02*
X90145819Y-81589666D01*
X90145819Y-81589666D02*
X90098200Y-81684904D01*
X90098200Y-81684904D02*
X90050580Y-81732523D01*
X125944333Y-82267080D02*
X125896714Y-82314700D01*
X125896714Y-82314700D02*
X125753857Y-82362319D01*
X125753857Y-82362319D02*
X125658619Y-82362319D01*
X125658619Y-82362319D02*
X125515762Y-82314700D01*
X125515762Y-82314700D02*
X125420524Y-82219461D01*
X125420524Y-82219461D02*
X125372905Y-82124223D01*
X125372905Y-82124223D02*
X125325286Y-81933747D01*
X125325286Y-81933747D02*
X125325286Y-81790890D01*
X125325286Y-81790890D02*
X125372905Y-81600414D01*
X125372905Y-81600414D02*
X125420524Y-81505176D01*
X125420524Y-81505176D02*
X125515762Y-81409938D01*
X125515762Y-81409938D02*
X125658619Y-81362319D01*
X125658619Y-81362319D02*
X125753857Y-81362319D01*
X125753857Y-81362319D02*
X125896714Y-81409938D01*
X125896714Y-81409938D02*
X125944333Y-81457557D01*
X126849095Y-81362319D02*
X126372905Y-81362319D01*
X126372905Y-81362319D02*
X126325286Y-81838509D01*
X126325286Y-81838509D02*
X126372905Y-81790890D01*
X126372905Y-81790890D02*
X126468143Y-81743271D01*
X126468143Y-81743271D02*
X126706238Y-81743271D01*
X126706238Y-81743271D02*
X126801476Y-81790890D01*
X126801476Y-81790890D02*
X126849095Y-81838509D01*
X126849095Y-81838509D02*
X126896714Y-81933747D01*
X126896714Y-81933747D02*
X126896714Y-82171842D01*
X126896714Y-82171842D02*
X126849095Y-82267080D01*
X126849095Y-82267080D02*
X126801476Y-82314700D01*
X126801476Y-82314700D02*
X126706238Y-82362319D01*
X126706238Y-82362319D02*
X126468143Y-82362319D01*
X126468143Y-82362319D02*
X126372905Y-82314700D01*
X126372905Y-82314700D02*
X126325286Y-82267080D01*
X152286642Y-82079080D02*
X152239023Y-82126700D01*
X152239023Y-82126700D02*
X152096166Y-82174319D01*
X152096166Y-82174319D02*
X152000928Y-82174319D01*
X152000928Y-82174319D02*
X151858071Y-82126700D01*
X151858071Y-82126700D02*
X151762833Y-82031461D01*
X151762833Y-82031461D02*
X151715214Y-81936223D01*
X151715214Y-81936223D02*
X151667595Y-81745747D01*
X151667595Y-81745747D02*
X151667595Y-81602890D01*
X151667595Y-81602890D02*
X151715214Y-81412414D01*
X151715214Y-81412414D02*
X151762833Y-81317176D01*
X151762833Y-81317176D02*
X151858071Y-81221938D01*
X151858071Y-81221938D02*
X152000928Y-81174319D01*
X152000928Y-81174319D02*
X152096166Y-81174319D01*
X152096166Y-81174319D02*
X152239023Y-81221938D01*
X152239023Y-81221938D02*
X152286642Y-81269557D01*
X153239023Y-82174319D02*
X152667595Y-82174319D01*
X152953309Y-82174319D02*
X152953309Y-81174319D01*
X152953309Y-81174319D02*
X152858071Y-81317176D01*
X152858071Y-81317176D02*
X152762833Y-81412414D01*
X152762833Y-81412414D02*
X152667595Y-81460033D01*
X153810452Y-81602890D02*
X153715214Y-81555271D01*
X153715214Y-81555271D02*
X153667595Y-81507652D01*
X153667595Y-81507652D02*
X153619976Y-81412414D01*
X153619976Y-81412414D02*
X153619976Y-81364795D01*
X153619976Y-81364795D02*
X153667595Y-81269557D01*
X153667595Y-81269557D02*
X153715214Y-81221938D01*
X153715214Y-81221938D02*
X153810452Y-81174319D01*
X153810452Y-81174319D02*
X154000928Y-81174319D01*
X154000928Y-81174319D02*
X154096166Y-81221938D01*
X154096166Y-81221938D02*
X154143785Y-81269557D01*
X154143785Y-81269557D02*
X154191404Y-81364795D01*
X154191404Y-81364795D02*
X154191404Y-81412414D01*
X154191404Y-81412414D02*
X154143785Y-81507652D01*
X154143785Y-81507652D02*
X154096166Y-81555271D01*
X154096166Y-81555271D02*
X154000928Y-81602890D01*
X154000928Y-81602890D02*
X153810452Y-81602890D01*
X153810452Y-81602890D02*
X153715214Y-81650509D01*
X153715214Y-81650509D02*
X153667595Y-81698128D01*
X153667595Y-81698128D02*
X153619976Y-81793366D01*
X153619976Y-81793366D02*
X153619976Y-81983842D01*
X153619976Y-81983842D02*
X153667595Y-82079080D01*
X153667595Y-82079080D02*
X153715214Y-82126700D01*
X153715214Y-82126700D02*
X153810452Y-82174319D01*
X153810452Y-82174319D02*
X154000928Y-82174319D01*
X154000928Y-82174319D02*
X154096166Y-82126700D01*
X154096166Y-82126700D02*
X154143785Y-82079080D01*
X154143785Y-82079080D02*
X154191404Y-81983842D01*
X154191404Y-81983842D02*
X154191404Y-81793366D01*
X154191404Y-81793366D02*
X154143785Y-81698128D01*
X154143785Y-81698128D02*
X154096166Y-81650509D01*
X154096166Y-81650509D02*
X154000928Y-81602890D01*
X102467580Y-114999666D02*
X102515200Y-115047285D01*
X102515200Y-115047285D02*
X102562819Y-115190142D01*
X102562819Y-115190142D02*
X102562819Y-115285380D01*
X102562819Y-115285380D02*
X102515200Y-115428237D01*
X102515200Y-115428237D02*
X102419961Y-115523475D01*
X102419961Y-115523475D02*
X102324723Y-115571094D01*
X102324723Y-115571094D02*
X102134247Y-115618713D01*
X102134247Y-115618713D02*
X101991390Y-115618713D01*
X101991390Y-115618713D02*
X101800914Y-115571094D01*
X101800914Y-115571094D02*
X101705676Y-115523475D01*
X101705676Y-115523475D02*
X101610438Y-115428237D01*
X101610438Y-115428237D02*
X101562819Y-115285380D01*
X101562819Y-115285380D02*
X101562819Y-115190142D01*
X101562819Y-115190142D02*
X101610438Y-115047285D01*
X101610438Y-115047285D02*
X101658057Y-114999666D01*
X101658057Y-114618713D02*
X101610438Y-114571094D01*
X101610438Y-114571094D02*
X101562819Y-114475856D01*
X101562819Y-114475856D02*
X101562819Y-114237761D01*
X101562819Y-114237761D02*
X101610438Y-114142523D01*
X101610438Y-114142523D02*
X101658057Y-114094904D01*
X101658057Y-114094904D02*
X101753295Y-114047285D01*
X101753295Y-114047285D02*
X101848533Y-114047285D01*
X101848533Y-114047285D02*
X101991390Y-114094904D01*
X101991390Y-114094904D02*
X102562819Y-114666332D01*
X102562819Y-114666332D02*
X102562819Y-114047285D01*
X130294142Y-90014080D02*
X130246523Y-90061700D01*
X130246523Y-90061700D02*
X130103666Y-90109319D01*
X130103666Y-90109319D02*
X130008428Y-90109319D01*
X130008428Y-90109319D02*
X129865571Y-90061700D01*
X129865571Y-90061700D02*
X129770333Y-89966461D01*
X129770333Y-89966461D02*
X129722714Y-89871223D01*
X129722714Y-89871223D02*
X129675095Y-89680747D01*
X129675095Y-89680747D02*
X129675095Y-89537890D01*
X129675095Y-89537890D02*
X129722714Y-89347414D01*
X129722714Y-89347414D02*
X129770333Y-89252176D01*
X129770333Y-89252176D02*
X129865571Y-89156938D01*
X129865571Y-89156938D02*
X130008428Y-89109319D01*
X130008428Y-89109319D02*
X130103666Y-89109319D01*
X130103666Y-89109319D02*
X130246523Y-89156938D01*
X130246523Y-89156938D02*
X130294142Y-89204557D01*
X131246523Y-90109319D02*
X130675095Y-90109319D01*
X130960809Y-90109319D02*
X130960809Y-89109319D01*
X130960809Y-89109319D02*
X130865571Y-89252176D01*
X130865571Y-89252176D02*
X130770333Y-89347414D01*
X130770333Y-89347414D02*
X130675095Y-89395033D01*
X131627476Y-89204557D02*
X131675095Y-89156938D01*
X131675095Y-89156938D02*
X131770333Y-89109319D01*
X131770333Y-89109319D02*
X132008428Y-89109319D01*
X132008428Y-89109319D02*
X132103666Y-89156938D01*
X132103666Y-89156938D02*
X132151285Y-89204557D01*
X132151285Y-89204557D02*
X132198904Y-89299795D01*
X132198904Y-89299795D02*
X132198904Y-89395033D01*
X132198904Y-89395033D02*
X132151285Y-89537890D01*
X132151285Y-89537890D02*
X131579857Y-90109319D01*
X131579857Y-90109319D02*
X132198904Y-90109319D01*
X113673819Y-78271666D02*
X113197628Y-78604999D01*
X113673819Y-78843094D02*
X112673819Y-78843094D01*
X112673819Y-78843094D02*
X112673819Y-78462142D01*
X112673819Y-78462142D02*
X112721438Y-78366904D01*
X112721438Y-78366904D02*
X112769057Y-78319285D01*
X112769057Y-78319285D02*
X112864295Y-78271666D01*
X112864295Y-78271666D02*
X113007152Y-78271666D01*
X113007152Y-78271666D02*
X113102390Y-78319285D01*
X113102390Y-78319285D02*
X113150009Y-78366904D01*
X113150009Y-78366904D02*
X113197628Y-78462142D01*
X113197628Y-78462142D02*
X113197628Y-78843094D01*
X113102390Y-77700237D02*
X113054771Y-77795475D01*
X113054771Y-77795475D02*
X113007152Y-77843094D01*
X113007152Y-77843094D02*
X112911914Y-77890713D01*
X112911914Y-77890713D02*
X112864295Y-77890713D01*
X112864295Y-77890713D02*
X112769057Y-77843094D01*
X112769057Y-77843094D02*
X112721438Y-77795475D01*
X112721438Y-77795475D02*
X112673819Y-77700237D01*
X112673819Y-77700237D02*
X112673819Y-77509761D01*
X112673819Y-77509761D02*
X112721438Y-77414523D01*
X112721438Y-77414523D02*
X112769057Y-77366904D01*
X112769057Y-77366904D02*
X112864295Y-77319285D01*
X112864295Y-77319285D02*
X112911914Y-77319285D01*
X112911914Y-77319285D02*
X113007152Y-77366904D01*
X113007152Y-77366904D02*
X113054771Y-77414523D01*
X113054771Y-77414523D02*
X113102390Y-77509761D01*
X113102390Y-77509761D02*
X113102390Y-77700237D01*
X113102390Y-77700237D02*
X113150009Y-77795475D01*
X113150009Y-77795475D02*
X113197628Y-77843094D01*
X113197628Y-77843094D02*
X113292866Y-77890713D01*
X113292866Y-77890713D02*
X113483342Y-77890713D01*
X113483342Y-77890713D02*
X113578580Y-77843094D01*
X113578580Y-77843094D02*
X113626200Y-77795475D01*
X113626200Y-77795475D02*
X113673819Y-77700237D01*
X113673819Y-77700237D02*
X113673819Y-77509761D01*
X113673819Y-77509761D02*
X113626200Y-77414523D01*
X113626200Y-77414523D02*
X113578580Y-77366904D01*
X113578580Y-77366904D02*
X113483342Y-77319285D01*
X113483342Y-77319285D02*
X113292866Y-77319285D01*
X113292866Y-77319285D02*
X113197628Y-77366904D01*
X113197628Y-77366904D02*
X113150009Y-77414523D01*
X113150009Y-77414523D02*
X113102390Y-77509761D01*
X124344667Y-114476200D02*
X124487524Y-114523819D01*
X124487524Y-114523819D02*
X124725619Y-114523819D01*
X124725619Y-114523819D02*
X124820857Y-114476200D01*
X124820857Y-114476200D02*
X124868476Y-114428580D01*
X124868476Y-114428580D02*
X124916095Y-114333342D01*
X124916095Y-114333342D02*
X124916095Y-114238104D01*
X124916095Y-114238104D02*
X124868476Y-114142866D01*
X124868476Y-114142866D02*
X124820857Y-114095247D01*
X124820857Y-114095247D02*
X124725619Y-114047628D01*
X124725619Y-114047628D02*
X124535143Y-114000009D01*
X124535143Y-114000009D02*
X124439905Y-113952390D01*
X124439905Y-113952390D02*
X124392286Y-113904771D01*
X124392286Y-113904771D02*
X124344667Y-113809533D01*
X124344667Y-113809533D02*
X124344667Y-113714295D01*
X124344667Y-113714295D02*
X124392286Y-113619057D01*
X124392286Y-113619057D02*
X124439905Y-113571438D01*
X124439905Y-113571438D02*
X124535143Y-113523819D01*
X124535143Y-113523819D02*
X124773238Y-113523819D01*
X124773238Y-113523819D02*
X124916095Y-113571438D01*
X125249429Y-113523819D02*
X125487524Y-114523819D01*
X125487524Y-114523819D02*
X125678000Y-113809533D01*
X125678000Y-113809533D02*
X125868476Y-114523819D01*
X125868476Y-114523819D02*
X126106572Y-113523819D01*
X127011333Y-114523819D02*
X126439905Y-114523819D01*
X126725619Y-114523819D02*
X126725619Y-113523819D01*
X126725619Y-113523819D02*
X126630381Y-113666676D01*
X126630381Y-113666676D02*
X126535143Y-113761914D01*
X126535143Y-113761914D02*
X126439905Y-113809533D01*
X126837667Y-100801819D02*
X126837667Y-99801819D01*
X126837667Y-99801819D02*
X127171000Y-100516104D01*
X127171000Y-100516104D02*
X127504333Y-99801819D01*
X127504333Y-99801819D02*
X127504333Y-100801819D01*
X128551952Y-100706580D02*
X128504333Y-100754200D01*
X128504333Y-100754200D02*
X128361476Y-100801819D01*
X128361476Y-100801819D02*
X128266238Y-100801819D01*
X128266238Y-100801819D02*
X128123381Y-100754200D01*
X128123381Y-100754200D02*
X128028143Y-100658961D01*
X128028143Y-100658961D02*
X127980524Y-100563723D01*
X127980524Y-100563723D02*
X127932905Y-100373247D01*
X127932905Y-100373247D02*
X127932905Y-100230390D01*
X127932905Y-100230390D02*
X127980524Y-100039914D01*
X127980524Y-100039914D02*
X128028143Y-99944676D01*
X128028143Y-99944676D02*
X128123381Y-99849438D01*
X128123381Y-99849438D02*
X128266238Y-99801819D01*
X128266238Y-99801819D02*
X128361476Y-99801819D01*
X128361476Y-99801819D02*
X128504333Y-99849438D01*
X128504333Y-99849438D02*
X128551952Y-99897057D01*
X128980524Y-99801819D02*
X128980524Y-100611342D01*
X128980524Y-100611342D02*
X129028143Y-100706580D01*
X129028143Y-100706580D02*
X129075762Y-100754200D01*
X129075762Y-100754200D02*
X129171000Y-100801819D01*
X129171000Y-100801819D02*
X129361476Y-100801819D01*
X129361476Y-100801819D02*
X129456714Y-100754200D01*
X129456714Y-100754200D02*
X129504333Y-100706580D01*
X129504333Y-100706580D02*
X129551952Y-100611342D01*
X129551952Y-100611342D02*
X129551952Y-99801819D01*
X130551952Y-100801819D02*
X129980524Y-100801819D01*
X130266238Y-100801819D02*
X130266238Y-99801819D01*
X130266238Y-99801819D02*
X130171000Y-99944676D01*
X130171000Y-99944676D02*
X130075762Y-100039914D01*
X130075762Y-100039914D02*
X129980524Y-100087533D01*
X133469142Y-109395080D02*
X133421523Y-109442700D01*
X133421523Y-109442700D02*
X133278666Y-109490319D01*
X133278666Y-109490319D02*
X133183428Y-109490319D01*
X133183428Y-109490319D02*
X133040571Y-109442700D01*
X133040571Y-109442700D02*
X132945333Y-109347461D01*
X132945333Y-109347461D02*
X132897714Y-109252223D01*
X132897714Y-109252223D02*
X132850095Y-109061747D01*
X132850095Y-109061747D02*
X132850095Y-108918890D01*
X132850095Y-108918890D02*
X132897714Y-108728414D01*
X132897714Y-108728414D02*
X132945333Y-108633176D01*
X132945333Y-108633176D02*
X133040571Y-108537938D01*
X133040571Y-108537938D02*
X133183428Y-108490319D01*
X133183428Y-108490319D02*
X133278666Y-108490319D01*
X133278666Y-108490319D02*
X133421523Y-108537938D01*
X133421523Y-108537938D02*
X133469142Y-108585557D01*
X134421523Y-109490319D02*
X133850095Y-109490319D01*
X134135809Y-109490319D02*
X134135809Y-108490319D01*
X134135809Y-108490319D02*
X134040571Y-108633176D01*
X134040571Y-108633176D02*
X133945333Y-108728414D01*
X133945333Y-108728414D02*
X133850095Y-108776033D01*
X134754857Y-108490319D02*
X135373904Y-108490319D01*
X135373904Y-108490319D02*
X135040571Y-108871271D01*
X135040571Y-108871271D02*
X135183428Y-108871271D01*
X135183428Y-108871271D02*
X135278666Y-108918890D01*
X135278666Y-108918890D02*
X135326285Y-108966509D01*
X135326285Y-108966509D02*
X135373904Y-109061747D01*
X135373904Y-109061747D02*
X135373904Y-109299842D01*
X135373904Y-109299842D02*
X135326285Y-109395080D01*
X135326285Y-109395080D02*
X135278666Y-109442700D01*
X135278666Y-109442700D02*
X135183428Y-109490319D01*
X135183428Y-109490319D02*
X134897714Y-109490319D01*
X134897714Y-109490319D02*
X134802476Y-109442700D01*
X134802476Y-109442700D02*
X134754857Y-109395080D01*
X71628095Y-117031819D02*
X71628095Y-116031819D01*
X71628095Y-116508009D02*
X72199523Y-116508009D01*
X72199523Y-117031819D02*
X72199523Y-116031819D01*
X72580476Y-116031819D02*
X73199523Y-116031819D01*
X73199523Y-116031819D02*
X72866190Y-116412771D01*
X72866190Y-116412771D02*
X73009047Y-116412771D01*
X73009047Y-116412771D02*
X73104285Y-116460390D01*
X73104285Y-116460390D02*
X73151904Y-116508009D01*
X73151904Y-116508009D02*
X73199523Y-116603247D01*
X73199523Y-116603247D02*
X73199523Y-116841342D01*
X73199523Y-116841342D02*
X73151904Y-116936580D01*
X73151904Y-116936580D02*
X73104285Y-116984200D01*
X73104285Y-116984200D02*
X73009047Y-117031819D01*
X73009047Y-117031819D02*
X72723333Y-117031819D01*
X72723333Y-117031819D02*
X72628095Y-116984200D01*
X72628095Y-116984200D02*
X72580476Y-116936580D01*
X152762833Y-89639080D02*
X152715214Y-89686700D01*
X152715214Y-89686700D02*
X152572357Y-89734319D01*
X152572357Y-89734319D02*
X152477119Y-89734319D01*
X152477119Y-89734319D02*
X152334262Y-89686700D01*
X152334262Y-89686700D02*
X152239024Y-89591461D01*
X152239024Y-89591461D02*
X152191405Y-89496223D01*
X152191405Y-89496223D02*
X152143786Y-89305747D01*
X152143786Y-89305747D02*
X152143786Y-89162890D01*
X152143786Y-89162890D02*
X152191405Y-88972414D01*
X152191405Y-88972414D02*
X152239024Y-88877176D01*
X152239024Y-88877176D02*
X152334262Y-88781938D01*
X152334262Y-88781938D02*
X152477119Y-88734319D01*
X152477119Y-88734319D02*
X152572357Y-88734319D01*
X152572357Y-88734319D02*
X152715214Y-88781938D01*
X152715214Y-88781938D02*
X152762833Y-88829557D01*
X153334262Y-89162890D02*
X153239024Y-89115271D01*
X153239024Y-89115271D02*
X153191405Y-89067652D01*
X153191405Y-89067652D02*
X153143786Y-88972414D01*
X153143786Y-88972414D02*
X153143786Y-88924795D01*
X153143786Y-88924795D02*
X153191405Y-88829557D01*
X153191405Y-88829557D02*
X153239024Y-88781938D01*
X153239024Y-88781938D02*
X153334262Y-88734319D01*
X153334262Y-88734319D02*
X153524738Y-88734319D01*
X153524738Y-88734319D02*
X153619976Y-88781938D01*
X153619976Y-88781938D02*
X153667595Y-88829557D01*
X153667595Y-88829557D02*
X153715214Y-88924795D01*
X153715214Y-88924795D02*
X153715214Y-88972414D01*
X153715214Y-88972414D02*
X153667595Y-89067652D01*
X153667595Y-89067652D02*
X153619976Y-89115271D01*
X153619976Y-89115271D02*
X153524738Y-89162890D01*
X153524738Y-89162890D02*
X153334262Y-89162890D01*
X153334262Y-89162890D02*
X153239024Y-89210509D01*
X153239024Y-89210509D02*
X153191405Y-89258128D01*
X153191405Y-89258128D02*
X153143786Y-89353366D01*
X153143786Y-89353366D02*
X153143786Y-89543842D01*
X153143786Y-89543842D02*
X153191405Y-89639080D01*
X153191405Y-89639080D02*
X153239024Y-89686700D01*
X153239024Y-89686700D02*
X153334262Y-89734319D01*
X153334262Y-89734319D02*
X153524738Y-89734319D01*
X153524738Y-89734319D02*
X153619976Y-89686700D01*
X153619976Y-89686700D02*
X153667595Y-89639080D01*
X153667595Y-89639080D02*
X153715214Y-89543842D01*
X153715214Y-89543842D02*
X153715214Y-89353366D01*
X153715214Y-89353366D02*
X153667595Y-89258128D01*
X153667595Y-89258128D02*
X153619976Y-89210509D01*
X153619976Y-89210509D02*
X153524738Y-89162890D01*
X157480095Y-117285819D02*
X157480095Y-116285819D01*
X157480095Y-116762009D02*
X158051523Y-116762009D01*
X158051523Y-117285819D02*
X158051523Y-116285819D01*
X158956285Y-116619152D02*
X158956285Y-117285819D01*
X158718190Y-116238200D02*
X158480095Y-116952485D01*
X158480095Y-116952485D02*
X159099142Y-116952485D01*
X143965002Y-98191603D02*
X143965002Y-98871877D01*
X143965002Y-98871877D02*
X144005018Y-98951909D01*
X144005018Y-98951909D02*
X144045035Y-98991926D01*
X144045035Y-98991926D02*
X144125067Y-99031942D01*
X144125067Y-99031942D02*
X144285131Y-99031942D01*
X144285131Y-99031942D02*
X144365164Y-98991926D01*
X144365164Y-98991926D02*
X144405180Y-98951909D01*
X144405180Y-98951909D02*
X144445196Y-98871877D01*
X144445196Y-98871877D02*
X144445196Y-98191603D01*
X145285535Y-99031942D02*
X144805341Y-99031942D01*
X145045438Y-99031942D02*
X145045438Y-98191603D01*
X145045438Y-98191603D02*
X144965406Y-98311651D01*
X144965406Y-98311651D02*
X144885373Y-98391683D01*
X144885373Y-98391683D02*
X144805341Y-98431700D01*
X130537833Y-81915080D02*
X130490214Y-81962700D01*
X130490214Y-81962700D02*
X130347357Y-82010319D01*
X130347357Y-82010319D02*
X130252119Y-82010319D01*
X130252119Y-82010319D02*
X130109262Y-81962700D01*
X130109262Y-81962700D02*
X130014024Y-81867461D01*
X130014024Y-81867461D02*
X129966405Y-81772223D01*
X129966405Y-81772223D02*
X129918786Y-81581747D01*
X129918786Y-81581747D02*
X129918786Y-81438890D01*
X129918786Y-81438890D02*
X129966405Y-81248414D01*
X129966405Y-81248414D02*
X130014024Y-81153176D01*
X130014024Y-81153176D02*
X130109262Y-81057938D01*
X130109262Y-81057938D02*
X130252119Y-81010319D01*
X130252119Y-81010319D02*
X130347357Y-81010319D01*
X130347357Y-81010319D02*
X130490214Y-81057938D01*
X130490214Y-81057938D02*
X130537833Y-81105557D01*
X131394976Y-81010319D02*
X131204500Y-81010319D01*
X131204500Y-81010319D02*
X131109262Y-81057938D01*
X131109262Y-81057938D02*
X131061643Y-81105557D01*
X131061643Y-81105557D02*
X130966405Y-81248414D01*
X130966405Y-81248414D02*
X130918786Y-81438890D01*
X130918786Y-81438890D02*
X130918786Y-81819842D01*
X130918786Y-81819842D02*
X130966405Y-81915080D01*
X130966405Y-81915080D02*
X131014024Y-81962700D01*
X131014024Y-81962700D02*
X131109262Y-82010319D01*
X131109262Y-82010319D02*
X131299738Y-82010319D01*
X131299738Y-82010319D02*
X131394976Y-81962700D01*
X131394976Y-81962700D02*
X131442595Y-81915080D01*
X131442595Y-81915080D02*
X131490214Y-81819842D01*
X131490214Y-81819842D02*
X131490214Y-81581747D01*
X131490214Y-81581747D02*
X131442595Y-81486509D01*
X131442595Y-81486509D02*
X131394976Y-81438890D01*
X131394976Y-81438890D02*
X131299738Y-81391271D01*
X131299738Y-81391271D02*
X131109262Y-81391271D01*
X131109262Y-81391271D02*
X131014024Y-81438890D01*
X131014024Y-81438890D02*
X130966405Y-81486509D01*
X130966405Y-81486509D02*
X130918786Y-81581747D01*
X145534142Y-82076319D02*
X145200809Y-81600128D01*
X144962714Y-82076319D02*
X144962714Y-81076319D01*
X144962714Y-81076319D02*
X145343666Y-81076319D01*
X145343666Y-81076319D02*
X145438904Y-81123938D01*
X145438904Y-81123938D02*
X145486523Y-81171557D01*
X145486523Y-81171557D02*
X145534142Y-81266795D01*
X145534142Y-81266795D02*
X145534142Y-81409652D01*
X145534142Y-81409652D02*
X145486523Y-81504890D01*
X145486523Y-81504890D02*
X145438904Y-81552509D01*
X145438904Y-81552509D02*
X145343666Y-81600128D01*
X145343666Y-81600128D02*
X144962714Y-81600128D01*
X146486523Y-82076319D02*
X145915095Y-82076319D01*
X146200809Y-82076319D02*
X146200809Y-81076319D01*
X146200809Y-81076319D02*
X146105571Y-81219176D01*
X146105571Y-81219176D02*
X146010333Y-81314414D01*
X146010333Y-81314414D02*
X145915095Y-81362033D01*
X147391285Y-81076319D02*
X146915095Y-81076319D01*
X146915095Y-81076319D02*
X146867476Y-81552509D01*
X146867476Y-81552509D02*
X146915095Y-81504890D01*
X146915095Y-81504890D02*
X147010333Y-81457271D01*
X147010333Y-81457271D02*
X147248428Y-81457271D01*
X147248428Y-81457271D02*
X147343666Y-81504890D01*
X147343666Y-81504890D02*
X147391285Y-81552509D01*
X147391285Y-81552509D02*
X147438904Y-81647747D01*
X147438904Y-81647747D02*
X147438904Y-81885842D01*
X147438904Y-81885842D02*
X147391285Y-81981080D01*
X147391285Y-81981080D02*
X147343666Y-82028700D01*
X147343666Y-82028700D02*
X147248428Y-82076319D01*
X147248428Y-82076319D02*
X147010333Y-82076319D01*
X147010333Y-82076319D02*
X146915095Y-82028700D01*
X146915095Y-82028700D02*
X146867476Y-81981080D01*
X107112120Y-103441319D02*
X107112120Y-102441319D01*
X107112120Y-102917509D02*
X107683548Y-102917509D01*
X107683548Y-103441319D02*
X107683548Y-102441319D01*
X108159739Y-102917509D02*
X108493072Y-102917509D01*
X108635929Y-103441319D02*
X108159739Y-103441319D01*
X108159739Y-103441319D02*
X108159739Y-102441319D01*
X108159739Y-102441319D02*
X108635929Y-102441319D01*
X109016882Y-103155604D02*
X109493072Y-103155604D01*
X108921644Y-103441319D02*
X109254977Y-102441319D01*
X109254977Y-102441319D02*
X109588310Y-103441319D01*
X110493072Y-103441319D02*
X110159739Y-102965128D01*
X109921644Y-103441319D02*
X109921644Y-102441319D01*
X109921644Y-102441319D02*
X110302596Y-102441319D01*
X110302596Y-102441319D02*
X110397834Y-102488938D01*
X110397834Y-102488938D02*
X110445453Y-102536557D01*
X110445453Y-102536557D02*
X110493072Y-102631795D01*
X110493072Y-102631795D02*
X110493072Y-102774652D01*
X110493072Y-102774652D02*
X110445453Y-102869890D01*
X110445453Y-102869890D02*
X110397834Y-102917509D01*
X110397834Y-102917509D02*
X110302596Y-102965128D01*
X110302596Y-102965128D02*
X109921644Y-102965128D01*
X110778787Y-102441319D02*
X111350215Y-102441319D01*
X111064501Y-103441319D02*
X111064501Y-102441319D01*
X111874025Y-102441319D02*
X112064501Y-102441319D01*
X112064501Y-102441319D02*
X112159739Y-102488938D01*
X112159739Y-102488938D02*
X112254977Y-102584176D01*
X112254977Y-102584176D02*
X112302596Y-102774652D01*
X112302596Y-102774652D02*
X112302596Y-103107985D01*
X112302596Y-103107985D02*
X112254977Y-103298461D01*
X112254977Y-103298461D02*
X112159739Y-103393700D01*
X112159739Y-103393700D02*
X112064501Y-103441319D01*
X112064501Y-103441319D02*
X111874025Y-103441319D01*
X111874025Y-103441319D02*
X111778787Y-103393700D01*
X111778787Y-103393700D02*
X111683549Y-103298461D01*
X111683549Y-103298461D02*
X111635930Y-103107985D01*
X111635930Y-103107985D02*
X111635930Y-102774652D01*
X111635930Y-102774652D02*
X111683549Y-102584176D01*
X111683549Y-102584176D02*
X111778787Y-102488938D01*
X111778787Y-102488938D02*
X111874025Y-102441319D01*
X112731168Y-102441319D02*
X112731168Y-103250842D01*
X112731168Y-103250842D02*
X112778787Y-103346080D01*
X112778787Y-103346080D02*
X112826406Y-103393700D01*
X112826406Y-103393700D02*
X112921644Y-103441319D01*
X112921644Y-103441319D02*
X113112120Y-103441319D01*
X113112120Y-103441319D02*
X113207358Y-103393700D01*
X113207358Y-103393700D02*
X113254977Y-103346080D01*
X113254977Y-103346080D02*
X113302596Y-103250842D01*
X113302596Y-103250842D02*
X113302596Y-102441319D01*
X113635930Y-102441319D02*
X114207358Y-102441319D01*
X113921644Y-103441319D02*
X113921644Y-102441319D01*
X115064501Y-103441319D02*
X114493073Y-103441319D01*
X114778787Y-103441319D02*
X114778787Y-102441319D01*
X114778787Y-102441319D02*
X114683549Y-102584176D01*
X114683549Y-102584176D02*
X114588311Y-102679414D01*
X114588311Y-102679414D02*
X114493073Y-102727033D01*
X71628095Y-58103819D02*
X71628095Y-57103819D01*
X71628095Y-57580009D02*
X72199523Y-57580009D01*
X72199523Y-58103819D02*
X72199523Y-57103819D01*
X73199523Y-58103819D02*
X72628095Y-58103819D01*
X72913809Y-58103819D02*
X72913809Y-57103819D01*
X72913809Y-57103819D02*
X72818571Y-57246676D01*
X72818571Y-57246676D02*
X72723333Y-57341914D01*
X72723333Y-57341914D02*
X72628095Y-57389533D01*
X105052333Y-92147819D02*
X104719000Y-91671628D01*
X104480905Y-92147819D02*
X104480905Y-91147819D01*
X104480905Y-91147819D02*
X104861857Y-91147819D01*
X104861857Y-91147819D02*
X104957095Y-91195438D01*
X104957095Y-91195438D02*
X105004714Y-91243057D01*
X105004714Y-91243057D02*
X105052333Y-91338295D01*
X105052333Y-91338295D02*
X105052333Y-91481152D01*
X105052333Y-91481152D02*
X105004714Y-91576390D01*
X105004714Y-91576390D02*
X104957095Y-91624009D01*
X104957095Y-91624009D02*
X104861857Y-91671628D01*
X104861857Y-91671628D02*
X104480905Y-91671628D01*
X105385667Y-91147819D02*
X106004714Y-91147819D01*
X106004714Y-91147819D02*
X105671381Y-91528771D01*
X105671381Y-91528771D02*
X105814238Y-91528771D01*
X105814238Y-91528771D02*
X105909476Y-91576390D01*
X105909476Y-91576390D02*
X105957095Y-91624009D01*
X105957095Y-91624009D02*
X106004714Y-91719247D01*
X106004714Y-91719247D02*
X106004714Y-91957342D01*
X106004714Y-91957342D02*
X105957095Y-92052580D01*
X105957095Y-92052580D02*
X105909476Y-92100200D01*
X105909476Y-92100200D02*
X105814238Y-92147819D01*
X105814238Y-92147819D02*
X105528524Y-92147819D01*
X105528524Y-92147819D02*
X105433286Y-92100200D01*
X105433286Y-92100200D02*
X105385667Y-92052580D01*
X119816142Y-79288819D02*
X119482809Y-78812628D01*
X119244714Y-79288819D02*
X119244714Y-78288819D01*
X119244714Y-78288819D02*
X119625666Y-78288819D01*
X119625666Y-78288819D02*
X119720904Y-78336438D01*
X119720904Y-78336438D02*
X119768523Y-78384057D01*
X119768523Y-78384057D02*
X119816142Y-78479295D01*
X119816142Y-78479295D02*
X119816142Y-78622152D01*
X119816142Y-78622152D02*
X119768523Y-78717390D01*
X119768523Y-78717390D02*
X119720904Y-78765009D01*
X119720904Y-78765009D02*
X119625666Y-78812628D01*
X119625666Y-78812628D02*
X119244714Y-78812628D01*
X120768523Y-79288819D02*
X120197095Y-79288819D01*
X120482809Y-79288819D02*
X120482809Y-78288819D01*
X120482809Y-78288819D02*
X120387571Y-78431676D01*
X120387571Y-78431676D02*
X120292333Y-78526914D01*
X120292333Y-78526914D02*
X120197095Y-78574533D01*
X121101857Y-78288819D02*
X121768523Y-78288819D01*
X121768523Y-78288819D02*
X121339952Y-79288819D01*
X130294142Y-86204080D02*
X130246523Y-86251700D01*
X130246523Y-86251700D02*
X130103666Y-86299319D01*
X130103666Y-86299319D02*
X130008428Y-86299319D01*
X130008428Y-86299319D02*
X129865571Y-86251700D01*
X129865571Y-86251700D02*
X129770333Y-86156461D01*
X129770333Y-86156461D02*
X129722714Y-86061223D01*
X129722714Y-86061223D02*
X129675095Y-85870747D01*
X129675095Y-85870747D02*
X129675095Y-85727890D01*
X129675095Y-85727890D02*
X129722714Y-85537414D01*
X129722714Y-85537414D02*
X129770333Y-85442176D01*
X129770333Y-85442176D02*
X129865571Y-85346938D01*
X129865571Y-85346938D02*
X130008428Y-85299319D01*
X130008428Y-85299319D02*
X130103666Y-85299319D01*
X130103666Y-85299319D02*
X130246523Y-85346938D01*
X130246523Y-85346938D02*
X130294142Y-85394557D01*
X131246523Y-86299319D02*
X130675095Y-86299319D01*
X130960809Y-86299319D02*
X130960809Y-85299319D01*
X130960809Y-85299319D02*
X130865571Y-85442176D01*
X130865571Y-85442176D02*
X130770333Y-85537414D01*
X130770333Y-85537414D02*
X130675095Y-85585033D01*
X131865571Y-85299319D02*
X131960809Y-85299319D01*
X131960809Y-85299319D02*
X132056047Y-85346938D01*
X132056047Y-85346938D02*
X132103666Y-85394557D01*
X132103666Y-85394557D02*
X132151285Y-85489795D01*
X132151285Y-85489795D02*
X132198904Y-85680271D01*
X132198904Y-85680271D02*
X132198904Y-85918366D01*
X132198904Y-85918366D02*
X132151285Y-86108842D01*
X132151285Y-86108842D02*
X132103666Y-86204080D01*
X132103666Y-86204080D02*
X132056047Y-86251700D01*
X132056047Y-86251700D02*
X131960809Y-86299319D01*
X131960809Y-86299319D02*
X131865571Y-86299319D01*
X131865571Y-86299319D02*
X131770333Y-86251700D01*
X131770333Y-86251700D02*
X131722714Y-86204080D01*
X131722714Y-86204080D02*
X131675095Y-86108842D01*
X131675095Y-86108842D02*
X131627476Y-85918366D01*
X131627476Y-85918366D02*
X131627476Y-85680271D01*
X131627476Y-85680271D02*
X131675095Y-85489795D01*
X131675095Y-85489795D02*
X131722714Y-85394557D01*
X131722714Y-85394557D02*
X131770333Y-85346938D01*
X131770333Y-85346938D02*
X131865571Y-85299319D01*
X92681580Y-91807357D02*
X92729200Y-91854976D01*
X92729200Y-91854976D02*
X92776819Y-91997833D01*
X92776819Y-91997833D02*
X92776819Y-92093071D01*
X92776819Y-92093071D02*
X92729200Y-92235928D01*
X92729200Y-92235928D02*
X92633961Y-92331166D01*
X92633961Y-92331166D02*
X92538723Y-92378785D01*
X92538723Y-92378785D02*
X92348247Y-92426404D01*
X92348247Y-92426404D02*
X92205390Y-92426404D01*
X92205390Y-92426404D02*
X92014914Y-92378785D01*
X92014914Y-92378785D02*
X91919676Y-92331166D01*
X91919676Y-92331166D02*
X91824438Y-92235928D01*
X91824438Y-92235928D02*
X91776819Y-92093071D01*
X91776819Y-92093071D02*
X91776819Y-91997833D01*
X91776819Y-91997833D02*
X91824438Y-91854976D01*
X91824438Y-91854976D02*
X91872057Y-91807357D01*
X92776819Y-90854976D02*
X92776819Y-91426404D01*
X92776819Y-91140690D02*
X91776819Y-91140690D01*
X91776819Y-91140690D02*
X91919676Y-91235928D01*
X91919676Y-91235928D02*
X92014914Y-91331166D01*
X92014914Y-91331166D02*
X92062533Y-91426404D01*
X91776819Y-90521642D02*
X91776819Y-89854976D01*
X91776819Y-89854976D02*
X92776819Y-90283547D01*
X110756580Y-83478666D02*
X110804200Y-83526285D01*
X110804200Y-83526285D02*
X110851819Y-83669142D01*
X110851819Y-83669142D02*
X110851819Y-83764380D01*
X110851819Y-83764380D02*
X110804200Y-83907237D01*
X110804200Y-83907237D02*
X110708961Y-84002475D01*
X110708961Y-84002475D02*
X110613723Y-84050094D01*
X110613723Y-84050094D02*
X110423247Y-84097713D01*
X110423247Y-84097713D02*
X110280390Y-84097713D01*
X110280390Y-84097713D02*
X110089914Y-84050094D01*
X110089914Y-84050094D02*
X109994676Y-84002475D01*
X109994676Y-84002475D02*
X109899438Y-83907237D01*
X109899438Y-83907237D02*
X109851819Y-83764380D01*
X109851819Y-83764380D02*
X109851819Y-83669142D01*
X109851819Y-83669142D02*
X109899438Y-83526285D01*
X109899438Y-83526285D02*
X109947057Y-83478666D01*
X110185152Y-82621523D02*
X110851819Y-82621523D01*
X109804200Y-82859618D02*
X110518485Y-83097713D01*
X110518485Y-83097713D02*
X110518485Y-82478666D01*
X97544819Y-81319666D02*
X97068628Y-81652999D01*
X97544819Y-81891094D02*
X96544819Y-81891094D01*
X96544819Y-81891094D02*
X96544819Y-81510142D01*
X96544819Y-81510142D02*
X96592438Y-81414904D01*
X96592438Y-81414904D02*
X96640057Y-81367285D01*
X96640057Y-81367285D02*
X96735295Y-81319666D01*
X96735295Y-81319666D02*
X96878152Y-81319666D01*
X96878152Y-81319666D02*
X96973390Y-81367285D01*
X96973390Y-81367285D02*
X97021009Y-81414904D01*
X97021009Y-81414904D02*
X97068628Y-81510142D01*
X97068628Y-81510142D02*
X97068628Y-81891094D01*
X97544819Y-80843475D02*
X97544819Y-80652999D01*
X97544819Y-80652999D02*
X97497200Y-80557761D01*
X97497200Y-80557761D02*
X97449580Y-80510142D01*
X97449580Y-80510142D02*
X97306723Y-80414904D01*
X97306723Y-80414904D02*
X97116247Y-80367285D01*
X97116247Y-80367285D02*
X96735295Y-80367285D01*
X96735295Y-80367285D02*
X96640057Y-80414904D01*
X96640057Y-80414904D02*
X96592438Y-80462523D01*
X96592438Y-80462523D02*
X96544819Y-80557761D01*
X96544819Y-80557761D02*
X96544819Y-80748237D01*
X96544819Y-80748237D02*
X96592438Y-80843475D01*
X96592438Y-80843475D02*
X96640057Y-80891094D01*
X96640057Y-80891094D02*
X96735295Y-80938713D01*
X96735295Y-80938713D02*
X96973390Y-80938713D01*
X96973390Y-80938713D02*
X97068628Y-80891094D01*
X97068628Y-80891094D02*
X97116247Y-80843475D01*
X97116247Y-80843475D02*
X97163866Y-80748237D01*
X97163866Y-80748237D02*
X97163866Y-80557761D01*
X97163866Y-80557761D02*
X97116247Y-80462523D01*
X97116247Y-80462523D02*
X97068628Y-80414904D01*
X97068628Y-80414904D02*
X96973390Y-80367285D01*
X133596142Y-103073319D02*
X133262809Y-102597128D01*
X133024714Y-103073319D02*
X133024714Y-102073319D01*
X133024714Y-102073319D02*
X133405666Y-102073319D01*
X133405666Y-102073319D02*
X133500904Y-102120938D01*
X133500904Y-102120938D02*
X133548523Y-102168557D01*
X133548523Y-102168557D02*
X133596142Y-102263795D01*
X133596142Y-102263795D02*
X133596142Y-102406652D01*
X133596142Y-102406652D02*
X133548523Y-102501890D01*
X133548523Y-102501890D02*
X133500904Y-102549509D01*
X133500904Y-102549509D02*
X133405666Y-102597128D01*
X133405666Y-102597128D02*
X133024714Y-102597128D01*
X134548523Y-103073319D02*
X133977095Y-103073319D01*
X134262809Y-103073319D02*
X134262809Y-102073319D01*
X134262809Y-102073319D02*
X134167571Y-102216176D01*
X134167571Y-102216176D02*
X134072333Y-102311414D01*
X134072333Y-102311414D02*
X133977095Y-102359033D01*
X134881857Y-102073319D02*
X135500904Y-102073319D01*
X135500904Y-102073319D02*
X135167571Y-102454271D01*
X135167571Y-102454271D02*
X135310428Y-102454271D01*
X135310428Y-102454271D02*
X135405666Y-102501890D01*
X135405666Y-102501890D02*
X135453285Y-102549509D01*
X135453285Y-102549509D02*
X135500904Y-102644747D01*
X135500904Y-102644747D02*
X135500904Y-102882842D01*
X135500904Y-102882842D02*
X135453285Y-102978080D01*
X135453285Y-102978080D02*
X135405666Y-103025700D01*
X135405666Y-103025700D02*
X135310428Y-103073319D01*
X135310428Y-103073319D02*
X135024714Y-103073319D01*
X135024714Y-103073319D02*
X134929476Y-103025700D01*
X134929476Y-103025700D02*
X134881857Y-102978080D01*
X75986580Y-91088357D02*
X76034200Y-91135976D01*
X76034200Y-91135976D02*
X76081819Y-91278833D01*
X76081819Y-91278833D02*
X76081819Y-91374071D01*
X76081819Y-91374071D02*
X76034200Y-91516928D01*
X76034200Y-91516928D02*
X75938961Y-91612166D01*
X75938961Y-91612166D02*
X75843723Y-91659785D01*
X75843723Y-91659785D02*
X75653247Y-91707404D01*
X75653247Y-91707404D02*
X75510390Y-91707404D01*
X75510390Y-91707404D02*
X75319914Y-91659785D01*
X75319914Y-91659785D02*
X75224676Y-91612166D01*
X75224676Y-91612166D02*
X75129438Y-91516928D01*
X75129438Y-91516928D02*
X75081819Y-91374071D01*
X75081819Y-91374071D02*
X75081819Y-91278833D01*
X75081819Y-91278833D02*
X75129438Y-91135976D01*
X75129438Y-91135976D02*
X75177057Y-91088357D01*
X76081819Y-90135976D02*
X76081819Y-90707404D01*
X76081819Y-90421690D02*
X75081819Y-90421690D01*
X75081819Y-90421690D02*
X75224676Y-90516928D01*
X75224676Y-90516928D02*
X75319914Y-90612166D01*
X75319914Y-90612166D02*
X75367533Y-90707404D01*
X75081819Y-89278833D02*
X75081819Y-89469309D01*
X75081819Y-89469309D02*
X75129438Y-89564547D01*
X75129438Y-89564547D02*
X75177057Y-89612166D01*
X75177057Y-89612166D02*
X75319914Y-89707404D01*
X75319914Y-89707404D02*
X75510390Y-89755023D01*
X75510390Y-89755023D02*
X75891342Y-89755023D01*
X75891342Y-89755023D02*
X75986580Y-89707404D01*
X75986580Y-89707404D02*
X76034200Y-89659785D01*
X76034200Y-89659785D02*
X76081819Y-89564547D01*
X76081819Y-89564547D02*
X76081819Y-89374071D01*
X76081819Y-89374071D02*
X76034200Y-89278833D01*
X76034200Y-89278833D02*
X75986580Y-89231214D01*
X75986580Y-89231214D02*
X75891342Y-89183595D01*
X75891342Y-89183595D02*
X75653247Y-89183595D01*
X75653247Y-89183595D02*
X75558009Y-89231214D01*
X75558009Y-89231214D02*
X75510390Y-89278833D01*
X75510390Y-89278833D02*
X75462771Y-89374071D01*
X75462771Y-89374071D02*
X75462771Y-89564547D01*
X75462771Y-89564547D02*
X75510390Y-89659785D01*
X75510390Y-89659785D02*
X75558009Y-89707404D01*
X75558009Y-89707404D02*
X75653247Y-89755023D01*
X89122666Y-68209438D02*
X89027428Y-68161819D01*
X89027428Y-68161819D02*
X88884571Y-68161819D01*
X88884571Y-68161819D02*
X88741714Y-68209438D01*
X88741714Y-68209438D02*
X88646476Y-68304676D01*
X88646476Y-68304676D02*
X88598857Y-68399914D01*
X88598857Y-68399914D02*
X88551238Y-68590390D01*
X88551238Y-68590390D02*
X88551238Y-68733247D01*
X88551238Y-68733247D02*
X88598857Y-68923723D01*
X88598857Y-68923723D02*
X88646476Y-69018961D01*
X88646476Y-69018961D02*
X88741714Y-69114200D01*
X88741714Y-69114200D02*
X88884571Y-69161819D01*
X88884571Y-69161819D02*
X88979809Y-69161819D01*
X88979809Y-69161819D02*
X89122666Y-69114200D01*
X89122666Y-69114200D02*
X89170285Y-69066580D01*
X89170285Y-69066580D02*
X89170285Y-68733247D01*
X89170285Y-68733247D02*
X88979809Y-68733247D01*
X89551238Y-69114200D02*
X89694095Y-69161819D01*
X89694095Y-69161819D02*
X89932190Y-69161819D01*
X89932190Y-69161819D02*
X90027428Y-69114200D01*
X90027428Y-69114200D02*
X90075047Y-69066580D01*
X90075047Y-69066580D02*
X90122666Y-68971342D01*
X90122666Y-68971342D02*
X90122666Y-68876104D01*
X90122666Y-68876104D02*
X90075047Y-68780866D01*
X90075047Y-68780866D02*
X90027428Y-68733247D01*
X90027428Y-68733247D02*
X89932190Y-68685628D01*
X89932190Y-68685628D02*
X89741714Y-68638009D01*
X89741714Y-68638009D02*
X89646476Y-68590390D01*
X89646476Y-68590390D02*
X89598857Y-68542771D01*
X89598857Y-68542771D02*
X89551238Y-68447533D01*
X89551238Y-68447533D02*
X89551238Y-68352295D01*
X89551238Y-68352295D02*
X89598857Y-68257057D01*
X89598857Y-68257057D02*
X89646476Y-68209438D01*
X89646476Y-68209438D02*
X89741714Y-68161819D01*
X89741714Y-68161819D02*
X89979809Y-68161819D01*
X89979809Y-68161819D02*
X90122666Y-68209438D01*
X91122666Y-69161819D02*
X90789333Y-68685628D01*
X90551238Y-69161819D02*
X90551238Y-68161819D01*
X90551238Y-68161819D02*
X90932190Y-68161819D01*
X90932190Y-68161819D02*
X91027428Y-68209438D01*
X91027428Y-68209438D02*
X91075047Y-68257057D01*
X91075047Y-68257057D02*
X91122666Y-68352295D01*
X91122666Y-68352295D02*
X91122666Y-68495152D01*
X91122666Y-68495152D02*
X91075047Y-68590390D01*
X91075047Y-68590390D02*
X91027428Y-68638009D01*
X91027428Y-68638009D02*
X90932190Y-68685628D01*
X90932190Y-68685628D02*
X90551238Y-68685628D01*
X91313143Y-69257057D02*
X92075047Y-69257057D01*
X92313143Y-69161819D02*
X92313143Y-68161819D01*
X92789333Y-69161819D02*
X92789333Y-68161819D01*
X92789333Y-68161819D02*
X93360761Y-69161819D01*
X93360761Y-69161819D02*
X93360761Y-68161819D01*
X94360761Y-69161819D02*
X93789333Y-69161819D01*
X94075047Y-69161819D02*
X94075047Y-68161819D01*
X94075047Y-68161819D02*
X93979809Y-68304676D01*
X93979809Y-68304676D02*
X93884571Y-68399914D01*
X93884571Y-68399914D02*
X93789333Y-68447533D01*
X92139048Y-69923866D02*
X92900953Y-69923866D01*
X92520000Y-70304819D02*
X92520000Y-69542914D01*
X89726048Y-70050866D02*
X90487953Y-70050866D01*
X99369142Y-96084819D02*
X99035809Y-95608628D01*
X98797714Y-96084819D02*
X98797714Y-95084819D01*
X98797714Y-95084819D02*
X99178666Y-95084819D01*
X99178666Y-95084819D02*
X99273904Y-95132438D01*
X99273904Y-95132438D02*
X99321523Y-95180057D01*
X99321523Y-95180057D02*
X99369142Y-95275295D01*
X99369142Y-95275295D02*
X99369142Y-95418152D01*
X99369142Y-95418152D02*
X99321523Y-95513390D01*
X99321523Y-95513390D02*
X99273904Y-95561009D01*
X99273904Y-95561009D02*
X99178666Y-95608628D01*
X99178666Y-95608628D02*
X98797714Y-95608628D01*
X100321523Y-96084819D02*
X99750095Y-96084819D01*
X100035809Y-96084819D02*
X100035809Y-95084819D01*
X100035809Y-95084819D02*
X99940571Y-95227676D01*
X99940571Y-95227676D02*
X99845333Y-95322914D01*
X99845333Y-95322914D02*
X99750095Y-95370533D01*
X101273904Y-96084819D02*
X100702476Y-96084819D01*
X100988190Y-96084819D02*
X100988190Y-95084819D01*
X100988190Y-95084819D02*
X100892952Y-95227676D01*
X100892952Y-95227676D02*
X100797714Y-95322914D01*
X100797714Y-95322914D02*
X100702476Y-95370533D01*
X100425977Y-85611996D02*
X100425977Y-86944517D01*
X100425977Y-86944517D02*
X100504361Y-87101284D01*
X100504361Y-87101284D02*
X100582745Y-87179668D01*
X100582745Y-87179668D02*
X100739512Y-87258051D01*
X100739512Y-87258051D02*
X101053046Y-87258051D01*
X101053046Y-87258051D02*
X101209813Y-87179668D01*
X101209813Y-87179668D02*
X101288197Y-87101284D01*
X101288197Y-87101284D02*
X101366580Y-86944517D01*
X101366580Y-86944517D02*
X101366580Y-85611996D01*
X102072033Y-85768763D02*
X102150416Y-85690380D01*
X102150416Y-85690380D02*
X102307184Y-85611996D01*
X102307184Y-85611996D02*
X102699101Y-85611996D01*
X102699101Y-85611996D02*
X102855869Y-85690380D01*
X102855869Y-85690380D02*
X102934252Y-85768763D01*
X102934252Y-85768763D02*
X103012636Y-85925530D01*
X103012636Y-85925530D02*
X103012636Y-86082298D01*
X103012636Y-86082298D02*
X102934252Y-86317448D01*
X102934252Y-86317448D02*
X101993649Y-87258051D01*
X101993649Y-87258051D02*
X103012636Y-87258051D01*
D12*
%TO.C,R4*%
X100674000Y-73760064D02*
X100674000Y-73305936D01*
X102144000Y-73760064D02*
X102144000Y-73305936D01*
%TO.C,R6*%
X97118000Y-73305936D02*
X97118000Y-73760064D01*
X98588000Y-73305936D02*
X98588000Y-73760064D01*
%TO.C,3.3V_1.8V1*%
X82594000Y-87903000D02*
X86354000Y-87903000D01*
X82594000Y-94723000D02*
X86354000Y-94723000D01*
X86354000Y-87903000D02*
X86354000Y-89163000D01*
X86354000Y-94723000D02*
X86354000Y-93463000D01*
X81314000Y-88003000D02*
X81074000Y-87673000D01*
X81554000Y-87673000D01*
X81314000Y-88003000D01*
G36*
X81314000Y-88003000D02*
G01*
X81074000Y-87673000D01*
X81554000Y-87673000D01*
X81314000Y-88003000D01*
G37*
%TO.C,R14*%
X96674000Y-106821064D02*
X96674000Y-106366936D01*
X98144000Y-106821064D02*
X98144000Y-106366936D01*
%TO.C,R2*%
X100340936Y-99468000D02*
X100795064Y-99468000D01*
X100340936Y-100938000D02*
X100795064Y-100938000D01*
%TO.C,C7*%
X125849748Y-86916500D02*
X126372252Y-86916500D01*
X125849748Y-88386500D02*
X126372252Y-88386500D01*
%TO.C,TEST1*%
X135490000Y-71534500D02*
X135490000Y-75534500D01*
X135780000Y-70504500D02*
X135780000Y-76524500D01*
X135780000Y-76524500D02*
X146160000Y-76524500D01*
X136360000Y-70504500D02*
X136360000Y-71104500D01*
X136360000Y-71104500D02*
X137960000Y-71104500D01*
X137160000Y-75524500D02*
X137410000Y-74994500D01*
X137160000Y-75524500D02*
X144780000Y-75524500D01*
X137160000Y-76524500D02*
X137160000Y-75524500D01*
X137410000Y-74994500D02*
X144530000Y-74994500D01*
X137410000Y-76524500D02*
X137410000Y-75524500D01*
X137960000Y-71104500D02*
X137960000Y-70504500D01*
X138900000Y-70504500D02*
X138900000Y-71104500D01*
X138900000Y-71104500D02*
X140500000Y-71104500D01*
X140500000Y-71104500D02*
X140500000Y-70504500D01*
X141440000Y-70504500D02*
X141440000Y-71104500D01*
X141440000Y-71104500D02*
X143040000Y-71104500D01*
X143040000Y-71104500D02*
X143040000Y-70504500D01*
X143980000Y-70504500D02*
X143980000Y-71104500D01*
X143980000Y-71104500D02*
X145580000Y-71104500D01*
X144530000Y-74994500D02*
X144780000Y-75524500D01*
X144530000Y-76524500D02*
X144530000Y-75524500D01*
X144780000Y-75524500D02*
X144780000Y-76524500D01*
X145580000Y-71104500D02*
X145580000Y-70504500D01*
X146160000Y-70504500D02*
X135780000Y-70504500D01*
X146160000Y-76524500D02*
X146160000Y-70504500D01*
%TO.C,R16*%
X121566000Y-97711436D02*
X121566000Y-98165564D01*
X123036000Y-97711436D02*
X123036000Y-98165564D01*
%TO.C,C1*%
X103278000Y-114444748D02*
X103278000Y-114967252D01*
X104748000Y-114444748D02*
X104748000Y-114967252D01*
D13*
%TO.C,UART-TO-USB1*%
X143320000Y-86317500D02*
X143320000Y-86867500D01*
X143320000Y-86317500D02*
X143870000Y-86317500D01*
X143320000Y-91317500D02*
X143320000Y-90767500D01*
X143320000Y-91317500D02*
X143870000Y-91317500D01*
X148320000Y-86317500D02*
X147770000Y-86317500D01*
X148320000Y-86317500D02*
X148320000Y-86867500D01*
X148320000Y-91317500D02*
X147770000Y-91317500D01*
X148320000Y-91317500D02*
X148320000Y-90767500D01*
D14*
X144420000Y-92357500D02*
G75*
G02*
X144220000Y-92357500I-100000J0D01*
G01*
X144220000Y-92357500D02*
G75*
G02*
X144420000Y-92357500I100000J0D01*
G01*
D12*
%TO.C,C3*%
X105607252Y-93118000D02*
X105084748Y-93118000D01*
X105607252Y-94588000D02*
X105084748Y-94588000D01*
%TO.C,C9*%
X152586748Y-86601500D02*
X153109252Y-86601500D01*
X152586748Y-88071500D02*
X153109252Y-88071500D01*
%TO.C,R10*%
X100350064Y-89308000D02*
X99895936Y-89308000D01*
X100350064Y-90778000D02*
X99895936Y-90778000D01*
%TO.C,R1*%
X104785936Y-99468000D02*
X105240064Y-99468000D01*
X104785936Y-100938000D02*
X105240064Y-100938000D01*
%TO.C,Vin1*%
X76947000Y-70924000D02*
X76947000Y-76944000D01*
X76947000Y-76944000D02*
X82247000Y-76944000D01*
X77527000Y-76344000D02*
X77527000Y-76944000D01*
X78327000Y-71924000D02*
X78327000Y-70924000D01*
X78577000Y-70924000D02*
X78577000Y-71924000D01*
X78577000Y-72454000D02*
X78327000Y-71924000D01*
X79127000Y-76344000D02*
X77527000Y-76344000D01*
X79127000Y-76944000D02*
X79127000Y-76344000D01*
X80067000Y-76344000D02*
X80067000Y-76944000D01*
X80617000Y-70924000D02*
X80617000Y-71924000D01*
X80617000Y-72454000D02*
X78577000Y-72454000D01*
X80867000Y-70924000D02*
X80867000Y-71924000D01*
X80867000Y-71924000D02*
X78327000Y-71924000D01*
X80867000Y-71924000D02*
X80617000Y-72454000D01*
X81667000Y-76344000D02*
X80067000Y-76344000D01*
X81667000Y-76944000D02*
X81667000Y-76344000D01*
X82247000Y-70924000D02*
X76947000Y-70924000D01*
X82247000Y-76944000D02*
X82247000Y-70924000D01*
X82537000Y-75914000D02*
X82537000Y-71914000D01*
%TO.C,R12*%
X111342000Y-87984064D02*
X111342000Y-87529936D01*
X112812000Y-87984064D02*
X112812000Y-87529936D01*
%TO.C,5V_3.3V1*%
X83995500Y-80670000D02*
X83345500Y-80670000D01*
X83995500Y-80670000D02*
X84645500Y-80670000D01*
X83995500Y-83790000D02*
X83345500Y-83790000D01*
X83995500Y-83790000D02*
X84645500Y-83790000D01*
X82833000Y-80720000D02*
X82593000Y-80390000D01*
X83073000Y-80390000D01*
X82833000Y-80720000D01*
G36*
X82833000Y-80720000D02*
G01*
X82593000Y-80390000D01*
X83073000Y-80390000D01*
X82833000Y-80720000D01*
G37*
%TO.C,HEART1*%
X100518000Y-103907000D02*
X103828000Y-103907000D01*
X103428000Y-109727000D02*
X100538000Y-109727000D01*
X103868000Y-109937000D02*
X103868000Y-109657000D01*
X104148000Y-109657000D01*
X103868000Y-109937000D01*
G36*
X103868000Y-109937000D02*
G01*
X103868000Y-109657000D01*
X104148000Y-109657000D01*
X103868000Y-109937000D01*
G37*
%TO.C,C11*%
X125976748Y-90726500D02*
X126499252Y-90726500D01*
X125976748Y-92196500D02*
X126499252Y-92196500D01*
%TO.C,R5*%
X104611000Y-73305936D02*
X104611000Y-73760064D01*
X106081000Y-73305936D02*
X106081000Y-73760064D01*
%TO.C,USB1*%
X139858000Y-100742500D02*
X153258000Y-100742500D01*
X139858000Y-106742500D02*
X139858000Y-104142500D01*
X139858000Y-106742500D02*
X144808000Y-106742500D01*
X153258000Y-106742500D02*
X148308000Y-106742500D01*
X153258000Y-106742500D02*
X153258000Y-104142500D01*
%TO.C,SIG1*%
X116834000Y-82821000D02*
X116834000Y-88121000D01*
X116834000Y-84201000D02*
X117834000Y-84201000D01*
X116834000Y-84451000D02*
X117834000Y-84451000D01*
X116834000Y-86491000D02*
X117834000Y-86491000D01*
X116834000Y-88121000D02*
X122854000Y-88121000D01*
X117834000Y-84201000D02*
X117834000Y-86741000D01*
X117834000Y-84201000D02*
X118364000Y-84451000D01*
X117834000Y-86741000D02*
X116834000Y-86741000D01*
X118364000Y-84451000D02*
X118364000Y-86491000D01*
X118364000Y-86491000D02*
X117834000Y-86741000D01*
X121824000Y-82531000D02*
X117824000Y-82531000D01*
X122254000Y-83401000D02*
X122254000Y-85001000D01*
X122254000Y-85001000D02*
X122854000Y-85001000D01*
X122254000Y-85941000D02*
X122254000Y-87541000D01*
X122254000Y-87541000D02*
X122854000Y-87541000D01*
X122854000Y-82821000D02*
X116834000Y-82821000D01*
X122854000Y-83401000D02*
X122254000Y-83401000D01*
X122854000Y-85941000D02*
X122254000Y-85941000D01*
X122854000Y-88121000D02*
X122854000Y-82821000D01*
%TO.C,C14*%
X79275000Y-82684252D02*
X79275000Y-82161748D01*
X80745000Y-82684252D02*
X80745000Y-82161748D01*
%TO.C,C15*%
X87276000Y-82161748D02*
X87276000Y-82684252D01*
X88746000Y-82161748D02*
X88746000Y-82684252D01*
%TO.C,C5*%
X125849748Y-82852500D02*
X126372252Y-82852500D01*
X125849748Y-84322500D02*
X126372252Y-84322500D01*
%TO.C,C18*%
X152668248Y-82664500D02*
X153190752Y-82664500D01*
X152668248Y-84134500D02*
X153190752Y-84134500D01*
%TO.C,C2*%
X99595000Y-114212248D02*
X99595000Y-114734752D01*
X101065000Y-114212248D02*
X101065000Y-114734752D01*
%TO.C,C12*%
X130675748Y-90599500D02*
X131198252Y-90599500D01*
X130675748Y-92069500D02*
X131198252Y-92069500D01*
%TO.C,R8*%
X110834000Y-77877936D02*
X110834000Y-78332064D01*
X112304000Y-77877936D02*
X112304000Y-78332064D01*
%TO.C,SW1*%
X122178000Y-109069000D02*
X122178000Y-110569000D01*
X123428000Y-113069000D02*
X127928000Y-113069000D01*
X127928000Y-106569000D02*
X123428000Y-106569000D01*
X129178000Y-110569000D02*
X129178000Y-109069000D01*
%TO.C,MCU1*%
X126061000Y-93907000D02*
X126061000Y-94382000D01*
X126061000Y-99127000D02*
X126061000Y-98652000D01*
X126536000Y-93907000D02*
X126061000Y-93907000D01*
X126536000Y-99127000D02*
X126061000Y-99127000D01*
X130806000Y-93907000D02*
X131281000Y-93907000D01*
X130806000Y-99127000D02*
X130981000Y-99127000D01*
X131281000Y-93907000D02*
X131281000Y-94382000D01*
X131281000Y-98652000D02*
X131281000Y-98887000D01*
X131521000Y-99457000D02*
X131041000Y-99457000D01*
X131281000Y-99127000D01*
X131521000Y-99457000D01*
G36*
X131521000Y-99457000D02*
G01*
X131041000Y-99457000D01*
X131281000Y-99127000D01*
X131521000Y-99457000D01*
G37*
%TO.C,C13*%
X134500252Y-106141500D02*
X133977748Y-106141500D01*
X134500252Y-107611500D02*
X133977748Y-107611500D01*
%TO.C,C8*%
X152668248Y-90224500D02*
X153190752Y-90224500D01*
X152668248Y-91694500D02*
X153190752Y-91694500D01*
%TO.C,C6*%
X131198252Y-82725500D02*
X130675748Y-82725500D01*
X131198252Y-84195500D02*
X130675748Y-84195500D01*
%TO.C,R15*%
X146531064Y-82664500D02*
X146076936Y-82664500D01*
X146531064Y-84134500D02*
X146076936Y-84134500D01*
%TO.C,HEARTOUT1*%
X108251501Y-106721500D02*
X108251501Y-110721500D01*
X108541501Y-105691500D02*
X108541501Y-111711500D01*
X108541501Y-111711500D02*
X113841501Y-111711500D01*
X109121501Y-105691500D02*
X109121501Y-106291500D01*
X109121501Y-106291500D02*
X110721501Y-106291500D01*
X109921501Y-110711500D02*
X110171501Y-110181500D01*
X109921501Y-110711500D02*
X112461501Y-110711500D01*
X109921501Y-111711500D02*
X109921501Y-110711500D01*
X110171501Y-110181500D02*
X112211501Y-110181500D01*
X110171501Y-111711500D02*
X110171501Y-110711500D01*
X110721501Y-106291500D02*
X110721501Y-105691500D01*
X111661501Y-105691500D02*
X111661501Y-106291500D01*
X111661501Y-106291500D02*
X113261501Y-106291500D01*
X112211501Y-110181500D02*
X112461501Y-110711500D01*
X112211501Y-111711500D02*
X112211501Y-110711500D01*
X112461501Y-110711500D02*
X112461501Y-111711500D01*
X113261501Y-106291500D02*
X113261501Y-105691500D01*
X113841501Y-105691500D02*
X108541501Y-105691500D01*
X113841501Y-111711500D02*
X113841501Y-105691500D01*
%TO.C,R3*%
X105446064Y-89308000D02*
X104991936Y-89308000D01*
X105446064Y-90778000D02*
X104991936Y-90778000D01*
%TO.C,R17*%
X115539000Y-71611000D02*
X115539000Y-67664000D01*
X115539000Y-71611000D02*
X115539000Y-71064000D01*
X115539000Y-74304000D02*
X115539000Y-73756000D01*
X115539000Y-77705000D02*
X115539000Y-73756000D01*
X119222000Y-71064000D02*
X115539000Y-71064000D01*
X119222000Y-74304000D02*
X115539000Y-74304000D01*
X120580000Y-67664000D02*
X115539000Y-67664000D01*
X120580000Y-68759000D02*
X120580000Y-67664000D01*
X120580000Y-73758000D02*
X120580000Y-71609000D01*
X120580000Y-73758000D02*
X120580000Y-71609000D01*
X120580000Y-77705000D02*
X115539000Y-77705000D01*
X120580000Y-77705000D02*
X120580000Y-76610000D01*
%TO.C,C10*%
X130675748Y-86789500D02*
X131198252Y-86789500D01*
X130675748Y-88259500D02*
X131198252Y-88259500D01*
%TO.C,C17*%
X89907000Y-90903248D02*
X89907000Y-91425752D01*
X91377000Y-90903248D02*
X91377000Y-91425752D01*
%TO.C,C4*%
X111342000Y-83573252D02*
X111342000Y-83050748D01*
X112812000Y-83573252D02*
X112812000Y-83050748D01*
%TO.C,R9*%
X96175000Y-80925936D02*
X96175000Y-81380064D01*
X94705000Y-80925936D02*
X94705000Y-81380064D01*
%TO.C,R13*%
X134011936Y-103533500D02*
X134466064Y-103533500D01*
X134011936Y-105003500D02*
X134466064Y-105003500D01*
%TO.C,C16*%
X76572000Y-90706752D02*
X76572000Y-90184248D01*
X78042000Y-90706752D02*
X78042000Y-90184248D01*
%TO.C,GSR_IN1*%
X88396000Y-71004000D02*
X88396000Y-75724000D01*
X88396000Y-73114000D02*
X89006000Y-73114000D01*
X88396000Y-74414000D02*
X89006000Y-74414000D01*
X88396000Y-75724000D02*
X94516000Y-75724000D01*
X89006000Y-71614000D02*
X89006000Y-75114000D01*
X89006000Y-75114000D02*
X90956000Y-75114000D01*
X90956000Y-75114000D02*
X90956000Y-75724000D01*
X91356000Y-72114000D02*
X91356000Y-71614000D01*
X91456000Y-71614000D02*
X91456000Y-72114000D01*
X91556000Y-71614000D02*
X91556000Y-72114000D01*
X91556000Y-72114000D02*
X91356000Y-72114000D01*
X91956000Y-75114000D02*
X93906000Y-75114000D01*
X91956000Y-75724000D02*
X91956000Y-75114000D01*
X92756000Y-75724000D02*
X92756000Y-75924000D01*
X92756000Y-75824000D02*
X93056000Y-75824000D01*
X92756000Y-75924000D02*
X93056000Y-75924000D01*
X93056000Y-75924000D02*
X93056000Y-75724000D01*
X93566000Y-76024000D02*
X94816000Y-76024000D01*
X93906000Y-71614000D02*
X89006000Y-71614000D01*
X93906000Y-75114000D02*
X93906000Y-71614000D01*
X94516000Y-71004000D02*
X88396000Y-71004000D01*
X94516000Y-73114000D02*
X93906000Y-73114000D01*
X94516000Y-74414000D02*
X93906000Y-74414000D01*
X94516000Y-75724000D02*
X94516000Y-71004000D01*
X94816000Y-76024000D02*
X94816000Y-74774000D01*
%TO.C,R11*%
X100239064Y-93245000D02*
X99784936Y-93245000D01*
X100239064Y-94715000D02*
X99784936Y-94715000D01*
D10*
%TO.C,U2*%
X106690000Y-83839000D02*
G75*
G02*
X106490000Y-83839000I-100000J0D01*
G01*
X106490000Y-83839000D02*
G75*
G02*
X106690000Y-83839000I100000J0D01*
G01*
D13*
X99940000Y-79289000D02*
X104440000Y-79289000D01*
X104440000Y-84389000D02*
X99940000Y-84389000D01*
%TD*%
M02*
