%TF.GenerationSoftware,KiCad,Pcbnew,8.0.8*%
%TF.CreationDate,2025-04-07T15:17:33-05:00*%
%TF.ProjectId,finalproject,66696e61-6c70-4726-9f6a-6563742e6b69,rev?*%
%TF.SameCoordinates,Original*%
%TF.FileFunction,Drillmap*%
%TF.FilePolarity,Positive*%
%FSLAX45Y45*%
G04 Gerber Fmt 4.5, Leading zero omitted, Abs format (unit mm)*
G04 Created by KiCad (PCBNEW 8.0.8) date 2025-04-07 15:17:33*
%MOMM*%
%LPD*%
G01*
G04 APERTURE LIST*
%ADD10C,0.050000*%
%ADD11C,0.200000*%
%ADD12C,0.320000*%
G04 APERTURE END LIST*
D10*
X6743700Y-5664200D02*
X16370300Y-5664200D01*
X16370300Y-12560300D01*
X6743700Y-12560300D01*
X6743700Y-5664200D01*
D11*
D12*
X7079000Y-6024900D02*
X7399000Y-6344900D01*
X7399000Y-6024900D02*
X7079000Y-6344900D01*
X7079000Y-11917700D02*
X7399000Y-12237700D01*
X7399000Y-11917700D02*
X7079000Y-12237700D01*
X15664200Y-6050300D02*
X15984200Y-6370300D01*
X15984200Y-6050300D02*
X15664200Y-6370300D01*
X15664200Y-11943100D02*
X15984200Y-12263100D01*
X15984200Y-11943100D02*
X15664200Y-12263100D01*
D11*
X7001977Y-12874284D02*
X7001977Y-12674284D01*
X7001977Y-12674284D02*
X7049596Y-12674284D01*
X7049596Y-12674284D02*
X7078167Y-12683808D01*
X7078167Y-12683808D02*
X7097215Y-12702855D01*
X7097215Y-12702855D02*
X7106739Y-12721903D01*
X7106739Y-12721903D02*
X7116262Y-12759998D01*
X7116262Y-12759998D02*
X7116262Y-12788569D01*
X7116262Y-12788569D02*
X7106739Y-12826665D01*
X7106739Y-12826665D02*
X7097215Y-12845712D01*
X7097215Y-12845712D02*
X7078167Y-12864760D01*
X7078167Y-12864760D02*
X7049596Y-12874284D01*
X7049596Y-12874284D02*
X7001977Y-12874284D01*
X7201977Y-12874284D02*
X7201977Y-12740950D01*
X7201977Y-12779046D02*
X7211501Y-12759998D01*
X7211501Y-12759998D02*
X7221024Y-12750474D01*
X7221024Y-12750474D02*
X7240072Y-12740950D01*
X7240072Y-12740950D02*
X7259120Y-12740950D01*
X7325786Y-12874284D02*
X7325786Y-12740950D01*
X7325786Y-12674284D02*
X7316262Y-12683808D01*
X7316262Y-12683808D02*
X7325786Y-12693331D01*
X7325786Y-12693331D02*
X7335310Y-12683808D01*
X7335310Y-12683808D02*
X7325786Y-12674284D01*
X7325786Y-12674284D02*
X7325786Y-12693331D01*
X7449596Y-12874284D02*
X7430548Y-12864760D01*
X7430548Y-12864760D02*
X7421024Y-12845712D01*
X7421024Y-12845712D02*
X7421024Y-12674284D01*
X7554358Y-12874284D02*
X7535310Y-12864760D01*
X7535310Y-12864760D02*
X7525786Y-12845712D01*
X7525786Y-12845712D02*
X7525786Y-12674284D01*
X7782929Y-12874284D02*
X7782929Y-12674284D01*
X7782929Y-12674284D02*
X7849596Y-12817141D01*
X7849596Y-12817141D02*
X7916262Y-12674284D01*
X7916262Y-12674284D02*
X7916262Y-12874284D01*
X8097215Y-12874284D02*
X8097215Y-12769522D01*
X8097215Y-12769522D02*
X8087691Y-12750474D01*
X8087691Y-12750474D02*
X8068643Y-12740950D01*
X8068643Y-12740950D02*
X8030548Y-12740950D01*
X8030548Y-12740950D02*
X8011501Y-12750474D01*
X8097215Y-12864760D02*
X8078167Y-12874284D01*
X8078167Y-12874284D02*
X8030548Y-12874284D01*
X8030548Y-12874284D02*
X8011501Y-12864760D01*
X8011501Y-12864760D02*
X8001977Y-12845712D01*
X8001977Y-12845712D02*
X8001977Y-12826665D01*
X8001977Y-12826665D02*
X8011501Y-12807617D01*
X8011501Y-12807617D02*
X8030548Y-12798093D01*
X8030548Y-12798093D02*
X8078167Y-12798093D01*
X8078167Y-12798093D02*
X8097215Y-12788569D01*
X8192453Y-12740950D02*
X8192453Y-12940950D01*
X8192453Y-12750474D02*
X8211501Y-12740950D01*
X8211501Y-12740950D02*
X8249596Y-12740950D01*
X8249596Y-12740950D02*
X8268643Y-12750474D01*
X8268643Y-12750474D02*
X8278167Y-12759998D01*
X8278167Y-12759998D02*
X8287691Y-12779046D01*
X8287691Y-12779046D02*
X8287691Y-12836188D01*
X8287691Y-12836188D02*
X8278167Y-12855236D01*
X8278167Y-12855236D02*
X8268643Y-12864760D01*
X8268643Y-12864760D02*
X8249596Y-12874284D01*
X8249596Y-12874284D02*
X8211501Y-12874284D01*
X8211501Y-12874284D02*
X8192453Y-12864760D01*
X8373405Y-12855236D02*
X8382929Y-12864760D01*
X8382929Y-12864760D02*
X8373405Y-12874284D01*
X8373405Y-12874284D02*
X8363882Y-12864760D01*
X8363882Y-12864760D02*
X8373405Y-12855236D01*
X8373405Y-12855236D02*
X8373405Y-12874284D01*
X8373405Y-12750474D02*
X8382929Y-12759998D01*
X8382929Y-12759998D02*
X8373405Y-12769522D01*
X8373405Y-12769522D02*
X8363882Y-12759998D01*
X8363882Y-12759998D02*
X8373405Y-12750474D01*
X8373405Y-12750474D02*
X8373405Y-12769522D01*
X6541200Y-13102800D02*
X6741200Y-13302800D01*
X6741200Y-13102800D02*
X6541200Y-13302800D01*
X6982929Y-13094284D02*
X7106739Y-13094284D01*
X7106739Y-13094284D02*
X7040072Y-13170474D01*
X7040072Y-13170474D02*
X7068643Y-13170474D01*
X7068643Y-13170474D02*
X7087691Y-13179998D01*
X7087691Y-13179998D02*
X7097215Y-13189522D01*
X7097215Y-13189522D02*
X7106739Y-13208569D01*
X7106739Y-13208569D02*
X7106739Y-13256188D01*
X7106739Y-13256188D02*
X7097215Y-13275236D01*
X7097215Y-13275236D02*
X7087691Y-13284760D01*
X7087691Y-13284760D02*
X7068643Y-13294284D01*
X7068643Y-13294284D02*
X7011501Y-13294284D01*
X7011501Y-13294284D02*
X6992453Y-13284760D01*
X6992453Y-13284760D02*
X6982929Y-13275236D01*
X7192453Y-13275236D02*
X7201977Y-13284760D01*
X7201977Y-13284760D02*
X7192453Y-13294284D01*
X7192453Y-13294284D02*
X7182929Y-13284760D01*
X7182929Y-13284760D02*
X7192453Y-13275236D01*
X7192453Y-13275236D02*
X7192453Y-13294284D01*
X7278167Y-13113331D02*
X7287691Y-13103808D01*
X7287691Y-13103808D02*
X7306739Y-13094284D01*
X7306739Y-13094284D02*
X7354358Y-13094284D01*
X7354358Y-13094284D02*
X7373405Y-13103808D01*
X7373405Y-13103808D02*
X7382929Y-13113331D01*
X7382929Y-13113331D02*
X7392453Y-13132379D01*
X7392453Y-13132379D02*
X7392453Y-13151427D01*
X7392453Y-13151427D02*
X7382929Y-13179998D01*
X7382929Y-13179998D02*
X7268643Y-13294284D01*
X7268643Y-13294284D02*
X7392453Y-13294284D01*
X7516262Y-13094284D02*
X7535310Y-13094284D01*
X7535310Y-13094284D02*
X7554358Y-13103808D01*
X7554358Y-13103808D02*
X7563882Y-13113331D01*
X7563882Y-13113331D02*
X7573405Y-13132379D01*
X7573405Y-13132379D02*
X7582929Y-13170474D01*
X7582929Y-13170474D02*
X7582929Y-13218093D01*
X7582929Y-13218093D02*
X7573405Y-13256188D01*
X7573405Y-13256188D02*
X7563882Y-13275236D01*
X7563882Y-13275236D02*
X7554358Y-13284760D01*
X7554358Y-13284760D02*
X7535310Y-13294284D01*
X7535310Y-13294284D02*
X7516262Y-13294284D01*
X7516262Y-13294284D02*
X7497215Y-13284760D01*
X7497215Y-13284760D02*
X7487691Y-13275236D01*
X7487691Y-13275236D02*
X7478167Y-13256188D01*
X7478167Y-13256188D02*
X7468643Y-13218093D01*
X7468643Y-13218093D02*
X7468643Y-13170474D01*
X7468643Y-13170474D02*
X7478167Y-13132379D01*
X7478167Y-13132379D02*
X7487691Y-13113331D01*
X7487691Y-13113331D02*
X7497215Y-13103808D01*
X7497215Y-13103808D02*
X7516262Y-13094284D01*
X7706739Y-13094284D02*
X7725786Y-13094284D01*
X7725786Y-13094284D02*
X7744834Y-13103808D01*
X7744834Y-13103808D02*
X7754358Y-13113331D01*
X7754358Y-13113331D02*
X7763882Y-13132379D01*
X7763882Y-13132379D02*
X7773405Y-13170474D01*
X7773405Y-13170474D02*
X7773405Y-13218093D01*
X7773405Y-13218093D02*
X7763882Y-13256188D01*
X7763882Y-13256188D02*
X7754358Y-13275236D01*
X7754358Y-13275236D02*
X7744834Y-13284760D01*
X7744834Y-13284760D02*
X7725786Y-13294284D01*
X7725786Y-13294284D02*
X7706739Y-13294284D01*
X7706739Y-13294284D02*
X7687691Y-13284760D01*
X7687691Y-13284760D02*
X7678167Y-13275236D01*
X7678167Y-13275236D02*
X7668643Y-13256188D01*
X7668643Y-13256188D02*
X7659120Y-13218093D01*
X7659120Y-13218093D02*
X7659120Y-13170474D01*
X7659120Y-13170474D02*
X7668643Y-13132379D01*
X7668643Y-13132379D02*
X7678167Y-13113331D01*
X7678167Y-13113331D02*
X7687691Y-13103808D01*
X7687691Y-13103808D02*
X7706739Y-13094284D01*
X7859120Y-13294284D02*
X7859120Y-13160950D01*
X7859120Y-13179998D02*
X7868643Y-13170474D01*
X7868643Y-13170474D02*
X7887691Y-13160950D01*
X7887691Y-13160950D02*
X7916263Y-13160950D01*
X7916263Y-13160950D02*
X7935310Y-13170474D01*
X7935310Y-13170474D02*
X7944834Y-13189522D01*
X7944834Y-13189522D02*
X7944834Y-13294284D01*
X7944834Y-13189522D02*
X7954358Y-13170474D01*
X7954358Y-13170474D02*
X7973405Y-13160950D01*
X7973405Y-13160950D02*
X8001977Y-13160950D01*
X8001977Y-13160950D02*
X8021024Y-13170474D01*
X8021024Y-13170474D02*
X8030548Y-13189522D01*
X8030548Y-13189522D02*
X8030548Y-13294284D01*
X8125786Y-13294284D02*
X8125786Y-13160950D01*
X8125786Y-13179998D02*
X8135310Y-13170474D01*
X8135310Y-13170474D02*
X8154358Y-13160950D01*
X8154358Y-13160950D02*
X8182929Y-13160950D01*
X8182929Y-13160950D02*
X8201977Y-13170474D01*
X8201977Y-13170474D02*
X8211501Y-13189522D01*
X8211501Y-13189522D02*
X8211501Y-13294284D01*
X8211501Y-13189522D02*
X8221024Y-13170474D01*
X8221024Y-13170474D02*
X8240072Y-13160950D01*
X8240072Y-13160950D02*
X8268643Y-13160950D01*
X8268643Y-13160950D02*
X8287691Y-13170474D01*
X8287691Y-13170474D02*
X8297215Y-13189522D01*
X8297215Y-13189522D02*
X8297215Y-13294284D01*
X8687691Y-13084760D02*
X8516263Y-13341903D01*
X8944834Y-13094284D02*
X8963882Y-13094284D01*
X8963882Y-13094284D02*
X8982929Y-13103808D01*
X8982929Y-13103808D02*
X8992453Y-13113331D01*
X8992453Y-13113331D02*
X9001977Y-13132379D01*
X9001977Y-13132379D02*
X9011501Y-13170474D01*
X9011501Y-13170474D02*
X9011501Y-13218093D01*
X9011501Y-13218093D02*
X9001977Y-13256188D01*
X9001977Y-13256188D02*
X8992453Y-13275236D01*
X8992453Y-13275236D02*
X8982929Y-13284760D01*
X8982929Y-13284760D02*
X8963882Y-13294284D01*
X8963882Y-13294284D02*
X8944834Y-13294284D01*
X8944834Y-13294284D02*
X8925787Y-13284760D01*
X8925787Y-13284760D02*
X8916263Y-13275236D01*
X8916263Y-13275236D02*
X8906739Y-13256188D01*
X8906739Y-13256188D02*
X8897215Y-13218093D01*
X8897215Y-13218093D02*
X8897215Y-13170474D01*
X8897215Y-13170474D02*
X8906739Y-13132379D01*
X8906739Y-13132379D02*
X8916263Y-13113331D01*
X8916263Y-13113331D02*
X8925787Y-13103808D01*
X8925787Y-13103808D02*
X8944834Y-13094284D01*
X9097215Y-13275236D02*
X9106739Y-13284760D01*
X9106739Y-13284760D02*
X9097215Y-13294284D01*
X9097215Y-13294284D02*
X9087691Y-13284760D01*
X9087691Y-13284760D02*
X9097215Y-13275236D01*
X9097215Y-13275236D02*
X9097215Y-13294284D01*
X9297215Y-13294284D02*
X9182929Y-13294284D01*
X9240072Y-13294284D02*
X9240072Y-13094284D01*
X9240072Y-13094284D02*
X9221025Y-13122855D01*
X9221025Y-13122855D02*
X9201977Y-13141903D01*
X9201977Y-13141903D02*
X9182929Y-13151427D01*
X9373406Y-13113331D02*
X9382929Y-13103808D01*
X9382929Y-13103808D02*
X9401977Y-13094284D01*
X9401977Y-13094284D02*
X9449596Y-13094284D01*
X9449596Y-13094284D02*
X9468644Y-13103808D01*
X9468644Y-13103808D02*
X9478168Y-13113331D01*
X9478168Y-13113331D02*
X9487691Y-13132379D01*
X9487691Y-13132379D02*
X9487691Y-13151427D01*
X9487691Y-13151427D02*
X9478168Y-13179998D01*
X9478168Y-13179998D02*
X9363882Y-13294284D01*
X9363882Y-13294284D02*
X9487691Y-13294284D01*
X9659120Y-13094284D02*
X9621025Y-13094284D01*
X9621025Y-13094284D02*
X9601977Y-13103808D01*
X9601977Y-13103808D02*
X9592453Y-13113331D01*
X9592453Y-13113331D02*
X9573406Y-13141903D01*
X9573406Y-13141903D02*
X9563882Y-13179998D01*
X9563882Y-13179998D02*
X9563882Y-13256188D01*
X9563882Y-13256188D02*
X9573406Y-13275236D01*
X9573406Y-13275236D02*
X9582929Y-13284760D01*
X9582929Y-13284760D02*
X9601977Y-13294284D01*
X9601977Y-13294284D02*
X9640072Y-13294284D01*
X9640072Y-13294284D02*
X9659120Y-13284760D01*
X9659120Y-13284760D02*
X9668644Y-13275236D01*
X9668644Y-13275236D02*
X9678168Y-13256188D01*
X9678168Y-13256188D02*
X9678168Y-13208569D01*
X9678168Y-13208569D02*
X9668644Y-13189522D01*
X9668644Y-13189522D02*
X9659120Y-13179998D01*
X9659120Y-13179998D02*
X9640072Y-13170474D01*
X9640072Y-13170474D02*
X9601977Y-13170474D01*
X9601977Y-13170474D02*
X9582929Y-13179998D01*
X9582929Y-13179998D02*
X9573406Y-13189522D01*
X9573406Y-13189522D02*
X9563882Y-13208569D01*
X9801977Y-13094284D02*
X9821025Y-13094284D01*
X9821025Y-13094284D02*
X9840072Y-13103808D01*
X9840072Y-13103808D02*
X9849596Y-13113331D01*
X9849596Y-13113331D02*
X9859120Y-13132379D01*
X9859120Y-13132379D02*
X9868644Y-13170474D01*
X9868644Y-13170474D02*
X9868644Y-13218093D01*
X9868644Y-13218093D02*
X9859120Y-13256188D01*
X9859120Y-13256188D02*
X9849596Y-13275236D01*
X9849596Y-13275236D02*
X9840072Y-13284760D01*
X9840072Y-13284760D02*
X9821025Y-13294284D01*
X9821025Y-13294284D02*
X9801977Y-13294284D01*
X9801977Y-13294284D02*
X9782929Y-13284760D01*
X9782929Y-13284760D02*
X9773406Y-13275236D01*
X9773406Y-13275236D02*
X9763882Y-13256188D01*
X9763882Y-13256188D02*
X9754358Y-13218093D01*
X9754358Y-13218093D02*
X9754358Y-13170474D01*
X9754358Y-13170474D02*
X9763882Y-13132379D01*
X9763882Y-13132379D02*
X9773406Y-13113331D01*
X9773406Y-13113331D02*
X9782929Y-13103808D01*
X9782929Y-13103808D02*
X9801977Y-13094284D01*
X9944834Y-13094284D02*
X9944834Y-13132379D01*
X10021025Y-13094284D02*
X10021025Y-13132379D01*
X10316263Y-13370474D02*
X10306739Y-13360950D01*
X10306739Y-13360950D02*
X10287691Y-13332379D01*
X10287691Y-13332379D02*
X10278168Y-13313331D01*
X10278168Y-13313331D02*
X10268644Y-13284760D01*
X10268644Y-13284760D02*
X10259120Y-13237141D01*
X10259120Y-13237141D02*
X10259120Y-13199046D01*
X10259120Y-13199046D02*
X10268644Y-13151427D01*
X10268644Y-13151427D02*
X10278168Y-13122855D01*
X10278168Y-13122855D02*
X10287691Y-13103808D01*
X10287691Y-13103808D02*
X10306739Y-13075236D01*
X10306739Y-13075236D02*
X10316263Y-13065712D01*
X10478168Y-13160950D02*
X10478168Y-13294284D01*
X10430549Y-13084760D02*
X10382930Y-13227617D01*
X10382930Y-13227617D02*
X10506739Y-13227617D01*
X10735311Y-13294284D02*
X10735311Y-13094284D01*
X10821025Y-13294284D02*
X10821025Y-13189522D01*
X10821025Y-13189522D02*
X10811501Y-13170474D01*
X10811501Y-13170474D02*
X10792453Y-13160950D01*
X10792453Y-13160950D02*
X10763882Y-13160950D01*
X10763882Y-13160950D02*
X10744834Y-13170474D01*
X10744834Y-13170474D02*
X10735311Y-13179998D01*
X10944834Y-13294284D02*
X10925787Y-13284760D01*
X10925787Y-13284760D02*
X10916263Y-13275236D01*
X10916263Y-13275236D02*
X10906739Y-13256188D01*
X10906739Y-13256188D02*
X10906739Y-13199046D01*
X10906739Y-13199046D02*
X10916263Y-13179998D01*
X10916263Y-13179998D02*
X10925787Y-13170474D01*
X10925787Y-13170474D02*
X10944834Y-13160950D01*
X10944834Y-13160950D02*
X10973406Y-13160950D01*
X10973406Y-13160950D02*
X10992453Y-13170474D01*
X10992453Y-13170474D02*
X11001977Y-13179998D01*
X11001977Y-13179998D02*
X11011501Y-13199046D01*
X11011501Y-13199046D02*
X11011501Y-13256188D01*
X11011501Y-13256188D02*
X11001977Y-13275236D01*
X11001977Y-13275236D02*
X10992453Y-13284760D01*
X10992453Y-13284760D02*
X10973406Y-13294284D01*
X10973406Y-13294284D02*
X10944834Y-13294284D01*
X11125787Y-13294284D02*
X11106739Y-13284760D01*
X11106739Y-13284760D02*
X11097215Y-13265712D01*
X11097215Y-13265712D02*
X11097215Y-13094284D01*
X11278168Y-13284760D02*
X11259120Y-13294284D01*
X11259120Y-13294284D02*
X11221025Y-13294284D01*
X11221025Y-13294284D02*
X11201977Y-13284760D01*
X11201977Y-13284760D02*
X11192453Y-13265712D01*
X11192453Y-13265712D02*
X11192453Y-13189522D01*
X11192453Y-13189522D02*
X11201977Y-13170474D01*
X11201977Y-13170474D02*
X11221025Y-13160950D01*
X11221025Y-13160950D02*
X11259120Y-13160950D01*
X11259120Y-13160950D02*
X11278168Y-13170474D01*
X11278168Y-13170474D02*
X11287691Y-13189522D01*
X11287691Y-13189522D02*
X11287691Y-13208569D01*
X11287691Y-13208569D02*
X11192453Y-13227617D01*
X11363882Y-13284760D02*
X11382930Y-13294284D01*
X11382930Y-13294284D02*
X11421025Y-13294284D01*
X11421025Y-13294284D02*
X11440072Y-13284760D01*
X11440072Y-13284760D02*
X11449596Y-13265712D01*
X11449596Y-13265712D02*
X11449596Y-13256188D01*
X11449596Y-13256188D02*
X11440072Y-13237141D01*
X11440072Y-13237141D02*
X11421025Y-13227617D01*
X11421025Y-13227617D02*
X11392453Y-13227617D01*
X11392453Y-13227617D02*
X11373406Y-13218093D01*
X11373406Y-13218093D02*
X11363882Y-13199046D01*
X11363882Y-13199046D02*
X11363882Y-13189522D01*
X11363882Y-13189522D02*
X11373406Y-13170474D01*
X11373406Y-13170474D02*
X11392453Y-13160950D01*
X11392453Y-13160950D02*
X11421025Y-13160950D01*
X11421025Y-13160950D02*
X11440072Y-13170474D01*
X11516263Y-13370474D02*
X11525787Y-13360950D01*
X11525787Y-13360950D02*
X11544834Y-13332379D01*
X11544834Y-13332379D02*
X11554358Y-13313331D01*
X11554358Y-13313331D02*
X11563882Y-13284760D01*
X11563882Y-13284760D02*
X11573406Y-13237141D01*
X11573406Y-13237141D02*
X11573406Y-13199046D01*
X11573406Y-13199046D02*
X11563882Y-13151427D01*
X11563882Y-13151427D02*
X11554358Y-13122855D01*
X11554358Y-13122855D02*
X11544834Y-13103808D01*
X11544834Y-13103808D02*
X11525787Y-13075236D01*
X11525787Y-13075236D02*
X11516263Y-13065712D01*
X11878168Y-13370474D02*
X11868644Y-13360950D01*
X11868644Y-13360950D02*
X11849596Y-13332379D01*
X11849596Y-13332379D02*
X11840072Y-13313331D01*
X11840072Y-13313331D02*
X11830549Y-13284760D01*
X11830549Y-13284760D02*
X11821025Y-13237141D01*
X11821025Y-13237141D02*
X11821025Y-13199046D01*
X11821025Y-13199046D02*
X11830549Y-13151427D01*
X11830549Y-13151427D02*
X11840072Y-13122855D01*
X11840072Y-13122855D02*
X11849596Y-13103808D01*
X11849596Y-13103808D02*
X11868644Y-13075236D01*
X11868644Y-13075236D02*
X11878168Y-13065712D01*
X11954358Y-13160950D02*
X11954358Y-13294284D01*
X11954358Y-13179998D02*
X11963882Y-13170474D01*
X11963882Y-13170474D02*
X11982930Y-13160950D01*
X11982930Y-13160950D02*
X12011501Y-13160950D01*
X12011501Y-13160950D02*
X12030549Y-13170474D01*
X12030549Y-13170474D02*
X12040072Y-13189522D01*
X12040072Y-13189522D02*
X12040072Y-13294284D01*
X12163882Y-13294284D02*
X12144834Y-13284760D01*
X12144834Y-13284760D02*
X12135311Y-13275236D01*
X12135311Y-13275236D02*
X12125787Y-13256188D01*
X12125787Y-13256188D02*
X12125787Y-13199046D01*
X12125787Y-13199046D02*
X12135311Y-13179998D01*
X12135311Y-13179998D02*
X12144834Y-13170474D01*
X12144834Y-13170474D02*
X12163882Y-13160950D01*
X12163882Y-13160950D02*
X12192453Y-13160950D01*
X12192453Y-13160950D02*
X12211501Y-13170474D01*
X12211501Y-13170474D02*
X12221025Y-13179998D01*
X12221025Y-13179998D02*
X12230549Y-13199046D01*
X12230549Y-13199046D02*
X12230549Y-13256188D01*
X12230549Y-13256188D02*
X12221025Y-13275236D01*
X12221025Y-13275236D02*
X12211501Y-13284760D01*
X12211501Y-13284760D02*
X12192453Y-13294284D01*
X12192453Y-13294284D02*
X12163882Y-13294284D01*
X12287692Y-13160950D02*
X12363882Y-13160950D01*
X12316263Y-13094284D02*
X12316263Y-13265712D01*
X12316263Y-13265712D02*
X12325787Y-13284760D01*
X12325787Y-13284760D02*
X12344834Y-13294284D01*
X12344834Y-13294284D02*
X12363882Y-13294284D01*
X12582930Y-13160950D02*
X12582930Y-13360950D01*
X12582930Y-13170474D02*
X12601977Y-13160950D01*
X12601977Y-13160950D02*
X12640073Y-13160950D01*
X12640073Y-13160950D02*
X12659120Y-13170474D01*
X12659120Y-13170474D02*
X12668644Y-13179998D01*
X12668644Y-13179998D02*
X12678168Y-13199046D01*
X12678168Y-13199046D02*
X12678168Y-13256188D01*
X12678168Y-13256188D02*
X12668644Y-13275236D01*
X12668644Y-13275236D02*
X12659120Y-13284760D01*
X12659120Y-13284760D02*
X12640073Y-13294284D01*
X12640073Y-13294284D02*
X12601977Y-13294284D01*
X12601977Y-13294284D02*
X12582930Y-13284760D01*
X12792453Y-13294284D02*
X12773406Y-13284760D01*
X12773406Y-13284760D02*
X12763882Y-13265712D01*
X12763882Y-13265712D02*
X12763882Y-13094284D01*
X12954358Y-13294284D02*
X12954358Y-13189522D01*
X12954358Y-13189522D02*
X12944834Y-13170474D01*
X12944834Y-13170474D02*
X12925787Y-13160950D01*
X12925787Y-13160950D02*
X12887692Y-13160950D01*
X12887692Y-13160950D02*
X12868644Y-13170474D01*
X12954358Y-13284760D02*
X12935311Y-13294284D01*
X12935311Y-13294284D02*
X12887692Y-13294284D01*
X12887692Y-13294284D02*
X12868644Y-13284760D01*
X12868644Y-13284760D02*
X12859120Y-13265712D01*
X12859120Y-13265712D02*
X12859120Y-13246665D01*
X12859120Y-13246665D02*
X12868644Y-13227617D01*
X12868644Y-13227617D02*
X12887692Y-13218093D01*
X12887692Y-13218093D02*
X12935311Y-13218093D01*
X12935311Y-13218093D02*
X12954358Y-13208569D01*
X13021025Y-13160950D02*
X13097215Y-13160950D01*
X13049596Y-13094284D02*
X13049596Y-13265712D01*
X13049596Y-13265712D02*
X13059120Y-13284760D01*
X13059120Y-13284760D02*
X13078168Y-13294284D01*
X13078168Y-13294284D02*
X13097215Y-13294284D01*
X13240073Y-13284760D02*
X13221025Y-13294284D01*
X13221025Y-13294284D02*
X13182930Y-13294284D01*
X13182930Y-13294284D02*
X13163882Y-13284760D01*
X13163882Y-13284760D02*
X13154358Y-13265712D01*
X13154358Y-13265712D02*
X13154358Y-13189522D01*
X13154358Y-13189522D02*
X13163882Y-13170474D01*
X13163882Y-13170474D02*
X13182930Y-13160950D01*
X13182930Y-13160950D02*
X13221025Y-13160950D01*
X13221025Y-13160950D02*
X13240073Y-13170474D01*
X13240073Y-13170474D02*
X13249596Y-13189522D01*
X13249596Y-13189522D02*
X13249596Y-13208569D01*
X13249596Y-13208569D02*
X13154358Y-13227617D01*
X13421025Y-13294284D02*
X13421025Y-13094284D01*
X13421025Y-13284760D02*
X13401977Y-13294284D01*
X13401977Y-13294284D02*
X13363882Y-13294284D01*
X13363882Y-13294284D02*
X13344834Y-13284760D01*
X13344834Y-13284760D02*
X13335311Y-13275236D01*
X13335311Y-13275236D02*
X13325787Y-13256188D01*
X13325787Y-13256188D02*
X13325787Y-13199046D01*
X13325787Y-13199046D02*
X13335311Y-13179998D01*
X13335311Y-13179998D02*
X13344834Y-13170474D01*
X13344834Y-13170474D02*
X13363882Y-13160950D01*
X13363882Y-13160950D02*
X13401977Y-13160950D01*
X13401977Y-13160950D02*
X13421025Y-13170474D01*
X13497215Y-13370474D02*
X13506739Y-13360950D01*
X13506739Y-13360950D02*
X13525787Y-13332379D01*
X13525787Y-13332379D02*
X13535311Y-13313331D01*
X13535311Y-13313331D02*
X13544834Y-13284760D01*
X13544834Y-13284760D02*
X13554358Y-13237141D01*
X13554358Y-13237141D02*
X13554358Y-13199046D01*
X13554358Y-13199046D02*
X13544834Y-13151427D01*
X13544834Y-13151427D02*
X13535311Y-13122855D01*
X13535311Y-13122855D02*
X13525787Y-13103808D01*
X13525787Y-13103808D02*
X13506739Y-13075236D01*
X13506739Y-13075236D02*
X13497215Y-13065712D01*
M02*
