%TF.GenerationSoftware,KiCad,Pcbnew,8.0.8*%
%TF.CreationDate,2025-04-07T15:17:30-05:00*%
%TF.ProjectId,finalproject,66696e61-6c70-4726-9f6a-6563742e6b69,rev?*%
%TF.SameCoordinates,Original*%
%TF.FileFunction,Soldermask,Top*%
%TF.FilePolarity,Negative*%
%FSLAX46Y46*%
G04 Gerber Fmt 4.6, Leading zero omitted, Abs format (unit mm)*
G04 Created by KiCad (PCBNEW 8.0.8) date 2025-04-07 15:17:30*
%MOMM*%
%LPD*%
G01*
G04 APERTURE LIST*
G04 Aperture macros list*
%AMRoundRect*
0 Rectangle with rounded corners*
0 $1 Rounding radius*
0 $2 $3 $4 $5 $6 $7 $8 $9 X,Y pos of 4 corners*
0 Add a 4 corners polygon primitive as box body*
4,1,4,$2,$3,$4,$5,$6,$7,$8,$9,$2,$3,0*
0 Add four circle primitives for the rounded corners*
1,1,$1+$1,$2,$3*
1,1,$1+$1,$4,$5*
1,1,$1+$1,$6,$7*
1,1,$1+$1,$8,$9*
0 Add four rect primitives between the rounded corners*
20,1,$1+$1,$2,$3,$4,$5,0*
20,1,$1+$1,$4,$5,$6,$7,0*
20,1,$1+$1,$6,$7,$8,$9,0*
20,1,$1+$1,$8,$9,$2,$3,0*%
G04 Aperture macros list end*
%ADD10C,0.010000*%
%ADD11RoundRect,0.250000X0.450000X-0.350000X0.450000X0.350000X-0.450000X0.350000X-0.450000X-0.350000X0*%
%ADD12RoundRect,0.250000X-0.450000X0.350000X-0.450000X-0.350000X0.450000X-0.350000X0.450000X0.350000X0*%
%ADD13RoundRect,0.375000X-0.625000X-0.375000X0.625000X-0.375000X0.625000X0.375000X-0.625000X0.375000X0*%
%ADD14RoundRect,0.500000X-0.500000X-1.400000X0.500000X-1.400000X0.500000X1.400000X-0.500000X1.400000X0*%
%ADD15RoundRect,0.250000X-0.350000X-0.450000X0.350000X-0.450000X0.350000X0.450000X-0.350000X0.450000X0*%
%ADD16RoundRect,0.250000X-0.337500X-0.475000X0.337500X-0.475000X0.337500X0.475000X-0.337500X0.475000X0*%
%ADD17RoundRect,0.250000X-0.620000X-0.845000X0.620000X-0.845000X0.620000X0.845000X-0.620000X0.845000X0*%
%ADD18O,1.740000X2.190000*%
%ADD19RoundRect,0.250000X-0.475000X0.337500X-0.475000X-0.337500X0.475000X-0.337500X0.475000X0.337500X0*%
%ADD20C,3.200000*%
%ADD21RoundRect,0.058000X0.174000X-0.529000X0.174000X0.529000X-0.174000X0.529000X-0.174000X-0.529000X0*%
%ADD22RoundRect,0.058000X0.529000X-0.174000X0.529000X0.174000X-0.529000X0.174000X-0.529000X-0.174000X0*%
%ADD23RoundRect,0.102000X1.575000X-1.575000X1.575000X1.575000X-1.575000X1.575000X-1.575000X-1.575000X0*%
%ADD24RoundRect,0.250000X0.337500X0.475000X-0.337500X0.475000X-0.337500X-0.475000X0.337500X-0.475000X0*%
%ADD25RoundRect,0.250000X0.350000X0.450000X-0.350000X0.450000X-0.350000X-0.450000X0.350000X-0.450000X0*%
%ADD26RoundRect,0.250000X0.620000X0.845000X-0.620000X0.845000X-0.620000X-0.845000X0.620000X-0.845000X0*%
%ADD27RoundRect,0.150000X-0.587500X-0.150000X0.587500X-0.150000X0.587500X0.150000X-0.587500X0.150000X0*%
%ADD28RoundRect,0.087500X0.287500X0.087500X-0.287500X0.087500X-0.287500X-0.087500X0.287500X-0.087500X0*%
%ADD29R,1.300000X1.300000*%
%ADD30C,1.300000*%
%ADD31O,1.900000X2.900000*%
%ADD32O,2.900000X1.900000*%
%ADD33RoundRect,0.250000X-0.845000X0.620000X-0.845000X-0.620000X0.845000X-0.620000X0.845000X0.620000X0*%
%ADD34O,2.190000X1.740000*%
%ADD35RoundRect,0.250000X0.475000X-0.337500X0.475000X0.337500X-0.475000X0.337500X-0.475000X-0.337500X0*%
%ADD36C,2.000000*%
%ADD37RoundRect,0.062500X0.375000X0.062500X-0.375000X0.062500X-0.375000X-0.062500X0.375000X-0.062500X0*%
%ADD38RoundRect,0.062500X0.062500X0.375000X-0.062500X0.375000X-0.062500X-0.375000X0.062500X-0.375000X0*%
%ADD39R,3.450000X3.450000*%
%ADD40C,2.340000*%
%ADD41RoundRect,0.250000X0.350000X0.625000X-0.350000X0.625000X-0.350000X-0.625000X0.350000X-0.625000X0*%
%ADD42O,1.200000X1.750000*%
%ADD43RoundRect,0.102000X0.785000X0.205000X-0.785000X0.205000X-0.785000X-0.205000X0.785000X-0.205000X0*%
G04 APERTURE END LIST*
D10*
%TO.C,U1*%
X145352226Y-96082500D02*
X143953000Y-96082500D01*
X143953000Y-95180820D01*
X145352226Y-95180820D01*
X145352226Y-96082500D01*
G36*
X145352226Y-96082500D02*
G01*
X143953000Y-96082500D01*
X143953000Y-95180820D01*
X145352226Y-95180820D01*
X145352226Y-96082500D01*
G37*
X145352509Y-98002500D02*
X143953000Y-98002500D01*
X143953000Y-97102885D01*
X145352509Y-97102885D01*
X145352509Y-98002500D01*
G36*
X145352509Y-98002500D02*
G01*
X143953000Y-98002500D01*
X143953000Y-97102885D01*
X145352509Y-97102885D01*
X145352509Y-98002500D01*
G37*
X148054020Y-98002500D02*
X146653000Y-98002500D01*
X146653000Y-96902655D01*
X148054020Y-96902655D01*
X148054020Y-98002500D01*
G36*
X148054020Y-98002500D02*
G01*
X146653000Y-98002500D01*
X146653000Y-96902655D01*
X148054020Y-96902655D01*
X148054020Y-98002500D01*
G37*
X148055300Y-96082500D02*
X146653000Y-96082500D01*
X146653000Y-95180920D01*
X148055300Y-95180920D01*
X148055300Y-96082500D01*
G36*
X148055300Y-96082500D02*
G01*
X146653000Y-96082500D01*
X146653000Y-95180920D01*
X148055300Y-95180920D01*
X148055300Y-96082500D01*
G37*
%TD*%
D11*
%TO.C,R4*%
X101409000Y-74533000D03*
X101409000Y-72533000D03*
%TD*%
D12*
%TO.C,R6*%
X97853000Y-72533000D03*
X97853000Y-74533000D03*
%TD*%
D13*
%TO.C,3.3V_1.8V1*%
X81294000Y-89013000D03*
X81294000Y-91313000D03*
D14*
X87594000Y-91313000D03*
D13*
X81294000Y-93613000D03*
%TD*%
D11*
%TO.C,R14*%
X97409000Y-107594000D03*
X97409000Y-105594000D03*
%TD*%
D15*
%TO.C,R2*%
X99568000Y-100203000D03*
X101568000Y-100203000D03*
%TD*%
D16*
%TO.C,C7*%
X125073500Y-87651500D03*
X127148500Y-87651500D03*
%TD*%
D17*
%TO.C,TEST1*%
X137160000Y-73534500D03*
D18*
X139700000Y-73534500D03*
X142240000Y-73534500D03*
X144780000Y-73534500D03*
%TD*%
D12*
%TO.C,R16*%
X122301000Y-96938500D03*
X122301000Y-98938500D03*
%TD*%
D19*
%TO.C,C1*%
X104013000Y-113668500D03*
X104013000Y-115743500D03*
%TD*%
D20*
%TO.C,H2*%
X158242000Y-62103000D03*
%TD*%
D21*
%TO.C,UART-TO-USB1*%
X144320000Y-91187500D03*
X144820000Y-91187500D03*
X145320000Y-91187500D03*
X145820000Y-91187500D03*
X146320000Y-91187500D03*
X146820000Y-91187500D03*
X147320000Y-91187500D03*
D22*
X148190000Y-90317500D03*
X148190000Y-89817500D03*
X148190000Y-89317500D03*
X148190000Y-88817500D03*
X148190000Y-88317500D03*
X148190000Y-87817500D03*
X148190000Y-87317500D03*
D21*
X147320000Y-86447500D03*
X146820000Y-86447500D03*
X146320000Y-86447500D03*
X145820000Y-86447500D03*
X145320000Y-86447500D03*
X144820000Y-86447500D03*
X144320000Y-86447500D03*
D22*
X143450000Y-87317500D03*
X143450000Y-87817500D03*
X143450000Y-88317500D03*
X143450000Y-88817500D03*
X143450000Y-89317500D03*
X143450000Y-89817500D03*
X143450000Y-90317500D03*
D23*
X145820000Y-88817500D03*
%TD*%
D24*
%TO.C,C3*%
X106383500Y-93853000D03*
X104308500Y-93853000D03*
%TD*%
D16*
%TO.C,C9*%
X151810500Y-87336500D03*
X153885500Y-87336500D03*
%TD*%
D25*
%TO.C,R10*%
X101123000Y-90043000D03*
X99123000Y-90043000D03*
%TD*%
D15*
%TO.C,R1*%
X104013000Y-100203000D03*
X106013000Y-100203000D03*
%TD*%
D26*
%TO.C,Vin1*%
X80867000Y-73914000D03*
D18*
X78327000Y-73914000D03*
%TD*%
D11*
%TO.C,R12*%
X112077000Y-88757000D03*
X112077000Y-86757000D03*
%TD*%
D27*
%TO.C,5V_3.3V1*%
X83058000Y-81280000D03*
X83058000Y-83180000D03*
X84933000Y-82230000D03*
%TD*%
D28*
%TO.C,HEART1*%
X103378000Y-109207000D03*
X103378000Y-108407000D03*
X103378000Y-107607000D03*
X103378000Y-106807000D03*
X103378000Y-106007000D03*
X103378000Y-105207000D03*
X103378000Y-104407000D03*
X100978000Y-104407000D03*
X100978000Y-105207000D03*
X100978000Y-106007000D03*
X100978000Y-106807000D03*
X100978000Y-107607000D03*
X100978000Y-108407000D03*
X100978000Y-109207000D03*
%TD*%
D16*
%TO.C,C11*%
X125200500Y-91461500D03*
X127275500Y-91461500D03*
%TD*%
D12*
%TO.C,R5*%
X105346000Y-72533000D03*
X105346000Y-74533000D03*
%TD*%
D29*
%TO.C,USB1*%
X150058000Y-101842500D03*
D30*
X147558000Y-101842500D03*
X145558000Y-101842500D03*
X143058000Y-101842500D03*
D31*
X153128000Y-102442500D03*
D32*
X146558000Y-106622500D03*
D31*
X139988000Y-102442500D03*
%TD*%
D33*
%TO.C,SIG1*%
X119824000Y-84201000D03*
D34*
X119824000Y-86741000D03*
%TD*%
D35*
%TO.C,C14*%
X80010000Y-83460500D03*
X80010000Y-81385500D03*
%TD*%
D19*
%TO.C,C15*%
X88011000Y-81385500D03*
X88011000Y-83460500D03*
%TD*%
D16*
%TO.C,C5*%
X125073500Y-83587500D03*
X127148500Y-83587500D03*
%TD*%
%TO.C,C18*%
X151892000Y-83399500D03*
X153967000Y-83399500D03*
%TD*%
D19*
%TO.C,C2*%
X100330000Y-113436000D03*
X100330000Y-115511000D03*
%TD*%
D16*
%TO.C,C12*%
X129899500Y-91334500D03*
X131974500Y-91334500D03*
%TD*%
D12*
%TO.C,R8*%
X111569000Y-77105000D03*
X111569000Y-79105000D03*
%TD*%
D36*
%TO.C,SW1*%
X128928000Y-112069000D03*
X122428000Y-112069000D03*
X128928000Y-107569000D03*
X122428000Y-107569000D03*
%TD*%
D37*
%TO.C,MCU1*%
X131108500Y-98267000D03*
X131108500Y-97767000D03*
X131108500Y-97267000D03*
X131108500Y-96767000D03*
X131108500Y-96267000D03*
X131108500Y-95767000D03*
X131108500Y-95267000D03*
X131108500Y-94767000D03*
D38*
X130421000Y-94079500D03*
X129921000Y-94079500D03*
X129421000Y-94079500D03*
X128921000Y-94079500D03*
X128421000Y-94079500D03*
X127921000Y-94079500D03*
X127421000Y-94079500D03*
X126921000Y-94079500D03*
D37*
X126233500Y-94767000D03*
X126233500Y-95267000D03*
X126233500Y-95767000D03*
X126233500Y-96267000D03*
X126233500Y-96767000D03*
X126233500Y-97267000D03*
X126233500Y-97767000D03*
X126233500Y-98267000D03*
D38*
X126921000Y-98954500D03*
X127421000Y-98954500D03*
X127921000Y-98954500D03*
X128421000Y-98954500D03*
X128921000Y-98954500D03*
X129421000Y-98954500D03*
X129921000Y-98954500D03*
X130421000Y-98954500D03*
D39*
X128671000Y-96517000D03*
%TD*%
D24*
%TO.C,C13*%
X135276500Y-106876500D03*
X133201500Y-106876500D03*
%TD*%
D20*
%TO.C,H3*%
X72390000Y-120777000D03*
%TD*%
D16*
%TO.C,C8*%
X151892000Y-90959500D03*
X153967000Y-90959500D03*
%TD*%
D20*
%TO.C,H4*%
X158242000Y-121031000D03*
%TD*%
D24*
%TO.C,C6*%
X131974500Y-83460500D03*
X129899500Y-83460500D03*
%TD*%
D25*
%TO.C,R15*%
X147304000Y-83399500D03*
X145304000Y-83399500D03*
%TD*%
D17*
%TO.C,HEARTOUT1*%
X109921501Y-108721500D03*
D18*
X112461501Y-108721500D03*
%TD*%
D20*
%TO.C,H1*%
X72390000Y-61849000D03*
%TD*%
D25*
%TO.C,R3*%
X106219000Y-90043000D03*
X104219000Y-90043000D03*
%TD*%
D40*
%TO.C,R17*%
X120459000Y-75184000D03*
X116659000Y-72684000D03*
X120459000Y-70184000D03*
%TD*%
D16*
%TO.C,C10*%
X129899500Y-87524500D03*
X131974500Y-87524500D03*
%TD*%
D19*
%TO.C,C17*%
X90642000Y-90127000D03*
X90642000Y-92202000D03*
%TD*%
D35*
%TO.C,C4*%
X112077000Y-84349500D03*
X112077000Y-82274500D03*
%TD*%
D12*
%TO.C,R9*%
X95440000Y-82153000D03*
X95440000Y-80153000D03*
%TD*%
D15*
%TO.C,R13*%
X133239000Y-104268500D03*
X135239000Y-104268500D03*
%TD*%
D35*
%TO.C,C16*%
X77307000Y-91483000D03*
X77307000Y-89408000D03*
%TD*%
D41*
%TO.C,GSR_IN1*%
X92456000Y-73914000D03*
D42*
X90456000Y-73914000D03*
%TD*%
D25*
%TO.C,R11*%
X101012000Y-93980000D03*
X99012000Y-93980000D03*
%TD*%
D43*
%TO.C,U2*%
X99320000Y-83789000D03*
X99320000Y-83139000D03*
X99320000Y-82489000D03*
X99320000Y-81839000D03*
X99320000Y-81189000D03*
X99320000Y-80539000D03*
X99320000Y-79889000D03*
X105060000Y-79889000D03*
X105060000Y-80539000D03*
X105060000Y-81189000D03*
X105060000Y-81839000D03*
X105060000Y-82489000D03*
X105060000Y-83139000D03*
X105060000Y-83789000D03*
%TD*%
M02*
