M48
; DRILL file {KiCad 8.0.8} date 2025-04-07T15:17:32-0500
; FORMAT={-:-/ absolute / inch / decimal}
; #@! TF.CreationDate,2025-04-07T15:17:32-05:00
; #@! TF.GenerationSoftware,Kicad,Pcbnew,8.0.8
; #@! TF.FileFunction,Plated,1,2,PTH
FMAT,2
INCH
; #@! TA.AperFunction,Plated,PTH,ViaDrill
T1C0.0118
; #@! TA.AperFunction,Plated,PTH,ComponentDrill
T2C0.0295
; #@! TA.AperFunction,Plated,PTH,ComponentDrill
T3C0.0354
; #@! TA.AperFunction,Plated,PTH,ComponentDrill
T4C0.0433
; #@! TA.AperFunction,Plated,PTH,ComponentDrill
T5C0.0469
; #@! TA.AperFunction,Plated,PTH,ComponentDrill
T6C0.0512
%
G90
G05
T1
X3.0047Y-3.205
X3.0641Y-3.1616
X3.35Y-2.975
X3.405Y-3.27
X3.53Y-3.92
X3.66Y-3.67
X3.705Y-3.745
X3.8396Y-3.2572
X3.84Y-3.19
X3.8864Y-4.2374
X3.925Y-2.9462
X3.9259Y-4.2819
X3.9489Y-3.0056
X3.955Y-3.445
X3.9565Y-3.485
X3.985Y-3.74
X4.0059Y-3.485
X4.015Y-2.9809
X4.0164Y-4.2254
X4.02Y-3.15
X4.045Y-3.535
X4.0636Y-4.2099
X4.1975Y-2.965
X4.21Y-2.86
X4.2275Y-2.895
X4.245Y-3.518
X4.61Y-3.775
X4.65Y-3.8462
X4.735Y-3.9001
X4.9096Y-3.8296
X4.928Y-3.878
X4.97Y-3.655
X5.045Y-3.8351
X5.055Y-3.4751
X5.0632Y-3.5869
X5.1417Y-3.6583
X5.2014Y-3.6482
X5.2057Y-3.8693
X5.22Y-3.7751
X5.2256Y-3.8194
X5.23Y-3.6792
X5.26Y-4.0151
X5.27Y-3.7557
X5.3097Y-4.0151
X5.5Y-3.2051
X5.57Y-3.5351
X5.585Y-3.4751
X5.59Y-3.2691
X5.596Y-3.581
X5.605Y-3.2097
X5.78Y-3.9801
X5.8415Y-3.3645
X5.8715Y-3.8785
X5.8831Y-3.9251
X5.895Y-3.5805
X5.9325Y-3.9251
T2
X3.5613Y-2.91
X3.64Y-2.91
T3
X5.6322Y-4.0095
X5.7306Y-4.0095
X5.8094Y-4.0095
X5.9078Y-4.0095
T4
X4.82Y-4.235
X4.82Y-4.4122
X5.0759Y-4.235
X5.0759Y-4.4122
T5
X3.0837Y-2.91
X3.1837Y-2.91
X4.3276Y-4.2804
X4.4276Y-4.2804
X4.7175Y-3.315
X4.7175Y-3.415
X5.4Y-2.8951
X5.5Y-2.8951
X5.6Y-2.8951
X5.7Y-2.8951
T6
X4.5929Y-2.8616
X4.7425Y-2.7631
X4.7425Y-2.96
T6
G00X5.5113Y-4.0529
M15
G01X5.5113Y-4.0135
M16
G05
G00X5.7897Y-4.1977
M15
G01X5.7503Y-4.1977
M16
G05
G00X6.0287Y-4.0135
M15
G01X6.0287Y-4.0529
M16
G05
M30
