%TF.GenerationSoftware,KiCad,Pcbnew,8.0.8*%
%TF.CreationDate,2025-03-31T16:04:57-05:00*%
%TF.ProjectId,finalproject,66696e61-6c70-4726-9f6a-6563742e6b69,rev?*%
%TF.SameCoordinates,Original*%
%TF.FileFunction,Copper,L2,Bot*%
%TF.FilePolarity,Positive*%
%FSLAX46Y46*%
G04 Gerber Fmt 4.6, Leading zero omitted, Abs format (unit mm)*
G04 Created by KiCad (PCBNEW 8.0.8) date 2025-03-31 16:04:57*
%MOMM*%
%LPD*%
G01*
G04 APERTURE LIST*
G04 Aperture macros list*
%AMRoundRect*
0 Rectangle with rounded corners*
0 $1 Rounding radius*
0 $2 $3 $4 $5 $6 $7 $8 $9 X,Y pos of 4 corners*
0 Add a 4 corners polygon primitive as box body*
4,1,4,$2,$3,$4,$5,$6,$7,$8,$9,$2,$3,0*
0 Add four circle primitives for the rounded corners*
1,1,$1+$1,$2,$3*
1,1,$1+$1,$4,$5*
1,1,$1+$1,$6,$7*
1,1,$1+$1,$8,$9*
0 Add four rect primitives between the rounded corners*
20,1,$1+$1,$2,$3,$4,$5,0*
20,1,$1+$1,$4,$5,$6,$7,0*
20,1,$1+$1,$6,$7,$8,$9,0*
20,1,$1+$1,$8,$9,$2,$3,0*%
G04 Aperture macros list end*
%TA.AperFunction,ComponentPad*%
%ADD10C,2.340000*%
%TD*%
%TA.AperFunction,ComponentPad*%
%ADD11RoundRect,0.250000X0.350000X0.625000X-0.350000X0.625000X-0.350000X-0.625000X0.350000X-0.625000X0*%
%TD*%
%TA.AperFunction,ComponentPad*%
%ADD12O,1.200000X1.750000*%
%TD*%
%TA.AperFunction,ComponentPad*%
%ADD13O,1.900000X2.900000*%
%TD*%
%TA.AperFunction,ComponentPad*%
%ADD14O,2.900000X1.900000*%
%TD*%
%TA.AperFunction,ComponentPad*%
%ADD15C,1.300000*%
%TD*%
%TA.AperFunction,ComponentPad*%
%ADD16R,1.300000X1.300000*%
%TD*%
%TA.AperFunction,ComponentPad*%
%ADD17O,1.740000X2.190000*%
%TD*%
%TA.AperFunction,ComponentPad*%
%ADD18RoundRect,0.250000X-0.620000X-0.845000X0.620000X-0.845000X0.620000X0.845000X-0.620000X0.845000X0*%
%TD*%
%TA.AperFunction,ComponentPad*%
%ADD19C,2.000000*%
%TD*%
%TA.AperFunction,ComponentPad*%
%ADD20O,2.190000X1.740000*%
%TD*%
%TA.AperFunction,ComponentPad*%
%ADD21RoundRect,0.250000X-0.845000X0.620000X-0.845000X-0.620000X0.845000X-0.620000X0.845000X0.620000X0*%
%TD*%
%TA.AperFunction,ViaPad*%
%ADD22C,0.600000*%
%TD*%
%TA.AperFunction,Conductor*%
%ADD23C,0.254000*%
%TD*%
%TA.AperFunction,Conductor*%
%ADD24C,0.508000*%
%TD*%
%TA.AperFunction,Conductor*%
%ADD25C,0.200000*%
%TD*%
G04 APERTURE END LIST*
D10*
%TO.P,R17,1*%
%TO.N,GND*%
X120459000Y-75184000D03*
%TO.P,R17,2*%
%TO.N,Net-(GSR1-Pad3)*%
X116659000Y-72684000D03*
%TO.P,R17,3*%
%TO.N,N/C*%
X120459000Y-70184000D03*
%TD*%
D11*
%TO.P,Vin1,1,Pin_1*%
%TO.N,GND*%
X80867000Y-73914000D03*
D12*
%TO.P,Vin1,2,Pin_2*%
%TO.N,+5V*%
X78867000Y-73914000D03*
%TD*%
D13*
%TO.P,USB1,5,Shield*%
%TO.N,GND*%
X147354000Y-102187000D03*
D14*
X153924000Y-106367000D03*
D13*
X160494000Y-102187000D03*
D15*
%TO.P,USB1,4,GND*%
X150424000Y-101587000D03*
%TO.P,USB1,3,D+*%
%TO.N,Net-(UART-TO-USB1-D+)*%
X152924000Y-101587000D03*
%TO.P,USB1,2,D-*%
%TO.N,Net-(UART-TO-USB1-D-)*%
X154924000Y-101587000D03*
D16*
%TO.P,USB1,1,VBUS*%
%TO.N,/VBUS*%
X157424000Y-101587000D03*
%TD*%
D17*
%TO.P,TEST1,4,Pin_4*%
%TO.N,GND*%
X152146000Y-73279000D03*
%TO.P,TEST1,3,Pin_3*%
%TO.N,/RX*%
X149606000Y-73279000D03*
%TO.P,TEST1,2,Pin_2*%
%TO.N,/TX*%
X147066000Y-73279000D03*
D18*
%TO.P,TEST1,1,Pin_1*%
%TO.N,+3.3V*%
X144526000Y-73279000D03*
%TD*%
D19*
%TO.P,SW1,1,1*%
%TO.N,GND*%
X136473000Y-108061000D03*
X129973000Y-108061000D03*
%TO.P,SW1,2,2*%
%TO.N,Net-(MCU1-NRST)*%
X136473000Y-103561000D03*
X129973000Y-103561000D03*
%TD*%
D20*
%TO.P,SIG1,2,Pin_2*%
%TO.N,unconnected-(SIG1-Pin_2-Pad2)*%
X119824000Y-86741000D03*
D21*
%TO.P,SIG1,1,Pin_1*%
%TO.N,/SIG*%
X119824000Y-84201000D03*
%TD*%
D18*
%TO.P,HEARTOUT1,1,Pin_1*%
%TO.N,/SDA*%
X120904000Y-102362000D03*
D17*
%TO.P,HEARTOUT1,2,Pin_2*%
%TO.N,/SCL*%
X123444000Y-102362000D03*
%TD*%
D11*
%TO.P,GSR_IN1,1,Pin_1*%
%TO.N,Net-(GSR_IN1-Pin_1)*%
X92456000Y-73914000D03*
D12*
%TO.P,GSR_IN1,2,Pin_2*%
%TO.N,GND*%
X90456000Y-73914000D03*
%TD*%
D22*
%TO.N,Net-(UART-TO-USB1-D-)*%
X156502356Y-98259644D03*
X154178000Y-100838000D03*
%TO.N,GND*%
X158051000Y-99441000D03*
X156797000Y-99441000D03*
X101219000Y-94996000D03*
X94107000Y-95123000D03*
X86487000Y-83058000D03*
X85090000Y-75565000D03*
X135763000Y-88011000D03*
X135971091Y-90850909D03*
X133604000Y-92837000D03*
X135509000Y-97155000D03*
X139482320Y-92409106D03*
X137965894Y-92666106D03*
X142232000Y-101727000D03*
X140970000Y-101727000D03*
%TO.N,+3.3V*%
X140097390Y-96757610D03*
X139591678Y-98025322D03*
X140208000Y-93197000D03*
X141224000Y-95138500D03*
%TO.N,/SIG*%
X139954000Y-95631000D03*
X127635000Y-98806000D03*
%TO.N,/TX*%
X149225000Y-88011000D03*
X147066000Y-81153000D03*
%TO.N,/RX*%
X149352000Y-82780000D03*
X149733000Y-81272000D03*
%TO.N,+3.3V*%
X155741000Y-85203356D03*
X157099000Y-90689000D03*
%TO.N,/TX*%
X148844000Y-89535000D03*
X149503201Y-90702201D03*
%TO.N,/SCL*%
X132069107Y-97017107D03*
X132536637Y-98246637D03*
%TO.N,GND*%
X112998499Y-100965000D03*
X114198499Y-100572501D03*
%TO.N,/SIG*%
X126639341Y-94721659D03*
X125984000Y-93089500D03*
%TO.N,+3.3V*%
X98552000Y-99187000D03*
X101219000Y-99187000D03*
X76319000Y-81407000D03*
X77827000Y-80305159D03*
%TO.N,+5V*%
X101346000Y-76073000D03*
X99060000Y-76454000D03*
%TO.N,Net-(GSR1-Pad3)*%
X106616000Y-75311000D03*
X107378000Y-73533000D03*
%TO.N,Net-(GSR1-Pad1)*%
X106235000Y-77089000D03*
X107997000Y-76708000D03*
%TO.N,Net-(GSR1-Pad9)*%
X100496000Y-85725000D03*
X107997000Y-86487000D03*
%TO.N,Net-(GSR1-Pad8)*%
X100012000Y-88392000D03*
X108140000Y-88138000D03*
%TO.N,Net-(GSR1-Pad10)*%
X98361000Y-87630000D03*
X100266000Y-87630000D03*
%TO.N,Net-(HEART1-~{INT})*%
X110699659Y-102399660D03*
X109696840Y-101269841D03*
%TD*%
D23*
%TO.N,Net-(UART-TO-USB1-D-)*%
X156502356Y-98513644D02*
X154178000Y-100838000D01*
X156502356Y-98259644D02*
X156502356Y-98513644D01*
%TO.N,GND*%
X156797000Y-99441000D02*
X158051000Y-99441000D01*
X101092000Y-95123000D02*
X101219000Y-94996000D01*
X94107000Y-95123000D02*
X101092000Y-95123000D01*
X86487000Y-76962000D02*
X86487000Y-83058000D01*
X85090000Y-75565000D02*
X86487000Y-76962000D01*
X135971091Y-88219091D02*
X135763000Y-88011000D01*
X135971091Y-90850909D02*
X135971091Y-88219091D01*
X133604000Y-95250000D02*
X133604000Y-92837000D01*
X135509000Y-97155000D02*
X133604000Y-95250000D01*
X139225320Y-92666106D02*
X139482320Y-92409106D01*
X137965894Y-92666106D02*
X139225320Y-92666106D01*
X140970000Y-101727000D02*
X142232000Y-101727000D01*
%TO.N,+3.3V*%
X139591678Y-97263322D02*
X140097390Y-96757610D01*
X139591678Y-98025322D02*
X139591678Y-97263322D01*
X141224000Y-94213000D02*
X140208000Y-93197000D01*
X141224000Y-95138500D02*
X141224000Y-94213000D01*
%TO.N,/SIG*%
X136711363Y-98873637D02*
X139954000Y-95631000D01*
X127635000Y-98806000D02*
X127702637Y-98873637D01*
X127702637Y-98873637D02*
X136711363Y-98873637D01*
%TO.N,/TX*%
X147066000Y-85852000D02*
X149225000Y-88011000D01*
X147066000Y-81153000D02*
X147066000Y-85852000D01*
%TO.N,/RX*%
X149733000Y-82399000D02*
X149352000Y-82780000D01*
X149733000Y-81272000D02*
X149733000Y-82399000D01*
%TO.N,+3.3V*%
X157099000Y-86561356D02*
X155741000Y-85203356D01*
X157099000Y-90689000D02*
X157099000Y-86561356D01*
%TO.N,/TX*%
X149503201Y-90194201D02*
X148844000Y-89535000D01*
X149503201Y-90702201D02*
X149503201Y-90194201D01*
%TO.N,/SCL*%
X132536637Y-98246637D02*
X132536637Y-97484637D01*
X132536637Y-97484637D02*
X132069107Y-97017107D01*
%TO.N,GND*%
X114198499Y-100572501D02*
X113390998Y-100572501D01*
X113390998Y-100572501D02*
X112998499Y-100965000D01*
%TO.N,/SIG*%
X125984000Y-94066318D02*
X126639341Y-94721659D01*
X125984000Y-93089500D02*
X125984000Y-94066318D01*
D24*
%TO.N,+3.3V*%
X101219000Y-99187000D02*
X98552000Y-99187000D01*
X77420841Y-80305159D02*
X76319000Y-81407000D01*
X77827000Y-80305159D02*
X77420841Y-80305159D01*
%TO.N,+5V*%
X100965000Y-76454000D02*
X101346000Y-76073000D01*
X99060000Y-76454000D02*
X100965000Y-76454000D01*
D23*
%TO.N,Net-(GSR1-Pad3)*%
X107378000Y-74549000D02*
X106616000Y-75311000D01*
X107378000Y-73533000D02*
X107378000Y-74549000D01*
%TO.N,Net-(GSR1-Pad1)*%
X106616000Y-76708000D02*
X106235000Y-77089000D01*
X107997000Y-76708000D02*
X106616000Y-76708000D01*
%TO.N,Net-(GSR1-Pad9)*%
X105854000Y-87249000D02*
X104330000Y-85725000D01*
X106235000Y-87249000D02*
X105854000Y-87249000D01*
X107997000Y-86487000D02*
X107235000Y-87249000D01*
X104330000Y-85725000D02*
X100496000Y-85725000D01*
X107235000Y-87249000D02*
X106235000Y-87249000D01*
%TO.N,Net-(GSR1-Pad8)*%
X107378000Y-88392000D02*
X100012000Y-88392000D01*
X108140000Y-88138000D02*
X107632000Y-88138000D01*
X107632000Y-88138000D02*
X107378000Y-88392000D01*
%TO.N,Net-(GSR1-Pad10)*%
X98361000Y-87630000D02*
X100266000Y-87630000D01*
D25*
%TO.N,Net-(HEART1-~{INT})*%
X109696840Y-101396841D02*
X110699659Y-102399660D01*
X109696840Y-101269841D02*
X109696840Y-101396841D01*
%TD*%
%TA.AperFunction,Conductor*%
%TO.N,GND*%
G36*
X163907539Y-65163185D02*
G01*
X163953294Y-65215989D01*
X163964500Y-65267500D01*
X163964500Y-111516500D01*
X163944815Y-111583539D01*
X163892011Y-111629294D01*
X163840500Y-111640500D01*
X73522500Y-111640500D01*
X73455461Y-111620815D01*
X73409706Y-111568011D01*
X73398500Y-111516500D01*
X73398500Y-108060994D01*
X128467859Y-108060994D01*
X128467859Y-108061005D01*
X128488385Y-108308729D01*
X128488387Y-108308738D01*
X128549412Y-108549717D01*
X128649267Y-108777367D01*
X128749562Y-108930881D01*
X129449212Y-108231233D01*
X129460482Y-108273292D01*
X129532890Y-108398708D01*
X129635292Y-108501110D01*
X129760708Y-108573518D01*
X129802766Y-108584787D01*
X129102943Y-109284609D01*
X129149768Y-109321055D01*
X129149771Y-109321057D01*
X129368385Y-109439364D01*
X129368396Y-109439369D01*
X129603506Y-109520083D01*
X129848707Y-109561000D01*
X130097293Y-109561000D01*
X130342493Y-109520083D01*
X130577603Y-109439369D01*
X130577614Y-109439364D01*
X130796230Y-109321056D01*
X130796236Y-109321051D01*
X130843055Y-109284610D01*
X130843056Y-109284609D01*
X130143233Y-108584787D01*
X130185292Y-108573518D01*
X130310708Y-108501110D01*
X130413110Y-108398708D01*
X130485518Y-108273292D01*
X130496787Y-108231234D01*
X131196435Y-108930882D01*
X131296733Y-108777364D01*
X131396587Y-108549717D01*
X131457612Y-108308738D01*
X131457614Y-108308729D01*
X131478141Y-108061005D01*
X131478141Y-108060994D01*
X134967859Y-108060994D01*
X134967859Y-108061005D01*
X134988385Y-108308729D01*
X134988387Y-108308738D01*
X135049412Y-108549717D01*
X135149267Y-108777367D01*
X135249562Y-108930881D01*
X135949212Y-108231233D01*
X135960482Y-108273292D01*
X136032890Y-108398708D01*
X136135292Y-108501110D01*
X136260708Y-108573518D01*
X136302766Y-108584787D01*
X135602943Y-109284609D01*
X135649768Y-109321055D01*
X135649771Y-109321057D01*
X135868385Y-109439364D01*
X135868396Y-109439369D01*
X136103506Y-109520083D01*
X136348707Y-109561000D01*
X136597293Y-109561000D01*
X136842493Y-109520083D01*
X137077603Y-109439369D01*
X137077614Y-109439364D01*
X137296230Y-109321056D01*
X137296236Y-109321051D01*
X137343055Y-109284610D01*
X137343056Y-109284609D01*
X136643233Y-108584787D01*
X136685292Y-108573518D01*
X136810708Y-108501110D01*
X136913110Y-108398708D01*
X136985518Y-108273292D01*
X136996787Y-108231234D01*
X137696435Y-108930882D01*
X137796733Y-108777364D01*
X137896587Y-108549717D01*
X137957612Y-108308738D01*
X137957614Y-108308729D01*
X137978141Y-108061005D01*
X137978141Y-108060994D01*
X137957614Y-107813270D01*
X137957612Y-107813261D01*
X137896587Y-107572282D01*
X137796732Y-107344632D01*
X137696435Y-107191116D01*
X136996787Y-107890765D01*
X136985518Y-107848708D01*
X136913110Y-107723292D01*
X136810708Y-107620890D01*
X136685292Y-107548482D01*
X136643233Y-107537212D01*
X137343055Y-106837389D01*
X137343055Y-106837388D01*
X137296236Y-106800947D01*
X137296231Y-106800944D01*
X137077614Y-106682635D01*
X137077603Y-106682630D01*
X136842493Y-106601916D01*
X136597293Y-106561000D01*
X136348707Y-106561000D01*
X136103506Y-106601916D01*
X135868396Y-106682630D01*
X135868385Y-106682635D01*
X135649770Y-106800943D01*
X135602943Y-106837389D01*
X136302766Y-107537212D01*
X136260708Y-107548482D01*
X136135292Y-107620890D01*
X136032890Y-107723292D01*
X135960482Y-107848708D01*
X135949212Y-107890766D01*
X135249563Y-107191117D01*
X135149267Y-107344633D01*
X135149265Y-107344637D01*
X135049412Y-107572282D01*
X134988387Y-107813261D01*
X134988385Y-107813270D01*
X134967859Y-108060994D01*
X131478141Y-108060994D01*
X131457614Y-107813270D01*
X131457612Y-107813261D01*
X131396587Y-107572282D01*
X131296732Y-107344632D01*
X131196435Y-107191116D01*
X130496787Y-107890765D01*
X130485518Y-107848708D01*
X130413110Y-107723292D01*
X130310708Y-107620890D01*
X130185292Y-107548482D01*
X130143233Y-107537212D01*
X130843055Y-106837389D01*
X130843055Y-106837388D01*
X130796236Y-106800947D01*
X130796231Y-106800944D01*
X130577614Y-106682635D01*
X130577603Y-106682630D01*
X130342493Y-106601916D01*
X130097293Y-106561000D01*
X129848707Y-106561000D01*
X129603506Y-106601916D01*
X129368396Y-106682630D01*
X129368385Y-106682635D01*
X129149770Y-106800943D01*
X129102943Y-106837389D01*
X129802766Y-107537212D01*
X129760708Y-107548482D01*
X129635292Y-107620890D01*
X129532890Y-107723292D01*
X129460482Y-107848708D01*
X129449212Y-107890766D01*
X128749563Y-107191117D01*
X128649267Y-107344633D01*
X128649265Y-107344637D01*
X128549412Y-107572282D01*
X128488387Y-107813261D01*
X128488385Y-107813270D01*
X128467859Y-108060994D01*
X73398500Y-108060994D01*
X73398500Y-106117000D01*
X151995522Y-106117000D01*
X152823999Y-106117000D01*
X152798979Y-106177402D01*
X152774000Y-106302981D01*
X152774000Y-106431019D01*
X152798979Y-106556598D01*
X152823999Y-106617000D01*
X151995522Y-106617000D01*
X152009704Y-106706544D01*
X152080230Y-106923604D01*
X152183849Y-107126966D01*
X152318004Y-107311614D01*
X152479385Y-107472995D01*
X152664033Y-107607150D01*
X152867395Y-107710769D01*
X153084455Y-107781295D01*
X153309884Y-107817000D01*
X153674000Y-107817000D01*
X153674000Y-107017000D01*
X154174000Y-107017000D01*
X154174000Y-107817000D01*
X154538116Y-107817000D01*
X154763544Y-107781295D01*
X154980604Y-107710769D01*
X155183966Y-107607150D01*
X155368614Y-107472995D01*
X155529995Y-107311614D01*
X155664150Y-107126966D01*
X155767769Y-106923604D01*
X155838295Y-106706544D01*
X155852478Y-106617000D01*
X155024001Y-106617000D01*
X155049021Y-106556598D01*
X155074000Y-106431019D01*
X155074000Y-106302981D01*
X155049021Y-106177402D01*
X155024001Y-106117000D01*
X155852478Y-106117000D01*
X155838295Y-106027455D01*
X155767769Y-105810395D01*
X155664150Y-105607033D01*
X155529995Y-105422385D01*
X155368614Y-105261004D01*
X155183966Y-105126849D01*
X154980604Y-105023230D01*
X154763544Y-104952704D01*
X154538116Y-104917000D01*
X154174000Y-104917000D01*
X154174000Y-105717000D01*
X153674000Y-105717000D01*
X153674000Y-104917000D01*
X153309884Y-104917000D01*
X153084455Y-104952704D01*
X152867395Y-105023230D01*
X152664033Y-105126849D01*
X152479385Y-105261004D01*
X152318004Y-105422385D01*
X152183849Y-105607033D01*
X152080230Y-105810395D01*
X152009704Y-106027455D01*
X151995522Y-106117000D01*
X73398500Y-106117000D01*
X73398500Y-101269837D01*
X108891275Y-101269837D01*
X108891275Y-101269844D01*
X108911470Y-101449090D01*
X108911471Y-101449095D01*
X108971051Y-101619364D01*
X109057505Y-101756953D01*
X109067024Y-101772103D01*
X109194578Y-101899657D01*
X109347318Y-101995630D01*
X109473009Y-102039611D01*
X109519735Y-102068971D01*
X109868957Y-102418193D01*
X109902442Y-102479516D01*
X109904496Y-102491990D01*
X109914289Y-102578909D01*
X109973869Y-102749181D01*
X109975024Y-102751019D01*
X110069843Y-102901922D01*
X110197397Y-103029476D01*
X110350137Y-103125449D01*
X110520404Y-103185028D01*
X110520409Y-103185029D01*
X110699655Y-103205225D01*
X110699659Y-103205225D01*
X110699663Y-103205225D01*
X110878908Y-103185029D01*
X110878911Y-103185028D01*
X110878914Y-103185028D01*
X111049181Y-103125449D01*
X111201921Y-103029476D01*
X111329475Y-102901922D01*
X111425448Y-102749182D01*
X111485027Y-102578915D01*
X111487433Y-102557560D01*
X111505224Y-102399663D01*
X111505224Y-102399656D01*
X111485028Y-102220410D01*
X111485027Y-102220405D01*
X111425447Y-102050136D01*
X111386241Y-101987740D01*
X111329475Y-101897398D01*
X111201921Y-101769844D01*
X111181405Y-101756953D01*
X111049180Y-101673870D01*
X110878908Y-101614290D01*
X110791989Y-101604497D01*
X110727575Y-101577430D01*
X110718192Y-101568958D01*
X110616217Y-101466983D01*
X119533500Y-101466983D01*
X119533500Y-103257001D01*
X119533501Y-103257018D01*
X119544000Y-103359796D01*
X119544001Y-103359799D01*
X119581584Y-103473216D01*
X119599186Y-103526334D01*
X119691288Y-103675656D01*
X119815344Y-103799712D01*
X119964666Y-103891814D01*
X120131203Y-103946999D01*
X120233991Y-103957500D01*
X121574008Y-103957499D01*
X121676797Y-103946999D01*
X121843334Y-103891814D01*
X121992656Y-103799712D01*
X122116712Y-103675656D01*
X122208814Y-103526334D01*
X122208817Y-103526322D01*
X122209129Y-103525657D01*
X122209469Y-103525269D01*
X122212605Y-103520187D01*
X122213473Y-103520722D01*
X122255299Y-103473216D01*
X122322491Y-103454060D01*
X122389373Y-103474272D01*
X122409195Y-103490375D01*
X122551179Y-103632359D01*
X122725701Y-103759157D01*
X122917911Y-103857092D01*
X123123074Y-103923754D01*
X123202973Y-103936408D01*
X123336134Y-103957500D01*
X123336139Y-103957500D01*
X123551866Y-103957500D01*
X123670230Y-103938752D01*
X123764926Y-103923754D01*
X123970089Y-103857092D01*
X124162299Y-103759157D01*
X124336821Y-103632359D01*
X124408186Y-103560994D01*
X128467357Y-103560994D01*
X128467357Y-103561005D01*
X128487890Y-103808812D01*
X128487892Y-103808824D01*
X128548936Y-104049881D01*
X128648826Y-104277606D01*
X128784833Y-104485782D01*
X128784836Y-104485785D01*
X128953256Y-104668738D01*
X129149491Y-104821474D01*
X129149493Y-104821475D01*
X129326007Y-104917000D01*
X129368190Y-104939828D01*
X129603386Y-105020571D01*
X129848665Y-105061500D01*
X130097335Y-105061500D01*
X130342614Y-105020571D01*
X130577810Y-104939828D01*
X130796509Y-104821474D01*
X130992744Y-104668738D01*
X131161164Y-104485785D01*
X131297173Y-104277607D01*
X131397063Y-104049881D01*
X131458108Y-103808821D01*
X131458863Y-103799710D01*
X131478643Y-103561005D01*
X131478643Y-103560994D01*
X134967357Y-103560994D01*
X134967357Y-103561005D01*
X134987890Y-103808812D01*
X134987892Y-103808824D01*
X135048936Y-104049881D01*
X135148826Y-104277606D01*
X135284833Y-104485782D01*
X135284836Y-104485785D01*
X135453256Y-104668738D01*
X135649491Y-104821474D01*
X135649493Y-104821475D01*
X135826007Y-104917000D01*
X135868190Y-104939828D01*
X136103386Y-105020571D01*
X136348665Y-105061500D01*
X136597335Y-105061500D01*
X136842614Y-105020571D01*
X137077810Y-104939828D01*
X137296509Y-104821474D01*
X137492744Y-104668738D01*
X137661164Y-104485785D01*
X137797173Y-104277607D01*
X137897063Y-104049881D01*
X137958108Y-103808821D01*
X137958863Y-103799710D01*
X137978643Y-103561005D01*
X137978643Y-103560994D01*
X137958109Y-103313187D01*
X137958107Y-103313175D01*
X137897063Y-103072118D01*
X137797173Y-102844393D01*
X137661166Y-102636217D01*
X137622803Y-102594544D01*
X137492744Y-102453262D01*
X137296509Y-102300526D01*
X137296507Y-102300525D01*
X137296506Y-102300524D01*
X137077811Y-102182172D01*
X137077802Y-102182169D01*
X136842616Y-102101429D01*
X136597335Y-102060500D01*
X136348665Y-102060500D01*
X136103383Y-102101429D01*
X135868197Y-102182169D01*
X135868188Y-102182172D01*
X135649493Y-102300524D01*
X135453257Y-102453261D01*
X135284833Y-102636217D01*
X135148826Y-102844393D01*
X135048936Y-103072118D01*
X134987892Y-103313175D01*
X134987890Y-103313187D01*
X134967357Y-103560994D01*
X131478643Y-103560994D01*
X131458109Y-103313187D01*
X131458107Y-103313175D01*
X131397063Y-103072118D01*
X131297173Y-102844393D01*
X131161166Y-102636217D01*
X131122803Y-102594544D01*
X130992744Y-102453262D01*
X130796509Y-102300526D01*
X130796507Y-102300525D01*
X130796506Y-102300524D01*
X130577811Y-102182172D01*
X130577802Y-102182169D01*
X130342616Y-102101429D01*
X130097335Y-102060500D01*
X129848665Y-102060500D01*
X129603383Y-102101429D01*
X129368197Y-102182169D01*
X129368188Y-102182172D01*
X129149493Y-102300524D01*
X128953257Y-102453261D01*
X128784833Y-102636217D01*
X128648826Y-102844393D01*
X128548936Y-103072118D01*
X128487892Y-103313175D01*
X128487890Y-103313187D01*
X128467357Y-103560994D01*
X124408186Y-103560994D01*
X124489359Y-103479821D01*
X124616157Y-103305299D01*
X124714092Y-103113089D01*
X124780754Y-102907926D01*
X124797671Y-102801116D01*
X124814500Y-102694866D01*
X124814500Y-102029133D01*
X124785172Y-101843971D01*
X124780754Y-101816074D01*
X124714092Y-101610911D01*
X124694716Y-101572883D01*
X145904000Y-101572883D01*
X145904000Y-101937000D01*
X146704000Y-101937000D01*
X146704000Y-102437000D01*
X145904000Y-102437000D01*
X145904000Y-102801116D01*
X145939704Y-103026544D01*
X146010230Y-103243604D01*
X146113849Y-103446966D01*
X146248004Y-103631614D01*
X146409385Y-103792995D01*
X146594033Y-103927150D01*
X146797395Y-104030769D01*
X147014455Y-104101295D01*
X147104000Y-104115478D01*
X147104000Y-103287001D01*
X147164402Y-103312021D01*
X147289981Y-103337000D01*
X147418019Y-103337000D01*
X147543598Y-103312021D01*
X147604000Y-103287001D01*
X147604000Y-104115477D01*
X147693544Y-104101295D01*
X147910604Y-104030769D01*
X148113966Y-103927150D01*
X148298614Y-103792995D01*
X148459995Y-103631614D01*
X148594150Y-103446966D01*
X148697769Y-103243604D01*
X148768295Y-103026544D01*
X148804000Y-102801116D01*
X148804000Y-102437000D01*
X148004000Y-102437000D01*
X148004000Y-101937000D01*
X148804000Y-101937000D01*
X148804000Y-101586999D01*
X149269073Y-101586999D01*
X149269073Y-101587000D01*
X149288737Y-101799216D01*
X149288738Y-101799219D01*
X149347058Y-102004196D01*
X149347066Y-102004216D01*
X149442060Y-102194990D01*
X149450834Y-102206609D01*
X149450835Y-102206609D01*
X149981861Y-101675584D01*
X150004667Y-101760694D01*
X150063910Y-101863306D01*
X150147694Y-101947090D01*
X150250306Y-102006333D01*
X150335414Y-102029137D01*
X149806991Y-102557559D01*
X149909204Y-102620847D01*
X149909208Y-102620849D01*
X150107936Y-102697836D01*
X150107941Y-102697837D01*
X150317439Y-102737000D01*
X150530561Y-102737000D01*
X150740058Y-102697837D01*
X150740063Y-102697836D01*
X150938791Y-102620849D01*
X150938798Y-102620846D01*
X151041006Y-102557560D01*
X151041006Y-102557559D01*
X150512585Y-102029137D01*
X150597694Y-102006333D01*
X150700306Y-101947090D01*
X150784090Y-101863306D01*
X150843333Y-101760694D01*
X150866138Y-101675585D01*
X151397163Y-102206610D01*
X151405935Y-102194996D01*
X151405938Y-102194991D01*
X151500935Y-102004211D01*
X151500938Y-102004203D01*
X151554472Y-101816047D01*
X151591751Y-101756953D01*
X151655061Y-101727395D01*
X151724300Y-101736757D01*
X151777487Y-101782066D01*
X151793005Y-101816045D01*
X151846596Y-102004392D01*
X151846596Y-102004394D01*
X151941632Y-102195253D01*
X152022954Y-102302939D01*
X152070128Y-102365407D01*
X152227698Y-102509052D01*
X152408981Y-102621298D01*
X152607802Y-102698321D01*
X152817390Y-102737500D01*
X152817392Y-102737500D01*
X153030608Y-102737500D01*
X153030610Y-102737500D01*
X153240198Y-102698321D01*
X153439019Y-102621298D01*
X153620302Y-102509052D01*
X153777872Y-102365407D01*
X153825046Y-102302938D01*
X153881155Y-102261303D01*
X153950867Y-102256612D01*
X154012049Y-102290354D01*
X154022953Y-102302938D01*
X154070128Y-102365407D01*
X154227698Y-102509052D01*
X154408981Y-102621298D01*
X154607802Y-102698321D01*
X154817390Y-102737500D01*
X154817392Y-102737500D01*
X155030608Y-102737500D01*
X155030610Y-102737500D01*
X155240198Y-102698321D01*
X155439019Y-102621298D01*
X155620302Y-102509052D01*
X155777872Y-102365407D01*
X155906366Y-102195255D01*
X155906498Y-102194990D01*
X156001403Y-102004394D01*
X156001403Y-102004392D01*
X156001405Y-102004389D01*
X156030235Y-101903063D01*
X156067513Y-101843971D01*
X156130823Y-101814414D01*
X156200062Y-101823776D01*
X156253249Y-101869086D01*
X156273496Y-101935957D01*
X156273500Y-101936999D01*
X156273500Y-102284869D01*
X156273501Y-102284876D01*
X156279908Y-102344483D01*
X156330202Y-102479328D01*
X156330206Y-102479335D01*
X156416452Y-102594544D01*
X156416455Y-102594547D01*
X156531664Y-102680793D01*
X156531671Y-102680797D01*
X156666517Y-102731091D01*
X156666516Y-102731091D01*
X156673444Y-102731835D01*
X156726127Y-102737500D01*
X158121872Y-102737499D01*
X158181483Y-102731091D01*
X158316331Y-102680796D01*
X158431546Y-102594546D01*
X158517796Y-102479331D01*
X158568091Y-102344483D01*
X158574500Y-102284873D01*
X158574499Y-101572883D01*
X159044000Y-101572883D01*
X159044000Y-101937000D01*
X159844000Y-101937000D01*
X159844000Y-102437000D01*
X159044000Y-102437000D01*
X159044000Y-102801116D01*
X159079704Y-103026544D01*
X159150230Y-103243604D01*
X159253849Y-103446966D01*
X159388004Y-103631614D01*
X159549385Y-103792995D01*
X159734033Y-103927150D01*
X159937395Y-104030769D01*
X160154455Y-104101295D01*
X160244000Y-104115478D01*
X160244000Y-103287001D01*
X160304402Y-103312021D01*
X160429981Y-103337000D01*
X160558019Y-103337000D01*
X160683598Y-103312021D01*
X160744000Y-103287001D01*
X160744000Y-104115477D01*
X160833544Y-104101295D01*
X161050604Y-104030769D01*
X161253966Y-103927150D01*
X161438614Y-103792995D01*
X161599995Y-103631614D01*
X161734150Y-103446966D01*
X161837769Y-103243604D01*
X161908295Y-103026544D01*
X161944000Y-102801116D01*
X161944000Y-102437000D01*
X161144000Y-102437000D01*
X161144000Y-101937000D01*
X161944000Y-101937000D01*
X161944000Y-101572883D01*
X161908295Y-101347455D01*
X161837769Y-101130395D01*
X161734150Y-100927033D01*
X161599995Y-100742385D01*
X161438614Y-100581004D01*
X161253966Y-100446849D01*
X161050602Y-100343229D01*
X160833541Y-100272703D01*
X160744000Y-100258521D01*
X160744000Y-101086998D01*
X160683598Y-101061979D01*
X160558019Y-101037000D01*
X160429981Y-101037000D01*
X160304402Y-101061979D01*
X160244000Y-101086998D01*
X160244000Y-100258521D01*
X160243999Y-100258521D01*
X160154458Y-100272703D01*
X159937397Y-100343229D01*
X159734033Y-100446849D01*
X159549385Y-100581004D01*
X159388004Y-100742385D01*
X159253849Y-100927033D01*
X159150230Y-101130395D01*
X159079704Y-101347455D01*
X159044000Y-101572883D01*
X158574499Y-101572883D01*
X158574499Y-100889128D01*
X158568091Y-100829517D01*
X158557173Y-100800245D01*
X158517797Y-100694671D01*
X158517793Y-100694664D01*
X158431547Y-100579455D01*
X158431544Y-100579452D01*
X158316335Y-100493206D01*
X158316328Y-100493202D01*
X158181482Y-100442908D01*
X158181483Y-100442908D01*
X158121883Y-100436501D01*
X158121881Y-100436500D01*
X158121873Y-100436500D01*
X158121864Y-100436500D01*
X156726129Y-100436500D01*
X156726123Y-100436501D01*
X156666516Y-100442908D01*
X156531671Y-100493202D01*
X156531664Y-100493206D01*
X156416455Y-100579452D01*
X156416452Y-100579455D01*
X156330206Y-100694664D01*
X156330202Y-100694671D01*
X156279908Y-100829517D01*
X156273501Y-100889116D01*
X156273501Y-100889123D01*
X156273500Y-100889135D01*
X156273500Y-101236999D01*
X156253815Y-101304038D01*
X156201011Y-101349793D01*
X156131853Y-101359737D01*
X156068297Y-101330712D01*
X156030523Y-101271934D01*
X156030234Y-101270934D01*
X156027728Y-101262125D01*
X156001405Y-101169611D01*
X156001403Y-101169606D01*
X156001403Y-101169605D01*
X155906367Y-100978746D01*
X155777872Y-100808593D01*
X155732881Y-100767578D01*
X155620302Y-100664948D01*
X155573803Y-100636157D01*
X155517582Y-100601346D01*
X155470947Y-100549318D01*
X155459843Y-100480336D01*
X155487796Y-100416302D01*
X155495167Y-100408250D01*
X156989767Y-98913652D01*
X157000802Y-98897137D01*
X157001765Y-98895695D01*
X157017208Y-98876868D01*
X157132172Y-98761906D01*
X157228145Y-98609166D01*
X157287724Y-98438899D01*
X157294941Y-98374845D01*
X157307921Y-98259647D01*
X157307921Y-98259640D01*
X157287725Y-98080394D01*
X157287724Y-98080389D01*
X157228144Y-97910120D01*
X157132171Y-97757381D01*
X157004618Y-97629828D01*
X156851879Y-97533855D01*
X156681610Y-97474275D01*
X156681605Y-97474274D01*
X156502360Y-97454079D01*
X156502352Y-97454079D01*
X156323106Y-97474274D01*
X156323101Y-97474275D01*
X156152832Y-97533855D01*
X156000093Y-97629828D01*
X155872540Y-97757381D01*
X155776567Y-97910120D01*
X155716987Y-98080389D01*
X155716986Y-98080394D01*
X155696791Y-98259640D01*
X155696791Y-98259647D01*
X155707536Y-98355018D01*
X155695481Y-98423840D01*
X155671997Y-98456582D01*
X154116432Y-100012147D01*
X154055109Y-100045632D01*
X154042637Y-100047686D01*
X153998745Y-100052632D01*
X153828478Y-100112210D01*
X153675737Y-100208184D01*
X153548184Y-100335737D01*
X153471590Y-100457637D01*
X153419255Y-100503928D01*
X153350202Y-100514576D01*
X153321803Y-100507292D01*
X153240202Y-100475680D01*
X153240199Y-100475679D01*
X153240198Y-100475679D01*
X153030610Y-100436500D01*
X152817390Y-100436500D01*
X152607802Y-100475679D01*
X152607799Y-100475679D01*
X152607799Y-100475680D01*
X152408982Y-100552701D01*
X152408980Y-100552702D01*
X152227699Y-100664947D01*
X152070127Y-100808593D01*
X151941632Y-100978746D01*
X151846596Y-101169605D01*
X151846596Y-101169607D01*
X151793005Y-101357954D01*
X151755725Y-101417047D01*
X151692415Y-101446604D01*
X151623176Y-101437242D01*
X151569990Y-101391931D01*
X151554472Y-101357952D01*
X151500938Y-101169796D01*
X151500933Y-101169783D01*
X151405940Y-100979010D01*
X151397163Y-100967388D01*
X150866137Y-101498414D01*
X150843333Y-101413306D01*
X150784090Y-101310694D01*
X150700306Y-101226910D01*
X150597694Y-101167667D01*
X150512584Y-101144861D01*
X151041007Y-100616439D01*
X150938793Y-100553151D01*
X150938789Y-100553149D01*
X150740063Y-100476163D01*
X150740058Y-100476162D01*
X150530561Y-100437000D01*
X150317439Y-100437000D01*
X150107941Y-100476162D01*
X150107936Y-100476163D01*
X149909210Y-100553149D01*
X149909201Y-100553154D01*
X149806992Y-100616438D01*
X149806991Y-100616439D01*
X150335415Y-101144861D01*
X150250306Y-101167667D01*
X150147694Y-101226910D01*
X150063910Y-101310694D01*
X150004667Y-101413306D01*
X149981861Y-101498415D01*
X149450835Y-100967389D01*
X149442056Y-100979015D01*
X149347066Y-101169783D01*
X149347058Y-101169803D01*
X149288738Y-101374780D01*
X149288737Y-101374783D01*
X149269073Y-101586999D01*
X148804000Y-101586999D01*
X148804000Y-101572883D01*
X148768295Y-101347455D01*
X148697769Y-101130395D01*
X148594150Y-100927033D01*
X148459995Y-100742385D01*
X148298614Y-100581004D01*
X148113966Y-100446849D01*
X147910602Y-100343229D01*
X147693541Y-100272703D01*
X147604000Y-100258521D01*
X147604000Y-101086998D01*
X147543598Y-101061979D01*
X147418019Y-101037000D01*
X147289981Y-101037000D01*
X147164402Y-101061979D01*
X147104000Y-101086998D01*
X147104000Y-100258521D01*
X147103999Y-100258521D01*
X147014458Y-100272703D01*
X146797397Y-100343229D01*
X146594033Y-100446849D01*
X146409385Y-100581004D01*
X146248004Y-100742385D01*
X146113849Y-100927033D01*
X146010230Y-101130395D01*
X145939704Y-101347455D01*
X145904000Y-101572883D01*
X124694716Y-101572883D01*
X124616157Y-101418701D01*
X124489359Y-101244179D01*
X124336821Y-101091641D01*
X124162299Y-100964843D01*
X123970089Y-100866908D01*
X123764926Y-100800246D01*
X123764924Y-100800245D01*
X123764922Y-100800245D01*
X123551866Y-100766500D01*
X123551861Y-100766500D01*
X123336139Y-100766500D01*
X123336134Y-100766500D01*
X123123077Y-100800245D01*
X122917908Y-100866909D01*
X122725700Y-100964843D01*
X122551180Y-101091640D01*
X122409195Y-101233625D01*
X122347872Y-101267109D01*
X122278180Y-101262125D01*
X122222247Y-101220253D01*
X122209132Y-101198348D01*
X122208815Y-101197669D01*
X122208814Y-101197668D01*
X122208814Y-101197666D01*
X122116712Y-101048344D01*
X121992656Y-100924288D01*
X121843334Y-100832186D01*
X121676797Y-100777001D01*
X121676795Y-100777000D01*
X121574010Y-100766500D01*
X120233998Y-100766500D01*
X120233981Y-100766501D01*
X120131203Y-100777000D01*
X120131200Y-100777001D01*
X119964668Y-100832185D01*
X119964663Y-100832187D01*
X119815342Y-100924289D01*
X119691289Y-101048342D01*
X119599187Y-101197663D01*
X119599185Y-101197668D01*
X119574907Y-101270934D01*
X119544001Y-101364203D01*
X119544001Y-101364204D01*
X119544000Y-101364204D01*
X119533500Y-101466983D01*
X110616217Y-101466983D01*
X110536191Y-101386957D01*
X110502706Y-101325634D01*
X110500652Y-101285394D01*
X110502405Y-101269841D01*
X110487438Y-101137000D01*
X110482209Y-101090591D01*
X110482208Y-101090586D01*
X110463457Y-101037000D01*
X110422629Y-100920319D01*
X110403030Y-100889128D01*
X110332576Y-100777001D01*
X110326656Y-100767579D01*
X110199102Y-100640025D01*
X110105171Y-100581004D01*
X110046363Y-100544052D01*
X109876094Y-100484472D01*
X109876089Y-100484471D01*
X109696844Y-100464276D01*
X109696836Y-100464276D01*
X109517590Y-100484471D01*
X109517585Y-100484472D01*
X109347316Y-100544052D01*
X109194577Y-100640025D01*
X109067024Y-100767578D01*
X108971051Y-100920317D01*
X108911471Y-101090586D01*
X108911470Y-101090591D01*
X108891275Y-101269837D01*
X73398500Y-101269837D01*
X73398500Y-99186996D01*
X97746435Y-99186996D01*
X97746435Y-99187003D01*
X97766630Y-99366249D01*
X97766631Y-99366254D01*
X97826211Y-99536523D01*
X97922184Y-99689262D01*
X98049738Y-99816816D01*
X98202478Y-99912789D01*
X98304417Y-99948459D01*
X98372745Y-99972368D01*
X98372750Y-99972369D01*
X98551996Y-99992565D01*
X98552000Y-99992565D01*
X98552004Y-99992565D01*
X98731249Y-99972369D01*
X98731251Y-99972368D01*
X98731255Y-99972368D01*
X98731258Y-99972366D01*
X98731262Y-99972366D01*
X98799585Y-99948459D01*
X98840540Y-99941500D01*
X100930460Y-99941500D01*
X100971415Y-99948459D01*
X101039737Y-99972366D01*
X101039743Y-99972367D01*
X101039745Y-99972368D01*
X101039746Y-99972368D01*
X101039750Y-99972369D01*
X101218996Y-99992565D01*
X101219000Y-99992565D01*
X101219004Y-99992565D01*
X101398249Y-99972369D01*
X101398252Y-99972368D01*
X101398255Y-99972368D01*
X101568522Y-99912789D01*
X101721262Y-99816816D01*
X101848816Y-99689262D01*
X101944789Y-99536522D01*
X102004368Y-99366255D01*
X102004369Y-99366249D01*
X102024565Y-99187003D01*
X102024565Y-99186996D01*
X102004369Y-99007750D01*
X102004368Y-99007745D01*
X101971443Y-98913652D01*
X101944789Y-98837478D01*
X101925008Y-98805996D01*
X126829435Y-98805996D01*
X126829435Y-98806003D01*
X126849630Y-98985249D01*
X126849631Y-98985254D01*
X126909211Y-99155523D01*
X126983433Y-99273645D01*
X127005184Y-99308262D01*
X127132738Y-99435816D01*
X127198320Y-99477024D01*
X127266943Y-99520143D01*
X127285478Y-99531789D01*
X127455745Y-99591368D01*
X127455750Y-99591369D01*
X127634996Y-99611565D01*
X127635000Y-99611565D01*
X127635004Y-99611565D01*
X127814249Y-99591369D01*
X127814252Y-99591368D01*
X127814255Y-99591368D01*
X127984522Y-99531789D01*
X127993417Y-99526199D01*
X128003057Y-99520143D01*
X128069029Y-99501137D01*
X136773167Y-99501137D01*
X136773168Y-99501136D01*
X136894398Y-99477023D01*
X136975147Y-99443574D01*
X137008596Y-99429720D01*
X137111371Y-99361048D01*
X137198774Y-99273645D01*
X138578584Y-97893834D01*
X138639905Y-97860351D01*
X138709597Y-97865335D01*
X138765530Y-97907207D01*
X138789947Y-97972671D01*
X138789484Y-97995397D01*
X138786113Y-98025322D01*
X138786113Y-98025325D01*
X138806308Y-98204571D01*
X138806309Y-98204576D01*
X138865889Y-98374845D01*
X138906137Y-98438899D01*
X138961862Y-98527584D01*
X139089416Y-98655138D01*
X139242156Y-98751111D01*
X139399008Y-98805996D01*
X139412423Y-98810690D01*
X139412428Y-98810691D01*
X139591674Y-98830887D01*
X139591678Y-98830887D01*
X139591682Y-98830887D01*
X139770927Y-98810691D01*
X139770930Y-98810690D01*
X139770933Y-98810690D01*
X139941200Y-98751111D01*
X140093940Y-98655138D01*
X140221494Y-98527584D01*
X140317467Y-98374844D01*
X140377046Y-98204577D01*
X140380531Y-98173648D01*
X140397243Y-98025325D01*
X140397243Y-98025318D01*
X140377047Y-97846072D01*
X140377046Y-97846067D01*
X140317467Y-97675800D01*
X140317046Y-97674926D01*
X140316943Y-97674304D01*
X140315167Y-97669227D01*
X140316056Y-97668915D01*
X140305692Y-97605985D01*
X140333413Y-97541850D01*
X140387810Y-97504079D01*
X140446912Y-97483399D01*
X140599652Y-97387426D01*
X140727206Y-97259872D01*
X140823179Y-97107132D01*
X140882758Y-96936865D01*
X140884111Y-96924859D01*
X140902955Y-96757613D01*
X140902955Y-96757606D01*
X140882759Y-96578360D01*
X140882758Y-96578355D01*
X140860535Y-96514845D01*
X140823179Y-96408088D01*
X140810111Y-96387291D01*
X140727205Y-96255347D01*
X140661959Y-96190101D01*
X140628474Y-96128778D01*
X140633458Y-96059086D01*
X140644639Y-96036461D01*
X140679789Y-95980522D01*
X140696865Y-95931719D01*
X140737586Y-95874946D01*
X140802538Y-95849198D01*
X140867845Y-95862015D01*
X140868205Y-95861269D01*
X140871067Y-95862647D01*
X140871100Y-95862654D01*
X140871200Y-95862711D01*
X140874470Y-95864286D01*
X140874477Y-95864288D01*
X140874478Y-95864289D01*
X140904934Y-95874946D01*
X141044745Y-95923868D01*
X141044750Y-95923869D01*
X141223996Y-95944065D01*
X141224000Y-95944065D01*
X141224004Y-95944065D01*
X141403249Y-95923869D01*
X141403252Y-95923868D01*
X141403255Y-95923868D01*
X141573522Y-95864289D01*
X141726262Y-95768316D01*
X141853816Y-95640762D01*
X141949789Y-95488022D01*
X142009368Y-95317755D01*
X142009369Y-95317749D01*
X142029565Y-95138503D01*
X142029565Y-95138496D01*
X142009369Y-94959250D01*
X142009368Y-94959245D01*
X141962546Y-94825435D01*
X141949789Y-94788978D01*
X141870505Y-94662799D01*
X141851500Y-94596828D01*
X141851500Y-94151196D01*
X141851499Y-94151195D01*
X141839694Y-94091843D01*
X141827386Y-94029965D01*
X141788584Y-93936291D01*
X141780083Y-93915767D01*
X141731273Y-93842718D01*
X141711414Y-93812996D01*
X141711413Y-93812994D01*
X141679814Y-93781395D01*
X141624008Y-93725589D01*
X141033852Y-93135433D01*
X141000367Y-93074110D01*
X140998314Y-93061648D01*
X140993368Y-93017745D01*
X140933789Y-92847478D01*
X140837816Y-92694738D01*
X140710262Y-92567184D01*
X140557523Y-92471211D01*
X140387254Y-92411631D01*
X140387249Y-92411630D01*
X140208004Y-92391435D01*
X140207996Y-92391435D01*
X140028750Y-92411630D01*
X140028745Y-92411631D01*
X139858476Y-92471211D01*
X139705737Y-92567184D01*
X139578184Y-92694737D01*
X139482211Y-92847476D01*
X139422631Y-93017745D01*
X139422630Y-93017750D01*
X139402435Y-93196996D01*
X139402435Y-93197003D01*
X139422630Y-93376249D01*
X139422631Y-93376254D01*
X139482211Y-93546523D01*
X139578184Y-93699262D01*
X139705738Y-93826816D01*
X139731046Y-93842718D01*
X139847302Y-93915767D01*
X139858478Y-93922789D01*
X140028745Y-93982368D01*
X140072635Y-93987313D01*
X140137048Y-94014378D01*
X140146433Y-94022852D01*
X140560181Y-94436600D01*
X140593666Y-94497923D01*
X140596500Y-94524281D01*
X140596500Y-94596828D01*
X140577494Y-94662800D01*
X140498209Y-94788980D01*
X140481134Y-94837778D01*
X140440413Y-94894554D01*
X140375460Y-94920301D01*
X140310153Y-94907483D01*
X140309794Y-94908231D01*
X140306928Y-94906850D01*
X140306898Y-94906845D01*
X140306802Y-94906790D01*
X140303521Y-94905210D01*
X140133262Y-94845633D01*
X140133249Y-94845630D01*
X139954004Y-94825435D01*
X139953996Y-94825435D01*
X139774750Y-94845630D01*
X139774745Y-94845631D01*
X139604476Y-94905211D01*
X139451737Y-95001184D01*
X139324184Y-95128737D01*
X139228210Y-95281478D01*
X139168632Y-95451745D01*
X139163686Y-95495637D01*
X139136618Y-95560051D01*
X139128147Y-95569432D01*
X136487763Y-98209818D01*
X136426440Y-98243303D01*
X136400082Y-98246137D01*
X133452959Y-98246137D01*
X133385920Y-98226452D01*
X133340165Y-98173648D01*
X133329739Y-98136020D01*
X133322006Y-98067387D01*
X133322005Y-98067385D01*
X133322005Y-98067382D01*
X133262426Y-97897115D01*
X133183142Y-97770936D01*
X133164137Y-97704965D01*
X133164137Y-97422831D01*
X133140023Y-97301607D01*
X133140022Y-97301606D01*
X133140022Y-97301602D01*
X133122737Y-97259872D01*
X133092723Y-97187410D01*
X133092716Y-97187397D01*
X133024049Y-97084630D01*
X133024048Y-97084629D01*
X132936645Y-96997226D01*
X132894959Y-96955540D01*
X132861474Y-96894217D01*
X132859421Y-96881755D01*
X132854475Y-96837852D01*
X132794896Y-96667585D01*
X132698923Y-96514845D01*
X132571369Y-96387291D01*
X132418630Y-96291318D01*
X132248361Y-96231738D01*
X132248356Y-96231737D01*
X132069111Y-96211542D01*
X132069103Y-96211542D01*
X131889857Y-96231737D01*
X131889852Y-96231738D01*
X131719583Y-96291318D01*
X131566844Y-96387291D01*
X131439291Y-96514844D01*
X131343318Y-96667583D01*
X131283738Y-96837852D01*
X131283737Y-96837857D01*
X131263542Y-97017103D01*
X131263542Y-97017110D01*
X131283737Y-97196356D01*
X131283738Y-97196361D01*
X131343318Y-97366630D01*
X131429684Y-97504079D01*
X131439291Y-97519369D01*
X131566845Y-97646923D01*
X131719585Y-97742896D01*
X131731925Y-97747214D01*
X131788701Y-97787933D01*
X131814451Y-97852885D01*
X131808015Y-97905210D01*
X131751267Y-98067387D01*
X131743535Y-98136020D01*
X131716469Y-98200434D01*
X131658874Y-98239989D01*
X131620315Y-98246137D01*
X128258577Y-98246137D01*
X128191538Y-98226452D01*
X128170896Y-98209818D01*
X128137262Y-98176184D01*
X127984523Y-98080211D01*
X127814254Y-98020631D01*
X127814249Y-98020630D01*
X127635004Y-98000435D01*
X127634996Y-98000435D01*
X127455750Y-98020630D01*
X127455745Y-98020631D01*
X127285476Y-98080211D01*
X127132737Y-98176184D01*
X127005184Y-98303737D01*
X126909211Y-98456476D01*
X126849631Y-98626745D01*
X126849630Y-98626750D01*
X126829435Y-98805996D01*
X101925008Y-98805996D01*
X101848816Y-98684738D01*
X101721262Y-98557184D01*
X101674154Y-98527584D01*
X101568523Y-98461211D01*
X101398254Y-98401631D01*
X101398249Y-98401630D01*
X101219004Y-98381435D01*
X101218996Y-98381435D01*
X101039750Y-98401630D01*
X101039737Y-98401633D01*
X100971415Y-98425541D01*
X100930460Y-98432500D01*
X98840540Y-98432500D01*
X98799585Y-98425541D01*
X98731262Y-98401633D01*
X98731249Y-98401630D01*
X98552004Y-98381435D01*
X98551996Y-98381435D01*
X98372750Y-98401630D01*
X98372745Y-98401631D01*
X98202476Y-98461211D01*
X98049737Y-98557184D01*
X97922184Y-98684737D01*
X97826211Y-98837476D01*
X97766631Y-99007745D01*
X97766630Y-99007750D01*
X97746435Y-99186996D01*
X73398500Y-99186996D01*
X73398500Y-93089496D01*
X125178435Y-93089496D01*
X125178435Y-93089503D01*
X125198630Y-93268749D01*
X125198631Y-93268754D01*
X125258211Y-93439024D01*
X125337493Y-93565198D01*
X125356500Y-93631171D01*
X125356500Y-94128125D01*
X125380612Y-94249345D01*
X125380614Y-94249353D01*
X125414062Y-94330103D01*
X125427915Y-94363547D01*
X125427920Y-94363556D01*
X125468593Y-94424427D01*
X125468594Y-94424428D01*
X125496590Y-94466328D01*
X125813487Y-94783225D01*
X125846972Y-94844548D01*
X125849026Y-94857020D01*
X125853971Y-94900908D01*
X125913551Y-95071180D01*
X125949717Y-95128737D01*
X126009525Y-95223921D01*
X126137079Y-95351475D01*
X126289819Y-95447448D01*
X126405773Y-95488022D01*
X126460086Y-95507027D01*
X126460091Y-95507028D01*
X126639337Y-95527224D01*
X126639341Y-95527224D01*
X126639345Y-95527224D01*
X126818590Y-95507028D01*
X126818593Y-95507027D01*
X126818596Y-95507027D01*
X126988863Y-95447448D01*
X127141603Y-95351475D01*
X127269157Y-95223921D01*
X127365130Y-95071181D01*
X127424709Y-94900914D01*
X127431823Y-94837778D01*
X127444906Y-94721662D01*
X127444906Y-94721655D01*
X127424710Y-94542409D01*
X127424709Y-94542404D01*
X127398088Y-94466326D01*
X127365130Y-94372137D01*
X127269157Y-94219397D01*
X127141603Y-94091843D01*
X127043125Y-94029965D01*
X126988862Y-93995869D01*
X126818590Y-93936289D01*
X126774702Y-93931344D01*
X126710288Y-93904276D01*
X126700906Y-93895805D01*
X126647819Y-93842718D01*
X126614334Y-93781395D01*
X126611500Y-93755037D01*
X126611500Y-93631171D01*
X126630507Y-93565198D01*
X126642242Y-93546523D01*
X126709789Y-93439022D01*
X126769368Y-93268755D01*
X126769369Y-93268749D01*
X126789565Y-93089503D01*
X126789565Y-93089496D01*
X126769369Y-92910250D01*
X126769368Y-92910245D01*
X126709788Y-92739976D01*
X126613815Y-92587237D01*
X126486262Y-92459684D01*
X126333523Y-92363711D01*
X126163254Y-92304131D01*
X126163249Y-92304130D01*
X125984004Y-92283935D01*
X125983996Y-92283935D01*
X125804750Y-92304130D01*
X125804745Y-92304131D01*
X125634476Y-92363711D01*
X125481737Y-92459684D01*
X125354184Y-92587237D01*
X125258211Y-92739976D01*
X125198631Y-92910245D01*
X125198630Y-92910250D01*
X125178435Y-93089496D01*
X73398500Y-93089496D01*
X73398500Y-87629996D01*
X97555435Y-87629996D01*
X97555435Y-87630003D01*
X97575630Y-87809249D01*
X97575631Y-87809254D01*
X97635211Y-87979523D01*
X97693674Y-88072565D01*
X97731184Y-88132262D01*
X97858738Y-88259816D01*
X97885300Y-88276506D01*
X97970417Y-88329989D01*
X98011478Y-88355789D01*
X98095064Y-88385037D01*
X98181745Y-88415368D01*
X98181750Y-88415369D01*
X98360996Y-88435565D01*
X98361000Y-88435565D01*
X98361004Y-88435565D01*
X98540249Y-88415369D01*
X98540252Y-88415368D01*
X98540255Y-88415368D01*
X98710522Y-88355789D01*
X98836700Y-88276505D01*
X98902672Y-88257500D01*
X99082834Y-88257500D01*
X99149873Y-88277185D01*
X99195628Y-88329989D01*
X99204401Y-88385037D01*
X99206435Y-88385037D01*
X99206435Y-88392003D01*
X99226630Y-88571249D01*
X99226631Y-88571254D01*
X99286211Y-88741523D01*
X99363550Y-88864606D01*
X99382184Y-88894262D01*
X99509738Y-89021816D01*
X99662478Y-89117789D01*
X99832745Y-89177368D01*
X99832750Y-89177369D01*
X100011996Y-89197565D01*
X100012000Y-89197565D01*
X100012004Y-89197565D01*
X100191249Y-89177369D01*
X100191252Y-89177368D01*
X100191255Y-89177368D01*
X100361522Y-89117789D01*
X100487700Y-89038505D01*
X100553672Y-89019500D01*
X107439804Y-89019500D01*
X107439805Y-89019499D01*
X107561035Y-88995386D01*
X107641784Y-88961937D01*
X107675233Y-88948083D01*
X107746194Y-88900668D01*
X107812869Y-88879791D01*
X107856038Y-88886730D01*
X107960737Y-88923366D01*
X107960743Y-88923367D01*
X107960745Y-88923368D01*
X107960746Y-88923368D01*
X107960750Y-88923369D01*
X108139996Y-88943565D01*
X108140000Y-88943565D01*
X108140004Y-88943565D01*
X108319249Y-88923369D01*
X108319252Y-88923368D01*
X108319255Y-88923368D01*
X108489522Y-88863789D01*
X108642262Y-88767816D01*
X108769816Y-88640262D01*
X108865789Y-88487522D01*
X108925368Y-88317255D01*
X108929883Y-88277185D01*
X108945565Y-88138003D01*
X108945565Y-88137996D01*
X108925369Y-87958750D01*
X108925368Y-87958745D01*
X108909416Y-87913156D01*
X108865789Y-87788478D01*
X108769816Y-87635738D01*
X108642262Y-87508184D01*
X108489520Y-87412209D01*
X108436856Y-87393781D01*
X108380081Y-87353059D01*
X108354334Y-87288106D01*
X108367791Y-87219544D01*
X108411837Y-87171748D01*
X108499262Y-87116816D01*
X108626816Y-86989262D01*
X108722789Y-86836522D01*
X108782368Y-86666255D01*
X108782369Y-86666249D01*
X108802565Y-86487003D01*
X108802565Y-86486996D01*
X108782369Y-86307750D01*
X108782368Y-86307745D01*
X108769073Y-86269749D01*
X108722789Y-86137478D01*
X108626816Y-85984738D01*
X108499262Y-85857184D01*
X108484931Y-85848179D01*
X108346523Y-85761211D01*
X108176254Y-85701631D01*
X108176249Y-85701630D01*
X107997004Y-85681435D01*
X107996996Y-85681435D01*
X107817750Y-85701630D01*
X107817745Y-85701631D01*
X107647476Y-85761211D01*
X107494737Y-85857184D01*
X107367184Y-85984737D01*
X107271210Y-86137478D01*
X107211632Y-86307745D01*
X107206686Y-86351637D01*
X107179618Y-86416051D01*
X107171148Y-86425432D01*
X107011398Y-86585182D01*
X106950078Y-86618666D01*
X106923719Y-86621500D01*
X106165281Y-86621500D01*
X106098242Y-86601815D01*
X106077600Y-86585181D01*
X104730011Y-85237591D01*
X104730010Y-85237590D01*
X104698058Y-85216241D01*
X104698057Y-85216240D01*
X104627238Y-85168920D01*
X104627226Y-85168913D01*
X104593785Y-85155062D01*
X104513035Y-85121614D01*
X104513027Y-85121612D01*
X104391807Y-85097500D01*
X104391803Y-85097500D01*
X101037672Y-85097500D01*
X100971700Y-85078494D01*
X100845523Y-84999211D01*
X100675254Y-84939631D01*
X100675249Y-84939630D01*
X100496004Y-84919435D01*
X100495996Y-84919435D01*
X100316750Y-84939630D01*
X100316745Y-84939631D01*
X100146476Y-84999211D01*
X99993737Y-85095184D01*
X99866184Y-85222737D01*
X99770211Y-85375476D01*
X99710631Y-85545745D01*
X99710630Y-85545750D01*
X99690435Y-85724996D01*
X99690435Y-85725003D01*
X99710630Y-85904249D01*
X99710631Y-85904254D01*
X99770211Y-86074523D01*
X99858421Y-86214908D01*
X99866184Y-86227262D01*
X99993738Y-86354816D01*
X100057296Y-86394752D01*
X100106122Y-86425432D01*
X100146478Y-86450789D01*
X100249952Y-86486996D01*
X100316745Y-86510368D01*
X100316750Y-86510369D01*
X100495996Y-86530565D01*
X100496000Y-86530565D01*
X100496004Y-86530565D01*
X100675249Y-86510369D01*
X100675252Y-86510368D01*
X100675255Y-86510368D01*
X100845522Y-86450789D01*
X100971700Y-86371505D01*
X101037672Y-86352500D01*
X104018719Y-86352500D01*
X104085758Y-86372185D01*
X104106400Y-86388819D01*
X105270400Y-87552819D01*
X105303885Y-87614142D01*
X105298901Y-87683834D01*
X105257029Y-87739767D01*
X105191565Y-87764184D01*
X105182719Y-87764500D01*
X101195166Y-87764500D01*
X101128127Y-87744815D01*
X101082372Y-87692011D01*
X101073599Y-87636963D01*
X101071565Y-87636963D01*
X101071565Y-87629996D01*
X101051369Y-87450750D01*
X101051368Y-87450745D01*
X101031435Y-87393781D01*
X100991789Y-87280478D01*
X100983377Y-87267091D01*
X100949257Y-87212789D01*
X100895816Y-87127738D01*
X100768262Y-87000184D01*
X100741700Y-86983494D01*
X100615523Y-86904211D01*
X100445254Y-86844631D01*
X100445249Y-86844630D01*
X100266004Y-86824435D01*
X100265996Y-86824435D01*
X100086750Y-86844630D01*
X100086745Y-86844631D01*
X99916476Y-86904211D01*
X99790300Y-86983494D01*
X99724328Y-87002500D01*
X98902672Y-87002500D01*
X98836700Y-86983494D01*
X98710523Y-86904211D01*
X98540254Y-86844631D01*
X98540249Y-86844630D01*
X98361004Y-86824435D01*
X98360996Y-86824435D01*
X98181750Y-86844630D01*
X98181745Y-86844631D01*
X98011476Y-86904211D01*
X97858737Y-87000184D01*
X97731184Y-87127737D01*
X97635211Y-87280476D01*
X97575631Y-87450745D01*
X97575630Y-87450750D01*
X97555435Y-87629996D01*
X73398500Y-87629996D01*
X73398500Y-83530983D01*
X118228500Y-83530983D01*
X118228500Y-84871001D01*
X118228501Y-84871018D01*
X118239000Y-84973796D01*
X118239001Y-84973799D01*
X118294185Y-85140331D01*
X118294187Y-85140336D01*
X118311816Y-85168917D01*
X118386288Y-85289656D01*
X118510344Y-85413712D01*
X118659666Y-85505814D01*
X118659668Y-85505814D01*
X118659669Y-85505815D01*
X118660348Y-85506132D01*
X118660735Y-85506473D01*
X118665813Y-85509605D01*
X118665277Y-85510472D01*
X118712787Y-85552304D01*
X118731939Y-85619498D01*
X118711723Y-85686379D01*
X118695625Y-85706195D01*
X118553640Y-85848180D01*
X118426843Y-86022700D01*
X118328909Y-86214908D01*
X118262245Y-86420077D01*
X118228500Y-86633133D01*
X118228500Y-86848866D01*
X118262245Y-87061922D01*
X118262246Y-87061926D01*
X118313830Y-87220685D01*
X118328909Y-87267091D01*
X118387042Y-87381184D01*
X118426843Y-87459299D01*
X118553641Y-87633821D01*
X118706179Y-87786359D01*
X118880701Y-87913157D01*
X119072911Y-88011092D01*
X119278074Y-88077754D01*
X119357973Y-88090408D01*
X119491134Y-88111500D01*
X119491139Y-88111500D01*
X120156866Y-88111500D01*
X120275230Y-88092752D01*
X120369926Y-88077754D01*
X120575089Y-88011092D01*
X120767299Y-87913157D01*
X120941821Y-87786359D01*
X121094359Y-87633821D01*
X121221157Y-87459299D01*
X121319092Y-87267089D01*
X121385754Y-87061926D01*
X121400752Y-86967230D01*
X121419500Y-86848866D01*
X121419500Y-86633133D01*
X121395166Y-86479500D01*
X121385754Y-86420074D01*
X121319092Y-86214911D01*
X121221157Y-86022701D01*
X121094359Y-85848179D01*
X120952375Y-85706195D01*
X120918890Y-85644872D01*
X120923874Y-85575180D01*
X120965746Y-85519247D01*
X120987657Y-85506129D01*
X120988322Y-85505817D01*
X120988334Y-85505814D01*
X121137656Y-85413712D01*
X121261712Y-85289656D01*
X121353814Y-85140334D01*
X121408999Y-84973797D01*
X121419500Y-84871009D01*
X121419499Y-83530992D01*
X121416924Y-83505789D01*
X121408999Y-83428203D01*
X121408998Y-83428200D01*
X121402906Y-83409815D01*
X121353814Y-83261666D01*
X121261712Y-83112344D01*
X121137656Y-82988288D01*
X120988334Y-82896186D01*
X120821797Y-82841001D01*
X120821795Y-82841000D01*
X120719010Y-82830500D01*
X118928998Y-82830500D01*
X118928981Y-82830501D01*
X118826203Y-82841000D01*
X118826200Y-82841001D01*
X118659668Y-82896185D01*
X118659663Y-82896187D01*
X118510342Y-82988289D01*
X118386289Y-83112342D01*
X118294187Y-83261663D01*
X118294186Y-83261666D01*
X118239001Y-83428203D01*
X118239001Y-83428204D01*
X118239000Y-83428204D01*
X118228500Y-83530983D01*
X73398500Y-83530983D01*
X73398500Y-81406996D01*
X75513435Y-81406996D01*
X75513435Y-81407003D01*
X75533630Y-81586249D01*
X75533631Y-81586254D01*
X75593211Y-81756523D01*
X75629120Y-81813671D01*
X75689184Y-81909262D01*
X75816738Y-82036816D01*
X75969478Y-82132789D01*
X76139745Y-82192368D01*
X76139750Y-82192369D01*
X76318996Y-82212565D01*
X76319000Y-82212565D01*
X76319004Y-82212565D01*
X76498249Y-82192369D01*
X76498252Y-82192368D01*
X76498255Y-82192368D01*
X76668522Y-82132789D01*
X76821262Y-82036816D01*
X76948816Y-81909262D01*
X77044789Y-81756522D01*
X77044789Y-81756520D01*
X77048494Y-81750625D01*
X77049299Y-81751131D01*
X77067382Y-81725641D01*
X77640026Y-81152996D01*
X146260435Y-81152996D01*
X146260435Y-81153003D01*
X146280630Y-81332249D01*
X146280631Y-81332254D01*
X146340211Y-81502524D01*
X146419493Y-81628698D01*
X146438500Y-81694671D01*
X146438500Y-85913807D01*
X146462612Y-86035028D01*
X146462614Y-86035034D01*
X146484136Y-86086992D01*
X146484136Y-86086993D01*
X146509915Y-86149229D01*
X146509918Y-86149235D01*
X146521676Y-86166831D01*
X146521677Y-86166834D01*
X146578585Y-86252003D01*
X146578591Y-86252011D01*
X148399146Y-88072565D01*
X148432631Y-88133888D01*
X148434685Y-88146361D01*
X148439630Y-88190249D01*
X148499210Y-88360521D01*
X148595184Y-88513262D01*
X148648770Y-88566848D01*
X148682255Y-88628171D01*
X148677271Y-88697863D01*
X148635399Y-88753796D01*
X148602045Y-88771570D01*
X148494479Y-88809209D01*
X148341737Y-88905184D01*
X148214184Y-89032737D01*
X148118211Y-89185476D01*
X148058631Y-89355745D01*
X148058630Y-89355750D01*
X148038435Y-89534996D01*
X148038435Y-89535003D01*
X148058630Y-89714249D01*
X148058631Y-89714254D01*
X148118211Y-89884523D01*
X148129566Y-89902594D01*
X148214184Y-90037262D01*
X148341738Y-90164816D01*
X148494478Y-90260789D01*
X148658152Y-90318061D01*
X148714928Y-90358783D01*
X148740675Y-90423736D01*
X148734239Y-90476055D01*
X148717833Y-90522943D01*
X148717832Y-90522947D01*
X148697636Y-90702197D01*
X148697636Y-90702204D01*
X148717831Y-90881450D01*
X148717832Y-90881455D01*
X148777412Y-91051724D01*
X148865090Y-91191262D01*
X148873385Y-91204463D01*
X149000939Y-91332017D01*
X149091281Y-91388783D01*
X149132669Y-91414789D01*
X149153679Y-91427990D01*
X149286220Y-91474368D01*
X149323946Y-91487569D01*
X149323951Y-91487570D01*
X149503197Y-91507766D01*
X149503201Y-91507766D01*
X149503205Y-91507766D01*
X149682450Y-91487570D01*
X149682453Y-91487569D01*
X149682456Y-91487569D01*
X149852723Y-91427990D01*
X150005463Y-91332017D01*
X150133017Y-91204463D01*
X150228990Y-91051723D01*
X150288569Y-90881456D01*
X150288570Y-90881450D01*
X150308766Y-90702204D01*
X150308766Y-90702197D01*
X150288570Y-90522951D01*
X150288569Y-90522946D01*
X150288568Y-90522943D01*
X150228990Y-90352679D01*
X150149706Y-90226500D01*
X150130701Y-90160529D01*
X150130701Y-90132397D01*
X150127811Y-90117869D01*
X150119141Y-90074283D01*
X150106587Y-90011166D01*
X150061613Y-89902593D01*
X150059965Y-89897987D01*
X149990615Y-89794197D01*
X149990614Y-89794195D01*
X149990612Y-89794193D01*
X149903209Y-89706790D01*
X149669852Y-89473433D01*
X149636367Y-89412110D01*
X149634314Y-89399648D01*
X149629368Y-89355745D01*
X149569789Y-89185478D01*
X149473816Y-89032738D01*
X149420229Y-88979151D01*
X149386744Y-88917828D01*
X149391728Y-88848136D01*
X149433600Y-88792203D01*
X149466956Y-88774428D01*
X149485855Y-88767815D01*
X149574522Y-88736789D01*
X149727262Y-88640816D01*
X149854816Y-88513262D01*
X149950789Y-88360522D01*
X150010368Y-88190255D01*
X150015314Y-88146361D01*
X150030565Y-88011003D01*
X150030565Y-88010996D01*
X150010369Y-87831750D01*
X150010368Y-87831745D01*
X149995228Y-87788478D01*
X149950789Y-87661478D01*
X149934615Y-87635738D01*
X149854815Y-87508737D01*
X149727262Y-87381184D01*
X149574521Y-87285210D01*
X149404249Y-87225630D01*
X149360361Y-87220685D01*
X149295947Y-87193617D01*
X149286565Y-87185146D01*
X147729819Y-85628400D01*
X147696334Y-85567077D01*
X147693500Y-85540719D01*
X147693500Y-85203352D01*
X154935435Y-85203352D01*
X154935435Y-85203359D01*
X154955630Y-85382605D01*
X154955631Y-85382610D01*
X155015211Y-85552879D01*
X155095989Y-85681435D01*
X155111184Y-85705618D01*
X155238738Y-85833172D01*
X155276953Y-85857184D01*
X155367067Y-85913807D01*
X155391478Y-85929145D01*
X155561745Y-85988724D01*
X155605635Y-85993669D01*
X155670048Y-86020734D01*
X155679433Y-86029208D01*
X156435181Y-86784956D01*
X156468666Y-86846279D01*
X156471500Y-86872637D01*
X156471500Y-90147328D01*
X156452494Y-90213300D01*
X156373211Y-90339476D01*
X156313631Y-90509745D01*
X156313630Y-90509750D01*
X156293435Y-90688996D01*
X156293435Y-90689003D01*
X156313630Y-90868249D01*
X156313631Y-90868254D01*
X156373211Y-91038523D01*
X156381506Y-91051724D01*
X156469184Y-91191262D01*
X156596738Y-91318816D01*
X156749478Y-91414789D01*
X156919745Y-91474368D01*
X156919750Y-91474369D01*
X157098996Y-91494565D01*
X157099000Y-91494565D01*
X157099004Y-91494565D01*
X157278249Y-91474369D01*
X157278252Y-91474368D01*
X157278255Y-91474368D01*
X157448522Y-91414789D01*
X157601262Y-91318816D01*
X157728816Y-91191262D01*
X157824789Y-91038522D01*
X157884368Y-90868255D01*
X157884369Y-90868249D01*
X157904565Y-90689003D01*
X157904565Y-90688996D01*
X157884369Y-90509750D01*
X157884368Y-90509745D01*
X157829408Y-90352679D01*
X157824789Y-90339478D01*
X157812781Y-90320368D01*
X157745506Y-90213300D01*
X157726500Y-90147328D01*
X157726500Y-86499550D01*
X157722512Y-86479506D01*
X157722512Y-86479501D01*
X157702387Y-86378328D01*
X157702386Y-86378321D01*
X157657412Y-86269748D01*
X157655764Y-86265142D01*
X157586414Y-86161352D01*
X157586413Y-86161350D01*
X157562539Y-86137476D01*
X157499008Y-86073945D01*
X156566852Y-85141789D01*
X156533367Y-85080466D01*
X156531314Y-85068004D01*
X156526368Y-85024101D01*
X156466789Y-84853834D01*
X156370816Y-84701094D01*
X156243262Y-84573540D01*
X156090523Y-84477567D01*
X155920254Y-84417987D01*
X155920249Y-84417986D01*
X155741004Y-84397791D01*
X155740996Y-84397791D01*
X155561750Y-84417986D01*
X155561745Y-84417987D01*
X155391476Y-84477567D01*
X155238737Y-84573540D01*
X155111184Y-84701093D01*
X155015211Y-84853832D01*
X154955631Y-85024101D01*
X154955630Y-85024106D01*
X154935435Y-85203352D01*
X147693500Y-85203352D01*
X147693500Y-82779996D01*
X148546435Y-82779996D01*
X148546435Y-82780003D01*
X148566630Y-82959249D01*
X148566631Y-82959254D01*
X148626211Y-83129523D01*
X148709241Y-83261663D01*
X148722184Y-83282262D01*
X148849738Y-83409816D01*
X149002478Y-83505789D01*
X149172745Y-83565368D01*
X149172750Y-83565369D01*
X149351996Y-83585565D01*
X149352000Y-83585565D01*
X149352004Y-83585565D01*
X149531249Y-83565369D01*
X149531252Y-83565368D01*
X149531255Y-83565368D01*
X149701522Y-83505789D01*
X149854262Y-83409816D01*
X149981816Y-83282262D01*
X150077789Y-83129522D01*
X150137368Y-82959255D01*
X150142313Y-82915363D01*
X150169378Y-82850951D01*
X150177853Y-82841565D01*
X150178418Y-82841000D01*
X150220411Y-82799008D01*
X150289083Y-82696233D01*
X150336385Y-82582035D01*
X150360500Y-82460804D01*
X150360500Y-82337197D01*
X150360500Y-81813671D01*
X150379507Y-81747698D01*
X150393369Y-81725638D01*
X150421174Y-81681384D01*
X150458788Y-81621524D01*
X150471129Y-81586255D01*
X150518368Y-81451255D01*
X150523354Y-81407003D01*
X150538565Y-81272003D01*
X150538565Y-81271996D01*
X150518369Y-81092750D01*
X150518368Y-81092745D01*
X150517592Y-81090527D01*
X150458789Y-80922478D01*
X150362816Y-80769738D01*
X150235262Y-80642184D01*
X150082523Y-80546211D01*
X149912254Y-80486631D01*
X149912249Y-80486630D01*
X149733004Y-80466435D01*
X149732996Y-80466435D01*
X149553750Y-80486630D01*
X149553745Y-80486631D01*
X149383476Y-80546211D01*
X149230737Y-80642184D01*
X149103184Y-80769737D01*
X149007211Y-80922476D01*
X148947631Y-81092745D01*
X148947630Y-81092750D01*
X148927435Y-81271996D01*
X148927435Y-81272003D01*
X148947630Y-81451249D01*
X148947631Y-81451254D01*
X149007211Y-81621524D01*
X149086493Y-81747698D01*
X149105500Y-81813671D01*
X149105500Y-81930178D01*
X149085815Y-81997217D01*
X149033011Y-82042972D01*
X149022458Y-82047218D01*
X149002481Y-82054208D01*
X148849737Y-82150184D01*
X148722184Y-82277737D01*
X148626211Y-82430476D01*
X148566631Y-82600745D01*
X148566630Y-82600750D01*
X148546435Y-82779996D01*
X147693500Y-82779996D01*
X147693500Y-81694671D01*
X147712507Y-81628698D01*
X147791788Y-81502524D01*
X147809730Y-81451249D01*
X147851368Y-81332255D01*
X147858157Y-81272000D01*
X147871565Y-81153003D01*
X147871565Y-81152996D01*
X147851369Y-80973750D01*
X147851368Y-80973745D01*
X147827221Y-80904737D01*
X147791789Y-80803478D01*
X147775267Y-80777184D01*
X147698294Y-80654682D01*
X147695816Y-80650738D01*
X147568262Y-80523184D01*
X147510090Y-80486632D01*
X147415523Y-80427211D01*
X147245254Y-80367631D01*
X147245249Y-80367630D01*
X147066004Y-80347435D01*
X147065996Y-80347435D01*
X146886750Y-80367630D01*
X146886745Y-80367631D01*
X146716476Y-80427211D01*
X146563737Y-80523184D01*
X146436184Y-80650737D01*
X146340211Y-80803476D01*
X146280631Y-80973745D01*
X146280630Y-80973750D01*
X146260435Y-81152996D01*
X77640026Y-81152996D01*
X77654728Y-81138294D01*
X77716049Y-81104811D01*
X77756291Y-81102757D01*
X77826998Y-81110724D01*
X77827000Y-81110724D01*
X77827004Y-81110724D01*
X78006249Y-81090528D01*
X78006252Y-81090527D01*
X78006255Y-81090527D01*
X78176522Y-81030948D01*
X78329262Y-80934975D01*
X78456816Y-80807421D01*
X78552789Y-80654681D01*
X78612368Y-80484414D01*
X78625526Y-80367631D01*
X78632565Y-80305162D01*
X78632565Y-80305155D01*
X78612369Y-80125909D01*
X78612368Y-80125904D01*
X78552788Y-79955635D01*
X78456815Y-79802896D01*
X78329262Y-79675343D01*
X78176523Y-79579370D01*
X78006254Y-79519790D01*
X78006249Y-79519789D01*
X77827004Y-79499594D01*
X77826996Y-79499594D01*
X77647750Y-79519789D01*
X77647737Y-79519792D01*
X77579415Y-79543700D01*
X77538460Y-79550659D01*
X77346524Y-79550659D01*
X77200768Y-79579652D01*
X77200760Y-79579654D01*
X77063449Y-79636530D01*
X76939876Y-79719098D01*
X76939875Y-79719099D01*
X76887329Y-79771646D01*
X76834782Y-79824193D01*
X76834780Y-79824195D01*
X76000357Y-80658616D01*
X75974869Y-80676705D01*
X75975373Y-80677507D01*
X75816737Y-80777184D01*
X75689184Y-80904737D01*
X75593211Y-81057476D01*
X75533631Y-81227745D01*
X75533630Y-81227750D01*
X75513435Y-81406996D01*
X73398500Y-81406996D01*
X73398500Y-76453996D01*
X98254435Y-76453996D01*
X98254435Y-76454003D01*
X98274630Y-76633249D01*
X98274631Y-76633254D01*
X98334211Y-76803523D01*
X98430184Y-76956262D01*
X98557738Y-77083816D01*
X98619505Y-77122627D01*
X98710022Y-77179503D01*
X98710478Y-77179789D01*
X98797565Y-77210262D01*
X98880745Y-77239368D01*
X98880750Y-77239369D01*
X99059996Y-77259565D01*
X99060000Y-77259565D01*
X99060004Y-77259565D01*
X99239249Y-77239369D01*
X99239251Y-77239368D01*
X99239255Y-77239368D01*
X99239258Y-77239366D01*
X99239262Y-77239366D01*
X99307585Y-77215459D01*
X99348540Y-77208500D01*
X100884554Y-77208500D01*
X100884574Y-77208501D01*
X100890688Y-77208501D01*
X101039314Y-77208501D01*
X101160894Y-77184315D01*
X101160894Y-77184316D01*
X101160900Y-77184313D01*
X101185080Y-77179505D01*
X101220942Y-77164649D01*
X101241944Y-77155951D01*
X101241947Y-77155949D01*
X101241955Y-77155946D01*
X101322389Y-77122630D01*
X101372726Y-77088996D01*
X105429435Y-77088996D01*
X105429435Y-77089003D01*
X105449630Y-77268249D01*
X105449631Y-77268254D01*
X105509211Y-77438523D01*
X105605184Y-77591262D01*
X105732738Y-77718816D01*
X105885478Y-77814789D01*
X106055745Y-77874368D01*
X106055750Y-77874369D01*
X106234996Y-77894565D01*
X106235000Y-77894565D01*
X106235004Y-77894565D01*
X106414249Y-77874369D01*
X106414252Y-77874368D01*
X106414255Y-77874368D01*
X106584522Y-77814789D01*
X106737262Y-77718816D01*
X106864816Y-77591262D01*
X106960789Y-77438522D01*
X106967779Y-77418546D01*
X107008500Y-77361770D01*
X107073453Y-77336022D01*
X107084821Y-77335500D01*
X107455328Y-77335500D01*
X107521299Y-77354505D01*
X107647478Y-77433789D01*
X107817745Y-77493368D01*
X107817750Y-77493369D01*
X107996996Y-77513565D01*
X107997000Y-77513565D01*
X107997004Y-77513565D01*
X108176249Y-77493369D01*
X108176252Y-77493368D01*
X108176255Y-77493368D01*
X108346522Y-77433789D01*
X108499262Y-77337816D01*
X108626816Y-77210262D01*
X108722789Y-77057522D01*
X108782368Y-76887255D01*
X108790318Y-76816696D01*
X108802565Y-76708003D01*
X108802565Y-76707996D01*
X108782369Y-76528750D01*
X108782368Y-76528745D01*
X108722789Y-76358478D01*
X108626816Y-76205738D01*
X108499262Y-76078184D01*
X108346523Y-75982211D01*
X108176254Y-75922631D01*
X108176249Y-75922630D01*
X107997004Y-75902435D01*
X107996996Y-75902435D01*
X107817750Y-75922630D01*
X107817745Y-75922631D01*
X107647476Y-75982211D01*
X107521300Y-76061494D01*
X107455328Y-76080500D01*
X107277940Y-76080500D01*
X107210901Y-76060815D01*
X107165146Y-76008011D01*
X107155202Y-75938853D01*
X107184227Y-75875297D01*
X107190259Y-75868819D01*
X107245816Y-75813262D01*
X107341789Y-75660522D01*
X107401368Y-75490255D01*
X107406313Y-75446361D01*
X107433378Y-75381951D01*
X107441832Y-75372585D01*
X107630423Y-75183995D01*
X118784317Y-75183995D01*
X118784317Y-75184004D01*
X118803021Y-75433597D01*
X118803021Y-75433599D01*
X118858714Y-75677607D01*
X118858720Y-75677626D01*
X118950163Y-75910618D01*
X119075311Y-76127382D01*
X119113800Y-76175645D01*
X119857958Y-75431487D01*
X119882978Y-75491890D01*
X119954112Y-75598351D01*
X120044649Y-75688888D01*
X120151110Y-75760022D01*
X120211510Y-75785041D01*
X119467402Y-76529148D01*
X119621651Y-76634313D01*
X119621664Y-76634320D01*
X119847167Y-76742916D01*
X119847165Y-76742916D01*
X120086346Y-76816694D01*
X120086352Y-76816696D01*
X120333843Y-76853999D01*
X120333852Y-76854000D01*
X120584148Y-76854000D01*
X120584156Y-76853999D01*
X120831647Y-76816696D01*
X120831653Y-76816694D01*
X121070833Y-76742916D01*
X121296334Y-76634322D01*
X121296335Y-76634321D01*
X121450596Y-76529148D01*
X120706488Y-75785041D01*
X120766890Y-75760022D01*
X120873351Y-75688888D01*
X120963888Y-75598351D01*
X121035022Y-75491890D01*
X121060041Y-75431489D01*
X121804198Y-76175646D01*
X121804199Y-76175645D01*
X121842681Y-76127392D01*
X121842688Y-76127381D01*
X121967836Y-75910618D01*
X122059279Y-75677626D01*
X122059285Y-75677607D01*
X122114978Y-75433599D01*
X122114978Y-75433597D01*
X122133683Y-75184004D01*
X122133683Y-75183995D01*
X122114978Y-74934402D01*
X122114978Y-74934400D01*
X122059285Y-74690392D01*
X122059279Y-74690373D01*
X121967836Y-74457381D01*
X121842685Y-74240613D01*
X121804199Y-74192352D01*
X121060041Y-74936510D01*
X121035022Y-74876110D01*
X120963888Y-74769649D01*
X120873351Y-74679112D01*
X120766890Y-74607978D01*
X120706487Y-74582958D01*
X121450596Y-73838850D01*
X121296342Y-73733682D01*
X121296334Y-73733677D01*
X121070832Y-73625083D01*
X121070834Y-73625083D01*
X120831653Y-73551305D01*
X120831647Y-73551303D01*
X120584156Y-73514000D01*
X120333843Y-73514000D01*
X120086352Y-73551303D01*
X120086346Y-73551305D01*
X119847166Y-73625083D01*
X119621661Y-73733680D01*
X119621660Y-73733681D01*
X119467402Y-73838849D01*
X120211511Y-74582958D01*
X120151110Y-74607978D01*
X120044649Y-74679112D01*
X119954112Y-74769649D01*
X119882978Y-74876110D01*
X119857958Y-74936511D01*
X119113800Y-74192353D01*
X119075308Y-74240621D01*
X118950163Y-74457381D01*
X118858720Y-74690373D01*
X118858714Y-74690392D01*
X118803021Y-74934400D01*
X118803021Y-74934402D01*
X118784317Y-75183995D01*
X107630423Y-75183995D01*
X107865411Y-74949008D01*
X107913879Y-74876470D01*
X107934083Y-74846233D01*
X107963965Y-74774092D01*
X107981386Y-74732034D01*
X108005500Y-74610803D01*
X108005500Y-74487197D01*
X108005500Y-74074671D01*
X108024507Y-74008698D01*
X108033924Y-73993712D01*
X108103789Y-73882522D01*
X108163368Y-73712255D01*
X108163369Y-73712249D01*
X108183565Y-73533003D01*
X108183565Y-73532996D01*
X108163369Y-73353750D01*
X108163368Y-73353745D01*
X108123227Y-73239028D01*
X108103789Y-73183478D01*
X108007816Y-73030738D01*
X107880262Y-72903184D01*
X107851292Y-72884981D01*
X107727523Y-72807211D01*
X107557254Y-72747631D01*
X107557249Y-72747630D01*
X107378004Y-72727435D01*
X107377996Y-72727435D01*
X107198750Y-72747630D01*
X107198745Y-72747631D01*
X107028476Y-72807211D01*
X106875737Y-72903184D01*
X106748184Y-73030737D01*
X106652211Y-73183476D01*
X106592631Y-73353745D01*
X106592630Y-73353750D01*
X106572435Y-73532996D01*
X106572435Y-73533003D01*
X106592630Y-73712249D01*
X106592631Y-73712254D01*
X106652211Y-73882524D01*
X106731493Y-74008698D01*
X106750500Y-74074671D01*
X106750500Y-74237718D01*
X106730815Y-74304757D01*
X106714181Y-74325400D01*
X106554432Y-74485148D01*
X106493109Y-74518632D01*
X106480637Y-74520686D01*
X106436745Y-74525632D01*
X106266478Y-74585210D01*
X106113737Y-74681184D01*
X105986184Y-74808737D01*
X105890211Y-74961476D01*
X105830631Y-75131745D01*
X105830630Y-75131750D01*
X105810435Y-75310996D01*
X105810435Y-75311003D01*
X105830630Y-75490249D01*
X105830631Y-75490254D01*
X105890211Y-75660523D01*
X105929769Y-75723478D01*
X105986184Y-75813262D01*
X106113738Y-75940816D01*
X106179618Y-75982211D01*
X106220215Y-76007720D01*
X106266506Y-76060055D01*
X106277154Y-76129109D01*
X106248779Y-76192957D01*
X106223137Y-76215814D01*
X106215996Y-76220585D01*
X106215989Y-76220590D01*
X106173430Y-76263149D01*
X106112107Y-76296633D01*
X106099637Y-76298686D01*
X106055745Y-76303632D01*
X105885478Y-76363210D01*
X105732737Y-76459184D01*
X105605184Y-76586737D01*
X105509211Y-76739476D01*
X105449631Y-76909745D01*
X105449630Y-76909750D01*
X105429435Y-77088996D01*
X101372726Y-77088996D01*
X101445966Y-77040059D01*
X101664644Y-76821379D01*
X101690130Y-76803299D01*
X101689625Y-76802494D01*
X101695520Y-76798789D01*
X101695522Y-76798789D01*
X101848262Y-76702816D01*
X101975816Y-76575262D01*
X102071789Y-76422522D01*
X102131368Y-76252255D01*
X102134936Y-76220589D01*
X102151565Y-76073003D01*
X102151565Y-76072996D01*
X102131369Y-75893750D01*
X102131368Y-75893745D01*
X102110462Y-75834000D01*
X102071789Y-75723478D01*
X101975816Y-75570738D01*
X101848262Y-75443184D01*
X101784703Y-75403247D01*
X101695523Y-75347211D01*
X101525254Y-75287631D01*
X101525249Y-75287630D01*
X101346004Y-75267435D01*
X101345996Y-75267435D01*
X101166750Y-75287630D01*
X101166745Y-75287631D01*
X100996476Y-75347211D01*
X100843737Y-75443184D01*
X100716182Y-75570739D01*
X100716181Y-75570741D01*
X100671737Y-75641473D01*
X100619403Y-75687763D01*
X100566744Y-75699500D01*
X99348540Y-75699500D01*
X99307585Y-75692541D01*
X99239262Y-75668633D01*
X99239249Y-75668630D01*
X99060004Y-75648435D01*
X99059996Y-75648435D01*
X98880750Y-75668630D01*
X98880745Y-75668631D01*
X98710476Y-75728211D01*
X98557737Y-75824184D01*
X98430184Y-75951737D01*
X98334211Y-76104476D01*
X98274631Y-76274745D01*
X98274630Y-76274750D01*
X98254435Y-76453996D01*
X73398500Y-76453996D01*
X73398500Y-73552389D01*
X77766500Y-73552389D01*
X77766500Y-74275611D01*
X77771116Y-74304757D01*
X77793064Y-74443334D01*
X77793598Y-74446701D01*
X77847127Y-74611445D01*
X77925768Y-74765788D01*
X78027586Y-74905928D01*
X78150072Y-75028414D01*
X78290212Y-75130232D01*
X78444555Y-75208873D01*
X78609299Y-75262402D01*
X78780389Y-75289500D01*
X78780390Y-75289500D01*
X78953610Y-75289500D01*
X78953611Y-75289500D01*
X79124701Y-75262402D01*
X79289445Y-75208873D01*
X79443788Y-75130232D01*
X79583928Y-75028414D01*
X79691836Y-74920505D01*
X79753155Y-74887023D01*
X79822847Y-74892007D01*
X79878781Y-74933878D01*
X79885053Y-74943093D01*
X79924682Y-75007343D01*
X80048654Y-75131315D01*
X80197875Y-75223356D01*
X80197880Y-75223358D01*
X80364302Y-75278505D01*
X80364309Y-75278506D01*
X80467019Y-75288999D01*
X80616999Y-75288999D01*
X80617000Y-75288998D01*
X80617000Y-74194330D01*
X80636745Y-74214075D01*
X80722255Y-74263444D01*
X80817630Y-74289000D01*
X80916370Y-74289000D01*
X81011745Y-74263444D01*
X81097255Y-74214075D01*
X81117000Y-74194330D01*
X81117000Y-75288999D01*
X81266972Y-75288999D01*
X81266986Y-75288998D01*
X81369697Y-75278505D01*
X81536119Y-75223358D01*
X81536124Y-75223356D01*
X81685345Y-75131315D01*
X81809315Y-75007345D01*
X81901356Y-74858124D01*
X81901358Y-74858119D01*
X81956505Y-74691697D01*
X81956506Y-74691690D01*
X81966999Y-74588986D01*
X81967000Y-74588973D01*
X81967000Y-74164000D01*
X81147330Y-74164000D01*
X81167075Y-74144255D01*
X81216444Y-74058745D01*
X81242000Y-73963370D01*
X81242000Y-73864630D01*
X81216444Y-73769255D01*
X81167075Y-73683745D01*
X81147330Y-73664000D01*
X81966999Y-73664000D01*
X81966999Y-73552428D01*
X89356000Y-73552428D01*
X89356000Y-73664000D01*
X90175670Y-73664000D01*
X90155925Y-73683745D01*
X90106556Y-73769255D01*
X90081000Y-73864630D01*
X90081000Y-73963370D01*
X90106556Y-74058745D01*
X90155925Y-74144255D01*
X90175670Y-74164000D01*
X89356000Y-74164000D01*
X89356000Y-74275571D01*
X89383085Y-74446584D01*
X89436591Y-74611257D01*
X89515195Y-74765524D01*
X89616967Y-74905602D01*
X89739397Y-75028032D01*
X89879475Y-75129804D01*
X90033744Y-75208408D01*
X90198415Y-75261914D01*
X90198414Y-75261914D01*
X90205999Y-75263115D01*
X90206000Y-75263114D01*
X90206000Y-74194330D01*
X90225745Y-74214075D01*
X90311255Y-74263444D01*
X90406630Y-74289000D01*
X90505370Y-74289000D01*
X90600745Y-74263444D01*
X90686255Y-74214075D01*
X90706000Y-74194330D01*
X90706000Y-75263115D01*
X90713584Y-75261914D01*
X90878255Y-75208408D01*
X91032524Y-75129804D01*
X91172598Y-75028035D01*
X91280199Y-74920434D01*
X91341522Y-74886949D01*
X91411214Y-74891933D01*
X91467148Y-74933804D01*
X91473418Y-74943016D01*
X91513288Y-75007656D01*
X91637344Y-75131712D01*
X91786666Y-75223814D01*
X91953203Y-75278999D01*
X92055991Y-75289500D01*
X92856008Y-75289499D01*
X92856016Y-75289498D01*
X92856019Y-75289498D01*
X92912302Y-75283748D01*
X92958797Y-75278999D01*
X93125334Y-75223814D01*
X93274656Y-75131712D01*
X93398712Y-75007656D01*
X93490814Y-74858334D01*
X93545999Y-74691797D01*
X93556500Y-74589009D01*
X93556499Y-73238992D01*
X93545999Y-73136203D01*
X93490814Y-72969666D01*
X93398712Y-72820344D01*
X93274656Y-72696288D01*
X93254726Y-72683995D01*
X114983816Y-72683995D01*
X114983816Y-72684004D01*
X115002524Y-72933663D01*
X115002525Y-72933668D01*
X115002525Y-72933672D01*
X115002526Y-72933673D01*
X115010741Y-72969663D01*
X115058236Y-73177755D01*
X115058238Y-73177764D01*
X115058240Y-73177769D01*
X115149711Y-73410835D01*
X115274898Y-73627665D01*
X115359443Y-73733681D01*
X115431006Y-73823418D01*
X115581839Y-73963370D01*
X115614540Y-73993712D01*
X115821408Y-74134752D01*
X115821413Y-74134754D01*
X115821414Y-74134755D01*
X115821415Y-74134756D01*
X115921679Y-74183040D01*
X116046983Y-74243383D01*
X116046984Y-74243383D01*
X116046987Y-74243385D01*
X116286236Y-74317184D01*
X116286237Y-74317184D01*
X116286240Y-74317185D01*
X116533805Y-74354499D01*
X116533810Y-74354499D01*
X116533813Y-74354500D01*
X116533814Y-74354500D01*
X116784186Y-74354500D01*
X116784187Y-74354500D01*
X116784194Y-74354499D01*
X117031759Y-74317185D01*
X117031760Y-74317184D01*
X117031764Y-74317184D01*
X117271013Y-74243385D01*
X117496592Y-74134752D01*
X117703460Y-73993712D01*
X117876179Y-73833452D01*
X117886993Y-73823418D01*
X117886993Y-73823416D01*
X117886997Y-73823414D01*
X118043102Y-73627665D01*
X118168289Y-73410835D01*
X118259760Y-73177769D01*
X118315474Y-72933673D01*
X118315475Y-72933663D01*
X118334184Y-72684004D01*
X118334184Y-72683995D01*
X118315475Y-72434336D01*
X118315474Y-72434331D01*
X118315474Y-72434327D01*
X118303983Y-72383983D01*
X143155500Y-72383983D01*
X143155500Y-74174001D01*
X143155501Y-74174018D01*
X143166000Y-74276796D01*
X143166001Y-74276799D01*
X143221185Y-74443331D01*
X143221187Y-74443336D01*
X143223260Y-74446697D01*
X143313288Y-74592656D01*
X143437344Y-74716712D01*
X143586666Y-74808814D01*
X143753203Y-74863999D01*
X143855991Y-74874500D01*
X145196008Y-74874499D01*
X145298797Y-74863999D01*
X145465334Y-74808814D01*
X145614656Y-74716712D01*
X145738712Y-74592656D01*
X145830814Y-74443334D01*
X145830817Y-74443322D01*
X145831129Y-74442657D01*
X145831469Y-74442269D01*
X145834605Y-74437187D01*
X145835473Y-74437722D01*
X145877299Y-74390216D01*
X145944491Y-74371060D01*
X146011373Y-74391272D01*
X146031195Y-74407375D01*
X146173179Y-74549359D01*
X146347701Y-74676157D01*
X146539911Y-74774092D01*
X146745074Y-74840754D01*
X146812796Y-74851480D01*
X146958134Y-74874500D01*
X146958139Y-74874500D01*
X147173866Y-74874500D01*
X147292230Y-74855752D01*
X147386926Y-74840754D01*
X147592089Y-74774092D01*
X147784299Y-74676157D01*
X147958821Y-74549359D01*
X148111359Y-74396821D01*
X148235682Y-74225704D01*
X148291012Y-74183040D01*
X148360626Y-74177061D01*
X148422420Y-74209667D01*
X148436315Y-74225702D01*
X148560641Y-74396821D01*
X148713179Y-74549359D01*
X148887701Y-74676157D01*
X149079911Y-74774092D01*
X149285074Y-74840754D01*
X149352796Y-74851480D01*
X149498134Y-74874500D01*
X149498139Y-74874500D01*
X149713866Y-74874500D01*
X149832230Y-74855752D01*
X149926926Y-74840754D01*
X150132089Y-74774092D01*
X150324299Y-74676157D01*
X150498821Y-74549359D01*
X150651359Y-74396821D01*
X150775991Y-74225279D01*
X150831321Y-74182614D01*
X150900934Y-74176635D01*
X150962729Y-74209241D01*
X150976627Y-74225279D01*
X151101025Y-74396496D01*
X151101025Y-74396497D01*
X151253502Y-74548974D01*
X151427963Y-74675728D01*
X151620098Y-74773627D01*
X151825190Y-74840266D01*
X151896000Y-74851481D01*
X151896000Y-73821709D01*
X151916339Y-73833452D01*
X152067667Y-73874000D01*
X152224333Y-73874000D01*
X152375661Y-73833452D01*
X152396000Y-73821709D01*
X152396000Y-74851480D01*
X152466809Y-74840266D01*
X152671901Y-74773627D01*
X152864036Y-74675728D01*
X153038496Y-74548974D01*
X153038497Y-74548974D01*
X153190974Y-74396497D01*
X153190974Y-74396496D01*
X153317728Y-74222036D01*
X153415627Y-74029901D01*
X153482265Y-73824809D01*
X153516000Y-73611820D01*
X153516000Y-73529000D01*
X152688709Y-73529000D01*
X152700452Y-73508661D01*
X152741000Y-73357333D01*
X152741000Y-73200667D01*
X152700452Y-73049339D01*
X152688709Y-73029000D01*
X153516000Y-73029000D01*
X153516000Y-72946179D01*
X153482265Y-72733190D01*
X153415627Y-72528098D01*
X153317728Y-72335963D01*
X153190974Y-72161503D01*
X153190974Y-72161502D01*
X153038497Y-72009025D01*
X152864036Y-71882271D01*
X152671899Y-71784372D01*
X152466805Y-71717733D01*
X152396000Y-71706518D01*
X152396000Y-72736290D01*
X152375661Y-72724548D01*
X152224333Y-72684000D01*
X152067667Y-72684000D01*
X151916339Y-72724548D01*
X151896000Y-72736290D01*
X151896000Y-71706518D01*
X151895999Y-71706518D01*
X151825194Y-71717733D01*
X151620100Y-71784372D01*
X151427963Y-71882271D01*
X151253503Y-72009025D01*
X151253502Y-72009025D01*
X151101024Y-72161503D01*
X150976627Y-72332720D01*
X150921296Y-72375385D01*
X150851683Y-72381364D01*
X150789888Y-72348758D01*
X150775991Y-72332720D01*
X150651359Y-72161179D01*
X150498821Y-72008641D01*
X150324299Y-71881843D01*
X150132089Y-71783908D01*
X149926926Y-71717246D01*
X149926924Y-71717245D01*
X149926922Y-71717245D01*
X149713866Y-71683500D01*
X149713861Y-71683500D01*
X149498139Y-71683500D01*
X149498134Y-71683500D01*
X149285077Y-71717245D01*
X149079908Y-71783909D01*
X148887700Y-71881843D01*
X148788129Y-71954186D01*
X148713179Y-72008641D01*
X148713177Y-72008643D01*
X148713176Y-72008643D01*
X148560643Y-72161176D01*
X148560643Y-72161177D01*
X148560641Y-72161179D01*
X148539524Y-72190244D01*
X148436318Y-72332294D01*
X148380988Y-72374959D01*
X148311374Y-72380938D01*
X148249579Y-72348332D01*
X148235682Y-72332294D01*
X148213435Y-72301674D01*
X148111359Y-72161179D01*
X147958821Y-72008641D01*
X147784299Y-71881843D01*
X147592089Y-71783908D01*
X147386926Y-71717246D01*
X147386924Y-71717245D01*
X147386922Y-71717245D01*
X147173866Y-71683500D01*
X147173861Y-71683500D01*
X146958139Y-71683500D01*
X146958134Y-71683500D01*
X146745077Y-71717245D01*
X146539908Y-71783909D01*
X146347700Y-71881843D01*
X146173180Y-72008640D01*
X146031195Y-72150625D01*
X145969872Y-72184109D01*
X145900180Y-72179125D01*
X145844247Y-72137253D01*
X145831132Y-72115348D01*
X145830815Y-72114669D01*
X145830814Y-72114668D01*
X145830814Y-72114666D01*
X145738712Y-71965344D01*
X145614656Y-71841288D01*
X145465334Y-71749186D01*
X145298797Y-71694001D01*
X145298795Y-71694000D01*
X145196010Y-71683500D01*
X143855998Y-71683500D01*
X143855981Y-71683501D01*
X143753203Y-71694000D01*
X143753200Y-71694001D01*
X143586668Y-71749185D01*
X143586663Y-71749187D01*
X143437342Y-71841289D01*
X143313289Y-71965342D01*
X143221187Y-72114663D01*
X143221186Y-72114666D01*
X143166001Y-72281203D01*
X143166001Y-72281204D01*
X143166000Y-72281204D01*
X143155500Y-72383983D01*
X118303983Y-72383983D01*
X118259760Y-72190231D01*
X118168289Y-71957165D01*
X118043102Y-71740335D01*
X117886997Y-71544586D01*
X117886996Y-71544585D01*
X117886993Y-71544581D01*
X117703460Y-71374288D01*
X117628841Y-71323414D01*
X117496592Y-71233248D01*
X117496588Y-71233246D01*
X117496585Y-71233244D01*
X117496584Y-71233243D01*
X117271015Y-71124616D01*
X117271017Y-71124616D01*
X117031765Y-71050816D01*
X117031759Y-71050814D01*
X116784194Y-71013500D01*
X116784187Y-71013500D01*
X116533813Y-71013500D01*
X116533805Y-71013500D01*
X116286240Y-71050814D01*
X116286234Y-71050816D01*
X116046983Y-71124616D01*
X115821415Y-71233243D01*
X115821414Y-71233244D01*
X115614539Y-71374288D01*
X115431006Y-71544581D01*
X115274898Y-71740335D01*
X115149711Y-71957164D01*
X115058242Y-72190225D01*
X115058236Y-72190244D01*
X115002525Y-72434331D01*
X115002524Y-72434336D01*
X114983816Y-72683995D01*
X93254726Y-72683995D01*
X93149559Y-72619128D01*
X93125336Y-72604187D01*
X93125331Y-72604185D01*
X93123862Y-72603698D01*
X92958797Y-72549001D01*
X92958795Y-72549000D01*
X92856010Y-72538500D01*
X92055998Y-72538500D01*
X92055980Y-72538501D01*
X91953203Y-72549000D01*
X91953200Y-72549001D01*
X91786668Y-72604185D01*
X91786663Y-72604187D01*
X91637342Y-72696289D01*
X91513289Y-72820342D01*
X91513288Y-72820344D01*
X91473466Y-72884907D01*
X91473420Y-72884981D01*
X91421472Y-72931705D01*
X91352509Y-72942928D01*
X91288427Y-72915084D01*
X91280200Y-72907565D01*
X91172602Y-72799967D01*
X91032524Y-72698195D01*
X90878257Y-72619591D01*
X90713589Y-72566087D01*
X90713581Y-72566085D01*
X90706000Y-72564884D01*
X90706000Y-73633670D01*
X90686255Y-73613925D01*
X90600745Y-73564556D01*
X90505370Y-73539000D01*
X90406630Y-73539000D01*
X90311255Y-73564556D01*
X90225745Y-73613925D01*
X90206000Y-73633670D01*
X90206000Y-72564884D01*
X90205999Y-72564884D01*
X90198418Y-72566085D01*
X90198410Y-72566087D01*
X90033742Y-72619591D01*
X89879475Y-72698195D01*
X89739397Y-72799967D01*
X89616967Y-72922397D01*
X89515195Y-73062475D01*
X89436591Y-73216742D01*
X89383085Y-73381415D01*
X89356000Y-73552428D01*
X81966999Y-73552428D01*
X81966999Y-73239028D01*
X81966998Y-73239013D01*
X81956505Y-73136302D01*
X81901358Y-72969880D01*
X81901356Y-72969875D01*
X81809315Y-72820654D01*
X81685345Y-72696684D01*
X81536124Y-72604643D01*
X81536119Y-72604641D01*
X81369697Y-72549494D01*
X81369690Y-72549493D01*
X81266986Y-72539000D01*
X81117000Y-72539000D01*
X81117000Y-73633670D01*
X81097255Y-73613925D01*
X81011745Y-73564556D01*
X80916370Y-73539000D01*
X80817630Y-73539000D01*
X80722255Y-73564556D01*
X80636745Y-73613925D01*
X80617000Y-73633670D01*
X80617000Y-72539000D01*
X80467027Y-72539000D01*
X80467012Y-72539001D01*
X80364302Y-72549494D01*
X80197880Y-72604641D01*
X80197875Y-72604643D01*
X80048654Y-72696684D01*
X79924684Y-72820654D01*
X79885053Y-72884907D01*
X79833105Y-72931631D01*
X79764142Y-72942853D01*
X79700060Y-72915010D01*
X79691833Y-72907491D01*
X79583930Y-72799588D01*
X79583928Y-72799586D01*
X79443788Y-72697768D01*
X79289445Y-72619127D01*
X79124701Y-72565598D01*
X79124699Y-72565597D01*
X79124698Y-72565597D01*
X78993271Y-72544781D01*
X78953611Y-72538500D01*
X78780389Y-72538500D01*
X78740728Y-72544781D01*
X78609302Y-72565597D01*
X78444552Y-72619128D01*
X78290211Y-72697768D01*
X78241458Y-72733190D01*
X78150072Y-72799586D01*
X78150070Y-72799588D01*
X78150069Y-72799588D01*
X78027588Y-72922069D01*
X78027588Y-72922070D01*
X78027586Y-72922072D01*
X77993009Y-72969663D01*
X77925768Y-73062211D01*
X77847128Y-73216552D01*
X77793597Y-73381302D01*
X77769571Y-73533000D01*
X77766500Y-73552389D01*
X73398500Y-73552389D01*
X73398500Y-70183995D01*
X118783816Y-70183995D01*
X118783816Y-70184004D01*
X118802524Y-70433663D01*
X118802525Y-70433668D01*
X118858236Y-70677755D01*
X118858238Y-70677764D01*
X118858240Y-70677769D01*
X118949711Y-70910835D01*
X119074898Y-71127665D01*
X119159094Y-71233243D01*
X119231006Y-71323418D01*
X119404264Y-71484177D01*
X119414540Y-71493712D01*
X119621408Y-71634752D01*
X119621413Y-71634754D01*
X119621414Y-71634755D01*
X119621415Y-71634756D01*
X119722634Y-71683500D01*
X119846983Y-71743383D01*
X119846984Y-71743383D01*
X119846987Y-71743385D01*
X120086236Y-71817184D01*
X120086237Y-71817184D01*
X120086240Y-71817185D01*
X120333805Y-71854499D01*
X120333810Y-71854499D01*
X120333813Y-71854500D01*
X120333814Y-71854500D01*
X120584186Y-71854500D01*
X120584187Y-71854500D01*
X120584194Y-71854499D01*
X120831759Y-71817185D01*
X120831760Y-71817184D01*
X120831764Y-71817184D01*
X121071013Y-71743385D01*
X121296592Y-71634752D01*
X121503460Y-71493712D01*
X121686997Y-71323414D01*
X121843102Y-71127665D01*
X121968289Y-70910835D01*
X122059760Y-70677769D01*
X122115474Y-70433673D01*
X122134184Y-70184000D01*
X122115474Y-69934327D01*
X122059760Y-69690231D01*
X121968289Y-69457165D01*
X121843102Y-69240335D01*
X121686997Y-69044586D01*
X121686996Y-69044585D01*
X121686993Y-69044581D01*
X121503460Y-68874288D01*
X121296592Y-68733248D01*
X121296588Y-68733246D01*
X121296585Y-68733244D01*
X121296584Y-68733243D01*
X121071015Y-68624616D01*
X121071017Y-68624616D01*
X120831765Y-68550816D01*
X120831759Y-68550814D01*
X120584194Y-68513500D01*
X120584187Y-68513500D01*
X120333813Y-68513500D01*
X120333805Y-68513500D01*
X120086240Y-68550814D01*
X120086234Y-68550816D01*
X119846983Y-68624616D01*
X119621415Y-68733243D01*
X119621414Y-68733244D01*
X119414539Y-68874288D01*
X119231006Y-69044581D01*
X119074898Y-69240335D01*
X118949711Y-69457164D01*
X118858242Y-69690225D01*
X118858236Y-69690244D01*
X118802525Y-69934331D01*
X118802524Y-69934336D01*
X118783816Y-70183995D01*
X73398500Y-70183995D01*
X73398500Y-65267500D01*
X73418185Y-65200461D01*
X73470989Y-65154706D01*
X73522500Y-65143500D01*
X163840500Y-65143500D01*
X163907539Y-65163185D01*
G37*
%TD.AperFunction*%
%TD*%
M02*
