%TF.GenerationSoftware,KiCad,Pcbnew,8.0.8*%
%TF.CreationDate,2025-03-31T16:04:57-05:00*%
%TF.ProjectId,finalproject,66696e61-6c70-4726-9f6a-6563742e6b69,rev?*%
%TF.SameCoordinates,Original*%
%TF.FileFunction,Soldermask,Top*%
%TF.FilePolarity,Negative*%
%FSLAX46Y46*%
G04 Gerber Fmt 4.6, Leading zero omitted, Abs format (unit mm)*
G04 Created by KiCad (PCBNEW 8.0.8) date 2025-03-31 16:04:57*
%MOMM*%
%LPD*%
G01*
G04 APERTURE LIST*
G04 Aperture macros list*
%AMRoundRect*
0 Rectangle with rounded corners*
0 $1 Rounding radius*
0 $2 $3 $4 $5 $6 $7 $8 $9 X,Y pos of 4 corners*
0 Add a 4 corners polygon primitive as box body*
4,1,4,$2,$3,$4,$5,$6,$7,$8,$9,$2,$3,0*
0 Add four circle primitives for the rounded corners*
1,1,$1+$1,$2,$3*
1,1,$1+$1,$4,$5*
1,1,$1+$1,$6,$7*
1,1,$1+$1,$8,$9*
0 Add four rect primitives between the rounded corners*
20,1,$1+$1,$2,$3,$4,$5,0*
20,1,$1+$1,$4,$5,$6,$7,0*
20,1,$1+$1,$6,$7,$8,$9,0*
20,1,$1+$1,$8,$9,$2,$3,0*%
G04 Aperture macros list end*
%ADD10C,0.010000*%
%ADD11C,2.340000*%
%ADD12RoundRect,0.250000X0.350000X0.625000X-0.350000X0.625000X-0.350000X-0.625000X0.350000X-0.625000X0*%
%ADD13O,1.200000X1.750000*%
%ADD14O,1.900000X2.900000*%
%ADD15O,2.900000X1.900000*%
%ADD16C,1.300000*%
%ADD17R,1.300000X1.300000*%
%ADD18RoundRect,0.058000X0.529000X-0.174000X0.529000X0.174000X-0.529000X0.174000X-0.529000X-0.174000X0*%
%ADD19RoundRect,0.058000X0.174000X-0.529000X0.174000X0.529000X-0.174000X0.529000X-0.174000X-0.529000X0*%
%ADD20RoundRect,0.102000X1.575000X-1.575000X1.575000X1.575000X-1.575000X1.575000X-1.575000X-1.575000X0*%
%ADD21O,1.740000X2.190000*%
%ADD22RoundRect,0.250000X-0.620000X-0.845000X0.620000X-0.845000X0.620000X0.845000X-0.620000X0.845000X0*%
%ADD23C,2.000000*%
%ADD24O,2.190000X1.740000*%
%ADD25RoundRect,0.250000X-0.845000X0.620000X-0.845000X-0.620000X0.845000X-0.620000X0.845000X0.620000X0*%
%ADD26RoundRect,0.250000X-0.450000X0.350000X-0.450000X-0.350000X0.450000X-0.350000X0.450000X0.350000X0*%
%ADD27RoundRect,0.250000X0.350000X0.450000X-0.350000X0.450000X-0.350000X-0.450000X0.350000X-0.450000X0*%
%ADD28RoundRect,0.250000X0.450000X-0.350000X0.450000X0.350000X-0.450000X0.350000X-0.450000X-0.350000X0*%
%ADD29RoundRect,0.250000X-0.350000X-0.450000X0.350000X-0.450000X0.350000X0.450000X-0.350000X0.450000X0*%
%ADD30RoundRect,0.062500X0.375000X0.062500X-0.375000X0.062500X-0.375000X-0.062500X0.375000X-0.062500X0*%
%ADD31RoundRect,0.062500X0.062500X0.375000X-0.062500X0.375000X-0.062500X-0.375000X0.062500X-0.375000X0*%
%ADD32R,3.450000X3.450000*%
%ADD33RoundRect,0.087500X0.287500X0.087500X-0.287500X0.087500X-0.287500X-0.087500X0.287500X-0.087500X0*%
%ADD34RoundRect,0.250000X-0.337500X-0.475000X0.337500X-0.475000X0.337500X0.475000X-0.337500X0.475000X0*%
%ADD35RoundRect,0.250000X-0.475000X0.337500X-0.475000X-0.337500X0.475000X-0.337500X0.475000X0.337500X0*%
%ADD36RoundRect,0.250000X0.475000X-0.337500X0.475000X0.337500X-0.475000X0.337500X-0.475000X-0.337500X0*%
%ADD37RoundRect,0.250000X0.337500X0.475000X-0.337500X0.475000X-0.337500X-0.475000X0.337500X-0.475000X0*%
%ADD38RoundRect,0.150000X-0.587500X-0.150000X0.587500X-0.150000X0.587500X0.150000X-0.587500X0.150000X0*%
%ADD39RoundRect,0.375000X-0.625000X-0.375000X0.625000X-0.375000X0.625000X0.375000X-0.625000X0.375000X0*%
%ADD40RoundRect,0.500000X-0.500000X-1.400000X0.500000X-1.400000X0.500000X1.400000X-0.500000X1.400000X0*%
%ADD41RoundRect,0.100500X-0.301500X0.986500X-0.301500X-0.986500X0.301500X-0.986500X0.301500X0.986500X0*%
G04 APERTURE END LIST*
D10*
%TO.C,U1*%
X152718226Y-95827000D02*
X151319000Y-95827000D01*
X151319000Y-94925320D01*
X152718226Y-94925320D01*
X152718226Y-95827000D01*
G36*
X152718226Y-95827000D02*
G01*
X151319000Y-95827000D01*
X151319000Y-94925320D01*
X152718226Y-94925320D01*
X152718226Y-95827000D01*
G37*
X152718509Y-97747000D02*
X151319000Y-97747000D01*
X151319000Y-96847385D01*
X152718509Y-96847385D01*
X152718509Y-97747000D01*
G36*
X152718509Y-97747000D02*
G01*
X151319000Y-97747000D01*
X151319000Y-96847385D01*
X152718509Y-96847385D01*
X152718509Y-97747000D01*
G37*
X155420020Y-97747000D02*
X154019000Y-97747000D01*
X154019000Y-96647155D01*
X155420020Y-96647155D01*
X155420020Y-97747000D01*
G36*
X155420020Y-97747000D02*
G01*
X154019000Y-97747000D01*
X154019000Y-96647155D01*
X155420020Y-96647155D01*
X155420020Y-97747000D01*
G37*
X155421300Y-95827000D02*
X154019000Y-95827000D01*
X154019000Y-94925420D01*
X155421300Y-94925420D01*
X155421300Y-95827000D01*
G36*
X155421300Y-95827000D02*
G01*
X154019000Y-95827000D01*
X154019000Y-94925420D01*
X155421300Y-94925420D01*
X155421300Y-95827000D01*
G37*
%TD*%
D11*
%TO.C,R17*%
X120459000Y-75184000D03*
X116659000Y-72684000D03*
X120459000Y-70184000D03*
%TD*%
D12*
%TO.C,Vin1*%
X80867000Y-73914000D03*
D13*
X78867000Y-73914000D03*
%TD*%
D14*
%TO.C,USB1*%
X147354000Y-102187000D03*
D15*
X153924000Y-106367000D03*
D14*
X160494000Y-102187000D03*
D16*
X150424000Y-101587000D03*
X152924000Y-101587000D03*
X154924000Y-101587000D03*
D17*
X157424000Y-101587000D03*
%TD*%
D18*
%TO.C,UART-TO-USB1*%
X155556000Y-90062000D03*
X155556000Y-89562000D03*
X155556000Y-89062000D03*
X155556000Y-88562000D03*
X155556000Y-88062000D03*
X155556000Y-87562000D03*
X155556000Y-87062000D03*
X150816000Y-87062000D03*
X150816000Y-87562000D03*
X150816000Y-88062000D03*
X150816000Y-88562000D03*
X150816000Y-89062000D03*
X150816000Y-89562000D03*
X150816000Y-90062000D03*
D19*
X151686000Y-90932000D03*
X152186000Y-90932000D03*
X152686000Y-90932000D03*
X153186000Y-90932000D03*
X153686000Y-90932000D03*
X154186000Y-90932000D03*
X154686000Y-90932000D03*
X154686000Y-86192000D03*
X154186000Y-86192000D03*
X153686000Y-86192000D03*
X153186000Y-86192000D03*
X152686000Y-86192000D03*
X152186000Y-86192000D03*
X151686000Y-86192000D03*
D20*
X153186000Y-88562000D03*
%TD*%
D21*
%TO.C,TEST1*%
X152146000Y-73279000D03*
X149606000Y-73279000D03*
X147066000Y-73279000D03*
D22*
X144526000Y-73279000D03*
%TD*%
D23*
%TO.C,SW1*%
X136473000Y-108061000D03*
X129973000Y-108061000D03*
X136473000Y-103561000D03*
X129973000Y-103561000D03*
%TD*%
D24*
%TO.C,SIG1*%
X119824000Y-86741000D03*
D25*
X119824000Y-84201000D03*
%TD*%
D26*
%TO.C,R16*%
X129667000Y-96683000D03*
X129667000Y-98683000D03*
%TD*%
D27*
%TO.C,R15*%
X152670000Y-83144000D03*
X154670000Y-83144000D03*
%TD*%
D28*
%TO.C,R14*%
X108391499Y-99234500D03*
X108391499Y-101234500D03*
%TD*%
D29*
%TO.C,R13*%
X140605000Y-104013000D03*
X142605000Y-104013000D03*
%TD*%
D28*
%TO.C,R12*%
X112077000Y-86757000D03*
X112077000Y-88757000D03*
%TD*%
D27*
%TO.C,R11*%
X99012000Y-93980000D03*
X101012000Y-93980000D03*
%TD*%
%TO.C,R10*%
X99123000Y-90043000D03*
X101123000Y-90043000D03*
%TD*%
D26*
%TO.C,R9*%
X95440000Y-82153000D03*
X95440000Y-80153000D03*
%TD*%
%TO.C,R8*%
X111569000Y-77105000D03*
X111569000Y-79105000D03*
%TD*%
%TO.C,R6*%
X97853000Y-74533000D03*
X97853000Y-72533000D03*
%TD*%
%TO.C,R5*%
X105346000Y-72533000D03*
X105346000Y-74533000D03*
%TD*%
D28*
%TO.C,R4*%
X101409000Y-74533000D03*
X101409000Y-72533000D03*
%TD*%
D27*
%TO.C,R3*%
X104219000Y-90043000D03*
X106219000Y-90043000D03*
%TD*%
D29*
%TO.C,R2*%
X112550499Y-93843500D03*
X110550499Y-93843500D03*
%TD*%
%TO.C,R1*%
X114995499Y-93843500D03*
X116995499Y-93843500D03*
%TD*%
D30*
%TO.C,MCU1*%
X138474500Y-98011500D03*
X138474500Y-97511500D03*
X138474500Y-97011500D03*
X138474500Y-96511500D03*
X138474500Y-96011500D03*
X138474500Y-95511500D03*
X138474500Y-95011500D03*
X138474500Y-94511500D03*
D31*
X137787000Y-93824000D03*
X137287000Y-93824000D03*
X136787000Y-93824000D03*
X136287000Y-93824000D03*
X135787000Y-93824000D03*
X135287000Y-93824000D03*
X134787000Y-93824000D03*
X134287000Y-93824000D03*
D30*
X133599500Y-94511500D03*
X133599500Y-95011500D03*
X133599500Y-95511500D03*
X133599500Y-96011500D03*
X133599500Y-96511500D03*
X133599500Y-97011500D03*
X133599500Y-97511500D03*
X133599500Y-98011500D03*
D31*
X134287000Y-98699000D03*
X134787000Y-98699000D03*
X135287000Y-98699000D03*
X135787000Y-98699000D03*
X136287000Y-98699000D03*
X136787000Y-98699000D03*
X137287000Y-98699000D03*
X137787000Y-98699000D03*
D32*
X136037000Y-96261500D03*
%TD*%
D22*
%TO.C,HEARTOUT1*%
X120904000Y-102362000D03*
D21*
X123444000Y-102362000D03*
%TD*%
D33*
%TO.C,HEART1*%
X111960499Y-102847500D03*
X111960499Y-102047500D03*
X111960499Y-101247500D03*
X111960499Y-100447500D03*
X111960499Y-99647500D03*
X111960499Y-98847500D03*
X111960499Y-98047500D03*
X114360499Y-98047500D03*
X114360499Y-98847500D03*
X114360499Y-99647500D03*
X114360499Y-100447500D03*
X114360499Y-101247500D03*
X114360499Y-102047500D03*
X114360499Y-102847500D03*
%TD*%
D12*
%TO.C,GSR_IN1*%
X92456000Y-73914000D03*
D13*
X90456000Y-73914000D03*
%TD*%
D34*
%TO.C,C18*%
X161333000Y-83144000D03*
X159258000Y-83144000D03*
%TD*%
D35*
%TO.C,C17*%
X90642000Y-90127000D03*
X90642000Y-92202000D03*
%TD*%
D36*
%TO.C,C16*%
X77307000Y-91483000D03*
X77307000Y-89408000D03*
%TD*%
D35*
%TO.C,C15*%
X88011000Y-81385500D03*
X88011000Y-83460500D03*
%TD*%
D36*
%TO.C,C14*%
X80010000Y-83460500D03*
X80010000Y-81385500D03*
%TD*%
D37*
%TO.C,C13*%
X142642500Y-106621000D03*
X140567500Y-106621000D03*
%TD*%
D34*
%TO.C,C12*%
X137265500Y-91079000D03*
X139340500Y-91079000D03*
%TD*%
%TO.C,C11*%
X132566500Y-91206000D03*
X134641500Y-91206000D03*
%TD*%
%TO.C,C10*%
X137265500Y-87269000D03*
X139340500Y-87269000D03*
%TD*%
%TO.C,C9*%
X161251500Y-87081000D03*
X159176500Y-87081000D03*
%TD*%
%TO.C,C8*%
X161333000Y-90704000D03*
X159258000Y-90704000D03*
%TD*%
%TO.C,C7*%
X132439500Y-87396000D03*
X134514500Y-87396000D03*
%TD*%
D37*
%TO.C,C6*%
X139340500Y-83205000D03*
X137265500Y-83205000D03*
%TD*%
D34*
%TO.C,C5*%
X132439500Y-83332000D03*
X134514500Y-83332000D03*
%TD*%
D36*
%TO.C,C4*%
X112077000Y-82274500D03*
X112077000Y-84349500D03*
%TD*%
D37*
%TO.C,C3*%
X104308500Y-93853000D03*
X106383500Y-93853000D03*
%TD*%
D35*
%TO.C,C2*%
X111312499Y-109151500D03*
X111312499Y-107076500D03*
%TD*%
%TO.C,C1*%
X114995499Y-109384000D03*
X114995499Y-107309000D03*
%TD*%
D38*
%TO.C,5V_3.3V1*%
X83058000Y-81280000D03*
X83058000Y-83180000D03*
X84933000Y-82230000D03*
%TD*%
D39*
%TO.C,3.3V_1.8V1*%
X81294000Y-93613000D03*
D40*
X87594000Y-91313000D03*
D39*
X81294000Y-91313000D03*
X81294000Y-89013000D03*
%TD*%
D41*
%TO.C,GSR1*%
X106743000Y-83690000D03*
X105473000Y-83690000D03*
X104203000Y-83690000D03*
X102933000Y-83690000D03*
X101663000Y-83690000D03*
X100393000Y-83690000D03*
X99123000Y-83690000D03*
X99123000Y-78740000D03*
X100393000Y-78740000D03*
X101663000Y-78740000D03*
X102933000Y-78740000D03*
X104203000Y-78740000D03*
X105473000Y-78740000D03*
X106743000Y-78740000D03*
%TD*%
M02*
