M48
; DRILL file {KiCad 8.0.8} date 2025-03-31T16:04:41-0500
; FORMAT={-:-/ absolute / inch / decimal}
; #@! TF.CreationDate,2025-03-31T16:04:41-05:00
; #@! TF.GenerationSoftware,Kicad,Pcbnew,8.0.8
; #@! TF.FileFunction,Plated,1,2,PTH
FMAT,2
INCH
; #@! TA.AperFunction,Plated,PTH,ViaDrill
T1C0.0118
; #@! TA.AperFunction,Plated,PTH,ComponentDrill
T2C0.0295
; #@! TA.AperFunction,Plated,PTH,ComponentDrill
T3C0.0354
; #@! TA.AperFunction,Plated,PTH,ComponentDrill
T4C0.0433
; #@! TA.AperFunction,Plated,PTH,ComponentDrill
T5C0.0469
; #@! TA.AperFunction,Plated,PTH,ComponentDrill
T6C0.0512
%
G90
G05
T1
X3.0047Y-3.205
X3.0641Y-3.1616
X3.35Y-2.975
X3.405Y-3.27
X3.705Y-3.745
X3.8725Y-3.45
X3.88Y-3.905
X3.9Y-3.01
X3.9375Y-3.48
X3.9475Y-3.45
X3.9565Y-3.375
X3.985Y-3.74
X3.985Y-3.905
X3.99Y-2.995
X4.1825Y-3.035
X4.1975Y-2.965
X4.2275Y-2.895
X4.2519Y-3.02
X4.2519Y-3.405
X4.2575Y-3.47
X4.3188Y-3.987
X4.3583Y-4.0315
X4.4488Y-3.975
X4.496Y-3.9595
X4.96Y-3.6649
X4.9858Y-3.7292
X5.025Y-3.89
X5.1996Y-3.8196
X5.218Y-3.868
X5.26Y-3.655
X5.335Y-3.825
X5.345Y-3.465
X5.3532Y-3.5768
X5.4317Y-3.6483
X5.4914Y-3.6382
X5.4957Y-3.8593
X5.51Y-3.765
X5.5156Y-3.8094
X5.52Y-3.6692
X5.55Y-4.005
X5.56Y-3.7456
X5.5997Y-4.005
X5.79Y-3.195
X5.86Y-3.525
X5.875Y-3.465
X5.88Y-3.2591
X5.886Y-3.571
X5.895Y-3.1997
X6.07Y-3.97
X6.1315Y-3.3545
X6.1615Y-3.8685
X6.1731Y-3.915
X6.185Y-3.5704
X6.2225Y-3.915
T2
X3.105Y-2.91
X3.1837Y-2.91
X3.5613Y-2.91
X3.64Y-2.91
T3
X5.9222Y-3.9995
X6.0206Y-3.9995
X6.0994Y-3.9995
X6.1978Y-3.9995
T4
X5.117Y-4.0772
X5.117Y-4.2544
X5.373Y-4.0772
X5.373Y-4.2544
T5
X4.7175Y-3.315
X4.7175Y-3.415
X4.76Y-4.03
X4.86Y-4.03
X5.69Y-2.885
X5.79Y-2.885
X5.89Y-2.885
X5.99Y-2.885
T6
X4.5929Y-2.8616
X4.7425Y-2.7631
X4.7425Y-2.96
T6
G00X5.8013Y-4.0428
M15
G01X5.8013Y-4.0034
M16
G05
G00X6.0797Y-4.1877
M15
G01X6.0403Y-4.1877
M16
G05
G00X6.3187Y-4.0034
M15
G01X6.3187Y-4.0428
M16
G05
M30
