%TF.GenerationSoftware,KiCad,Pcbnew,8.0.8*%
%TF.CreationDate,2025-03-11T03:54:01-05:00*%
%TF.ProjectId,finalproject,66696e61-6c70-4726-9f6a-6563742e6b69,rev?*%
%TF.SameCoordinates,Original*%
%TF.FileFunction,Soldermask,Top*%
%TF.FilePolarity,Negative*%
%FSLAX46Y46*%
G04 Gerber Fmt 4.6, Leading zero omitted, Abs format (unit mm)*
G04 Created by KiCad (PCBNEW 8.0.8) date 2025-03-11 03:54:01*
%MOMM*%
%LPD*%
G01*
G04 APERTURE LIST*
G04 Aperture macros list*
%AMRoundRect*
0 Rectangle with rounded corners*
0 $1 Rounding radius*
0 $2 $3 $4 $5 $6 $7 $8 $9 X,Y pos of 4 corners*
0 Add a 4 corners polygon primitive as box body*
4,1,4,$2,$3,$4,$5,$6,$7,$8,$9,$2,$3,0*
0 Add four circle primitives for the rounded corners*
1,1,$1+$1,$2,$3*
1,1,$1+$1,$4,$5*
1,1,$1+$1,$6,$7*
1,1,$1+$1,$8,$9*
0 Add four rect primitives between the rounded corners*
20,1,$1+$1,$2,$3,$4,$5,0*
20,1,$1+$1,$4,$5,$6,$7,0*
20,1,$1+$1,$6,$7,$8,$9,0*
20,1,$1+$1,$8,$9,$2,$3,0*%
G04 Aperture macros list end*
%ADD10RoundRect,0.062500X0.375000X0.062500X-0.375000X0.062500X-0.375000X-0.062500X0.375000X-0.062500X0*%
%ADD11RoundRect,0.062500X0.062500X0.375000X-0.062500X0.375000X-0.062500X-0.375000X0.062500X-0.375000X0*%
%ADD12R,3.450000X3.450000*%
%ADD13RoundRect,0.250000X-0.475000X0.337500X-0.475000X-0.337500X0.475000X-0.337500X0.475000X0.337500X0*%
%ADD14RoundRect,0.100500X-0.986500X-0.301500X0.986500X-0.301500X0.986500X0.301500X-0.986500X0.301500X0*%
%ADD15RoundRect,0.250000X-0.450000X0.350000X-0.450000X-0.350000X0.450000X-0.350000X0.450000X0.350000X0*%
%ADD16RoundRect,0.250000X0.650000X-1.000000X0.650000X1.000000X-0.650000X1.000000X-0.650000X-1.000000X0*%
%ADD17RoundRect,0.250000X0.475000X-0.337500X0.475000X0.337500X-0.475000X0.337500X-0.475000X-0.337500X0*%
%ADD18RoundRect,0.250000X-0.350000X-0.450000X0.350000X-0.450000X0.350000X0.450000X-0.350000X0.450000X0*%
%ADD19RoundRect,0.250000X0.350000X0.450000X-0.350000X0.450000X-0.350000X-0.450000X0.350000X-0.450000X0*%
%ADD20RoundRect,0.250000X0.450000X-0.350000X0.450000X0.350000X-0.450000X0.350000X-0.450000X-0.350000X0*%
%ADD21RoundRect,0.375000X-0.625000X-0.375000X0.625000X-0.375000X0.625000X0.375000X-0.625000X0.375000X0*%
%ADD22RoundRect,0.500000X-0.500000X-1.400000X0.500000X-1.400000X0.500000X1.400000X-0.500000X1.400000X0*%
%ADD23RoundRect,0.250000X0.625000X-0.350000X0.625000X0.350000X-0.625000X0.350000X-0.625000X-0.350000X0*%
%ADD24O,1.750000X1.200000*%
%ADD25RoundRect,0.250000X-1.000000X-0.650000X1.000000X-0.650000X1.000000X0.650000X-1.000000X0.650000X0*%
%ADD26O,1.900000X2.900000*%
%ADD27O,2.900000X1.900000*%
%ADD28C,1.300000*%
%ADD29R,1.300000X1.300000*%
%ADD30RoundRect,0.250000X-0.625000X0.350000X-0.625000X-0.350000X0.625000X-0.350000X0.625000X0.350000X0*%
%ADD31RoundRect,0.250000X-0.337500X-0.475000X0.337500X-0.475000X0.337500X0.475000X-0.337500X0.475000X0*%
%ADD32RoundRect,0.250000X0.337500X0.475000X-0.337500X0.475000X-0.337500X-0.475000X0.337500X-0.475000X0*%
%ADD33RoundRect,0.087500X0.287500X0.087500X-0.287500X0.087500X-0.287500X-0.087500X0.287500X-0.087500X0*%
%ADD34RoundRect,0.058000X-0.174000X0.529000X-0.174000X-0.529000X0.174000X-0.529000X0.174000X0.529000X0*%
%ADD35RoundRect,0.058000X-0.529000X0.174000X-0.529000X-0.174000X0.529000X-0.174000X0.529000X0.174000X0*%
%ADD36RoundRect,0.102000X-1.575000X1.575000X-1.575000X-1.575000X1.575000X-1.575000X1.575000X1.575000X0*%
%ADD37RoundRect,0.150000X-0.587500X-0.150000X0.587500X-0.150000X0.587500X0.150000X-0.587500X0.150000X0*%
%ADD38C,2.000000*%
G04 APERTURE END LIST*
D10*
%TO.C,MCU1*%
X174205500Y-102242000D03*
X174205500Y-101742000D03*
X174205500Y-101242000D03*
X174205500Y-100742000D03*
X174205500Y-100242000D03*
X174205500Y-99742000D03*
X174205500Y-99242000D03*
X174205500Y-98742000D03*
D11*
X173518000Y-98054500D03*
X173018000Y-98054500D03*
X172518000Y-98054500D03*
X172018000Y-98054500D03*
X171518000Y-98054500D03*
X171018000Y-98054500D03*
X170518000Y-98054500D03*
X170018000Y-98054500D03*
D10*
X169330500Y-98742000D03*
X169330500Y-99242000D03*
X169330500Y-99742000D03*
X169330500Y-100242000D03*
X169330500Y-100742000D03*
X169330500Y-101242000D03*
X169330500Y-101742000D03*
X169330500Y-102242000D03*
D11*
X170018000Y-102929500D03*
X170518000Y-102929500D03*
X171018000Y-102929500D03*
X171518000Y-102929500D03*
X172018000Y-102929500D03*
X172518000Y-102929500D03*
X173018000Y-102929500D03*
X173518000Y-102929500D03*
D12*
X171768000Y-100492000D03*
%TD*%
D13*
%TO.C,C11*%
X108966000Y-113622000D03*
X108966000Y-115697000D03*
%TD*%
D14*
%TO.C,GSR1*%
X123701000Y-84074000D03*
X123701000Y-85344000D03*
X123701000Y-86614000D03*
X123701000Y-87884000D03*
X123701000Y-89154000D03*
X123701000Y-90424000D03*
X123701000Y-91694000D03*
X128651000Y-91694000D03*
X128651000Y-90424000D03*
X128651000Y-89154000D03*
X128651000Y-87884000D03*
X128651000Y-86614000D03*
X128651000Y-85344000D03*
X128651000Y-84074000D03*
%TD*%
D13*
%TO.C,C9*%
X122023000Y-76600000D03*
X122023000Y-78675000D03*
%TD*%
D15*
%TO.C,R8*%
X136209000Y-82755000D03*
X136209000Y-84755000D03*
%TD*%
D16*
%TO.C,D1*%
X160839000Y-78331000D03*
X160839000Y-82331000D03*
%TD*%
D13*
%TO.C,C6*%
X97183000Y-113789000D03*
X97183000Y-115864000D03*
%TD*%
%TO.C,C7*%
X100838000Y-113749000D03*
X100838000Y-115824000D03*
%TD*%
D17*
%TO.C,C16*%
X97307000Y-107590500D03*
X97307000Y-105515500D03*
%TD*%
D15*
%TO.C,R10*%
X136082000Y-94296000D03*
X136082000Y-96296000D03*
%TD*%
D18*
%TO.C,R13*%
X171148000Y-106667000D03*
X173148000Y-106667000D03*
%TD*%
D19*
%TO.C,R15*%
X162274000Y-88506000D03*
X164274000Y-88506000D03*
%TD*%
D20*
%TO.C,R9*%
X136082000Y-101011000D03*
X136082000Y-99011000D03*
%TD*%
%TO.C,R3*%
X117498000Y-85247000D03*
X117498000Y-83247000D03*
%TD*%
D21*
%TO.C,3.3V_1.8V1*%
X100507000Y-104507000D03*
X100507000Y-106807000D03*
D22*
X106807000Y-106807000D03*
D21*
X100507000Y-109107000D03*
%TD*%
D23*
%TO.C,GSR_IN1*%
X109728000Y-93980000D03*
D24*
X109728000Y-91980000D03*
%TD*%
D20*
%TO.C,R12*%
X142178000Y-97836000D03*
X142178000Y-95836000D03*
%TD*%
D25*
%TO.C,D2*%
X182016000Y-82458000D03*
X178016000Y-82458000D03*
%TD*%
D20*
%TO.C,R7*%
X112841000Y-85104000D03*
X112841000Y-83104000D03*
%TD*%
D17*
%TO.C,C13*%
X179534000Y-102261500D03*
X179534000Y-100186500D03*
%TD*%
D13*
%TO.C,C12*%
X112903000Y-113495000D03*
X112903000Y-115570000D03*
%TD*%
D26*
%TO.C,USB1*%
X178218000Y-76362000D03*
D27*
X171648000Y-72182000D03*
D26*
X165078000Y-76362000D03*
D28*
X175148000Y-76962000D03*
X172648000Y-76962000D03*
X170648000Y-76962000D03*
D29*
X168148000Y-76962000D03*
%TD*%
D30*
%TO.C,SIG1*%
X149733000Y-95917000D03*
D24*
X149733000Y-97917000D03*
%TD*%
D31*
%TO.C,C14*%
X98687500Y-93792000D03*
X100762500Y-93792000D03*
%TD*%
D15*
%TO.C,R4*%
X117371000Y-72452000D03*
X117371000Y-74452000D03*
%TD*%
D32*
%TO.C,C17*%
X104440500Y-100076000D03*
X102365500Y-100076000D03*
%TD*%
D13*
%TO.C,C8*%
X125753000Y-76605500D03*
X125753000Y-78680500D03*
%TD*%
%TO.C,C3*%
X117371000Y-77748500D03*
X117371000Y-79823500D03*
%TD*%
D33*
%TO.C,HEART1*%
X126873000Y-110871000D03*
X126873000Y-110071000D03*
X126873000Y-109271000D03*
X126873000Y-108471000D03*
X126873000Y-107671000D03*
X126873000Y-106871000D03*
X126873000Y-106071000D03*
X124473000Y-106071000D03*
X124473000Y-106871000D03*
X124473000Y-107671000D03*
X124473000Y-108471000D03*
X124473000Y-109271000D03*
X124473000Y-110071000D03*
X124473000Y-110871000D03*
%TD*%
D15*
%TO.C,R5*%
X117498000Y-88073000D03*
X117498000Y-90073000D03*
%TD*%
D17*
%TO.C,C4*%
X142178000Y-92920500D03*
X142178000Y-90845500D03*
%TD*%
D18*
%TO.C,R16*%
X162147000Y-93332000D03*
X164147000Y-93332000D03*
%TD*%
D20*
%TO.C,R14*%
X118872000Y-111379000D03*
X118872000Y-109379000D03*
%TD*%
D25*
%TO.C,D3*%
X174047000Y-82458000D03*
X170047000Y-82458000D03*
%TD*%
D31*
%TO.C,C15*%
X98687500Y-84775000D03*
X100762500Y-84775000D03*
%TD*%
D13*
%TO.C,C10*%
X105029000Y-113749000D03*
X105029000Y-115824000D03*
%TD*%
D20*
%TO.C,R1*%
X132969000Y-108728000D03*
X132969000Y-106728000D03*
%TD*%
D13*
%TO.C,C5*%
X93345000Y-113789000D03*
X93345000Y-115864000D03*
%TD*%
D34*
%TO.C,UART-TO-USB1*%
X172886000Y-89014000D03*
X172386000Y-89014000D03*
X171886000Y-89014000D03*
X171386000Y-89014000D03*
X170886000Y-89014000D03*
X170386000Y-89014000D03*
X169886000Y-89014000D03*
D35*
X169016000Y-89884000D03*
X169016000Y-90384000D03*
X169016000Y-90884000D03*
X169016000Y-91384000D03*
X169016000Y-91884000D03*
X169016000Y-92384000D03*
X169016000Y-92884000D03*
D34*
X169886000Y-93754000D03*
X170386000Y-93754000D03*
X170886000Y-93754000D03*
X171386000Y-93754000D03*
X171886000Y-93754000D03*
X172386000Y-93754000D03*
X172886000Y-93754000D03*
D35*
X173756000Y-92884000D03*
X173756000Y-92384000D03*
X173756000Y-91884000D03*
X173756000Y-91384000D03*
X173756000Y-90884000D03*
X173756000Y-90384000D03*
X173756000Y-89884000D03*
D36*
X171386000Y-91384000D03*
%TD*%
D13*
%TO.C,C1*%
X117729000Y-104351000D03*
X117729000Y-106426000D03*
%TD*%
D30*
%TO.C,HEARTOUT1*%
X141012000Y-109109000D03*
D24*
X141012000Y-111109000D03*
%TD*%
D13*
%TO.C,C2*%
X114004000Y-104227500D03*
X114004000Y-106302500D03*
%TD*%
D37*
%TO.C,5V_3.3V1*%
X98709000Y-88458000D03*
X98709000Y-90358000D03*
X100584000Y-89408000D03*
%TD*%
D38*
%TO.C,SW1*%
X189813000Y-104612000D03*
X183313000Y-104612000D03*
X189813000Y-100112000D03*
X183313000Y-100112000D03*
%TD*%
D15*
%TO.C,R11*%
X136040000Y-88835000D03*
X136040000Y-90835000D03*
%TD*%
%TO.C,R6*%
X117498000Y-92645000D03*
X117498000Y-94645000D03*
%TD*%
%TO.C,R2*%
X132842000Y-110776000D03*
X132842000Y-112776000D03*
%TD*%
M02*
