%TF.GenerationSoftware,KiCad,Pcbnew,8.0.8*%
%TF.CreationDate,2025-03-11T03:54:01-05:00*%
%TF.ProjectId,finalproject,66696e61-6c70-4726-9f6a-6563742e6b69,rev?*%
%TF.SameCoordinates,Original*%
%TF.FileFunction,Legend,Top*%
%TF.FilePolarity,Positive*%
%FSLAX46Y46*%
G04 Gerber Fmt 4.6, Leading zero omitted, Abs format (unit mm)*
G04 Created by KiCad (PCBNEW 8.0.8) date 2025-03-11 03:54:01*
%MOMM*%
%LPD*%
G01*
G04 APERTURE LIST*
%ADD10C,0.300000*%
%ADD11C,0.150000*%
%ADD12C,0.120000*%
%ADD13C,0.127000*%
%ADD14C,0.200000*%
G04 APERTURE END LIST*
D10*
X96177510Y-72417282D02*
X96391796Y-72488710D01*
X96391796Y-72488710D02*
X96463225Y-72560139D01*
X96463225Y-72560139D02*
X96534653Y-72702996D01*
X96534653Y-72702996D02*
X96534653Y-72917282D01*
X96534653Y-72917282D02*
X96463225Y-73060139D01*
X96463225Y-73060139D02*
X96391796Y-73131568D01*
X96391796Y-73131568D02*
X96248939Y-73202996D01*
X96248939Y-73202996D02*
X95677510Y-73202996D01*
X95677510Y-73202996D02*
X95677510Y-71702996D01*
X95677510Y-71702996D02*
X96177510Y-71702996D01*
X96177510Y-71702996D02*
X96320368Y-71774425D01*
X96320368Y-71774425D02*
X96391796Y-71845853D01*
X96391796Y-71845853D02*
X96463225Y-71988710D01*
X96463225Y-71988710D02*
X96463225Y-72131568D01*
X96463225Y-72131568D02*
X96391796Y-72274425D01*
X96391796Y-72274425D02*
X96320368Y-72345853D01*
X96320368Y-72345853D02*
X96177510Y-72417282D01*
X96177510Y-72417282D02*
X95677510Y-72417282D01*
X97177510Y-73202996D02*
X97177510Y-72202996D01*
X97177510Y-71702996D02*
X97106082Y-71774425D01*
X97106082Y-71774425D02*
X97177510Y-71845853D01*
X97177510Y-71845853D02*
X97248939Y-71774425D01*
X97248939Y-71774425D02*
X97177510Y-71702996D01*
X97177510Y-71702996D02*
X97177510Y-71845853D01*
X98106082Y-73202996D02*
X97963225Y-73131568D01*
X97963225Y-73131568D02*
X97891796Y-73060139D01*
X97891796Y-73060139D02*
X97820368Y-72917282D01*
X97820368Y-72917282D02*
X97820368Y-72488710D01*
X97820368Y-72488710D02*
X97891796Y-72345853D01*
X97891796Y-72345853D02*
X97963225Y-72274425D01*
X97963225Y-72274425D02*
X98106082Y-72202996D01*
X98106082Y-72202996D02*
X98320368Y-72202996D01*
X98320368Y-72202996D02*
X98463225Y-72274425D01*
X98463225Y-72274425D02*
X98534654Y-72345853D01*
X98534654Y-72345853D02*
X98606082Y-72488710D01*
X98606082Y-72488710D02*
X98606082Y-72917282D01*
X98606082Y-72917282D02*
X98534654Y-73060139D01*
X98534654Y-73060139D02*
X98463225Y-73131568D01*
X98463225Y-73131568D02*
X98320368Y-73202996D01*
X98320368Y-73202996D02*
X98106082Y-73202996D01*
X99177511Y-73131568D02*
X99391797Y-73202996D01*
X99391797Y-73202996D02*
X99748939Y-73202996D01*
X99748939Y-73202996D02*
X99891797Y-73131568D01*
X99891797Y-73131568D02*
X99963225Y-73060139D01*
X99963225Y-73060139D02*
X100034654Y-72917282D01*
X100034654Y-72917282D02*
X100034654Y-72774425D01*
X100034654Y-72774425D02*
X99963225Y-72631568D01*
X99963225Y-72631568D02*
X99891797Y-72560139D01*
X99891797Y-72560139D02*
X99748939Y-72488710D01*
X99748939Y-72488710D02*
X99463225Y-72417282D01*
X99463225Y-72417282D02*
X99320368Y-72345853D01*
X99320368Y-72345853D02*
X99248939Y-72274425D01*
X99248939Y-72274425D02*
X99177511Y-72131568D01*
X99177511Y-72131568D02*
X99177511Y-71988710D01*
X99177511Y-71988710D02*
X99248939Y-71845853D01*
X99248939Y-71845853D02*
X99320368Y-71774425D01*
X99320368Y-71774425D02*
X99463225Y-71702996D01*
X99463225Y-71702996D02*
X99820368Y-71702996D01*
X99820368Y-71702996D02*
X100034654Y-71774425D01*
X100463225Y-72202996D02*
X101034653Y-72202996D01*
X100677510Y-71702996D02*
X100677510Y-72988710D01*
X100677510Y-72988710D02*
X100748939Y-73131568D01*
X100748939Y-73131568D02*
X100891796Y-73202996D01*
X100891796Y-73202996D02*
X101034653Y-73202996D01*
X102106082Y-73131568D02*
X101963225Y-73202996D01*
X101963225Y-73202996D02*
X101677511Y-73202996D01*
X101677511Y-73202996D02*
X101534653Y-73131568D01*
X101534653Y-73131568D02*
X101463225Y-72988710D01*
X101463225Y-72988710D02*
X101463225Y-72417282D01*
X101463225Y-72417282D02*
X101534653Y-72274425D01*
X101534653Y-72274425D02*
X101677511Y-72202996D01*
X101677511Y-72202996D02*
X101963225Y-72202996D01*
X101963225Y-72202996D02*
X102106082Y-72274425D01*
X102106082Y-72274425D02*
X102177511Y-72417282D01*
X102177511Y-72417282D02*
X102177511Y-72560139D01*
X102177511Y-72560139D02*
X101463225Y-72702996D01*
X103463225Y-73202996D02*
X103463225Y-72417282D01*
X103463225Y-72417282D02*
X103391796Y-72274425D01*
X103391796Y-72274425D02*
X103248939Y-72202996D01*
X103248939Y-72202996D02*
X102963225Y-72202996D01*
X102963225Y-72202996D02*
X102820367Y-72274425D01*
X103463225Y-73131568D02*
X103320367Y-73202996D01*
X103320367Y-73202996D02*
X102963225Y-73202996D01*
X102963225Y-73202996D02*
X102820367Y-73131568D01*
X102820367Y-73131568D02*
X102748939Y-72988710D01*
X102748939Y-72988710D02*
X102748939Y-72845853D01*
X102748939Y-72845853D02*
X102820367Y-72702996D01*
X102820367Y-72702996D02*
X102963225Y-72631568D01*
X102963225Y-72631568D02*
X103320367Y-72631568D01*
X103320367Y-72631568D02*
X103463225Y-72560139D01*
X104820368Y-73202996D02*
X104820368Y-71702996D01*
X104820368Y-73131568D02*
X104677510Y-73202996D01*
X104677510Y-73202996D02*
X104391796Y-73202996D01*
X104391796Y-73202996D02*
X104248939Y-73131568D01*
X104248939Y-73131568D02*
X104177510Y-73060139D01*
X104177510Y-73060139D02*
X104106082Y-72917282D01*
X104106082Y-72917282D02*
X104106082Y-72488710D01*
X104106082Y-72488710D02*
X104177510Y-72345853D01*
X104177510Y-72345853D02*
X104248939Y-72274425D01*
X104248939Y-72274425D02*
X104391796Y-72202996D01*
X104391796Y-72202996D02*
X104677510Y-72202996D01*
X104677510Y-72202996D02*
X104820368Y-72274425D01*
X105391796Y-72202996D02*
X105748939Y-73202996D01*
X106106082Y-72202996D02*
X105748939Y-73202996D01*
X105748939Y-73202996D02*
X105606082Y-73560139D01*
X105606082Y-73560139D02*
X105534653Y-73631568D01*
X105534653Y-73631568D02*
X105391796Y-73702996D01*
X107606082Y-71702996D02*
X108106082Y-73202996D01*
X108106082Y-73202996D02*
X108606082Y-71702996D01*
X109891796Y-73202996D02*
X109034653Y-73202996D01*
X109463224Y-73202996D02*
X109463224Y-71702996D01*
X109463224Y-71702996D02*
X109320367Y-71917282D01*
X109320367Y-71917282D02*
X109177510Y-72060139D01*
X109177510Y-72060139D02*
X109034653Y-72131568D01*
X95606082Y-74260769D02*
X95677510Y-74189341D01*
X95677510Y-74189341D02*
X95820368Y-74117912D01*
X95820368Y-74117912D02*
X96177510Y-74117912D01*
X96177510Y-74117912D02*
X96320368Y-74189341D01*
X96320368Y-74189341D02*
X96391796Y-74260769D01*
X96391796Y-74260769D02*
X96463225Y-74403626D01*
X96463225Y-74403626D02*
X96463225Y-74546484D01*
X96463225Y-74546484D02*
X96391796Y-74760769D01*
X96391796Y-74760769D02*
X95534653Y-75617912D01*
X95534653Y-75617912D02*
X96463225Y-75617912D01*
X97391796Y-74117912D02*
X97534653Y-74117912D01*
X97534653Y-74117912D02*
X97677510Y-74189341D01*
X97677510Y-74189341D02*
X97748939Y-74260769D01*
X97748939Y-74260769D02*
X97820367Y-74403626D01*
X97820367Y-74403626D02*
X97891796Y-74689341D01*
X97891796Y-74689341D02*
X97891796Y-75046484D01*
X97891796Y-75046484D02*
X97820367Y-75332198D01*
X97820367Y-75332198D02*
X97748939Y-75475055D01*
X97748939Y-75475055D02*
X97677510Y-75546484D01*
X97677510Y-75546484D02*
X97534653Y-75617912D01*
X97534653Y-75617912D02*
X97391796Y-75617912D01*
X97391796Y-75617912D02*
X97248939Y-75546484D01*
X97248939Y-75546484D02*
X97177510Y-75475055D01*
X97177510Y-75475055D02*
X97106081Y-75332198D01*
X97106081Y-75332198D02*
X97034653Y-75046484D01*
X97034653Y-75046484D02*
X97034653Y-74689341D01*
X97034653Y-74689341D02*
X97106081Y-74403626D01*
X97106081Y-74403626D02*
X97177510Y-74260769D01*
X97177510Y-74260769D02*
X97248939Y-74189341D01*
X97248939Y-74189341D02*
X97391796Y-74117912D01*
X98463224Y-74260769D02*
X98534652Y-74189341D01*
X98534652Y-74189341D02*
X98677510Y-74117912D01*
X98677510Y-74117912D02*
X99034652Y-74117912D01*
X99034652Y-74117912D02*
X99177510Y-74189341D01*
X99177510Y-74189341D02*
X99248938Y-74260769D01*
X99248938Y-74260769D02*
X99320367Y-74403626D01*
X99320367Y-74403626D02*
X99320367Y-74546484D01*
X99320367Y-74546484D02*
X99248938Y-74760769D01*
X99248938Y-74760769D02*
X98391795Y-75617912D01*
X98391795Y-75617912D02*
X99320367Y-75617912D01*
X100606081Y-74617912D02*
X100606081Y-75617912D01*
X100248938Y-74046484D02*
X99891795Y-75117912D01*
X99891795Y-75117912D02*
X100820366Y-75117912D01*
X101391794Y-75046484D02*
X102534652Y-75046484D01*
X103534652Y-74117912D02*
X103677509Y-74117912D01*
X103677509Y-74117912D02*
X103820366Y-74189341D01*
X103820366Y-74189341D02*
X103891795Y-74260769D01*
X103891795Y-74260769D02*
X103963223Y-74403626D01*
X103963223Y-74403626D02*
X104034652Y-74689341D01*
X104034652Y-74689341D02*
X104034652Y-75046484D01*
X104034652Y-75046484D02*
X103963223Y-75332198D01*
X103963223Y-75332198D02*
X103891795Y-75475055D01*
X103891795Y-75475055D02*
X103820366Y-75546484D01*
X103820366Y-75546484D02*
X103677509Y-75617912D01*
X103677509Y-75617912D02*
X103534652Y-75617912D01*
X103534652Y-75617912D02*
X103391795Y-75546484D01*
X103391795Y-75546484D02*
X103320366Y-75475055D01*
X103320366Y-75475055D02*
X103248937Y-75332198D01*
X103248937Y-75332198D02*
X103177509Y-75046484D01*
X103177509Y-75046484D02*
X103177509Y-74689341D01*
X103177509Y-74689341D02*
X103248937Y-74403626D01*
X103248937Y-74403626D02*
X103320366Y-74260769D01*
X103320366Y-74260769D02*
X103391795Y-74189341D01*
X103391795Y-74189341D02*
X103534652Y-74117912D01*
X104534651Y-74117912D02*
X105463223Y-74117912D01*
X105463223Y-74117912D02*
X104963223Y-74689341D01*
X104963223Y-74689341D02*
X105177508Y-74689341D01*
X105177508Y-74689341D02*
X105320366Y-74760769D01*
X105320366Y-74760769D02*
X105391794Y-74832198D01*
X105391794Y-74832198D02*
X105463223Y-74975055D01*
X105463223Y-74975055D02*
X105463223Y-75332198D01*
X105463223Y-75332198D02*
X105391794Y-75475055D01*
X105391794Y-75475055D02*
X105320366Y-75546484D01*
X105320366Y-75546484D02*
X105177508Y-75617912D01*
X105177508Y-75617912D02*
X104748937Y-75617912D01*
X104748937Y-75617912D02*
X104606080Y-75546484D01*
X104606080Y-75546484D02*
X104534651Y-75475055D01*
X106106079Y-75046484D02*
X107248937Y-75046484D01*
X108248937Y-74117912D02*
X108391794Y-74117912D01*
X108391794Y-74117912D02*
X108534651Y-74189341D01*
X108534651Y-74189341D02*
X108606080Y-74260769D01*
X108606080Y-74260769D02*
X108677508Y-74403626D01*
X108677508Y-74403626D02*
X108748937Y-74689341D01*
X108748937Y-74689341D02*
X108748937Y-75046484D01*
X108748937Y-75046484D02*
X108677508Y-75332198D01*
X108677508Y-75332198D02*
X108606080Y-75475055D01*
X108606080Y-75475055D02*
X108534651Y-75546484D01*
X108534651Y-75546484D02*
X108391794Y-75617912D01*
X108391794Y-75617912D02*
X108248937Y-75617912D01*
X108248937Y-75617912D02*
X108106080Y-75546484D01*
X108106080Y-75546484D02*
X108034651Y-75475055D01*
X108034651Y-75475055D02*
X107963222Y-75332198D01*
X107963222Y-75332198D02*
X107891794Y-75046484D01*
X107891794Y-75046484D02*
X107891794Y-74689341D01*
X107891794Y-74689341D02*
X107963222Y-74403626D01*
X107963222Y-74403626D02*
X108034651Y-74260769D01*
X108034651Y-74260769D02*
X108106080Y-74189341D01*
X108106080Y-74189341D02*
X108248937Y-74117912D01*
X109606079Y-74760769D02*
X109463222Y-74689341D01*
X109463222Y-74689341D02*
X109391793Y-74617912D01*
X109391793Y-74617912D02*
X109320365Y-74475055D01*
X109320365Y-74475055D02*
X109320365Y-74403626D01*
X109320365Y-74403626D02*
X109391793Y-74260769D01*
X109391793Y-74260769D02*
X109463222Y-74189341D01*
X109463222Y-74189341D02*
X109606079Y-74117912D01*
X109606079Y-74117912D02*
X109891793Y-74117912D01*
X109891793Y-74117912D02*
X110034651Y-74189341D01*
X110034651Y-74189341D02*
X110106079Y-74260769D01*
X110106079Y-74260769D02*
X110177508Y-74403626D01*
X110177508Y-74403626D02*
X110177508Y-74475055D01*
X110177508Y-74475055D02*
X110106079Y-74617912D01*
X110106079Y-74617912D02*
X110034651Y-74689341D01*
X110034651Y-74689341D02*
X109891793Y-74760769D01*
X109891793Y-74760769D02*
X109606079Y-74760769D01*
X109606079Y-74760769D02*
X109463222Y-74832198D01*
X109463222Y-74832198D02*
X109391793Y-74903626D01*
X109391793Y-74903626D02*
X109320365Y-75046484D01*
X109320365Y-75046484D02*
X109320365Y-75332198D01*
X109320365Y-75332198D02*
X109391793Y-75475055D01*
X109391793Y-75475055D02*
X109463222Y-75546484D01*
X109463222Y-75546484D02*
X109606079Y-75617912D01*
X109606079Y-75617912D02*
X109891793Y-75617912D01*
X109891793Y-75617912D02*
X110034651Y-75546484D01*
X110034651Y-75546484D02*
X110106079Y-75475055D01*
X110106079Y-75475055D02*
X110177508Y-75332198D01*
X110177508Y-75332198D02*
X110177508Y-75046484D01*
X110177508Y-75046484D02*
X110106079Y-74903626D01*
X110106079Y-74903626D02*
X110034651Y-74832198D01*
X110034651Y-74832198D02*
X109891793Y-74760769D01*
X95463225Y-76532828D02*
X96320368Y-76532828D01*
X95891796Y-78032828D02*
X95891796Y-76532828D01*
X97391796Y-77961400D02*
X97248939Y-78032828D01*
X97248939Y-78032828D02*
X96963225Y-78032828D01*
X96963225Y-78032828D02*
X96820367Y-77961400D01*
X96820367Y-77961400D02*
X96748939Y-77818542D01*
X96748939Y-77818542D02*
X96748939Y-77247114D01*
X96748939Y-77247114D02*
X96820367Y-77104257D01*
X96820367Y-77104257D02*
X96963225Y-77032828D01*
X96963225Y-77032828D02*
X97248939Y-77032828D01*
X97248939Y-77032828D02*
X97391796Y-77104257D01*
X97391796Y-77104257D02*
X97463225Y-77247114D01*
X97463225Y-77247114D02*
X97463225Y-77389971D01*
X97463225Y-77389971D02*
X96748939Y-77532828D01*
X98748939Y-78032828D02*
X98748939Y-77247114D01*
X98748939Y-77247114D02*
X98677510Y-77104257D01*
X98677510Y-77104257D02*
X98534653Y-77032828D01*
X98534653Y-77032828D02*
X98248939Y-77032828D01*
X98248939Y-77032828D02*
X98106081Y-77104257D01*
X98748939Y-77961400D02*
X98606081Y-78032828D01*
X98606081Y-78032828D02*
X98248939Y-78032828D01*
X98248939Y-78032828D02*
X98106081Y-77961400D01*
X98106081Y-77961400D02*
X98034653Y-77818542D01*
X98034653Y-77818542D02*
X98034653Y-77675685D01*
X98034653Y-77675685D02*
X98106081Y-77532828D01*
X98106081Y-77532828D02*
X98248939Y-77461400D01*
X98248939Y-77461400D02*
X98606081Y-77461400D01*
X98606081Y-77461400D02*
X98748939Y-77389971D01*
X99463224Y-78032828D02*
X99463224Y-77032828D01*
X99463224Y-77175685D02*
X99534653Y-77104257D01*
X99534653Y-77104257D02*
X99677510Y-77032828D01*
X99677510Y-77032828D02*
X99891796Y-77032828D01*
X99891796Y-77032828D02*
X100034653Y-77104257D01*
X100034653Y-77104257D02*
X100106082Y-77247114D01*
X100106082Y-77247114D02*
X100106082Y-78032828D01*
X100106082Y-77247114D02*
X100177510Y-77104257D01*
X100177510Y-77104257D02*
X100320367Y-77032828D01*
X100320367Y-77032828D02*
X100534653Y-77032828D01*
X100534653Y-77032828D02*
X100677510Y-77104257D01*
X100677510Y-77104257D02*
X100748939Y-77247114D01*
X100748939Y-77247114D02*
X100748939Y-78032828D01*
X103248939Y-77032828D02*
X103248939Y-78032828D01*
X102891796Y-76461400D02*
X102534653Y-77532828D01*
X102534653Y-77532828D02*
X103463224Y-77532828D01*
X104677510Y-76532828D02*
X104391795Y-76532828D01*
X104391795Y-76532828D02*
X104248938Y-76604257D01*
X104248938Y-76604257D02*
X104177510Y-76675685D01*
X104177510Y-76675685D02*
X104034652Y-76889971D01*
X104034652Y-76889971D02*
X103963224Y-77175685D01*
X103963224Y-77175685D02*
X103963224Y-77747114D01*
X103963224Y-77747114D02*
X104034652Y-77889971D01*
X104034652Y-77889971D02*
X104106081Y-77961400D01*
X104106081Y-77961400D02*
X104248938Y-78032828D01*
X104248938Y-78032828D02*
X104534652Y-78032828D01*
X104534652Y-78032828D02*
X104677510Y-77961400D01*
X104677510Y-77961400D02*
X104748938Y-77889971D01*
X104748938Y-77889971D02*
X104820367Y-77747114D01*
X104820367Y-77747114D02*
X104820367Y-77389971D01*
X104820367Y-77389971D02*
X104748938Y-77247114D01*
X104748938Y-77247114D02*
X104677510Y-77175685D01*
X104677510Y-77175685D02*
X104534652Y-77104257D01*
X104534652Y-77104257D02*
X104248938Y-77104257D01*
X104248938Y-77104257D02*
X104106081Y-77175685D01*
X104106081Y-77175685D02*
X104034652Y-77247114D01*
X104034652Y-77247114D02*
X103963224Y-77389971D01*
D11*
X169934667Y-104776819D02*
X169934667Y-103776819D01*
X169934667Y-103776819D02*
X170268000Y-104491104D01*
X170268000Y-104491104D02*
X170601333Y-103776819D01*
X170601333Y-103776819D02*
X170601333Y-104776819D01*
X171648952Y-104681580D02*
X171601333Y-104729200D01*
X171601333Y-104729200D02*
X171458476Y-104776819D01*
X171458476Y-104776819D02*
X171363238Y-104776819D01*
X171363238Y-104776819D02*
X171220381Y-104729200D01*
X171220381Y-104729200D02*
X171125143Y-104633961D01*
X171125143Y-104633961D02*
X171077524Y-104538723D01*
X171077524Y-104538723D02*
X171029905Y-104348247D01*
X171029905Y-104348247D02*
X171029905Y-104205390D01*
X171029905Y-104205390D02*
X171077524Y-104014914D01*
X171077524Y-104014914D02*
X171125143Y-103919676D01*
X171125143Y-103919676D02*
X171220381Y-103824438D01*
X171220381Y-103824438D02*
X171363238Y-103776819D01*
X171363238Y-103776819D02*
X171458476Y-103776819D01*
X171458476Y-103776819D02*
X171601333Y-103824438D01*
X171601333Y-103824438D02*
X171648952Y-103872057D01*
X172077524Y-103776819D02*
X172077524Y-104586342D01*
X172077524Y-104586342D02*
X172125143Y-104681580D01*
X172125143Y-104681580D02*
X172172762Y-104729200D01*
X172172762Y-104729200D02*
X172268000Y-104776819D01*
X172268000Y-104776819D02*
X172458476Y-104776819D01*
X172458476Y-104776819D02*
X172553714Y-104729200D01*
X172553714Y-104729200D02*
X172601333Y-104681580D01*
X172601333Y-104681580D02*
X172648952Y-104586342D01*
X172648952Y-104586342D02*
X172648952Y-103776819D01*
X173648952Y-104776819D02*
X173077524Y-104776819D01*
X173363238Y-104776819D02*
X173363238Y-103776819D01*
X173363238Y-103776819D02*
X173268000Y-103919676D01*
X173268000Y-103919676D02*
X173172762Y-104014914D01*
X173172762Y-104014914D02*
X173077524Y-104062533D01*
X111005580Y-115302357D02*
X111053200Y-115349976D01*
X111053200Y-115349976D02*
X111100819Y-115492833D01*
X111100819Y-115492833D02*
X111100819Y-115588071D01*
X111100819Y-115588071D02*
X111053200Y-115730928D01*
X111053200Y-115730928D02*
X110957961Y-115826166D01*
X110957961Y-115826166D02*
X110862723Y-115873785D01*
X110862723Y-115873785D02*
X110672247Y-115921404D01*
X110672247Y-115921404D02*
X110529390Y-115921404D01*
X110529390Y-115921404D02*
X110338914Y-115873785D01*
X110338914Y-115873785D02*
X110243676Y-115826166D01*
X110243676Y-115826166D02*
X110148438Y-115730928D01*
X110148438Y-115730928D02*
X110100819Y-115588071D01*
X110100819Y-115588071D02*
X110100819Y-115492833D01*
X110100819Y-115492833D02*
X110148438Y-115349976D01*
X110148438Y-115349976D02*
X110196057Y-115302357D01*
X111100819Y-114349976D02*
X111100819Y-114921404D01*
X111100819Y-114635690D02*
X110100819Y-114635690D01*
X110100819Y-114635690D02*
X110243676Y-114730928D01*
X110243676Y-114730928D02*
X110338914Y-114826166D01*
X110338914Y-114826166D02*
X110386533Y-114921404D01*
X111100819Y-113397595D02*
X111100819Y-113969023D01*
X111100819Y-113683309D02*
X110100819Y-113683309D01*
X110100819Y-113683309D02*
X110243676Y-113778547D01*
X110243676Y-113778547D02*
X110338914Y-113873785D01*
X110338914Y-113873785D02*
X110386533Y-113969023D01*
X125177523Y-81417438D02*
X125082285Y-81369819D01*
X125082285Y-81369819D02*
X124939428Y-81369819D01*
X124939428Y-81369819D02*
X124796571Y-81417438D01*
X124796571Y-81417438D02*
X124701333Y-81512676D01*
X124701333Y-81512676D02*
X124653714Y-81607914D01*
X124653714Y-81607914D02*
X124606095Y-81798390D01*
X124606095Y-81798390D02*
X124606095Y-81941247D01*
X124606095Y-81941247D02*
X124653714Y-82131723D01*
X124653714Y-82131723D02*
X124701333Y-82226961D01*
X124701333Y-82226961D02*
X124796571Y-82322200D01*
X124796571Y-82322200D02*
X124939428Y-82369819D01*
X124939428Y-82369819D02*
X125034666Y-82369819D01*
X125034666Y-82369819D02*
X125177523Y-82322200D01*
X125177523Y-82322200D02*
X125225142Y-82274580D01*
X125225142Y-82274580D02*
X125225142Y-81941247D01*
X125225142Y-81941247D02*
X125034666Y-81941247D01*
X125606095Y-82322200D02*
X125748952Y-82369819D01*
X125748952Y-82369819D02*
X125987047Y-82369819D01*
X125987047Y-82369819D02*
X126082285Y-82322200D01*
X126082285Y-82322200D02*
X126129904Y-82274580D01*
X126129904Y-82274580D02*
X126177523Y-82179342D01*
X126177523Y-82179342D02*
X126177523Y-82084104D01*
X126177523Y-82084104D02*
X126129904Y-81988866D01*
X126129904Y-81988866D02*
X126082285Y-81941247D01*
X126082285Y-81941247D02*
X125987047Y-81893628D01*
X125987047Y-81893628D02*
X125796571Y-81846009D01*
X125796571Y-81846009D02*
X125701333Y-81798390D01*
X125701333Y-81798390D02*
X125653714Y-81750771D01*
X125653714Y-81750771D02*
X125606095Y-81655533D01*
X125606095Y-81655533D02*
X125606095Y-81560295D01*
X125606095Y-81560295D02*
X125653714Y-81465057D01*
X125653714Y-81465057D02*
X125701333Y-81417438D01*
X125701333Y-81417438D02*
X125796571Y-81369819D01*
X125796571Y-81369819D02*
X126034666Y-81369819D01*
X126034666Y-81369819D02*
X126177523Y-81417438D01*
X127177523Y-82369819D02*
X126844190Y-81893628D01*
X126606095Y-82369819D02*
X126606095Y-81369819D01*
X126606095Y-81369819D02*
X126987047Y-81369819D01*
X126987047Y-81369819D02*
X127082285Y-81417438D01*
X127082285Y-81417438D02*
X127129904Y-81465057D01*
X127129904Y-81465057D02*
X127177523Y-81560295D01*
X127177523Y-81560295D02*
X127177523Y-81703152D01*
X127177523Y-81703152D02*
X127129904Y-81798390D01*
X127129904Y-81798390D02*
X127082285Y-81846009D01*
X127082285Y-81846009D02*
X126987047Y-81893628D01*
X126987047Y-81893628D02*
X126606095Y-81893628D01*
X128129904Y-82369819D02*
X127558476Y-82369819D01*
X127844190Y-82369819D02*
X127844190Y-81369819D01*
X127844190Y-81369819D02*
X127748952Y-81512676D01*
X127748952Y-81512676D02*
X127653714Y-81607914D01*
X127653714Y-81607914D02*
X127558476Y-81655533D01*
X124062580Y-77804166D02*
X124110200Y-77851785D01*
X124110200Y-77851785D02*
X124157819Y-77994642D01*
X124157819Y-77994642D02*
X124157819Y-78089880D01*
X124157819Y-78089880D02*
X124110200Y-78232737D01*
X124110200Y-78232737D02*
X124014961Y-78327975D01*
X124014961Y-78327975D02*
X123919723Y-78375594D01*
X123919723Y-78375594D02*
X123729247Y-78423213D01*
X123729247Y-78423213D02*
X123586390Y-78423213D01*
X123586390Y-78423213D02*
X123395914Y-78375594D01*
X123395914Y-78375594D02*
X123300676Y-78327975D01*
X123300676Y-78327975D02*
X123205438Y-78232737D01*
X123205438Y-78232737D02*
X123157819Y-78089880D01*
X123157819Y-78089880D02*
X123157819Y-77994642D01*
X123157819Y-77994642D02*
X123205438Y-77851785D01*
X123205438Y-77851785D02*
X123253057Y-77804166D01*
X124157819Y-77327975D02*
X124157819Y-77137499D01*
X124157819Y-77137499D02*
X124110200Y-77042261D01*
X124110200Y-77042261D02*
X124062580Y-76994642D01*
X124062580Y-76994642D02*
X123919723Y-76899404D01*
X123919723Y-76899404D02*
X123729247Y-76851785D01*
X123729247Y-76851785D02*
X123348295Y-76851785D01*
X123348295Y-76851785D02*
X123253057Y-76899404D01*
X123253057Y-76899404D02*
X123205438Y-76947023D01*
X123205438Y-76947023D02*
X123157819Y-77042261D01*
X123157819Y-77042261D02*
X123157819Y-77232737D01*
X123157819Y-77232737D02*
X123205438Y-77327975D01*
X123205438Y-77327975D02*
X123253057Y-77375594D01*
X123253057Y-77375594D02*
X123348295Y-77423213D01*
X123348295Y-77423213D02*
X123586390Y-77423213D01*
X123586390Y-77423213D02*
X123681628Y-77375594D01*
X123681628Y-77375594D02*
X123729247Y-77327975D01*
X123729247Y-77327975D02*
X123776866Y-77232737D01*
X123776866Y-77232737D02*
X123776866Y-77042261D01*
X123776866Y-77042261D02*
X123729247Y-76947023D01*
X123729247Y-76947023D02*
X123681628Y-76899404D01*
X123681628Y-76899404D02*
X123586390Y-76851785D01*
X138313819Y-83921666D02*
X137837628Y-84254999D01*
X138313819Y-84493094D02*
X137313819Y-84493094D01*
X137313819Y-84493094D02*
X137313819Y-84112142D01*
X137313819Y-84112142D02*
X137361438Y-84016904D01*
X137361438Y-84016904D02*
X137409057Y-83969285D01*
X137409057Y-83969285D02*
X137504295Y-83921666D01*
X137504295Y-83921666D02*
X137647152Y-83921666D01*
X137647152Y-83921666D02*
X137742390Y-83969285D01*
X137742390Y-83969285D02*
X137790009Y-84016904D01*
X137790009Y-84016904D02*
X137837628Y-84112142D01*
X137837628Y-84112142D02*
X137837628Y-84493094D01*
X137742390Y-83350237D02*
X137694771Y-83445475D01*
X137694771Y-83445475D02*
X137647152Y-83493094D01*
X137647152Y-83493094D02*
X137551914Y-83540713D01*
X137551914Y-83540713D02*
X137504295Y-83540713D01*
X137504295Y-83540713D02*
X137409057Y-83493094D01*
X137409057Y-83493094D02*
X137361438Y-83445475D01*
X137361438Y-83445475D02*
X137313819Y-83350237D01*
X137313819Y-83350237D02*
X137313819Y-83159761D01*
X137313819Y-83159761D02*
X137361438Y-83064523D01*
X137361438Y-83064523D02*
X137409057Y-83016904D01*
X137409057Y-83016904D02*
X137504295Y-82969285D01*
X137504295Y-82969285D02*
X137551914Y-82969285D01*
X137551914Y-82969285D02*
X137647152Y-83016904D01*
X137647152Y-83016904D02*
X137694771Y-83064523D01*
X137694771Y-83064523D02*
X137742390Y-83159761D01*
X137742390Y-83159761D02*
X137742390Y-83350237D01*
X137742390Y-83350237D02*
X137790009Y-83445475D01*
X137790009Y-83445475D02*
X137837628Y-83493094D01*
X137837628Y-83493094D02*
X137932866Y-83540713D01*
X137932866Y-83540713D02*
X138123342Y-83540713D01*
X138123342Y-83540713D02*
X138218580Y-83493094D01*
X138218580Y-83493094D02*
X138266200Y-83445475D01*
X138266200Y-83445475D02*
X138313819Y-83350237D01*
X138313819Y-83350237D02*
X138313819Y-83159761D01*
X138313819Y-83159761D02*
X138266200Y-83064523D01*
X138266200Y-83064523D02*
X138218580Y-83016904D01*
X138218580Y-83016904D02*
X138123342Y-82969285D01*
X138123342Y-82969285D02*
X137932866Y-82969285D01*
X137932866Y-82969285D02*
X137837628Y-83016904D01*
X137837628Y-83016904D02*
X137790009Y-83064523D01*
X137790009Y-83064523D02*
X137742390Y-83159761D01*
X157868819Y-81172094D02*
X156868819Y-81172094D01*
X156868819Y-81172094D02*
X156868819Y-80933999D01*
X156868819Y-80933999D02*
X156916438Y-80791142D01*
X156916438Y-80791142D02*
X157011676Y-80695904D01*
X157011676Y-80695904D02*
X157106914Y-80648285D01*
X157106914Y-80648285D02*
X157297390Y-80600666D01*
X157297390Y-80600666D02*
X157440247Y-80600666D01*
X157440247Y-80600666D02*
X157630723Y-80648285D01*
X157630723Y-80648285D02*
X157725961Y-80695904D01*
X157725961Y-80695904D02*
X157821200Y-80791142D01*
X157821200Y-80791142D02*
X157868819Y-80933999D01*
X157868819Y-80933999D02*
X157868819Y-81172094D01*
X157868819Y-79648285D02*
X157868819Y-80219713D01*
X157868819Y-79933999D02*
X156868819Y-79933999D01*
X156868819Y-79933999D02*
X157011676Y-80029237D01*
X157011676Y-80029237D02*
X157106914Y-80124475D01*
X157106914Y-80124475D02*
X157154533Y-80219713D01*
X99222580Y-114993166D02*
X99270200Y-115040785D01*
X99270200Y-115040785D02*
X99317819Y-115183642D01*
X99317819Y-115183642D02*
X99317819Y-115278880D01*
X99317819Y-115278880D02*
X99270200Y-115421737D01*
X99270200Y-115421737D02*
X99174961Y-115516975D01*
X99174961Y-115516975D02*
X99079723Y-115564594D01*
X99079723Y-115564594D02*
X98889247Y-115612213D01*
X98889247Y-115612213D02*
X98746390Y-115612213D01*
X98746390Y-115612213D02*
X98555914Y-115564594D01*
X98555914Y-115564594D02*
X98460676Y-115516975D01*
X98460676Y-115516975D02*
X98365438Y-115421737D01*
X98365438Y-115421737D02*
X98317819Y-115278880D01*
X98317819Y-115278880D02*
X98317819Y-115183642D01*
X98317819Y-115183642D02*
X98365438Y-115040785D01*
X98365438Y-115040785D02*
X98413057Y-114993166D01*
X98317819Y-114136023D02*
X98317819Y-114326499D01*
X98317819Y-114326499D02*
X98365438Y-114421737D01*
X98365438Y-114421737D02*
X98413057Y-114469356D01*
X98413057Y-114469356D02*
X98555914Y-114564594D01*
X98555914Y-114564594D02*
X98746390Y-114612213D01*
X98746390Y-114612213D02*
X99127342Y-114612213D01*
X99127342Y-114612213D02*
X99222580Y-114564594D01*
X99222580Y-114564594D02*
X99270200Y-114516975D01*
X99270200Y-114516975D02*
X99317819Y-114421737D01*
X99317819Y-114421737D02*
X99317819Y-114231261D01*
X99317819Y-114231261D02*
X99270200Y-114136023D01*
X99270200Y-114136023D02*
X99222580Y-114088404D01*
X99222580Y-114088404D02*
X99127342Y-114040785D01*
X99127342Y-114040785D02*
X98889247Y-114040785D01*
X98889247Y-114040785D02*
X98794009Y-114088404D01*
X98794009Y-114088404D02*
X98746390Y-114136023D01*
X98746390Y-114136023D02*
X98698771Y-114231261D01*
X98698771Y-114231261D02*
X98698771Y-114421737D01*
X98698771Y-114421737D02*
X98746390Y-114516975D01*
X98746390Y-114516975D02*
X98794009Y-114564594D01*
X98794009Y-114564594D02*
X98889247Y-114612213D01*
X102877580Y-114953166D02*
X102925200Y-115000785D01*
X102925200Y-115000785D02*
X102972819Y-115143642D01*
X102972819Y-115143642D02*
X102972819Y-115238880D01*
X102972819Y-115238880D02*
X102925200Y-115381737D01*
X102925200Y-115381737D02*
X102829961Y-115476975D01*
X102829961Y-115476975D02*
X102734723Y-115524594D01*
X102734723Y-115524594D02*
X102544247Y-115572213D01*
X102544247Y-115572213D02*
X102401390Y-115572213D01*
X102401390Y-115572213D02*
X102210914Y-115524594D01*
X102210914Y-115524594D02*
X102115676Y-115476975D01*
X102115676Y-115476975D02*
X102020438Y-115381737D01*
X102020438Y-115381737D02*
X101972819Y-115238880D01*
X101972819Y-115238880D02*
X101972819Y-115143642D01*
X101972819Y-115143642D02*
X102020438Y-115000785D01*
X102020438Y-115000785D02*
X102068057Y-114953166D01*
X101972819Y-114619832D02*
X101972819Y-113953166D01*
X101972819Y-113953166D02*
X102972819Y-114381737D01*
X95986580Y-107195857D02*
X96034200Y-107243476D01*
X96034200Y-107243476D02*
X96081819Y-107386333D01*
X96081819Y-107386333D02*
X96081819Y-107481571D01*
X96081819Y-107481571D02*
X96034200Y-107624428D01*
X96034200Y-107624428D02*
X95938961Y-107719666D01*
X95938961Y-107719666D02*
X95843723Y-107767285D01*
X95843723Y-107767285D02*
X95653247Y-107814904D01*
X95653247Y-107814904D02*
X95510390Y-107814904D01*
X95510390Y-107814904D02*
X95319914Y-107767285D01*
X95319914Y-107767285D02*
X95224676Y-107719666D01*
X95224676Y-107719666D02*
X95129438Y-107624428D01*
X95129438Y-107624428D02*
X95081819Y-107481571D01*
X95081819Y-107481571D02*
X95081819Y-107386333D01*
X95081819Y-107386333D02*
X95129438Y-107243476D01*
X95129438Y-107243476D02*
X95177057Y-107195857D01*
X96081819Y-106243476D02*
X96081819Y-106814904D01*
X96081819Y-106529190D02*
X95081819Y-106529190D01*
X95081819Y-106529190D02*
X95224676Y-106624428D01*
X95224676Y-106624428D02*
X95319914Y-106719666D01*
X95319914Y-106719666D02*
X95367533Y-106814904D01*
X95081819Y-105386333D02*
X95081819Y-105576809D01*
X95081819Y-105576809D02*
X95129438Y-105672047D01*
X95129438Y-105672047D02*
X95177057Y-105719666D01*
X95177057Y-105719666D02*
X95319914Y-105814904D01*
X95319914Y-105814904D02*
X95510390Y-105862523D01*
X95510390Y-105862523D02*
X95891342Y-105862523D01*
X95891342Y-105862523D02*
X95986580Y-105814904D01*
X95986580Y-105814904D02*
X96034200Y-105767285D01*
X96034200Y-105767285D02*
X96081819Y-105672047D01*
X96081819Y-105672047D02*
X96081819Y-105481571D01*
X96081819Y-105481571D02*
X96034200Y-105386333D01*
X96034200Y-105386333D02*
X95986580Y-105338714D01*
X95986580Y-105338714D02*
X95891342Y-105291095D01*
X95891342Y-105291095D02*
X95653247Y-105291095D01*
X95653247Y-105291095D02*
X95558009Y-105338714D01*
X95558009Y-105338714D02*
X95510390Y-105386333D01*
X95510390Y-105386333D02*
X95462771Y-105481571D01*
X95462771Y-105481571D02*
X95462771Y-105672047D01*
X95462771Y-105672047D02*
X95510390Y-105767285D01*
X95510390Y-105767285D02*
X95558009Y-105814904D01*
X95558009Y-105814904D02*
X95653247Y-105862523D01*
X138186819Y-95938857D02*
X137710628Y-96272190D01*
X138186819Y-96510285D02*
X137186819Y-96510285D01*
X137186819Y-96510285D02*
X137186819Y-96129333D01*
X137186819Y-96129333D02*
X137234438Y-96034095D01*
X137234438Y-96034095D02*
X137282057Y-95986476D01*
X137282057Y-95986476D02*
X137377295Y-95938857D01*
X137377295Y-95938857D02*
X137520152Y-95938857D01*
X137520152Y-95938857D02*
X137615390Y-95986476D01*
X137615390Y-95986476D02*
X137663009Y-96034095D01*
X137663009Y-96034095D02*
X137710628Y-96129333D01*
X137710628Y-96129333D02*
X137710628Y-96510285D01*
X138186819Y-94986476D02*
X138186819Y-95557904D01*
X138186819Y-95272190D02*
X137186819Y-95272190D01*
X137186819Y-95272190D02*
X137329676Y-95367428D01*
X137329676Y-95367428D02*
X137424914Y-95462666D01*
X137424914Y-95462666D02*
X137472533Y-95557904D01*
X137186819Y-94367428D02*
X137186819Y-94272190D01*
X137186819Y-94272190D02*
X137234438Y-94176952D01*
X137234438Y-94176952D02*
X137282057Y-94129333D01*
X137282057Y-94129333D02*
X137377295Y-94081714D01*
X137377295Y-94081714D02*
X137567771Y-94034095D01*
X137567771Y-94034095D02*
X137805866Y-94034095D01*
X137805866Y-94034095D02*
X137996342Y-94081714D01*
X137996342Y-94081714D02*
X138091580Y-94129333D01*
X138091580Y-94129333D02*
X138139200Y-94176952D01*
X138139200Y-94176952D02*
X138186819Y-94272190D01*
X138186819Y-94272190D02*
X138186819Y-94367428D01*
X138186819Y-94367428D02*
X138139200Y-94462666D01*
X138139200Y-94462666D02*
X138091580Y-94510285D01*
X138091580Y-94510285D02*
X137996342Y-94557904D01*
X137996342Y-94557904D02*
X137805866Y-94605523D01*
X137805866Y-94605523D02*
X137567771Y-94605523D01*
X137567771Y-94605523D02*
X137377295Y-94557904D01*
X137377295Y-94557904D02*
X137282057Y-94510285D01*
X137282057Y-94510285D02*
X137234438Y-94462666D01*
X137234438Y-94462666D02*
X137186819Y-94367428D01*
X171505142Y-108899819D02*
X171171809Y-108423628D01*
X170933714Y-108899819D02*
X170933714Y-107899819D01*
X170933714Y-107899819D02*
X171314666Y-107899819D01*
X171314666Y-107899819D02*
X171409904Y-107947438D01*
X171409904Y-107947438D02*
X171457523Y-107995057D01*
X171457523Y-107995057D02*
X171505142Y-108090295D01*
X171505142Y-108090295D02*
X171505142Y-108233152D01*
X171505142Y-108233152D02*
X171457523Y-108328390D01*
X171457523Y-108328390D02*
X171409904Y-108376009D01*
X171409904Y-108376009D02*
X171314666Y-108423628D01*
X171314666Y-108423628D02*
X170933714Y-108423628D01*
X172457523Y-108899819D02*
X171886095Y-108899819D01*
X172171809Y-108899819D02*
X172171809Y-107899819D01*
X172171809Y-107899819D02*
X172076571Y-108042676D01*
X172076571Y-108042676D02*
X171981333Y-108137914D01*
X171981333Y-108137914D02*
X171886095Y-108185533D01*
X172790857Y-107899819D02*
X173409904Y-107899819D01*
X173409904Y-107899819D02*
X173076571Y-108280771D01*
X173076571Y-108280771D02*
X173219428Y-108280771D01*
X173219428Y-108280771D02*
X173314666Y-108328390D01*
X173314666Y-108328390D02*
X173362285Y-108376009D01*
X173362285Y-108376009D02*
X173409904Y-108471247D01*
X173409904Y-108471247D02*
X173409904Y-108709342D01*
X173409904Y-108709342D02*
X173362285Y-108804580D01*
X173362285Y-108804580D02*
X173314666Y-108852200D01*
X173314666Y-108852200D02*
X173219428Y-108899819D01*
X173219428Y-108899819D02*
X172933714Y-108899819D01*
X172933714Y-108899819D02*
X172838476Y-108852200D01*
X172838476Y-108852200D02*
X172790857Y-108804580D01*
X162631142Y-87309819D02*
X162297809Y-86833628D01*
X162059714Y-87309819D02*
X162059714Y-86309819D01*
X162059714Y-86309819D02*
X162440666Y-86309819D01*
X162440666Y-86309819D02*
X162535904Y-86357438D01*
X162535904Y-86357438D02*
X162583523Y-86405057D01*
X162583523Y-86405057D02*
X162631142Y-86500295D01*
X162631142Y-86500295D02*
X162631142Y-86643152D01*
X162631142Y-86643152D02*
X162583523Y-86738390D01*
X162583523Y-86738390D02*
X162535904Y-86786009D01*
X162535904Y-86786009D02*
X162440666Y-86833628D01*
X162440666Y-86833628D02*
X162059714Y-86833628D01*
X163583523Y-87309819D02*
X163012095Y-87309819D01*
X163297809Y-87309819D02*
X163297809Y-86309819D01*
X163297809Y-86309819D02*
X163202571Y-86452676D01*
X163202571Y-86452676D02*
X163107333Y-86547914D01*
X163107333Y-86547914D02*
X163012095Y-86595533D01*
X164488285Y-86309819D02*
X164012095Y-86309819D01*
X164012095Y-86309819D02*
X163964476Y-86786009D01*
X163964476Y-86786009D02*
X164012095Y-86738390D01*
X164012095Y-86738390D02*
X164107333Y-86690771D01*
X164107333Y-86690771D02*
X164345428Y-86690771D01*
X164345428Y-86690771D02*
X164440666Y-86738390D01*
X164440666Y-86738390D02*
X164488285Y-86786009D01*
X164488285Y-86786009D02*
X164535904Y-86881247D01*
X164535904Y-86881247D02*
X164535904Y-87119342D01*
X164535904Y-87119342D02*
X164488285Y-87214580D01*
X164488285Y-87214580D02*
X164440666Y-87262200D01*
X164440666Y-87262200D02*
X164345428Y-87309819D01*
X164345428Y-87309819D02*
X164107333Y-87309819D01*
X164107333Y-87309819D02*
X164012095Y-87262200D01*
X164012095Y-87262200D02*
X163964476Y-87214580D01*
X138187819Y-100177666D02*
X137711628Y-100510999D01*
X138187819Y-100749094D02*
X137187819Y-100749094D01*
X137187819Y-100749094D02*
X137187819Y-100368142D01*
X137187819Y-100368142D02*
X137235438Y-100272904D01*
X137235438Y-100272904D02*
X137283057Y-100225285D01*
X137283057Y-100225285D02*
X137378295Y-100177666D01*
X137378295Y-100177666D02*
X137521152Y-100177666D01*
X137521152Y-100177666D02*
X137616390Y-100225285D01*
X137616390Y-100225285D02*
X137664009Y-100272904D01*
X137664009Y-100272904D02*
X137711628Y-100368142D01*
X137711628Y-100368142D02*
X137711628Y-100749094D01*
X138187819Y-99701475D02*
X138187819Y-99510999D01*
X138187819Y-99510999D02*
X138140200Y-99415761D01*
X138140200Y-99415761D02*
X138092580Y-99368142D01*
X138092580Y-99368142D02*
X137949723Y-99272904D01*
X137949723Y-99272904D02*
X137759247Y-99225285D01*
X137759247Y-99225285D02*
X137378295Y-99225285D01*
X137378295Y-99225285D02*
X137283057Y-99272904D01*
X137283057Y-99272904D02*
X137235438Y-99320523D01*
X137235438Y-99320523D02*
X137187819Y-99415761D01*
X137187819Y-99415761D02*
X137187819Y-99606237D01*
X137187819Y-99606237D02*
X137235438Y-99701475D01*
X137235438Y-99701475D02*
X137283057Y-99749094D01*
X137283057Y-99749094D02*
X137378295Y-99796713D01*
X137378295Y-99796713D02*
X137616390Y-99796713D01*
X137616390Y-99796713D02*
X137711628Y-99749094D01*
X137711628Y-99749094D02*
X137759247Y-99701475D01*
X137759247Y-99701475D02*
X137806866Y-99606237D01*
X137806866Y-99606237D02*
X137806866Y-99415761D01*
X137806866Y-99415761D02*
X137759247Y-99320523D01*
X137759247Y-99320523D02*
X137711628Y-99272904D01*
X137711628Y-99272904D02*
X137616390Y-99225285D01*
X119984819Y-84413666D02*
X119508628Y-84746999D01*
X119984819Y-84985094D02*
X118984819Y-84985094D01*
X118984819Y-84985094D02*
X118984819Y-84604142D01*
X118984819Y-84604142D02*
X119032438Y-84508904D01*
X119032438Y-84508904D02*
X119080057Y-84461285D01*
X119080057Y-84461285D02*
X119175295Y-84413666D01*
X119175295Y-84413666D02*
X119318152Y-84413666D01*
X119318152Y-84413666D02*
X119413390Y-84461285D01*
X119413390Y-84461285D02*
X119461009Y-84508904D01*
X119461009Y-84508904D02*
X119508628Y-84604142D01*
X119508628Y-84604142D02*
X119508628Y-84985094D01*
X118984819Y-84080332D02*
X118984819Y-83461285D01*
X118984819Y-83461285D02*
X119365771Y-83794618D01*
X119365771Y-83794618D02*
X119365771Y-83651761D01*
X119365771Y-83651761D02*
X119413390Y-83556523D01*
X119413390Y-83556523D02*
X119461009Y-83508904D01*
X119461009Y-83508904D02*
X119556247Y-83461285D01*
X119556247Y-83461285D02*
X119794342Y-83461285D01*
X119794342Y-83461285D02*
X119889580Y-83508904D01*
X119889580Y-83508904D02*
X119937200Y-83556523D01*
X119937200Y-83556523D02*
X119984819Y-83651761D01*
X119984819Y-83651761D02*
X119984819Y-83937475D01*
X119984819Y-83937475D02*
X119937200Y-84032713D01*
X119937200Y-84032713D02*
X119889580Y-84080332D01*
X99704619Y-101761819D02*
X100323666Y-101761819D01*
X100323666Y-101761819D02*
X99990333Y-102142771D01*
X99990333Y-102142771D02*
X100133190Y-102142771D01*
X100133190Y-102142771D02*
X100228428Y-102190390D01*
X100228428Y-102190390D02*
X100276047Y-102238009D01*
X100276047Y-102238009D02*
X100323666Y-102333247D01*
X100323666Y-102333247D02*
X100323666Y-102571342D01*
X100323666Y-102571342D02*
X100276047Y-102666580D01*
X100276047Y-102666580D02*
X100228428Y-102714200D01*
X100228428Y-102714200D02*
X100133190Y-102761819D01*
X100133190Y-102761819D02*
X99847476Y-102761819D01*
X99847476Y-102761819D02*
X99752238Y-102714200D01*
X99752238Y-102714200D02*
X99704619Y-102666580D01*
X100752238Y-102666580D02*
X100799857Y-102714200D01*
X100799857Y-102714200D02*
X100752238Y-102761819D01*
X100752238Y-102761819D02*
X100704619Y-102714200D01*
X100704619Y-102714200D02*
X100752238Y-102666580D01*
X100752238Y-102666580D02*
X100752238Y-102761819D01*
X101133190Y-101761819D02*
X101752237Y-101761819D01*
X101752237Y-101761819D02*
X101418904Y-102142771D01*
X101418904Y-102142771D02*
X101561761Y-102142771D01*
X101561761Y-102142771D02*
X101656999Y-102190390D01*
X101656999Y-102190390D02*
X101704618Y-102238009D01*
X101704618Y-102238009D02*
X101752237Y-102333247D01*
X101752237Y-102333247D02*
X101752237Y-102571342D01*
X101752237Y-102571342D02*
X101704618Y-102666580D01*
X101704618Y-102666580D02*
X101656999Y-102714200D01*
X101656999Y-102714200D02*
X101561761Y-102761819D01*
X101561761Y-102761819D02*
X101276047Y-102761819D01*
X101276047Y-102761819D02*
X101180809Y-102714200D01*
X101180809Y-102714200D02*
X101133190Y-102666580D01*
X102037952Y-101761819D02*
X102371285Y-102761819D01*
X102371285Y-102761819D02*
X102704618Y-101761819D01*
X102799857Y-102857057D02*
X103561761Y-102857057D01*
X104323666Y-102761819D02*
X103752238Y-102761819D01*
X104037952Y-102761819D02*
X104037952Y-101761819D01*
X104037952Y-101761819D02*
X103942714Y-101904676D01*
X103942714Y-101904676D02*
X103847476Y-101999914D01*
X103847476Y-101999914D02*
X103752238Y-102047533D01*
X104752238Y-102666580D02*
X104799857Y-102714200D01*
X104799857Y-102714200D02*
X104752238Y-102761819D01*
X104752238Y-102761819D02*
X104704619Y-102714200D01*
X104704619Y-102714200D02*
X104752238Y-102666580D01*
X104752238Y-102666580D02*
X104752238Y-102761819D01*
X105371285Y-102190390D02*
X105276047Y-102142771D01*
X105276047Y-102142771D02*
X105228428Y-102095152D01*
X105228428Y-102095152D02*
X105180809Y-101999914D01*
X105180809Y-101999914D02*
X105180809Y-101952295D01*
X105180809Y-101952295D02*
X105228428Y-101857057D01*
X105228428Y-101857057D02*
X105276047Y-101809438D01*
X105276047Y-101809438D02*
X105371285Y-101761819D01*
X105371285Y-101761819D02*
X105561761Y-101761819D01*
X105561761Y-101761819D02*
X105656999Y-101809438D01*
X105656999Y-101809438D02*
X105704618Y-101857057D01*
X105704618Y-101857057D02*
X105752237Y-101952295D01*
X105752237Y-101952295D02*
X105752237Y-101999914D01*
X105752237Y-101999914D02*
X105704618Y-102095152D01*
X105704618Y-102095152D02*
X105656999Y-102142771D01*
X105656999Y-102142771D02*
X105561761Y-102190390D01*
X105561761Y-102190390D02*
X105371285Y-102190390D01*
X105371285Y-102190390D02*
X105276047Y-102238009D01*
X105276047Y-102238009D02*
X105228428Y-102285628D01*
X105228428Y-102285628D02*
X105180809Y-102380866D01*
X105180809Y-102380866D02*
X105180809Y-102571342D01*
X105180809Y-102571342D02*
X105228428Y-102666580D01*
X105228428Y-102666580D02*
X105276047Y-102714200D01*
X105276047Y-102714200D02*
X105371285Y-102761819D01*
X105371285Y-102761819D02*
X105561761Y-102761819D01*
X105561761Y-102761819D02*
X105656999Y-102714200D01*
X105656999Y-102714200D02*
X105704618Y-102666580D01*
X105704618Y-102666580D02*
X105752237Y-102571342D01*
X105752237Y-102571342D02*
X105752237Y-102380866D01*
X105752237Y-102380866D02*
X105704618Y-102285628D01*
X105704618Y-102285628D02*
X105656999Y-102238009D01*
X105656999Y-102238009D02*
X105561761Y-102190390D01*
X106037952Y-101761819D02*
X106371285Y-102761819D01*
X106371285Y-102761819D02*
X106704618Y-101761819D01*
X107561761Y-102761819D02*
X106990333Y-102761819D01*
X107276047Y-102761819D02*
X107276047Y-101761819D01*
X107276047Y-101761819D02*
X107180809Y-101904676D01*
X107180809Y-101904676D02*
X107085571Y-101999914D01*
X107085571Y-101999914D02*
X106990333Y-102047533D01*
X106330438Y-95313333D02*
X106282819Y-95408571D01*
X106282819Y-95408571D02*
X106282819Y-95551428D01*
X106282819Y-95551428D02*
X106330438Y-95694285D01*
X106330438Y-95694285D02*
X106425676Y-95789523D01*
X106425676Y-95789523D02*
X106520914Y-95837142D01*
X106520914Y-95837142D02*
X106711390Y-95884761D01*
X106711390Y-95884761D02*
X106854247Y-95884761D01*
X106854247Y-95884761D02*
X107044723Y-95837142D01*
X107044723Y-95837142D02*
X107139961Y-95789523D01*
X107139961Y-95789523D02*
X107235200Y-95694285D01*
X107235200Y-95694285D02*
X107282819Y-95551428D01*
X107282819Y-95551428D02*
X107282819Y-95456190D01*
X107282819Y-95456190D02*
X107235200Y-95313333D01*
X107235200Y-95313333D02*
X107187580Y-95265714D01*
X107187580Y-95265714D02*
X106854247Y-95265714D01*
X106854247Y-95265714D02*
X106854247Y-95456190D01*
X107235200Y-94884761D02*
X107282819Y-94741904D01*
X107282819Y-94741904D02*
X107282819Y-94503809D01*
X107282819Y-94503809D02*
X107235200Y-94408571D01*
X107235200Y-94408571D02*
X107187580Y-94360952D01*
X107187580Y-94360952D02*
X107092342Y-94313333D01*
X107092342Y-94313333D02*
X106997104Y-94313333D01*
X106997104Y-94313333D02*
X106901866Y-94360952D01*
X106901866Y-94360952D02*
X106854247Y-94408571D01*
X106854247Y-94408571D02*
X106806628Y-94503809D01*
X106806628Y-94503809D02*
X106759009Y-94694285D01*
X106759009Y-94694285D02*
X106711390Y-94789523D01*
X106711390Y-94789523D02*
X106663771Y-94837142D01*
X106663771Y-94837142D02*
X106568533Y-94884761D01*
X106568533Y-94884761D02*
X106473295Y-94884761D01*
X106473295Y-94884761D02*
X106378057Y-94837142D01*
X106378057Y-94837142D02*
X106330438Y-94789523D01*
X106330438Y-94789523D02*
X106282819Y-94694285D01*
X106282819Y-94694285D02*
X106282819Y-94456190D01*
X106282819Y-94456190D02*
X106330438Y-94313333D01*
X107282819Y-93313333D02*
X106806628Y-93646666D01*
X107282819Y-93884761D02*
X106282819Y-93884761D01*
X106282819Y-93884761D02*
X106282819Y-93503809D01*
X106282819Y-93503809D02*
X106330438Y-93408571D01*
X106330438Y-93408571D02*
X106378057Y-93360952D01*
X106378057Y-93360952D02*
X106473295Y-93313333D01*
X106473295Y-93313333D02*
X106616152Y-93313333D01*
X106616152Y-93313333D02*
X106711390Y-93360952D01*
X106711390Y-93360952D02*
X106759009Y-93408571D01*
X106759009Y-93408571D02*
X106806628Y-93503809D01*
X106806628Y-93503809D02*
X106806628Y-93884761D01*
X107378057Y-93122857D02*
X107378057Y-92360952D01*
X107282819Y-92122856D02*
X106282819Y-92122856D01*
X107282819Y-91646666D02*
X106282819Y-91646666D01*
X106282819Y-91646666D02*
X107282819Y-91075238D01*
X107282819Y-91075238D02*
X106282819Y-91075238D01*
X107282819Y-90075238D02*
X107282819Y-90646666D01*
X107282819Y-90360952D02*
X106282819Y-90360952D01*
X106282819Y-90360952D02*
X106425676Y-90456190D01*
X106425676Y-90456190D02*
X106520914Y-90551428D01*
X106520914Y-90551428D02*
X106568533Y-90646666D01*
X144283819Y-97605857D02*
X143807628Y-97939190D01*
X144283819Y-98177285D02*
X143283819Y-98177285D01*
X143283819Y-98177285D02*
X143283819Y-97796333D01*
X143283819Y-97796333D02*
X143331438Y-97701095D01*
X143331438Y-97701095D02*
X143379057Y-97653476D01*
X143379057Y-97653476D02*
X143474295Y-97605857D01*
X143474295Y-97605857D02*
X143617152Y-97605857D01*
X143617152Y-97605857D02*
X143712390Y-97653476D01*
X143712390Y-97653476D02*
X143760009Y-97701095D01*
X143760009Y-97701095D02*
X143807628Y-97796333D01*
X143807628Y-97796333D02*
X143807628Y-98177285D01*
X144283819Y-96653476D02*
X144283819Y-97224904D01*
X144283819Y-96939190D02*
X143283819Y-96939190D01*
X143283819Y-96939190D02*
X143426676Y-97034428D01*
X143426676Y-97034428D02*
X143521914Y-97129666D01*
X143521914Y-97129666D02*
X143569533Y-97224904D01*
X143379057Y-96272523D02*
X143331438Y-96224904D01*
X143331438Y-96224904D02*
X143283819Y-96129666D01*
X143283819Y-96129666D02*
X143283819Y-95891571D01*
X143283819Y-95891571D02*
X143331438Y-95796333D01*
X143331438Y-95796333D02*
X143379057Y-95748714D01*
X143379057Y-95748714D02*
X143474295Y-95701095D01*
X143474295Y-95701095D02*
X143569533Y-95701095D01*
X143569533Y-95701095D02*
X143712390Y-95748714D01*
X143712390Y-95748714D02*
X144283819Y-96320142D01*
X144283819Y-96320142D02*
X144283819Y-95701095D01*
X179277905Y-80412819D02*
X179277905Y-79412819D01*
X179277905Y-79412819D02*
X179516000Y-79412819D01*
X179516000Y-79412819D02*
X179658857Y-79460438D01*
X179658857Y-79460438D02*
X179754095Y-79555676D01*
X179754095Y-79555676D02*
X179801714Y-79650914D01*
X179801714Y-79650914D02*
X179849333Y-79841390D01*
X179849333Y-79841390D02*
X179849333Y-79984247D01*
X179849333Y-79984247D02*
X179801714Y-80174723D01*
X179801714Y-80174723D02*
X179754095Y-80269961D01*
X179754095Y-80269961D02*
X179658857Y-80365200D01*
X179658857Y-80365200D02*
X179516000Y-80412819D01*
X179516000Y-80412819D02*
X179277905Y-80412819D01*
X180230286Y-79508057D02*
X180277905Y-79460438D01*
X180277905Y-79460438D02*
X180373143Y-79412819D01*
X180373143Y-79412819D02*
X180611238Y-79412819D01*
X180611238Y-79412819D02*
X180706476Y-79460438D01*
X180706476Y-79460438D02*
X180754095Y-79508057D01*
X180754095Y-79508057D02*
X180801714Y-79603295D01*
X180801714Y-79603295D02*
X180801714Y-79698533D01*
X180801714Y-79698533D02*
X180754095Y-79841390D01*
X180754095Y-79841390D02*
X180182667Y-80412819D01*
X180182667Y-80412819D02*
X180801714Y-80412819D01*
X111645819Y-84270666D02*
X111169628Y-84603999D01*
X111645819Y-84842094D02*
X110645819Y-84842094D01*
X110645819Y-84842094D02*
X110645819Y-84461142D01*
X110645819Y-84461142D02*
X110693438Y-84365904D01*
X110693438Y-84365904D02*
X110741057Y-84318285D01*
X110741057Y-84318285D02*
X110836295Y-84270666D01*
X110836295Y-84270666D02*
X110979152Y-84270666D01*
X110979152Y-84270666D02*
X111074390Y-84318285D01*
X111074390Y-84318285D02*
X111122009Y-84365904D01*
X111122009Y-84365904D02*
X111169628Y-84461142D01*
X111169628Y-84461142D02*
X111169628Y-84842094D01*
X110645819Y-83937332D02*
X110645819Y-83270666D01*
X110645819Y-83270666D02*
X111645819Y-83699237D01*
X179018142Y-98916580D02*
X178970523Y-98964200D01*
X178970523Y-98964200D02*
X178827666Y-99011819D01*
X178827666Y-99011819D02*
X178732428Y-99011819D01*
X178732428Y-99011819D02*
X178589571Y-98964200D01*
X178589571Y-98964200D02*
X178494333Y-98868961D01*
X178494333Y-98868961D02*
X178446714Y-98773723D01*
X178446714Y-98773723D02*
X178399095Y-98583247D01*
X178399095Y-98583247D02*
X178399095Y-98440390D01*
X178399095Y-98440390D02*
X178446714Y-98249914D01*
X178446714Y-98249914D02*
X178494333Y-98154676D01*
X178494333Y-98154676D02*
X178589571Y-98059438D01*
X178589571Y-98059438D02*
X178732428Y-98011819D01*
X178732428Y-98011819D02*
X178827666Y-98011819D01*
X178827666Y-98011819D02*
X178970523Y-98059438D01*
X178970523Y-98059438D02*
X179018142Y-98107057D01*
X179970523Y-99011819D02*
X179399095Y-99011819D01*
X179684809Y-99011819D02*
X179684809Y-98011819D01*
X179684809Y-98011819D02*
X179589571Y-98154676D01*
X179589571Y-98154676D02*
X179494333Y-98249914D01*
X179494333Y-98249914D02*
X179399095Y-98297533D01*
X180303857Y-98011819D02*
X180922904Y-98011819D01*
X180922904Y-98011819D02*
X180589571Y-98392771D01*
X180589571Y-98392771D02*
X180732428Y-98392771D01*
X180732428Y-98392771D02*
X180827666Y-98440390D01*
X180827666Y-98440390D02*
X180875285Y-98488009D01*
X180875285Y-98488009D02*
X180922904Y-98583247D01*
X180922904Y-98583247D02*
X180922904Y-98821342D01*
X180922904Y-98821342D02*
X180875285Y-98916580D01*
X180875285Y-98916580D02*
X180827666Y-98964200D01*
X180827666Y-98964200D02*
X180732428Y-99011819D01*
X180732428Y-99011819D02*
X180446714Y-99011819D01*
X180446714Y-99011819D02*
X180351476Y-98964200D01*
X180351476Y-98964200D02*
X180303857Y-98916580D01*
X114942580Y-115175357D02*
X114990200Y-115222976D01*
X114990200Y-115222976D02*
X115037819Y-115365833D01*
X115037819Y-115365833D02*
X115037819Y-115461071D01*
X115037819Y-115461071D02*
X114990200Y-115603928D01*
X114990200Y-115603928D02*
X114894961Y-115699166D01*
X114894961Y-115699166D02*
X114799723Y-115746785D01*
X114799723Y-115746785D02*
X114609247Y-115794404D01*
X114609247Y-115794404D02*
X114466390Y-115794404D01*
X114466390Y-115794404D02*
X114275914Y-115746785D01*
X114275914Y-115746785D02*
X114180676Y-115699166D01*
X114180676Y-115699166D02*
X114085438Y-115603928D01*
X114085438Y-115603928D02*
X114037819Y-115461071D01*
X114037819Y-115461071D02*
X114037819Y-115365833D01*
X114037819Y-115365833D02*
X114085438Y-115222976D01*
X114085438Y-115222976D02*
X114133057Y-115175357D01*
X115037819Y-114222976D02*
X115037819Y-114794404D01*
X115037819Y-114508690D02*
X114037819Y-114508690D01*
X114037819Y-114508690D02*
X114180676Y-114603928D01*
X114180676Y-114603928D02*
X114275914Y-114699166D01*
X114275914Y-114699166D02*
X114323533Y-114794404D01*
X114133057Y-113842023D02*
X114085438Y-113794404D01*
X114085438Y-113794404D02*
X114037819Y-113699166D01*
X114037819Y-113699166D02*
X114037819Y-113461071D01*
X114037819Y-113461071D02*
X114085438Y-113365833D01*
X114085438Y-113365833D02*
X114133057Y-113318214D01*
X114133057Y-113318214D02*
X114228295Y-113270595D01*
X114228295Y-113270595D02*
X114323533Y-113270595D01*
X114323533Y-113270595D02*
X114466390Y-113318214D01*
X114466390Y-113318214D02*
X115037819Y-113889642D01*
X115037819Y-113889642D02*
X115037819Y-113270595D01*
X170809905Y-69366819D02*
X170809905Y-70176342D01*
X170809905Y-70176342D02*
X170857524Y-70271580D01*
X170857524Y-70271580D02*
X170905143Y-70319200D01*
X170905143Y-70319200D02*
X171000381Y-70366819D01*
X171000381Y-70366819D02*
X171190857Y-70366819D01*
X171190857Y-70366819D02*
X171286095Y-70319200D01*
X171286095Y-70319200D02*
X171333714Y-70271580D01*
X171333714Y-70271580D02*
X171381333Y-70176342D01*
X171381333Y-70176342D02*
X171381333Y-69366819D01*
X171809905Y-70319200D02*
X171952762Y-70366819D01*
X171952762Y-70366819D02*
X172190857Y-70366819D01*
X172190857Y-70366819D02*
X172286095Y-70319200D01*
X172286095Y-70319200D02*
X172333714Y-70271580D01*
X172333714Y-70271580D02*
X172381333Y-70176342D01*
X172381333Y-70176342D02*
X172381333Y-70081104D01*
X172381333Y-70081104D02*
X172333714Y-69985866D01*
X172333714Y-69985866D02*
X172286095Y-69938247D01*
X172286095Y-69938247D02*
X172190857Y-69890628D01*
X172190857Y-69890628D02*
X172000381Y-69843009D01*
X172000381Y-69843009D02*
X171905143Y-69795390D01*
X171905143Y-69795390D02*
X171857524Y-69747771D01*
X171857524Y-69747771D02*
X171809905Y-69652533D01*
X171809905Y-69652533D02*
X171809905Y-69557295D01*
X171809905Y-69557295D02*
X171857524Y-69462057D01*
X171857524Y-69462057D02*
X171905143Y-69414438D01*
X171905143Y-69414438D02*
X172000381Y-69366819D01*
X172000381Y-69366819D02*
X172238476Y-69366819D01*
X172238476Y-69366819D02*
X172381333Y-69414438D01*
X173143238Y-69843009D02*
X173286095Y-69890628D01*
X173286095Y-69890628D02*
X173333714Y-69938247D01*
X173333714Y-69938247D02*
X173381333Y-70033485D01*
X173381333Y-70033485D02*
X173381333Y-70176342D01*
X173381333Y-70176342D02*
X173333714Y-70271580D01*
X173333714Y-70271580D02*
X173286095Y-70319200D01*
X173286095Y-70319200D02*
X173190857Y-70366819D01*
X173190857Y-70366819D02*
X172809905Y-70366819D01*
X172809905Y-70366819D02*
X172809905Y-69366819D01*
X172809905Y-69366819D02*
X173143238Y-69366819D01*
X173143238Y-69366819D02*
X173238476Y-69414438D01*
X173238476Y-69414438D02*
X173286095Y-69462057D01*
X173286095Y-69462057D02*
X173333714Y-69557295D01*
X173333714Y-69557295D02*
X173333714Y-69652533D01*
X173333714Y-69652533D02*
X173286095Y-69747771D01*
X173286095Y-69747771D02*
X173238476Y-69795390D01*
X173238476Y-69795390D02*
X173143238Y-69843009D01*
X173143238Y-69843009D02*
X172809905Y-69843009D01*
X174333714Y-70366819D02*
X173762286Y-70366819D01*
X174048000Y-70366819D02*
X174048000Y-69366819D01*
X174048000Y-69366819D02*
X173952762Y-69509676D01*
X173952762Y-69509676D02*
X173857524Y-69604914D01*
X173857524Y-69604914D02*
X173762286Y-69652533D01*
X154204200Y-97797999D02*
X154251819Y-97655142D01*
X154251819Y-97655142D02*
X154251819Y-97417047D01*
X154251819Y-97417047D02*
X154204200Y-97321809D01*
X154204200Y-97321809D02*
X154156580Y-97274190D01*
X154156580Y-97274190D02*
X154061342Y-97226571D01*
X154061342Y-97226571D02*
X153966104Y-97226571D01*
X153966104Y-97226571D02*
X153870866Y-97274190D01*
X153870866Y-97274190D02*
X153823247Y-97321809D01*
X153823247Y-97321809D02*
X153775628Y-97417047D01*
X153775628Y-97417047D02*
X153728009Y-97607523D01*
X153728009Y-97607523D02*
X153680390Y-97702761D01*
X153680390Y-97702761D02*
X153632771Y-97750380D01*
X153632771Y-97750380D02*
X153537533Y-97797999D01*
X153537533Y-97797999D02*
X153442295Y-97797999D01*
X153442295Y-97797999D02*
X153347057Y-97750380D01*
X153347057Y-97750380D02*
X153299438Y-97702761D01*
X153299438Y-97702761D02*
X153251819Y-97607523D01*
X153251819Y-97607523D02*
X153251819Y-97369428D01*
X153251819Y-97369428D02*
X153299438Y-97226571D01*
X154251819Y-96797999D02*
X153251819Y-96797999D01*
X153299438Y-95798000D02*
X153251819Y-95893238D01*
X153251819Y-95893238D02*
X153251819Y-96036095D01*
X153251819Y-96036095D02*
X153299438Y-96178952D01*
X153299438Y-96178952D02*
X153394676Y-96274190D01*
X153394676Y-96274190D02*
X153489914Y-96321809D01*
X153489914Y-96321809D02*
X153680390Y-96369428D01*
X153680390Y-96369428D02*
X153823247Y-96369428D01*
X153823247Y-96369428D02*
X154013723Y-96321809D01*
X154013723Y-96321809D02*
X154108961Y-96274190D01*
X154108961Y-96274190D02*
X154204200Y-96178952D01*
X154204200Y-96178952D02*
X154251819Y-96036095D01*
X154251819Y-96036095D02*
X154251819Y-95940857D01*
X154251819Y-95940857D02*
X154204200Y-95798000D01*
X154204200Y-95798000D02*
X154156580Y-95750381D01*
X154156580Y-95750381D02*
X153823247Y-95750381D01*
X153823247Y-95750381D02*
X153823247Y-95940857D01*
X154251819Y-94798000D02*
X154251819Y-95369428D01*
X154251819Y-95083714D02*
X153251819Y-95083714D01*
X153251819Y-95083714D02*
X153394676Y-95178952D01*
X153394676Y-95178952D02*
X153489914Y-95274190D01*
X153489914Y-95274190D02*
X153537533Y-95369428D01*
X99082142Y-92471580D02*
X99034523Y-92519200D01*
X99034523Y-92519200D02*
X98891666Y-92566819D01*
X98891666Y-92566819D02*
X98796428Y-92566819D01*
X98796428Y-92566819D02*
X98653571Y-92519200D01*
X98653571Y-92519200D02*
X98558333Y-92423961D01*
X98558333Y-92423961D02*
X98510714Y-92328723D01*
X98510714Y-92328723D02*
X98463095Y-92138247D01*
X98463095Y-92138247D02*
X98463095Y-91995390D01*
X98463095Y-91995390D02*
X98510714Y-91804914D01*
X98510714Y-91804914D02*
X98558333Y-91709676D01*
X98558333Y-91709676D02*
X98653571Y-91614438D01*
X98653571Y-91614438D02*
X98796428Y-91566819D01*
X98796428Y-91566819D02*
X98891666Y-91566819D01*
X98891666Y-91566819D02*
X99034523Y-91614438D01*
X99034523Y-91614438D02*
X99082142Y-91662057D01*
X100034523Y-92566819D02*
X99463095Y-92566819D01*
X99748809Y-92566819D02*
X99748809Y-91566819D01*
X99748809Y-91566819D02*
X99653571Y-91709676D01*
X99653571Y-91709676D02*
X99558333Y-91804914D01*
X99558333Y-91804914D02*
X99463095Y-91852533D01*
X100891666Y-91900152D02*
X100891666Y-92566819D01*
X100653571Y-91519200D02*
X100415476Y-92233485D01*
X100415476Y-92233485D02*
X101034523Y-92233485D01*
X119475819Y-73618666D02*
X118999628Y-73951999D01*
X119475819Y-74190094D02*
X118475819Y-74190094D01*
X118475819Y-74190094D02*
X118475819Y-73809142D01*
X118475819Y-73809142D02*
X118523438Y-73713904D01*
X118523438Y-73713904D02*
X118571057Y-73666285D01*
X118571057Y-73666285D02*
X118666295Y-73618666D01*
X118666295Y-73618666D02*
X118809152Y-73618666D01*
X118809152Y-73618666D02*
X118904390Y-73666285D01*
X118904390Y-73666285D02*
X118952009Y-73713904D01*
X118952009Y-73713904D02*
X118999628Y-73809142D01*
X118999628Y-73809142D02*
X118999628Y-74190094D01*
X118809152Y-72761523D02*
X119475819Y-72761523D01*
X118428200Y-72999618D02*
X119142485Y-73237713D01*
X119142485Y-73237713D02*
X119142485Y-72618666D01*
X102760142Y-98530580D02*
X102712523Y-98578200D01*
X102712523Y-98578200D02*
X102569666Y-98625819D01*
X102569666Y-98625819D02*
X102474428Y-98625819D01*
X102474428Y-98625819D02*
X102331571Y-98578200D01*
X102331571Y-98578200D02*
X102236333Y-98482961D01*
X102236333Y-98482961D02*
X102188714Y-98387723D01*
X102188714Y-98387723D02*
X102141095Y-98197247D01*
X102141095Y-98197247D02*
X102141095Y-98054390D01*
X102141095Y-98054390D02*
X102188714Y-97863914D01*
X102188714Y-97863914D02*
X102236333Y-97768676D01*
X102236333Y-97768676D02*
X102331571Y-97673438D01*
X102331571Y-97673438D02*
X102474428Y-97625819D01*
X102474428Y-97625819D02*
X102569666Y-97625819D01*
X102569666Y-97625819D02*
X102712523Y-97673438D01*
X102712523Y-97673438D02*
X102760142Y-97721057D01*
X103712523Y-98625819D02*
X103141095Y-98625819D01*
X103426809Y-98625819D02*
X103426809Y-97625819D01*
X103426809Y-97625819D02*
X103331571Y-97768676D01*
X103331571Y-97768676D02*
X103236333Y-97863914D01*
X103236333Y-97863914D02*
X103141095Y-97911533D01*
X104045857Y-97625819D02*
X104712523Y-97625819D01*
X104712523Y-97625819D02*
X104283952Y-98625819D01*
X127792580Y-77809666D02*
X127840200Y-77857285D01*
X127840200Y-77857285D02*
X127887819Y-78000142D01*
X127887819Y-78000142D02*
X127887819Y-78095380D01*
X127887819Y-78095380D02*
X127840200Y-78238237D01*
X127840200Y-78238237D02*
X127744961Y-78333475D01*
X127744961Y-78333475D02*
X127649723Y-78381094D01*
X127649723Y-78381094D02*
X127459247Y-78428713D01*
X127459247Y-78428713D02*
X127316390Y-78428713D01*
X127316390Y-78428713D02*
X127125914Y-78381094D01*
X127125914Y-78381094D02*
X127030676Y-78333475D01*
X127030676Y-78333475D02*
X126935438Y-78238237D01*
X126935438Y-78238237D02*
X126887819Y-78095380D01*
X126887819Y-78095380D02*
X126887819Y-78000142D01*
X126887819Y-78000142D02*
X126935438Y-77857285D01*
X126935438Y-77857285D02*
X126983057Y-77809666D01*
X127316390Y-77238237D02*
X127268771Y-77333475D01*
X127268771Y-77333475D02*
X127221152Y-77381094D01*
X127221152Y-77381094D02*
X127125914Y-77428713D01*
X127125914Y-77428713D02*
X127078295Y-77428713D01*
X127078295Y-77428713D02*
X126983057Y-77381094D01*
X126983057Y-77381094D02*
X126935438Y-77333475D01*
X126935438Y-77333475D02*
X126887819Y-77238237D01*
X126887819Y-77238237D02*
X126887819Y-77047761D01*
X126887819Y-77047761D02*
X126935438Y-76952523D01*
X126935438Y-76952523D02*
X126983057Y-76904904D01*
X126983057Y-76904904D02*
X127078295Y-76857285D01*
X127078295Y-76857285D02*
X127125914Y-76857285D01*
X127125914Y-76857285D02*
X127221152Y-76904904D01*
X127221152Y-76904904D02*
X127268771Y-76952523D01*
X127268771Y-76952523D02*
X127316390Y-77047761D01*
X127316390Y-77047761D02*
X127316390Y-77238237D01*
X127316390Y-77238237D02*
X127364009Y-77333475D01*
X127364009Y-77333475D02*
X127411628Y-77381094D01*
X127411628Y-77381094D02*
X127506866Y-77428713D01*
X127506866Y-77428713D02*
X127697342Y-77428713D01*
X127697342Y-77428713D02*
X127792580Y-77381094D01*
X127792580Y-77381094D02*
X127840200Y-77333475D01*
X127840200Y-77333475D02*
X127887819Y-77238237D01*
X127887819Y-77238237D02*
X127887819Y-77047761D01*
X127887819Y-77047761D02*
X127840200Y-76952523D01*
X127840200Y-76952523D02*
X127792580Y-76904904D01*
X127792580Y-76904904D02*
X127697342Y-76857285D01*
X127697342Y-76857285D02*
X127506866Y-76857285D01*
X127506866Y-76857285D02*
X127411628Y-76904904D01*
X127411628Y-76904904D02*
X127364009Y-76952523D01*
X127364009Y-76952523D02*
X127316390Y-77047761D01*
X119410580Y-78952666D02*
X119458200Y-79000285D01*
X119458200Y-79000285D02*
X119505819Y-79143142D01*
X119505819Y-79143142D02*
X119505819Y-79238380D01*
X119505819Y-79238380D02*
X119458200Y-79381237D01*
X119458200Y-79381237D02*
X119362961Y-79476475D01*
X119362961Y-79476475D02*
X119267723Y-79524094D01*
X119267723Y-79524094D02*
X119077247Y-79571713D01*
X119077247Y-79571713D02*
X118934390Y-79571713D01*
X118934390Y-79571713D02*
X118743914Y-79524094D01*
X118743914Y-79524094D02*
X118648676Y-79476475D01*
X118648676Y-79476475D02*
X118553438Y-79381237D01*
X118553438Y-79381237D02*
X118505819Y-79238380D01*
X118505819Y-79238380D02*
X118505819Y-79143142D01*
X118505819Y-79143142D02*
X118553438Y-79000285D01*
X118553438Y-79000285D02*
X118601057Y-78952666D01*
X118505819Y-78619332D02*
X118505819Y-78000285D01*
X118505819Y-78000285D02*
X118886771Y-78333618D01*
X118886771Y-78333618D02*
X118886771Y-78190761D01*
X118886771Y-78190761D02*
X118934390Y-78095523D01*
X118934390Y-78095523D02*
X118982009Y-78047904D01*
X118982009Y-78047904D02*
X119077247Y-78000285D01*
X119077247Y-78000285D02*
X119315342Y-78000285D01*
X119315342Y-78000285D02*
X119410580Y-78047904D01*
X119410580Y-78047904D02*
X119458200Y-78095523D01*
X119458200Y-78095523D02*
X119505819Y-78190761D01*
X119505819Y-78190761D02*
X119505819Y-78476475D01*
X119505819Y-78476475D02*
X119458200Y-78571713D01*
X119458200Y-78571713D02*
X119410580Y-78619332D01*
X122929190Y-112995819D02*
X122929190Y-111995819D01*
X122929190Y-112472009D02*
X123500618Y-112472009D01*
X123500618Y-112995819D02*
X123500618Y-111995819D01*
X123976809Y-112472009D02*
X124310142Y-112472009D01*
X124452999Y-112995819D02*
X123976809Y-112995819D01*
X123976809Y-112995819D02*
X123976809Y-111995819D01*
X123976809Y-111995819D02*
X124452999Y-111995819D01*
X124833952Y-112710104D02*
X125310142Y-112710104D01*
X124738714Y-112995819D02*
X125072047Y-111995819D01*
X125072047Y-111995819D02*
X125405380Y-112995819D01*
X126310142Y-112995819D02*
X125976809Y-112519628D01*
X125738714Y-112995819D02*
X125738714Y-111995819D01*
X125738714Y-111995819D02*
X126119666Y-111995819D01*
X126119666Y-111995819D02*
X126214904Y-112043438D01*
X126214904Y-112043438D02*
X126262523Y-112091057D01*
X126262523Y-112091057D02*
X126310142Y-112186295D01*
X126310142Y-112186295D02*
X126310142Y-112329152D01*
X126310142Y-112329152D02*
X126262523Y-112424390D01*
X126262523Y-112424390D02*
X126214904Y-112472009D01*
X126214904Y-112472009D02*
X126119666Y-112519628D01*
X126119666Y-112519628D02*
X125738714Y-112519628D01*
X126595857Y-111995819D02*
X127167285Y-111995819D01*
X126881571Y-112995819D02*
X126881571Y-111995819D01*
X128024428Y-112995819D02*
X127453000Y-112995819D01*
X127738714Y-112995819D02*
X127738714Y-111995819D01*
X127738714Y-111995819D02*
X127643476Y-112138676D01*
X127643476Y-112138676D02*
X127548238Y-112233914D01*
X127548238Y-112233914D02*
X127453000Y-112281533D01*
X119730819Y-89493666D02*
X119254628Y-89826999D01*
X119730819Y-90065094D02*
X118730819Y-90065094D01*
X118730819Y-90065094D02*
X118730819Y-89684142D01*
X118730819Y-89684142D02*
X118778438Y-89588904D01*
X118778438Y-89588904D02*
X118826057Y-89541285D01*
X118826057Y-89541285D02*
X118921295Y-89493666D01*
X118921295Y-89493666D02*
X119064152Y-89493666D01*
X119064152Y-89493666D02*
X119159390Y-89541285D01*
X119159390Y-89541285D02*
X119207009Y-89588904D01*
X119207009Y-89588904D02*
X119254628Y-89684142D01*
X119254628Y-89684142D02*
X119254628Y-90065094D01*
X118730819Y-88588904D02*
X118730819Y-89065094D01*
X118730819Y-89065094D02*
X119207009Y-89112713D01*
X119207009Y-89112713D02*
X119159390Y-89065094D01*
X119159390Y-89065094D02*
X119111771Y-88969856D01*
X119111771Y-88969856D02*
X119111771Y-88731761D01*
X119111771Y-88731761D02*
X119159390Y-88636523D01*
X119159390Y-88636523D02*
X119207009Y-88588904D01*
X119207009Y-88588904D02*
X119302247Y-88541285D01*
X119302247Y-88541285D02*
X119540342Y-88541285D01*
X119540342Y-88541285D02*
X119635580Y-88588904D01*
X119635580Y-88588904D02*
X119683200Y-88636523D01*
X119683200Y-88636523D02*
X119730819Y-88731761D01*
X119730819Y-88731761D02*
X119730819Y-88969856D01*
X119730819Y-88969856D02*
X119683200Y-89065094D01*
X119683200Y-89065094D02*
X119635580Y-89112713D01*
X144315580Y-91795666D02*
X144363200Y-91843285D01*
X144363200Y-91843285D02*
X144410819Y-91986142D01*
X144410819Y-91986142D02*
X144410819Y-92081380D01*
X144410819Y-92081380D02*
X144363200Y-92224237D01*
X144363200Y-92224237D02*
X144267961Y-92319475D01*
X144267961Y-92319475D02*
X144172723Y-92367094D01*
X144172723Y-92367094D02*
X143982247Y-92414713D01*
X143982247Y-92414713D02*
X143839390Y-92414713D01*
X143839390Y-92414713D02*
X143648914Y-92367094D01*
X143648914Y-92367094D02*
X143553676Y-92319475D01*
X143553676Y-92319475D02*
X143458438Y-92224237D01*
X143458438Y-92224237D02*
X143410819Y-92081380D01*
X143410819Y-92081380D02*
X143410819Y-91986142D01*
X143410819Y-91986142D02*
X143458438Y-91843285D01*
X143458438Y-91843285D02*
X143506057Y-91795666D01*
X143744152Y-90938523D02*
X144410819Y-90938523D01*
X143363200Y-91176618D02*
X144077485Y-91414713D01*
X144077485Y-91414713D02*
X144077485Y-90795666D01*
X162504142Y-92136819D02*
X162170809Y-91660628D01*
X161932714Y-92136819D02*
X161932714Y-91136819D01*
X161932714Y-91136819D02*
X162313666Y-91136819D01*
X162313666Y-91136819D02*
X162408904Y-91184438D01*
X162408904Y-91184438D02*
X162456523Y-91232057D01*
X162456523Y-91232057D02*
X162504142Y-91327295D01*
X162504142Y-91327295D02*
X162504142Y-91470152D01*
X162504142Y-91470152D02*
X162456523Y-91565390D01*
X162456523Y-91565390D02*
X162408904Y-91613009D01*
X162408904Y-91613009D02*
X162313666Y-91660628D01*
X162313666Y-91660628D02*
X161932714Y-91660628D01*
X163456523Y-92136819D02*
X162885095Y-92136819D01*
X163170809Y-92136819D02*
X163170809Y-91136819D01*
X163170809Y-91136819D02*
X163075571Y-91279676D01*
X163075571Y-91279676D02*
X162980333Y-91374914D01*
X162980333Y-91374914D02*
X162885095Y-91422533D01*
X164313666Y-91136819D02*
X164123190Y-91136819D01*
X164123190Y-91136819D02*
X164027952Y-91184438D01*
X164027952Y-91184438D02*
X163980333Y-91232057D01*
X163980333Y-91232057D02*
X163885095Y-91374914D01*
X163885095Y-91374914D02*
X163837476Y-91565390D01*
X163837476Y-91565390D02*
X163837476Y-91946342D01*
X163837476Y-91946342D02*
X163885095Y-92041580D01*
X163885095Y-92041580D02*
X163932714Y-92089200D01*
X163932714Y-92089200D02*
X164027952Y-92136819D01*
X164027952Y-92136819D02*
X164218428Y-92136819D01*
X164218428Y-92136819D02*
X164313666Y-92089200D01*
X164313666Y-92089200D02*
X164361285Y-92041580D01*
X164361285Y-92041580D02*
X164408904Y-91946342D01*
X164408904Y-91946342D02*
X164408904Y-91708247D01*
X164408904Y-91708247D02*
X164361285Y-91613009D01*
X164361285Y-91613009D02*
X164313666Y-91565390D01*
X164313666Y-91565390D02*
X164218428Y-91517771D01*
X164218428Y-91517771D02*
X164027952Y-91517771D01*
X164027952Y-91517771D02*
X163932714Y-91565390D01*
X163932714Y-91565390D02*
X163885095Y-91613009D01*
X163885095Y-91613009D02*
X163837476Y-91708247D01*
X117676819Y-111021857D02*
X117200628Y-111355190D01*
X117676819Y-111593285D02*
X116676819Y-111593285D01*
X116676819Y-111593285D02*
X116676819Y-111212333D01*
X116676819Y-111212333D02*
X116724438Y-111117095D01*
X116724438Y-111117095D02*
X116772057Y-111069476D01*
X116772057Y-111069476D02*
X116867295Y-111021857D01*
X116867295Y-111021857D02*
X117010152Y-111021857D01*
X117010152Y-111021857D02*
X117105390Y-111069476D01*
X117105390Y-111069476D02*
X117153009Y-111117095D01*
X117153009Y-111117095D02*
X117200628Y-111212333D01*
X117200628Y-111212333D02*
X117200628Y-111593285D01*
X117676819Y-110069476D02*
X117676819Y-110640904D01*
X117676819Y-110355190D02*
X116676819Y-110355190D01*
X116676819Y-110355190D02*
X116819676Y-110450428D01*
X116819676Y-110450428D02*
X116914914Y-110545666D01*
X116914914Y-110545666D02*
X116962533Y-110640904D01*
X117010152Y-109212333D02*
X117676819Y-109212333D01*
X116629200Y-109450428D02*
X117343485Y-109688523D01*
X117343485Y-109688523D02*
X117343485Y-109069476D01*
X171308905Y-80412819D02*
X171308905Y-79412819D01*
X171308905Y-79412819D02*
X171547000Y-79412819D01*
X171547000Y-79412819D02*
X171689857Y-79460438D01*
X171689857Y-79460438D02*
X171785095Y-79555676D01*
X171785095Y-79555676D02*
X171832714Y-79650914D01*
X171832714Y-79650914D02*
X171880333Y-79841390D01*
X171880333Y-79841390D02*
X171880333Y-79984247D01*
X171880333Y-79984247D02*
X171832714Y-80174723D01*
X171832714Y-80174723D02*
X171785095Y-80269961D01*
X171785095Y-80269961D02*
X171689857Y-80365200D01*
X171689857Y-80365200D02*
X171547000Y-80412819D01*
X171547000Y-80412819D02*
X171308905Y-80412819D01*
X172213667Y-79412819D02*
X172832714Y-79412819D01*
X172832714Y-79412819D02*
X172499381Y-79793771D01*
X172499381Y-79793771D02*
X172642238Y-79793771D01*
X172642238Y-79793771D02*
X172737476Y-79841390D01*
X172737476Y-79841390D02*
X172785095Y-79889009D01*
X172785095Y-79889009D02*
X172832714Y-79984247D01*
X172832714Y-79984247D02*
X172832714Y-80222342D01*
X172832714Y-80222342D02*
X172785095Y-80317580D01*
X172785095Y-80317580D02*
X172737476Y-80365200D01*
X172737476Y-80365200D02*
X172642238Y-80412819D01*
X172642238Y-80412819D02*
X172356524Y-80412819D01*
X172356524Y-80412819D02*
X172261286Y-80365200D01*
X172261286Y-80365200D02*
X172213667Y-80317580D01*
X99082142Y-83454580D02*
X99034523Y-83502200D01*
X99034523Y-83502200D02*
X98891666Y-83549819D01*
X98891666Y-83549819D02*
X98796428Y-83549819D01*
X98796428Y-83549819D02*
X98653571Y-83502200D01*
X98653571Y-83502200D02*
X98558333Y-83406961D01*
X98558333Y-83406961D02*
X98510714Y-83311723D01*
X98510714Y-83311723D02*
X98463095Y-83121247D01*
X98463095Y-83121247D02*
X98463095Y-82978390D01*
X98463095Y-82978390D02*
X98510714Y-82787914D01*
X98510714Y-82787914D02*
X98558333Y-82692676D01*
X98558333Y-82692676D02*
X98653571Y-82597438D01*
X98653571Y-82597438D02*
X98796428Y-82549819D01*
X98796428Y-82549819D02*
X98891666Y-82549819D01*
X98891666Y-82549819D02*
X99034523Y-82597438D01*
X99034523Y-82597438D02*
X99082142Y-82645057D01*
X100034523Y-83549819D02*
X99463095Y-83549819D01*
X99748809Y-83549819D02*
X99748809Y-82549819D01*
X99748809Y-82549819D02*
X99653571Y-82692676D01*
X99653571Y-82692676D02*
X99558333Y-82787914D01*
X99558333Y-82787914D02*
X99463095Y-82835533D01*
X100939285Y-82549819D02*
X100463095Y-82549819D01*
X100463095Y-82549819D02*
X100415476Y-83026009D01*
X100415476Y-83026009D02*
X100463095Y-82978390D01*
X100463095Y-82978390D02*
X100558333Y-82930771D01*
X100558333Y-82930771D02*
X100796428Y-82930771D01*
X100796428Y-82930771D02*
X100891666Y-82978390D01*
X100891666Y-82978390D02*
X100939285Y-83026009D01*
X100939285Y-83026009D02*
X100986904Y-83121247D01*
X100986904Y-83121247D02*
X100986904Y-83359342D01*
X100986904Y-83359342D02*
X100939285Y-83454580D01*
X100939285Y-83454580D02*
X100891666Y-83502200D01*
X100891666Y-83502200D02*
X100796428Y-83549819D01*
X100796428Y-83549819D02*
X100558333Y-83549819D01*
X100558333Y-83549819D02*
X100463095Y-83502200D01*
X100463095Y-83502200D02*
X100415476Y-83454580D01*
X107068580Y-115429357D02*
X107116200Y-115476976D01*
X107116200Y-115476976D02*
X107163819Y-115619833D01*
X107163819Y-115619833D02*
X107163819Y-115715071D01*
X107163819Y-115715071D02*
X107116200Y-115857928D01*
X107116200Y-115857928D02*
X107020961Y-115953166D01*
X107020961Y-115953166D02*
X106925723Y-116000785D01*
X106925723Y-116000785D02*
X106735247Y-116048404D01*
X106735247Y-116048404D02*
X106592390Y-116048404D01*
X106592390Y-116048404D02*
X106401914Y-116000785D01*
X106401914Y-116000785D02*
X106306676Y-115953166D01*
X106306676Y-115953166D02*
X106211438Y-115857928D01*
X106211438Y-115857928D02*
X106163819Y-115715071D01*
X106163819Y-115715071D02*
X106163819Y-115619833D01*
X106163819Y-115619833D02*
X106211438Y-115476976D01*
X106211438Y-115476976D02*
X106259057Y-115429357D01*
X107163819Y-114476976D02*
X107163819Y-115048404D01*
X107163819Y-114762690D02*
X106163819Y-114762690D01*
X106163819Y-114762690D02*
X106306676Y-114857928D01*
X106306676Y-114857928D02*
X106401914Y-114953166D01*
X106401914Y-114953166D02*
X106449533Y-115048404D01*
X106163819Y-113857928D02*
X106163819Y-113762690D01*
X106163819Y-113762690D02*
X106211438Y-113667452D01*
X106211438Y-113667452D02*
X106259057Y-113619833D01*
X106259057Y-113619833D02*
X106354295Y-113572214D01*
X106354295Y-113572214D02*
X106544771Y-113524595D01*
X106544771Y-113524595D02*
X106782866Y-113524595D01*
X106782866Y-113524595D02*
X106973342Y-113572214D01*
X106973342Y-113572214D02*
X107068580Y-113619833D01*
X107068580Y-113619833D02*
X107116200Y-113667452D01*
X107116200Y-113667452D02*
X107163819Y-113762690D01*
X107163819Y-113762690D02*
X107163819Y-113857928D01*
X107163819Y-113857928D02*
X107116200Y-113953166D01*
X107116200Y-113953166D02*
X107068580Y-114000785D01*
X107068580Y-114000785D02*
X106973342Y-114048404D01*
X106973342Y-114048404D02*
X106782866Y-114096023D01*
X106782866Y-114096023D02*
X106544771Y-114096023D01*
X106544771Y-114096023D02*
X106354295Y-114048404D01*
X106354295Y-114048404D02*
X106259057Y-114000785D01*
X106259057Y-114000785D02*
X106211438Y-113953166D01*
X106211438Y-113953166D02*
X106163819Y-113857928D01*
X135201819Y-108021666D02*
X134725628Y-108354999D01*
X135201819Y-108593094D02*
X134201819Y-108593094D01*
X134201819Y-108593094D02*
X134201819Y-108212142D01*
X134201819Y-108212142D02*
X134249438Y-108116904D01*
X134249438Y-108116904D02*
X134297057Y-108069285D01*
X134297057Y-108069285D02*
X134392295Y-108021666D01*
X134392295Y-108021666D02*
X134535152Y-108021666D01*
X134535152Y-108021666D02*
X134630390Y-108069285D01*
X134630390Y-108069285D02*
X134678009Y-108116904D01*
X134678009Y-108116904D02*
X134725628Y-108212142D01*
X134725628Y-108212142D02*
X134725628Y-108593094D01*
X135201819Y-107069285D02*
X135201819Y-107640713D01*
X135201819Y-107354999D02*
X134201819Y-107354999D01*
X134201819Y-107354999D02*
X134344676Y-107450237D01*
X134344676Y-107450237D02*
X134439914Y-107545475D01*
X134439914Y-107545475D02*
X134487533Y-107640713D01*
X95384580Y-114993166D02*
X95432200Y-115040785D01*
X95432200Y-115040785D02*
X95479819Y-115183642D01*
X95479819Y-115183642D02*
X95479819Y-115278880D01*
X95479819Y-115278880D02*
X95432200Y-115421737D01*
X95432200Y-115421737D02*
X95336961Y-115516975D01*
X95336961Y-115516975D02*
X95241723Y-115564594D01*
X95241723Y-115564594D02*
X95051247Y-115612213D01*
X95051247Y-115612213D02*
X94908390Y-115612213D01*
X94908390Y-115612213D02*
X94717914Y-115564594D01*
X94717914Y-115564594D02*
X94622676Y-115516975D01*
X94622676Y-115516975D02*
X94527438Y-115421737D01*
X94527438Y-115421737D02*
X94479819Y-115278880D01*
X94479819Y-115278880D02*
X94479819Y-115183642D01*
X94479819Y-115183642D02*
X94527438Y-115040785D01*
X94527438Y-115040785D02*
X94575057Y-114993166D01*
X94479819Y-114088404D02*
X94479819Y-114564594D01*
X94479819Y-114564594D02*
X94956009Y-114612213D01*
X94956009Y-114612213D02*
X94908390Y-114564594D01*
X94908390Y-114564594D02*
X94860771Y-114469356D01*
X94860771Y-114469356D02*
X94860771Y-114231261D01*
X94860771Y-114231261D02*
X94908390Y-114136023D01*
X94908390Y-114136023D02*
X94956009Y-114088404D01*
X94956009Y-114088404D02*
X95051247Y-114040785D01*
X95051247Y-114040785D02*
X95289342Y-114040785D01*
X95289342Y-114040785D02*
X95384580Y-114088404D01*
X95384580Y-114088404D02*
X95432200Y-114136023D01*
X95432200Y-114136023D02*
X95479819Y-114231261D01*
X95479819Y-114231261D02*
X95479819Y-114469356D01*
X95479819Y-114469356D02*
X95432200Y-114564594D01*
X95432200Y-114564594D02*
X95384580Y-114612213D01*
X165933714Y-94986819D02*
X165933714Y-95796342D01*
X165933714Y-95796342D02*
X165981333Y-95891580D01*
X165981333Y-95891580D02*
X166028952Y-95939200D01*
X166028952Y-95939200D02*
X166124190Y-95986819D01*
X166124190Y-95986819D02*
X166314666Y-95986819D01*
X166314666Y-95986819D02*
X166409904Y-95939200D01*
X166409904Y-95939200D02*
X166457523Y-95891580D01*
X166457523Y-95891580D02*
X166505142Y-95796342D01*
X166505142Y-95796342D02*
X166505142Y-94986819D01*
X166933714Y-95701104D02*
X167409904Y-95701104D01*
X166838476Y-95986819D02*
X167171809Y-94986819D01*
X167171809Y-94986819D02*
X167505142Y-95986819D01*
X168409904Y-95986819D02*
X168076571Y-95510628D01*
X167838476Y-95986819D02*
X167838476Y-94986819D01*
X167838476Y-94986819D02*
X168219428Y-94986819D01*
X168219428Y-94986819D02*
X168314666Y-95034438D01*
X168314666Y-95034438D02*
X168362285Y-95082057D01*
X168362285Y-95082057D02*
X168409904Y-95177295D01*
X168409904Y-95177295D02*
X168409904Y-95320152D01*
X168409904Y-95320152D02*
X168362285Y-95415390D01*
X168362285Y-95415390D02*
X168314666Y-95463009D01*
X168314666Y-95463009D02*
X168219428Y-95510628D01*
X168219428Y-95510628D02*
X167838476Y-95510628D01*
X168695619Y-94986819D02*
X169267047Y-94986819D01*
X168981333Y-95986819D02*
X168981333Y-94986819D01*
X169600381Y-95605866D02*
X170362286Y-95605866D01*
X170695619Y-94986819D02*
X171267047Y-94986819D01*
X170981333Y-95986819D02*
X170981333Y-94986819D01*
X171790857Y-94986819D02*
X171981333Y-94986819D01*
X171981333Y-94986819D02*
X172076571Y-95034438D01*
X172076571Y-95034438D02*
X172171809Y-95129676D01*
X172171809Y-95129676D02*
X172219428Y-95320152D01*
X172219428Y-95320152D02*
X172219428Y-95653485D01*
X172219428Y-95653485D02*
X172171809Y-95843961D01*
X172171809Y-95843961D02*
X172076571Y-95939200D01*
X172076571Y-95939200D02*
X171981333Y-95986819D01*
X171981333Y-95986819D02*
X171790857Y-95986819D01*
X171790857Y-95986819D02*
X171695619Y-95939200D01*
X171695619Y-95939200D02*
X171600381Y-95843961D01*
X171600381Y-95843961D02*
X171552762Y-95653485D01*
X171552762Y-95653485D02*
X171552762Y-95320152D01*
X171552762Y-95320152D02*
X171600381Y-95129676D01*
X171600381Y-95129676D02*
X171695619Y-95034438D01*
X171695619Y-95034438D02*
X171790857Y-94986819D01*
X172648000Y-95605866D02*
X173409905Y-95605866D01*
X173886095Y-94986819D02*
X173886095Y-95796342D01*
X173886095Y-95796342D02*
X173933714Y-95891580D01*
X173933714Y-95891580D02*
X173981333Y-95939200D01*
X173981333Y-95939200D02*
X174076571Y-95986819D01*
X174076571Y-95986819D02*
X174267047Y-95986819D01*
X174267047Y-95986819D02*
X174362285Y-95939200D01*
X174362285Y-95939200D02*
X174409904Y-95891580D01*
X174409904Y-95891580D02*
X174457523Y-95796342D01*
X174457523Y-95796342D02*
X174457523Y-94986819D01*
X174886095Y-95939200D02*
X175028952Y-95986819D01*
X175028952Y-95986819D02*
X175267047Y-95986819D01*
X175267047Y-95986819D02*
X175362285Y-95939200D01*
X175362285Y-95939200D02*
X175409904Y-95891580D01*
X175409904Y-95891580D02*
X175457523Y-95796342D01*
X175457523Y-95796342D02*
X175457523Y-95701104D01*
X175457523Y-95701104D02*
X175409904Y-95605866D01*
X175409904Y-95605866D02*
X175362285Y-95558247D01*
X175362285Y-95558247D02*
X175267047Y-95510628D01*
X175267047Y-95510628D02*
X175076571Y-95463009D01*
X175076571Y-95463009D02*
X174981333Y-95415390D01*
X174981333Y-95415390D02*
X174933714Y-95367771D01*
X174933714Y-95367771D02*
X174886095Y-95272533D01*
X174886095Y-95272533D02*
X174886095Y-95177295D01*
X174886095Y-95177295D02*
X174933714Y-95082057D01*
X174933714Y-95082057D02*
X174981333Y-95034438D01*
X174981333Y-95034438D02*
X175076571Y-94986819D01*
X175076571Y-94986819D02*
X175314666Y-94986819D01*
X175314666Y-94986819D02*
X175457523Y-95034438D01*
X176219428Y-95463009D02*
X176362285Y-95510628D01*
X176362285Y-95510628D02*
X176409904Y-95558247D01*
X176409904Y-95558247D02*
X176457523Y-95653485D01*
X176457523Y-95653485D02*
X176457523Y-95796342D01*
X176457523Y-95796342D02*
X176409904Y-95891580D01*
X176409904Y-95891580D02*
X176362285Y-95939200D01*
X176362285Y-95939200D02*
X176267047Y-95986819D01*
X176267047Y-95986819D02*
X175886095Y-95986819D01*
X175886095Y-95986819D02*
X175886095Y-94986819D01*
X175886095Y-94986819D02*
X176219428Y-94986819D01*
X176219428Y-94986819D02*
X176314666Y-95034438D01*
X176314666Y-95034438D02*
X176362285Y-95082057D01*
X176362285Y-95082057D02*
X176409904Y-95177295D01*
X176409904Y-95177295D02*
X176409904Y-95272533D01*
X176409904Y-95272533D02*
X176362285Y-95367771D01*
X176362285Y-95367771D02*
X176314666Y-95415390D01*
X176314666Y-95415390D02*
X176219428Y-95463009D01*
X176219428Y-95463009D02*
X175886095Y-95463009D01*
X177409904Y-95986819D02*
X176838476Y-95986819D01*
X177124190Y-95986819D02*
X177124190Y-94986819D01*
X177124190Y-94986819D02*
X177028952Y-95129676D01*
X177028952Y-95129676D02*
X176933714Y-95224914D01*
X176933714Y-95224914D02*
X176838476Y-95272533D01*
X119768580Y-105555166D02*
X119816200Y-105602785D01*
X119816200Y-105602785D02*
X119863819Y-105745642D01*
X119863819Y-105745642D02*
X119863819Y-105840880D01*
X119863819Y-105840880D02*
X119816200Y-105983737D01*
X119816200Y-105983737D02*
X119720961Y-106078975D01*
X119720961Y-106078975D02*
X119625723Y-106126594D01*
X119625723Y-106126594D02*
X119435247Y-106174213D01*
X119435247Y-106174213D02*
X119292390Y-106174213D01*
X119292390Y-106174213D02*
X119101914Y-106126594D01*
X119101914Y-106126594D02*
X119006676Y-106078975D01*
X119006676Y-106078975D02*
X118911438Y-105983737D01*
X118911438Y-105983737D02*
X118863819Y-105840880D01*
X118863819Y-105840880D02*
X118863819Y-105745642D01*
X118863819Y-105745642D02*
X118911438Y-105602785D01*
X118911438Y-105602785D02*
X118959057Y-105555166D01*
X119863819Y-104602785D02*
X119863819Y-105174213D01*
X119863819Y-104888499D02*
X118863819Y-104888499D01*
X118863819Y-104888499D02*
X119006676Y-104983737D01*
X119006676Y-104983737D02*
X119101914Y-105078975D01*
X119101914Y-105078975D02*
X119149533Y-105174213D01*
X144366819Y-114061380D02*
X143366819Y-114061380D01*
X143843009Y-114061380D02*
X143843009Y-113489952D01*
X144366819Y-113489952D02*
X143366819Y-113489952D01*
X143843009Y-113013761D02*
X143843009Y-112680428D01*
X144366819Y-112537571D02*
X144366819Y-113013761D01*
X144366819Y-113013761D02*
X143366819Y-113013761D01*
X143366819Y-113013761D02*
X143366819Y-112537571D01*
X144081104Y-112156618D02*
X144081104Y-111680428D01*
X144366819Y-112251856D02*
X143366819Y-111918523D01*
X143366819Y-111918523D02*
X144366819Y-111585190D01*
X144366819Y-110680428D02*
X143890628Y-111013761D01*
X144366819Y-111251856D02*
X143366819Y-111251856D01*
X143366819Y-111251856D02*
X143366819Y-110870904D01*
X143366819Y-110870904D02*
X143414438Y-110775666D01*
X143414438Y-110775666D02*
X143462057Y-110728047D01*
X143462057Y-110728047D02*
X143557295Y-110680428D01*
X143557295Y-110680428D02*
X143700152Y-110680428D01*
X143700152Y-110680428D02*
X143795390Y-110728047D01*
X143795390Y-110728047D02*
X143843009Y-110775666D01*
X143843009Y-110775666D02*
X143890628Y-110870904D01*
X143890628Y-110870904D02*
X143890628Y-111251856D01*
X143366819Y-110394713D02*
X143366819Y-109823285D01*
X144366819Y-110108999D02*
X143366819Y-110108999D01*
X143366819Y-109299475D02*
X143366819Y-109108999D01*
X143366819Y-109108999D02*
X143414438Y-109013761D01*
X143414438Y-109013761D02*
X143509676Y-108918523D01*
X143509676Y-108918523D02*
X143700152Y-108870904D01*
X143700152Y-108870904D02*
X144033485Y-108870904D01*
X144033485Y-108870904D02*
X144223961Y-108918523D01*
X144223961Y-108918523D02*
X144319200Y-109013761D01*
X144319200Y-109013761D02*
X144366819Y-109108999D01*
X144366819Y-109108999D02*
X144366819Y-109299475D01*
X144366819Y-109299475D02*
X144319200Y-109394713D01*
X144319200Y-109394713D02*
X144223961Y-109489951D01*
X144223961Y-109489951D02*
X144033485Y-109537570D01*
X144033485Y-109537570D02*
X143700152Y-109537570D01*
X143700152Y-109537570D02*
X143509676Y-109489951D01*
X143509676Y-109489951D02*
X143414438Y-109394713D01*
X143414438Y-109394713D02*
X143366819Y-109299475D01*
X143366819Y-108442332D02*
X144176342Y-108442332D01*
X144176342Y-108442332D02*
X144271580Y-108394713D01*
X144271580Y-108394713D02*
X144319200Y-108347094D01*
X144319200Y-108347094D02*
X144366819Y-108251856D01*
X144366819Y-108251856D02*
X144366819Y-108061380D01*
X144366819Y-108061380D02*
X144319200Y-107966142D01*
X144319200Y-107966142D02*
X144271580Y-107918523D01*
X144271580Y-107918523D02*
X144176342Y-107870904D01*
X144176342Y-107870904D02*
X143366819Y-107870904D01*
X143366819Y-107537570D02*
X143366819Y-106966142D01*
X144366819Y-107251856D02*
X143366819Y-107251856D01*
X144366819Y-106108999D02*
X144366819Y-106680427D01*
X144366819Y-106394713D02*
X143366819Y-106394713D01*
X143366819Y-106394713D02*
X143509676Y-106489951D01*
X143509676Y-106489951D02*
X143604914Y-106585189D01*
X143604914Y-106585189D02*
X143652533Y-106680427D01*
X116043580Y-105431666D02*
X116091200Y-105479285D01*
X116091200Y-105479285D02*
X116138819Y-105622142D01*
X116138819Y-105622142D02*
X116138819Y-105717380D01*
X116138819Y-105717380D02*
X116091200Y-105860237D01*
X116091200Y-105860237D02*
X115995961Y-105955475D01*
X115995961Y-105955475D02*
X115900723Y-106003094D01*
X115900723Y-106003094D02*
X115710247Y-106050713D01*
X115710247Y-106050713D02*
X115567390Y-106050713D01*
X115567390Y-106050713D02*
X115376914Y-106003094D01*
X115376914Y-106003094D02*
X115281676Y-105955475D01*
X115281676Y-105955475D02*
X115186438Y-105860237D01*
X115186438Y-105860237D02*
X115138819Y-105717380D01*
X115138819Y-105717380D02*
X115138819Y-105622142D01*
X115138819Y-105622142D02*
X115186438Y-105479285D01*
X115186438Y-105479285D02*
X115234057Y-105431666D01*
X115234057Y-105050713D02*
X115186438Y-105003094D01*
X115186438Y-105003094D02*
X115138819Y-104907856D01*
X115138819Y-104907856D02*
X115138819Y-104669761D01*
X115138819Y-104669761D02*
X115186438Y-104574523D01*
X115186438Y-104574523D02*
X115234057Y-104526904D01*
X115234057Y-104526904D02*
X115329295Y-104479285D01*
X115329295Y-104479285D02*
X115424533Y-104479285D01*
X115424533Y-104479285D02*
X115567390Y-104526904D01*
X115567390Y-104526904D02*
X116138819Y-105098332D01*
X116138819Y-105098332D02*
X116138819Y-104479285D01*
X97155333Y-86068819D02*
X96679143Y-86068819D01*
X96679143Y-86068819D02*
X96631524Y-86545009D01*
X96631524Y-86545009D02*
X96679143Y-86497390D01*
X96679143Y-86497390D02*
X96774381Y-86449771D01*
X96774381Y-86449771D02*
X97012476Y-86449771D01*
X97012476Y-86449771D02*
X97107714Y-86497390D01*
X97107714Y-86497390D02*
X97155333Y-86545009D01*
X97155333Y-86545009D02*
X97202952Y-86640247D01*
X97202952Y-86640247D02*
X97202952Y-86878342D01*
X97202952Y-86878342D02*
X97155333Y-86973580D01*
X97155333Y-86973580D02*
X97107714Y-87021200D01*
X97107714Y-87021200D02*
X97012476Y-87068819D01*
X97012476Y-87068819D02*
X96774381Y-87068819D01*
X96774381Y-87068819D02*
X96679143Y-87021200D01*
X96679143Y-87021200D02*
X96631524Y-86973580D01*
X97488667Y-86068819D02*
X97822000Y-87068819D01*
X97822000Y-87068819D02*
X98155333Y-86068819D01*
X98250572Y-87164057D02*
X99012476Y-87164057D01*
X99155334Y-86068819D02*
X99774381Y-86068819D01*
X99774381Y-86068819D02*
X99441048Y-86449771D01*
X99441048Y-86449771D02*
X99583905Y-86449771D01*
X99583905Y-86449771D02*
X99679143Y-86497390D01*
X99679143Y-86497390D02*
X99726762Y-86545009D01*
X99726762Y-86545009D02*
X99774381Y-86640247D01*
X99774381Y-86640247D02*
X99774381Y-86878342D01*
X99774381Y-86878342D02*
X99726762Y-86973580D01*
X99726762Y-86973580D02*
X99679143Y-87021200D01*
X99679143Y-87021200D02*
X99583905Y-87068819D01*
X99583905Y-87068819D02*
X99298191Y-87068819D01*
X99298191Y-87068819D02*
X99202953Y-87021200D01*
X99202953Y-87021200D02*
X99155334Y-86973580D01*
X100202953Y-86973580D02*
X100250572Y-87021200D01*
X100250572Y-87021200D02*
X100202953Y-87068819D01*
X100202953Y-87068819D02*
X100155334Y-87021200D01*
X100155334Y-87021200D02*
X100202953Y-86973580D01*
X100202953Y-86973580D02*
X100202953Y-87068819D01*
X100583905Y-86068819D02*
X101202952Y-86068819D01*
X101202952Y-86068819D02*
X100869619Y-86449771D01*
X100869619Y-86449771D02*
X101012476Y-86449771D01*
X101012476Y-86449771D02*
X101107714Y-86497390D01*
X101107714Y-86497390D02*
X101155333Y-86545009D01*
X101155333Y-86545009D02*
X101202952Y-86640247D01*
X101202952Y-86640247D02*
X101202952Y-86878342D01*
X101202952Y-86878342D02*
X101155333Y-86973580D01*
X101155333Y-86973580D02*
X101107714Y-87021200D01*
X101107714Y-87021200D02*
X101012476Y-87068819D01*
X101012476Y-87068819D02*
X100726762Y-87068819D01*
X100726762Y-87068819D02*
X100631524Y-87021200D01*
X100631524Y-87021200D02*
X100583905Y-86973580D01*
X101488667Y-86068819D02*
X101822000Y-87068819D01*
X101822000Y-87068819D02*
X102155333Y-86068819D01*
X103012476Y-87068819D02*
X102441048Y-87068819D01*
X102726762Y-87068819D02*
X102726762Y-86068819D01*
X102726762Y-86068819D02*
X102631524Y-86211676D01*
X102631524Y-86211676D02*
X102536286Y-86306914D01*
X102536286Y-86306914D02*
X102441048Y-86354533D01*
X185229667Y-107019200D02*
X185372524Y-107066819D01*
X185372524Y-107066819D02*
X185610619Y-107066819D01*
X185610619Y-107066819D02*
X185705857Y-107019200D01*
X185705857Y-107019200D02*
X185753476Y-106971580D01*
X185753476Y-106971580D02*
X185801095Y-106876342D01*
X185801095Y-106876342D02*
X185801095Y-106781104D01*
X185801095Y-106781104D02*
X185753476Y-106685866D01*
X185753476Y-106685866D02*
X185705857Y-106638247D01*
X185705857Y-106638247D02*
X185610619Y-106590628D01*
X185610619Y-106590628D02*
X185420143Y-106543009D01*
X185420143Y-106543009D02*
X185324905Y-106495390D01*
X185324905Y-106495390D02*
X185277286Y-106447771D01*
X185277286Y-106447771D02*
X185229667Y-106352533D01*
X185229667Y-106352533D02*
X185229667Y-106257295D01*
X185229667Y-106257295D02*
X185277286Y-106162057D01*
X185277286Y-106162057D02*
X185324905Y-106114438D01*
X185324905Y-106114438D02*
X185420143Y-106066819D01*
X185420143Y-106066819D02*
X185658238Y-106066819D01*
X185658238Y-106066819D02*
X185801095Y-106114438D01*
X186134429Y-106066819D02*
X186372524Y-107066819D01*
X186372524Y-107066819D02*
X186563000Y-106352533D01*
X186563000Y-106352533D02*
X186753476Y-107066819D01*
X186753476Y-107066819D02*
X186991572Y-106066819D01*
X187896333Y-107066819D02*
X187324905Y-107066819D01*
X187610619Y-107066819D02*
X187610619Y-106066819D01*
X187610619Y-106066819D02*
X187515381Y-106209676D01*
X187515381Y-106209676D02*
X187420143Y-106304914D01*
X187420143Y-106304914D02*
X187324905Y-106352533D01*
X138144819Y-90477857D02*
X137668628Y-90811190D01*
X138144819Y-91049285D02*
X137144819Y-91049285D01*
X137144819Y-91049285D02*
X137144819Y-90668333D01*
X137144819Y-90668333D02*
X137192438Y-90573095D01*
X137192438Y-90573095D02*
X137240057Y-90525476D01*
X137240057Y-90525476D02*
X137335295Y-90477857D01*
X137335295Y-90477857D02*
X137478152Y-90477857D01*
X137478152Y-90477857D02*
X137573390Y-90525476D01*
X137573390Y-90525476D02*
X137621009Y-90573095D01*
X137621009Y-90573095D02*
X137668628Y-90668333D01*
X137668628Y-90668333D02*
X137668628Y-91049285D01*
X138144819Y-89525476D02*
X138144819Y-90096904D01*
X138144819Y-89811190D02*
X137144819Y-89811190D01*
X137144819Y-89811190D02*
X137287676Y-89906428D01*
X137287676Y-89906428D02*
X137382914Y-90001666D01*
X137382914Y-90001666D02*
X137430533Y-90096904D01*
X138144819Y-88573095D02*
X138144819Y-89144523D01*
X138144819Y-88858809D02*
X137144819Y-88858809D01*
X137144819Y-88858809D02*
X137287676Y-88954047D01*
X137287676Y-88954047D02*
X137382914Y-89049285D01*
X137382914Y-89049285D02*
X137430533Y-89144523D01*
X119602819Y-93811666D02*
X119126628Y-94144999D01*
X119602819Y-94383094D02*
X118602819Y-94383094D01*
X118602819Y-94383094D02*
X118602819Y-94002142D01*
X118602819Y-94002142D02*
X118650438Y-93906904D01*
X118650438Y-93906904D02*
X118698057Y-93859285D01*
X118698057Y-93859285D02*
X118793295Y-93811666D01*
X118793295Y-93811666D02*
X118936152Y-93811666D01*
X118936152Y-93811666D02*
X119031390Y-93859285D01*
X119031390Y-93859285D02*
X119079009Y-93906904D01*
X119079009Y-93906904D02*
X119126628Y-94002142D01*
X119126628Y-94002142D02*
X119126628Y-94383094D01*
X118602819Y-92954523D02*
X118602819Y-93144999D01*
X118602819Y-93144999D02*
X118650438Y-93240237D01*
X118650438Y-93240237D02*
X118698057Y-93287856D01*
X118698057Y-93287856D02*
X118840914Y-93383094D01*
X118840914Y-93383094D02*
X119031390Y-93430713D01*
X119031390Y-93430713D02*
X119412342Y-93430713D01*
X119412342Y-93430713D02*
X119507580Y-93383094D01*
X119507580Y-93383094D02*
X119555200Y-93335475D01*
X119555200Y-93335475D02*
X119602819Y-93240237D01*
X119602819Y-93240237D02*
X119602819Y-93049761D01*
X119602819Y-93049761D02*
X119555200Y-92954523D01*
X119555200Y-92954523D02*
X119507580Y-92906904D01*
X119507580Y-92906904D02*
X119412342Y-92859285D01*
X119412342Y-92859285D02*
X119174247Y-92859285D01*
X119174247Y-92859285D02*
X119079009Y-92906904D01*
X119079009Y-92906904D02*
X119031390Y-92954523D01*
X119031390Y-92954523D02*
X118983771Y-93049761D01*
X118983771Y-93049761D02*
X118983771Y-93240237D01*
X118983771Y-93240237D02*
X119031390Y-93335475D01*
X119031390Y-93335475D02*
X119079009Y-93383094D01*
X119079009Y-93383094D02*
X119174247Y-93430713D01*
X134946819Y-111942666D02*
X134470628Y-112275999D01*
X134946819Y-112514094D02*
X133946819Y-112514094D01*
X133946819Y-112514094D02*
X133946819Y-112133142D01*
X133946819Y-112133142D02*
X133994438Y-112037904D01*
X133994438Y-112037904D02*
X134042057Y-111990285D01*
X134042057Y-111990285D02*
X134137295Y-111942666D01*
X134137295Y-111942666D02*
X134280152Y-111942666D01*
X134280152Y-111942666D02*
X134375390Y-111990285D01*
X134375390Y-111990285D02*
X134423009Y-112037904D01*
X134423009Y-112037904D02*
X134470628Y-112133142D01*
X134470628Y-112133142D02*
X134470628Y-112514094D01*
X134042057Y-111561713D02*
X133994438Y-111514094D01*
X133994438Y-111514094D02*
X133946819Y-111418856D01*
X133946819Y-111418856D02*
X133946819Y-111180761D01*
X133946819Y-111180761D02*
X133994438Y-111085523D01*
X133994438Y-111085523D02*
X134042057Y-111037904D01*
X134042057Y-111037904D02*
X134137295Y-110990285D01*
X134137295Y-110990285D02*
X134232533Y-110990285D01*
X134232533Y-110990285D02*
X134375390Y-111037904D01*
X134375390Y-111037904D02*
X134946819Y-111609332D01*
X134946819Y-111609332D02*
X134946819Y-110990285D01*
D12*
%TO.C,MCU1*%
X169158000Y-97882000D02*
X169158000Y-98357000D01*
X169158000Y-103102000D02*
X169158000Y-102627000D01*
X169633000Y-97882000D02*
X169158000Y-97882000D01*
X169633000Y-103102000D02*
X169158000Y-103102000D01*
X173903000Y-97882000D02*
X174378000Y-97882000D01*
X173903000Y-103102000D02*
X174078000Y-103102000D01*
X174378000Y-97882000D02*
X174378000Y-98357000D01*
X174378000Y-102627000D02*
X174378000Y-102862000D01*
X174618000Y-103432000D02*
X174138000Y-103432000D01*
X174378000Y-103102000D01*
X174618000Y-103432000D01*
G36*
X174618000Y-103432000D02*
G01*
X174138000Y-103432000D01*
X174378000Y-103102000D01*
X174618000Y-103432000D01*
G37*
%TO.C,C11*%
X108231000Y-114398248D02*
X108231000Y-114920752D01*
X109701000Y-114398248D02*
X109701000Y-114920752D01*
D13*
%TO.C,GSR1*%
X124176000Y-83454000D02*
X128176000Y-83454000D01*
X124176000Y-92314000D02*
X128176000Y-92314000D01*
D14*
X122231000Y-83674000D02*
G75*
G02*
X122031000Y-83674000I-100000J0D01*
G01*
X122031000Y-83674000D02*
G75*
G02*
X122231000Y-83674000I100000J0D01*
G01*
D12*
%TO.C,C9*%
X121288000Y-77376248D02*
X121288000Y-77898752D01*
X122758000Y-77376248D02*
X122758000Y-77898752D01*
%TO.C,R8*%
X135474000Y-83527936D02*
X135474000Y-83982064D01*
X136944000Y-83527936D02*
X136944000Y-83982064D01*
%TO.C,D1*%
X162489000Y-83841000D02*
X162489000Y-78331000D01*
X159189000Y-83841000D02*
X162489000Y-83841000D01*
X159189000Y-83841000D02*
X159189000Y-78331000D01*
%TO.C,C6*%
X96448000Y-114565248D02*
X96448000Y-115087752D01*
X97918000Y-114565248D02*
X97918000Y-115087752D01*
%TO.C,C7*%
X100103000Y-114525248D02*
X100103000Y-115047752D01*
X101573000Y-114525248D02*
X101573000Y-115047752D01*
%TO.C,C16*%
X96572000Y-106814252D02*
X96572000Y-106291748D01*
X98042000Y-106814252D02*
X98042000Y-106291748D01*
%TO.C,R10*%
X135347000Y-95068936D02*
X135347000Y-95523064D01*
X136817000Y-95068936D02*
X136817000Y-95523064D01*
%TO.C,R13*%
X171920936Y-105932000D02*
X172375064Y-105932000D01*
X171920936Y-107402000D02*
X172375064Y-107402000D01*
%TO.C,R15*%
X163501064Y-89241000D02*
X163046936Y-89241000D01*
X163501064Y-87771000D02*
X163046936Y-87771000D01*
%TO.C,R9*%
X135347000Y-100238064D02*
X135347000Y-99783936D01*
X136817000Y-100238064D02*
X136817000Y-99783936D01*
%TO.C,R3*%
X116763000Y-84474064D02*
X116763000Y-84019936D01*
X118233000Y-84474064D02*
X118233000Y-84019936D01*
%TO.C,3.3V_1.8V1*%
X101807000Y-103397000D02*
X105567000Y-103397000D01*
X101807000Y-110217000D02*
X105567000Y-110217000D01*
X105567000Y-103397000D02*
X105567000Y-104657000D01*
X105567000Y-110217000D02*
X105567000Y-108957000D01*
X100527000Y-103497000D02*
X100287000Y-103167000D01*
X100767000Y-103167000D01*
X100527000Y-103497000D01*
G36*
X100527000Y-103497000D02*
G01*
X100287000Y-103167000D01*
X100767000Y-103167000D01*
X100527000Y-103497000D01*
G37*
%TO.C,GSR_IN1*%
X107618000Y-95090000D02*
X107618000Y-96340000D01*
X107618000Y-96340000D02*
X108868000Y-96340000D01*
X107718000Y-94280000D02*
X107718000Y-94580000D01*
X107718000Y-94580000D02*
X107918000Y-94580000D01*
X107818000Y-94280000D02*
X107818000Y-94580000D01*
X107918000Y-89920000D02*
X107918000Y-96040000D01*
X107918000Y-93480000D02*
X108528000Y-93480000D01*
X107918000Y-94280000D02*
X107718000Y-94280000D01*
X107918000Y-96040000D02*
X112638000Y-96040000D01*
X108528000Y-90530000D02*
X108528000Y-92480000D01*
X108528000Y-92480000D02*
X107918000Y-92480000D01*
X108528000Y-93480000D02*
X108528000Y-95430000D01*
X108528000Y-95430000D02*
X112028000Y-95430000D01*
X109228000Y-89920000D02*
X109228000Y-90530000D01*
X109228000Y-96040000D02*
X109228000Y-95430000D01*
X110528000Y-89920000D02*
X110528000Y-90530000D01*
X110528000Y-96040000D02*
X110528000Y-95430000D01*
X111528000Y-92880000D02*
X112028000Y-92880000D01*
X111528000Y-93080000D02*
X111528000Y-92880000D01*
X112028000Y-90530000D02*
X108528000Y-90530000D01*
X112028000Y-92980000D02*
X111528000Y-92980000D01*
X112028000Y-93080000D02*
X111528000Y-93080000D01*
X112028000Y-95430000D02*
X112028000Y-90530000D01*
X112638000Y-89920000D02*
X107918000Y-89920000D01*
X112638000Y-96040000D02*
X112638000Y-89920000D01*
%TO.C,R12*%
X141443000Y-97063064D02*
X141443000Y-96608936D01*
X142913000Y-97063064D02*
X142913000Y-96608936D01*
%TO.C,D2*%
X176506000Y-84108000D02*
X182016000Y-84108000D01*
X176506000Y-80808000D02*
X182016000Y-80808000D01*
X176506000Y-80808000D02*
X176506000Y-84108000D01*
%TO.C,R7*%
X112106000Y-84331064D02*
X112106000Y-83876936D01*
X113576000Y-84331064D02*
X113576000Y-83876936D01*
%TO.C,C13*%
X178799000Y-101485252D02*
X178799000Y-100962748D01*
X180269000Y-101485252D02*
X180269000Y-100962748D01*
%TO.C,C12*%
X112168000Y-114271248D02*
X112168000Y-114793752D01*
X113638000Y-114271248D02*
X113638000Y-114793752D01*
%TO.C,USB1*%
X178348000Y-78062000D02*
X164948000Y-78062000D01*
X178348000Y-72062000D02*
X178348000Y-74662000D01*
X178348000Y-72062000D02*
X173398000Y-72062000D01*
X164948000Y-72062000D02*
X169898000Y-72062000D01*
X164948000Y-72062000D02*
X164948000Y-74662000D01*
%TO.C,SIG1*%
X146823000Y-93857000D02*
X146823000Y-99977000D01*
X146823000Y-99977000D02*
X151543000Y-99977000D01*
X147433000Y-94467000D02*
X147433000Y-99367000D01*
X147433000Y-96817000D02*
X147933000Y-96817000D01*
X147433000Y-96917000D02*
X147933000Y-96917000D01*
X147433000Y-99367000D02*
X150933000Y-99367000D01*
X147933000Y-96817000D02*
X147933000Y-97017000D01*
X147933000Y-97017000D02*
X147433000Y-97017000D01*
X148933000Y-93857000D02*
X148933000Y-94467000D01*
X148933000Y-99977000D02*
X148933000Y-99367000D01*
X150233000Y-93857000D02*
X150233000Y-94467000D01*
X150233000Y-99977000D02*
X150233000Y-99367000D01*
X150933000Y-94467000D02*
X147433000Y-94467000D01*
X150933000Y-96417000D02*
X150933000Y-94467000D01*
X150933000Y-97417000D02*
X151543000Y-97417000D01*
X150933000Y-99367000D02*
X150933000Y-97417000D01*
X151543000Y-93857000D02*
X146823000Y-93857000D01*
X151543000Y-95617000D02*
X151743000Y-95617000D01*
X151543000Y-96417000D02*
X150933000Y-96417000D01*
X151543000Y-99977000D02*
X151543000Y-93857000D01*
X151643000Y-95617000D02*
X151643000Y-95317000D01*
X151743000Y-95317000D02*
X151543000Y-95317000D01*
X151743000Y-95617000D02*
X151743000Y-95317000D01*
X151843000Y-93557000D02*
X150593000Y-93557000D01*
X151843000Y-94807000D02*
X151843000Y-93557000D01*
%TO.C,C14*%
X99463748Y-93057000D02*
X99986252Y-93057000D01*
X99463748Y-94527000D02*
X99986252Y-94527000D01*
%TO.C,R4*%
X116636000Y-73224936D02*
X116636000Y-73679064D01*
X118106000Y-73224936D02*
X118106000Y-73679064D01*
%TO.C,C17*%
X103664252Y-99341000D02*
X103141748Y-99341000D01*
X103664252Y-100811000D02*
X103141748Y-100811000D01*
%TO.C,C8*%
X125018000Y-77381748D02*
X125018000Y-77904252D01*
X126488000Y-77381748D02*
X126488000Y-77904252D01*
%TO.C,C3*%
X116636000Y-78524748D02*
X116636000Y-79047252D01*
X118106000Y-78524748D02*
X118106000Y-79047252D01*
%TO.C,HEART1*%
X124013000Y-105571000D02*
X127323000Y-105571000D01*
X126923000Y-111391000D02*
X124033000Y-111391000D01*
X127363000Y-111601000D02*
X127363000Y-111321000D01*
X127643000Y-111321000D01*
X127363000Y-111601000D01*
G36*
X127363000Y-111601000D02*
G01*
X127363000Y-111321000D01*
X127643000Y-111321000D01*
X127363000Y-111601000D01*
G37*
%TO.C,R5*%
X116763000Y-88845936D02*
X116763000Y-89300064D01*
X118233000Y-88845936D02*
X118233000Y-89300064D01*
%TO.C,C4*%
X141443000Y-92144252D02*
X141443000Y-91621748D01*
X142913000Y-92144252D02*
X142913000Y-91621748D01*
%TO.C,R16*%
X162919936Y-92597000D02*
X163374064Y-92597000D01*
X162919936Y-94067000D02*
X163374064Y-94067000D01*
%TO.C,R14*%
X118137000Y-110606064D02*
X118137000Y-110151936D01*
X119607000Y-110606064D02*
X119607000Y-110151936D01*
%TO.C,D3*%
X168537000Y-84108000D02*
X174047000Y-84108000D01*
X168537000Y-80808000D02*
X174047000Y-80808000D01*
X168537000Y-80808000D02*
X168537000Y-84108000D01*
%TO.C,C15*%
X99463748Y-84040000D02*
X99986252Y-84040000D01*
X99463748Y-85510000D02*
X99986252Y-85510000D01*
%TO.C,C10*%
X104294000Y-114525248D02*
X104294000Y-115047752D01*
X105764000Y-114525248D02*
X105764000Y-115047752D01*
%TO.C,R1*%
X132234000Y-107955064D02*
X132234000Y-107500936D01*
X133704000Y-107955064D02*
X133704000Y-107500936D01*
%TO.C,C5*%
X92610000Y-114565248D02*
X92610000Y-115087752D01*
X94080000Y-114565248D02*
X94080000Y-115087752D01*
D13*
%TO.C,UART-TO-USB1*%
X168886000Y-88884000D02*
X168886000Y-89434000D01*
X168886000Y-88884000D02*
X169436000Y-88884000D01*
X168886000Y-93884000D02*
X168886000Y-93334000D01*
X168886000Y-93884000D02*
X169436000Y-93884000D01*
X173886000Y-88884000D02*
X173336000Y-88884000D01*
X173886000Y-88884000D02*
X173886000Y-89434000D01*
X173886000Y-93884000D02*
X173336000Y-93884000D01*
X173886000Y-93884000D02*
X173886000Y-93334000D01*
D14*
X172986000Y-87844000D02*
G75*
G02*
X172786000Y-87844000I-100000J0D01*
G01*
X172786000Y-87844000D02*
G75*
G02*
X172986000Y-87844000I100000J0D01*
G01*
D12*
%TO.C,C1*%
X116994000Y-105127248D02*
X116994000Y-105649752D01*
X118464000Y-105127248D02*
X118464000Y-105649752D01*
%TO.C,HEARTOUT1*%
X138102000Y-107049000D02*
X138102000Y-113169000D01*
X138102000Y-113169000D02*
X142822000Y-113169000D01*
X138712000Y-107659000D02*
X138712000Y-112559000D01*
X138712000Y-110009000D02*
X139212000Y-110009000D01*
X138712000Y-110109000D02*
X139212000Y-110109000D01*
X138712000Y-112559000D02*
X142212000Y-112559000D01*
X139212000Y-110009000D02*
X139212000Y-110209000D01*
X139212000Y-110209000D02*
X138712000Y-110209000D01*
X140212000Y-107049000D02*
X140212000Y-107659000D01*
X140212000Y-113169000D02*
X140212000Y-112559000D01*
X141512000Y-107049000D02*
X141512000Y-107659000D01*
X141512000Y-113169000D02*
X141512000Y-112559000D01*
X142212000Y-107659000D02*
X138712000Y-107659000D01*
X142212000Y-109609000D02*
X142212000Y-107659000D01*
X142212000Y-110609000D02*
X142822000Y-110609000D01*
X142212000Y-112559000D02*
X142212000Y-110609000D01*
X142822000Y-107049000D02*
X138102000Y-107049000D01*
X142822000Y-108809000D02*
X143022000Y-108809000D01*
X142822000Y-109609000D02*
X142212000Y-109609000D01*
X142822000Y-113169000D02*
X142822000Y-107049000D01*
X142922000Y-108809000D02*
X142922000Y-108509000D01*
X143022000Y-108509000D02*
X142822000Y-108509000D01*
X143022000Y-108809000D02*
X143022000Y-108509000D01*
X143122000Y-106749000D02*
X141872000Y-106749000D01*
X143122000Y-107999000D02*
X143122000Y-106749000D01*
%TO.C,C2*%
X113269000Y-105003748D02*
X113269000Y-105526252D01*
X114739000Y-105003748D02*
X114739000Y-105526252D01*
%TO.C,5V_3.3V1*%
X99646500Y-87848000D02*
X98996500Y-87848000D01*
X99646500Y-87848000D02*
X100296500Y-87848000D01*
X99646500Y-90968000D02*
X98996500Y-90968000D01*
X99646500Y-90968000D02*
X100296500Y-90968000D01*
X98484000Y-87898000D02*
X98244000Y-87568000D01*
X98724000Y-87568000D01*
X98484000Y-87898000D01*
G36*
X98484000Y-87898000D02*
G01*
X98244000Y-87568000D01*
X98724000Y-87568000D01*
X98484000Y-87898000D01*
G37*
%TO.C,SW1*%
X183063000Y-101612000D02*
X183063000Y-103112000D01*
X184313000Y-105612000D02*
X188813000Y-105612000D01*
X188813000Y-99112000D02*
X184313000Y-99112000D01*
X190063000Y-103112000D02*
X190063000Y-101612000D01*
%TO.C,R11*%
X135305000Y-89607936D02*
X135305000Y-90062064D01*
X136775000Y-89607936D02*
X136775000Y-90062064D01*
%TO.C,R6*%
X116763000Y-93417936D02*
X116763000Y-93872064D01*
X118233000Y-93417936D02*
X118233000Y-93872064D01*
%TO.C,R2*%
X132107000Y-111548936D02*
X132107000Y-112003064D01*
X133577000Y-111548936D02*
X133577000Y-112003064D01*
%TD*%
M02*
