M48
; DRILL file {KiCad 8.0.8} date 2025-03-11T03:54:04-0500
; FORMAT={-:-/ absolute / inch / decimal}
; #@! TF.CreationDate,2025-03-11T03:54:04-05:00
; #@! TF.GenerationSoftware,Kicad,Pcbnew,8.0.8
; #@! TF.FileFunction,Plated,1,2,PTH
FMAT,2
INCH
; #@! TA.AperFunction,Plated,PTH,ViaDrill
T1C0.0118
; #@! TA.AperFunction,Plated,PTH,ComponentDrill
T2C0.0295
; #@! TA.AperFunction,Plated,PTH,ComponentDrill
T3C0.0354
; #@! TA.AperFunction,Plated,PTH,ComponentDrill
T4C0.0433
; #@! TA.AperFunction,Plated,PTH,ComponentDrill
T5C0.0512
%
G90
G05
T1
X4.6001Y-3.41
X4.725Y-4.21
X4.785Y-3.625
X4.795Y-3.495
X4.8001Y-3.415
X4.83Y-4.11
X4.835Y-4.27
X4.9124Y-4.1124
X5.105Y-4.2773
X5.105Y-4.3582
X5.145Y-3.515
X5.215Y-3.545
X5.245Y-3.635
X5.27Y-3.895
X6.1Y-4.125
X6.12Y-4.07
X6.3083Y-3.7967
X6.525Y-3.9712
X6.5258Y-3.3768
X6.555Y-3.9022
X6.565Y-3.845
X6.615Y-3.8634
X6.6881Y-3.4445
X6.74Y-3.915
X6.8276Y-3.385
X6.8481Y-3.7745
X6.88Y-3.375
X6.9031Y-3.9415
X6.905Y-4.09
X6.9081Y-4.0445
X6.9131Y-3.6045
X6.915Y-3.81
T2
X4.32Y-3.6213
X4.32Y-3.7
X5.5517Y-4.2956
X5.5517Y-4.3744
X5.895Y-3.7763
X5.895Y-3.855
T3
X6.62Y-3.03
X6.7184Y-3.03
X6.7972Y-3.03
X6.8956Y-3.03
T4
X7.217Y-3.9414
X7.217Y-4.1186
X7.473Y-3.9414
X7.473Y-4.1186
T5
G00X6.4991Y-3.0261
M15
G01X6.4991Y-2.9867
M16
G05
G00X6.7381Y-2.8418
M15
G01X6.7775Y-2.8418
M16
G05
G00X7.0165Y-2.9867
M15
G01X7.0165Y-3.0261
M16
G05
M30
