%TF.GenerationSoftware,KiCad,Pcbnew,8.0.8*%
%TF.CreationDate,2025-03-11T03:54:01-05:00*%
%TF.ProjectId,finalproject,66696e61-6c70-4726-9f6a-6563742e6b69,rev?*%
%TF.SameCoordinates,Original*%
%TF.FileFunction,Copper,L1,Top*%
%TF.FilePolarity,Positive*%
%FSLAX46Y46*%
G04 Gerber Fmt 4.6, Leading zero omitted, Abs format (unit mm)*
G04 Created by KiCad (PCBNEW 8.0.8) date 2025-03-11 03:54:01*
%MOMM*%
%LPD*%
G01*
G04 APERTURE LIST*
G04 Aperture macros list*
%AMRoundRect*
0 Rectangle with rounded corners*
0 $1 Rounding radius*
0 $2 $3 $4 $5 $6 $7 $8 $9 X,Y pos of 4 corners*
0 Add a 4 corners polygon primitive as box body*
4,1,4,$2,$3,$4,$5,$6,$7,$8,$9,$2,$3,0*
0 Add four circle primitives for the rounded corners*
1,1,$1+$1,$2,$3*
1,1,$1+$1,$4,$5*
1,1,$1+$1,$6,$7*
1,1,$1+$1,$8,$9*
0 Add four rect primitives between the rounded corners*
20,1,$1+$1,$2,$3,$4,$5,0*
20,1,$1+$1,$4,$5,$6,$7,0*
20,1,$1+$1,$6,$7,$8,$9,0*
20,1,$1+$1,$8,$9,$2,$3,0*%
G04 Aperture macros list end*
%TA.AperFunction,SMDPad,CuDef*%
%ADD10RoundRect,0.062500X0.375000X0.062500X-0.375000X0.062500X-0.375000X-0.062500X0.375000X-0.062500X0*%
%TD*%
%TA.AperFunction,SMDPad,CuDef*%
%ADD11RoundRect,0.062500X0.062500X0.375000X-0.062500X0.375000X-0.062500X-0.375000X0.062500X-0.375000X0*%
%TD*%
%TA.AperFunction,HeatsinkPad*%
%ADD12R,3.450000X3.450000*%
%TD*%
%TA.AperFunction,SMDPad,CuDef*%
%ADD13RoundRect,0.250000X-0.475000X0.337500X-0.475000X-0.337500X0.475000X-0.337500X0.475000X0.337500X0*%
%TD*%
%TA.AperFunction,SMDPad,CuDef*%
%ADD14RoundRect,0.075000X-0.910000X-0.225000X0.910000X-0.225000X0.910000X0.225000X-0.910000X0.225000X0*%
%TD*%
%TA.AperFunction,SMDPad,CuDef*%
%ADD15RoundRect,0.250000X-0.450000X0.350000X-0.450000X-0.350000X0.450000X-0.350000X0.450000X0.350000X0*%
%TD*%
%TA.AperFunction,SMDPad,CuDef*%
%ADD16RoundRect,0.250000X0.650000X-1.000000X0.650000X1.000000X-0.650000X1.000000X-0.650000X-1.000000X0*%
%TD*%
%TA.AperFunction,SMDPad,CuDef*%
%ADD17RoundRect,0.250000X0.475000X-0.337500X0.475000X0.337500X-0.475000X0.337500X-0.475000X-0.337500X0*%
%TD*%
%TA.AperFunction,SMDPad,CuDef*%
%ADD18RoundRect,0.250000X-0.350000X-0.450000X0.350000X-0.450000X0.350000X0.450000X-0.350000X0.450000X0*%
%TD*%
%TA.AperFunction,SMDPad,CuDef*%
%ADD19RoundRect,0.250000X0.350000X0.450000X-0.350000X0.450000X-0.350000X-0.450000X0.350000X-0.450000X0*%
%TD*%
%TA.AperFunction,SMDPad,CuDef*%
%ADD20RoundRect,0.250000X0.450000X-0.350000X0.450000X0.350000X-0.450000X0.350000X-0.450000X-0.350000X0*%
%TD*%
%TA.AperFunction,SMDPad,CuDef*%
%ADD21RoundRect,0.375000X-0.625000X-0.375000X0.625000X-0.375000X0.625000X0.375000X-0.625000X0.375000X0*%
%TD*%
%TA.AperFunction,SMDPad,CuDef*%
%ADD22RoundRect,0.500000X-0.500000X-1.400000X0.500000X-1.400000X0.500000X1.400000X-0.500000X1.400000X0*%
%TD*%
%TA.AperFunction,ComponentPad*%
%ADD23RoundRect,0.250000X0.625000X-0.350000X0.625000X0.350000X-0.625000X0.350000X-0.625000X-0.350000X0*%
%TD*%
%TA.AperFunction,ComponentPad*%
%ADD24O,1.750000X1.200000*%
%TD*%
%TA.AperFunction,SMDPad,CuDef*%
%ADD25RoundRect,0.250000X-1.000000X-0.650000X1.000000X-0.650000X1.000000X0.650000X-1.000000X0.650000X0*%
%TD*%
%TA.AperFunction,ComponentPad*%
%ADD26O,1.900000X2.900000*%
%TD*%
%TA.AperFunction,ComponentPad*%
%ADD27O,2.900000X1.900000*%
%TD*%
%TA.AperFunction,ComponentPad*%
%ADD28C,1.300000*%
%TD*%
%TA.AperFunction,ComponentPad*%
%ADD29R,1.300000X1.300000*%
%TD*%
%TA.AperFunction,ComponentPad*%
%ADD30RoundRect,0.250000X-0.625000X0.350000X-0.625000X-0.350000X0.625000X-0.350000X0.625000X0.350000X0*%
%TD*%
%TA.AperFunction,SMDPad,CuDef*%
%ADD31RoundRect,0.250000X-0.337500X-0.475000X0.337500X-0.475000X0.337500X0.475000X-0.337500X0.475000X0*%
%TD*%
%TA.AperFunction,SMDPad,CuDef*%
%ADD32RoundRect,0.250000X0.337500X0.475000X-0.337500X0.475000X-0.337500X-0.475000X0.337500X-0.475000X0*%
%TD*%
%TA.AperFunction,SMDPad,CuDef*%
%ADD33RoundRect,0.087500X0.287500X0.087500X-0.287500X0.087500X-0.287500X-0.087500X0.287500X-0.087500X0*%
%TD*%
%TA.AperFunction,SMDPad,CuDef*%
%ADD34RoundRect,0.032500X-0.097500X0.452500X-0.097500X-0.452500X0.097500X-0.452500X0.097500X0.452500X0*%
%TD*%
%TA.AperFunction,SMDPad,CuDef*%
%ADD35RoundRect,0.032500X-0.452500X0.097500X-0.452500X-0.097500X0.452500X-0.097500X0.452500X0.097500X0*%
%TD*%
%TA.AperFunction,SMDPad,CuDef*%
%ADD36R,3.150000X3.150000*%
%TD*%
%TA.AperFunction,SMDPad,CuDef*%
%ADD37RoundRect,0.150000X-0.587500X-0.150000X0.587500X-0.150000X0.587500X0.150000X-0.587500X0.150000X0*%
%TD*%
%TA.AperFunction,ComponentPad*%
%ADD38C,2.000000*%
%TD*%
%TA.AperFunction,ViaPad*%
%ADD39C,0.600000*%
%TD*%
%TA.AperFunction,Conductor*%
%ADD40C,0.508000*%
%TD*%
%TA.AperFunction,Conductor*%
%ADD41C,0.254000*%
%TD*%
%TA.AperFunction,Conductor*%
%ADD42C,0.381000*%
%TD*%
G04 APERTURE END LIST*
D10*
%TO.P,MCU1,1,VDD*%
%TO.N,+3.3V*%
X174205500Y-102242000D03*
%TO.P,MCU1,2,PC14*%
%TO.N,unconnected-(MCU1-PC14-Pad2)*%
X174205500Y-101742000D03*
%TO.P,MCU1,3,PC15*%
%TO.N,unconnected-(MCU1-PC15-Pad3)*%
X174205500Y-101242000D03*
%TO.P,MCU1,4,NRST*%
%TO.N,Net-(MCU1-NRST)*%
X174205500Y-100742000D03*
%TO.P,MCU1,5,VDDA*%
%TO.N,+3.3V*%
X174205500Y-100242000D03*
%TO.P,MCU1,6,PA0*%
%TO.N,/SIG*%
X174205500Y-99742000D03*
%TO.P,MCU1,7,PA1*%
%TO.N,unconnected-(MCU1-PA1-Pad7)*%
X174205500Y-99242000D03*
%TO.P,MCU1,8,PA2*%
%TO.N,/TX*%
X174205500Y-98742000D03*
D11*
%TO.P,MCU1,9,PA3*%
%TO.N,/RX*%
X173518000Y-98054500D03*
%TO.P,MCU1,10,PA4*%
%TO.N,unconnected-(MCU1-PA4-Pad10)*%
X173018000Y-98054500D03*
%TO.P,MCU1,11,PA5*%
%TO.N,unconnected-(MCU1-PA5-Pad11)*%
X172518000Y-98054500D03*
%TO.P,MCU1,12,PA6*%
%TO.N,unconnected-(MCU1-PA6-Pad12)*%
X172018000Y-98054500D03*
%TO.P,MCU1,13,PA7*%
%TO.N,unconnected-(MCU1-PA7-Pad13)*%
X171518000Y-98054500D03*
%TO.P,MCU1,14,PB0*%
%TO.N,unconnected-(MCU1-PB0-Pad14)*%
X171018000Y-98054500D03*
%TO.P,MCU1,15,PB1*%
%TO.N,unconnected-(MCU1-PB1-Pad15)*%
X170518000Y-98054500D03*
%TO.P,MCU1,16,VSS*%
%TO.N,GND*%
X170018000Y-98054500D03*
D10*
%TO.P,MCU1,17,VDD*%
%TO.N,+3.3V*%
X169330500Y-98742000D03*
%TO.P,MCU1,18,PA8*%
%TO.N,unconnected-(MCU1-PA8-Pad18)*%
X169330500Y-99242000D03*
%TO.P,MCU1,19,PA9*%
%TO.N,/SCL*%
X169330500Y-99742000D03*
%TO.P,MCU1,20,PA10*%
%TO.N,/SDA*%
X169330500Y-100242000D03*
%TO.P,MCU1,21,PA11*%
%TO.N,unconnected-(MCU1-PA11-Pad21)*%
X169330500Y-100742000D03*
%TO.P,MCU1,22,PA12*%
%TO.N,unconnected-(MCU1-PA12-Pad22)*%
X169330500Y-101242000D03*
%TO.P,MCU1,23,PA13*%
%TO.N,unconnected-(MCU1-PA13-Pad23)*%
X169330500Y-101742000D03*
%TO.P,MCU1,24,PA14*%
%TO.N,unconnected-(MCU1-PA14-Pad24)*%
X169330500Y-102242000D03*
D11*
%TO.P,MCU1,25,PA15*%
%TO.N,unconnected-(MCU1-PA15-Pad25)*%
X170018000Y-102929500D03*
%TO.P,MCU1,26,PB3*%
%TO.N,unconnected-(MCU1-PB3-Pad26)*%
X170518000Y-102929500D03*
%TO.P,MCU1,27,PB4*%
%TO.N,unconnected-(MCU1-PB4-Pad27)*%
X171018000Y-102929500D03*
%TO.P,MCU1,28,PB5*%
%TO.N,unconnected-(MCU1-PB5-Pad28)*%
X171518000Y-102929500D03*
%TO.P,MCU1,29,PB6*%
%TO.N,unconnected-(MCU1-PB6-Pad29)*%
X172018000Y-102929500D03*
%TO.P,MCU1,30,PB7*%
%TO.N,unconnected-(MCU1-PB7-Pad30)*%
X172518000Y-102929500D03*
%TO.P,MCU1,31,PH3*%
%TO.N,Net-(MCU1-PH3)*%
X173018000Y-102929500D03*
%TO.P,MCU1,32,VSS*%
%TO.N,GND*%
X173518000Y-102929500D03*
D12*
%TO.P,MCU1,33,VSS*%
X171768000Y-100492000D03*
%TD*%
D13*
%TO.P,C11,1*%
%TO.N,+3.3V*%
X108966000Y-113622000D03*
%TO.P,C11,2*%
%TO.N,GND*%
X108966000Y-115697000D03*
%TD*%
D14*
%TO.P,GSR1,1*%
%TO.N,Net-(GSR1-Pad1)*%
X123701000Y-84074000D03*
%TO.P,GSR1,2*%
X123701000Y-85344000D03*
%TO.P,GSR1,3*%
%TO.N,Net-(GSR1-Pad3)*%
X123701000Y-86614000D03*
%TO.P,GSR1,4*%
%TO.N,+5V*%
X123701000Y-87884000D03*
%TO.P,GSR1,5*%
%TO.N,Net-(GSR_IN1-Pin_1)*%
X123701000Y-89154000D03*
%TO.P,GSR1,6*%
%TO.N,Net-(GSR1-Pad6)*%
X123701000Y-90424000D03*
%TO.P,GSR1,7*%
X123701000Y-91694000D03*
%TO.P,GSR1,8*%
%TO.N,Net-(GSR1-Pad8)*%
X128651000Y-91694000D03*
%TO.P,GSR1,9*%
%TO.N,Net-(GSR1-Pad9)*%
X128651000Y-90424000D03*
%TO.P,GSR1,10*%
%TO.N,Net-(GSR1-Pad10)*%
X128651000Y-89154000D03*
%TO.P,GSR1,11*%
%TO.N,GND*%
X128651000Y-87884000D03*
%TO.P,GSR1,12*%
%TO.N,N/C*%
X128651000Y-86614000D03*
%TO.P,GSR1,13*%
X128651000Y-85344000D03*
%TO.P,GSR1,14*%
X128651000Y-84074000D03*
%TD*%
D13*
%TO.P,C9,1*%
%TO.N,+5V*%
X122023000Y-76600000D03*
%TO.P,C9,2*%
%TO.N,GND*%
X122023000Y-78675000D03*
%TD*%
D15*
%TO.P,R8,1*%
%TO.N,Net-(GSR1-Pad1)*%
X136209000Y-82755000D03*
%TO.P,R8,2*%
%TO.N,Net-(GSR1-Pad9)*%
X136209000Y-84755000D03*
%TD*%
D16*
%TO.P,D1,2,A*%
%TO.N,GND*%
X160839000Y-78331000D03*
%TO.P,D1,1,K*%
%TO.N,+5V*%
X160839000Y-82331000D03*
%TD*%
D13*
%TO.P,C6,1*%
%TO.N,+3.3V*%
X97183000Y-113789000D03*
%TO.P,C6,2*%
%TO.N,GND*%
X97183000Y-115864000D03*
%TD*%
%TO.P,C7,1*%
%TO.N,+3.3V*%
X100838000Y-113749000D03*
%TO.P,C7,2*%
%TO.N,GND*%
X100838000Y-115824000D03*
%TD*%
D17*
%TO.P,C16,1*%
%TO.N,+3.3V*%
X97307000Y-107590500D03*
%TO.P,C16,2*%
%TO.N,GND*%
X97307000Y-105515500D03*
%TD*%
D15*
%TO.P,R10,1*%
%TO.N,Net-(GSR1-Pad10)*%
X136082000Y-94296000D03*
%TO.P,R10,2*%
%TO.N,Net-(GSR1-Pad8)*%
X136082000Y-96296000D03*
%TD*%
D18*
%TO.P,R13,1*%
%TO.N,Net-(MCU1-PH3)*%
X171148000Y-106667000D03*
%TO.P,R13,2*%
%TO.N,GND*%
X173148000Y-106667000D03*
%TD*%
D19*
%TO.P,R15,2*%
%TO.N,+3.3V*%
X162274000Y-88506000D03*
%TO.P,R15,1*%
%TO.N,Net-(UART-TO-USB1-~{RST})*%
X164274000Y-88506000D03*
%TD*%
D20*
%TO.P,R9,1*%
%TO.N,Net-(GSR1-Pad6)*%
X136082000Y-101011000D03*
%TO.P,R9,2*%
%TO.N,Net-(GSR1-Pad10)*%
X136082000Y-99011000D03*
%TD*%
%TO.P,R3,1*%
%TO.N,Net-(C3-Pad1)*%
X117498000Y-85247000D03*
%TO.P,R3,2*%
%TO.N,GND*%
X117498000Y-83247000D03*
%TD*%
D21*
%TO.P,3.3V_1.8V1,1,GND*%
%TO.N,GND*%
X100507000Y-104507000D03*
%TO.P,3.3V_1.8V1,2,VO*%
%TO.N,+1V8*%
X100507000Y-106807000D03*
D22*
X106807000Y-106807000D03*
D21*
%TO.P,3.3V_1.8V1,3,VI*%
%TO.N,+3.3V*%
X100507000Y-109107000D03*
%TD*%
D23*
%TO.P,GSR_IN1,1,Pin_1*%
%TO.N,Net-(GSR_IN1-Pin_1)*%
X109728000Y-93980000D03*
D24*
%TO.P,GSR_IN1,2,Pin_2*%
%TO.N,GND*%
X109728000Y-91980000D03*
%TD*%
D20*
%TO.P,R12,1*%
%TO.N,Net-(GSR1-Pad8)*%
X142178000Y-97836000D03*
%TO.P,R12,2*%
%TO.N,/SIG*%
X142178000Y-95836000D03*
%TD*%
D25*
%TO.P,D2,2,A*%
%TO.N,GND*%
X182016000Y-82458000D03*
%TO.P,D2,1,K*%
%TO.N,Net-(D2-K)*%
X178016000Y-82458000D03*
%TD*%
D20*
%TO.P,R7,1*%
%TO.N,Net-(GSR1-Pad3)*%
X112841000Y-85104000D03*
%TO.P,R7,2*%
%TO.N,GND*%
X112841000Y-83104000D03*
%TD*%
D17*
%TO.P,C13,1*%
%TO.N,GND*%
X179534000Y-102261500D03*
%TO.P,C13,2*%
%TO.N,Net-(MCU1-NRST)*%
X179534000Y-100186500D03*
%TD*%
D13*
%TO.P,C12,1*%
%TO.N,+3.3V*%
X112903000Y-113495000D03*
%TO.P,C12,2*%
%TO.N,GND*%
X112903000Y-115570000D03*
%TD*%
D26*
%TO.P,USB1,5,Shield*%
%TO.N,GND*%
X178218000Y-76362000D03*
D27*
X171648000Y-72182000D03*
D26*
X165078000Y-76362000D03*
D28*
%TO.P,USB1,4,GND*%
X175148000Y-76962000D03*
%TO.P,USB1,3,D+*%
%TO.N,Net-(D2-K)*%
X172648000Y-76962000D03*
%TO.P,USB1,2,D-*%
%TO.N,Net-(D3-K)*%
X170648000Y-76962000D03*
D29*
%TO.P,USB1,1,VBUS*%
%TO.N,+5V*%
X168148000Y-76962000D03*
%TD*%
D30*
%TO.P,SIG1,1,Pin_1*%
%TO.N,/SIG*%
X149733000Y-95917000D03*
D24*
%TO.P,SIG1,2,Pin_2*%
%TO.N,unconnected-(SIG1-Pin_2-Pad2)*%
X149733000Y-97917000D03*
%TD*%
D31*
%TO.P,C14,1*%
%TO.N,+5V*%
X98687500Y-93792000D03*
%TO.P,C14,2*%
%TO.N,GND*%
X100762500Y-93792000D03*
%TD*%
D15*
%TO.P,R4,1*%
%TO.N,+5V*%
X117371000Y-72452000D03*
%TO.P,R4,2*%
%TO.N,Net-(C3-Pad1)*%
X117371000Y-74452000D03*
%TD*%
D32*
%TO.P,C17,1*%
%TO.N,+1V8*%
X104440500Y-100076000D03*
%TO.P,C17,2*%
%TO.N,GND*%
X102365500Y-100076000D03*
%TD*%
D13*
%TO.P,C8,1*%
%TO.N,+5V*%
X125753000Y-76605500D03*
%TO.P,C8,2*%
%TO.N,GND*%
X125753000Y-78680500D03*
%TD*%
%TO.P,C3,1*%
%TO.N,Net-(C3-Pad1)*%
X117371000Y-77748500D03*
%TO.P,C3,2*%
%TO.N,GND*%
X117371000Y-79823500D03*
%TD*%
D33*
%TO.P,HEART1,1,NC*%
%TO.N,unconnected-(HEART1-NC-Pad1)*%
X126873000Y-110871000D03*
%TO.P,HEART1,2,SCL*%
%TO.N,/SCL*%
X126873000Y-110071000D03*
%TO.P,HEART1,3,SDA*%
%TO.N,/SDA*%
X126873000Y-109271000D03*
%TO.P,HEART1,4,PGND*%
%TO.N,GND*%
X126873000Y-108471000D03*
%TO.P,HEART1,5,NC*%
%TO.N,unconnected-(HEART1-NC-Pad5)*%
X126873000Y-107671000D03*
%TO.P,HEART1,6,NC*%
%TO.N,unconnected-(HEART1-NC-Pad6)*%
X126873000Y-106871000D03*
%TO.P,HEART1,7,NC*%
%TO.N,unconnected-(HEART1-NC-Pad7)*%
X126873000Y-106071000D03*
%TO.P,HEART1,8,NC*%
%TO.N,unconnected-(HEART1-NC-Pad8)*%
X124473000Y-106071000D03*
%TO.P,HEART1,9,VLED+*%
%TO.N,+3.3V*%
X124473000Y-106871000D03*
%TO.P,HEART1,10,VLED+*%
X124473000Y-107671000D03*
%TO.P,HEART1,11,VDD*%
%TO.N,+1V8*%
X124473000Y-108471000D03*
%TO.P,HEART1,12,GND*%
%TO.N,GND*%
X124473000Y-109271000D03*
%TO.P,HEART1,13,~{INT}*%
%TO.N,Net-(HEART1-~{INT})*%
X124473000Y-110071000D03*
%TO.P,HEART1,14,NC*%
%TO.N,unconnected-(HEART1-NC-Pad14)*%
X124473000Y-110871000D03*
%TD*%
D15*
%TO.P,R5,1*%
%TO.N,Net-(C3-Pad1)*%
X117498000Y-88073000D03*
%TO.P,R5,2*%
%TO.N,Net-(GSR1-Pad3)*%
X117498000Y-90073000D03*
%TD*%
D17*
%TO.P,C4,1*%
%TO.N,/SIG*%
X142178000Y-92920500D03*
%TO.P,C4,2*%
%TO.N,GND*%
X142178000Y-90845500D03*
%TD*%
D18*
%TO.P,R16,1*%
%TO.N,GND*%
X162147000Y-93332000D03*
%TO.P,R16,2*%
%TO.N,Net-(UART-TO-USB1-~{SUSPEND})*%
X164147000Y-93332000D03*
%TD*%
D20*
%TO.P,R14,1*%
%TO.N,Net-(HEART1-~{INT})*%
X118872000Y-111379000D03*
%TO.P,R14,2*%
%TO.N,+3.3V*%
X118872000Y-109379000D03*
%TD*%
D25*
%TO.P,D3,2,A*%
%TO.N,GND*%
X174047000Y-82458000D03*
%TO.P,D3,1,K*%
%TO.N,Net-(D3-K)*%
X170047000Y-82458000D03*
%TD*%
D31*
%TO.P,C15,1*%
%TO.N,+3.3V*%
X98687500Y-84775000D03*
%TO.P,C15,2*%
%TO.N,GND*%
X100762500Y-84775000D03*
%TD*%
D13*
%TO.P,C10,1*%
%TO.N,+3.3V*%
X105029000Y-113749000D03*
%TO.P,C10,2*%
%TO.N,GND*%
X105029000Y-115824000D03*
%TD*%
D20*
%TO.P,R1,1*%
%TO.N,/SDA*%
X132969000Y-108728000D03*
%TO.P,R1,2*%
%TO.N,+1V8*%
X132969000Y-106728000D03*
%TD*%
D13*
%TO.P,C5,1*%
%TO.N,+3.3V*%
X93345000Y-113789000D03*
%TO.P,C5,2*%
%TO.N,GND*%
X93345000Y-115864000D03*
%TD*%
D34*
%TO.P,UART-TO-USB1,1,DCD*%
%TO.N,unconnected-(UART-TO-USB1-DCD-Pad1)*%
X172886000Y-89014000D03*
%TO.P,UART-TO-USB1,2,RI*%
%TO.N,unconnected-(UART-TO-USB1-RI-Pad2)*%
X172386000Y-89014000D03*
%TO.P,UART-TO-USB1,3,GND*%
%TO.N,GND*%
X171886000Y-89014000D03*
%TO.P,UART-TO-USB1,4,D+*%
%TO.N,Net-(D2-K)*%
X171386000Y-89014000D03*
%TO.P,UART-TO-USB1,5,D-*%
%TO.N,Net-(D3-K)*%
X170886000Y-89014000D03*
%TO.P,UART-TO-USB1,6,VDD*%
%TO.N,+3.3V*%
X170386000Y-89014000D03*
%TO.P,UART-TO-USB1,7,REGIN*%
%TO.N,+5V*%
X169886000Y-89014000D03*
D35*
%TO.P,UART-TO-USB1,8,VBUS*%
X169016000Y-89884000D03*
%TO.P,UART-TO-USB1,9,~{RST}*%
%TO.N,Net-(UART-TO-USB1-~{RST})*%
X169016000Y-90384000D03*
%TO.P,UART-TO-USB1,10,NC*%
%TO.N,unconnected-(UART-TO-USB1-NC-Pad10)_7*%
X169016000Y-90884000D03*
%TO.P,UART-TO-USB1,11,~{SUSPEND}*%
%TO.N,Net-(UART-TO-USB1-~{SUSPEND})*%
X169016000Y-91384000D03*
%TO.P,UART-TO-USB1,12,SUSPEND*%
%TO.N,unconnected-(UART-TO-USB1-SUSPEND-Pad12)*%
X169016000Y-91884000D03*
%TO.P,UART-TO-USB1,13,NC*%
%TO.N,unconnected-(UART-TO-USB1-NC-Pad10)_6*%
X169016000Y-92384000D03*
%TO.P,UART-TO-USB1,14,NC*%
%TO.N,unconnected-(UART-TO-USB1-NC-Pad10)_8*%
X169016000Y-92884000D03*
D34*
%TO.P,UART-TO-USB1,15,NC*%
%TO.N,unconnected-(UART-TO-USB1-NC-Pad10)_5*%
X169886000Y-93754000D03*
%TO.P,UART-TO-USB1,16,NC*%
%TO.N,unconnected-(UART-TO-USB1-NC-Pad10)_1*%
X170386000Y-93754000D03*
%TO.P,UART-TO-USB1,17,NC*%
%TO.N,unconnected-(UART-TO-USB1-NC-Pad10)_10*%
X170886000Y-93754000D03*
%TO.P,UART-TO-USB1,18,NC*%
%TO.N,unconnected-(UART-TO-USB1-NC-Pad10)*%
X171386000Y-93754000D03*
%TO.P,UART-TO-USB1,19,NC*%
%TO.N,unconnected-(UART-TO-USB1-NC-Pad10)_3*%
X171886000Y-93754000D03*
%TO.P,UART-TO-USB1,20,NC*%
%TO.N,unconnected-(UART-TO-USB1-NC-Pad10)_2*%
X172386000Y-93754000D03*
%TO.P,UART-TO-USB1,21,NC*%
%TO.N,unconnected-(UART-TO-USB1-NC-Pad10)_4*%
X172886000Y-93754000D03*
D35*
%TO.P,UART-TO-USB1,22,NC*%
%TO.N,unconnected-(UART-TO-USB1-NC-Pad10)_9*%
X173756000Y-92884000D03*
%TO.P,UART-TO-USB1,23,CTS*%
%TO.N,unconnected-(UART-TO-USB1-CTS-Pad23)*%
X173756000Y-92384000D03*
%TO.P,UART-TO-USB1,24,RTS*%
%TO.N,unconnected-(UART-TO-USB1-RTS-Pad24)*%
X173756000Y-91884000D03*
%TO.P,UART-TO-USB1,25,RXD*%
%TO.N,/TX*%
X173756000Y-91384000D03*
%TO.P,UART-TO-USB1,26,TXD*%
%TO.N,/RX*%
X173756000Y-90884000D03*
%TO.P,UART-TO-USB1,27,DSR*%
%TO.N,unconnected-(UART-TO-USB1-DSR-Pad27)*%
X173756000Y-90384000D03*
%TO.P,UART-TO-USB1,28,DTR*%
%TO.N,unconnected-(UART-TO-USB1-DTR-Pad28)*%
X173756000Y-89884000D03*
D36*
%TO.P,UART-TO-USB1,29,GND*%
%TO.N,GND*%
X171386000Y-91384000D03*
%TD*%
D13*
%TO.P,C1,1*%
%TO.N,+1V8*%
X117729000Y-104351000D03*
%TO.P,C1,2*%
%TO.N,GND*%
X117729000Y-106426000D03*
%TD*%
D30*
%TO.P,HEARTOUT1,1,Pin_1*%
%TO.N,/SDA*%
X141012000Y-109109000D03*
D24*
%TO.P,HEARTOUT1,2,Pin_2*%
%TO.N,/SCL*%
X141012000Y-111109000D03*
%TD*%
D13*
%TO.P,C2,1*%
%TO.N,+1V8*%
X114004000Y-104227500D03*
%TO.P,C2,2*%
%TO.N,GND*%
X114004000Y-106302500D03*
%TD*%
D37*
%TO.P,5V_3.3V1,1,VO*%
%TO.N,+3.3V*%
X98709000Y-88458000D03*
%TO.P,5V_3.3V1,2,VI*%
%TO.N,+5V*%
X98709000Y-90358000D03*
%TO.P,5V_3.3V1,3,GND*%
%TO.N,GND*%
X100584000Y-89408000D03*
%TD*%
D38*
%TO.P,SW1,1,1*%
%TO.N,GND*%
X189813000Y-104612000D03*
X183313000Y-104612000D03*
%TO.P,SW1,2,2*%
%TO.N,Net-(MCU1-NRST)*%
X189813000Y-100112000D03*
X183313000Y-100112000D03*
%TD*%
D15*
%TO.P,R11,1*%
%TO.N,GND*%
X136040000Y-88835000D03*
%TO.P,R11,2*%
%TO.N,Net-(GSR1-Pad10)*%
X136040000Y-90835000D03*
%TD*%
%TO.P,R6,1*%
%TO.N,Net-(C3-Pad1)*%
X117498000Y-92645000D03*
%TO.P,R6,2*%
%TO.N,Net-(GSR_IN1-Pin_1)*%
X117498000Y-94645000D03*
%TD*%
%TO.P,R2,1*%
%TO.N,/SCL*%
X132842000Y-110776000D03*
%TO.P,R2,2*%
%TO.N,+1V8*%
X132842000Y-112776000D03*
%TD*%
D39*
%TO.N,GND*%
X168021000Y-98130815D03*
X166751000Y-97663000D03*
X165735000Y-100869000D03*
%TO.N,Net-(D2-K)*%
X173420000Y-85979000D03*
X174752000Y-85725000D03*
%TO.N,+3.3V*%
X175387000Y-103886000D03*
X166497000Y-99115000D03*
%TO.N,+1V8*%
X129667000Y-108644000D03*
X129667000Y-110698000D03*
X122682000Y-104394000D03*
X124773758Y-104453758D03*
X122809000Y-108458000D03*
X120015000Y-106934000D03*
%TO.N,+3.3V*%
X165755644Y-85770356D03*
X175339000Y-100115000D03*
X175466000Y-102730000D03*
X169878000Y-87490000D03*
%TO.N,+5V*%
X121793000Y-88773000D03*
X121539000Y-92075000D03*
%TO.N,Net-(GSR1-Pad3)*%
X116843000Y-86614000D03*
X121923000Y-86741000D03*
%TO.N,Net-(GSR1-Pad10)*%
X130683000Y-89281000D03*
X133223000Y-92329000D03*
X132461000Y-90043000D03*
X133858000Y-98933000D03*
%TO.N,/RX*%
X175593000Y-91554000D03*
X173941000Y-95872000D03*
%TO.N,/SIG*%
X175641000Y-96774000D03*
%TO.N,/SCL*%
X154940000Y-104775000D03*
X155448000Y-103378000D03*
%TO.N,/SIG*%
X160230242Y-96436758D03*
%TO.N,GND*%
X171196000Y-99441000D03*
%TD*%
D40*
%TO.N,+5V*%
X160839000Y-82331000D02*
X155113500Y-76605500D01*
X155113500Y-76605500D02*
X125753000Y-76605500D01*
D41*
%TO.N,Net-(MCU1-NRST)*%
X179534000Y-100186500D02*
X178978500Y-100742000D01*
X178978500Y-100742000D02*
X174205500Y-100742000D01*
%TO.N,Net-(C3-Pad1)*%
X115672500Y-77748500D02*
X114681000Y-78740000D01*
X117371000Y-77748500D02*
X115672500Y-77748500D01*
X114681000Y-78740000D02*
X114681000Y-82430000D01*
X114681000Y-82430000D02*
X117498000Y-85247000D01*
%TO.N,GND*%
X117729000Y-106426000D02*
X114127500Y-106426000D01*
X114127500Y-106426000D02*
X114004000Y-106302500D01*
D40*
%TO.N,+5V*%
X166890803Y-85839197D02*
X169802000Y-88750394D01*
X168932000Y-89800000D02*
X169016000Y-89800000D01*
X163382606Y-82331000D02*
X166890803Y-85839197D01*
X166890803Y-85839197D02*
X166890803Y-87758803D01*
X166890803Y-87758803D02*
X168932000Y-89800000D01*
X162779000Y-82331000D02*
X163382606Y-82331000D01*
X169802000Y-88750394D02*
X169802000Y-89014000D01*
D41*
%TO.N,GND*%
X171768000Y-100492000D02*
X171768000Y-100013000D01*
X171768000Y-100013000D02*
X171196000Y-99441000D01*
X168021000Y-97790000D02*
X167894000Y-97663000D01*
X166751000Y-97663000D02*
X167894000Y-97663000D01*
X167894000Y-97663000D02*
X169626500Y-97663000D01*
X168021000Y-98130815D02*
X168021000Y-97790000D01*
X173148000Y-106667000D02*
X172121000Y-107694000D01*
X165735000Y-102876928D02*
X165735000Y-100869000D01*
X170552072Y-107694000D02*
X165735000Y-102876928D01*
X172121000Y-107694000D02*
X170552072Y-107694000D01*
X169626500Y-97663000D02*
X170018000Y-98054500D01*
X173518000Y-102929500D02*
X173518000Y-106297000D01*
X173518000Y-106297000D02*
X173148000Y-106667000D01*
%TO.N,Net-(D2-K)*%
X171386000Y-88013000D02*
X171386000Y-89014000D01*
X176155690Y-83685000D02*
X176155690Y-84321310D01*
X176155690Y-84321310D02*
X174752000Y-85725000D01*
X173420000Y-85979000D02*
X171386000Y-88013000D01*
%TO.N,GND*%
X171386000Y-91384000D02*
X171886000Y-90884000D01*
D42*
%TO.N,+3.3V*%
X168671315Y-98821315D02*
X166497000Y-98821315D01*
X175387000Y-103886000D02*
X175387000Y-102809000D01*
X166497000Y-98821315D02*
X166497000Y-99187000D01*
X166497000Y-98821315D02*
X163591315Y-98821315D01*
X166497000Y-99187000D02*
X166497000Y-99115000D01*
X175387000Y-102809000D02*
X175466000Y-102730000D01*
D41*
%TO.N,+1V8*%
X131826000Y-112776000D02*
X132842000Y-112776000D01*
X130694758Y-104453758D02*
X129667000Y-105481516D01*
X129667000Y-105481516D02*
X129667000Y-108644000D01*
X129748000Y-110698000D02*
X131826000Y-112776000D01*
X129667000Y-110698000D02*
X129748000Y-110698000D01*
X124773758Y-104453758D02*
X130694758Y-104453758D01*
X130694758Y-104453758D02*
X132969000Y-106728000D01*
X117729000Y-104351000D02*
X122639000Y-104351000D01*
X122639000Y-104351000D02*
X122682000Y-104394000D01*
X117729000Y-104351000D02*
X120015000Y-106637000D01*
X122809000Y-108458000D02*
X124460000Y-108458000D01*
X120015000Y-106637000D02*
X120015000Y-106934000D01*
X124460000Y-108458000D02*
X124473000Y-108471000D01*
X114004000Y-104227500D02*
X117605500Y-104227500D01*
X117605500Y-104227500D02*
X117729000Y-104351000D01*
X106807000Y-106807000D02*
X109386500Y-104227500D01*
X109386500Y-104227500D02*
X114004000Y-104227500D01*
X100507000Y-106807000D02*
X102074000Y-106807000D01*
X102074000Y-106807000D02*
X104440500Y-104440500D01*
X104440500Y-100076000D02*
X104440500Y-104440500D01*
X104440500Y-104440500D02*
X106807000Y-106807000D01*
%TO.N,/SCL*%
X132842000Y-110776000D02*
X133001000Y-110776000D01*
X133001000Y-110776000D02*
X133334000Y-111109000D01*
X133334000Y-111109000D02*
X141012000Y-111109000D01*
%TO.N,/SDA*%
X132969000Y-108728000D02*
X133112000Y-108728000D01*
X133112000Y-108728000D02*
X133493000Y-109109000D01*
X133493000Y-109109000D02*
X141012000Y-109109000D01*
%TO.N,/SCL*%
X126873000Y-110071000D02*
X132137000Y-110071000D01*
X132137000Y-110071000D02*
X132842000Y-110776000D01*
%TO.N,/SDA*%
X126873000Y-109271000D02*
X132426000Y-109271000D01*
X132426000Y-109271000D02*
X132969000Y-108728000D01*
%TO.N,Net-(HEART1-~{INT})*%
X118872000Y-111379000D02*
X120180000Y-110071000D01*
X120180000Y-110071000D02*
X124473000Y-110071000D01*
D42*
%TO.N,+3.3V*%
X120793000Y-107458000D02*
X121380000Y-106871000D01*
X120580000Y-107671000D02*
X120793000Y-107458000D01*
X121380000Y-106871000D02*
X124473000Y-106871000D01*
D41*
X162274000Y-88506000D02*
X165009644Y-85770356D01*
D40*
X98709000Y-84796500D02*
X98687500Y-84775000D01*
D42*
X120580000Y-107671000D02*
X121920000Y-107671000D01*
X118872000Y-109379000D02*
X117019000Y-109379000D01*
D40*
X98709000Y-88458000D02*
X98709000Y-84796500D01*
D41*
X175212000Y-100242000D02*
X175339000Y-100115000D01*
X175466000Y-102730000D02*
X174693500Y-102730000D01*
D42*
X105029000Y-113749000D02*
X108839000Y-113749000D01*
X121920000Y-107671000D02*
X124473000Y-107671000D01*
X100798000Y-113789000D02*
X100838000Y-113749000D01*
X112776000Y-113622000D02*
X112903000Y-113495000D01*
X108966000Y-113622000D02*
X112776000Y-113622000D01*
X118872000Y-109379000D02*
X120580000Y-107671000D01*
D41*
X174205500Y-100242000D02*
X175212000Y-100242000D01*
X170386000Y-87998000D02*
X170386000Y-89014000D01*
D42*
X97183000Y-113789000D02*
X100798000Y-113789000D01*
D40*
X96128000Y-106411500D02*
X97307000Y-107590500D01*
D41*
X169878000Y-87490000D02*
X170386000Y-87998000D01*
X165009644Y-85770356D02*
X165755644Y-85770356D01*
D40*
X96128000Y-91039000D02*
X96128000Y-106411500D01*
D41*
X174693500Y-102730000D02*
X174205500Y-102242000D01*
D40*
X98990500Y-107590500D02*
X100507000Y-109107000D01*
D42*
X93345000Y-113789000D02*
X97183000Y-113789000D01*
D40*
X98709000Y-88458000D02*
X96128000Y-91039000D01*
X100507000Y-109107000D02*
X100507000Y-113418000D01*
X97307000Y-107590500D02*
X98990500Y-107590500D01*
X100507000Y-113418000D02*
X100838000Y-113749000D01*
D42*
X117019000Y-109379000D02*
X112903000Y-113495000D01*
X100838000Y-113749000D02*
X105029000Y-113749000D01*
X108839000Y-113749000D02*
X108966000Y-113622000D01*
D41*
%TO.N,+5V*%
X117371000Y-72452000D02*
X121519000Y-76600000D01*
D40*
X98687500Y-93792000D02*
X98687500Y-90379500D01*
X121539000Y-95758000D02*
X121539000Y-92075000D01*
X168148000Y-76962000D02*
X162779000Y-82331000D01*
X103632000Y-96520000D02*
X120777000Y-96520000D01*
D41*
X122023000Y-76600000D02*
X125747500Y-76600000D01*
X125747500Y-76600000D02*
X125753000Y-76605500D01*
D40*
X162779000Y-82331000D02*
X160839000Y-82331000D01*
X103632000Y-96520000D02*
X103632000Y-86191000D01*
X98687500Y-90379500D02*
X98709000Y-90358000D01*
X103632000Y-86191000D02*
X117371000Y-72452000D01*
D41*
X121519000Y-76600000D02*
X122023000Y-76600000D01*
D40*
X98687500Y-93792000D02*
X101415500Y-96520000D01*
X122682000Y-87884000D02*
X123701000Y-87884000D01*
X101415500Y-96520000D02*
X103632000Y-96520000D01*
X121793000Y-88773000D02*
X122682000Y-87884000D01*
X120777000Y-96520000D02*
X121539000Y-95758000D01*
D41*
%TO.N,Net-(C3-Pad1)*%
X116471000Y-89100000D02*
X117498000Y-88073000D01*
X117498000Y-88073000D02*
X117498000Y-85247000D01*
X117498000Y-92645000D02*
X116471000Y-91618000D01*
X116471000Y-91618000D02*
X116471000Y-89100000D01*
X117371000Y-77748500D02*
X117371000Y-74452000D01*
%TO.N,/SIG*%
X142178000Y-95836000D02*
X149652000Y-95836000D01*
X142178000Y-92920500D02*
X142178000Y-95836000D01*
%TO.N,Net-(MCU1-NRST)*%
X183313000Y-100112000D02*
X179608500Y-100112000D01*
X179608500Y-100112000D02*
X179534000Y-100186500D01*
X189813000Y-100112000D02*
X183313000Y-100112000D01*
%TO.N,Net-(GSR1-Pad9)*%
X130540000Y-90424000D02*
X136209000Y-84755000D01*
X128651000Y-90424000D02*
X130540000Y-90424000D01*
%TO.N,Net-(GSR1-Pad6)*%
X123701000Y-90424000D02*
X123701000Y-91694000D01*
X133018000Y-101011000D02*
X136082000Y-101011000D01*
X123701000Y-91694000D02*
X133018000Y-101011000D01*
%TO.N,Net-(GSR1-Pad8)*%
X128651000Y-91694000D02*
X131480000Y-91694000D01*
X131480000Y-91694000D02*
X136082000Y-96296000D01*
X136082000Y-96296000D02*
X140638000Y-96296000D01*
X140638000Y-96296000D02*
X142178000Y-97836000D01*
%TO.N,Net-(GSR1-Pad1)*%
X125020000Y-82755000D02*
X136209000Y-82755000D01*
X123701000Y-85344000D02*
X123701000Y-84074000D01*
X123701000Y-84074000D02*
X125020000Y-82755000D01*
%TO.N,Net-(GSR1-Pad3)*%
X117498000Y-90073000D02*
X119226000Y-90073000D01*
X121923000Y-86741000D02*
X122558000Y-86741000D01*
X112841000Y-85104000D02*
X115333000Y-85104000D01*
X119226000Y-90073000D02*
X122558000Y-86741000D01*
X123574000Y-86741000D02*
X123701000Y-86614000D01*
X122558000Y-86741000D02*
X123574000Y-86741000D01*
X115333000Y-85104000D02*
X116843000Y-86614000D01*
%TO.N,Net-(GSR1-Pad10)*%
X136004000Y-98933000D02*
X136082000Y-99011000D01*
X130683000Y-89281000D02*
X128778000Y-89281000D01*
X133858000Y-98933000D02*
X136004000Y-98933000D01*
X136040000Y-94254000D02*
X136082000Y-94296000D01*
X128778000Y-89281000D02*
X128651000Y-89154000D01*
X133253000Y-90835000D02*
X133253000Y-92299000D01*
X136040000Y-90835000D02*
X136040000Y-94254000D01*
X136040000Y-90835000D02*
X133253000Y-90835000D01*
X133253000Y-92299000D02*
X133223000Y-92329000D01*
X133253000Y-90835000D02*
X132461000Y-90043000D01*
%TO.N,/RX*%
X175593000Y-91554000D02*
X174923000Y-90884000D01*
X174923000Y-90884000D02*
X173756000Y-90884000D01*
%TO.N,/TX*%
X174568000Y-91545000D02*
X174407000Y-91384000D01*
X174407000Y-91384000D02*
X173756000Y-91384000D01*
%TO.N,Net-(GSR_IN1-Pin_1)*%
X117498000Y-94645000D02*
X117774408Y-94645000D01*
X117774408Y-94645000D02*
X123265408Y-89154000D01*
X123265408Y-89154000D02*
X123701000Y-89154000D01*
X116833000Y-93980000D02*
X117498000Y-94645000D01*
X109728000Y-93980000D02*
X116833000Y-93980000D01*
%TO.N,Net-(D2-K)*%
X178016000Y-82330000D02*
X178016000Y-82458000D01*
X172648000Y-76962000D02*
X178016000Y-82330000D01*
%TO.N,Net-(D3-K)*%
X170648000Y-76962000D02*
X170648000Y-81857000D01*
X170047000Y-82458000D02*
X170886000Y-83297000D01*
X170648000Y-81857000D02*
X170047000Y-82458000D01*
%TO.N,Net-(UART-TO-USB1-~{RST})*%
X166152000Y-90384000D02*
X169016000Y-90384000D01*
X164274000Y-88506000D02*
X166152000Y-90384000D01*
%TO.N,Net-(UART-TO-USB1-~{SUSPEND})*%
X164147000Y-93332000D02*
X166095000Y-91384000D01*
X166095000Y-91384000D02*
X169016000Y-91384000D01*
%TO.N,Net-(MCU1-PH3)*%
X173018000Y-102929500D02*
X173018000Y-104797000D01*
X173018000Y-104797000D02*
X171148000Y-106667000D01*
%TO.N,/SIG*%
X174825288Y-99742000D02*
X174205500Y-99742000D01*
%TO.N,/SCL*%
X154940000Y-104775000D02*
X148606000Y-111109000D01*
X148606000Y-111109000D02*
X141012000Y-111109000D01*
%TO.N,/SDA*%
X141012000Y-109109000D02*
X146108000Y-104013000D01*
D42*
%TO.N,+3.3V*%
X120793000Y-107458000D02*
X126249500Y-102001500D01*
D41*
%TO.N,/SIG*%
X149652000Y-95836000D02*
X149733000Y-95917000D01*
%TO.N,Net-(D3-K)*%
X170886000Y-83297000D02*
X170886000Y-89014000D01*
D42*
%TO.N,+3.3V*%
X160020000Y-90760000D02*
X162274000Y-88506000D01*
X160020000Y-95250000D02*
X160020000Y-90760000D01*
X163591315Y-98821315D02*
X160020000Y-95250000D01*
D41*
%TO.N,/SIG*%
X175086000Y-99488000D02*
X175079288Y-99488000D01*
X175079288Y-99488000D02*
X174825288Y-99742000D01*
%TO.N,/TX*%
X174205500Y-98742000D02*
X174568000Y-98379500D01*
X174568000Y-98379500D02*
X174568000Y-91545000D01*
D42*
%TO.N,+3.3V*%
X168766130Y-98726500D02*
X169330500Y-98726500D01*
X168766130Y-98726500D02*
X168671315Y-98821315D01*
D41*
%TO.N,/RX*%
X173518000Y-96295000D02*
X173941000Y-95872000D01*
X173518000Y-98054500D02*
X173518000Y-96295000D01*
%TO.N,/SCL*%
X159766486Y-103378000D02*
X155448000Y-103378000D01*
D42*
%TO.N,+3.3V*%
X160411130Y-102001500D02*
X126249500Y-102001500D01*
D41*
%TO.N,/SDA*%
X165315000Y-100242000D02*
X169330500Y-100242000D01*
X161544000Y-104013000D02*
X165315000Y-100242000D01*
X146108000Y-104013000D02*
X161544000Y-104013000D01*
%TO.N,/SCL*%
X163402486Y-99742000D02*
X159766486Y-103378000D01*
D42*
%TO.N,+3.3V*%
X163591315Y-98821315D02*
X160411130Y-102001500D01*
D41*
%TO.N,/SCL*%
X169330500Y-99742000D02*
X163402486Y-99742000D01*
%TO.N,/SIG*%
X149733000Y-95917000D02*
X159710484Y-95917000D01*
X159710484Y-95917000D02*
X160230242Y-96436758D01*
X175641000Y-98933000D02*
X175086000Y-99488000D01*
X175641000Y-96774000D02*
X175641000Y-98933000D01*
%TO.N,Net-(D2-K)*%
X176789000Y-83685000D02*
X176155690Y-83685000D01*
X178016000Y-82458000D02*
X176789000Y-83685000D01*
%TO.N,GND*%
X171886000Y-89014000D02*
X171886000Y-88454690D01*
X174047000Y-86293690D02*
X174047000Y-82458000D01*
X171886000Y-88454690D02*
X174047000Y-86293690D01*
X171886000Y-90884000D02*
X171886000Y-89014000D01*
%TD*%
%TA.AperFunction,Conductor*%
%TO.N,GND*%
G36*
X112823925Y-104874685D02*
G01*
X112862425Y-104913904D01*
X112930218Y-105023816D01*
X112936288Y-105033656D01*
X113060344Y-105157712D01*
X113063628Y-105159737D01*
X113063653Y-105159753D01*
X113065445Y-105161746D01*
X113066011Y-105162193D01*
X113065934Y-105162289D01*
X113110379Y-105211699D01*
X113121603Y-105280661D01*
X113093761Y-105344744D01*
X113063665Y-105370826D01*
X113060660Y-105372679D01*
X113060655Y-105372683D01*
X112936684Y-105496654D01*
X112844643Y-105645875D01*
X112844641Y-105645880D01*
X112789494Y-105812302D01*
X112789493Y-105812309D01*
X112779001Y-105915011D01*
X112779000Y-105915026D01*
X112779000Y-106052500D01*
X115228999Y-106052500D01*
X115228999Y-105915028D01*
X115228998Y-105915011D01*
X115218505Y-105812302D01*
X115163358Y-105645880D01*
X115163356Y-105645875D01*
X115071315Y-105496654D01*
X114947344Y-105372683D01*
X114947341Y-105372681D01*
X114944339Y-105370829D01*
X114942713Y-105369021D01*
X114941677Y-105368202D01*
X114941817Y-105368024D01*
X114897617Y-105318880D01*
X114886397Y-105249917D01*
X114914243Y-105185836D01*
X114944344Y-105159754D01*
X114947656Y-105157712D01*
X115071712Y-105033656D01*
X115145575Y-104913903D01*
X115197523Y-104867179D01*
X115251114Y-104855000D01*
X116429001Y-104855000D01*
X116496040Y-104874685D01*
X116541795Y-104927489D01*
X116546705Y-104939992D01*
X116559972Y-104980029D01*
X116569185Y-105007831D01*
X116569187Y-105007836D01*
X116579044Y-105023816D01*
X116661288Y-105157156D01*
X116785344Y-105281212D01*
X116788628Y-105283237D01*
X116788653Y-105283253D01*
X116790445Y-105285246D01*
X116791011Y-105285693D01*
X116790934Y-105285789D01*
X116835379Y-105335199D01*
X116846603Y-105404161D01*
X116818761Y-105468244D01*
X116788665Y-105494326D01*
X116785660Y-105496179D01*
X116785655Y-105496183D01*
X116661684Y-105620154D01*
X116569643Y-105769375D01*
X116569641Y-105769380D01*
X116514494Y-105935802D01*
X116514493Y-105935809D01*
X116504000Y-106038513D01*
X116504000Y-106176000D01*
X117605000Y-106176000D01*
X117672039Y-106195685D01*
X117717794Y-106248489D01*
X117729000Y-106300000D01*
X117729000Y-106426000D01*
X117855000Y-106426000D01*
X117922039Y-106445685D01*
X117967794Y-106498489D01*
X117979000Y-106550000D01*
X117979000Y-107513499D01*
X118253972Y-107513499D01*
X118253986Y-107513498D01*
X118356697Y-107503005D01*
X118523119Y-107447858D01*
X118523124Y-107447856D01*
X118672345Y-107355815D01*
X118796315Y-107231845D01*
X118888356Y-107082624D01*
X118888358Y-107082619D01*
X118943505Y-106916197D01*
X118943506Y-106916190D01*
X118953999Y-106813486D01*
X118953999Y-106762782D01*
X118973682Y-106695742D01*
X119026485Y-106649987D01*
X119095644Y-106640042D01*
X119159200Y-106669066D01*
X119165680Y-106675099D01*
X119188995Y-106698414D01*
X119222480Y-106759737D01*
X119224534Y-106799978D01*
X119209435Y-106933995D01*
X119209435Y-106934003D01*
X119229630Y-107113249D01*
X119229631Y-107113254D01*
X119289211Y-107283523D01*
X119343813Y-107370421D01*
X119385184Y-107436262D01*
X119512738Y-107563816D01*
X119512743Y-107563819D01*
X119513972Y-107564799D01*
X119514563Y-107565641D01*
X119517662Y-107568740D01*
X119517119Y-107569282D01*
X119554115Y-107621986D01*
X119556968Y-107691797D01*
X119524345Y-107749431D01*
X119031595Y-108242181D01*
X118970272Y-108275666D01*
X118943914Y-108278500D01*
X118371998Y-108278500D01*
X118371980Y-108278501D01*
X118269203Y-108289000D01*
X118269200Y-108289001D01*
X118102668Y-108344185D01*
X118102663Y-108344187D01*
X117953342Y-108436289D01*
X117829290Y-108560341D01*
X117829288Y-108560343D01*
X117829288Y-108560344D01*
X117786880Y-108629098D01*
X117734934Y-108675821D01*
X117681343Y-108688000D01*
X116950940Y-108688000D01*
X116861442Y-108705803D01*
X116861441Y-108705803D01*
X116817449Y-108714553D01*
X116817438Y-108714556D01*
X116691690Y-108766642D01*
X116691687Y-108766644D01*
X116578514Y-108842263D01*
X116578507Y-108842269D01*
X113050095Y-112370681D01*
X112988772Y-112404166D01*
X112962414Y-112407000D01*
X112377998Y-112407000D01*
X112377980Y-112407001D01*
X112275203Y-112417500D01*
X112275200Y-112417501D01*
X112108668Y-112472685D01*
X112108663Y-112472687D01*
X111959342Y-112564789D01*
X111835289Y-112688842D01*
X111743187Y-112838163D01*
X111743182Y-112838174D01*
X111740588Y-112846005D01*
X111700815Y-112903450D01*
X111636299Y-112930272D01*
X111622883Y-112931000D01*
X110173947Y-112931000D01*
X110106908Y-112911315D01*
X110068409Y-112872099D01*
X110033712Y-112815844D01*
X109909656Y-112691788D01*
X109760334Y-112599686D01*
X109593797Y-112544501D01*
X109593795Y-112544500D01*
X109491010Y-112534000D01*
X108440998Y-112534000D01*
X108440980Y-112534001D01*
X108338203Y-112544500D01*
X108338200Y-112544501D01*
X108171668Y-112599685D01*
X108171663Y-112599687D01*
X108022342Y-112691789D01*
X107898289Y-112815842D01*
X107806187Y-112965163D01*
X107806182Y-112965174D01*
X107803588Y-112973005D01*
X107763815Y-113030450D01*
X107699299Y-113057272D01*
X107685883Y-113058000D01*
X106236947Y-113058000D01*
X106169908Y-113038315D01*
X106131409Y-112999099D01*
X106096712Y-112942844D01*
X105972656Y-112818788D01*
X105823334Y-112726686D01*
X105656797Y-112671501D01*
X105656795Y-112671500D01*
X105554010Y-112661000D01*
X104503998Y-112661000D01*
X104503980Y-112661001D01*
X104401203Y-112671500D01*
X104401200Y-112671501D01*
X104234668Y-112726685D01*
X104234663Y-112726687D01*
X104085342Y-112818789D01*
X103961290Y-112942841D01*
X103961288Y-112942843D01*
X103961288Y-112942844D01*
X103926590Y-112999098D01*
X103874644Y-113045821D01*
X103821053Y-113058000D01*
X102045947Y-113058000D01*
X101978908Y-113038315D01*
X101940409Y-112999099D01*
X101905712Y-112942844D01*
X101781656Y-112818788D01*
X101632334Y-112726686D01*
X101465797Y-112671501D01*
X101465795Y-112671500D01*
X101372897Y-112662010D01*
X101308206Y-112635614D01*
X101268054Y-112578433D01*
X101261500Y-112538652D01*
X101261500Y-110448900D01*
X101281185Y-110381861D01*
X101333989Y-110336106D01*
X101355566Y-110328567D01*
X101435693Y-110308641D01*
X101606296Y-110224030D01*
X101754722Y-110104722D01*
X101874030Y-109956296D01*
X101958641Y-109785693D01*
X102004600Y-109600889D01*
X102007500Y-109558123D01*
X102007499Y-108655878D01*
X102004600Y-108613111D01*
X101958641Y-108428307D01*
X101935337Y-108381319D01*
X101874032Y-108257707D01*
X101874030Y-108257704D01*
X101754722Y-108109278D01*
X101754721Y-108109277D01*
X101685514Y-108053647D01*
X101645595Y-107996304D01*
X101643015Y-107926482D01*
X101678594Y-107866349D01*
X101685514Y-107860353D01*
X101741088Y-107815681D01*
X101754722Y-107804722D01*
X101874030Y-107656296D01*
X101949856Y-107503405D01*
X101997277Y-107452093D01*
X102060944Y-107434500D01*
X102135804Y-107434500D01*
X102135805Y-107434499D01*
X102257035Y-107410386D01*
X102317876Y-107385184D01*
X102353516Y-107370422D01*
X102360501Y-107367528D01*
X102371233Y-107363083D01*
X102474008Y-107294411D01*
X102561411Y-107207008D01*
X104352819Y-105415600D01*
X104414142Y-105382115D01*
X104483834Y-105387099D01*
X104528181Y-105415600D01*
X105270181Y-106157600D01*
X105303666Y-106218923D01*
X105306500Y-106245281D01*
X105306500Y-108265028D01*
X105306500Y-108265033D01*
X105306501Y-108265036D01*
X105307446Y-108275666D01*
X105317113Y-108384415D01*
X105373089Y-108580045D01*
X105373090Y-108580048D01*
X105373091Y-108580049D01*
X105467302Y-108760407D01*
X105467304Y-108760409D01*
X105595890Y-108918109D01*
X105669178Y-108977867D01*
X105753593Y-109046698D01*
X105933951Y-109140909D01*
X105933953Y-109140909D01*
X105933954Y-109140910D01*
X105953355Y-109146461D01*
X106129582Y-109196886D01*
X106248963Y-109207500D01*
X107365036Y-109207499D01*
X107484418Y-109196886D01*
X107680049Y-109140909D01*
X107860407Y-109046698D01*
X108018109Y-108918109D01*
X108146698Y-108760407D01*
X108240909Y-108580049D01*
X108296886Y-108384418D01*
X108307500Y-108265037D01*
X108307499Y-106689986D01*
X112779001Y-106689986D01*
X112789494Y-106792697D01*
X112844641Y-106959119D01*
X112844643Y-106959124D01*
X112936684Y-107108345D01*
X113060654Y-107232315D01*
X113209875Y-107324356D01*
X113209880Y-107324358D01*
X113376302Y-107379505D01*
X113376309Y-107379506D01*
X113479019Y-107389999D01*
X113753999Y-107389999D01*
X114254000Y-107389999D01*
X114528972Y-107389999D01*
X114528986Y-107389998D01*
X114631697Y-107379505D01*
X114798119Y-107324358D01*
X114798124Y-107324356D01*
X114947345Y-107232315D01*
X115071315Y-107108345D01*
X115163356Y-106959124D01*
X115163358Y-106959119D01*
X115211616Y-106813486D01*
X116504001Y-106813486D01*
X116514494Y-106916197D01*
X116569641Y-107082619D01*
X116569643Y-107082624D01*
X116661684Y-107231845D01*
X116785654Y-107355815D01*
X116934875Y-107447856D01*
X116934880Y-107447858D01*
X117101302Y-107503005D01*
X117101309Y-107503006D01*
X117204019Y-107513499D01*
X117478999Y-107513499D01*
X117479000Y-107513498D01*
X117479000Y-106676000D01*
X116504001Y-106676000D01*
X116504001Y-106813486D01*
X115211616Y-106813486D01*
X115218505Y-106792697D01*
X115218506Y-106792690D01*
X115228999Y-106689986D01*
X115229000Y-106689973D01*
X115229000Y-106552500D01*
X114254000Y-106552500D01*
X114254000Y-107389999D01*
X113753999Y-107389999D01*
X113754000Y-107389998D01*
X113754000Y-106552500D01*
X112779001Y-106552500D01*
X112779001Y-106689986D01*
X108307499Y-106689986D01*
X108307499Y-106245280D01*
X108327184Y-106178242D01*
X108343818Y-106157600D01*
X109610100Y-104891319D01*
X109671423Y-104857834D01*
X109697781Y-104855000D01*
X112756886Y-104855000D01*
X112823925Y-104874685D01*
G37*
%TD.AperFunction*%
%TA.AperFunction,Conductor*%
G36*
X97517616Y-90818920D02*
G01*
X97573550Y-90860791D01*
X97581008Y-90871970D01*
X97603419Y-90909865D01*
X97603421Y-90909867D01*
X97603423Y-90909870D01*
X97719629Y-91026076D01*
X97719633Y-91026079D01*
X97719635Y-91026081D01*
X97859644Y-91108882D01*
X97867817Y-91113715D01*
X97866723Y-91115564D01*
X97911948Y-91153187D01*
X97932975Y-91219818D01*
X97933000Y-91222309D01*
X97933000Y-92623410D01*
X97913315Y-92690449D01*
X97885916Y-92720672D01*
X97881345Y-92724286D01*
X97757289Y-92848342D01*
X97665187Y-92997663D01*
X97665185Y-92997668D01*
X97652056Y-93037289D01*
X97610001Y-93164203D01*
X97610001Y-93164204D01*
X97610000Y-93164204D01*
X97599500Y-93266983D01*
X97599500Y-94317001D01*
X97599501Y-94317019D01*
X97610000Y-94419796D01*
X97610001Y-94419799D01*
X97665185Y-94586331D01*
X97665187Y-94586336D01*
X97665554Y-94586931D01*
X97757288Y-94735656D01*
X97881344Y-94859712D01*
X98030666Y-94951814D01*
X98197203Y-95006999D01*
X98299991Y-95017500D01*
X98794612Y-95017499D01*
X98861651Y-95037183D01*
X98882293Y-95053818D01*
X100825100Y-96996624D01*
X100825121Y-96996647D01*
X100934531Y-97106057D01*
X100971849Y-97130992D01*
X100971848Y-97130992D01*
X101058100Y-97188623D01*
X101058104Y-97188625D01*
X101058111Y-97188630D01*
X101138543Y-97221945D01*
X101138544Y-97221946D01*
X101162103Y-97231704D01*
X101195420Y-97245505D01*
X101195429Y-97245506D01*
X101195430Y-97245507D01*
X101219603Y-97250315D01*
X101219610Y-97250316D01*
X101341186Y-97274501D01*
X101341188Y-97274501D01*
X101495926Y-97274501D01*
X101495946Y-97274500D01*
X103557688Y-97274500D01*
X103706312Y-97274500D01*
X120696554Y-97274500D01*
X120696574Y-97274501D01*
X120702688Y-97274501D01*
X120851314Y-97274501D01*
X120972894Y-97250315D01*
X120972894Y-97250316D01*
X120972900Y-97250313D01*
X120997080Y-97245505D01*
X121032942Y-97230649D01*
X121053944Y-97221951D01*
X121053947Y-97221949D01*
X121053955Y-97221946D01*
X121134389Y-97188630D01*
X121257966Y-97106059D01*
X122019963Y-96344060D01*
X122019966Y-96344059D01*
X122125059Y-96238966D01*
X122195707Y-96133233D01*
X122207630Y-96115389D01*
X122240946Y-96034955D01*
X122264505Y-95978080D01*
X122271881Y-95941000D01*
X122293501Y-95832312D01*
X122293501Y-95683688D01*
X122293501Y-95678578D01*
X122293500Y-95678552D01*
X122293500Y-92514103D01*
X122313185Y-92447064D01*
X122365989Y-92401309D01*
X122435147Y-92391365D01*
X122492988Y-92415729D01*
X122500765Y-92421697D01*
X122500767Y-92421698D01*
X122640764Y-92479687D01*
X122753280Y-92494500D01*
X123562719Y-92494500D01*
X123629758Y-92514185D01*
X123650400Y-92530819D01*
X132218400Y-101098819D01*
X132251885Y-101160142D01*
X132246901Y-101229834D01*
X132205029Y-101285767D01*
X132139565Y-101310184D01*
X132130719Y-101310500D01*
X126181440Y-101310500D01*
X126047948Y-101337053D01*
X126047938Y-101337056D01*
X125922190Y-101389142D01*
X125922187Y-101389144D01*
X125809014Y-101464763D01*
X125809007Y-101464769D01*
X123434608Y-103839168D01*
X123373285Y-103872653D01*
X123303593Y-103867669D01*
X123259246Y-103839168D01*
X123184262Y-103764184D01*
X123031523Y-103668211D01*
X122861254Y-103608631D01*
X122861249Y-103608630D01*
X122682004Y-103588435D01*
X122681996Y-103588435D01*
X122502750Y-103608630D01*
X122502745Y-103608631D01*
X122332477Y-103668211D01*
X122274734Y-103704494D01*
X122208762Y-103723500D01*
X118976114Y-103723500D01*
X118909075Y-103703815D01*
X118870575Y-103664596D01*
X118866492Y-103657977D01*
X118796712Y-103544844D01*
X118672656Y-103420788D01*
X118561046Y-103351947D01*
X118523336Y-103328687D01*
X118523331Y-103328685D01*
X118476030Y-103313011D01*
X118356797Y-103273501D01*
X118356795Y-103273500D01*
X118254010Y-103263000D01*
X117203998Y-103263000D01*
X117203980Y-103263001D01*
X117101203Y-103273500D01*
X117101200Y-103273501D01*
X116934668Y-103328685D01*
X116934663Y-103328687D01*
X116785342Y-103420789D01*
X116661286Y-103544845D01*
X116656805Y-103550513D01*
X116654850Y-103548967D01*
X116611641Y-103587826D01*
X116558060Y-103600000D01*
X115251114Y-103600000D01*
X115184075Y-103580315D01*
X115145575Y-103541096D01*
X115071712Y-103421344D01*
X114947657Y-103297289D01*
X114947656Y-103297288D01*
X114854888Y-103240069D01*
X114798336Y-103205187D01*
X114798331Y-103205185D01*
X114756474Y-103191315D01*
X114631797Y-103150001D01*
X114631795Y-103150000D01*
X114529010Y-103139500D01*
X113478998Y-103139500D01*
X113478980Y-103139501D01*
X113376203Y-103150000D01*
X113376200Y-103150001D01*
X113209668Y-103205185D01*
X113209663Y-103205187D01*
X113060342Y-103297289D01*
X112936287Y-103421344D01*
X112862425Y-103541096D01*
X112810477Y-103587821D01*
X112756886Y-103600000D01*
X109324692Y-103600000D01*
X109203472Y-103624112D01*
X109203464Y-103624114D01*
X109122715Y-103657562D01*
X109089268Y-103671416D01*
X109089259Y-103671421D01*
X108990815Y-103737198D01*
X108990816Y-103737199D01*
X108986497Y-103740085D01*
X108986489Y-103740091D01*
X108104255Y-104622324D01*
X108042932Y-104655809D01*
X107973240Y-104650825D01*
X107938215Y-104630746D01*
X107860407Y-104567302D01*
X107680049Y-104473091D01*
X107680048Y-104473090D01*
X107680045Y-104473089D01*
X107559134Y-104438493D01*
X107484418Y-104417114D01*
X107484415Y-104417113D01*
X107484413Y-104417113D01*
X107418102Y-104411217D01*
X107365037Y-104406500D01*
X107365032Y-104406500D01*
X106248971Y-104406500D01*
X106248965Y-104406500D01*
X106248964Y-104406501D01*
X106237316Y-104407536D01*
X106129584Y-104417113D01*
X105933954Y-104473089D01*
X105753591Y-104567303D01*
X105675784Y-104630746D01*
X105611388Y-104657854D01*
X105542558Y-104645844D01*
X105509743Y-104622324D01*
X105104319Y-104216900D01*
X105070834Y-104155577D01*
X105068000Y-104129219D01*
X105068000Y-101323114D01*
X105087685Y-101256075D01*
X105126904Y-101217575D01*
X105177285Y-101186500D01*
X105246656Y-101143712D01*
X105370712Y-101019656D01*
X105462814Y-100870334D01*
X105517999Y-100703797D01*
X105528500Y-100601009D01*
X105528499Y-99550992D01*
X105524699Y-99513797D01*
X105517999Y-99448203D01*
X105517998Y-99448200D01*
X105500499Y-99395392D01*
X105462814Y-99281666D01*
X105370712Y-99132344D01*
X105246656Y-99008288D01*
X105130870Y-98936871D01*
X105097336Y-98916187D01*
X105097331Y-98916185D01*
X105075636Y-98908996D01*
X104930797Y-98861001D01*
X104930795Y-98861000D01*
X104828010Y-98850500D01*
X104052998Y-98850500D01*
X104052980Y-98850501D01*
X103950203Y-98861000D01*
X103950200Y-98861001D01*
X103783668Y-98916185D01*
X103783663Y-98916187D01*
X103634342Y-99008289D01*
X103510288Y-99132343D01*
X103510283Y-99132349D01*
X103508241Y-99135661D01*
X103506247Y-99137453D01*
X103505807Y-99138011D01*
X103505711Y-99137935D01*
X103456291Y-99182383D01*
X103387328Y-99193602D01*
X103323247Y-99165755D01*
X103297168Y-99135656D01*
X103295319Y-99132659D01*
X103295316Y-99132655D01*
X103171345Y-99008684D01*
X103022124Y-98916643D01*
X103022119Y-98916641D01*
X102855697Y-98861494D01*
X102855690Y-98861493D01*
X102752986Y-98851000D01*
X102615500Y-98851000D01*
X102615500Y-101300999D01*
X102752972Y-101300999D01*
X102752986Y-101300998D01*
X102855697Y-101290505D01*
X103022119Y-101235358D01*
X103022124Y-101235356D01*
X103171345Y-101143315D01*
X103295318Y-101019342D01*
X103297165Y-101016348D01*
X103298969Y-101014724D01*
X103299798Y-101013677D01*
X103299976Y-101013818D01*
X103349110Y-100969621D01*
X103418073Y-100958396D01*
X103482156Y-100986236D01*
X103508243Y-101016341D01*
X103510288Y-101019656D01*
X103510289Y-101019657D01*
X103634344Y-101143712D01*
X103754096Y-101217575D01*
X103800821Y-101269523D01*
X103813000Y-101323114D01*
X103813000Y-104129218D01*
X103793315Y-104196257D01*
X103776681Y-104216899D01*
X102043886Y-105949694D01*
X101982563Y-105983179D01*
X101912871Y-105978195D01*
X101859558Y-105939700D01*
X101754724Y-105809280D01*
X101754722Y-105809278D01*
X101685112Y-105753324D01*
X101645196Y-105695985D01*
X101642616Y-105626163D01*
X101678194Y-105566030D01*
X101685115Y-105560033D01*
X101754366Y-105504367D01*
X101754367Y-105504366D01*
X101873607Y-105356025D01*
X101873609Y-105356022D01*
X101958168Y-105185523D01*
X102004102Y-105000824D01*
X102007000Y-104958096D01*
X102007000Y-104757000D01*
X99007000Y-104757000D01*
X99007000Y-104958096D01*
X99009897Y-105000824D01*
X99055831Y-105185523D01*
X99140390Y-105356022D01*
X99140392Y-105356025D01*
X99259630Y-105504364D01*
X99328884Y-105560031D01*
X99368803Y-105617375D01*
X99371383Y-105687197D01*
X99335805Y-105747329D01*
X99328885Y-105753326D01*
X99308913Y-105769380D01*
X99279782Y-105792797D01*
X99259276Y-105809280D01*
X99139969Y-105957704D01*
X99139967Y-105957707D01*
X99055360Y-106128302D01*
X99009400Y-106313107D01*
X99008392Y-106327980D01*
X99006500Y-106355877D01*
X99006500Y-106577869D01*
X99006501Y-106712000D01*
X98986817Y-106779039D01*
X98934013Y-106824794D01*
X98882501Y-106836000D01*
X98475589Y-106836000D01*
X98408550Y-106816315D01*
X98378322Y-106788910D01*
X98374710Y-106784342D01*
X98250657Y-106660289D01*
X98250656Y-106660288D01*
X98247342Y-106658243D01*
X98245546Y-106656248D01*
X98244989Y-106655807D01*
X98245064Y-106655711D01*
X98200618Y-106606297D01*
X98189397Y-106537334D01*
X98217240Y-106473252D01*
X98247348Y-106447165D01*
X98250342Y-106445318D01*
X98374315Y-106321345D01*
X98466356Y-106172124D01*
X98466358Y-106172119D01*
X98521505Y-106005697D01*
X98521506Y-106005690D01*
X98531999Y-105902986D01*
X98532000Y-105902973D01*
X98532000Y-105765500D01*
X97431000Y-105765500D01*
X97363961Y-105745815D01*
X97318206Y-105693011D01*
X97307000Y-105641500D01*
X97307000Y-105515500D01*
X97181000Y-105515500D01*
X97113961Y-105495815D01*
X97068206Y-105443011D01*
X97057000Y-105391500D01*
X97057000Y-105265500D01*
X97557000Y-105265500D01*
X98531999Y-105265500D01*
X98531999Y-105128028D01*
X98531998Y-105128013D01*
X98521505Y-105025302D01*
X98466358Y-104858880D01*
X98466356Y-104858875D01*
X98374315Y-104709654D01*
X98250345Y-104585684D01*
X98101124Y-104493643D01*
X98101119Y-104493641D01*
X97934697Y-104438494D01*
X97934690Y-104438493D01*
X97831986Y-104428000D01*
X97557000Y-104428000D01*
X97557000Y-105265500D01*
X97057000Y-105265500D01*
X97057000Y-104428000D01*
X97006500Y-104428000D01*
X96939461Y-104408315D01*
X96893706Y-104355511D01*
X96882500Y-104304000D01*
X96882500Y-104055903D01*
X99007000Y-104055903D01*
X99007000Y-104257000D01*
X100257000Y-104257000D01*
X100757000Y-104257000D01*
X102007000Y-104257000D01*
X102007000Y-104055903D01*
X102004102Y-104013175D01*
X101958168Y-103828476D01*
X101873609Y-103657977D01*
X101873607Y-103657974D01*
X101754367Y-103509633D01*
X101754366Y-103509632D01*
X101606025Y-103390392D01*
X101606022Y-103390390D01*
X101435523Y-103305831D01*
X101250824Y-103259897D01*
X101208097Y-103257000D01*
X100757000Y-103257000D01*
X100757000Y-104257000D01*
X100257000Y-104257000D01*
X100257000Y-103257000D01*
X99805903Y-103257000D01*
X99763175Y-103259897D01*
X99578476Y-103305831D01*
X99407977Y-103390390D01*
X99407974Y-103390392D01*
X99259633Y-103509632D01*
X99259632Y-103509633D01*
X99140392Y-103657974D01*
X99140390Y-103657977D01*
X99055831Y-103828476D01*
X99009897Y-104013175D01*
X99007000Y-104055903D01*
X96882500Y-104055903D01*
X96882500Y-100600986D01*
X101278001Y-100600986D01*
X101288494Y-100703697D01*
X101343641Y-100870119D01*
X101343643Y-100870124D01*
X101435684Y-101019345D01*
X101559654Y-101143315D01*
X101708875Y-101235356D01*
X101708880Y-101235358D01*
X101875302Y-101290505D01*
X101875309Y-101290506D01*
X101978019Y-101300999D01*
X102115499Y-101300999D01*
X102115500Y-101300998D01*
X102115500Y-100326000D01*
X101278001Y-100326000D01*
X101278001Y-100600986D01*
X96882500Y-100600986D01*
X96882500Y-99551013D01*
X101278000Y-99551013D01*
X101278000Y-99826000D01*
X102115500Y-99826000D01*
X102115500Y-98851000D01*
X101978027Y-98851000D01*
X101978012Y-98851001D01*
X101875302Y-98861494D01*
X101708880Y-98916641D01*
X101708875Y-98916643D01*
X101559654Y-99008684D01*
X101435684Y-99132654D01*
X101343643Y-99281875D01*
X101343641Y-99281880D01*
X101288494Y-99448302D01*
X101288493Y-99448309D01*
X101278000Y-99551013D01*
X96882500Y-99551013D01*
X96882500Y-91402886D01*
X96902185Y-91335847D01*
X96918819Y-91315205D01*
X97143412Y-91090612D01*
X97386604Y-90847419D01*
X97447925Y-90813936D01*
X97517616Y-90818920D01*
G37*
%TD.AperFunction*%
%TA.AperFunction,Conductor*%
G36*
X172800514Y-98976501D02*
G01*
X172800674Y-98975905D01*
X172808524Y-98978008D01*
X172808526Y-98978008D01*
X172808528Y-98978009D01*
X172918599Y-98992500D01*
X173117400Y-98992499D01*
X173130039Y-98990835D01*
X173199073Y-99001600D01*
X173251329Y-99047980D01*
X173270215Y-99115249D01*
X173269164Y-99129952D01*
X173267500Y-99142596D01*
X173267500Y-99341403D01*
X173281989Y-99451468D01*
X173284094Y-99459322D01*
X173280814Y-99460200D01*
X173286581Y-99514073D01*
X173283517Y-99524522D01*
X173284095Y-99524677D01*
X173281990Y-99532529D01*
X173267500Y-99642598D01*
X173267500Y-99841403D01*
X173281989Y-99951468D01*
X173284094Y-99959322D01*
X173280814Y-99960200D01*
X173286581Y-100014073D01*
X173283517Y-100024522D01*
X173284095Y-100024677D01*
X173281990Y-100032529D01*
X173267500Y-100142598D01*
X173267500Y-100341403D01*
X173281989Y-100451468D01*
X173284094Y-100459322D01*
X173280814Y-100460200D01*
X173286581Y-100514073D01*
X173283517Y-100524522D01*
X173284095Y-100524677D01*
X173281990Y-100532529D01*
X173267500Y-100642598D01*
X173267500Y-100841403D01*
X173281989Y-100951468D01*
X173284094Y-100959322D01*
X173280814Y-100960200D01*
X173286581Y-101014073D01*
X173283517Y-101024522D01*
X173284095Y-101024677D01*
X173281990Y-101032529D01*
X173267500Y-101142598D01*
X173267500Y-101341403D01*
X173281989Y-101451468D01*
X173284094Y-101459322D01*
X173280814Y-101460200D01*
X173286581Y-101514073D01*
X173283517Y-101524522D01*
X173284095Y-101524677D01*
X173281990Y-101532529D01*
X173267500Y-101642598D01*
X173267500Y-101841400D01*
X173269165Y-101854045D01*
X173258396Y-101923080D01*
X173212013Y-101975333D01*
X173144743Y-101994215D01*
X173130046Y-101993164D01*
X173117401Y-101991500D01*
X172918596Y-101991500D01*
X172808531Y-102005989D01*
X172800678Y-102008094D01*
X172799802Y-102004824D01*
X172745853Y-102010567D01*
X172735477Y-102007518D01*
X172735323Y-102008095D01*
X172727470Y-102005990D01*
X172617401Y-101991500D01*
X172418596Y-101991500D01*
X172308531Y-102005989D01*
X172300678Y-102008094D01*
X172299802Y-102004824D01*
X172245853Y-102010567D01*
X172235477Y-102007518D01*
X172235323Y-102008095D01*
X172227470Y-102005990D01*
X172117401Y-101991500D01*
X171918596Y-101991500D01*
X171808531Y-102005989D01*
X171800678Y-102008094D01*
X171799802Y-102004824D01*
X171745853Y-102010567D01*
X171735477Y-102007518D01*
X171735323Y-102008095D01*
X171727470Y-102005990D01*
X171617401Y-101991500D01*
X171418596Y-101991500D01*
X171308531Y-102005989D01*
X171300678Y-102008094D01*
X171299802Y-102004824D01*
X171245853Y-102010567D01*
X171235477Y-102007518D01*
X171235323Y-102008095D01*
X171227470Y-102005990D01*
X171117401Y-101991500D01*
X170918596Y-101991500D01*
X170808531Y-102005989D01*
X170800678Y-102008094D01*
X170799802Y-102004824D01*
X170745853Y-102010567D01*
X170735477Y-102007518D01*
X170735323Y-102008095D01*
X170727470Y-102005990D01*
X170617401Y-101991500D01*
X170418598Y-101991500D01*
X170405953Y-101993165D01*
X170336918Y-101982395D01*
X170284665Y-101936012D01*
X170265784Y-101868742D01*
X170266836Y-101854039D01*
X170268500Y-101841401D01*
X170268499Y-101642600D01*
X170254009Y-101532528D01*
X170254008Y-101532525D01*
X170251905Y-101524674D01*
X170255207Y-101523789D01*
X170249392Y-101470075D01*
X170252501Y-101459485D01*
X170251905Y-101459326D01*
X170254008Y-101451475D01*
X170254008Y-101451474D01*
X170254009Y-101451472D01*
X170268500Y-101341401D01*
X170268499Y-101142600D01*
X170254009Y-101032528D01*
X170254008Y-101032525D01*
X170251905Y-101024674D01*
X170255207Y-101023789D01*
X170249392Y-100970075D01*
X170252501Y-100959485D01*
X170251905Y-100959326D01*
X170254008Y-100951475D01*
X170254008Y-100951474D01*
X170254009Y-100951472D01*
X170268500Y-100841401D01*
X170268499Y-100642600D01*
X170254009Y-100532528D01*
X170254008Y-100532525D01*
X170251905Y-100524674D01*
X170255207Y-100523789D01*
X170249392Y-100470075D01*
X170252501Y-100459485D01*
X170251905Y-100459326D01*
X170254008Y-100451475D01*
X170254008Y-100451474D01*
X170254009Y-100451472D01*
X170268500Y-100341401D01*
X170268499Y-100142600D01*
X170254009Y-100032528D01*
X170254008Y-100032525D01*
X170251905Y-100024674D01*
X170255207Y-100023789D01*
X170249392Y-99970075D01*
X170252501Y-99959485D01*
X170251905Y-99959326D01*
X170254008Y-99951475D01*
X170254008Y-99951474D01*
X170254009Y-99951472D01*
X170268500Y-99841401D01*
X170268499Y-99642600D01*
X170265934Y-99623119D01*
X170264105Y-99609224D01*
X170254009Y-99532528D01*
X170254008Y-99532525D01*
X170251905Y-99524674D01*
X170255207Y-99523789D01*
X170249392Y-99470075D01*
X170252501Y-99459485D01*
X170251905Y-99459326D01*
X170254008Y-99451475D01*
X170254008Y-99451474D01*
X170254009Y-99451472D01*
X170268500Y-99341401D01*
X170268499Y-99142600D01*
X170268498Y-99142596D01*
X170266835Y-99129960D01*
X170277601Y-99060925D01*
X170323981Y-99008669D01*
X170391249Y-98989784D01*
X170405959Y-98990836D01*
X170406945Y-98990965D01*
X170418599Y-98992500D01*
X170617400Y-98992499D01*
X170617401Y-98992499D01*
X170638024Y-98989784D01*
X170727472Y-98978009D01*
X170727475Y-98978007D01*
X170735326Y-98975905D01*
X170736210Y-98979207D01*
X170789925Y-98973392D01*
X170800514Y-98976501D01*
X170800674Y-98975905D01*
X170808524Y-98978008D01*
X170808526Y-98978008D01*
X170808528Y-98978009D01*
X170918599Y-98992500D01*
X171117400Y-98992499D01*
X171117401Y-98992499D01*
X171138024Y-98989784D01*
X171227472Y-98978009D01*
X171227475Y-98978007D01*
X171235326Y-98975905D01*
X171236210Y-98979207D01*
X171289925Y-98973392D01*
X171300514Y-98976501D01*
X171300674Y-98975905D01*
X171308524Y-98978008D01*
X171308526Y-98978008D01*
X171308528Y-98978009D01*
X171418599Y-98992500D01*
X171617400Y-98992499D01*
X171617401Y-98992499D01*
X171638024Y-98989784D01*
X171727472Y-98978009D01*
X171727475Y-98978007D01*
X171735326Y-98975905D01*
X171736210Y-98979207D01*
X171789925Y-98973392D01*
X171800514Y-98976501D01*
X171800674Y-98975905D01*
X171808524Y-98978008D01*
X171808526Y-98978008D01*
X171808528Y-98978009D01*
X171918599Y-98992500D01*
X172117400Y-98992499D01*
X172117401Y-98992499D01*
X172138024Y-98989784D01*
X172227472Y-98978009D01*
X172227475Y-98978007D01*
X172235326Y-98975905D01*
X172236210Y-98979207D01*
X172289925Y-98973392D01*
X172300514Y-98976501D01*
X172300674Y-98975905D01*
X172308524Y-98978008D01*
X172308526Y-98978008D01*
X172308528Y-98978009D01*
X172418599Y-98992500D01*
X172617400Y-98992499D01*
X172617401Y-98992499D01*
X172638024Y-98989784D01*
X172727472Y-98978009D01*
X172727475Y-98978007D01*
X172735326Y-98975905D01*
X172736210Y-98979207D01*
X172789925Y-98973392D01*
X172800514Y-98976501D01*
G37*
%TD.AperFunction*%
%TA.AperFunction,Conductor*%
G36*
X127192774Y-83402185D02*
G01*
X127238529Y-83454989D01*
X127248473Y-83524147D01*
X127240296Y-83553953D01*
X127180313Y-83698763D01*
X127180313Y-83698764D01*
X127165500Y-83811272D01*
X127165500Y-84336727D01*
X127180313Y-84449235D01*
X127180313Y-84449236D01*
X127238301Y-84589233D01*
X127272279Y-84633514D01*
X127297473Y-84698684D01*
X127283434Y-84767129D01*
X127272279Y-84784486D01*
X127238301Y-84828766D01*
X127180313Y-84968763D01*
X127180313Y-84968764D01*
X127165500Y-85081272D01*
X127165500Y-85606727D01*
X127180313Y-85719235D01*
X127180313Y-85719236D01*
X127238301Y-85859233D01*
X127272279Y-85903514D01*
X127297473Y-85968684D01*
X127283434Y-86037129D01*
X127272279Y-86054486D01*
X127238301Y-86098766D01*
X127180313Y-86238763D01*
X127180313Y-86238764D01*
X127165500Y-86351272D01*
X127165500Y-86876727D01*
X127176928Y-86963522D01*
X127180313Y-86989236D01*
X127238302Y-87129233D01*
X127272594Y-87173923D01*
X127297788Y-87239091D01*
X127283750Y-87307536D01*
X127272595Y-87324894D01*
X127238737Y-87369019D01*
X127180801Y-87508891D01*
X127180800Y-87508895D01*
X127166000Y-87621302D01*
X127166000Y-87634000D01*
X130136000Y-87634000D01*
X130136000Y-87621316D01*
X130135999Y-87621302D01*
X130121199Y-87508895D01*
X130121198Y-87508891D01*
X130063262Y-87369018D01*
X130029405Y-87324895D01*
X130004211Y-87259726D01*
X130018250Y-87191281D01*
X130029398Y-87173933D01*
X130063698Y-87129233D01*
X130121687Y-86989236D01*
X130136500Y-86876720D01*
X130136500Y-86351280D01*
X130121687Y-86238764D01*
X130063698Y-86098767D01*
X130029720Y-86054486D01*
X130004526Y-85989317D01*
X130018564Y-85920872D01*
X130029720Y-85903514D01*
X130035598Y-85895853D01*
X130063698Y-85859233D01*
X130121687Y-85719236D01*
X130136500Y-85606720D01*
X130136500Y-85081280D01*
X130121687Y-84968764D01*
X130063698Y-84828767D01*
X130029720Y-84784486D01*
X130004526Y-84719317D01*
X130018564Y-84650872D01*
X130029720Y-84633514D01*
X130041203Y-84618549D01*
X130063698Y-84589233D01*
X130121687Y-84449236D01*
X130136500Y-84336720D01*
X130136500Y-83811280D01*
X130121687Y-83698764D01*
X130063698Y-83558767D01*
X130061704Y-83553953D01*
X130054235Y-83484483D01*
X130085510Y-83422004D01*
X130145599Y-83386352D01*
X130176265Y-83382500D01*
X134979176Y-83382500D01*
X135046215Y-83402185D01*
X135084715Y-83441404D01*
X135166287Y-83573655D01*
X135259951Y-83667319D01*
X135293436Y-83728642D01*
X135288452Y-83798334D01*
X135259951Y-83842681D01*
X135166289Y-83936342D01*
X135074187Y-84085663D01*
X135074185Y-84085668D01*
X135019001Y-84252203D01*
X135008500Y-84354983D01*
X135008500Y-85016718D01*
X134988815Y-85083757D01*
X134972181Y-85104399D01*
X131393010Y-88683570D01*
X131331687Y-88717055D01*
X131261995Y-88712071D01*
X131217648Y-88683570D01*
X131185262Y-88651184D01*
X131032523Y-88555211D01*
X130862254Y-88495631D01*
X130862249Y-88495630D01*
X130683004Y-88475435D01*
X130682996Y-88475435D01*
X130503750Y-88495630D01*
X130503745Y-88495631D01*
X130333476Y-88555211D01*
X130207300Y-88634494D01*
X130141328Y-88653500D01*
X130136153Y-88653500D01*
X130069114Y-88633815D01*
X130037779Y-88604989D01*
X130029406Y-88594077D01*
X130004211Y-88528911D01*
X130018248Y-88460465D01*
X130029405Y-88443103D01*
X130063263Y-88398978D01*
X130121198Y-88259108D01*
X130121199Y-88259104D01*
X130135999Y-88146697D01*
X130136000Y-88146683D01*
X130136000Y-88134000D01*
X127166000Y-88134000D01*
X127166000Y-88146697D01*
X127180800Y-88259104D01*
X127180801Y-88259108D01*
X127238737Y-88398981D01*
X127272594Y-88443104D01*
X127297788Y-88508274D01*
X127283749Y-88576718D01*
X127272594Y-88594076D01*
X127238302Y-88638766D01*
X127238300Y-88638769D01*
X127180313Y-88778763D01*
X127180313Y-88778764D01*
X127165500Y-88891272D01*
X127165500Y-89416727D01*
X127180313Y-89529235D01*
X127180313Y-89529236D01*
X127238301Y-89669233D01*
X127272279Y-89713514D01*
X127297473Y-89778684D01*
X127283434Y-89847129D01*
X127272279Y-89864486D01*
X127238301Y-89908766D01*
X127180313Y-90048763D01*
X127180313Y-90048764D01*
X127165500Y-90161272D01*
X127165500Y-90686727D01*
X127180313Y-90799235D01*
X127180313Y-90799236D01*
X127238301Y-90939233D01*
X127272279Y-90983514D01*
X127297473Y-91048684D01*
X127283434Y-91117129D01*
X127272279Y-91134486D01*
X127238301Y-91178766D01*
X127180313Y-91318763D01*
X127180313Y-91318764D01*
X127165500Y-91431272D01*
X127165500Y-91956727D01*
X127180313Y-92069235D01*
X127180313Y-92069236D01*
X127233311Y-92197185D01*
X127238302Y-92209233D01*
X127330549Y-92329451D01*
X127450767Y-92421698D01*
X127590764Y-92479687D01*
X127703280Y-92494500D01*
X127703287Y-92494500D01*
X129598713Y-92494500D01*
X129598720Y-92494500D01*
X129711236Y-92479687D01*
X129851233Y-92421698D01*
X129932206Y-92359565D01*
X129948420Y-92347124D01*
X130013589Y-92321930D01*
X130023906Y-92321500D01*
X131168719Y-92321500D01*
X131235758Y-92341185D01*
X131256400Y-92357819D01*
X134845181Y-95946600D01*
X134878666Y-96007923D01*
X134881500Y-96034281D01*
X134881500Y-96696001D01*
X134881501Y-96696019D01*
X134892000Y-96798796D01*
X134892001Y-96798799D01*
X134947185Y-96965331D01*
X134947186Y-96965334D01*
X135039288Y-97114656D01*
X135163344Y-97238712D01*
X135312666Y-97330814D01*
X135479203Y-97385999D01*
X135581991Y-97396500D01*
X136582008Y-97396499D01*
X136582016Y-97396498D01*
X136582019Y-97396498D01*
X136638302Y-97390748D01*
X136684797Y-97385999D01*
X136851334Y-97330814D01*
X137000656Y-97238712D01*
X137124712Y-97114656D01*
X137206285Y-96982403D01*
X137258233Y-96935679D01*
X137311824Y-96923500D01*
X140326719Y-96923500D01*
X140393758Y-96943185D01*
X140414400Y-96959819D01*
X140941181Y-97486600D01*
X140974666Y-97547923D01*
X140977500Y-97574281D01*
X140977500Y-98236001D01*
X140977501Y-98236019D01*
X140988000Y-98338796D01*
X140988001Y-98338799D01*
X141043185Y-98505331D01*
X141043187Y-98505336D01*
X141078069Y-98561888D01*
X141135288Y-98654656D01*
X141259344Y-98778712D01*
X141408666Y-98870814D01*
X141575203Y-98925999D01*
X141677991Y-98936500D01*
X142678008Y-98936499D01*
X142678016Y-98936498D01*
X142678019Y-98936498D01*
X142734302Y-98930748D01*
X142780797Y-98925999D01*
X142947334Y-98870814D01*
X143096656Y-98778712D01*
X143220712Y-98654656D01*
X143312814Y-98505334D01*
X143367999Y-98338797D01*
X143378500Y-98236009D01*
X143378499Y-97435992D01*
X143367999Y-97333203D01*
X143312814Y-97166666D01*
X143220712Y-97017344D01*
X143127049Y-96923681D01*
X143093564Y-96862358D01*
X143098548Y-96792666D01*
X143127049Y-96748319D01*
X143139713Y-96735655D01*
X143220712Y-96654656D01*
X143302285Y-96522403D01*
X143354233Y-96475679D01*
X143407824Y-96463500D01*
X148292942Y-96463500D01*
X148359981Y-96483185D01*
X148405736Y-96535989D01*
X148410646Y-96548492D01*
X148423186Y-96586334D01*
X148515288Y-96735656D01*
X148639344Y-96859712D01*
X148693780Y-96893288D01*
X148703543Y-96899310D01*
X148750268Y-96951258D01*
X148761489Y-97020221D01*
X148733646Y-97084303D01*
X148726128Y-97092530D01*
X148618585Y-97200073D01*
X148516768Y-97340211D01*
X148438128Y-97494552D01*
X148384597Y-97659302D01*
X148357500Y-97830389D01*
X148357500Y-98003610D01*
X148380310Y-98147632D01*
X148384598Y-98174701D01*
X148438127Y-98339445D01*
X148516768Y-98493788D01*
X148618586Y-98633928D01*
X148741072Y-98756414D01*
X148881212Y-98858232D01*
X149035555Y-98936873D01*
X149200299Y-98990402D01*
X149371389Y-99017500D01*
X149371390Y-99017500D01*
X150094610Y-99017500D01*
X150094611Y-99017500D01*
X150265701Y-98990402D01*
X150430445Y-98936873D01*
X150584788Y-98858232D01*
X150724928Y-98756414D01*
X150847414Y-98633928D01*
X150949232Y-98493788D01*
X151027873Y-98339445D01*
X151081402Y-98174701D01*
X151108500Y-98003611D01*
X151108500Y-97830389D01*
X151081402Y-97659299D01*
X151027873Y-97494555D01*
X150949232Y-97340212D01*
X150847414Y-97200072D01*
X150739872Y-97092530D01*
X150706387Y-97031207D01*
X150711371Y-96961515D01*
X150753243Y-96905582D01*
X150762457Y-96899310D01*
X150772220Y-96893288D01*
X150826656Y-96859712D01*
X150950712Y-96735656D01*
X151032285Y-96603403D01*
X151084233Y-96556679D01*
X151137824Y-96544500D01*
X159331868Y-96544500D01*
X159398907Y-96564185D01*
X159444662Y-96616989D01*
X159448906Y-96627537D01*
X159458396Y-96654656D01*
X159504452Y-96786279D01*
X159579415Y-96905582D01*
X159600426Y-96939020D01*
X159727980Y-97066574D01*
X159769289Y-97092530D01*
X159838171Y-97135812D01*
X159880720Y-97162547D01*
X159987963Y-97200073D01*
X160050987Y-97222126D01*
X160050992Y-97222127D01*
X160230238Y-97242323D01*
X160230242Y-97242323D01*
X160230246Y-97242323D01*
X160409491Y-97222127D01*
X160409494Y-97222126D01*
X160409497Y-97222126D01*
X160579764Y-97162547D01*
X160726675Y-97070236D01*
X160793910Y-97051236D01*
X160860745Y-97071603D01*
X160880327Y-97087549D01*
X162526412Y-98733634D01*
X162559897Y-98794957D01*
X162554913Y-98864649D01*
X162526412Y-98908996D01*
X160161227Y-101274181D01*
X160099904Y-101307666D01*
X160073546Y-101310500D01*
X137406500Y-101310500D01*
X137339461Y-101290815D01*
X137293706Y-101238011D01*
X137282500Y-101186500D01*
X137282499Y-100610998D01*
X137282498Y-100610980D01*
X137271999Y-100508203D01*
X137271998Y-100508200D01*
X137266630Y-100492000D01*
X137216814Y-100341666D01*
X137124712Y-100192344D01*
X137031049Y-100098681D01*
X136997564Y-100037358D01*
X137002548Y-99967666D01*
X137031049Y-99923319D01*
X137124712Y-99829656D01*
X137216814Y-99680334D01*
X137271999Y-99513797D01*
X137282500Y-99411009D01*
X137282499Y-98610992D01*
X137279688Y-98583478D01*
X137271999Y-98508203D01*
X137271998Y-98508200D01*
X137267222Y-98493788D01*
X137216814Y-98341666D01*
X137124712Y-98192344D01*
X137000656Y-98068288D01*
X136851334Y-97976186D01*
X136684797Y-97921001D01*
X136684795Y-97921000D01*
X136582010Y-97910500D01*
X135581998Y-97910500D01*
X135581980Y-97910501D01*
X135479203Y-97921000D01*
X135479200Y-97921001D01*
X135312668Y-97976185D01*
X135312663Y-97976187D01*
X135163342Y-98068289D01*
X135039289Y-98192342D01*
X135039288Y-98192344D01*
X135012356Y-98236009D01*
X135005825Y-98246597D01*
X134953877Y-98293321D01*
X134900286Y-98305500D01*
X134399672Y-98305500D01*
X134333700Y-98286494D01*
X134207523Y-98207211D01*
X134037254Y-98147631D01*
X134037249Y-98147630D01*
X133858004Y-98127435D01*
X133857996Y-98127435D01*
X133678750Y-98147630D01*
X133678745Y-98147631D01*
X133508476Y-98207211D01*
X133355737Y-98303184D01*
X133228184Y-98430737D01*
X133132211Y-98583476D01*
X133072631Y-98753745D01*
X133072630Y-98753750D01*
X133052435Y-98932996D01*
X133052435Y-98933003D01*
X133072630Y-99112249D01*
X133072631Y-99112254D01*
X133132211Y-99282523D01*
X133212504Y-99410308D01*
X133228184Y-99435262D01*
X133355738Y-99562816D01*
X133382300Y-99579506D01*
X133487320Y-99645495D01*
X133508478Y-99658789D01*
X133570056Y-99680336D01*
X133678745Y-99718368D01*
X133678750Y-99718369D01*
X133857996Y-99738565D01*
X133858000Y-99738565D01*
X133858004Y-99738565D01*
X134037249Y-99718369D01*
X134037252Y-99718368D01*
X134037255Y-99718368D01*
X134207522Y-99658789D01*
X134333700Y-99579505D01*
X134399672Y-99560500D01*
X134817936Y-99560500D01*
X134884975Y-99580185D01*
X134930730Y-99632989D01*
X134935638Y-99645487D01*
X134940047Y-99658789D01*
X134947186Y-99680333D01*
X134947187Y-99680336D01*
X134970645Y-99718368D01*
X134999700Y-99765474D01*
X135039289Y-99829657D01*
X135132951Y-99923319D01*
X135166436Y-99984642D01*
X135161452Y-100054334D01*
X135132951Y-100098681D01*
X135039288Y-100192343D01*
X135039287Y-100192344D01*
X134957715Y-100324596D01*
X134905767Y-100371321D01*
X134852176Y-100383500D01*
X133329281Y-100383500D01*
X133262242Y-100363815D01*
X133241600Y-100347181D01*
X125169342Y-92274923D01*
X125135857Y-92213600D01*
X125140841Y-92143908D01*
X125142438Y-92139847D01*
X125171687Y-92069236D01*
X125186500Y-91956720D01*
X125186500Y-91431280D01*
X125171687Y-91318764D01*
X125114720Y-91181234D01*
X125113699Y-91178769D01*
X125113697Y-91178766D01*
X125079720Y-91134486D01*
X125054526Y-91069317D01*
X125068564Y-91000872D01*
X125079720Y-90983514D01*
X125085598Y-90975853D01*
X125113698Y-90939233D01*
X125171687Y-90799236D01*
X125186500Y-90686720D01*
X125186500Y-90161280D01*
X125171687Y-90048764D01*
X125119315Y-89922327D01*
X125113699Y-89908769D01*
X125113697Y-89908766D01*
X125079720Y-89864486D01*
X125054526Y-89799317D01*
X125068564Y-89730872D01*
X125079720Y-89713514D01*
X125085598Y-89705853D01*
X125113698Y-89669233D01*
X125171687Y-89529236D01*
X125186500Y-89416720D01*
X125186500Y-88891280D01*
X125171687Y-88778764D01*
X125124811Y-88665596D01*
X125113699Y-88638769D01*
X125113697Y-88638766D01*
X125079720Y-88594486D01*
X125054526Y-88529317D01*
X125068564Y-88460872D01*
X125079720Y-88443514D01*
X125095922Y-88422399D01*
X125113698Y-88399233D01*
X125171687Y-88259236D01*
X125186500Y-88146720D01*
X125186500Y-87621280D01*
X125171687Y-87508764D01*
X125126506Y-87399687D01*
X125113699Y-87368769D01*
X125113697Y-87368766D01*
X125079720Y-87324486D01*
X125054526Y-87259317D01*
X125068564Y-87190872D01*
X125079720Y-87173514D01*
X125087179Y-87163793D01*
X125113698Y-87129233D01*
X125171687Y-86989236D01*
X125186500Y-86876720D01*
X125186500Y-86351280D01*
X125171687Y-86238764D01*
X125113698Y-86098767D01*
X125079720Y-86054486D01*
X125054526Y-85989317D01*
X125068564Y-85920872D01*
X125079720Y-85903514D01*
X125085598Y-85895853D01*
X125113698Y-85859233D01*
X125171687Y-85719236D01*
X125186500Y-85606720D01*
X125186500Y-85081280D01*
X125171687Y-84968764D01*
X125113698Y-84828767D01*
X125079720Y-84784486D01*
X125054526Y-84719317D01*
X125068564Y-84650872D01*
X125079720Y-84633514D01*
X125091203Y-84618549D01*
X125113698Y-84589233D01*
X125171687Y-84449236D01*
X125186500Y-84336720D01*
X125186500Y-83811280D01*
X125171687Y-83698764D01*
X125142461Y-83628208D01*
X125134993Y-83558741D01*
X125166268Y-83496261D01*
X125169304Y-83493113D01*
X125243601Y-83418817D01*
X125304924Y-83385334D01*
X125331281Y-83382500D01*
X127125735Y-83382500D01*
X127192774Y-83402185D01*
G37*
%TD.AperFunction*%
%TA.AperFunction,Conductor*%
G36*
X163317334Y-89426548D02*
G01*
X163361681Y-89455049D01*
X163455344Y-89548712D01*
X163604666Y-89640814D01*
X163771203Y-89695999D01*
X163873991Y-89706500D01*
X164535718Y-89706499D01*
X164602757Y-89726183D01*
X164623399Y-89742818D01*
X165648399Y-90767818D01*
X165681884Y-90829141D01*
X165676900Y-90898833D01*
X165648399Y-90943180D01*
X164496398Y-92095181D01*
X164435075Y-92128666D01*
X164408717Y-92131500D01*
X163746998Y-92131500D01*
X163746980Y-92131501D01*
X163644203Y-92142000D01*
X163644200Y-92142001D01*
X163477668Y-92197185D01*
X163477663Y-92197187D01*
X163328345Y-92289287D01*
X163234327Y-92383305D01*
X163173003Y-92416789D01*
X163103312Y-92411805D01*
X163058965Y-92383304D01*
X162965345Y-92289684D01*
X162816124Y-92197643D01*
X162816119Y-92197641D01*
X162649697Y-92142494D01*
X162649690Y-92142493D01*
X162546986Y-92132000D01*
X162397000Y-92132000D01*
X162397000Y-94531999D01*
X162546972Y-94531999D01*
X162546986Y-94531998D01*
X162649697Y-94521505D01*
X162816119Y-94466358D01*
X162816124Y-94466356D01*
X162965342Y-94374317D01*
X163058964Y-94280695D01*
X163120287Y-94247210D01*
X163189979Y-94252194D01*
X163234327Y-94280695D01*
X163328344Y-94374712D01*
X163477666Y-94466814D01*
X163644203Y-94521999D01*
X163746991Y-94532500D01*
X164547008Y-94532499D01*
X164547016Y-94532498D01*
X164547019Y-94532498D01*
X164603302Y-94526748D01*
X164649797Y-94521999D01*
X164816334Y-94466814D01*
X164965656Y-94374712D01*
X165089712Y-94250656D01*
X165181814Y-94101334D01*
X165236999Y-93934797D01*
X165247500Y-93832009D01*
X165247499Y-93170279D01*
X165267183Y-93103241D01*
X165283813Y-93082604D01*
X166318600Y-92047819D01*
X166379923Y-92014334D01*
X166406281Y-92011500D01*
X167918856Y-92011500D01*
X167985895Y-92031185D01*
X168031650Y-92083989D01*
X168041310Y-92151173D01*
X168041734Y-92151224D01*
X168041544Y-92152802D01*
X168041594Y-92153147D01*
X168041362Y-92154314D01*
X168035324Y-92204599D01*
X168030500Y-92244772D01*
X168030500Y-92523228D01*
X168035757Y-92567001D01*
X168041734Y-92616776D01*
X168039462Y-92617048D01*
X168039462Y-92650951D01*
X168041734Y-92651224D01*
X168040786Y-92659117D01*
X168040786Y-92659118D01*
X168030500Y-92744772D01*
X168030500Y-93023228D01*
X168032189Y-93037289D01*
X168040785Y-93108880D01*
X168094536Y-93245184D01*
X168106671Y-93261186D01*
X168183069Y-93361931D01*
X168299815Y-93450463D01*
X168436118Y-93504214D01*
X168521772Y-93514500D01*
X169131500Y-93514500D01*
X169198539Y-93534185D01*
X169244294Y-93586989D01*
X169255500Y-93638500D01*
X169255500Y-94248228D01*
X169259399Y-94280695D01*
X169265785Y-94333880D01*
X169319536Y-94470184D01*
X169340931Y-94498398D01*
X169408069Y-94586931D01*
X169524815Y-94675463D01*
X169661118Y-94729214D01*
X169746772Y-94739500D01*
X169746778Y-94739500D01*
X170025229Y-94739500D01*
X170118776Y-94728266D01*
X170119050Y-94730551D01*
X170152950Y-94730551D01*
X170153224Y-94728266D01*
X170246771Y-94739500D01*
X170246772Y-94739500D01*
X170525229Y-94739500D01*
X170618776Y-94728266D01*
X170619050Y-94730551D01*
X170652950Y-94730551D01*
X170653224Y-94728266D01*
X170746771Y-94739500D01*
X170746772Y-94739500D01*
X171025229Y-94739500D01*
X171118776Y-94728266D01*
X171119050Y-94730551D01*
X171152950Y-94730551D01*
X171153224Y-94728266D01*
X171246771Y-94739500D01*
X171246772Y-94739500D01*
X171525229Y-94739500D01*
X171618776Y-94728266D01*
X171619050Y-94730551D01*
X171652950Y-94730551D01*
X171653224Y-94728266D01*
X171746771Y-94739500D01*
X171746772Y-94739500D01*
X172025229Y-94739500D01*
X172118776Y-94728266D01*
X172119050Y-94730551D01*
X172152950Y-94730551D01*
X172153224Y-94728266D01*
X172246771Y-94739500D01*
X172246772Y-94739500D01*
X172525229Y-94739500D01*
X172618776Y-94728266D01*
X172619050Y-94730551D01*
X172652950Y-94730551D01*
X172653224Y-94728266D01*
X172746771Y-94739500D01*
X172746772Y-94739500D01*
X173025222Y-94739500D01*
X173025228Y-94739500D01*
X173110882Y-94729214D01*
X173247185Y-94675463D01*
X173363931Y-94586931D01*
X173452463Y-94470185D01*
X173506214Y-94333882D01*
X173516500Y-94248228D01*
X173516500Y-93638500D01*
X173536185Y-93571461D01*
X173588989Y-93525706D01*
X173640500Y-93514500D01*
X173816500Y-93514500D01*
X173883539Y-93534185D01*
X173929294Y-93586989D01*
X173940500Y-93638500D01*
X173940500Y-94955677D01*
X173920815Y-95022716D01*
X173868011Y-95068471D01*
X173830384Y-95078897D01*
X173761750Y-95086630D01*
X173591478Y-95146210D01*
X173438737Y-95242184D01*
X173311184Y-95369737D01*
X173215210Y-95522478D01*
X173155632Y-95692745D01*
X173150686Y-95736638D01*
X173123618Y-95801051D01*
X173115147Y-95810433D01*
X173030591Y-95894988D01*
X173030588Y-95894992D01*
X172961917Y-95997766D01*
X172961916Y-95997767D01*
X172959658Y-96003221D01*
X172959655Y-96003228D01*
X172914614Y-96111964D01*
X172914612Y-96111972D01*
X172901772Y-96176521D01*
X172901773Y-96176522D01*
X172890500Y-96233198D01*
X172890500Y-97013074D01*
X172870815Y-97080113D01*
X172818011Y-97125868D01*
X172748853Y-97135812D01*
X172734411Y-97132850D01*
X172727473Y-97130991D01*
X172617401Y-97116500D01*
X172418596Y-97116500D01*
X172308531Y-97130989D01*
X172300678Y-97133094D01*
X172299802Y-97129824D01*
X172245853Y-97135567D01*
X172235477Y-97132518D01*
X172235323Y-97133095D01*
X172227470Y-97130990D01*
X172117401Y-97116500D01*
X171918596Y-97116500D01*
X171808531Y-97130989D01*
X171800678Y-97133094D01*
X171799802Y-97129824D01*
X171745853Y-97135567D01*
X171735477Y-97132518D01*
X171735323Y-97133095D01*
X171727470Y-97130990D01*
X171617401Y-97116500D01*
X171418596Y-97116500D01*
X171308531Y-97130989D01*
X171300678Y-97133094D01*
X171299802Y-97129824D01*
X171245853Y-97135567D01*
X171235477Y-97132518D01*
X171235323Y-97133095D01*
X171227470Y-97130990D01*
X171117401Y-97116500D01*
X170918596Y-97116500D01*
X170808531Y-97130989D01*
X170800678Y-97133094D01*
X170799802Y-97129824D01*
X170745853Y-97135567D01*
X170735477Y-97132518D01*
X170735323Y-97133095D01*
X170727470Y-97130990D01*
X170617401Y-97116500D01*
X170418596Y-97116500D01*
X170308529Y-97130989D01*
X170300681Y-97133093D01*
X170299856Y-97130015D01*
X170245229Y-97135842D01*
X170235355Y-97132989D01*
X170235197Y-97133582D01*
X170227346Y-97131478D01*
X170143000Y-97120373D01*
X170143000Y-97148494D01*
X170123315Y-97215533D01*
X170094466Y-97246885D01*
X170092466Y-97248419D01*
X170027292Y-97273600D01*
X169958850Y-97259548D01*
X169908870Y-97210723D01*
X169893000Y-97150028D01*
X169893000Y-97120373D01*
X169808659Y-97131478D01*
X169808657Y-97131478D01*
X169671824Y-97188156D01*
X169554320Y-97278320D01*
X169464156Y-97395824D01*
X169407478Y-97532657D01*
X169407478Y-97532658D01*
X169393000Y-97642622D01*
X169393000Y-97911500D01*
X169373315Y-97978539D01*
X169320511Y-98024294D01*
X169269000Y-98035500D01*
X168698070Y-98035500D01*
X168564578Y-98062053D01*
X168564568Y-98062056D01*
X168438822Y-98114142D01*
X168435962Y-98115671D01*
X168433859Y-98116197D01*
X168433190Y-98116475D01*
X168433148Y-98116375D01*
X168377505Y-98130315D01*
X163928899Y-98130315D01*
X163861860Y-98110630D01*
X163841218Y-98093996D01*
X160747319Y-95000097D01*
X160713834Y-94938774D01*
X160711000Y-94912416D01*
X160711000Y-93831986D01*
X161047001Y-93831986D01*
X161057494Y-93934697D01*
X161112641Y-94101119D01*
X161112643Y-94101124D01*
X161204684Y-94250345D01*
X161328654Y-94374315D01*
X161477875Y-94466356D01*
X161477880Y-94466358D01*
X161644302Y-94521505D01*
X161644309Y-94521506D01*
X161747019Y-94531999D01*
X161896999Y-94531999D01*
X161897000Y-94531998D01*
X161897000Y-93582000D01*
X161047001Y-93582000D01*
X161047001Y-93831986D01*
X160711000Y-93831986D01*
X160711000Y-92832013D01*
X161047000Y-92832013D01*
X161047000Y-93082000D01*
X161897000Y-93082000D01*
X161897000Y-92132000D01*
X161747027Y-92132000D01*
X161747012Y-92132001D01*
X161644302Y-92142494D01*
X161477880Y-92197641D01*
X161477875Y-92197643D01*
X161328654Y-92289684D01*
X161204684Y-92413654D01*
X161112643Y-92562875D01*
X161112641Y-92562880D01*
X161057494Y-92729302D01*
X161057493Y-92729309D01*
X161047000Y-92832013D01*
X160711000Y-92832013D01*
X160711000Y-91097583D01*
X160730685Y-91030544D01*
X160747314Y-91009907D01*
X162014403Y-89742817D01*
X162075726Y-89709333D01*
X162102084Y-89706499D01*
X162674002Y-89706499D01*
X162674008Y-89706499D01*
X162776797Y-89695999D01*
X162943334Y-89640814D01*
X163092656Y-89548712D01*
X163186319Y-89455049D01*
X163247642Y-89421564D01*
X163317334Y-89426548D01*
G37*
%TD.AperFunction*%
%TA.AperFunction,Conductor*%
G36*
X116108691Y-74883845D02*
G01*
X116164624Y-74925717D01*
X116183063Y-74961022D01*
X116220123Y-75072861D01*
X116236186Y-75121334D01*
X116328288Y-75270656D01*
X116452344Y-75394712D01*
X116601666Y-75486814D01*
X116658505Y-75505648D01*
X116715948Y-75545418D01*
X116742772Y-75609934D01*
X116743500Y-75623353D01*
X116743500Y-76581361D01*
X116723815Y-76648400D01*
X116671011Y-76694155D01*
X116658505Y-76699067D01*
X116576666Y-76726186D01*
X116576663Y-76726187D01*
X116427342Y-76818289D01*
X116303287Y-76942344D01*
X116229425Y-77062096D01*
X116177477Y-77108821D01*
X116123886Y-77121000D01*
X115610692Y-77121000D01*
X115489473Y-77145112D01*
X115489465Y-77145114D01*
X115449707Y-77161583D01*
X115449706Y-77161583D01*
X115375273Y-77192413D01*
X115375261Y-77192420D01*
X115306589Y-77238306D01*
X115305175Y-77239251D01*
X115297058Y-77244674D01*
X115272489Y-77261090D01*
X115272488Y-77261091D01*
X114515206Y-78018375D01*
X114280992Y-78252589D01*
X114257286Y-78276295D01*
X114193586Y-78339994D01*
X114193585Y-78339996D01*
X114124233Y-78443789D01*
X114122586Y-78448393D01*
X114077614Y-78556964D01*
X114077612Y-78556972D01*
X114053500Y-78678192D01*
X114053500Y-82156477D01*
X114033815Y-82223516D01*
X113981011Y-82269271D01*
X113911853Y-82279215D01*
X113848297Y-82250190D01*
X113841819Y-82244158D01*
X113759345Y-82161684D01*
X113610124Y-82069643D01*
X113610119Y-82069641D01*
X113443697Y-82014494D01*
X113443690Y-82014493D01*
X113340986Y-82004000D01*
X113091000Y-82004000D01*
X113091000Y-82854000D01*
X114040998Y-82854000D01*
X114041607Y-82853391D01*
X114102929Y-82819905D01*
X114172621Y-82824889D01*
X114216970Y-82853390D01*
X115669578Y-84305997D01*
X115703063Y-84367320D01*
X115698079Y-84437012D01*
X115656207Y-84492945D01*
X115590743Y-84517362D01*
X115534446Y-84508240D01*
X115525023Y-84504337D01*
X115516035Y-84500614D01*
X115516031Y-84500613D01*
X115516027Y-84500612D01*
X115394807Y-84476500D01*
X115394803Y-84476500D01*
X114070824Y-84476500D01*
X114003785Y-84456815D01*
X113965285Y-84417596D01*
X113926663Y-84354980D01*
X113883712Y-84285344D01*
X113789695Y-84191327D01*
X113756210Y-84130004D01*
X113761194Y-84060312D01*
X113789695Y-84015964D01*
X113883317Y-83922342D01*
X113975356Y-83773124D01*
X113975358Y-83773119D01*
X114030505Y-83606697D01*
X114030506Y-83606690D01*
X114040999Y-83503986D01*
X114041000Y-83503973D01*
X114041000Y-83354000D01*
X111641001Y-83354000D01*
X111641001Y-83503986D01*
X111651494Y-83606697D01*
X111706641Y-83773119D01*
X111706643Y-83773124D01*
X111798684Y-83922345D01*
X111892304Y-84015965D01*
X111925789Y-84077288D01*
X111920805Y-84146980D01*
X111892305Y-84191327D01*
X111798287Y-84285345D01*
X111706187Y-84434663D01*
X111706185Y-84434668D01*
X111686874Y-84492945D01*
X111651001Y-84601203D01*
X111651001Y-84601204D01*
X111651000Y-84601204D01*
X111640500Y-84703983D01*
X111640500Y-85504001D01*
X111640501Y-85504019D01*
X111651000Y-85606796D01*
X111651001Y-85606799D01*
X111706185Y-85773331D01*
X111706187Y-85773336D01*
X111716351Y-85789814D01*
X111798288Y-85922656D01*
X111922344Y-86046712D01*
X112071666Y-86138814D01*
X112238203Y-86193999D01*
X112340991Y-86204500D01*
X113341008Y-86204499D01*
X113341016Y-86204498D01*
X113341019Y-86204498D01*
X113397302Y-86198748D01*
X113443797Y-86193999D01*
X113610334Y-86138814D01*
X113759656Y-86046712D01*
X113883712Y-85922656D01*
X113965285Y-85790403D01*
X114017233Y-85743679D01*
X114070824Y-85731500D01*
X115021719Y-85731500D01*
X115088758Y-85751185D01*
X115109400Y-85767819D01*
X116017146Y-86675565D01*
X116050631Y-86736888D01*
X116052685Y-86749361D01*
X116057630Y-86793249D01*
X116117210Y-86963521D01*
X116213184Y-87116262D01*
X116345662Y-87248740D01*
X116343569Y-87250832D01*
X116376116Y-87297244D01*
X116378935Y-87367057D01*
X116364190Y-87402037D01*
X116363189Y-87403659D01*
X116363186Y-87403665D01*
X116363186Y-87403666D01*
X116308001Y-87570203D01*
X116308001Y-87570204D01*
X116308000Y-87570204D01*
X116297500Y-87672983D01*
X116297500Y-88334718D01*
X116277815Y-88401757D01*
X116261181Y-88422399D01*
X116165032Y-88518549D01*
X116070992Y-88612589D01*
X116049087Y-88634494D01*
X115983586Y-88699994D01*
X115983585Y-88699996D01*
X115914920Y-88802761D01*
X115914916Y-88802768D01*
X115905831Y-88824703D01*
X115905830Y-88824706D01*
X115867614Y-88916965D01*
X115867612Y-88916971D01*
X115843510Y-89038141D01*
X115843500Y-89038198D01*
X115843500Y-91679807D01*
X115867612Y-91801028D01*
X115867613Y-91801032D01*
X115867614Y-91801035D01*
X115891427Y-91858523D01*
X115891427Y-91858524D01*
X115914915Y-91915229D01*
X115914920Y-91915239D01*
X115981245Y-92014500D01*
X115981247Y-92014503D01*
X115983589Y-92018009D01*
X115983591Y-92018011D01*
X116261181Y-92295600D01*
X116294666Y-92356923D01*
X116297500Y-92383281D01*
X116297500Y-93045001D01*
X116297501Y-93045019D01*
X116308000Y-93147796D01*
X116312489Y-93161342D01*
X116321819Y-93189497D01*
X116324221Y-93259323D01*
X116288490Y-93319365D01*
X116225970Y-93350558D01*
X116204113Y-93352500D01*
X111132824Y-93352500D01*
X111065785Y-93332815D01*
X111027285Y-93293596D01*
X111006145Y-93259323D01*
X110945712Y-93161344D01*
X110821656Y-93037288D01*
X110821655Y-93037287D01*
X110757019Y-92997420D01*
X110710294Y-92945472D01*
X110699071Y-92876510D01*
X110726914Y-92812428D01*
X110734434Y-92804199D01*
X110842035Y-92696598D01*
X110943804Y-92556524D01*
X111022408Y-92402255D01*
X111075914Y-92237584D01*
X111077115Y-92230000D01*
X110008330Y-92230000D01*
X110028075Y-92210255D01*
X110077444Y-92124745D01*
X110103000Y-92029370D01*
X110103000Y-91930630D01*
X110077444Y-91835255D01*
X110028075Y-91749745D01*
X110008330Y-91730000D01*
X111077115Y-91730000D01*
X111077115Y-91729999D01*
X111075914Y-91722415D01*
X111022408Y-91557744D01*
X110943804Y-91403475D01*
X110842032Y-91263397D01*
X110719602Y-91140967D01*
X110579524Y-91039195D01*
X110425257Y-90960591D01*
X110260584Y-90907085D01*
X110089571Y-90880000D01*
X109978000Y-90880000D01*
X109978000Y-91699670D01*
X109958255Y-91679925D01*
X109872745Y-91630556D01*
X109777370Y-91605000D01*
X109678630Y-91605000D01*
X109583255Y-91630556D01*
X109497745Y-91679925D01*
X109478000Y-91699670D01*
X109478000Y-90880000D01*
X109366429Y-90880000D01*
X109195415Y-90907085D01*
X109030742Y-90960591D01*
X108876475Y-91039195D01*
X108736397Y-91140967D01*
X108613967Y-91263397D01*
X108512195Y-91403475D01*
X108433591Y-91557744D01*
X108380085Y-91722415D01*
X108378884Y-91729999D01*
X108378885Y-91730000D01*
X109447670Y-91730000D01*
X109427925Y-91749745D01*
X109378556Y-91835255D01*
X109353000Y-91930630D01*
X109353000Y-92029370D01*
X109378556Y-92124745D01*
X109427925Y-92210255D01*
X109447670Y-92230000D01*
X108378885Y-92230000D01*
X108380085Y-92237584D01*
X108433591Y-92402255D01*
X108512195Y-92556524D01*
X108613967Y-92696602D01*
X108721565Y-92804200D01*
X108755050Y-92865523D01*
X108750066Y-92935215D01*
X108708194Y-92991148D01*
X108698981Y-92997420D01*
X108634342Y-93037289D01*
X108510289Y-93161342D01*
X108418187Y-93310663D01*
X108418185Y-93310668D01*
X108404062Y-93353288D01*
X108363001Y-93477203D01*
X108363001Y-93477204D01*
X108363000Y-93477204D01*
X108352500Y-93579983D01*
X108352500Y-94380001D01*
X108352501Y-94380019D01*
X108363000Y-94482796D01*
X108363001Y-94482799D01*
X108418185Y-94649331D01*
X108418187Y-94649336D01*
X108453069Y-94705888D01*
X108510288Y-94798656D01*
X108634344Y-94922712D01*
X108783666Y-95014814D01*
X108950203Y-95069999D01*
X109052991Y-95080500D01*
X110403008Y-95080499D01*
X110505797Y-95069999D01*
X110672334Y-95014814D01*
X110821656Y-94922712D01*
X110945712Y-94798656D01*
X111027285Y-94666403D01*
X111079233Y-94619679D01*
X111132824Y-94607500D01*
X116173500Y-94607500D01*
X116240539Y-94627185D01*
X116286294Y-94679989D01*
X116297500Y-94731500D01*
X116297500Y-95045000D01*
X116297501Y-95045019D01*
X116308000Y-95147796D01*
X116308001Y-95147799D01*
X116354957Y-95289500D01*
X116363186Y-95314334D01*
X116438219Y-95435983D01*
X116455289Y-95463657D01*
X116545451Y-95553819D01*
X116578936Y-95615142D01*
X116573952Y-95684834D01*
X116532080Y-95740767D01*
X116466616Y-95765184D01*
X116457770Y-95765500D01*
X104510500Y-95765500D01*
X104443461Y-95745815D01*
X104397706Y-95693011D01*
X104386500Y-95641500D01*
X104386500Y-86554885D01*
X104406185Y-86487846D01*
X104422814Y-86467209D01*
X108186010Y-82704013D01*
X111641000Y-82704013D01*
X111641000Y-82854000D01*
X112591000Y-82854000D01*
X112591000Y-82004000D01*
X112341029Y-82004000D01*
X112341012Y-82004001D01*
X112238302Y-82014494D01*
X112071880Y-82069641D01*
X112071875Y-82069643D01*
X111922654Y-82161684D01*
X111798684Y-82285654D01*
X111706643Y-82434875D01*
X111706641Y-82434880D01*
X111651494Y-82601302D01*
X111651493Y-82601309D01*
X111641000Y-82704013D01*
X108186010Y-82704013D01*
X115977678Y-74912344D01*
X116038999Y-74878861D01*
X116108691Y-74883845D01*
G37*
%TD.AperFunction*%
%TA.AperFunction,Conductor*%
G36*
X118776696Y-74745562D02*
G01*
X118783180Y-74751599D01*
X120761181Y-76729600D01*
X120794666Y-76790923D01*
X120797500Y-76817280D01*
X120797500Y-76987500D01*
X120797501Y-76987519D01*
X120808000Y-77090296D01*
X120808001Y-77090299D01*
X120863185Y-77256831D01*
X120863187Y-77256836D01*
X120876281Y-77278064D01*
X120955288Y-77406156D01*
X121079344Y-77530212D01*
X121082628Y-77532237D01*
X121082653Y-77532253D01*
X121084445Y-77534246D01*
X121085011Y-77534693D01*
X121084934Y-77534789D01*
X121129379Y-77584199D01*
X121140603Y-77653161D01*
X121112761Y-77717244D01*
X121082665Y-77743326D01*
X121079660Y-77745179D01*
X121079655Y-77745183D01*
X120955684Y-77869154D01*
X120863643Y-78018375D01*
X120863641Y-78018380D01*
X120808494Y-78184802D01*
X120808493Y-78184809D01*
X120798000Y-78287513D01*
X120798000Y-78425000D01*
X123247999Y-78425000D01*
X123247999Y-78287528D01*
X123247998Y-78287513D01*
X123237505Y-78184802D01*
X123182358Y-78018380D01*
X123182356Y-78018375D01*
X123090315Y-77869154D01*
X122966344Y-77745183D01*
X122966341Y-77745181D01*
X122963339Y-77743329D01*
X122961713Y-77741521D01*
X122960677Y-77740702D01*
X122960817Y-77740524D01*
X122916617Y-77691380D01*
X122905397Y-77622417D01*
X122933243Y-77558336D01*
X122963344Y-77532254D01*
X122966656Y-77530212D01*
X123090712Y-77406156D01*
X123164575Y-77286403D01*
X123216523Y-77239679D01*
X123270114Y-77227500D01*
X124502493Y-77227500D01*
X124569532Y-77247185D01*
X124608031Y-77286402D01*
X124685288Y-77411656D01*
X124809344Y-77535712D01*
X124812628Y-77537737D01*
X124812653Y-77537753D01*
X124814445Y-77539746D01*
X124815011Y-77540193D01*
X124814934Y-77540289D01*
X124859379Y-77589699D01*
X124870603Y-77658661D01*
X124842761Y-77722744D01*
X124812665Y-77748826D01*
X124809660Y-77750679D01*
X124809655Y-77750683D01*
X124685684Y-77874654D01*
X124593643Y-78023875D01*
X124593641Y-78023880D01*
X124538494Y-78190302D01*
X124538493Y-78190309D01*
X124528000Y-78293013D01*
X124528000Y-78430500D01*
X126977999Y-78430500D01*
X126977999Y-78293028D01*
X126977998Y-78293013D01*
X126967505Y-78190302D01*
X126912358Y-78023880D01*
X126912356Y-78023875D01*
X126820315Y-77874654D01*
X126696344Y-77750683D01*
X126696341Y-77750681D01*
X126693339Y-77748829D01*
X126691713Y-77747021D01*
X126690677Y-77746202D01*
X126690817Y-77746024D01*
X126646617Y-77696880D01*
X126635397Y-77627917D01*
X126663243Y-77563836D01*
X126693344Y-77537754D01*
X126696656Y-77535712D01*
X126820712Y-77411656D01*
X126820716Y-77411649D01*
X126824322Y-77407090D01*
X126881344Y-77366713D01*
X126921589Y-77360000D01*
X154749613Y-77360000D01*
X154816652Y-77379685D01*
X154837294Y-77396319D01*
X159402181Y-81961205D01*
X159435666Y-82022528D01*
X159438500Y-82048886D01*
X159438500Y-83381001D01*
X159438501Y-83381018D01*
X159449000Y-83483796D01*
X159449001Y-83483799D01*
X159495194Y-83623197D01*
X159504186Y-83650334D01*
X159596288Y-83799656D01*
X159720344Y-83923712D01*
X159869666Y-84015814D01*
X160036203Y-84070999D01*
X160138991Y-84081500D01*
X161539008Y-84081499D01*
X161641797Y-84070999D01*
X161808334Y-84015814D01*
X161957656Y-83923712D01*
X162081712Y-83799656D01*
X162173814Y-83650334D01*
X162228999Y-83483797D01*
X162239500Y-83381009D01*
X162239500Y-83209500D01*
X162259185Y-83142461D01*
X162311989Y-83096706D01*
X162363500Y-83085500D01*
X162698554Y-83085500D01*
X162698574Y-83085501D01*
X162704688Y-83085501D01*
X162859426Y-83085501D01*
X162859446Y-83085500D01*
X163018719Y-83085500D01*
X163085758Y-83105185D01*
X163106400Y-83121819D01*
X164082290Y-84097709D01*
X164933600Y-84949018D01*
X164967085Y-85010341D01*
X164962101Y-85080033D01*
X164920229Y-85135966D01*
X164870112Y-85158316D01*
X164826614Y-85166968D01*
X164826609Y-85166970D01*
X164762243Y-85193632D01*
X164762242Y-85193632D01*
X164712417Y-85214269D01*
X164712405Y-85214276D01*
X164650013Y-85255966D01*
X164650012Y-85255967D01*
X164609633Y-85282946D01*
X162623398Y-87269181D01*
X162562075Y-87302666D01*
X162535717Y-87305500D01*
X161873998Y-87305500D01*
X161873980Y-87305501D01*
X161771203Y-87316000D01*
X161771200Y-87316001D01*
X161604668Y-87371185D01*
X161604663Y-87371187D01*
X161455342Y-87463289D01*
X161331289Y-87587342D01*
X161239187Y-87736663D01*
X161239185Y-87736668D01*
X161221540Y-87789917D01*
X161184001Y-87903203D01*
X161184001Y-87903204D01*
X161184000Y-87903204D01*
X161173500Y-88005983D01*
X161173500Y-88577915D01*
X161153815Y-88644954D01*
X161137181Y-88665596D01*
X159483269Y-90319507D01*
X159483266Y-90319510D01*
X159431764Y-90396588D01*
X159431765Y-90396589D01*
X159407642Y-90432692D01*
X159355556Y-90558438D01*
X159355553Y-90558448D01*
X159329000Y-90691939D01*
X159329000Y-95165500D01*
X159309315Y-95232539D01*
X159256511Y-95278294D01*
X159205000Y-95289500D01*
X151137824Y-95289500D01*
X151070785Y-95269815D01*
X151032285Y-95230596D01*
X151006514Y-95188815D01*
X150950712Y-95098344D01*
X150826656Y-94974288D01*
X150695335Y-94893289D01*
X150677336Y-94882187D01*
X150677331Y-94882185D01*
X150675862Y-94881698D01*
X150510797Y-94827001D01*
X150510795Y-94827000D01*
X150408010Y-94816500D01*
X149057998Y-94816500D01*
X149057981Y-94816501D01*
X148955203Y-94827000D01*
X148955200Y-94827001D01*
X148788668Y-94882185D01*
X148788663Y-94882187D01*
X148639342Y-94974289D01*
X148515290Y-95098341D01*
X148515288Y-95098343D01*
X148515288Y-95098344D01*
X148483674Y-95149598D01*
X148431728Y-95196321D01*
X148378137Y-95208500D01*
X143407824Y-95208500D01*
X143340785Y-95188815D01*
X143302285Y-95149596D01*
X143301175Y-95147797D01*
X143220712Y-95017344D01*
X143096656Y-94893288D01*
X142947334Y-94801186D01*
X142947332Y-94801185D01*
X142947330Y-94801184D01*
X142947329Y-94801183D01*
X142890495Y-94782350D01*
X142833050Y-94742577D01*
X142806228Y-94678061D01*
X142805500Y-94664645D01*
X142805500Y-94087638D01*
X142825185Y-94020599D01*
X142877989Y-93974844D01*
X142890488Y-93969935D01*
X142972334Y-93942814D01*
X143121656Y-93850712D01*
X143245712Y-93726656D01*
X143337814Y-93577334D01*
X143392999Y-93410797D01*
X143403500Y-93308009D01*
X143403499Y-92532992D01*
X143401569Y-92514103D01*
X143392999Y-92430203D01*
X143392998Y-92430200D01*
X143380129Y-92391365D01*
X143337814Y-92263666D01*
X143245712Y-92114344D01*
X143121656Y-91990288D01*
X143118342Y-91988243D01*
X143116546Y-91986248D01*
X143115989Y-91985807D01*
X143116064Y-91985711D01*
X143071618Y-91936297D01*
X143060397Y-91867334D01*
X143088240Y-91803252D01*
X143118348Y-91777165D01*
X143121342Y-91775318D01*
X143245315Y-91651345D01*
X143337356Y-91502124D01*
X143337358Y-91502119D01*
X143392505Y-91335697D01*
X143392506Y-91335690D01*
X143402999Y-91232986D01*
X143403000Y-91232973D01*
X143403000Y-91095500D01*
X140953001Y-91095500D01*
X140953001Y-91232986D01*
X140963494Y-91335697D01*
X141018641Y-91502119D01*
X141018643Y-91502124D01*
X141110684Y-91651345D01*
X141234655Y-91775316D01*
X141234659Y-91775319D01*
X141237656Y-91777168D01*
X141239279Y-91778972D01*
X141240323Y-91779798D01*
X141240181Y-91779976D01*
X141284381Y-91829116D01*
X141295602Y-91898079D01*
X141267759Y-91962161D01*
X141237661Y-91988241D01*
X141234349Y-91990283D01*
X141234343Y-91990288D01*
X141110289Y-92114342D01*
X141018187Y-92263663D01*
X141018185Y-92263668D01*
X141009564Y-92289684D01*
X140963001Y-92430203D01*
X140963001Y-92430204D01*
X140963000Y-92430204D01*
X140952500Y-92532983D01*
X140952500Y-93308001D01*
X140952501Y-93308019D01*
X140963000Y-93410796D01*
X140963001Y-93410799D01*
X140993956Y-93504214D01*
X141018186Y-93577334D01*
X141110288Y-93726656D01*
X141234344Y-93850712D01*
X141383666Y-93942814D01*
X141465505Y-93969932D01*
X141522949Y-94009705D01*
X141549772Y-94074220D01*
X141550500Y-94087638D01*
X141550500Y-94664645D01*
X141530815Y-94731684D01*
X141478011Y-94777439D01*
X141465505Y-94782350D01*
X141408670Y-94801183D01*
X141408669Y-94801184D01*
X141259342Y-94893289D01*
X141135289Y-95017342D01*
X141043187Y-95166663D01*
X141043185Y-95166668D01*
X141026402Y-95217317D01*
X140988001Y-95333203D01*
X140988001Y-95333204D01*
X140988000Y-95333204D01*
X140977500Y-95435983D01*
X140977500Y-95572882D01*
X140957815Y-95639921D01*
X140905011Y-95685676D01*
X140835853Y-95695620D01*
X140827037Y-95693661D01*
X140827010Y-95693802D01*
X140699807Y-95668500D01*
X140699803Y-95668500D01*
X137311824Y-95668500D01*
X137244785Y-95648815D01*
X137206285Y-95609596D01*
X137175877Y-95560297D01*
X137124712Y-95477344D01*
X137031049Y-95383681D01*
X136997564Y-95322358D01*
X137002548Y-95252666D01*
X137031049Y-95208319D01*
X137073868Y-95165500D01*
X137124712Y-95114656D01*
X137216814Y-94965334D01*
X137271999Y-94798797D01*
X137282500Y-94696009D01*
X137282499Y-93895992D01*
X137277873Y-93850710D01*
X137271999Y-93793203D01*
X137271998Y-93793200D01*
X137247580Y-93719511D01*
X137216814Y-93626666D01*
X137124712Y-93477344D01*
X137000656Y-93353288D01*
X136903879Y-93293596D01*
X136851336Y-93261187D01*
X136851335Y-93261186D01*
X136851334Y-93261186D01*
X136752494Y-93228433D01*
X136695051Y-93188661D01*
X136668228Y-93124145D01*
X136667500Y-93110728D01*
X136667500Y-92006353D01*
X136687185Y-91939314D01*
X136739989Y-91893559D01*
X136752482Y-91888652D01*
X136809334Y-91869814D01*
X136958656Y-91777712D01*
X137082712Y-91653656D01*
X137174814Y-91504334D01*
X137229999Y-91337797D01*
X137240500Y-91235009D01*
X137240499Y-90458013D01*
X140953000Y-90458013D01*
X140953000Y-90595500D01*
X141928000Y-90595500D01*
X142428000Y-90595500D01*
X143402999Y-90595500D01*
X143402999Y-90458028D01*
X143402998Y-90458013D01*
X143392505Y-90355302D01*
X143337358Y-90188880D01*
X143337356Y-90188875D01*
X143245315Y-90039654D01*
X143121345Y-89915684D01*
X142972124Y-89823643D01*
X142972119Y-89823641D01*
X142805697Y-89768494D01*
X142805690Y-89768493D01*
X142702986Y-89758000D01*
X142428000Y-89758000D01*
X142428000Y-90595500D01*
X141928000Y-90595500D01*
X141928000Y-89758000D01*
X141653029Y-89758000D01*
X141653012Y-89758001D01*
X141550302Y-89768494D01*
X141383880Y-89823641D01*
X141383875Y-89823643D01*
X141234654Y-89915684D01*
X141110684Y-90039654D01*
X141018643Y-90188875D01*
X141018641Y-90188880D01*
X140963494Y-90355302D01*
X140963493Y-90355309D01*
X140953000Y-90458013D01*
X137240499Y-90458013D01*
X137240499Y-90434992D01*
X137236160Y-90392520D01*
X137229999Y-90332203D01*
X137229998Y-90332200D01*
X137198390Y-90236815D01*
X137174814Y-90165666D01*
X137082712Y-90016344D01*
X136988695Y-89922327D01*
X136955210Y-89861004D01*
X136960194Y-89791312D01*
X136988695Y-89746964D01*
X137082317Y-89653342D01*
X137174356Y-89504124D01*
X137174358Y-89504119D01*
X137229505Y-89337697D01*
X137229506Y-89337690D01*
X137239999Y-89234986D01*
X137240000Y-89234973D01*
X137240000Y-89085000D01*
X134840001Y-89085000D01*
X134840001Y-89234986D01*
X134850494Y-89337697D01*
X134905641Y-89504119D01*
X134905643Y-89504124D01*
X134997684Y-89653345D01*
X135091304Y-89746965D01*
X135124789Y-89808288D01*
X135119805Y-89877980D01*
X135091305Y-89922327D01*
X134997286Y-90016346D01*
X134936315Y-90115197D01*
X134919595Y-90142306D01*
X134915715Y-90148596D01*
X134863767Y-90195321D01*
X134810176Y-90207500D01*
X133564281Y-90207500D01*
X133497242Y-90187815D01*
X133476600Y-90171181D01*
X133286852Y-89981433D01*
X133253367Y-89920110D01*
X133251314Y-89907648D01*
X133246368Y-89863745D01*
X133186789Y-89693478D01*
X133090816Y-89540738D01*
X132963262Y-89413184D01*
X132948114Y-89403666D01*
X132810520Y-89317209D01*
X132792100Y-89310764D01*
X132735325Y-89270042D01*
X132709578Y-89205089D01*
X132723035Y-89136528D01*
X132745372Y-89106045D01*
X133416404Y-88435013D01*
X134840000Y-88435013D01*
X134840000Y-88585000D01*
X135790000Y-88585000D01*
X136290000Y-88585000D01*
X137239999Y-88585000D01*
X137239999Y-88435028D01*
X137239998Y-88435013D01*
X137229505Y-88332302D01*
X137174358Y-88165880D01*
X137174356Y-88165875D01*
X137082315Y-88016654D01*
X136958345Y-87892684D01*
X136809124Y-87800643D01*
X136809119Y-87800641D01*
X136642697Y-87745494D01*
X136642690Y-87745493D01*
X136539986Y-87735000D01*
X136290000Y-87735000D01*
X136290000Y-88585000D01*
X135790000Y-88585000D01*
X135790000Y-87735000D01*
X135540029Y-87735000D01*
X135540012Y-87735001D01*
X135437302Y-87745494D01*
X135270880Y-87800641D01*
X135270875Y-87800643D01*
X135121654Y-87892684D01*
X134997684Y-88016654D01*
X134905643Y-88165875D01*
X134905641Y-88165880D01*
X134850494Y-88332302D01*
X134850493Y-88332309D01*
X134840000Y-88435013D01*
X133416404Y-88435013D01*
X135959600Y-85891818D01*
X136020923Y-85858333D01*
X136047281Y-85855499D01*
X136709002Y-85855499D01*
X136709008Y-85855499D01*
X136811797Y-85844999D01*
X136978334Y-85789814D01*
X137127656Y-85697712D01*
X137251712Y-85573656D01*
X137343814Y-85424334D01*
X137398999Y-85257797D01*
X137409500Y-85155009D01*
X137409499Y-84354992D01*
X137408268Y-84342945D01*
X137398999Y-84252203D01*
X137398998Y-84252200D01*
X137395313Y-84241079D01*
X137343814Y-84085666D01*
X137251712Y-83936344D01*
X137158049Y-83842681D01*
X137124564Y-83781358D01*
X137129548Y-83711666D01*
X137158049Y-83667319D01*
X137202171Y-83623197D01*
X137251712Y-83573656D01*
X137343814Y-83424334D01*
X137398999Y-83257797D01*
X137409500Y-83155009D01*
X137409499Y-82354992D01*
X137398999Y-82252203D01*
X137343814Y-82085666D01*
X137251712Y-81936344D01*
X137127656Y-81812288D01*
X136978334Y-81720186D01*
X136811797Y-81665001D01*
X136811795Y-81665000D01*
X136709010Y-81654500D01*
X135708998Y-81654500D01*
X135708980Y-81654501D01*
X135606203Y-81665000D01*
X135606200Y-81665001D01*
X135439668Y-81720185D01*
X135439663Y-81720187D01*
X135290342Y-81812289D01*
X135166287Y-81936344D01*
X135084715Y-82068596D01*
X135032767Y-82115321D01*
X134979176Y-82127500D01*
X124958192Y-82127500D01*
X124836973Y-82151611D01*
X124836973Y-82151612D01*
X124836970Y-82151613D01*
X124836966Y-82151614D01*
X124770070Y-82179323D01*
X124770068Y-82179323D01*
X124722768Y-82198916D01*
X124722764Y-82198918D01*
X124650857Y-82246965D01*
X124643192Y-82252087D01*
X124619989Y-82267590D01*
X124619988Y-82267591D01*
X123650400Y-83237181D01*
X123589077Y-83270666D01*
X123562719Y-83273500D01*
X122753272Y-83273500D01*
X122640764Y-83288313D01*
X122640763Y-83288313D01*
X122500770Y-83346300D01*
X122500767Y-83346301D01*
X122500767Y-83346302D01*
X122380549Y-83438549D01*
X122292665Y-83553082D01*
X122288300Y-83558770D01*
X122230313Y-83698763D01*
X122230313Y-83698764D01*
X122215500Y-83811272D01*
X122215500Y-84336727D01*
X122230313Y-84449235D01*
X122230313Y-84449236D01*
X122288301Y-84589233D01*
X122322279Y-84633514D01*
X122347473Y-84698684D01*
X122333434Y-84767129D01*
X122322279Y-84784486D01*
X122288301Y-84828766D01*
X122230313Y-84968763D01*
X122230313Y-84968764D01*
X122215500Y-85081272D01*
X122215500Y-85606727D01*
X122230313Y-85719235D01*
X122230314Y-85719239D01*
X122260489Y-85792089D01*
X122267958Y-85861558D01*
X122236682Y-85924037D01*
X122176593Y-85959689D01*
X122106768Y-85957195D01*
X122104974Y-85956583D01*
X122102257Y-85955632D01*
X122102249Y-85955630D01*
X121923004Y-85935435D01*
X121922996Y-85935435D01*
X121743750Y-85955630D01*
X121743745Y-85955631D01*
X121573476Y-86015211D01*
X121420737Y-86111184D01*
X121293184Y-86238737D01*
X121197211Y-86391476D01*
X121137631Y-86561745D01*
X121137630Y-86561750D01*
X121117435Y-86740996D01*
X121117435Y-86741003D01*
X121137630Y-86920249D01*
X121137631Y-86920254D01*
X121197214Y-87090532D01*
X121199294Y-87094851D01*
X121210642Y-87163793D01*
X121182916Y-87227926D01*
X121175252Y-87236327D01*
X119002400Y-89409181D01*
X118941077Y-89442666D01*
X118914719Y-89445500D01*
X118727824Y-89445500D01*
X118660785Y-89425815D01*
X118622285Y-89386596D01*
X118601129Y-89352297D01*
X118540712Y-89254344D01*
X118447049Y-89160681D01*
X118413564Y-89099358D01*
X118418548Y-89029666D01*
X118447049Y-88985319D01*
X118540712Y-88891656D01*
X118632814Y-88742334D01*
X118687999Y-88575797D01*
X118698500Y-88473009D01*
X118698499Y-87672992D01*
X118687999Y-87570203D01*
X118632814Y-87403666D01*
X118540712Y-87254344D01*
X118416656Y-87130288D01*
X118267334Y-87038186D01*
X118267332Y-87038185D01*
X118267330Y-87038184D01*
X118267329Y-87038183D01*
X118210495Y-87019350D01*
X118153050Y-86979577D01*
X118126228Y-86915061D01*
X118125500Y-86901645D01*
X118125500Y-86418353D01*
X118145185Y-86351314D01*
X118197989Y-86305559D01*
X118210482Y-86300652D01*
X118267334Y-86281814D01*
X118416656Y-86189712D01*
X118540712Y-86065656D01*
X118632814Y-85916334D01*
X118687999Y-85749797D01*
X118698500Y-85647009D01*
X118698499Y-84846992D01*
X118687999Y-84744203D01*
X118632814Y-84577666D01*
X118540712Y-84428344D01*
X118446695Y-84334327D01*
X118413210Y-84273004D01*
X118418194Y-84203312D01*
X118446695Y-84158964D01*
X118540317Y-84065342D01*
X118632356Y-83916124D01*
X118632358Y-83916119D01*
X118687505Y-83749697D01*
X118687506Y-83749690D01*
X118697999Y-83646986D01*
X118698000Y-83646973D01*
X118698000Y-83497000D01*
X117622000Y-83497000D01*
X117554961Y-83477315D01*
X117509206Y-83424511D01*
X117498000Y-83373000D01*
X117498000Y-83247000D01*
X117372000Y-83247000D01*
X117304961Y-83227315D01*
X117259206Y-83174511D01*
X117248000Y-83123000D01*
X117248000Y-82997000D01*
X117748000Y-82997000D01*
X118697999Y-82997000D01*
X118697999Y-82847028D01*
X118697998Y-82847013D01*
X118687505Y-82744302D01*
X118632358Y-82577880D01*
X118632356Y-82577875D01*
X118540315Y-82428654D01*
X118416345Y-82304684D01*
X118267124Y-82212643D01*
X118267119Y-82212641D01*
X118100697Y-82157494D01*
X118100690Y-82157493D01*
X117997986Y-82147000D01*
X117748000Y-82147000D01*
X117748000Y-82997000D01*
X117248000Y-82997000D01*
X117248000Y-82147000D01*
X116998029Y-82147000D01*
X116998012Y-82147001D01*
X116895302Y-82157494D01*
X116728880Y-82212641D01*
X116728875Y-82212643D01*
X116579654Y-82304684D01*
X116455684Y-82428654D01*
X116363643Y-82577875D01*
X116363641Y-82577880D01*
X116308494Y-82744302D01*
X116308493Y-82744309D01*
X116298000Y-82847013D01*
X116298000Y-82860219D01*
X116278315Y-82927258D01*
X116225511Y-82973013D01*
X116156353Y-82982957D01*
X116092797Y-82953932D01*
X116086319Y-82947900D01*
X115344819Y-82206400D01*
X115311334Y-82145077D01*
X115308500Y-82118719D01*
X115308500Y-80210986D01*
X116146001Y-80210986D01*
X116156494Y-80313697D01*
X116211641Y-80480119D01*
X116211643Y-80480124D01*
X116303684Y-80629345D01*
X116427654Y-80753315D01*
X116576875Y-80845356D01*
X116576880Y-80845358D01*
X116743302Y-80900505D01*
X116743309Y-80900506D01*
X116846019Y-80910999D01*
X117120999Y-80910999D01*
X117621000Y-80910999D01*
X117895972Y-80910999D01*
X117895986Y-80910998D01*
X117998697Y-80900505D01*
X118165119Y-80845358D01*
X118165124Y-80845356D01*
X118314345Y-80753315D01*
X118438315Y-80629345D01*
X118530356Y-80480124D01*
X118530358Y-80480119D01*
X118585505Y-80313697D01*
X118585506Y-80313690D01*
X118595999Y-80210986D01*
X118596000Y-80210973D01*
X118596000Y-80073500D01*
X117621000Y-80073500D01*
X117621000Y-80910999D01*
X117120999Y-80910999D01*
X117121000Y-80910998D01*
X117121000Y-80073500D01*
X116146001Y-80073500D01*
X116146001Y-80210986D01*
X115308500Y-80210986D01*
X115308500Y-79051281D01*
X115328185Y-78984242D01*
X115344819Y-78963600D01*
X115896100Y-78412319D01*
X115957423Y-78378834D01*
X115983781Y-78376000D01*
X116123886Y-78376000D01*
X116190925Y-78395685D01*
X116229424Y-78434903D01*
X116303288Y-78554656D01*
X116427344Y-78678712D01*
X116430628Y-78680737D01*
X116430653Y-78680753D01*
X116432445Y-78682746D01*
X116433011Y-78683193D01*
X116432934Y-78683289D01*
X116477379Y-78732699D01*
X116488603Y-78801661D01*
X116460761Y-78865744D01*
X116430665Y-78891826D01*
X116427660Y-78893679D01*
X116427655Y-78893683D01*
X116303684Y-79017654D01*
X116211643Y-79166875D01*
X116211641Y-79166880D01*
X116156494Y-79333302D01*
X116156493Y-79333309D01*
X116146000Y-79436013D01*
X116146000Y-79573500D01*
X118595999Y-79573500D01*
X118595999Y-79436028D01*
X118595998Y-79436013D01*
X118585505Y-79333302D01*
X118530358Y-79166880D01*
X118530356Y-79166875D01*
X118465968Y-79062486D01*
X120798001Y-79062486D01*
X120808494Y-79165197D01*
X120863641Y-79331619D01*
X120863643Y-79331624D01*
X120955684Y-79480845D01*
X121079654Y-79604815D01*
X121228875Y-79696856D01*
X121228880Y-79696858D01*
X121395302Y-79752005D01*
X121395309Y-79752006D01*
X121498019Y-79762499D01*
X121772999Y-79762499D01*
X122273000Y-79762499D01*
X122547972Y-79762499D01*
X122547986Y-79762498D01*
X122650697Y-79752005D01*
X122817119Y-79696858D01*
X122817124Y-79696856D01*
X122966345Y-79604815D01*
X123090315Y-79480845D01*
X123182356Y-79331624D01*
X123182358Y-79331619D01*
X123237505Y-79165197D01*
X123237506Y-79165190D01*
X123247437Y-79067986D01*
X124528001Y-79067986D01*
X124538494Y-79170697D01*
X124593641Y-79337119D01*
X124593643Y-79337124D01*
X124685684Y-79486345D01*
X124809654Y-79610315D01*
X124958875Y-79702356D01*
X124958880Y-79702358D01*
X125125302Y-79757505D01*
X125125309Y-79757506D01*
X125228019Y-79767999D01*
X125502999Y-79767999D01*
X126003000Y-79767999D01*
X126277972Y-79767999D01*
X126277986Y-79767998D01*
X126380697Y-79757505D01*
X126547119Y-79702358D01*
X126547124Y-79702356D01*
X126696345Y-79610315D01*
X126820315Y-79486345D01*
X126912356Y-79337124D01*
X126912358Y-79337119D01*
X126967505Y-79170697D01*
X126967506Y-79170690D01*
X126977999Y-79067986D01*
X126978000Y-79067973D01*
X126978000Y-78930500D01*
X126003000Y-78930500D01*
X126003000Y-79767999D01*
X125502999Y-79767999D01*
X125503000Y-79767998D01*
X125503000Y-78930500D01*
X124528001Y-78930500D01*
X124528001Y-79067986D01*
X123247437Y-79067986D01*
X123247999Y-79062486D01*
X123248000Y-79062473D01*
X123248000Y-78925000D01*
X122273000Y-78925000D01*
X122273000Y-79762499D01*
X121772999Y-79762499D01*
X121773000Y-79762498D01*
X121773000Y-78925000D01*
X120798001Y-78925000D01*
X120798001Y-79062486D01*
X118465968Y-79062486D01*
X118438315Y-79017654D01*
X118314344Y-78893683D01*
X118314341Y-78893681D01*
X118311339Y-78891829D01*
X118309713Y-78890021D01*
X118308677Y-78889202D01*
X118308817Y-78889024D01*
X118264617Y-78839880D01*
X118253397Y-78770917D01*
X118281243Y-78706836D01*
X118311344Y-78680754D01*
X118314656Y-78678712D01*
X118438712Y-78554656D01*
X118530814Y-78405334D01*
X118585999Y-78238797D01*
X118596500Y-78136009D01*
X118596499Y-77360992D01*
X118591494Y-77312000D01*
X118585999Y-77258203D01*
X118585998Y-77258200D01*
X118567224Y-77201544D01*
X118530814Y-77091666D01*
X118438712Y-76942344D01*
X118314656Y-76818288D01*
X118165334Y-76726186D01*
X118113346Y-76708958D01*
X118083495Y-76699067D01*
X118026050Y-76659293D01*
X117999228Y-76594777D01*
X117998500Y-76581361D01*
X117998500Y-75623353D01*
X118018185Y-75556314D01*
X118070989Y-75510559D01*
X118083482Y-75505652D01*
X118140334Y-75486814D01*
X118289656Y-75394712D01*
X118413712Y-75270656D01*
X118505814Y-75121334D01*
X118560999Y-74954797D01*
X118571500Y-74852009D01*
X118571499Y-74839284D01*
X118591179Y-74772247D01*
X118643980Y-74726489D01*
X118713138Y-74716541D01*
X118776696Y-74745562D01*
G37*
%TD.AperFunction*%
%TA.AperFunction,Conductor*%
G36*
X171736049Y-77665354D02*
G01*
X171746953Y-77677938D01*
X171794128Y-77740407D01*
X171951698Y-77884052D01*
X172132981Y-77996298D01*
X172331802Y-78073321D01*
X172541390Y-78112500D01*
X172541392Y-78112500D01*
X172754611Y-78112500D01*
X172754611Y-78112499D01*
X172822187Y-78099867D01*
X172891702Y-78106897D01*
X172932655Y-78134074D01*
X176266166Y-81467585D01*
X176299651Y-81528908D01*
X176296191Y-81594268D01*
X176276001Y-81655198D01*
X176265500Y-81757983D01*
X176265500Y-81757991D01*
X176265500Y-82368197D01*
X176265501Y-82933500D01*
X176245816Y-83000539D01*
X176193013Y-83046294D01*
X176141501Y-83057500D01*
X176093885Y-83057500D01*
X175972660Y-83081613D01*
X175972651Y-83081616D01*
X175968446Y-83083358D01*
X175898976Y-83090822D01*
X175836499Y-83059544D01*
X175800850Y-82999453D01*
X175797000Y-82968794D01*
X175797000Y-82708000D01*
X174297000Y-82708000D01*
X174297000Y-83857999D01*
X175096972Y-83857999D01*
X175096986Y-83857998D01*
X175199695Y-83847506D01*
X175365185Y-83792667D01*
X175435014Y-83790265D01*
X175495056Y-83825996D01*
X175526249Y-83888517D01*
X175528190Y-83910373D01*
X175528190Y-84010028D01*
X175508505Y-84077067D01*
X175491871Y-84097709D01*
X174690432Y-84899147D01*
X174629109Y-84932632D01*
X174616637Y-84934686D01*
X174572745Y-84939632D01*
X174402478Y-84999210D01*
X174249737Y-85095184D01*
X174122184Y-85222737D01*
X174122182Y-85222740D01*
X174074603Y-85298461D01*
X174022268Y-85344752D01*
X173953215Y-85355399D01*
X173903638Y-85337482D01*
X173844000Y-85300009D01*
X173769522Y-85253211D01*
X173756908Y-85248797D01*
X173599254Y-85193631D01*
X173599249Y-85193630D01*
X173420004Y-85173435D01*
X173419996Y-85173435D01*
X173240750Y-85193630D01*
X173240745Y-85193631D01*
X173070476Y-85253211D01*
X172917737Y-85349184D01*
X172790184Y-85476737D01*
X172694210Y-85629478D01*
X172634632Y-85799745D01*
X172629686Y-85843637D01*
X172602618Y-85908051D01*
X172594147Y-85917432D01*
X171725181Y-86786399D01*
X171663858Y-86819884D01*
X171594167Y-86814900D01*
X171538233Y-86773028D01*
X171513816Y-86707564D01*
X171513500Y-86698718D01*
X171513500Y-83754230D01*
X171533185Y-83687191D01*
X171549819Y-83666549D01*
X171593171Y-83623197D01*
X171639712Y-83576656D01*
X171731814Y-83427334D01*
X171786999Y-83260797D01*
X171797500Y-83158009D01*
X171797500Y-83157986D01*
X172297001Y-83157986D01*
X172307494Y-83260697D01*
X172362641Y-83427119D01*
X172362643Y-83427124D01*
X172454684Y-83576345D01*
X172578654Y-83700315D01*
X172727875Y-83792356D01*
X172727880Y-83792358D01*
X172894302Y-83847505D01*
X172894309Y-83847506D01*
X172997019Y-83857999D01*
X173796999Y-83857999D01*
X173797000Y-83857998D01*
X173797000Y-82708000D01*
X172297001Y-82708000D01*
X172297001Y-83157986D01*
X171797500Y-83157986D01*
X171797499Y-81758013D01*
X172297000Y-81758013D01*
X172297000Y-82208000D01*
X173797000Y-82208000D01*
X174297000Y-82208000D01*
X175796999Y-82208000D01*
X175796999Y-81758028D01*
X175796998Y-81758013D01*
X175786505Y-81655302D01*
X175731358Y-81488880D01*
X175731356Y-81488875D01*
X175639315Y-81339654D01*
X175515345Y-81215684D01*
X175366124Y-81123643D01*
X175366119Y-81123641D01*
X175199697Y-81068494D01*
X175199690Y-81068493D01*
X175096986Y-81058000D01*
X174297000Y-81058000D01*
X174297000Y-82208000D01*
X173797000Y-82208000D01*
X173797000Y-81058000D01*
X172997028Y-81058000D01*
X172997012Y-81058001D01*
X172894302Y-81068494D01*
X172727880Y-81123641D01*
X172727875Y-81123643D01*
X172578654Y-81215684D01*
X172454684Y-81339654D01*
X172362643Y-81488875D01*
X172362641Y-81488880D01*
X172307494Y-81655302D01*
X172307493Y-81655309D01*
X172297000Y-81758013D01*
X171797499Y-81758013D01*
X171797499Y-81757992D01*
X171786999Y-81655203D01*
X171731814Y-81488666D01*
X171639712Y-81339344D01*
X171515656Y-81215288D01*
X171366334Y-81123186D01*
X171366332Y-81123185D01*
X171366330Y-81123184D01*
X171360491Y-81121249D01*
X171303048Y-81081474D01*
X171276227Y-81016957D01*
X171275500Y-81003545D01*
X171275500Y-77995719D01*
X171295185Y-77928680D01*
X171334226Y-77890290D01*
X171344302Y-77884052D01*
X171501872Y-77740407D01*
X171549046Y-77677938D01*
X171605155Y-77636303D01*
X171674867Y-77631612D01*
X171736049Y-77665354D01*
G37*
%TD.AperFunction*%
%TA.AperFunction,Conductor*%
G36*
X193490785Y-67583824D02*
G01*
X193536669Y-67636516D01*
X193548000Y-67688302D01*
X193548000Y-120017696D01*
X193528315Y-120084735D01*
X193475511Y-120130490D01*
X193423698Y-120141696D01*
X89531397Y-119888300D01*
X89464405Y-119868452D01*
X89418779Y-119815536D01*
X89407699Y-119764602D01*
X89399787Y-116520619D01*
X89399131Y-116251486D01*
X92120001Y-116251486D01*
X92130494Y-116354197D01*
X92185641Y-116520619D01*
X92185643Y-116520624D01*
X92277684Y-116669845D01*
X92401654Y-116793815D01*
X92550875Y-116885856D01*
X92550880Y-116885858D01*
X92717302Y-116941005D01*
X92717309Y-116941006D01*
X92820019Y-116951499D01*
X93094999Y-116951499D01*
X93595000Y-116951499D01*
X93869972Y-116951499D01*
X93869986Y-116951498D01*
X93972697Y-116941005D01*
X94139119Y-116885858D01*
X94139124Y-116885856D01*
X94288345Y-116793815D01*
X94412315Y-116669845D01*
X94504356Y-116520624D01*
X94504358Y-116520619D01*
X94559505Y-116354197D01*
X94559506Y-116354190D01*
X94569999Y-116251486D01*
X95958001Y-116251486D01*
X95968494Y-116354197D01*
X96023641Y-116520619D01*
X96023643Y-116520624D01*
X96115684Y-116669845D01*
X96239654Y-116793815D01*
X96388875Y-116885856D01*
X96388880Y-116885858D01*
X96555302Y-116941005D01*
X96555309Y-116941006D01*
X96658019Y-116951499D01*
X96932999Y-116951499D01*
X97433000Y-116951499D01*
X97707972Y-116951499D01*
X97707986Y-116951498D01*
X97810697Y-116941005D01*
X97977119Y-116885858D01*
X97977124Y-116885856D01*
X98126345Y-116793815D01*
X98250315Y-116669845D01*
X98342356Y-116520624D01*
X98342358Y-116520619D01*
X98397505Y-116354197D01*
X98397506Y-116354190D01*
X98407999Y-116251486D01*
X98408000Y-116251473D01*
X98408000Y-116211486D01*
X99613001Y-116211486D01*
X99623494Y-116314197D01*
X99678641Y-116480619D01*
X99678643Y-116480624D01*
X99770684Y-116629845D01*
X99894654Y-116753815D01*
X100043875Y-116845856D01*
X100043880Y-116845858D01*
X100210302Y-116901005D01*
X100210309Y-116901006D01*
X100313019Y-116911499D01*
X100587999Y-116911499D01*
X101088000Y-116911499D01*
X101362972Y-116911499D01*
X101362986Y-116911498D01*
X101465697Y-116901005D01*
X101632119Y-116845858D01*
X101632124Y-116845856D01*
X101781345Y-116753815D01*
X101905315Y-116629845D01*
X101997356Y-116480624D01*
X101997358Y-116480619D01*
X102052505Y-116314197D01*
X102052506Y-116314190D01*
X102062999Y-116211486D01*
X103804001Y-116211486D01*
X103814494Y-116314197D01*
X103869641Y-116480619D01*
X103869643Y-116480624D01*
X103961684Y-116629845D01*
X104085654Y-116753815D01*
X104234875Y-116845856D01*
X104234880Y-116845858D01*
X104401302Y-116901005D01*
X104401309Y-116901006D01*
X104504019Y-116911499D01*
X104778999Y-116911499D01*
X105279000Y-116911499D01*
X105553972Y-116911499D01*
X105553986Y-116911498D01*
X105656697Y-116901005D01*
X105823119Y-116845858D01*
X105823124Y-116845856D01*
X105972345Y-116753815D01*
X106096315Y-116629845D01*
X106188356Y-116480624D01*
X106188358Y-116480619D01*
X106243505Y-116314197D01*
X106243506Y-116314190D01*
X106253999Y-116211486D01*
X106254000Y-116211473D01*
X106254000Y-116084486D01*
X107741001Y-116084486D01*
X107751494Y-116187197D01*
X107806641Y-116353619D01*
X107806643Y-116353624D01*
X107898684Y-116502845D01*
X108022654Y-116626815D01*
X108171875Y-116718856D01*
X108171880Y-116718858D01*
X108338302Y-116774005D01*
X108338309Y-116774006D01*
X108441019Y-116784499D01*
X108715999Y-116784499D01*
X109216000Y-116784499D01*
X109490972Y-116784499D01*
X109490986Y-116784498D01*
X109593697Y-116774005D01*
X109760119Y-116718858D01*
X109760124Y-116718856D01*
X109909345Y-116626815D01*
X110033315Y-116502845D01*
X110125356Y-116353624D01*
X110125358Y-116353619D01*
X110180505Y-116187197D01*
X110180506Y-116187190D01*
X110190999Y-116084486D01*
X110191000Y-116084473D01*
X110191000Y-115957486D01*
X111678001Y-115957486D01*
X111688494Y-116060197D01*
X111743641Y-116226619D01*
X111743643Y-116226624D01*
X111835684Y-116375845D01*
X111959654Y-116499815D01*
X112108875Y-116591856D01*
X112108880Y-116591858D01*
X112275302Y-116647005D01*
X112275309Y-116647006D01*
X112378019Y-116657499D01*
X112652999Y-116657499D01*
X113153000Y-116657499D01*
X113427972Y-116657499D01*
X113427986Y-116657498D01*
X113530697Y-116647005D01*
X113697119Y-116591858D01*
X113697124Y-116591856D01*
X113846345Y-116499815D01*
X113970315Y-116375845D01*
X114062356Y-116226624D01*
X114062358Y-116226619D01*
X114117505Y-116060197D01*
X114117506Y-116060190D01*
X114127999Y-115957486D01*
X114128000Y-115957473D01*
X114128000Y-115820000D01*
X113153000Y-115820000D01*
X113153000Y-116657499D01*
X112652999Y-116657499D01*
X112653000Y-116657498D01*
X112653000Y-115820000D01*
X111678001Y-115820000D01*
X111678001Y-115957486D01*
X110191000Y-115957486D01*
X110191000Y-115947000D01*
X109216000Y-115947000D01*
X109216000Y-116784499D01*
X108715999Y-116784499D01*
X108716000Y-116784498D01*
X108716000Y-115947000D01*
X107741001Y-115947000D01*
X107741001Y-116084486D01*
X106254000Y-116084486D01*
X106254000Y-116074000D01*
X105279000Y-116074000D01*
X105279000Y-116911499D01*
X104778999Y-116911499D01*
X104779000Y-116911498D01*
X104779000Y-116074000D01*
X103804001Y-116074000D01*
X103804001Y-116211486D01*
X102062999Y-116211486D01*
X102063000Y-116211473D01*
X102063000Y-116074000D01*
X101088000Y-116074000D01*
X101088000Y-116911499D01*
X100587999Y-116911499D01*
X100588000Y-116911498D01*
X100588000Y-116074000D01*
X99613001Y-116074000D01*
X99613001Y-116211486D01*
X98408000Y-116211486D01*
X98408000Y-116114000D01*
X97433000Y-116114000D01*
X97433000Y-116951499D01*
X96932999Y-116951499D01*
X96933000Y-116951498D01*
X96933000Y-116114000D01*
X95958001Y-116114000D01*
X95958001Y-116251486D01*
X94569999Y-116251486D01*
X94570000Y-116251473D01*
X94570000Y-116114000D01*
X93595000Y-116114000D01*
X93595000Y-116951499D01*
X93094999Y-116951499D01*
X93095000Y-116951498D01*
X93095000Y-116114000D01*
X92120001Y-116114000D01*
X92120001Y-116251486D01*
X89399131Y-116251486D01*
X89392179Y-113401483D01*
X92119500Y-113401483D01*
X92119500Y-114176501D01*
X92119501Y-114176519D01*
X92130000Y-114279296D01*
X92130001Y-114279299D01*
X92185185Y-114445831D01*
X92185187Y-114445836D01*
X92206260Y-114480000D01*
X92277288Y-114595156D01*
X92401344Y-114719212D01*
X92404628Y-114721237D01*
X92404653Y-114721253D01*
X92406445Y-114723246D01*
X92407011Y-114723693D01*
X92406934Y-114723789D01*
X92451379Y-114773199D01*
X92462603Y-114842161D01*
X92434761Y-114906244D01*
X92404665Y-114932326D01*
X92401660Y-114934179D01*
X92401655Y-114934183D01*
X92277684Y-115058154D01*
X92185643Y-115207375D01*
X92185641Y-115207380D01*
X92130494Y-115373802D01*
X92130493Y-115373809D01*
X92120000Y-115476513D01*
X92120000Y-115614000D01*
X94569999Y-115614000D01*
X94569999Y-115476528D01*
X94569998Y-115476513D01*
X94559505Y-115373802D01*
X94504358Y-115207380D01*
X94504356Y-115207375D01*
X94412315Y-115058154D01*
X94288344Y-114934183D01*
X94288341Y-114934181D01*
X94285339Y-114932329D01*
X94283713Y-114930521D01*
X94282677Y-114929702D01*
X94282817Y-114929524D01*
X94238617Y-114880380D01*
X94227397Y-114811417D01*
X94255243Y-114747336D01*
X94285344Y-114721254D01*
X94288656Y-114719212D01*
X94412712Y-114595156D01*
X94447409Y-114538901D01*
X94499356Y-114492179D01*
X94552947Y-114480000D01*
X95975053Y-114480000D01*
X96042092Y-114499685D01*
X96080590Y-114538900D01*
X96115288Y-114595156D01*
X96239344Y-114719212D01*
X96242628Y-114721237D01*
X96242653Y-114721253D01*
X96244445Y-114723246D01*
X96245011Y-114723693D01*
X96244934Y-114723789D01*
X96289379Y-114773199D01*
X96300603Y-114842161D01*
X96272761Y-114906244D01*
X96242665Y-114932326D01*
X96239660Y-114934179D01*
X96239655Y-114934183D01*
X96115684Y-115058154D01*
X96023643Y-115207375D01*
X96023641Y-115207380D01*
X95968494Y-115373802D01*
X95968493Y-115373809D01*
X95958000Y-115476513D01*
X95958000Y-115614000D01*
X98407999Y-115614000D01*
X98407999Y-115476528D01*
X98407998Y-115476513D01*
X98397505Y-115373802D01*
X98342358Y-115207380D01*
X98342356Y-115207375D01*
X98250315Y-115058154D01*
X98126344Y-114934183D01*
X98126341Y-114934181D01*
X98123339Y-114932329D01*
X98121713Y-114930521D01*
X98120677Y-114929702D01*
X98120817Y-114929524D01*
X98076617Y-114880380D01*
X98065397Y-114811417D01*
X98093243Y-114747336D01*
X98123344Y-114721254D01*
X98126656Y-114719212D01*
X98250712Y-114595156D01*
X98285409Y-114538901D01*
X98337356Y-114492179D01*
X98390947Y-114480000D01*
X99654725Y-114480000D01*
X99721764Y-114499685D01*
X99760263Y-114538903D01*
X99770288Y-114555156D01*
X99894344Y-114679212D01*
X99897628Y-114681237D01*
X99897653Y-114681253D01*
X99899445Y-114683246D01*
X99900011Y-114683693D01*
X99899934Y-114683789D01*
X99944379Y-114733199D01*
X99955603Y-114802161D01*
X99927761Y-114866244D01*
X99897665Y-114892326D01*
X99894660Y-114894179D01*
X99894655Y-114894183D01*
X99770684Y-115018154D01*
X99678643Y-115167375D01*
X99678641Y-115167380D01*
X99623494Y-115333802D01*
X99623493Y-115333809D01*
X99613000Y-115436513D01*
X99613000Y-115574000D01*
X102062999Y-115574000D01*
X102062999Y-115436528D01*
X102062998Y-115436513D01*
X102052505Y-115333802D01*
X101997358Y-115167380D01*
X101997356Y-115167375D01*
X101905315Y-115018154D01*
X101781344Y-114894183D01*
X101781341Y-114894181D01*
X101778339Y-114892329D01*
X101776713Y-114890521D01*
X101775677Y-114889702D01*
X101775817Y-114889524D01*
X101731617Y-114840380D01*
X101720397Y-114771417D01*
X101748243Y-114707336D01*
X101778344Y-114681254D01*
X101781656Y-114679212D01*
X101905712Y-114555156D01*
X101940409Y-114498901D01*
X101992356Y-114452179D01*
X102045947Y-114440000D01*
X103821053Y-114440000D01*
X103888092Y-114459685D01*
X103926590Y-114498900D01*
X103961288Y-114555156D01*
X104085344Y-114679212D01*
X104088628Y-114681237D01*
X104088653Y-114681253D01*
X104090445Y-114683246D01*
X104091011Y-114683693D01*
X104090934Y-114683789D01*
X104135379Y-114733199D01*
X104146603Y-114802161D01*
X104118761Y-114866244D01*
X104088665Y-114892326D01*
X104085660Y-114894179D01*
X104085655Y-114894183D01*
X103961684Y-115018154D01*
X103869643Y-115167375D01*
X103869641Y-115167380D01*
X103814494Y-115333802D01*
X103814493Y-115333809D01*
X103804000Y-115436513D01*
X103804000Y-115574000D01*
X106253999Y-115574000D01*
X106253999Y-115436528D01*
X106253998Y-115436513D01*
X106243505Y-115333802D01*
X106188358Y-115167380D01*
X106188356Y-115167375D01*
X106096315Y-115018154D01*
X105972344Y-114894183D01*
X105972341Y-114894181D01*
X105969339Y-114892329D01*
X105967713Y-114890521D01*
X105966677Y-114889702D01*
X105966817Y-114889524D01*
X105922617Y-114840380D01*
X105911397Y-114771417D01*
X105939243Y-114707336D01*
X105969344Y-114681254D01*
X105972656Y-114679212D01*
X106096712Y-114555156D01*
X106131409Y-114498901D01*
X106183356Y-114452179D01*
X106236947Y-114440000D01*
X107858770Y-114440000D01*
X107925809Y-114459685D01*
X107946451Y-114476319D01*
X108022344Y-114552212D01*
X108025628Y-114554237D01*
X108025653Y-114554253D01*
X108027445Y-114556246D01*
X108028011Y-114556693D01*
X108027934Y-114556789D01*
X108072379Y-114606199D01*
X108083603Y-114675161D01*
X108055761Y-114739244D01*
X108025665Y-114765326D01*
X108022660Y-114767179D01*
X108022655Y-114767183D01*
X107898684Y-114891154D01*
X107806643Y-115040375D01*
X107806641Y-115040380D01*
X107751494Y-115206802D01*
X107751493Y-115206809D01*
X107741000Y-115309513D01*
X107741000Y-115447000D01*
X110190999Y-115447000D01*
X110190999Y-115309528D01*
X110190998Y-115309513D01*
X110180505Y-115206802D01*
X110125358Y-115040380D01*
X110125356Y-115040375D01*
X110033315Y-114891154D01*
X109909344Y-114767183D01*
X109909341Y-114767181D01*
X109906339Y-114765329D01*
X109904713Y-114763521D01*
X109903677Y-114762702D01*
X109903817Y-114762524D01*
X109859617Y-114713380D01*
X109848397Y-114644417D01*
X109876243Y-114580336D01*
X109906344Y-114554254D01*
X109909656Y-114552212D01*
X110033712Y-114428156D01*
X110068409Y-114371901D01*
X110120356Y-114325179D01*
X110173947Y-114313000D01*
X111795770Y-114313000D01*
X111862809Y-114332685D01*
X111883451Y-114349319D01*
X111959344Y-114425212D01*
X111962628Y-114427237D01*
X111962653Y-114427253D01*
X111964445Y-114429246D01*
X111965011Y-114429693D01*
X111964934Y-114429789D01*
X112009379Y-114479199D01*
X112020603Y-114548161D01*
X111992761Y-114612244D01*
X111962665Y-114638326D01*
X111959660Y-114640179D01*
X111959655Y-114640183D01*
X111835684Y-114764154D01*
X111743643Y-114913375D01*
X111743641Y-114913380D01*
X111688494Y-115079802D01*
X111688493Y-115079809D01*
X111678000Y-115182513D01*
X111678000Y-115320000D01*
X114127999Y-115320000D01*
X114127999Y-115182528D01*
X114127998Y-115182513D01*
X114117505Y-115079802D01*
X114062358Y-114913380D01*
X114062356Y-114913375D01*
X113970315Y-114764154D01*
X113846344Y-114640183D01*
X113846341Y-114640181D01*
X113843339Y-114638329D01*
X113841713Y-114636521D01*
X113840677Y-114635702D01*
X113840817Y-114635524D01*
X113796617Y-114586380D01*
X113785397Y-114517417D01*
X113813243Y-114453336D01*
X113843344Y-114427254D01*
X113846656Y-114425212D01*
X113970712Y-114301156D01*
X114062814Y-114151834D01*
X114117999Y-113985297D01*
X114128500Y-113882509D01*
X114128499Y-113298082D01*
X114148183Y-113231044D01*
X114164813Y-113210407D01*
X117268903Y-110106319D01*
X117330226Y-110072834D01*
X117356584Y-110070000D01*
X117681343Y-110070000D01*
X117748382Y-110089685D01*
X117786880Y-110128900D01*
X117829288Y-110197656D01*
X117829290Y-110197658D01*
X117922951Y-110291319D01*
X117956436Y-110352642D01*
X117951452Y-110422334D01*
X117922951Y-110466681D01*
X117829289Y-110560342D01*
X117737187Y-110709663D01*
X117737185Y-110709668D01*
X117714156Y-110779166D01*
X117682001Y-110876203D01*
X117682001Y-110876204D01*
X117682000Y-110876204D01*
X117671500Y-110978983D01*
X117671500Y-111779001D01*
X117671501Y-111779019D01*
X117682000Y-111881796D01*
X117682001Y-111881799D01*
X117737185Y-112048331D01*
X117737187Y-112048336D01*
X117772069Y-112104888D01*
X117829288Y-112197656D01*
X117953344Y-112321712D01*
X118102666Y-112413814D01*
X118269203Y-112468999D01*
X118371991Y-112479500D01*
X119372008Y-112479499D01*
X119372016Y-112479498D01*
X119372019Y-112479498D01*
X119428302Y-112473748D01*
X119474797Y-112468999D01*
X119641334Y-112413814D01*
X119790656Y-112321712D01*
X119914712Y-112197656D01*
X120006814Y-112048334D01*
X120061999Y-111881797D01*
X120072500Y-111779009D01*
X120072499Y-111117280D01*
X120092183Y-111050242D01*
X120108818Y-111029600D01*
X120403600Y-110734819D01*
X120464923Y-110701334D01*
X120491281Y-110698500D01*
X123473500Y-110698500D01*
X123540539Y-110718185D01*
X123586294Y-110770989D01*
X123597500Y-110822500D01*
X123597500Y-110997047D01*
X123612635Y-111111997D01*
X123612636Y-111112002D01*
X123671882Y-111255036D01*
X123671883Y-111255037D01*
X123766133Y-111377867D01*
X123888963Y-111472117D01*
X123888962Y-111472117D01*
X123952894Y-111498598D01*
X124032001Y-111531365D01*
X124146960Y-111546500D01*
X124146967Y-111546500D01*
X124799033Y-111546500D01*
X124799040Y-111546500D01*
X124913999Y-111531365D01*
X125057037Y-111472117D01*
X125179867Y-111377867D01*
X125274117Y-111255037D01*
X125333365Y-111111999D01*
X125348500Y-110997040D01*
X125348500Y-110744960D01*
X125333365Y-110630001D01*
X125287159Y-110518451D01*
X125279691Y-110448983D01*
X125287160Y-110423548D01*
X125333365Y-110311999D01*
X125348500Y-110197040D01*
X125348500Y-109944960D01*
X125333365Y-109830001D01*
X125305535Y-109762814D01*
X125286890Y-109717799D01*
X125279421Y-109648330D01*
X125286890Y-109622894D01*
X125332879Y-109511867D01*
X125341551Y-109446000D01*
X125024043Y-109446000D01*
X124976591Y-109436561D01*
X124914002Y-109410636D01*
X124914000Y-109410635D01*
X124913999Y-109410635D01*
X124888452Y-109407271D01*
X124799047Y-109395500D01*
X124799040Y-109395500D01*
X124146960Y-109395500D01*
X124146952Y-109395500D01*
X124044774Y-109408953D01*
X124032001Y-109410635D01*
X124032000Y-109410635D01*
X124031997Y-109410636D01*
X123975445Y-109434061D01*
X123927993Y-109443500D01*
X123146124Y-109443500D01*
X123079085Y-109423815D01*
X123033330Y-109371011D01*
X123023386Y-109301853D01*
X123052411Y-109238297D01*
X123105169Y-109202458D01*
X123158522Y-109183789D01*
X123284700Y-109104505D01*
X123350672Y-109085500D01*
X123539055Y-109085500D01*
X123574814Y-109096000D01*
X123921957Y-109096000D01*
X123969409Y-109105439D01*
X124003122Y-109119403D01*
X124032001Y-109131365D01*
X124146960Y-109146500D01*
X124146967Y-109146500D01*
X124799033Y-109146500D01*
X124799040Y-109146500D01*
X124913999Y-109131365D01*
X124957477Y-109113355D01*
X124976591Y-109105439D01*
X125024043Y-109096000D01*
X125341549Y-109096000D01*
X125341550Y-109095998D01*
X125332881Y-109030140D01*
X125332878Y-109030131D01*
X125286890Y-108919105D01*
X125279421Y-108849635D01*
X125286890Y-108824199D01*
X125287430Y-108822896D01*
X125333365Y-108711999D01*
X125348500Y-108597040D01*
X125348500Y-108344960D01*
X125333365Y-108230001D01*
X125287159Y-108118451D01*
X125279691Y-108048983D01*
X125287158Y-108023551D01*
X125333365Y-107911999D01*
X125348500Y-107797040D01*
X125348500Y-107544960D01*
X125333365Y-107430001D01*
X125287159Y-107318451D01*
X125279691Y-107248983D01*
X125287160Y-107223548D01*
X125333365Y-107111999D01*
X125348500Y-106997040D01*
X125348500Y-106744960D01*
X125333365Y-106630001D01*
X125287159Y-106518451D01*
X125279691Y-106448983D01*
X125287160Y-106423548D01*
X125333365Y-106311999D01*
X125348500Y-106197040D01*
X125348500Y-105944960D01*
X125348499Y-105944952D01*
X125997500Y-105944952D01*
X125997500Y-106197047D01*
X126012635Y-106311997D01*
X126012636Y-106312002D01*
X126058839Y-106423548D01*
X126066308Y-106493017D01*
X126058839Y-106518452D01*
X126012636Y-106629997D01*
X126012635Y-106630002D01*
X125997500Y-106744952D01*
X125997500Y-106997047D01*
X126012635Y-107111997D01*
X126012636Y-107112002D01*
X126058839Y-107223548D01*
X126066308Y-107293017D01*
X126058839Y-107318452D01*
X126012636Y-107429997D01*
X126012635Y-107430002D01*
X125997500Y-107544952D01*
X125997500Y-107797047D01*
X126006625Y-107866349D01*
X126012285Y-107909344D01*
X126012635Y-107911997D01*
X126012636Y-107912002D01*
X126059109Y-108024200D01*
X126066578Y-108093670D01*
X126059109Y-108119104D01*
X126013121Y-108230131D01*
X126004448Y-108295999D01*
X126004449Y-108296000D01*
X126321957Y-108296000D01*
X126369409Y-108305439D01*
X126400231Y-108318205D01*
X126432001Y-108331365D01*
X126546960Y-108346500D01*
X126546967Y-108346500D01*
X127199033Y-108346500D01*
X127199040Y-108346500D01*
X127313999Y-108331365D01*
X127357477Y-108313355D01*
X127376591Y-108305439D01*
X127424043Y-108296000D01*
X127741549Y-108296000D01*
X127741550Y-108295998D01*
X127732881Y-108230140D01*
X127732878Y-108230131D01*
X127686890Y-108119105D01*
X127679421Y-108049635D01*
X127686890Y-108024199D01*
X127733365Y-107911999D01*
X127748500Y-107797040D01*
X127748500Y-107544960D01*
X127733365Y-107430001D01*
X127687159Y-107318451D01*
X127679691Y-107248983D01*
X127687160Y-107223548D01*
X127733365Y-107111999D01*
X127748500Y-106997040D01*
X127748500Y-106744960D01*
X127733365Y-106630001D01*
X127687159Y-106518451D01*
X127679691Y-106448983D01*
X127687160Y-106423548D01*
X127733365Y-106311999D01*
X127748500Y-106197040D01*
X127748500Y-105944960D01*
X127733365Y-105830001D01*
X127674117Y-105686963D01*
X127579867Y-105564133D01*
X127466955Y-105477493D01*
X127457036Y-105469882D01*
X127457037Y-105469882D01*
X127314002Y-105410636D01*
X127314000Y-105410635D01*
X127313999Y-105410635D01*
X127288452Y-105407271D01*
X127199047Y-105395500D01*
X127199040Y-105395500D01*
X126546960Y-105395500D01*
X126546952Y-105395500D01*
X126444774Y-105408953D01*
X126432001Y-105410635D01*
X126432000Y-105410635D01*
X126431997Y-105410636D01*
X126288963Y-105469882D01*
X126166133Y-105564133D01*
X126071882Y-105686963D01*
X126012636Y-105829997D01*
X126012635Y-105830002D01*
X125997500Y-105944952D01*
X125348499Y-105944952D01*
X125333365Y-105830001D01*
X125274117Y-105686963D01*
X125179867Y-105564133D01*
X125101978Y-105504367D01*
X125057039Y-105469884D01*
X125057034Y-105469882D01*
X125007531Y-105449377D01*
X124953128Y-105405535D01*
X124931064Y-105339241D01*
X124948344Y-105271542D01*
X124999481Y-105223932D01*
X125014019Y-105217779D01*
X125123280Y-105179547D01*
X125249458Y-105100263D01*
X125315430Y-105081258D01*
X128968012Y-105081258D01*
X129035051Y-105100943D01*
X129080806Y-105153747D01*
X129090750Y-105222905D01*
X129082573Y-105252708D01*
X129079834Y-105259323D01*
X129063614Y-105298480D01*
X129063612Y-105298488D01*
X129042462Y-105404812D01*
X129042463Y-105404813D01*
X129039500Y-105419710D01*
X129039500Y-108102328D01*
X129020494Y-108168300D01*
X128941210Y-108294478D01*
X128881630Y-108464750D01*
X128873898Y-108533383D01*
X128846832Y-108597797D01*
X128789237Y-108637352D01*
X128750678Y-108643500D01*
X127418007Y-108643500D01*
X127370555Y-108634061D01*
X127314002Y-108610636D01*
X127314000Y-108610635D01*
X127313999Y-108610635D01*
X127288452Y-108607271D01*
X127199047Y-108595500D01*
X127199040Y-108595500D01*
X126546960Y-108595500D01*
X126546952Y-108595500D01*
X126444774Y-108608953D01*
X126432001Y-108610635D01*
X126432000Y-108610635D01*
X126431997Y-108610636D01*
X126369409Y-108636561D01*
X126321957Y-108646000D01*
X126004451Y-108646000D01*
X126004449Y-108646001D01*
X126013118Y-108711859D01*
X126013122Y-108711871D01*
X126059109Y-108822896D01*
X126066578Y-108892366D01*
X126059109Y-108917800D01*
X126012636Y-109029997D01*
X126012635Y-109030002D01*
X125997500Y-109144952D01*
X125997500Y-109397047D01*
X126004813Y-109452589D01*
X126012242Y-109509016D01*
X126012635Y-109511997D01*
X126012636Y-109512002D01*
X126058839Y-109623548D01*
X126066308Y-109693017D01*
X126058839Y-109718452D01*
X126012636Y-109829997D01*
X126012635Y-109830002D01*
X125997500Y-109944952D01*
X125997500Y-110197047D01*
X126012635Y-110311997D01*
X126012636Y-110312002D01*
X126058839Y-110423548D01*
X126066308Y-110493017D01*
X126058839Y-110518452D01*
X126012636Y-110629997D01*
X126012635Y-110630002D01*
X125997500Y-110744952D01*
X125997500Y-110997047D01*
X126012635Y-111111997D01*
X126012636Y-111112002D01*
X126071882Y-111255036D01*
X126071883Y-111255037D01*
X126166133Y-111377867D01*
X126288963Y-111472117D01*
X126288962Y-111472117D01*
X126352894Y-111498598D01*
X126432001Y-111531365D01*
X126546960Y-111546500D01*
X126546967Y-111546500D01*
X127199033Y-111546500D01*
X127199040Y-111546500D01*
X127313999Y-111531365D01*
X127457037Y-111472117D01*
X127579867Y-111377867D01*
X127674117Y-111255037D01*
X127733365Y-111111999D01*
X127748500Y-110997040D01*
X127748500Y-110822500D01*
X127768185Y-110755461D01*
X127820989Y-110709706D01*
X127872500Y-110698500D01*
X128750678Y-110698500D01*
X128817717Y-110718185D01*
X128863472Y-110770989D01*
X128873898Y-110808617D01*
X128881630Y-110877249D01*
X128941210Y-111047521D01*
X129021940Y-111176001D01*
X129037184Y-111200262D01*
X129164738Y-111327816D01*
X129317478Y-111423789D01*
X129487745Y-111483368D01*
X129487749Y-111483369D01*
X129622920Y-111498598D01*
X129687334Y-111525664D01*
X129696718Y-111534137D01*
X131338589Y-113176008D01*
X131393625Y-113231044D01*
X131425994Y-113263413D01*
X131425996Y-113263414D01*
X131528756Y-113332076D01*
X131528760Y-113332078D01*
X131528767Y-113332083D01*
X131568433Y-113348513D01*
X131639895Y-113378114D01*
X131694298Y-113421953D01*
X131704824Y-113440268D01*
X131707184Y-113445330D01*
X131707186Y-113445334D01*
X131799288Y-113594656D01*
X131923344Y-113718712D01*
X132072666Y-113810814D01*
X132239203Y-113865999D01*
X132341991Y-113876500D01*
X133342008Y-113876499D01*
X133342016Y-113876498D01*
X133342019Y-113876498D01*
X133398302Y-113870748D01*
X133444797Y-113865999D01*
X133611334Y-113810814D01*
X133760656Y-113718712D01*
X133884712Y-113594656D01*
X133976814Y-113445334D01*
X134031999Y-113278797D01*
X134042500Y-113176009D01*
X134042499Y-112375992D01*
X134041956Y-112370681D01*
X134031999Y-112273203D01*
X134031998Y-112273200D01*
X134001910Y-112182402D01*
X133976814Y-112106666D01*
X133884712Y-111957344D01*
X133875549Y-111948181D01*
X133842064Y-111886858D01*
X133847048Y-111817166D01*
X133888920Y-111761233D01*
X133954384Y-111736816D01*
X133963230Y-111736500D01*
X139769432Y-111736500D01*
X139836471Y-111756185D01*
X139869751Y-111787616D01*
X139897582Y-111825924D01*
X139897586Y-111825928D01*
X140020072Y-111948414D01*
X140160212Y-112050232D01*
X140314555Y-112128873D01*
X140479299Y-112182402D01*
X140650389Y-112209500D01*
X140650390Y-112209500D01*
X141373610Y-112209500D01*
X141373611Y-112209500D01*
X141544701Y-112182402D01*
X141709445Y-112128873D01*
X141863788Y-112050232D01*
X142003928Y-111948414D01*
X142126414Y-111825928D01*
X142154249Y-111787615D01*
X142209578Y-111744950D01*
X142254568Y-111736500D01*
X148667804Y-111736500D01*
X148667805Y-111736499D01*
X148789035Y-111712386D01*
X148876317Y-111676232D01*
X148876318Y-111676232D01*
X148903226Y-111665086D01*
X148903226Y-111665085D01*
X148903233Y-111665083D01*
X149006008Y-111596411D01*
X149093411Y-111509008D01*
X155001567Y-105600850D01*
X155062888Y-105567367D01*
X155075345Y-105565315D01*
X155119255Y-105560368D01*
X155289522Y-105500789D01*
X155442262Y-105404816D01*
X155569816Y-105277262D01*
X155665789Y-105124522D01*
X155725368Y-104954255D01*
X155725369Y-104954249D01*
X155745565Y-104775003D01*
X155745565Y-104768037D01*
X155747762Y-104768037D01*
X155757993Y-104709576D01*
X155805335Y-104658191D01*
X155869166Y-104640500D01*
X161605804Y-104640500D01*
X161605805Y-104640499D01*
X161727035Y-104616386D01*
X161801155Y-104585684D01*
X161822036Y-104577035D01*
X161830813Y-104573399D01*
X161841233Y-104569083D01*
X161944008Y-104500411D01*
X162031411Y-104413008D01*
X165538600Y-100905819D01*
X165599923Y-100872334D01*
X165626281Y-100869500D01*
X168289075Y-100869500D01*
X168356114Y-100889185D01*
X168401869Y-100941989D01*
X168411813Y-101011147D01*
X168408849Y-101025596D01*
X168406990Y-101032529D01*
X168392500Y-101142598D01*
X168392500Y-101341403D01*
X168406989Y-101451468D01*
X168409094Y-101459322D01*
X168405814Y-101460200D01*
X168411581Y-101514073D01*
X168408517Y-101524522D01*
X168409095Y-101524677D01*
X168406990Y-101532529D01*
X168392500Y-101642598D01*
X168392500Y-101841403D01*
X168406989Y-101951468D01*
X168409094Y-101959322D01*
X168405814Y-101960200D01*
X168411581Y-102014073D01*
X168408517Y-102024522D01*
X168409095Y-102024677D01*
X168406990Y-102032529D01*
X168392500Y-102142598D01*
X168392500Y-102341403D01*
X168406988Y-102451463D01*
X168406991Y-102451472D01*
X168448113Y-102550750D01*
X168463721Y-102588429D01*
X168553964Y-102706036D01*
X168671571Y-102796279D01*
X168808528Y-102853009D01*
X168918599Y-102867500D01*
X169268500Y-102867499D01*
X169335539Y-102887183D01*
X169381294Y-102939987D01*
X169392500Y-102991499D01*
X169392500Y-103341403D01*
X169406988Y-103451463D01*
X169406991Y-103451472D01*
X169463615Y-103588175D01*
X169463721Y-103588429D01*
X169553964Y-103706036D01*
X169671571Y-103796279D01*
X169808528Y-103853009D01*
X169918599Y-103867500D01*
X170117400Y-103867499D01*
X170117401Y-103867499D01*
X170134087Y-103865302D01*
X170227472Y-103853009D01*
X170227475Y-103853007D01*
X170235326Y-103850905D01*
X170236210Y-103854207D01*
X170289925Y-103848392D01*
X170300514Y-103851501D01*
X170300674Y-103850905D01*
X170308524Y-103853008D01*
X170308526Y-103853008D01*
X170308528Y-103853009D01*
X170418599Y-103867500D01*
X170617400Y-103867499D01*
X170617401Y-103867499D01*
X170634087Y-103865302D01*
X170727472Y-103853009D01*
X170727475Y-103853007D01*
X170735326Y-103850905D01*
X170736210Y-103854207D01*
X170789925Y-103848392D01*
X170800514Y-103851501D01*
X170800674Y-103850905D01*
X170808524Y-103853008D01*
X170808526Y-103853008D01*
X170808528Y-103853009D01*
X170918599Y-103867500D01*
X171117400Y-103867499D01*
X171117401Y-103867499D01*
X171134087Y-103865302D01*
X171227472Y-103853009D01*
X171227475Y-103853007D01*
X171235326Y-103850905D01*
X171236210Y-103854207D01*
X171289925Y-103848392D01*
X171300514Y-103851501D01*
X171300674Y-103850905D01*
X171308524Y-103853008D01*
X171308526Y-103853008D01*
X171308528Y-103853009D01*
X171418599Y-103867500D01*
X171617400Y-103867499D01*
X171617401Y-103867499D01*
X171634087Y-103865302D01*
X171727472Y-103853009D01*
X171727475Y-103853007D01*
X171735326Y-103850905D01*
X171736210Y-103854207D01*
X171789925Y-103848392D01*
X171800514Y-103851501D01*
X171800674Y-103850905D01*
X171808524Y-103853008D01*
X171808526Y-103853008D01*
X171808528Y-103853009D01*
X171918599Y-103867500D01*
X172117400Y-103867499D01*
X172117401Y-103867499D01*
X172145499Y-103863800D01*
X172227472Y-103853009D01*
X172227477Y-103853006D01*
X172234404Y-103851151D01*
X172304254Y-103852812D01*
X172362117Y-103891973D01*
X172389623Y-103956201D01*
X172390500Y-103970925D01*
X172390500Y-104485718D01*
X172370815Y-104552757D01*
X172354181Y-104573399D01*
X171497398Y-105430181D01*
X171436075Y-105463666D01*
X171409717Y-105466500D01*
X170747998Y-105466500D01*
X170747980Y-105466501D01*
X170645203Y-105477000D01*
X170645200Y-105477001D01*
X170478668Y-105532185D01*
X170478663Y-105532187D01*
X170329342Y-105624289D01*
X170205289Y-105748342D01*
X170113187Y-105897663D01*
X170113185Y-105897668D01*
X170093291Y-105957704D01*
X170058001Y-106064203D01*
X170058001Y-106064204D01*
X170058000Y-106064204D01*
X170047500Y-106166983D01*
X170047500Y-107167001D01*
X170047501Y-107167019D01*
X170058000Y-107269796D01*
X170058001Y-107269799D01*
X170100263Y-107397336D01*
X170113186Y-107436334D01*
X170205288Y-107585656D01*
X170329344Y-107709712D01*
X170478666Y-107801814D01*
X170645203Y-107856999D01*
X170747991Y-107867500D01*
X171548008Y-107867499D01*
X171548016Y-107867498D01*
X171548019Y-107867498D01*
X171617963Y-107860353D01*
X171650797Y-107856999D01*
X171817334Y-107801814D01*
X171966656Y-107709712D01*
X172060675Y-107615692D01*
X172121994Y-107582210D01*
X172191686Y-107587194D01*
X172236034Y-107615695D01*
X172329654Y-107709315D01*
X172478875Y-107801356D01*
X172478880Y-107801358D01*
X172645302Y-107856505D01*
X172645309Y-107856506D01*
X172748019Y-107866999D01*
X172897999Y-107866999D01*
X173398000Y-107866999D01*
X173547972Y-107866999D01*
X173547986Y-107866998D01*
X173650697Y-107856505D01*
X173817119Y-107801358D01*
X173817124Y-107801356D01*
X173966345Y-107709315D01*
X174090315Y-107585345D01*
X174182356Y-107436124D01*
X174182358Y-107436119D01*
X174237505Y-107269697D01*
X174237506Y-107269690D01*
X174247999Y-107166986D01*
X174248000Y-107166973D01*
X174248000Y-106917000D01*
X173398000Y-106917000D01*
X173398000Y-107866999D01*
X172897999Y-107866999D01*
X172898000Y-107866998D01*
X172898000Y-106791000D01*
X172917685Y-106723961D01*
X172970489Y-106678206D01*
X173022000Y-106667000D01*
X173148000Y-106667000D01*
X173148000Y-106541000D01*
X173167685Y-106473961D01*
X173220489Y-106428206D01*
X173272000Y-106417000D01*
X174247999Y-106417000D01*
X174247999Y-106167028D01*
X174247998Y-106167013D01*
X174237505Y-106064302D01*
X174182358Y-105897880D01*
X174182356Y-105897875D01*
X174090315Y-105748654D01*
X173966345Y-105624684D01*
X173817124Y-105532643D01*
X173817119Y-105532641D01*
X173650697Y-105477494D01*
X173650690Y-105477493D01*
X173547986Y-105467000D01*
X173534782Y-105467000D01*
X173467743Y-105447315D01*
X173421988Y-105394511D01*
X173412044Y-105325353D01*
X173441069Y-105261797D01*
X173447101Y-105255319D01*
X173505408Y-105197011D01*
X173505408Y-105197010D01*
X173505411Y-105197008D01*
X173574083Y-105094233D01*
X173621385Y-104980035D01*
X173643834Y-104867179D01*
X173645500Y-104858806D01*
X173645500Y-103969275D01*
X173665185Y-103902236D01*
X173717989Y-103856481D01*
X173722048Y-103854714D01*
X173864174Y-103795844D01*
X173981679Y-103705679D01*
X174071843Y-103588175D01*
X174128521Y-103451342D01*
X174128521Y-103451341D01*
X174142997Y-103341386D01*
X174143049Y-103340606D01*
X174143129Y-103340385D01*
X174143530Y-103337345D01*
X174144210Y-103337434D01*
X174167068Y-103274995D01*
X174222746Y-103232784D01*
X174292406Y-103227376D01*
X174335675Y-103245597D01*
X174352741Y-103257000D01*
X174396267Y-103286083D01*
X174396273Y-103286085D01*
X174396274Y-103286086D01*
X174423321Y-103297289D01*
X174499121Y-103328686D01*
X174499123Y-103328687D01*
X174499126Y-103328688D01*
X174510462Y-103333384D01*
X174510463Y-103333384D01*
X174510465Y-103333385D01*
X174528379Y-103336948D01*
X174581296Y-103347475D01*
X174643207Y-103379860D01*
X174677781Y-103440576D01*
X174674042Y-103510345D01*
X174662104Y-103535056D01*
X174661209Y-103536479D01*
X174601633Y-103706737D01*
X174601630Y-103706750D01*
X174581435Y-103885996D01*
X174581435Y-103886003D01*
X174601630Y-104065249D01*
X174601631Y-104065254D01*
X174661211Y-104235523D01*
X174736605Y-104355511D01*
X174757184Y-104388262D01*
X174884738Y-104515816D01*
X175037478Y-104611789D01*
X175163280Y-104655809D01*
X175207745Y-104671368D01*
X175207750Y-104671369D01*
X175386996Y-104691565D01*
X175387000Y-104691565D01*
X175387004Y-104691565D01*
X175566249Y-104671369D01*
X175566252Y-104671368D01*
X175566255Y-104671368D01*
X175735936Y-104611994D01*
X181807859Y-104611994D01*
X181807859Y-104612005D01*
X181828385Y-104859729D01*
X181828387Y-104859738D01*
X181889412Y-105100717D01*
X181989267Y-105328367D01*
X182089562Y-105481881D01*
X182789212Y-104782233D01*
X182800482Y-104824292D01*
X182872890Y-104949708D01*
X182975292Y-105052110D01*
X183100708Y-105124518D01*
X183142766Y-105135787D01*
X182442943Y-105835609D01*
X182489768Y-105872055D01*
X182489771Y-105872057D01*
X182708385Y-105990364D01*
X182708396Y-105990369D01*
X182943506Y-106071083D01*
X183188707Y-106112000D01*
X183437293Y-106112000D01*
X183682493Y-106071083D01*
X183917603Y-105990369D01*
X183917614Y-105990364D01*
X184136230Y-105872056D01*
X184136236Y-105872051D01*
X184183055Y-105835610D01*
X184183056Y-105835609D01*
X183483233Y-105135787D01*
X183525292Y-105124518D01*
X183650708Y-105052110D01*
X183753110Y-104949708D01*
X183825518Y-104824292D01*
X183836787Y-104782234D01*
X184536435Y-105481882D01*
X184636733Y-105328364D01*
X184736587Y-105100717D01*
X184797612Y-104859738D01*
X184797614Y-104859729D01*
X184818141Y-104612005D01*
X184818141Y-104611994D01*
X188307859Y-104611994D01*
X188307859Y-104612005D01*
X188328385Y-104859729D01*
X188328387Y-104859738D01*
X188389412Y-105100717D01*
X188489267Y-105328367D01*
X188589562Y-105481881D01*
X189289212Y-104782233D01*
X189300482Y-104824292D01*
X189372890Y-104949708D01*
X189475292Y-105052110D01*
X189600708Y-105124518D01*
X189642766Y-105135787D01*
X188942943Y-105835609D01*
X188989768Y-105872055D01*
X188989771Y-105872057D01*
X189208385Y-105990364D01*
X189208396Y-105990369D01*
X189443506Y-106071083D01*
X189688707Y-106112000D01*
X189937293Y-106112000D01*
X190182493Y-106071083D01*
X190417603Y-105990369D01*
X190417614Y-105990364D01*
X190636230Y-105872056D01*
X190636236Y-105872051D01*
X190683055Y-105835610D01*
X190683056Y-105835609D01*
X189983233Y-105135787D01*
X190025292Y-105124518D01*
X190150708Y-105052110D01*
X190253110Y-104949708D01*
X190325518Y-104824292D01*
X190336787Y-104782233D01*
X191036435Y-105481882D01*
X191136733Y-105328364D01*
X191236587Y-105100717D01*
X191297612Y-104859738D01*
X191297614Y-104859729D01*
X191318141Y-104612005D01*
X191318141Y-104611994D01*
X191297614Y-104364270D01*
X191297612Y-104364261D01*
X191236587Y-104123282D01*
X191136732Y-103895632D01*
X191036435Y-103742116D01*
X190336787Y-104441765D01*
X190325518Y-104399708D01*
X190253110Y-104274292D01*
X190150708Y-104171890D01*
X190025292Y-104099482D01*
X189983233Y-104088212D01*
X190683055Y-103388389D01*
X190683055Y-103388388D01*
X190636236Y-103351947D01*
X190636231Y-103351944D01*
X190417614Y-103233635D01*
X190417603Y-103233630D01*
X190182493Y-103152916D01*
X189937293Y-103112000D01*
X189688707Y-103112000D01*
X189443506Y-103152916D01*
X189208396Y-103233630D01*
X189208385Y-103233635D01*
X188989770Y-103351943D01*
X188942943Y-103388389D01*
X189642766Y-104088212D01*
X189600708Y-104099482D01*
X189475292Y-104171890D01*
X189372890Y-104274292D01*
X189300482Y-104399708D01*
X189289212Y-104441765D01*
X188589563Y-103742117D01*
X188489267Y-103895633D01*
X188489265Y-103895637D01*
X188389412Y-104123282D01*
X188328387Y-104364261D01*
X188328385Y-104364270D01*
X188307859Y-104611994D01*
X184818141Y-104611994D01*
X184797614Y-104364270D01*
X184797612Y-104364261D01*
X184736587Y-104123282D01*
X184636732Y-103895632D01*
X184536435Y-103742116D01*
X183836787Y-104441765D01*
X183825518Y-104399708D01*
X183753110Y-104274292D01*
X183650708Y-104171890D01*
X183525292Y-104099482D01*
X183483233Y-104088212D01*
X184183055Y-103388389D01*
X184183055Y-103388388D01*
X184136236Y-103351947D01*
X184136231Y-103351944D01*
X183917614Y-103233635D01*
X183917603Y-103233630D01*
X183682493Y-103152916D01*
X183437293Y-103112000D01*
X183188707Y-103112000D01*
X182943506Y-103152916D01*
X182708396Y-103233630D01*
X182708385Y-103233635D01*
X182489770Y-103351943D01*
X182442943Y-103388389D01*
X183142766Y-104088212D01*
X183100708Y-104099482D01*
X182975292Y-104171890D01*
X182872890Y-104274292D01*
X182800482Y-104399708D01*
X182789212Y-104441766D01*
X182089563Y-103742117D01*
X181989267Y-103895633D01*
X181989265Y-103895637D01*
X181889412Y-104123282D01*
X181828387Y-104364261D01*
X181828385Y-104364270D01*
X181807859Y-104611994D01*
X175735936Y-104611994D01*
X175736522Y-104611789D01*
X175889262Y-104515816D01*
X176016816Y-104388262D01*
X176112789Y-104235522D01*
X176172368Y-104065255D01*
X176178236Y-104013175D01*
X176192565Y-103886003D01*
X176192565Y-103885996D01*
X176172369Y-103706750D01*
X176172366Y-103706737D01*
X176112790Y-103536480D01*
X176111895Y-103535056D01*
X176097005Y-103511357D01*
X176078000Y-103445387D01*
X176078000Y-103296339D01*
X176097007Y-103230366D01*
X176105148Y-103217411D01*
X176191789Y-103079522D01*
X176251368Y-102909255D01*
X176254386Y-102882472D01*
X176271565Y-102730003D01*
X176271565Y-102729996D01*
X176262437Y-102648986D01*
X178309001Y-102648986D01*
X178319494Y-102751697D01*
X178374641Y-102918119D01*
X178374643Y-102918124D01*
X178466684Y-103067345D01*
X178590654Y-103191315D01*
X178739875Y-103283356D01*
X178739880Y-103283358D01*
X178906302Y-103338505D01*
X178906309Y-103338506D01*
X179009019Y-103348999D01*
X179283999Y-103348999D01*
X179784000Y-103348999D01*
X180058972Y-103348999D01*
X180058986Y-103348998D01*
X180161697Y-103338505D01*
X180328119Y-103283358D01*
X180328124Y-103283356D01*
X180477345Y-103191315D01*
X180601315Y-103067345D01*
X180693356Y-102918124D01*
X180693358Y-102918119D01*
X180748505Y-102751697D01*
X180748506Y-102751690D01*
X180758999Y-102648986D01*
X180759000Y-102648973D01*
X180759000Y-102511500D01*
X179784000Y-102511500D01*
X179784000Y-103348999D01*
X179283999Y-103348999D01*
X179284000Y-103348998D01*
X179284000Y-102511500D01*
X178309001Y-102511500D01*
X178309001Y-102648986D01*
X176262437Y-102648986D01*
X176251369Y-102550750D01*
X176251368Y-102550745D01*
X176191788Y-102380476D01*
X176095815Y-102227737D01*
X175968262Y-102100184D01*
X175815523Y-102004211D01*
X175645254Y-101944631D01*
X175645249Y-101944630D01*
X175466004Y-101924435D01*
X175465996Y-101924435D01*
X175281382Y-101945235D01*
X175212560Y-101933180D01*
X175161181Y-101885831D01*
X175143499Y-101822018D01*
X175143499Y-101642600D01*
X175129009Y-101532528D01*
X175129006Y-101532522D01*
X175127150Y-101525589D01*
X175128815Y-101455739D01*
X175167980Y-101397878D01*
X175232210Y-101370376D01*
X175246926Y-101369500D01*
X178297650Y-101369500D01*
X178364689Y-101389185D01*
X178410444Y-101441989D01*
X178420388Y-101511147D01*
X178403189Y-101558597D01*
X178374643Y-101604875D01*
X178374641Y-101604880D01*
X178319494Y-101771302D01*
X178319493Y-101771309D01*
X178309000Y-101874013D01*
X178309000Y-102011500D01*
X180758999Y-102011500D01*
X180758999Y-101874028D01*
X180758998Y-101874013D01*
X180748505Y-101771302D01*
X180693358Y-101604880D01*
X180693356Y-101604875D01*
X180601315Y-101455654D01*
X180477344Y-101331683D01*
X180477341Y-101331681D01*
X180474339Y-101329829D01*
X180472713Y-101328021D01*
X180471677Y-101327202D01*
X180471817Y-101327024D01*
X180427617Y-101277880D01*
X180416397Y-101208917D01*
X180444243Y-101144836D01*
X180474344Y-101118754D01*
X180477656Y-101116712D01*
X180601712Y-100992656D01*
X180693814Y-100843334D01*
X180700057Y-100824493D01*
X180739829Y-100767051D01*
X180804345Y-100740228D01*
X180817762Y-100739500D01*
X181868728Y-100739500D01*
X181935767Y-100759185D01*
X181981522Y-100811989D01*
X181982285Y-100813692D01*
X181988827Y-100828607D01*
X182124833Y-101036782D01*
X182124836Y-101036785D01*
X182293256Y-101219738D01*
X182489491Y-101372474D01*
X182708190Y-101490828D01*
X182943386Y-101571571D01*
X183188665Y-101612500D01*
X183437335Y-101612500D01*
X183682614Y-101571571D01*
X183917810Y-101490828D01*
X184136509Y-101372474D01*
X184332744Y-101219738D01*
X184501164Y-101036785D01*
X184637173Y-100828607D01*
X184643715Y-100813691D01*
X184688670Y-100760205D01*
X184755406Y-100739514D01*
X184757272Y-100739500D01*
X188368728Y-100739500D01*
X188435767Y-100759185D01*
X188481522Y-100811989D01*
X188482285Y-100813692D01*
X188488827Y-100828607D01*
X188624833Y-101036782D01*
X188624836Y-101036785D01*
X188793256Y-101219738D01*
X188989491Y-101372474D01*
X189208190Y-101490828D01*
X189443386Y-101571571D01*
X189688665Y-101612500D01*
X189937335Y-101612500D01*
X190182614Y-101571571D01*
X190417810Y-101490828D01*
X190636509Y-101372474D01*
X190832744Y-101219738D01*
X191001164Y-101036785D01*
X191137173Y-100828607D01*
X191237063Y-100600881D01*
X191298108Y-100359821D01*
X191298109Y-100359812D01*
X191318643Y-100112005D01*
X191318643Y-100111994D01*
X191298109Y-99864187D01*
X191298107Y-99864175D01*
X191237063Y-99623118D01*
X191137173Y-99395393D01*
X191001166Y-99187217D01*
X190960089Y-99142596D01*
X190832744Y-99004262D01*
X190636509Y-98851526D01*
X190636507Y-98851525D01*
X190636506Y-98851524D01*
X190417811Y-98733172D01*
X190417802Y-98733169D01*
X190182616Y-98652429D01*
X189937335Y-98611500D01*
X189688665Y-98611500D01*
X189443383Y-98652429D01*
X189208197Y-98733169D01*
X189208188Y-98733172D01*
X188989493Y-98851524D01*
X188793257Y-99004261D01*
X188624833Y-99187217D01*
X188488827Y-99395392D01*
X188482285Y-99410308D01*
X188437330Y-99463795D01*
X188370594Y-99484486D01*
X188368728Y-99484500D01*
X184757272Y-99484500D01*
X184690233Y-99464815D01*
X184644478Y-99412011D01*
X184643715Y-99410308D01*
X184637173Y-99395393D01*
X184591836Y-99326000D01*
X184501166Y-99187217D01*
X184460089Y-99142596D01*
X184332744Y-99004262D01*
X184136509Y-98851526D01*
X184136507Y-98851525D01*
X184136506Y-98851524D01*
X183917811Y-98733172D01*
X183917802Y-98733169D01*
X183682616Y-98652429D01*
X183437335Y-98611500D01*
X183188665Y-98611500D01*
X182943383Y-98652429D01*
X182708197Y-98733169D01*
X182708188Y-98733172D01*
X182489493Y-98851524D01*
X182293257Y-99004261D01*
X182124833Y-99187217D01*
X181988827Y-99395392D01*
X181982285Y-99410308D01*
X181937330Y-99463795D01*
X181870594Y-99484486D01*
X181868728Y-99484500D01*
X180735163Y-99484500D01*
X180668124Y-99464815D01*
X180629625Y-99425597D01*
X180601714Y-99380347D01*
X180601711Y-99380343D01*
X180477657Y-99256289D01*
X180477656Y-99256288D01*
X180376025Y-99193602D01*
X180328336Y-99164187D01*
X180328331Y-99164185D01*
X180326862Y-99163698D01*
X180161797Y-99109001D01*
X180161795Y-99109000D01*
X180059010Y-99098500D01*
X179008998Y-99098500D01*
X179008980Y-99098501D01*
X178906203Y-99109000D01*
X178906200Y-99109001D01*
X178739668Y-99164185D01*
X178739663Y-99164187D01*
X178590342Y-99256289D01*
X178466289Y-99380342D01*
X178374187Y-99529663D01*
X178374185Y-99529668D01*
X178346659Y-99612738D01*
X178319001Y-99696203D01*
X178319001Y-99696204D01*
X178319000Y-99696204D01*
X178308500Y-99798983D01*
X178308500Y-99990500D01*
X178288815Y-100057539D01*
X178236011Y-100103294D01*
X178184500Y-100114500D01*
X176255322Y-100114500D01*
X176188283Y-100094815D01*
X176142528Y-100042011D01*
X176132102Y-100004383D01*
X176124369Y-99935750D01*
X176124368Y-99935748D01*
X176124368Y-99935745D01*
X176064789Y-99765478D01*
X176064788Y-99765474D01*
X175975069Y-99622689D01*
X175956068Y-99555453D01*
X175976435Y-99488618D01*
X175992375Y-99469042D01*
X176128411Y-99333008D01*
X176151747Y-99298083D01*
X176197083Y-99230233D01*
X176223281Y-99166986D01*
X176244386Y-99116034D01*
X176268500Y-98994803D01*
X176268500Y-98871196D01*
X176268500Y-97315671D01*
X176287507Y-97249698D01*
X176290141Y-97245507D01*
X176360775Y-97133093D01*
X176366788Y-97123524D01*
X176367951Y-97120200D01*
X176426368Y-96953255D01*
X176426369Y-96953249D01*
X176446565Y-96774003D01*
X176446565Y-96773996D01*
X176426369Y-96594750D01*
X176426368Y-96594745D01*
X176410185Y-96548496D01*
X176366789Y-96424478D01*
X176270816Y-96271738D01*
X176143262Y-96144184D01*
X176125834Y-96133233D01*
X175990523Y-96048211D01*
X175820254Y-95988631D01*
X175820249Y-95988630D01*
X175641004Y-95968435D01*
X175640996Y-95968435D01*
X175461750Y-95988630D01*
X175461742Y-95988632D01*
X175360454Y-96024074D01*
X175290675Y-96027635D01*
X175230048Y-95992906D01*
X175197821Y-95930912D01*
X175195500Y-95907032D01*
X175195500Y-92437763D01*
X175215185Y-92370724D01*
X175267989Y-92324969D01*
X175337147Y-92315025D01*
X175360455Y-92320721D01*
X175413745Y-92339368D01*
X175413750Y-92339369D01*
X175592996Y-92359565D01*
X175593000Y-92359565D01*
X175593004Y-92359565D01*
X175772249Y-92339369D01*
X175772252Y-92339368D01*
X175772255Y-92339368D01*
X175942522Y-92279789D01*
X176095262Y-92183816D01*
X176222816Y-92056262D01*
X176318789Y-91903522D01*
X176378368Y-91733255D01*
X176378735Y-91729999D01*
X176398565Y-91554003D01*
X176398565Y-91553996D01*
X176378369Y-91374750D01*
X176378368Y-91374745D01*
X176364757Y-91335847D01*
X176318789Y-91204478D01*
X176222816Y-91051738D01*
X176095262Y-90924184D01*
X176074934Y-90911411D01*
X175942521Y-90828210D01*
X175794849Y-90776538D01*
X175772255Y-90768632D01*
X175772254Y-90768631D01*
X175772249Y-90768630D01*
X175728361Y-90763685D01*
X175663948Y-90736617D01*
X175654566Y-90728146D01*
X175323011Y-90396591D01*
X175316918Y-90392520D01*
X175283562Y-90370232D01*
X175220233Y-90327917D01*
X175220232Y-90327916D01*
X175220230Y-90327915D01*
X175185416Y-90313495D01*
X175106035Y-90280614D01*
X175106027Y-90280612D01*
X174984807Y-90256500D01*
X174984803Y-90256500D01*
X174853144Y-90256500D01*
X174786105Y-90236815D01*
X174740350Y-90184011D01*
X174730689Y-90116826D01*
X174730266Y-90116776D01*
X174730455Y-90115197D01*
X174730406Y-90114853D01*
X174730637Y-90113678D01*
X174731212Y-90108885D01*
X174731214Y-90108882D01*
X174741500Y-90023228D01*
X174741500Y-89744772D01*
X174731214Y-89659118D01*
X174677463Y-89522815D01*
X174588931Y-89406069D01*
X174498770Y-89337697D01*
X174472184Y-89317536D01*
X174335880Y-89263785D01*
X174291856Y-89258499D01*
X174250228Y-89253500D01*
X174250222Y-89253500D01*
X173640500Y-89253500D01*
X173573461Y-89233815D01*
X173527706Y-89181011D01*
X173516500Y-89129500D01*
X173516500Y-88519778D01*
X173516500Y-88519772D01*
X173506214Y-88434118D01*
X173452463Y-88297815D01*
X173363931Y-88181069D01*
X173247185Y-88092537D01*
X173247184Y-88092536D01*
X173110880Y-88038785D01*
X173066914Y-88033505D01*
X173025228Y-88028500D01*
X172746772Y-88028500D01*
X172661118Y-88038786D01*
X172661117Y-88038786D01*
X172653224Y-88039734D01*
X172652951Y-88037462D01*
X172619049Y-88037462D01*
X172618776Y-88039734D01*
X172610882Y-88038786D01*
X172539853Y-88030256D01*
X172475641Y-88002720D01*
X172436508Y-87944837D01*
X172434881Y-87874986D01*
X172466956Y-87819461D01*
X173481567Y-86804850D01*
X173542888Y-86771367D01*
X173555345Y-86769315D01*
X173599255Y-86764368D01*
X173769522Y-86704789D01*
X173922262Y-86608816D01*
X174049816Y-86481262D01*
X174097395Y-86405539D01*
X174149729Y-86359248D01*
X174218783Y-86348599D01*
X174268362Y-86366518D01*
X174402475Y-86450788D01*
X174572745Y-86510368D01*
X174572750Y-86510369D01*
X174751996Y-86530565D01*
X174752000Y-86530565D01*
X174752004Y-86530565D01*
X174931249Y-86510369D01*
X174931252Y-86510368D01*
X174931255Y-86510368D01*
X175101522Y-86450789D01*
X175254262Y-86354816D01*
X175381816Y-86227262D01*
X175477789Y-86074522D01*
X175537368Y-85904255D01*
X175542313Y-85860361D01*
X175569378Y-85795951D01*
X175577842Y-85786575D01*
X176643101Y-84721318D01*
X176711773Y-84618543D01*
X176759075Y-84504345D01*
X176778865Y-84404855D01*
X176811250Y-84342945D01*
X176871965Y-84308371D01*
X176876236Y-84307441D01*
X176972035Y-84288386D01*
X177059387Y-84252203D01*
X177059388Y-84252203D01*
X177086226Y-84241086D01*
X177086226Y-84241085D01*
X177086233Y-84241083D01*
X177189008Y-84172411D01*
X177276411Y-84085008D01*
X177466600Y-83894817D01*
X177527923Y-83861333D01*
X177554281Y-83858499D01*
X179066002Y-83858499D01*
X179066008Y-83858499D01*
X179168797Y-83847999D01*
X179335334Y-83792814D01*
X179484656Y-83700712D01*
X179608712Y-83576656D01*
X179700814Y-83427334D01*
X179755999Y-83260797D01*
X179766500Y-83158009D01*
X179766500Y-83157986D01*
X180266001Y-83157986D01*
X180276494Y-83260697D01*
X180331641Y-83427119D01*
X180331643Y-83427124D01*
X180423684Y-83576345D01*
X180547654Y-83700315D01*
X180696875Y-83792356D01*
X180696880Y-83792358D01*
X180863302Y-83847505D01*
X180863309Y-83847506D01*
X180966019Y-83857999D01*
X181765999Y-83857999D01*
X182266000Y-83857999D01*
X183065972Y-83857999D01*
X183065986Y-83857998D01*
X183168697Y-83847505D01*
X183335119Y-83792358D01*
X183335124Y-83792356D01*
X183484345Y-83700315D01*
X183608315Y-83576345D01*
X183700356Y-83427124D01*
X183700358Y-83427119D01*
X183755505Y-83260697D01*
X183755506Y-83260690D01*
X183765999Y-83157986D01*
X183766000Y-83157973D01*
X183766000Y-82708000D01*
X182266000Y-82708000D01*
X182266000Y-83857999D01*
X181765999Y-83857999D01*
X181766000Y-83857998D01*
X181766000Y-82708000D01*
X180266001Y-82708000D01*
X180266001Y-83157986D01*
X179766500Y-83157986D01*
X179766499Y-81758013D01*
X180266000Y-81758013D01*
X180266000Y-82208000D01*
X181766000Y-82208000D01*
X182266000Y-82208000D01*
X183765999Y-82208000D01*
X183765999Y-81758028D01*
X183765998Y-81758013D01*
X183755505Y-81655302D01*
X183700358Y-81488880D01*
X183700356Y-81488875D01*
X183608315Y-81339654D01*
X183484345Y-81215684D01*
X183335124Y-81123643D01*
X183335119Y-81123641D01*
X183168697Y-81068494D01*
X183168690Y-81068493D01*
X183065986Y-81058000D01*
X182266000Y-81058000D01*
X182266000Y-82208000D01*
X181766000Y-82208000D01*
X181766000Y-81058000D01*
X180966028Y-81058000D01*
X180966012Y-81058001D01*
X180863302Y-81068494D01*
X180696880Y-81123641D01*
X180696875Y-81123643D01*
X180547654Y-81215684D01*
X180423684Y-81339654D01*
X180331643Y-81488875D01*
X180331641Y-81488880D01*
X180276494Y-81655302D01*
X180276493Y-81655309D01*
X180266000Y-81758013D01*
X179766499Y-81758013D01*
X179766499Y-81757992D01*
X179755999Y-81655203D01*
X179700814Y-81488666D01*
X179608712Y-81339344D01*
X179484656Y-81215288D01*
X179335334Y-81123186D01*
X179168797Y-81068001D01*
X179168795Y-81068000D01*
X179066016Y-81057500D01*
X179066009Y-81057500D01*
X177682281Y-81057500D01*
X177615242Y-81037815D01*
X177594600Y-81021181D01*
X174886715Y-78313296D01*
X174853230Y-78251973D01*
X174858214Y-78182281D01*
X174900086Y-78126348D01*
X174965550Y-78101931D01*
X174997183Y-78103727D01*
X175041434Y-78111999D01*
X175041438Y-78112000D01*
X175254561Y-78112000D01*
X175464058Y-78072837D01*
X175464063Y-78072836D01*
X175662791Y-77995849D01*
X175662798Y-77995846D01*
X175765006Y-77932560D01*
X175765006Y-77932559D01*
X175236584Y-77404138D01*
X175321694Y-77381333D01*
X175424306Y-77322090D01*
X175508090Y-77238306D01*
X175567333Y-77135694D01*
X175590138Y-77050585D01*
X176121163Y-77581610D01*
X176129935Y-77569996D01*
X176129938Y-77569991D01*
X176224935Y-77379211D01*
X176224941Y-77379196D01*
X176283261Y-77174219D01*
X176283262Y-77174216D01*
X176302927Y-76962000D01*
X176302927Y-76961999D01*
X176283262Y-76749783D01*
X176283261Y-76749780D01*
X176224941Y-76544803D01*
X176224933Y-76544783D01*
X176129940Y-76354010D01*
X176121163Y-76342388D01*
X175590137Y-76873414D01*
X175567333Y-76788306D01*
X175508090Y-76685694D01*
X175424306Y-76601910D01*
X175321694Y-76542667D01*
X175236584Y-76519861D01*
X175765007Y-75991439D01*
X175662793Y-75928151D01*
X175662789Y-75928149D01*
X175464063Y-75851163D01*
X175464058Y-75851162D01*
X175254561Y-75812000D01*
X175041439Y-75812000D01*
X174831941Y-75851162D01*
X174831936Y-75851163D01*
X174633210Y-75928149D01*
X174633201Y-75928154D01*
X174530992Y-75991438D01*
X174530991Y-75991439D01*
X175059415Y-76519861D01*
X174974306Y-76542667D01*
X174871694Y-76601910D01*
X174787910Y-76685694D01*
X174728667Y-76788306D01*
X174705861Y-76873415D01*
X174174835Y-76342389D01*
X174166056Y-76354015D01*
X174071066Y-76544783D01*
X174071058Y-76544803D01*
X174017526Y-76732953D01*
X173980247Y-76792046D01*
X173916938Y-76821604D01*
X173847698Y-76812242D01*
X173794511Y-76766932D01*
X173778994Y-76732954D01*
X173769352Y-76699067D01*
X173725405Y-76544611D01*
X173725403Y-76544606D01*
X173725403Y-76544605D01*
X173630367Y-76353746D01*
X173501872Y-76183593D01*
X173344302Y-76039948D01*
X173163019Y-75927702D01*
X173163017Y-75927701D01*
X173027453Y-75875184D01*
X172964198Y-75850679D01*
X172754610Y-75811500D01*
X172541390Y-75811500D01*
X172331802Y-75850679D01*
X172331799Y-75850679D01*
X172331799Y-75850680D01*
X172132982Y-75927701D01*
X172132980Y-75927702D01*
X171951699Y-76039947D01*
X171794126Y-76183594D01*
X171746953Y-76246061D01*
X171690844Y-76287696D01*
X171621132Y-76292387D01*
X171559950Y-76258644D01*
X171549047Y-76246061D01*
X171501873Y-76183594D01*
X171501872Y-76183593D01*
X171344302Y-76039948D01*
X171163019Y-75927702D01*
X171163017Y-75927701D01*
X171027453Y-75875184D01*
X170964198Y-75850679D01*
X170754610Y-75811500D01*
X170541390Y-75811500D01*
X170331802Y-75850679D01*
X170331799Y-75850679D01*
X170331799Y-75850680D01*
X170132982Y-75927701D01*
X170132980Y-75927702D01*
X169951699Y-76039947D01*
X169794127Y-76183593D01*
X169665632Y-76353746D01*
X169570597Y-76544605D01*
X169570595Y-76544609D01*
X169570595Y-76544611D01*
X169556321Y-76594777D01*
X169541765Y-76645936D01*
X169504485Y-76705028D01*
X169441175Y-76734585D01*
X169371936Y-76725223D01*
X169318750Y-76679912D01*
X169298503Y-76613040D01*
X169298499Y-76612000D01*
X169298499Y-76264129D01*
X169298498Y-76264123D01*
X169298497Y-76264116D01*
X169292091Y-76204517D01*
X169284287Y-76183594D01*
X169241797Y-76069671D01*
X169241793Y-76069664D01*
X169155547Y-75954455D01*
X169155544Y-75954452D01*
X169040335Y-75868206D01*
X169040328Y-75868202D01*
X168905482Y-75817908D01*
X168905483Y-75817908D01*
X168845883Y-75811501D01*
X168845881Y-75811500D01*
X168845873Y-75811500D01*
X168845864Y-75811500D01*
X167450129Y-75811500D01*
X167450123Y-75811501D01*
X167390516Y-75817908D01*
X167255671Y-75868202D01*
X167255664Y-75868206D01*
X167140455Y-75954452D01*
X167140452Y-75954455D01*
X167054206Y-76069664D01*
X167054202Y-76069671D01*
X167003908Y-76204517D01*
X166997501Y-76264116D01*
X166997501Y-76264123D01*
X166997500Y-76264135D01*
X166997500Y-76994113D01*
X166977815Y-77061152D01*
X166961181Y-77081794D01*
X166689473Y-77353501D01*
X166628150Y-77386986D01*
X166558458Y-77382002D01*
X166502525Y-77340130D01*
X166478108Y-77274666D01*
X166483862Y-77227499D01*
X166492296Y-77201543D01*
X166528000Y-76976116D01*
X166528000Y-76612000D01*
X165728000Y-76612000D01*
X165728000Y-76112000D01*
X166528000Y-76112000D01*
X166528000Y-75747883D01*
X176768000Y-75747883D01*
X176768000Y-76112000D01*
X177568000Y-76112000D01*
X177568000Y-76612000D01*
X176768000Y-76612000D01*
X176768000Y-76976116D01*
X176803704Y-77201544D01*
X176874230Y-77418604D01*
X176977849Y-77621966D01*
X177112004Y-77806614D01*
X177273385Y-77967995D01*
X177458033Y-78102150D01*
X177661395Y-78205769D01*
X177878455Y-78276295D01*
X177968000Y-78290478D01*
X177968000Y-77462001D01*
X178028402Y-77487021D01*
X178153981Y-77512000D01*
X178282019Y-77512000D01*
X178407598Y-77487021D01*
X178468000Y-77462001D01*
X178468000Y-78290477D01*
X178557544Y-78276295D01*
X178774604Y-78205769D01*
X178977966Y-78102150D01*
X179162614Y-77967995D01*
X179323995Y-77806614D01*
X179458150Y-77621966D01*
X179561769Y-77418604D01*
X179632295Y-77201544D01*
X179668000Y-76976116D01*
X179668000Y-76612000D01*
X178868000Y-76612000D01*
X178868000Y-76112000D01*
X179668000Y-76112000D01*
X179668000Y-75747883D01*
X179632295Y-75522455D01*
X179561769Y-75305395D01*
X179458150Y-75102033D01*
X179323995Y-74917385D01*
X179162614Y-74756004D01*
X178977966Y-74621849D01*
X178774602Y-74518229D01*
X178557541Y-74447703D01*
X178468000Y-74433521D01*
X178468000Y-75261998D01*
X178407598Y-75236979D01*
X178282019Y-75212000D01*
X178153981Y-75212000D01*
X178028402Y-75236979D01*
X177968000Y-75261998D01*
X177968000Y-74433521D01*
X177967999Y-74433521D01*
X177878458Y-74447703D01*
X177661397Y-74518229D01*
X177458033Y-74621849D01*
X177273385Y-74756004D01*
X177112004Y-74917385D01*
X176977849Y-75102033D01*
X176874230Y-75305395D01*
X176803704Y-75522455D01*
X176768000Y-75747883D01*
X166528000Y-75747883D01*
X166492295Y-75522455D01*
X166421769Y-75305395D01*
X166318150Y-75102033D01*
X166183995Y-74917385D01*
X166022614Y-74756004D01*
X165837966Y-74621849D01*
X165634602Y-74518229D01*
X165417541Y-74447703D01*
X165328000Y-74433521D01*
X165328000Y-75261998D01*
X165267598Y-75236979D01*
X165142019Y-75212000D01*
X165013981Y-75212000D01*
X164888402Y-75236979D01*
X164828000Y-75261998D01*
X164828000Y-74433521D01*
X164827999Y-74433521D01*
X164738458Y-74447703D01*
X164521397Y-74518229D01*
X164318033Y-74621849D01*
X164133385Y-74756004D01*
X163972004Y-74917385D01*
X163837849Y-75102033D01*
X163734230Y-75305395D01*
X163663704Y-75522455D01*
X163628000Y-75747883D01*
X163628000Y-76112000D01*
X164428000Y-76112000D01*
X164428000Y-76612000D01*
X163628000Y-76612000D01*
X163628000Y-76976116D01*
X163663704Y-77201544D01*
X163734230Y-77418604D01*
X163837849Y-77621966D01*
X163972004Y-77806614D01*
X164133385Y-77967995D01*
X164318033Y-78102150D01*
X164521395Y-78205769D01*
X164738455Y-78276295D01*
X164828000Y-78290478D01*
X164828000Y-77462001D01*
X164888402Y-77487021D01*
X165013981Y-77512000D01*
X165142019Y-77512000D01*
X165267598Y-77487021D01*
X165328000Y-77462001D01*
X165328000Y-78290477D01*
X165417543Y-78276296D01*
X165443499Y-78267862D01*
X165513340Y-78265865D01*
X165573174Y-78301944D01*
X165604003Y-78364645D01*
X165596040Y-78434059D01*
X165569501Y-78473473D01*
X162502794Y-81540181D01*
X162441471Y-81573666D01*
X162415113Y-81576500D01*
X162363499Y-81576500D01*
X162296460Y-81556815D01*
X162250705Y-81504011D01*
X162239499Y-81452500D01*
X162239499Y-81280998D01*
X162239498Y-81280981D01*
X162228999Y-81178203D01*
X162228998Y-81178200D01*
X162173814Y-81011666D01*
X162081712Y-80862344D01*
X161957656Y-80738288D01*
X161808334Y-80646186D01*
X161641797Y-80591001D01*
X161641795Y-80591000D01*
X161539016Y-80580500D01*
X161539009Y-80580500D01*
X160206887Y-80580500D01*
X160139848Y-80560815D01*
X160119206Y-80544181D01*
X159821825Y-80246800D01*
X159788340Y-80185477D01*
X159793324Y-80115785D01*
X159835196Y-80059852D01*
X159900660Y-80035435D01*
X159948511Y-80041413D01*
X160036305Y-80070505D01*
X160036309Y-80070506D01*
X160139019Y-80080999D01*
X160588999Y-80080999D01*
X161089000Y-80080999D01*
X161538972Y-80080999D01*
X161538986Y-80080998D01*
X161641697Y-80070505D01*
X161808119Y-80015358D01*
X161808124Y-80015356D01*
X161957345Y-79923315D01*
X162081315Y-79799345D01*
X162173356Y-79650124D01*
X162173358Y-79650119D01*
X162228505Y-79483697D01*
X162228506Y-79483690D01*
X162238999Y-79380986D01*
X162239000Y-79380973D01*
X162239000Y-78581000D01*
X161089000Y-78581000D01*
X161089000Y-80080999D01*
X160588999Y-80080999D01*
X160589000Y-80080998D01*
X160589000Y-78581000D01*
X159439001Y-78581000D01*
X159439001Y-79380986D01*
X159449494Y-79483697D01*
X159478585Y-79571488D01*
X159480987Y-79641317D01*
X159445255Y-79701358D01*
X159382734Y-79732551D01*
X159313275Y-79724990D01*
X159273198Y-79698173D01*
X156856039Y-77281013D01*
X159439000Y-77281013D01*
X159439000Y-78081000D01*
X160589000Y-78081000D01*
X161089000Y-78081000D01*
X162238999Y-78081000D01*
X162238999Y-77281028D01*
X162238998Y-77281013D01*
X162228505Y-77178302D01*
X162173358Y-77011880D01*
X162173356Y-77011875D01*
X162081315Y-76862654D01*
X161957345Y-76738684D01*
X161808124Y-76646643D01*
X161808119Y-76646641D01*
X161641697Y-76591494D01*
X161641690Y-76591493D01*
X161538986Y-76581000D01*
X161089000Y-76581000D01*
X161089000Y-78081000D01*
X160589000Y-78081000D01*
X160589000Y-76581000D01*
X160139028Y-76581000D01*
X160139012Y-76581001D01*
X160036302Y-76591494D01*
X159869880Y-76646641D01*
X159869875Y-76646643D01*
X159720654Y-76738684D01*
X159596684Y-76862654D01*
X159504643Y-77011875D01*
X159504641Y-77011880D01*
X159449494Y-77178302D01*
X159449493Y-77178309D01*
X159439000Y-77281013D01*
X156856039Y-77281013D01*
X155594469Y-76019443D01*
X155594468Y-76019442D01*
X155505986Y-75960321D01*
X155470889Y-75936870D01*
X155470886Y-75936868D01*
X155470885Y-75936868D01*
X155390455Y-75903553D01*
X155333580Y-75879995D01*
X155309394Y-75875184D01*
X155187814Y-75850999D01*
X155187812Y-75850999D01*
X155039188Y-75850999D01*
X155033074Y-75850999D01*
X155033054Y-75851000D01*
X126921589Y-75851000D01*
X126854550Y-75831315D01*
X126824322Y-75803910D01*
X126820710Y-75799342D01*
X126696657Y-75675289D01*
X126696656Y-75675288D01*
X126547334Y-75583186D01*
X126380797Y-75528001D01*
X126380795Y-75528000D01*
X126278010Y-75517500D01*
X125227998Y-75517500D01*
X125227980Y-75517501D01*
X125125203Y-75528000D01*
X125125200Y-75528001D01*
X124958668Y-75583185D01*
X124958663Y-75583187D01*
X124809342Y-75675289D01*
X124685289Y-75799342D01*
X124677482Y-75812000D01*
X124614818Y-75913596D01*
X124614817Y-75913597D01*
X124562869Y-75960321D01*
X124509278Y-75972500D01*
X123270114Y-75972500D01*
X123203075Y-75952815D01*
X123164575Y-75913596D01*
X123158380Y-75903553D01*
X123090712Y-75793844D01*
X122966656Y-75669788D01*
X122826251Y-75583186D01*
X122817336Y-75577687D01*
X122817331Y-75577685D01*
X122815862Y-75577198D01*
X122650797Y-75522501D01*
X122650795Y-75522500D01*
X122548010Y-75512000D01*
X121497998Y-75512000D01*
X121497980Y-75512001D01*
X121393680Y-75522656D01*
X121324987Y-75509886D01*
X121293398Y-75486979D01*
X118607818Y-72801399D01*
X118574333Y-72740076D01*
X118571499Y-72713718D01*
X118571499Y-72051998D01*
X118571498Y-72051981D01*
X118560999Y-71949203D01*
X118560998Y-71949200D01*
X118555298Y-71932000D01*
X169719522Y-71932000D01*
X170547999Y-71932000D01*
X170522979Y-71992402D01*
X170498000Y-72117981D01*
X170498000Y-72246019D01*
X170522979Y-72371598D01*
X170547999Y-72432000D01*
X169719522Y-72432000D01*
X169733704Y-72521544D01*
X169804230Y-72738604D01*
X169907849Y-72941966D01*
X170042004Y-73126614D01*
X170203385Y-73287995D01*
X170388033Y-73422150D01*
X170591395Y-73525769D01*
X170808455Y-73596295D01*
X171033884Y-73632000D01*
X171398000Y-73632000D01*
X171398000Y-72832000D01*
X171898000Y-72832000D01*
X171898000Y-73632000D01*
X172262116Y-73632000D01*
X172487544Y-73596295D01*
X172704604Y-73525769D01*
X172907966Y-73422150D01*
X173092614Y-73287995D01*
X173253995Y-73126614D01*
X173388150Y-72941966D01*
X173491769Y-72738604D01*
X173562295Y-72521544D01*
X173576478Y-72432000D01*
X172748001Y-72432000D01*
X172773021Y-72371598D01*
X172798000Y-72246019D01*
X172798000Y-72117981D01*
X172773021Y-71992402D01*
X172748001Y-71932000D01*
X173576478Y-71932000D01*
X173562295Y-71842455D01*
X173491769Y-71625395D01*
X173388150Y-71422033D01*
X173253995Y-71237385D01*
X173092614Y-71076004D01*
X172907966Y-70941849D01*
X172704604Y-70838230D01*
X172487544Y-70767704D01*
X172262116Y-70732000D01*
X171898000Y-70732000D01*
X171898000Y-71532000D01*
X171398000Y-71532000D01*
X171398000Y-70732000D01*
X171033884Y-70732000D01*
X170808455Y-70767704D01*
X170591395Y-70838230D01*
X170388033Y-70941849D01*
X170203385Y-71076004D01*
X170042004Y-71237385D01*
X169907849Y-71422033D01*
X169804230Y-71625395D01*
X169733704Y-71842455D01*
X169719522Y-71932000D01*
X118555298Y-71932000D01*
X118505814Y-71782666D01*
X118413712Y-71633344D01*
X118289656Y-71509288D01*
X118196888Y-71452069D01*
X118140336Y-71417187D01*
X118140331Y-71417185D01*
X118138862Y-71416698D01*
X117973797Y-71362001D01*
X117973795Y-71362000D01*
X117871010Y-71351500D01*
X116870998Y-71351500D01*
X116870980Y-71351501D01*
X116768203Y-71362000D01*
X116768200Y-71362001D01*
X116601668Y-71417185D01*
X116601663Y-71417187D01*
X116452342Y-71509289D01*
X116328289Y-71633342D01*
X116236187Y-71782663D01*
X116236186Y-71782666D01*
X116181001Y-71949203D01*
X116181001Y-71949204D01*
X116181000Y-71949204D01*
X116170500Y-72051983D01*
X116170500Y-72534112D01*
X116150815Y-72601151D01*
X116134181Y-72621793D01*
X103045943Y-85710030D01*
X103045942Y-85710031D01*
X102963370Y-85833610D01*
X102963370Y-85833611D01*
X102943402Y-85881818D01*
X102909569Y-85963500D01*
X102909567Y-85963506D01*
X102906494Y-85970922D01*
X102906493Y-85970925D01*
X102877499Y-86116685D01*
X102877499Y-86271425D01*
X102877500Y-86271446D01*
X102877500Y-95641500D01*
X102857815Y-95708539D01*
X102805011Y-95754294D01*
X102753500Y-95765500D01*
X101779386Y-95765500D01*
X101712347Y-95745815D01*
X101691705Y-95729181D01*
X101179841Y-95217317D01*
X101146356Y-95155994D01*
X101151340Y-95086302D01*
X101193212Y-95030369D01*
X101246437Y-95009595D01*
X101246079Y-95007923D01*
X101252692Y-95006507D01*
X101419119Y-94951358D01*
X101419124Y-94951356D01*
X101568345Y-94859315D01*
X101692315Y-94735345D01*
X101784356Y-94586124D01*
X101784358Y-94586119D01*
X101839505Y-94419697D01*
X101839506Y-94419690D01*
X101849999Y-94316986D01*
X101850000Y-94316973D01*
X101850000Y-94042000D01*
X100886500Y-94042000D01*
X100819461Y-94022315D01*
X100773706Y-93969511D01*
X100762500Y-93918000D01*
X100762500Y-93792000D01*
X100636500Y-93792000D01*
X100569461Y-93772315D01*
X100523706Y-93719511D01*
X100512500Y-93668000D01*
X100512500Y-93542000D01*
X101012500Y-93542000D01*
X101849999Y-93542000D01*
X101849999Y-93267028D01*
X101849998Y-93267013D01*
X101839505Y-93164302D01*
X101784358Y-92997880D01*
X101784356Y-92997875D01*
X101692315Y-92848654D01*
X101568345Y-92724684D01*
X101419124Y-92632643D01*
X101419119Y-92632641D01*
X101252697Y-92577494D01*
X101252690Y-92577493D01*
X101149986Y-92567000D01*
X101012500Y-92567000D01*
X101012500Y-93542000D01*
X100512500Y-93542000D01*
X100512500Y-92567000D01*
X100375027Y-92567000D01*
X100375012Y-92567001D01*
X100272302Y-92577494D01*
X100105880Y-92632641D01*
X100105875Y-92632643D01*
X99956654Y-92724684D01*
X99832683Y-92848655D01*
X99832679Y-92848660D01*
X99830826Y-92851665D01*
X99829018Y-92853290D01*
X99828202Y-92854323D01*
X99828025Y-92854183D01*
X99778874Y-92898385D01*
X99709911Y-92909601D01*
X99645831Y-92881752D01*
X99619753Y-92851653D01*
X99619737Y-92851628D01*
X99617712Y-92848344D01*
X99493656Y-92724288D01*
X99493654Y-92724286D01*
X99489084Y-92720672D01*
X99448710Y-92663648D01*
X99442000Y-92623410D01*
X99442000Y-91236226D01*
X99461685Y-91169187D01*
X99514489Y-91123432D01*
X99531405Y-91117150D01*
X99556898Y-91109744D01*
X99698365Y-91026081D01*
X99814581Y-90909865D01*
X99898244Y-90768398D01*
X99944098Y-90610569D01*
X99947000Y-90573694D01*
X99947000Y-90332000D01*
X99966685Y-90264961D01*
X100019489Y-90219206D01*
X100071000Y-90208000D01*
X100334000Y-90208000D01*
X100834000Y-90208000D01*
X101237134Y-90208000D01*
X101237149Y-90207999D01*
X101273989Y-90205100D01*
X101273995Y-90205099D01*
X101431693Y-90159283D01*
X101431696Y-90159282D01*
X101573052Y-90075685D01*
X101573061Y-90075678D01*
X101689178Y-89959561D01*
X101689185Y-89959552D01*
X101772781Y-89818198D01*
X101818600Y-89660486D01*
X101818795Y-89658001D01*
X101818795Y-89658000D01*
X100834000Y-89658000D01*
X100834000Y-90208000D01*
X100334000Y-90208000D01*
X100334000Y-89658000D01*
X99678315Y-89658000D01*
X99615194Y-89640732D01*
X99556896Y-89606255D01*
X99556893Y-89606254D01*
X99399073Y-89560402D01*
X99399067Y-89560401D01*
X99362201Y-89557500D01*
X99362194Y-89557500D01*
X98975886Y-89557500D01*
X98908847Y-89537815D01*
X98863092Y-89485011D01*
X98853148Y-89415853D01*
X98882173Y-89352297D01*
X98888205Y-89345819D01*
X98939205Y-89294819D01*
X99000528Y-89261334D01*
X99026886Y-89258500D01*
X99362186Y-89258500D01*
X99362194Y-89258500D01*
X99399069Y-89255598D01*
X99399071Y-89255597D01*
X99399073Y-89255597D01*
X99470060Y-89234973D01*
X99556898Y-89209744D01*
X99615194Y-89175268D01*
X99678315Y-89158000D01*
X100334000Y-89158000D01*
X100834000Y-89158000D01*
X101818795Y-89158000D01*
X101818795Y-89157998D01*
X101818600Y-89155513D01*
X101772781Y-88997801D01*
X101689185Y-88856447D01*
X101689178Y-88856438D01*
X101573061Y-88740321D01*
X101573052Y-88740314D01*
X101431696Y-88656717D01*
X101431693Y-88656716D01*
X101273995Y-88610900D01*
X101273989Y-88610899D01*
X101237149Y-88608000D01*
X100834000Y-88608000D01*
X100834000Y-89158000D01*
X100334000Y-89158000D01*
X100334000Y-88608000D01*
X100071000Y-88608000D01*
X100003961Y-88588315D01*
X99958206Y-88535511D01*
X99947000Y-88484000D01*
X99947000Y-88242313D01*
X99946999Y-88242298D01*
X99946800Y-88239772D01*
X99944098Y-88205431D01*
X99932607Y-88165880D01*
X99898245Y-88047606D01*
X99898244Y-88047603D01*
X99898244Y-88047602D01*
X99814581Y-87906135D01*
X99814579Y-87906133D01*
X99814576Y-87906129D01*
X99698370Y-87789923D01*
X99698362Y-87789917D01*
X99556897Y-87706255D01*
X99552902Y-87705095D01*
X99550141Y-87703331D01*
X99549735Y-87703156D01*
X99549763Y-87703090D01*
X99494017Y-87667487D01*
X99464813Y-87604014D01*
X99463500Y-87586019D01*
X99463500Y-85924230D01*
X99483185Y-85857191D01*
X99499819Y-85836549D01*
X99549803Y-85786565D01*
X99617712Y-85718656D01*
X99619752Y-85715347D01*
X99621745Y-85713555D01*
X99622193Y-85712989D01*
X99622289Y-85713065D01*
X99671694Y-85668623D01*
X99740656Y-85657395D01*
X99804740Y-85685234D01*
X99830829Y-85715339D01*
X99832681Y-85718341D01*
X99832683Y-85718344D01*
X99956654Y-85842315D01*
X100105875Y-85934356D01*
X100105880Y-85934358D01*
X100272302Y-85989505D01*
X100272309Y-85989506D01*
X100375019Y-85999999D01*
X100512499Y-85999999D01*
X101012500Y-85999999D01*
X101149972Y-85999999D01*
X101149986Y-85999998D01*
X101252697Y-85989505D01*
X101419119Y-85934358D01*
X101419124Y-85934356D01*
X101568345Y-85842315D01*
X101692315Y-85718345D01*
X101784356Y-85569124D01*
X101784358Y-85569119D01*
X101839505Y-85402697D01*
X101839506Y-85402690D01*
X101849999Y-85299986D01*
X101850000Y-85299973D01*
X101850000Y-85025000D01*
X101012500Y-85025000D01*
X101012500Y-85999999D01*
X100512499Y-85999999D01*
X100512500Y-85999998D01*
X100512500Y-84525000D01*
X101012500Y-84525000D01*
X101849999Y-84525000D01*
X101849999Y-84250028D01*
X101849998Y-84250013D01*
X101839505Y-84147302D01*
X101784358Y-83980880D01*
X101784356Y-83980875D01*
X101692315Y-83831654D01*
X101568345Y-83707684D01*
X101419124Y-83615643D01*
X101419119Y-83615641D01*
X101252697Y-83560494D01*
X101252690Y-83560493D01*
X101149986Y-83550000D01*
X101012500Y-83550000D01*
X101012500Y-84525000D01*
X100512500Y-84525000D01*
X100512500Y-83550000D01*
X100375027Y-83550000D01*
X100375012Y-83550001D01*
X100272302Y-83560494D01*
X100105880Y-83615641D01*
X100105875Y-83615643D01*
X99956654Y-83707684D01*
X99832683Y-83831655D01*
X99832679Y-83831660D01*
X99830826Y-83834665D01*
X99829018Y-83836290D01*
X99828202Y-83837323D01*
X99828025Y-83837183D01*
X99778874Y-83881385D01*
X99709911Y-83892601D01*
X99645831Y-83864752D01*
X99619753Y-83834653D01*
X99619737Y-83834628D01*
X99617712Y-83831344D01*
X99493656Y-83707288D01*
X99395869Y-83646973D01*
X99344336Y-83615187D01*
X99344331Y-83615185D01*
X99318695Y-83606690D01*
X99177797Y-83560001D01*
X99177795Y-83560000D01*
X99075010Y-83549500D01*
X98299998Y-83549500D01*
X98299980Y-83549501D01*
X98197203Y-83560000D01*
X98197200Y-83560001D01*
X98030668Y-83615185D01*
X98030663Y-83615187D01*
X97881342Y-83707289D01*
X97757289Y-83831342D01*
X97665187Y-83980663D01*
X97665185Y-83980668D01*
X97657619Y-84003501D01*
X97610001Y-84147203D01*
X97610001Y-84147204D01*
X97610000Y-84147204D01*
X97599500Y-84249983D01*
X97599500Y-85300001D01*
X97599501Y-85300019D01*
X97610000Y-85402796D01*
X97610001Y-85402799D01*
X97665115Y-85569119D01*
X97665186Y-85569334D01*
X97757096Y-85718345D01*
X97757289Y-85718657D01*
X97881345Y-85842713D01*
X97895592Y-85851500D01*
X97942319Y-85903445D01*
X97954500Y-85957041D01*
X97954500Y-87586019D01*
X97934815Y-87653058D01*
X97882011Y-87698813D01*
X97865098Y-87705095D01*
X97861102Y-87706255D01*
X97719637Y-87789917D01*
X97719629Y-87789923D01*
X97603423Y-87906129D01*
X97603417Y-87906137D01*
X97519755Y-88047603D01*
X97519754Y-88047606D01*
X97473902Y-88205426D01*
X97473901Y-88205432D01*
X97471000Y-88242298D01*
X97471000Y-88577612D01*
X97451315Y-88644651D01*
X97434681Y-88665293D01*
X95541943Y-90558030D01*
X95541942Y-90558031D01*
X95459372Y-90681607D01*
X95459368Y-90681614D01*
X95434218Y-90742334D01*
X95402496Y-90818917D01*
X95402495Y-90818920D01*
X95400677Y-90828060D01*
X95400676Y-90828064D01*
X95373499Y-90964685D01*
X95373499Y-91119425D01*
X95373500Y-91119446D01*
X95373500Y-106332052D01*
X95373499Y-106332078D01*
X95373499Y-106485814D01*
X95391811Y-106577867D01*
X95391811Y-106577869D01*
X95402493Y-106631572D01*
X95402496Y-106631584D01*
X95419286Y-106672117D01*
X95459368Y-106768885D01*
X95459372Y-106768892D01*
X95541942Y-106892468D01*
X95541943Y-106892469D01*
X96045181Y-107395705D01*
X96078666Y-107457028D01*
X96081500Y-107483386D01*
X96081500Y-107978001D01*
X96081501Y-107978019D01*
X96092000Y-108080796D01*
X96092001Y-108080799D01*
X96147185Y-108247331D01*
X96147187Y-108247336D01*
X96158105Y-108265037D01*
X96239288Y-108396656D01*
X96363344Y-108520712D01*
X96512666Y-108612814D01*
X96679203Y-108667999D01*
X96781991Y-108678500D01*
X97832008Y-108678499D01*
X97832016Y-108678498D01*
X97832019Y-108678498D01*
X97888302Y-108672748D01*
X97934797Y-108667999D01*
X98101334Y-108612814D01*
X98250656Y-108520712D01*
X98374712Y-108396656D01*
X98374716Y-108396649D01*
X98378322Y-108392090D01*
X98435344Y-108351713D01*
X98475589Y-108345000D01*
X98626613Y-108345000D01*
X98693652Y-108364685D01*
X98714294Y-108381319D01*
X98970181Y-108637205D01*
X99003666Y-108698528D01*
X99006500Y-108724886D01*
X99006500Y-109558122D01*
X99006501Y-109558125D01*
X99009399Y-109600886D01*
X99009399Y-109600887D01*
X99014872Y-109622894D01*
X99053529Y-109778336D01*
X99055360Y-109785696D01*
X99139967Y-109956292D01*
X99139969Y-109956295D01*
X99259277Y-110104721D01*
X99259278Y-110104722D01*
X99407704Y-110224030D01*
X99407707Y-110224032D01*
X99513103Y-110276303D01*
X99578307Y-110308641D01*
X99658428Y-110328566D01*
X99718733Y-110363847D01*
X99750392Y-110426133D01*
X99752500Y-110448900D01*
X99752500Y-112936517D01*
X99734038Y-113001614D01*
X99710918Y-113039097D01*
X99658970Y-113085822D01*
X99605380Y-113098000D01*
X98390947Y-113098000D01*
X98323908Y-113078315D01*
X98285409Y-113039099D01*
X98250712Y-112982844D01*
X98126656Y-112858788D01*
X97977334Y-112766686D01*
X97810797Y-112711501D01*
X97810795Y-112711500D01*
X97708010Y-112701000D01*
X96657998Y-112701000D01*
X96657980Y-112701001D01*
X96555203Y-112711500D01*
X96555200Y-112711501D01*
X96388668Y-112766685D01*
X96388663Y-112766687D01*
X96239342Y-112858789D01*
X96115290Y-112982841D01*
X96115288Y-112982843D01*
X96115288Y-112982844D01*
X96080590Y-113039098D01*
X96028644Y-113085821D01*
X95975053Y-113098000D01*
X94552947Y-113098000D01*
X94485908Y-113078315D01*
X94447409Y-113039099D01*
X94412712Y-112982844D01*
X94288656Y-112858788D01*
X94139334Y-112766686D01*
X93972797Y-112711501D01*
X93972795Y-112711500D01*
X93870010Y-112701000D01*
X92819998Y-112701000D01*
X92819980Y-112701001D01*
X92717203Y-112711500D01*
X92717200Y-112711501D01*
X92550668Y-112766685D01*
X92550663Y-112766687D01*
X92401342Y-112858789D01*
X92277289Y-112982842D01*
X92185187Y-113132163D01*
X92185186Y-113132166D01*
X92130001Y-113298703D01*
X92130001Y-113298704D01*
X92130000Y-113298704D01*
X92119500Y-113401483D01*
X89392179Y-113401483D01*
X89281302Y-67941997D01*
X89300823Y-67874912D01*
X89353516Y-67829029D01*
X89404995Y-67817697D01*
X193423700Y-67564302D01*
X193490785Y-67583824D01*
G37*
%TD.AperFunction*%
%TD*%
M02*
