%TF.GenerationSoftware,KiCad,Pcbnew,8.0.8*%
%TF.CreationDate,2025-03-11T03:54:01-05:00*%
%TF.ProjectId,finalproject,66696e61-6c70-4726-9f6a-6563742e6b69,rev?*%
%TF.SameCoordinates,Original*%
%TF.FileFunction,Copper,L2,Bot*%
%TF.FilePolarity,Positive*%
%FSLAX46Y46*%
G04 Gerber Fmt 4.6, Leading zero omitted, Abs format (unit mm)*
G04 Created by KiCad (PCBNEW 8.0.8) date 2025-03-11 03:54:01*
%MOMM*%
%LPD*%
G01*
G04 APERTURE LIST*
G04 Aperture macros list*
%AMRoundRect*
0 Rectangle with rounded corners*
0 $1 Rounding radius*
0 $2 $3 $4 $5 $6 $7 $8 $9 X,Y pos of 4 corners*
0 Add a 4 corners polygon primitive as box body*
4,1,4,$2,$3,$4,$5,$6,$7,$8,$9,$2,$3,0*
0 Add four circle primitives for the rounded corners*
1,1,$1+$1,$2,$3*
1,1,$1+$1,$4,$5*
1,1,$1+$1,$6,$7*
1,1,$1+$1,$8,$9*
0 Add four rect primitives between the rounded corners*
20,1,$1+$1,$2,$3,$4,$5,0*
20,1,$1+$1,$4,$5,$6,$7,0*
20,1,$1+$1,$6,$7,$8,$9,0*
20,1,$1+$1,$8,$9,$2,$3,0*%
G04 Aperture macros list end*
%TA.AperFunction,ComponentPad*%
%ADD10RoundRect,0.250000X0.625000X-0.350000X0.625000X0.350000X-0.625000X0.350000X-0.625000X-0.350000X0*%
%TD*%
%TA.AperFunction,ComponentPad*%
%ADD11O,1.750000X1.200000*%
%TD*%
%TA.AperFunction,ComponentPad*%
%ADD12O,1.900000X2.900000*%
%TD*%
%TA.AperFunction,ComponentPad*%
%ADD13O,2.900000X1.900000*%
%TD*%
%TA.AperFunction,ComponentPad*%
%ADD14C,1.300000*%
%TD*%
%TA.AperFunction,ComponentPad*%
%ADD15R,1.300000X1.300000*%
%TD*%
%TA.AperFunction,ComponentPad*%
%ADD16RoundRect,0.250000X-0.625000X0.350000X-0.625000X-0.350000X0.625000X-0.350000X0.625000X0.350000X0*%
%TD*%
%TA.AperFunction,ComponentPad*%
%ADD17C,2.000000*%
%TD*%
%TA.AperFunction,ViaPad*%
%ADD18C,0.600000*%
%TD*%
%TA.AperFunction,Conductor*%
%ADD19C,0.254000*%
%TD*%
%TA.AperFunction,Conductor*%
%ADD20C,0.381000*%
%TD*%
%TA.AperFunction,Conductor*%
%ADD21C,0.508000*%
%TD*%
G04 APERTURE END LIST*
D10*
%TO.P,GSR_IN1,1,Pin_1*%
%TO.N,Net-(GSR_IN1-Pin_1)*%
X109728000Y-93980000D03*
D11*
%TO.P,GSR_IN1,2,Pin_2*%
%TO.N,GND*%
X109728000Y-91980000D03*
%TD*%
D12*
%TO.P,USB1,5,Shield*%
%TO.N,GND*%
X178218000Y-76362000D03*
D13*
X171648000Y-72182000D03*
D12*
X165078000Y-76362000D03*
D14*
%TO.P,USB1,4,GND*%
X175148000Y-76962000D03*
%TO.P,USB1,3,D+*%
%TO.N,Net-(D2-K)*%
X172648000Y-76962000D03*
%TO.P,USB1,2,D-*%
%TO.N,Net-(D3-K)*%
X170648000Y-76962000D03*
D15*
%TO.P,USB1,1,VBUS*%
%TO.N,+5V*%
X168148000Y-76962000D03*
%TD*%
D16*
%TO.P,SIG1,1,Pin_1*%
%TO.N,/SIG*%
X149733000Y-95917000D03*
D11*
%TO.P,SIG1,2,Pin_2*%
%TO.N,unconnected-(SIG1-Pin_2-Pad2)*%
X149733000Y-97917000D03*
%TD*%
D16*
%TO.P,HEARTOUT1,1,Pin_1*%
%TO.N,/SDA*%
X141012000Y-109109000D03*
D11*
%TO.P,HEARTOUT1,2,Pin_2*%
%TO.N,/SCL*%
X141012000Y-111109000D03*
%TD*%
D17*
%TO.P,SW1,1,1*%
%TO.N,GND*%
X189813000Y-104612000D03*
X183313000Y-104612000D03*
%TO.P,SW1,2,2*%
%TO.N,Net-(MCU1-NRST)*%
X189813000Y-100112000D03*
X183313000Y-100112000D03*
%TD*%
D18*
%TO.N,GND*%
X168021000Y-98130815D03*
X166751000Y-97663000D03*
X165735000Y-100869000D03*
%TO.N,Net-(D2-K)*%
X173420000Y-85979000D03*
X174752000Y-85725000D03*
%TO.N,+3.3V*%
X175387000Y-103886000D03*
X166497000Y-99115000D03*
%TO.N,+1V8*%
X129667000Y-108644000D03*
X129667000Y-110698000D03*
X122682000Y-104394000D03*
X124773758Y-104453758D03*
X122809000Y-108458000D03*
X120015000Y-106934000D03*
%TO.N,+3.3V*%
X165755644Y-85770356D03*
X175339000Y-100115000D03*
X175466000Y-102730000D03*
X169878000Y-87490000D03*
%TO.N,+5V*%
X121793000Y-88773000D03*
X121539000Y-92075000D03*
%TO.N,Net-(GSR1-Pad3)*%
X116843000Y-86614000D03*
X121923000Y-86741000D03*
%TO.N,Net-(GSR1-Pad10)*%
X130683000Y-89281000D03*
X133223000Y-92329000D03*
X132461000Y-90043000D03*
X133858000Y-98933000D03*
%TO.N,/RX*%
X175593000Y-91554000D03*
X173941000Y-95872000D03*
%TO.N,/SIG*%
X175641000Y-96774000D03*
%TO.N,/SCL*%
X154940000Y-104775000D03*
X155448000Y-103378000D03*
%TO.N,/SIG*%
X160230242Y-96436758D03*
%TO.N,GND*%
X171196000Y-99441000D03*
%TD*%
D19*
%TO.N,GND*%
X169885815Y-98130815D02*
X168021000Y-98130815D01*
X165735000Y-98679000D02*
X166751000Y-97663000D01*
X165735000Y-100869000D02*
X165735000Y-98679000D01*
%TO.N,Net-(D2-K)*%
X174752000Y-85725000D02*
X173674000Y-85725000D01*
X173674000Y-85725000D02*
X173420000Y-85979000D01*
D20*
%TO.N,+3.3V*%
X171268000Y-103886000D02*
X175387000Y-103886000D01*
X166497000Y-99115000D02*
X171268000Y-103886000D01*
D19*
%TO.N,+1V8*%
X129667000Y-108644000D02*
X129667000Y-110698000D01*
X124714000Y-104394000D02*
X124773758Y-104453758D01*
X122682000Y-104394000D02*
X124714000Y-104394000D01*
X121539000Y-108458000D02*
X122809000Y-108458000D01*
X120015000Y-106934000D02*
X121539000Y-108458000D01*
%TO.N,+3.3V*%
X175339000Y-102603000D02*
X175466000Y-102730000D01*
X165755644Y-85770356D02*
X168158356Y-85770356D01*
X168158356Y-85770356D02*
X169878000Y-87490000D01*
X175339000Y-100115000D02*
X175339000Y-102603000D01*
D21*
%TO.N,+5V*%
X121539000Y-92075000D02*
X121539000Y-89027000D01*
X121539000Y-89027000D02*
X121793000Y-88773000D01*
D19*
%TO.N,Net-(GSR1-Pad3)*%
X116843000Y-86614000D02*
X116970000Y-86741000D01*
X116970000Y-86741000D02*
X121923000Y-86741000D01*
%TO.N,Net-(GSR1-Pad10)*%
X133223000Y-92329000D02*
X133223000Y-98298000D01*
X132461000Y-90043000D02*
X131445000Y-90043000D01*
X133223000Y-98298000D02*
X133858000Y-98933000D01*
X131445000Y-90043000D02*
X130683000Y-89281000D01*
%TO.N,/RX*%
X175593000Y-94220000D02*
X175593000Y-91554000D01*
X173941000Y-95872000D02*
X175593000Y-94220000D01*
%TO.N,/SCL*%
X155448000Y-104267000D02*
X154940000Y-104775000D01*
X155448000Y-103378000D02*
X155448000Y-104267000D01*
%TO.N,/SIG*%
X160230242Y-96436758D02*
X160567484Y-96774000D01*
X160567484Y-96774000D02*
X175641000Y-96774000D01*
%TO.N,GND*%
X171196000Y-99441000D02*
X169885815Y-98130815D01*
%TD*%
%TA.AperFunction,Conductor*%
%TO.N,GND*%
G36*
X193618972Y-67710820D02*
G01*
X193664855Y-67763513D01*
X193676180Y-67814109D01*
X194181794Y-120524355D01*
X194162754Y-120591580D01*
X194110391Y-120637839D01*
X194057350Y-120649543D01*
X89403643Y-120269445D01*
X89336675Y-120249517D01*
X89291112Y-120196547D01*
X89280096Y-120146360D01*
X89182707Y-106933996D01*
X119209435Y-106933996D01*
X119209435Y-106934003D01*
X119229630Y-107113249D01*
X119229631Y-107113254D01*
X119289211Y-107283523D01*
X119385184Y-107436262D01*
X119512738Y-107563816D01*
X119665478Y-107659789D01*
X119835745Y-107719368D01*
X119879635Y-107724313D01*
X119944048Y-107751378D01*
X119953433Y-107759852D01*
X121051589Y-108858008D01*
X121138992Y-108945411D01*
X121138993Y-108945412D01*
X121210995Y-108993522D01*
X121210994Y-108993522D01*
X121241756Y-109014076D01*
X121241759Y-109014077D01*
X121241767Y-109014083D01*
X121355965Y-109061385D01*
X121355969Y-109061385D01*
X121355970Y-109061386D01*
X121477193Y-109085500D01*
X121477196Y-109085500D01*
X121477197Y-109085500D01*
X122267328Y-109085500D01*
X122333299Y-109104505D01*
X122459478Y-109183789D01*
X122629745Y-109243368D01*
X122629750Y-109243369D01*
X122808996Y-109263565D01*
X122809000Y-109263565D01*
X122809004Y-109263565D01*
X122988249Y-109243369D01*
X122988252Y-109243368D01*
X122988255Y-109243368D01*
X123158522Y-109183789D01*
X123311262Y-109087816D01*
X123438816Y-108960262D01*
X123534789Y-108807522D01*
X123592009Y-108643996D01*
X128861435Y-108643996D01*
X128861435Y-108644003D01*
X128881630Y-108823249D01*
X128881631Y-108823254D01*
X128941211Y-108993524D01*
X129020493Y-109119698D01*
X129039500Y-109185671D01*
X129039500Y-110156328D01*
X129020494Y-110222300D01*
X128941211Y-110348476D01*
X128881631Y-110518745D01*
X128881630Y-110518750D01*
X128861435Y-110697996D01*
X128861435Y-110698003D01*
X128881630Y-110877249D01*
X128881631Y-110877254D01*
X128941211Y-111047523D01*
X129034261Y-111195610D01*
X129037184Y-111200262D01*
X129164738Y-111327816D01*
X129317478Y-111423789D01*
X129487745Y-111483368D01*
X129487750Y-111483369D01*
X129666996Y-111503565D01*
X129667000Y-111503565D01*
X129667004Y-111503565D01*
X129846249Y-111483369D01*
X129846252Y-111483368D01*
X129846255Y-111483368D01*
X130016522Y-111423789D01*
X130169262Y-111327816D01*
X130296816Y-111200262D01*
X130392789Y-111047522D01*
X130452368Y-110877255D01*
X130472565Y-110698000D01*
X130471275Y-110686555D01*
X130452369Y-110518750D01*
X130452368Y-110518745D01*
X130392789Y-110348478D01*
X130313505Y-110222299D01*
X130294500Y-110156328D01*
X130294500Y-109185671D01*
X130313507Y-109119698D01*
X130392788Y-108993524D01*
X130409623Y-108945412D01*
X130452368Y-108823255D01*
X130465242Y-108708998D01*
X130465244Y-108708983D01*
X139636500Y-108708983D01*
X139636500Y-109509001D01*
X139636501Y-109509019D01*
X139647000Y-109611796D01*
X139647001Y-109611799D01*
X139702185Y-109778331D01*
X139702186Y-109778334D01*
X139794288Y-109927656D01*
X139918344Y-110051712D01*
X139982543Y-110091310D01*
X140029268Y-110143258D01*
X140040489Y-110212221D01*
X140012646Y-110276303D01*
X140005128Y-110284530D01*
X139897585Y-110392073D01*
X139795768Y-110532211D01*
X139717128Y-110686552D01*
X139663597Y-110851302D01*
X139659487Y-110877254D01*
X139636500Y-111022389D01*
X139636500Y-111195611D01*
X139663598Y-111366701D01*
X139717127Y-111531445D01*
X139795768Y-111685788D01*
X139897586Y-111825928D01*
X140020072Y-111948414D01*
X140160212Y-112050232D01*
X140314555Y-112128873D01*
X140479299Y-112182402D01*
X140650389Y-112209500D01*
X140650390Y-112209500D01*
X141373610Y-112209500D01*
X141373611Y-112209500D01*
X141544701Y-112182402D01*
X141709445Y-112128873D01*
X141863788Y-112050232D01*
X142003928Y-111948414D01*
X142126414Y-111825928D01*
X142228232Y-111685788D01*
X142306873Y-111531445D01*
X142360402Y-111366701D01*
X142387500Y-111195611D01*
X142387500Y-111022389D01*
X142360402Y-110851299D01*
X142306873Y-110686555D01*
X142228232Y-110532212D01*
X142126414Y-110392072D01*
X142018872Y-110284530D01*
X141985387Y-110223207D01*
X141990371Y-110153515D01*
X142032243Y-110097582D01*
X142041457Y-110091310D01*
X142105656Y-110051712D01*
X142229712Y-109927656D01*
X142321814Y-109778334D01*
X142376999Y-109611797D01*
X142387500Y-109509009D01*
X142387499Y-108708992D01*
X142376999Y-108606203D01*
X142321814Y-108439666D01*
X142229712Y-108290344D01*
X142105656Y-108166288D01*
X141956334Y-108074186D01*
X141789797Y-108019001D01*
X141789795Y-108019000D01*
X141687010Y-108008500D01*
X140336998Y-108008500D01*
X140336981Y-108008501D01*
X140234203Y-108019000D01*
X140234200Y-108019001D01*
X140067668Y-108074185D01*
X140067663Y-108074187D01*
X139918342Y-108166289D01*
X139794289Y-108290342D01*
X139702187Y-108439663D01*
X139702185Y-108439668D01*
X139693874Y-108464750D01*
X139647001Y-108606203D01*
X139647001Y-108606204D01*
X139647000Y-108606204D01*
X139636500Y-108708983D01*
X130465244Y-108708983D01*
X130472565Y-108644003D01*
X130472565Y-108643996D01*
X130452369Y-108464750D01*
X130452368Y-108464745D01*
X130392788Y-108294476D01*
X130296815Y-108141737D01*
X130169262Y-108014184D01*
X130016523Y-107918211D01*
X129846254Y-107858631D01*
X129846249Y-107858630D01*
X129667004Y-107838435D01*
X129666996Y-107838435D01*
X129487750Y-107858630D01*
X129487745Y-107858631D01*
X129317476Y-107918211D01*
X129164737Y-108014184D01*
X129037184Y-108141737D01*
X128941211Y-108294476D01*
X128881631Y-108464745D01*
X128881630Y-108464750D01*
X128861435Y-108643996D01*
X123592009Y-108643996D01*
X123594368Y-108637255D01*
X123597867Y-108606200D01*
X123614565Y-108458003D01*
X123614565Y-108457996D01*
X123594369Y-108278750D01*
X123594368Y-108278745D01*
X123555018Y-108166289D01*
X123534789Y-108108478D01*
X123438816Y-107955738D01*
X123311262Y-107828184D01*
X123284700Y-107811494D01*
X123158523Y-107732211D01*
X122988254Y-107672631D01*
X122988249Y-107672630D01*
X122809004Y-107652435D01*
X122808996Y-107652435D01*
X122629750Y-107672630D01*
X122629745Y-107672631D01*
X122459476Y-107732211D01*
X122333300Y-107811494D01*
X122267328Y-107830500D01*
X121850281Y-107830500D01*
X121783242Y-107810815D01*
X121762600Y-107794181D01*
X120840852Y-106872433D01*
X120807367Y-106811110D01*
X120805314Y-106798648D01*
X120800368Y-106754745D01*
X120740789Y-106584478D01*
X120644816Y-106431738D01*
X120517262Y-106304184D01*
X120364523Y-106208211D01*
X120194254Y-106148631D01*
X120194249Y-106148630D01*
X120015004Y-106128435D01*
X120014996Y-106128435D01*
X119835750Y-106148630D01*
X119835745Y-106148631D01*
X119665476Y-106208211D01*
X119512737Y-106304184D01*
X119385184Y-106431737D01*
X119289211Y-106584476D01*
X119229631Y-106754745D01*
X119229630Y-106754750D01*
X119209435Y-106933996D01*
X89182707Y-106933996D01*
X89165306Y-104573249D01*
X89163985Y-104393996D01*
X121876435Y-104393996D01*
X121876435Y-104394003D01*
X121896630Y-104573249D01*
X121896631Y-104573254D01*
X121956211Y-104743523D01*
X121993759Y-104803280D01*
X122052184Y-104896262D01*
X122179738Y-105023816D01*
X122332478Y-105119789D01*
X122453110Y-105162000D01*
X122502745Y-105179368D01*
X122502750Y-105179369D01*
X122681996Y-105199565D01*
X122682000Y-105199565D01*
X122682004Y-105199565D01*
X122861249Y-105179369D01*
X122861252Y-105179368D01*
X122861255Y-105179368D01*
X123031522Y-105119789D01*
X123157700Y-105040505D01*
X123223672Y-105021500D01*
X124158060Y-105021500D01*
X124225099Y-105041185D01*
X124245741Y-105057819D01*
X124271496Y-105083574D01*
X124298779Y-105100717D01*
X124423952Y-105179369D01*
X124424236Y-105179547D01*
X124594503Y-105239126D01*
X124594508Y-105239127D01*
X124773754Y-105259323D01*
X124773758Y-105259323D01*
X124773762Y-105259323D01*
X124953007Y-105239127D01*
X124953010Y-105239126D01*
X124953013Y-105239126D01*
X125123280Y-105179547D01*
X125276020Y-105083574D01*
X125403574Y-104956020D01*
X125499547Y-104803280D01*
X125509444Y-104774996D01*
X154134435Y-104774996D01*
X154134435Y-104775003D01*
X154154630Y-104954249D01*
X154154631Y-104954254D01*
X154214211Y-105124523D01*
X154286222Y-105239127D01*
X154310184Y-105277262D01*
X154437738Y-105404816D01*
X154590478Y-105500789D01*
X154760745Y-105560368D01*
X154760750Y-105560369D01*
X154939996Y-105580565D01*
X154940000Y-105580565D01*
X154940004Y-105580565D01*
X155119249Y-105560369D01*
X155119252Y-105560368D01*
X155119255Y-105560368D01*
X155289522Y-105500789D01*
X155442262Y-105404816D01*
X155569816Y-105277262D01*
X155665789Y-105124522D01*
X155725368Y-104954255D01*
X155730313Y-104910361D01*
X155757378Y-104845951D01*
X155765832Y-104836586D01*
X155935410Y-104667009D01*
X155958126Y-104633013D01*
X156004083Y-104564233D01*
X156051385Y-104450035D01*
X156075500Y-104328803D01*
X156075500Y-103919671D01*
X156094507Y-103853698D01*
X156114560Y-103821785D01*
X156136174Y-103787384D01*
X156173788Y-103727524D01*
X156194480Y-103668390D01*
X156233368Y-103557255D01*
X156235709Y-103536478D01*
X156253565Y-103378003D01*
X156253565Y-103377996D01*
X156233369Y-103198750D01*
X156233368Y-103198745D01*
X156217332Y-103152916D01*
X156173789Y-103028478D01*
X156077816Y-102875738D01*
X155950262Y-102748184D01*
X155921327Y-102730003D01*
X155797523Y-102652211D01*
X155627254Y-102592631D01*
X155627249Y-102592630D01*
X155448004Y-102572435D01*
X155447996Y-102572435D01*
X155268750Y-102592630D01*
X155268745Y-102592631D01*
X155098476Y-102652211D01*
X154945737Y-102748184D01*
X154818184Y-102875737D01*
X154722211Y-103028476D01*
X154662631Y-103198745D01*
X154662630Y-103198750D01*
X154642435Y-103377996D01*
X154642435Y-103378003D01*
X154662630Y-103557249D01*
X154662631Y-103557254D01*
X154722211Y-103727523D01*
X154781440Y-103821785D01*
X154800440Y-103889022D01*
X154780072Y-103955857D01*
X154726804Y-104001071D01*
X154717400Y-104004799D01*
X154590478Y-104049210D01*
X154437737Y-104145184D01*
X154310184Y-104272737D01*
X154214211Y-104425476D01*
X154154631Y-104595745D01*
X154154630Y-104595750D01*
X154134435Y-104774996D01*
X125509444Y-104774996D01*
X125559126Y-104633013D01*
X125561493Y-104612005D01*
X125579323Y-104453761D01*
X125579323Y-104453754D01*
X125559127Y-104274508D01*
X125559126Y-104274503D01*
X125545486Y-104235522D01*
X125499547Y-104104236D01*
X125403574Y-103951496D01*
X125276020Y-103823942D01*
X125180916Y-103764184D01*
X125123281Y-103727969D01*
X124953012Y-103668389D01*
X124953007Y-103668388D01*
X124773762Y-103648193D01*
X124773754Y-103648193D01*
X124594508Y-103668388D01*
X124594495Y-103668391D01*
X124424237Y-103727967D01*
X124393161Y-103747494D01*
X124327190Y-103766500D01*
X123223672Y-103766500D01*
X123157700Y-103747494D01*
X123031523Y-103668211D01*
X122861254Y-103608631D01*
X122861249Y-103608630D01*
X122682004Y-103588435D01*
X122681996Y-103588435D01*
X122502750Y-103608630D01*
X122502745Y-103608631D01*
X122332476Y-103668211D01*
X122179737Y-103764184D01*
X122052184Y-103891737D01*
X121956211Y-104044476D01*
X121896631Y-104214745D01*
X121896630Y-104214750D01*
X121876435Y-104393996D01*
X89163985Y-104393996D01*
X89084275Y-93579983D01*
X108352500Y-93579983D01*
X108352500Y-94380001D01*
X108352501Y-94380019D01*
X108363000Y-94482796D01*
X108363001Y-94482799D01*
X108374415Y-94517243D01*
X108418186Y-94649334D01*
X108510288Y-94798656D01*
X108634344Y-94922712D01*
X108783666Y-95014814D01*
X108950203Y-95069999D01*
X109052991Y-95080500D01*
X110403008Y-95080499D01*
X110411496Y-95079632D01*
X110438945Y-95076828D01*
X110505797Y-95069999D01*
X110672334Y-95014814D01*
X110821656Y-94922712D01*
X110945712Y-94798656D01*
X111037814Y-94649334D01*
X111092999Y-94482797D01*
X111103500Y-94380009D01*
X111103499Y-93579992D01*
X111092999Y-93477203D01*
X111037814Y-93310666D01*
X110945712Y-93161344D01*
X110821656Y-93037288D01*
X110821655Y-93037287D01*
X110757019Y-92997420D01*
X110710294Y-92945472D01*
X110699071Y-92876510D01*
X110726914Y-92812428D01*
X110734434Y-92804199D01*
X110842035Y-92696598D01*
X110943804Y-92556524D01*
X111022408Y-92402255D01*
X111075914Y-92237584D01*
X111077115Y-92230000D01*
X110008330Y-92230000D01*
X110028075Y-92210255D01*
X110077444Y-92124745D01*
X110090774Y-92074996D01*
X120733435Y-92074996D01*
X120733435Y-92075003D01*
X120753630Y-92254249D01*
X120753631Y-92254254D01*
X120813211Y-92424523D01*
X120865820Y-92508249D01*
X120909184Y-92577262D01*
X121036738Y-92704816D01*
X121189478Y-92800789D01*
X121276565Y-92831262D01*
X121359745Y-92860368D01*
X121359750Y-92860369D01*
X121538996Y-92880565D01*
X121539000Y-92880565D01*
X121539004Y-92880565D01*
X121718249Y-92860369D01*
X121718252Y-92860368D01*
X121718255Y-92860368D01*
X121888522Y-92800789D01*
X122041262Y-92704816D01*
X122168816Y-92577262D01*
X122264789Y-92424522D01*
X122298215Y-92328996D01*
X132417435Y-92328996D01*
X132417435Y-92329003D01*
X132437630Y-92508249D01*
X132437631Y-92508254D01*
X132497211Y-92678524D01*
X132576493Y-92804698D01*
X132595500Y-92870671D01*
X132595500Y-98359807D01*
X132619612Y-98481028D01*
X132619614Y-98481034D01*
X132641136Y-98532992D01*
X132641136Y-98532993D01*
X132666915Y-98595229D01*
X132666920Y-98595239D01*
X132732148Y-98692858D01*
X132732152Y-98692864D01*
X132735587Y-98698006D01*
X133032146Y-98994565D01*
X133065631Y-99055888D01*
X133067685Y-99068361D01*
X133072630Y-99112249D01*
X133132210Y-99282521D01*
X133161812Y-99329632D01*
X133228184Y-99435262D01*
X133355738Y-99562816D01*
X133508478Y-99658789D01*
X133678745Y-99718368D01*
X133678750Y-99718369D01*
X133857996Y-99738565D01*
X133858000Y-99738565D01*
X133858004Y-99738565D01*
X134037249Y-99718369D01*
X134037252Y-99718368D01*
X134037255Y-99718368D01*
X134207522Y-99658789D01*
X134360262Y-99562816D01*
X134487816Y-99435262D01*
X134583789Y-99282522D01*
X134642409Y-99114996D01*
X165691435Y-99114996D01*
X165691435Y-99115003D01*
X165711630Y-99294249D01*
X165711631Y-99294254D01*
X165771211Y-99464523D01*
X165832973Y-99562816D01*
X165867184Y-99617262D01*
X165994738Y-99744816D01*
X166147478Y-99840789D01*
X166271651Y-99884238D01*
X166318377Y-99913599D01*
X170827509Y-104422731D01*
X170827512Y-104422733D01*
X170827514Y-104422735D01*
X170877004Y-104455803D01*
X170940689Y-104498356D01*
X170940691Y-104498357D01*
X170940695Y-104498359D01*
X171040239Y-104539591D01*
X171066443Y-104550445D01*
X171066447Y-104550445D01*
X171066448Y-104550446D01*
X171199939Y-104577000D01*
X171199942Y-104577000D01*
X171199943Y-104577000D01*
X171336057Y-104577000D01*
X174946387Y-104577000D01*
X175012359Y-104596006D01*
X175037476Y-104611788D01*
X175037478Y-104611789D01*
X175098116Y-104633007D01*
X175207745Y-104671368D01*
X175207750Y-104671369D01*
X175386996Y-104691565D01*
X175387000Y-104691565D01*
X175387004Y-104691565D01*
X175566249Y-104671369D01*
X175566252Y-104671368D01*
X175566255Y-104671368D01*
X175735936Y-104611994D01*
X181807859Y-104611994D01*
X181807859Y-104612005D01*
X181828385Y-104859729D01*
X181828387Y-104859738D01*
X181889412Y-105100717D01*
X181989267Y-105328367D01*
X182089562Y-105481881D01*
X182789212Y-104782233D01*
X182800482Y-104824292D01*
X182872890Y-104949708D01*
X182975292Y-105052110D01*
X183100708Y-105124518D01*
X183142766Y-105135787D01*
X182442943Y-105835609D01*
X182489768Y-105872055D01*
X182489771Y-105872057D01*
X182708385Y-105990364D01*
X182708396Y-105990369D01*
X182943506Y-106071083D01*
X183188707Y-106112000D01*
X183437293Y-106112000D01*
X183682493Y-106071083D01*
X183917603Y-105990369D01*
X183917614Y-105990364D01*
X184136230Y-105872056D01*
X184136236Y-105872051D01*
X184183055Y-105835610D01*
X184183056Y-105835609D01*
X183483233Y-105135787D01*
X183525292Y-105124518D01*
X183650708Y-105052110D01*
X183753110Y-104949708D01*
X183825518Y-104824292D01*
X183836787Y-104782234D01*
X184536435Y-105481882D01*
X184636733Y-105328364D01*
X184736587Y-105100717D01*
X184797612Y-104859738D01*
X184797614Y-104859729D01*
X184818141Y-104612005D01*
X184818141Y-104611994D01*
X188307859Y-104611994D01*
X188307859Y-104612005D01*
X188328385Y-104859729D01*
X188328387Y-104859738D01*
X188389412Y-105100717D01*
X188489267Y-105328367D01*
X188589562Y-105481881D01*
X189289212Y-104782233D01*
X189300482Y-104824292D01*
X189372890Y-104949708D01*
X189475292Y-105052110D01*
X189600708Y-105124518D01*
X189642766Y-105135787D01*
X188942943Y-105835609D01*
X188989768Y-105872055D01*
X188989771Y-105872057D01*
X189208385Y-105990364D01*
X189208396Y-105990369D01*
X189443506Y-106071083D01*
X189688707Y-106112000D01*
X189937293Y-106112000D01*
X190182493Y-106071083D01*
X190417603Y-105990369D01*
X190417614Y-105990364D01*
X190636230Y-105872056D01*
X190636236Y-105872051D01*
X190683055Y-105835610D01*
X190683056Y-105835609D01*
X189983233Y-105135787D01*
X190025292Y-105124518D01*
X190150708Y-105052110D01*
X190253110Y-104949708D01*
X190325518Y-104824292D01*
X190336787Y-104782233D01*
X191036435Y-105481882D01*
X191136733Y-105328364D01*
X191236587Y-105100717D01*
X191297612Y-104859738D01*
X191297614Y-104859729D01*
X191318141Y-104612005D01*
X191318141Y-104611994D01*
X191297614Y-104364270D01*
X191297612Y-104364261D01*
X191236587Y-104123282D01*
X191136732Y-103895632D01*
X191036435Y-103742116D01*
X190336787Y-104441765D01*
X190325518Y-104399708D01*
X190253110Y-104274292D01*
X190150708Y-104171890D01*
X190025292Y-104099482D01*
X189983233Y-104088212D01*
X190683055Y-103388389D01*
X190683055Y-103388388D01*
X190636236Y-103351947D01*
X190636231Y-103351944D01*
X190417614Y-103233635D01*
X190417603Y-103233630D01*
X190182493Y-103152916D01*
X189937293Y-103112000D01*
X189688707Y-103112000D01*
X189443506Y-103152916D01*
X189208396Y-103233630D01*
X189208385Y-103233635D01*
X188989770Y-103351943D01*
X188942943Y-103388389D01*
X189642766Y-104088212D01*
X189600708Y-104099482D01*
X189475292Y-104171890D01*
X189372890Y-104274292D01*
X189300482Y-104399708D01*
X189289212Y-104441765D01*
X188589563Y-103742117D01*
X188489267Y-103895633D01*
X188489265Y-103895637D01*
X188389412Y-104123282D01*
X188328387Y-104364261D01*
X188328385Y-104364270D01*
X188307859Y-104611994D01*
X184818141Y-104611994D01*
X184797614Y-104364270D01*
X184797612Y-104364261D01*
X184736587Y-104123282D01*
X184636732Y-103895632D01*
X184536435Y-103742116D01*
X183836787Y-104441765D01*
X183825518Y-104399708D01*
X183753110Y-104274292D01*
X183650708Y-104171890D01*
X183525292Y-104099482D01*
X183483233Y-104088212D01*
X184183055Y-103388389D01*
X184183055Y-103388388D01*
X184136236Y-103351947D01*
X184136231Y-103351944D01*
X183917614Y-103233635D01*
X183917603Y-103233630D01*
X183682493Y-103152916D01*
X183437293Y-103112000D01*
X183188707Y-103112000D01*
X182943506Y-103152916D01*
X182708396Y-103233630D01*
X182708385Y-103233635D01*
X182489770Y-103351943D01*
X182442943Y-103388389D01*
X183142766Y-104088212D01*
X183100708Y-104099482D01*
X182975292Y-104171890D01*
X182872890Y-104274292D01*
X182800482Y-104399708D01*
X182789212Y-104441766D01*
X182089563Y-103742117D01*
X181989267Y-103895633D01*
X181989265Y-103895637D01*
X181889412Y-104123282D01*
X181828387Y-104364261D01*
X181828385Y-104364270D01*
X181807859Y-104611994D01*
X175735936Y-104611994D01*
X175736522Y-104611789D01*
X175889262Y-104515816D01*
X176016816Y-104388262D01*
X176112789Y-104235522D01*
X176172368Y-104065255D01*
X176174709Y-104044478D01*
X176192565Y-103886003D01*
X176192565Y-103885996D01*
X176172369Y-103706750D01*
X176172368Y-103706745D01*
X176112788Y-103536475D01*
X176041460Y-103422959D01*
X176022459Y-103355722D01*
X176042826Y-103288887D01*
X176058768Y-103269309D01*
X176095816Y-103232262D01*
X176191789Y-103079522D01*
X176251368Y-102909255D01*
X176251369Y-102909249D01*
X176271565Y-102730003D01*
X176271565Y-102729996D01*
X176251369Y-102550750D01*
X176251368Y-102550745D01*
X176191788Y-102380476D01*
X176163953Y-102336177D01*
X176095816Y-102227738D01*
X176002818Y-102134740D01*
X175969334Y-102073416D01*
X175966500Y-102047059D01*
X175966500Y-100656671D01*
X175985507Y-100590698D01*
X176064788Y-100464524D01*
X176101425Y-100359821D01*
X176124368Y-100294255D01*
X176144565Y-100115000D01*
X176144226Y-100111994D01*
X181807357Y-100111994D01*
X181807357Y-100112005D01*
X181827890Y-100359812D01*
X181827892Y-100359824D01*
X181888936Y-100600881D01*
X181988826Y-100828606D01*
X182124833Y-101036782D01*
X182124836Y-101036785D01*
X182293256Y-101219738D01*
X182489491Y-101372474D01*
X182708190Y-101490828D01*
X182943386Y-101571571D01*
X183188665Y-101612500D01*
X183437335Y-101612500D01*
X183682614Y-101571571D01*
X183917810Y-101490828D01*
X184136509Y-101372474D01*
X184332744Y-101219738D01*
X184501164Y-101036785D01*
X184637173Y-100828607D01*
X184737063Y-100600881D01*
X184798108Y-100359821D01*
X184803541Y-100294254D01*
X184818643Y-100112005D01*
X184818643Y-100111994D01*
X188307357Y-100111994D01*
X188307357Y-100112005D01*
X188327890Y-100359812D01*
X188327892Y-100359824D01*
X188388936Y-100600881D01*
X188488826Y-100828606D01*
X188624833Y-101036782D01*
X188624836Y-101036785D01*
X188793256Y-101219738D01*
X188989491Y-101372474D01*
X189208190Y-101490828D01*
X189443386Y-101571571D01*
X189688665Y-101612500D01*
X189937335Y-101612500D01*
X190182614Y-101571571D01*
X190417810Y-101490828D01*
X190636509Y-101372474D01*
X190832744Y-101219738D01*
X191001164Y-101036785D01*
X191137173Y-100828607D01*
X191237063Y-100600881D01*
X191298108Y-100359821D01*
X191303541Y-100294254D01*
X191318643Y-100112005D01*
X191318643Y-100111994D01*
X191298109Y-99864187D01*
X191298107Y-99864175D01*
X191237063Y-99623118D01*
X191137173Y-99395393D01*
X191001166Y-99187217D01*
X190934685Y-99115000D01*
X190832744Y-99004262D01*
X190636509Y-98851526D01*
X190636507Y-98851525D01*
X190636506Y-98851524D01*
X190417811Y-98733172D01*
X190417802Y-98733169D01*
X190182616Y-98652429D01*
X189937335Y-98611500D01*
X189688665Y-98611500D01*
X189443383Y-98652429D01*
X189208197Y-98733169D01*
X189208188Y-98733172D01*
X188989493Y-98851524D01*
X188793257Y-99004261D01*
X188624833Y-99187217D01*
X188488826Y-99395393D01*
X188388936Y-99623118D01*
X188327892Y-99864175D01*
X188327890Y-99864187D01*
X188307357Y-100111994D01*
X184818643Y-100111994D01*
X184798109Y-99864187D01*
X184798107Y-99864175D01*
X184737063Y-99623118D01*
X184637173Y-99395393D01*
X184501166Y-99187217D01*
X184434685Y-99115000D01*
X184332744Y-99004262D01*
X184136509Y-98851526D01*
X184136507Y-98851525D01*
X184136506Y-98851524D01*
X183917811Y-98733172D01*
X183917802Y-98733169D01*
X183682616Y-98652429D01*
X183437335Y-98611500D01*
X183188665Y-98611500D01*
X182943383Y-98652429D01*
X182708197Y-98733169D01*
X182708188Y-98733172D01*
X182489493Y-98851524D01*
X182293257Y-99004261D01*
X182124833Y-99187217D01*
X181988826Y-99395393D01*
X181888936Y-99623118D01*
X181827892Y-99864175D01*
X181827890Y-99864187D01*
X181807357Y-100111994D01*
X176144226Y-100111994D01*
X176124369Y-99935750D01*
X176124368Y-99935745D01*
X176099326Y-99864179D01*
X176064789Y-99765478D01*
X176047878Y-99738565D01*
X175997751Y-99658788D01*
X175968816Y-99612738D01*
X175841262Y-99485184D01*
X175761812Y-99435262D01*
X175688523Y-99389211D01*
X175518254Y-99329631D01*
X175518249Y-99329630D01*
X175339004Y-99309435D01*
X175338996Y-99309435D01*
X175159750Y-99329630D01*
X175159745Y-99329631D01*
X174989476Y-99389211D01*
X174836737Y-99485184D01*
X174709184Y-99612737D01*
X174613211Y-99765476D01*
X174553631Y-99935745D01*
X174553630Y-99935750D01*
X174533435Y-100114996D01*
X174533435Y-100115003D01*
X174553630Y-100294249D01*
X174553631Y-100294254D01*
X174613211Y-100464524D01*
X174692493Y-100590698D01*
X174711500Y-100656671D01*
X174711500Y-102441459D01*
X174704542Y-102482414D01*
X174680631Y-102550745D01*
X174680630Y-102550750D01*
X174660435Y-102729996D01*
X174660435Y-102730003D01*
X174680630Y-102909249D01*
X174680632Y-102909257D01*
X174722898Y-103030046D01*
X174726459Y-103099824D01*
X174691730Y-103160452D01*
X174629737Y-103192679D01*
X174605856Y-103195000D01*
X171605583Y-103195000D01*
X171538544Y-103175315D01*
X171517902Y-103158681D01*
X167295599Y-98936377D01*
X167266238Y-98889650D01*
X167255244Y-98858232D01*
X167222789Y-98765478D01*
X167126816Y-98612738D01*
X166999262Y-98485184D01*
X166912612Y-98430738D01*
X166846523Y-98389211D01*
X166676254Y-98329631D01*
X166676249Y-98329630D01*
X166497004Y-98309435D01*
X166496996Y-98309435D01*
X166317750Y-98329630D01*
X166317745Y-98329631D01*
X166147476Y-98389211D01*
X165994737Y-98485184D01*
X165867184Y-98612737D01*
X165771211Y-98765476D01*
X165711631Y-98935745D01*
X165711630Y-98935750D01*
X165691435Y-99114996D01*
X134642409Y-99114996D01*
X134643368Y-99112255D01*
X134649719Y-99055888D01*
X134663565Y-98933003D01*
X134663565Y-98932996D01*
X134643369Y-98753750D01*
X134643368Y-98753745D01*
X134601443Y-98633930D01*
X134583789Y-98583478D01*
X134487816Y-98430738D01*
X134360262Y-98303184D01*
X134253653Y-98236197D01*
X134207521Y-98207210D01*
X134037249Y-98147630D01*
X133993361Y-98142685D01*
X133928947Y-98115617D01*
X133919565Y-98107146D01*
X133886819Y-98074400D01*
X133853334Y-98013077D01*
X133850500Y-97986719D01*
X133850500Y-95516983D01*
X148357500Y-95516983D01*
X148357500Y-96317001D01*
X148357501Y-96317019D01*
X148368000Y-96419796D01*
X148368001Y-96419799D01*
X148373621Y-96436758D01*
X148423186Y-96586334D01*
X148515288Y-96735656D01*
X148639344Y-96859712D01*
X148703543Y-96899310D01*
X148750268Y-96951258D01*
X148761489Y-97020221D01*
X148733646Y-97084303D01*
X148726128Y-97092530D01*
X148618585Y-97200073D01*
X148516768Y-97340211D01*
X148438128Y-97494552D01*
X148384597Y-97659302D01*
X148357500Y-97830389D01*
X148357500Y-98003610D01*
X148380310Y-98147632D01*
X148384598Y-98174701D01*
X148438127Y-98339445D01*
X148516768Y-98493788D01*
X148618586Y-98633928D01*
X148741072Y-98756414D01*
X148881212Y-98858232D01*
X149035555Y-98936873D01*
X149200299Y-98990402D01*
X149371389Y-99017500D01*
X149371390Y-99017500D01*
X150094610Y-99017500D01*
X150094611Y-99017500D01*
X150265701Y-98990402D01*
X150430445Y-98936873D01*
X150584788Y-98858232D01*
X150724928Y-98756414D01*
X150847414Y-98633928D01*
X150949232Y-98493788D01*
X151027873Y-98339445D01*
X151081402Y-98174701D01*
X151108500Y-98003611D01*
X151108500Y-97830389D01*
X151081402Y-97659299D01*
X151027873Y-97494555D01*
X150949232Y-97340212D01*
X150847414Y-97200072D01*
X150739872Y-97092530D01*
X150706387Y-97031207D01*
X150711371Y-96961515D01*
X150753243Y-96905582D01*
X150762457Y-96899310D01*
X150826656Y-96859712D01*
X150950712Y-96735656D01*
X151042814Y-96586334D01*
X151092380Y-96436754D01*
X159424677Y-96436754D01*
X159424677Y-96436761D01*
X159444872Y-96616007D01*
X159444873Y-96616012D01*
X159504453Y-96786281D01*
X159579415Y-96905582D01*
X159600426Y-96939020D01*
X159727980Y-97066574D01*
X159880720Y-97162547D01*
X160050987Y-97222126D01*
X160094877Y-97227071D01*
X160159289Y-97254136D01*
X160166054Y-97260244D01*
X160167476Y-97261411D01*
X160270244Y-97330079D01*
X160270257Y-97330086D01*
X160384444Y-97377383D01*
X160384449Y-97377385D01*
X160384453Y-97377385D01*
X160384454Y-97377386D01*
X160505678Y-97401500D01*
X160505681Y-97401500D01*
X175099328Y-97401500D01*
X175165299Y-97420505D01*
X175291478Y-97499789D01*
X175461745Y-97559368D01*
X175461750Y-97559369D01*
X175640996Y-97579565D01*
X175641000Y-97579565D01*
X175641004Y-97579565D01*
X175820249Y-97559369D01*
X175820252Y-97559368D01*
X175820255Y-97559368D01*
X175990522Y-97499789D01*
X176143262Y-97403816D01*
X176270816Y-97276262D01*
X176366789Y-97123522D01*
X176426368Y-96953255D01*
X176426369Y-96953249D01*
X176446565Y-96774003D01*
X176446565Y-96773996D01*
X176426369Y-96594750D01*
X176426368Y-96594745D01*
X176371086Y-96436758D01*
X176366789Y-96424478D01*
X176363846Y-96419795D01*
X176299266Y-96317016D01*
X176270816Y-96271738D01*
X176143262Y-96144184D01*
X176116700Y-96127494D01*
X175990523Y-96048211D01*
X175820254Y-95988631D01*
X175820249Y-95988630D01*
X175641004Y-95968435D01*
X175640996Y-95968435D01*
X175461750Y-95988630D01*
X175461745Y-95988631D01*
X175291476Y-96048211D01*
X175165300Y-96127494D01*
X175099328Y-96146500D01*
X174854392Y-96146500D01*
X174787353Y-96126815D01*
X174741598Y-96074011D01*
X174731168Y-96008647D01*
X174731310Y-96007387D01*
X174758362Y-95942971D01*
X174766842Y-95933575D01*
X176080411Y-94620008D01*
X176149083Y-94517233D01*
X176168676Y-94469930D01*
X176196386Y-94403034D01*
X176220500Y-94281803D01*
X176220500Y-94158197D01*
X176220500Y-92095671D01*
X176239507Y-92029698D01*
X176318788Y-91903524D01*
X176318789Y-91903522D01*
X176378368Y-91733255D01*
X176378735Y-91729999D01*
X176398565Y-91554003D01*
X176398565Y-91553996D01*
X176378369Y-91374750D01*
X176378368Y-91374745D01*
X176318789Y-91204478D01*
X176222816Y-91051738D01*
X176095262Y-90924184D01*
X176024944Y-90880000D01*
X175942523Y-90828211D01*
X175772254Y-90768631D01*
X175772249Y-90768630D01*
X175593004Y-90748435D01*
X175592996Y-90748435D01*
X175413750Y-90768630D01*
X175413745Y-90768631D01*
X175243476Y-90828211D01*
X175090737Y-90924184D01*
X174963184Y-91051737D01*
X174867211Y-91204476D01*
X174807631Y-91374745D01*
X174807630Y-91374750D01*
X174787435Y-91553996D01*
X174787435Y-91554003D01*
X174807630Y-91733249D01*
X174807631Y-91733254D01*
X174867211Y-91903524D01*
X174946493Y-92029698D01*
X174965500Y-92095671D01*
X174965500Y-93908718D01*
X174945815Y-93975757D01*
X174929181Y-93996399D01*
X173879432Y-95046147D01*
X173818109Y-95079632D01*
X173805637Y-95081686D01*
X173761745Y-95086632D01*
X173591478Y-95146210D01*
X173438737Y-95242184D01*
X173311184Y-95369737D01*
X173215211Y-95522476D01*
X173155631Y-95692745D01*
X173155630Y-95692750D01*
X173135435Y-95871996D01*
X173135435Y-95872003D01*
X173150827Y-96008617D01*
X173138772Y-96077439D01*
X173091423Y-96128818D01*
X173027607Y-96146500D01*
X161061802Y-96146500D01*
X160994763Y-96126815D01*
X160956808Y-96088472D01*
X160860057Y-95934495D01*
X160732504Y-95806942D01*
X160579765Y-95710969D01*
X160409496Y-95651389D01*
X160409491Y-95651388D01*
X160230246Y-95631193D01*
X160230238Y-95631193D01*
X160050992Y-95651388D01*
X160050987Y-95651389D01*
X159880718Y-95710969D01*
X159727979Y-95806942D01*
X159600426Y-95934495D01*
X159504453Y-96087234D01*
X159444873Y-96257503D01*
X159444872Y-96257508D01*
X159424677Y-96436754D01*
X151092380Y-96436754D01*
X151097999Y-96419797D01*
X151108500Y-96317009D01*
X151108499Y-95516992D01*
X151097999Y-95414203D01*
X151042814Y-95247666D01*
X150950712Y-95098344D01*
X150826656Y-94974288D01*
X150677334Y-94882186D01*
X150510797Y-94827001D01*
X150510795Y-94827000D01*
X150408010Y-94816500D01*
X149057998Y-94816500D01*
X149057981Y-94816501D01*
X148955203Y-94827000D01*
X148955200Y-94827001D01*
X148788668Y-94882185D01*
X148788663Y-94882187D01*
X148639342Y-94974289D01*
X148515289Y-95098342D01*
X148423187Y-95247663D01*
X148423186Y-95247666D01*
X148368001Y-95414203D01*
X148368001Y-95414204D01*
X148368000Y-95414204D01*
X148357500Y-95516983D01*
X133850500Y-95516983D01*
X133850500Y-92870671D01*
X133869507Y-92804698D01*
X133948788Y-92678524D01*
X134008368Y-92508254D01*
X134008369Y-92508249D01*
X134028565Y-92329003D01*
X134028565Y-92328996D01*
X134008369Y-92149750D01*
X134008368Y-92149745D01*
X133982215Y-92075003D01*
X133948789Y-91979478D01*
X133852816Y-91826738D01*
X133725262Y-91699184D01*
X133694612Y-91679925D01*
X133572523Y-91603211D01*
X133402254Y-91543631D01*
X133402249Y-91543630D01*
X133223004Y-91523435D01*
X133222996Y-91523435D01*
X133043750Y-91543630D01*
X133043745Y-91543631D01*
X132873476Y-91603211D01*
X132720737Y-91699184D01*
X132593184Y-91826737D01*
X132497211Y-91979476D01*
X132437631Y-92149745D01*
X132437630Y-92149750D01*
X132417435Y-92328996D01*
X122298215Y-92328996D01*
X122324368Y-92254255D01*
X122324369Y-92254249D01*
X122344565Y-92075003D01*
X122344565Y-92074996D01*
X122324369Y-91895750D01*
X122324368Y-91895745D01*
X122300458Y-91827414D01*
X122293500Y-91786459D01*
X122293500Y-89455940D01*
X122313185Y-89388901D01*
X122329819Y-89368259D01*
X122417082Y-89280996D01*
X129877435Y-89280996D01*
X129877435Y-89281003D01*
X129897630Y-89460249D01*
X129897631Y-89460254D01*
X129957211Y-89630523D01*
X129996769Y-89693478D01*
X130053184Y-89783262D01*
X130180738Y-89910816D01*
X130333478Y-90006789D01*
X130503745Y-90066368D01*
X130547635Y-90071313D01*
X130612048Y-90098378D01*
X130621433Y-90106852D01*
X130957589Y-90443008D01*
X131044992Y-90530411D01*
X131044994Y-90530413D01*
X131044996Y-90530414D01*
X131147756Y-90599076D01*
X131147758Y-90599077D01*
X131147767Y-90599083D01*
X131172772Y-90609440D01*
X131195071Y-90618677D01*
X131237254Y-90636149D01*
X131261966Y-90646386D01*
X131383192Y-90670499D01*
X131383196Y-90670500D01*
X131383197Y-90670500D01*
X131506803Y-90670500D01*
X131919328Y-90670500D01*
X131985300Y-90689506D01*
X132111226Y-90768631D01*
X132111478Y-90768789D01*
X132281296Y-90828211D01*
X132281745Y-90828368D01*
X132281750Y-90828369D01*
X132460996Y-90848565D01*
X132461000Y-90848565D01*
X132461004Y-90848565D01*
X132640249Y-90828369D01*
X132640252Y-90828368D01*
X132640255Y-90828368D01*
X132810522Y-90768789D01*
X132963262Y-90672816D01*
X133090816Y-90545262D01*
X133186789Y-90392522D01*
X133246368Y-90222255D01*
X133259371Y-90106852D01*
X133266565Y-90043003D01*
X133266565Y-90042996D01*
X133246369Y-89863750D01*
X133246368Y-89863745D01*
X133186788Y-89693476D01*
X133090815Y-89540737D01*
X132963262Y-89413184D01*
X132810523Y-89317211D01*
X132640254Y-89257631D01*
X132640249Y-89257630D01*
X132461004Y-89237435D01*
X132460996Y-89237435D01*
X132281750Y-89257630D01*
X132281745Y-89257631D01*
X132111476Y-89317211D01*
X131985300Y-89396494D01*
X131919328Y-89415500D01*
X131756281Y-89415500D01*
X131689242Y-89395815D01*
X131668600Y-89379181D01*
X131508852Y-89219433D01*
X131475367Y-89158110D01*
X131473314Y-89145648D01*
X131468368Y-89101745D01*
X131408789Y-88931478D01*
X131312816Y-88778738D01*
X131185262Y-88651184D01*
X131032523Y-88555211D01*
X130862254Y-88495631D01*
X130862249Y-88495630D01*
X130683004Y-88475435D01*
X130682996Y-88475435D01*
X130503750Y-88495630D01*
X130503745Y-88495631D01*
X130333476Y-88555211D01*
X130180737Y-88651184D01*
X130053184Y-88778737D01*
X129957211Y-88931476D01*
X129897631Y-89101745D01*
X129897630Y-89101750D01*
X129877435Y-89280996D01*
X122417082Y-89280996D01*
X122422816Y-89275262D01*
X122518789Y-89122522D01*
X122578368Y-88952255D01*
X122580709Y-88931478D01*
X122598565Y-88773003D01*
X122598565Y-88772996D01*
X122578369Y-88593750D01*
X122578368Y-88593745D01*
X122544036Y-88495630D01*
X122518789Y-88423478D01*
X122422816Y-88270738D01*
X122295262Y-88143184D01*
X122258072Y-88119816D01*
X122142523Y-88047211D01*
X121972254Y-87987631D01*
X121972249Y-87987630D01*
X121793004Y-87967435D01*
X121792996Y-87967435D01*
X121613750Y-87987630D01*
X121613745Y-87987631D01*
X121443476Y-88047211D01*
X121290737Y-88143184D01*
X121163184Y-88270737D01*
X121063507Y-88429373D01*
X121062703Y-88428868D01*
X121044618Y-88454355D01*
X120952944Y-88546030D01*
X120952940Y-88546034D01*
X120870373Y-88669605D01*
X120870366Y-88669618D01*
X120858326Y-88698688D01*
X120858326Y-88698689D01*
X120825169Y-88778737D01*
X120813495Y-88806919D01*
X120813493Y-88806925D01*
X120784499Y-88952685D01*
X120784499Y-89107425D01*
X120784500Y-89107446D01*
X120784500Y-91786459D01*
X120777542Y-91827414D01*
X120753631Y-91895745D01*
X120753630Y-91895750D01*
X120733435Y-92074996D01*
X110090774Y-92074996D01*
X110103000Y-92029370D01*
X110103000Y-91930630D01*
X110077444Y-91835255D01*
X110028075Y-91749745D01*
X110008330Y-91730000D01*
X111077115Y-91730000D01*
X111077115Y-91729999D01*
X111075914Y-91722415D01*
X111022408Y-91557744D01*
X110943804Y-91403475D01*
X110842032Y-91263397D01*
X110719602Y-91140967D01*
X110579524Y-91039195D01*
X110425257Y-90960591D01*
X110260584Y-90907085D01*
X110089571Y-90880000D01*
X109978000Y-90880000D01*
X109978000Y-91699670D01*
X109958255Y-91679925D01*
X109872745Y-91630556D01*
X109777370Y-91605000D01*
X109678630Y-91605000D01*
X109583255Y-91630556D01*
X109497745Y-91679925D01*
X109478000Y-91699670D01*
X109478000Y-90880000D01*
X109366429Y-90880000D01*
X109195415Y-90907085D01*
X109030742Y-90960591D01*
X108876475Y-91039195D01*
X108736397Y-91140967D01*
X108613967Y-91263397D01*
X108512195Y-91403475D01*
X108433591Y-91557744D01*
X108380085Y-91722415D01*
X108378884Y-91729999D01*
X108378885Y-91730000D01*
X109447670Y-91730000D01*
X109427925Y-91749745D01*
X109378556Y-91835255D01*
X109353000Y-91930630D01*
X109353000Y-92029370D01*
X109378556Y-92124745D01*
X109427925Y-92210255D01*
X109447670Y-92230000D01*
X108378885Y-92230000D01*
X108380085Y-92237584D01*
X108433591Y-92402255D01*
X108512195Y-92556524D01*
X108613967Y-92696602D01*
X108721565Y-92804200D01*
X108755050Y-92865523D01*
X108750066Y-92935215D01*
X108708194Y-92991148D01*
X108698981Y-92997420D01*
X108634342Y-93037289D01*
X108510289Y-93161342D01*
X108418187Y-93310663D01*
X108418186Y-93310666D01*
X108363001Y-93477203D01*
X108363001Y-93477204D01*
X108363000Y-93477204D01*
X108352500Y-93579983D01*
X89084275Y-93579983D01*
X89032929Y-86613996D01*
X116037435Y-86613996D01*
X116037435Y-86614003D01*
X116057630Y-86793249D01*
X116057631Y-86793254D01*
X116117211Y-86963523D01*
X116197010Y-87090522D01*
X116213184Y-87116262D01*
X116340738Y-87243816D01*
X116493478Y-87339789D01*
X116663739Y-87399366D01*
X116663745Y-87399368D01*
X116663750Y-87399369D01*
X116842996Y-87419565D01*
X116843000Y-87419565D01*
X116843004Y-87419565D01*
X117022249Y-87399369D01*
X117022251Y-87399368D01*
X117022255Y-87399368D01*
X117022258Y-87399366D01*
X117022262Y-87399366D01*
X117090585Y-87375459D01*
X117131540Y-87368500D01*
X121381328Y-87368500D01*
X121447300Y-87387506D01*
X121498321Y-87419565D01*
X121573478Y-87466789D01*
X121639820Y-87490003D01*
X121743745Y-87526368D01*
X121743750Y-87526369D01*
X121922996Y-87546565D01*
X121923000Y-87546565D01*
X121923004Y-87546565D01*
X122102249Y-87526369D01*
X122102252Y-87526368D01*
X122102255Y-87526368D01*
X122272522Y-87466789D01*
X122425262Y-87370816D01*
X122552816Y-87243262D01*
X122648789Y-87090522D01*
X122708368Y-86920255D01*
X122708369Y-86920249D01*
X122728565Y-86741003D01*
X122728565Y-86740996D01*
X122708369Y-86561750D01*
X122708368Y-86561745D01*
X122690390Y-86510368D01*
X122648789Y-86391478D01*
X122624297Y-86352500D01*
X122574104Y-86272618D01*
X122552816Y-86238738D01*
X122425262Y-86111184D01*
X122398700Y-86094494D01*
X122272523Y-86015211D01*
X122102254Y-85955631D01*
X122102249Y-85955630D01*
X121923004Y-85935435D01*
X121922996Y-85935435D01*
X121743750Y-85955630D01*
X121743745Y-85955631D01*
X121573476Y-86015211D01*
X121447300Y-86094494D01*
X121381328Y-86113500D01*
X117525941Y-86113500D01*
X117458902Y-86093815D01*
X117438260Y-86077182D01*
X117435600Y-86074522D01*
X117345262Y-85984184D01*
X117299819Y-85955630D01*
X117192523Y-85888211D01*
X117022254Y-85828631D01*
X117022249Y-85828630D01*
X116843004Y-85808435D01*
X116842996Y-85808435D01*
X116663750Y-85828630D01*
X116663745Y-85828631D01*
X116493476Y-85888211D01*
X116340737Y-85984184D01*
X116213184Y-86111737D01*
X116117211Y-86264476D01*
X116057631Y-86434745D01*
X116057630Y-86434750D01*
X116037435Y-86613996D01*
X89032929Y-86613996D01*
X89026711Y-85770352D01*
X164950079Y-85770352D01*
X164950079Y-85770359D01*
X164970274Y-85949605D01*
X164970275Y-85949610D01*
X165029855Y-86119879D01*
X165097329Y-86227262D01*
X165125828Y-86272618D01*
X165253382Y-86400172D01*
X165308405Y-86434745D01*
X165382432Y-86481260D01*
X165406122Y-86496145D01*
X165504489Y-86530565D01*
X165576389Y-86555724D01*
X165576394Y-86555725D01*
X165755640Y-86575921D01*
X165755644Y-86575921D01*
X165755648Y-86575921D01*
X165934893Y-86555725D01*
X165934896Y-86555724D01*
X165934899Y-86555724D01*
X166105166Y-86496145D01*
X166231344Y-86416861D01*
X166297316Y-86397856D01*
X167847075Y-86397856D01*
X167914114Y-86417541D01*
X167934756Y-86434175D01*
X169052146Y-87551565D01*
X169085631Y-87612888D01*
X169087685Y-87625361D01*
X169092630Y-87669249D01*
X169152210Y-87839521D01*
X169232584Y-87967435D01*
X169248184Y-87992262D01*
X169375738Y-88119816D01*
X169528478Y-88215789D01*
X169685510Y-88270737D01*
X169698745Y-88275368D01*
X169698750Y-88275369D01*
X169877996Y-88295565D01*
X169878000Y-88295565D01*
X169878004Y-88295565D01*
X170057249Y-88275369D01*
X170057252Y-88275368D01*
X170057255Y-88275368D01*
X170227522Y-88215789D01*
X170380262Y-88119816D01*
X170507816Y-87992262D01*
X170603789Y-87839522D01*
X170663368Y-87669255D01*
X170669719Y-87612888D01*
X170683565Y-87490003D01*
X170683565Y-87489996D01*
X170663369Y-87310750D01*
X170663368Y-87310745D01*
X170603789Y-87140478D01*
X170507816Y-86987738D01*
X170380262Y-86860184D01*
X170227521Y-86764210D01*
X170079849Y-86712538D01*
X170057255Y-86704632D01*
X170057254Y-86704631D01*
X170057249Y-86704630D01*
X170013361Y-86699685D01*
X169948947Y-86672617D01*
X169939565Y-86664146D01*
X169254415Y-85978996D01*
X172614435Y-85978996D01*
X172614435Y-85979003D01*
X172634630Y-86158249D01*
X172634631Y-86158254D01*
X172694211Y-86328523D01*
X172790181Y-86481258D01*
X172790184Y-86481262D01*
X172917738Y-86608816D01*
X173070478Y-86704789D01*
X173173952Y-86740996D01*
X173240745Y-86764368D01*
X173240750Y-86764369D01*
X173419996Y-86784565D01*
X173420000Y-86784565D01*
X173420004Y-86784565D01*
X173599249Y-86764369D01*
X173599252Y-86764368D01*
X173599255Y-86764368D01*
X173769522Y-86704789D01*
X173922262Y-86608816D01*
X174049816Y-86481262D01*
X174079403Y-86434175D01*
X174094263Y-86410527D01*
X174146597Y-86364237D01*
X174199256Y-86352500D01*
X174210328Y-86352500D01*
X174276300Y-86371506D01*
X174348483Y-86416862D01*
X174402478Y-86450789D01*
X174489565Y-86481262D01*
X174572745Y-86510368D01*
X174572750Y-86510369D01*
X174751996Y-86530565D01*
X174752000Y-86530565D01*
X174752004Y-86530565D01*
X174931249Y-86510369D01*
X174931252Y-86510368D01*
X174931255Y-86510368D01*
X175101522Y-86450789D01*
X175254262Y-86354816D01*
X175381816Y-86227262D01*
X175477789Y-86074522D01*
X175537368Y-85904255D01*
X175545889Y-85828630D01*
X175557565Y-85725003D01*
X175557565Y-85724996D01*
X175537369Y-85545750D01*
X175537368Y-85545745D01*
X175477788Y-85375476D01*
X175419647Y-85282946D01*
X175381816Y-85222738D01*
X175254262Y-85095184D01*
X175173706Y-85044567D01*
X175101523Y-84999211D01*
X174931254Y-84939631D01*
X174931249Y-84939630D01*
X174752004Y-84919435D01*
X174751996Y-84919435D01*
X174572750Y-84939630D01*
X174572745Y-84939631D01*
X174402476Y-84999211D01*
X174276300Y-85078494D01*
X174210328Y-85097500D01*
X173612195Y-85097500D01*
X173490970Y-85121613D01*
X173490960Y-85121616D01*
X173376756Y-85168921D01*
X173375441Y-85169624D01*
X173373912Y-85170099D01*
X173371139Y-85171248D01*
X173371033Y-85170994D01*
X173330897Y-85183473D01*
X173240750Y-85193630D01*
X173070478Y-85253210D01*
X172917737Y-85349184D01*
X172790184Y-85476737D01*
X172694211Y-85629476D01*
X172634631Y-85799745D01*
X172634630Y-85799750D01*
X172614435Y-85978996D01*
X169254415Y-85978996D01*
X168558367Y-85282947D01*
X168558366Y-85282946D01*
X168536139Y-85268095D01*
X168536138Y-85268094D01*
X168455586Y-85214271D01*
X168405758Y-85193632D01*
X168341391Y-85166970D01*
X168341383Y-85166968D01*
X168220163Y-85142856D01*
X168220159Y-85142856D01*
X166297316Y-85142856D01*
X166231344Y-85123850D01*
X166105167Y-85044567D01*
X165934898Y-84984987D01*
X165934893Y-84984986D01*
X165755648Y-84964791D01*
X165755640Y-84964791D01*
X165576394Y-84984986D01*
X165576389Y-84984987D01*
X165406120Y-85044567D01*
X165253381Y-85140540D01*
X165125828Y-85268093D01*
X165029855Y-85420832D01*
X164970275Y-85591101D01*
X164970274Y-85591106D01*
X164950079Y-85770352D01*
X89026711Y-85770352D01*
X88952835Y-75747883D01*
X163628000Y-75747883D01*
X163628000Y-76112000D01*
X164428000Y-76112000D01*
X164428000Y-76612000D01*
X163628000Y-76612000D01*
X163628000Y-76976116D01*
X163663704Y-77201544D01*
X163734230Y-77418604D01*
X163837849Y-77621966D01*
X163972004Y-77806614D01*
X164133385Y-77967995D01*
X164318033Y-78102150D01*
X164521395Y-78205769D01*
X164738455Y-78276295D01*
X164828000Y-78290478D01*
X164828000Y-77462001D01*
X164888402Y-77487021D01*
X165013981Y-77512000D01*
X165142019Y-77512000D01*
X165267598Y-77487021D01*
X165328000Y-77462001D01*
X165328000Y-78290477D01*
X165417544Y-78276295D01*
X165634604Y-78205769D01*
X165837966Y-78102150D01*
X166022614Y-77967995D01*
X166183995Y-77806614D01*
X166318150Y-77621966D01*
X166421769Y-77418604D01*
X166492295Y-77201544D01*
X166528000Y-76976116D01*
X166528000Y-76612000D01*
X165728000Y-76612000D01*
X165728000Y-76264135D01*
X166997500Y-76264135D01*
X166997500Y-77659870D01*
X166997501Y-77659876D01*
X167003908Y-77719483D01*
X167054202Y-77854328D01*
X167054206Y-77854335D01*
X167140452Y-77969544D01*
X167140455Y-77969547D01*
X167255664Y-78055793D01*
X167255671Y-78055797D01*
X167390517Y-78106091D01*
X167390516Y-78106091D01*
X167397444Y-78106835D01*
X167450127Y-78112500D01*
X168845872Y-78112499D01*
X168905483Y-78106091D01*
X169040331Y-78055796D01*
X169155546Y-77969546D01*
X169241796Y-77854331D01*
X169292091Y-77719483D01*
X169298500Y-77659873D01*
X169298499Y-77311997D01*
X169318183Y-77244961D01*
X169370987Y-77199206D01*
X169440146Y-77189262D01*
X169503701Y-77218287D01*
X169541476Y-77277065D01*
X169541765Y-77278064D01*
X169570595Y-77379389D01*
X169570596Y-77379391D01*
X169570597Y-77379394D01*
X169665632Y-77570253D01*
X169737450Y-77665354D01*
X169794128Y-77740407D01*
X169951698Y-77884052D01*
X170132981Y-77996298D01*
X170331802Y-78073321D01*
X170541390Y-78112500D01*
X170541392Y-78112500D01*
X170754608Y-78112500D01*
X170754610Y-78112500D01*
X170964198Y-78073321D01*
X171163019Y-77996298D01*
X171344302Y-77884052D01*
X171501872Y-77740407D01*
X171549046Y-77677938D01*
X171605155Y-77636303D01*
X171674867Y-77631612D01*
X171736049Y-77665354D01*
X171746953Y-77677938D01*
X171794128Y-77740407D01*
X171951698Y-77884052D01*
X172132981Y-77996298D01*
X172331802Y-78073321D01*
X172541390Y-78112500D01*
X172541392Y-78112500D01*
X172754608Y-78112500D01*
X172754610Y-78112500D01*
X172964198Y-78073321D01*
X173163019Y-77996298D01*
X173344302Y-77884052D01*
X173501872Y-77740407D01*
X173630366Y-77570255D01*
X173696210Y-77438022D01*
X173725403Y-77379394D01*
X173725403Y-77379393D01*
X173725405Y-77379389D01*
X173778994Y-77191043D01*
X173816273Y-77131952D01*
X173879583Y-77102395D01*
X173948823Y-77111757D01*
X174002009Y-77157067D01*
X174017526Y-77191046D01*
X174071058Y-77379196D01*
X174071066Y-77379216D01*
X174166060Y-77569990D01*
X174174834Y-77581609D01*
X174174835Y-77581609D01*
X174705861Y-77050584D01*
X174728667Y-77135694D01*
X174787910Y-77238306D01*
X174871694Y-77322090D01*
X174974306Y-77381333D01*
X175059414Y-77404137D01*
X174530991Y-77932559D01*
X174633204Y-77995847D01*
X174633208Y-77995849D01*
X174831936Y-78072836D01*
X174831941Y-78072837D01*
X175041439Y-78112000D01*
X175254561Y-78112000D01*
X175464058Y-78072837D01*
X175464063Y-78072836D01*
X175662791Y-77995849D01*
X175662798Y-77995846D01*
X175765006Y-77932560D01*
X175765006Y-77932559D01*
X175236585Y-77404137D01*
X175321694Y-77381333D01*
X175424306Y-77322090D01*
X175508090Y-77238306D01*
X175567333Y-77135694D01*
X175590138Y-77050585D01*
X176121163Y-77581610D01*
X176129935Y-77569996D01*
X176129938Y-77569991D01*
X176224935Y-77379211D01*
X176224941Y-77379196D01*
X176283261Y-77174219D01*
X176283262Y-77174216D01*
X176302927Y-76962000D01*
X176302927Y-76961999D01*
X176283262Y-76749783D01*
X176283261Y-76749780D01*
X176224941Y-76544803D01*
X176224933Y-76544783D01*
X176129940Y-76354010D01*
X176121163Y-76342388D01*
X175590137Y-76873414D01*
X175567333Y-76788306D01*
X175508090Y-76685694D01*
X175424306Y-76601910D01*
X175321694Y-76542667D01*
X175236584Y-76519861D01*
X175765007Y-75991439D01*
X175662793Y-75928151D01*
X175662789Y-75928149D01*
X175464063Y-75851163D01*
X175464058Y-75851162D01*
X175254561Y-75812000D01*
X175041439Y-75812000D01*
X174831941Y-75851162D01*
X174831936Y-75851163D01*
X174633210Y-75928149D01*
X174633201Y-75928154D01*
X174530992Y-75991438D01*
X174530991Y-75991439D01*
X175059415Y-76519861D01*
X174974306Y-76542667D01*
X174871694Y-76601910D01*
X174787910Y-76685694D01*
X174728667Y-76788306D01*
X174705861Y-76873415D01*
X174174835Y-76342389D01*
X174166056Y-76354015D01*
X174071066Y-76544783D01*
X174071058Y-76544803D01*
X174017526Y-76732953D01*
X173980247Y-76792046D01*
X173916938Y-76821604D01*
X173847698Y-76812242D01*
X173794511Y-76766932D01*
X173778994Y-76732954D01*
X173763902Y-76679912D01*
X173725405Y-76544611D01*
X173725403Y-76544606D01*
X173725403Y-76544605D01*
X173630367Y-76353746D01*
X173501872Y-76183593D01*
X173344302Y-76039948D01*
X173163019Y-75927702D01*
X173163017Y-75927701D01*
X173063608Y-75889190D01*
X172964198Y-75850679D01*
X172754610Y-75811500D01*
X172541390Y-75811500D01*
X172331802Y-75850679D01*
X172331799Y-75850679D01*
X172331799Y-75850680D01*
X172132982Y-75927701D01*
X172132980Y-75927702D01*
X171951699Y-76039947D01*
X171794126Y-76183594D01*
X171746953Y-76246061D01*
X171690844Y-76287696D01*
X171621132Y-76292387D01*
X171559950Y-76258644D01*
X171549047Y-76246061D01*
X171501873Y-76183594D01*
X171501872Y-76183593D01*
X171344302Y-76039948D01*
X171163019Y-75927702D01*
X171163017Y-75927701D01*
X171063608Y-75889190D01*
X170964198Y-75850679D01*
X170754610Y-75811500D01*
X170541390Y-75811500D01*
X170331802Y-75850679D01*
X170331799Y-75850679D01*
X170331799Y-75850680D01*
X170132982Y-75927701D01*
X170132980Y-75927702D01*
X169951699Y-76039947D01*
X169794127Y-76183593D01*
X169665632Y-76353746D01*
X169570597Y-76544605D01*
X169570595Y-76544609D01*
X169570595Y-76544611D01*
X169554292Y-76601910D01*
X169541765Y-76645936D01*
X169504485Y-76705028D01*
X169441175Y-76734585D01*
X169371936Y-76725223D01*
X169318750Y-76679912D01*
X169298503Y-76613040D01*
X169298499Y-76612000D01*
X169298499Y-76264129D01*
X169298498Y-76264123D01*
X169298497Y-76264116D01*
X169292091Y-76204517D01*
X169284287Y-76183594D01*
X169241797Y-76069671D01*
X169241793Y-76069664D01*
X169155547Y-75954455D01*
X169155544Y-75954452D01*
X169040335Y-75868206D01*
X169040328Y-75868202D01*
X168905482Y-75817908D01*
X168905483Y-75817908D01*
X168845883Y-75811501D01*
X168845881Y-75811500D01*
X168845873Y-75811500D01*
X168845864Y-75811500D01*
X167450129Y-75811500D01*
X167450123Y-75811501D01*
X167390516Y-75817908D01*
X167255671Y-75868202D01*
X167255664Y-75868206D01*
X167140455Y-75954452D01*
X167140452Y-75954455D01*
X167054206Y-76069664D01*
X167054202Y-76069671D01*
X167003908Y-76204517D01*
X166997501Y-76264116D01*
X166997501Y-76264123D01*
X166997500Y-76264135D01*
X165728000Y-76264135D01*
X165728000Y-76112000D01*
X166528000Y-76112000D01*
X166528000Y-75747883D01*
X176768000Y-75747883D01*
X176768000Y-76112000D01*
X177568000Y-76112000D01*
X177568000Y-76612000D01*
X176768000Y-76612000D01*
X176768000Y-76976116D01*
X176803704Y-77201544D01*
X176874230Y-77418604D01*
X176977849Y-77621966D01*
X177112004Y-77806614D01*
X177273385Y-77967995D01*
X177458033Y-78102150D01*
X177661395Y-78205769D01*
X177878455Y-78276295D01*
X177968000Y-78290478D01*
X177968000Y-77462001D01*
X178028402Y-77487021D01*
X178153981Y-77512000D01*
X178282019Y-77512000D01*
X178407598Y-77487021D01*
X178468000Y-77462001D01*
X178468000Y-78290477D01*
X178557544Y-78276295D01*
X178774604Y-78205769D01*
X178977966Y-78102150D01*
X179162614Y-77967995D01*
X179323995Y-77806614D01*
X179458150Y-77621966D01*
X179561769Y-77418604D01*
X179632295Y-77201544D01*
X179668000Y-76976116D01*
X179668000Y-76612000D01*
X178868000Y-76612000D01*
X178868000Y-76112000D01*
X179668000Y-76112000D01*
X179668000Y-75747883D01*
X179632295Y-75522455D01*
X179561769Y-75305395D01*
X179458150Y-75102033D01*
X179323995Y-74917385D01*
X179162614Y-74756004D01*
X178977966Y-74621849D01*
X178774602Y-74518229D01*
X178557541Y-74447703D01*
X178468000Y-74433521D01*
X178468000Y-75261998D01*
X178407598Y-75236979D01*
X178282019Y-75212000D01*
X178153981Y-75212000D01*
X178028402Y-75236979D01*
X177968000Y-75261998D01*
X177968000Y-74433521D01*
X177967999Y-74433521D01*
X177878458Y-74447703D01*
X177661397Y-74518229D01*
X177458033Y-74621849D01*
X177273385Y-74756004D01*
X177112004Y-74917385D01*
X176977849Y-75102033D01*
X176874230Y-75305395D01*
X176803704Y-75522455D01*
X176768000Y-75747883D01*
X166528000Y-75747883D01*
X166492295Y-75522455D01*
X166421769Y-75305395D01*
X166318150Y-75102033D01*
X166183995Y-74917385D01*
X166022614Y-74756004D01*
X165837966Y-74621849D01*
X165634602Y-74518229D01*
X165417541Y-74447703D01*
X165328000Y-74433521D01*
X165328000Y-75261998D01*
X165267598Y-75236979D01*
X165142019Y-75212000D01*
X165013981Y-75212000D01*
X164888402Y-75236979D01*
X164828000Y-75261998D01*
X164828000Y-74433521D01*
X164827999Y-74433521D01*
X164738458Y-74447703D01*
X164521397Y-74518229D01*
X164318033Y-74621849D01*
X164133385Y-74756004D01*
X163972004Y-74917385D01*
X163837849Y-75102033D01*
X163734230Y-75305395D01*
X163663704Y-75522455D01*
X163628000Y-75747883D01*
X88952835Y-75747883D01*
X88924708Y-71932000D01*
X169719522Y-71932000D01*
X170547999Y-71932000D01*
X170522979Y-71992402D01*
X170498000Y-72117981D01*
X170498000Y-72246019D01*
X170522979Y-72371598D01*
X170547999Y-72432000D01*
X169719522Y-72432000D01*
X169733704Y-72521544D01*
X169804230Y-72738604D01*
X169907849Y-72941966D01*
X170042004Y-73126614D01*
X170203385Y-73287995D01*
X170388033Y-73422150D01*
X170591395Y-73525769D01*
X170808455Y-73596295D01*
X171033884Y-73632000D01*
X171398000Y-73632000D01*
X171398000Y-72832000D01*
X171898000Y-72832000D01*
X171898000Y-73632000D01*
X172262116Y-73632000D01*
X172487544Y-73596295D01*
X172704604Y-73525769D01*
X172907966Y-73422150D01*
X173092614Y-73287995D01*
X173253995Y-73126614D01*
X173388150Y-72941966D01*
X173491769Y-72738604D01*
X173562295Y-72521544D01*
X173576478Y-72432000D01*
X172748001Y-72432000D01*
X172773021Y-72371598D01*
X172798000Y-72246019D01*
X172798000Y-72117981D01*
X172773021Y-71992402D01*
X172748001Y-71932000D01*
X173576478Y-71932000D01*
X173562295Y-71842455D01*
X173491769Y-71625395D01*
X173388150Y-71422033D01*
X173253995Y-71237385D01*
X173092614Y-71076004D01*
X172907966Y-70941849D01*
X172704604Y-70838230D01*
X172487544Y-70767704D01*
X172262116Y-70732000D01*
X171898000Y-70732000D01*
X171898000Y-71532000D01*
X171398000Y-71532000D01*
X171398000Y-70732000D01*
X171033884Y-70732000D01*
X170808455Y-70767704D01*
X170591395Y-70838230D01*
X170388033Y-70941849D01*
X170203385Y-71076004D01*
X170042004Y-71237385D01*
X169907849Y-71422033D01*
X169804230Y-71625395D01*
X169733704Y-71842455D01*
X169719522Y-71932000D01*
X88924708Y-71932000D01*
X88900003Y-68580407D01*
X88900000Y-68579493D01*
X88900000Y-68068700D01*
X88919685Y-68001661D01*
X88972489Y-67955906D01*
X89023698Y-67944700D01*
X193551886Y-67691298D01*
X193618972Y-67710820D01*
G37*
%TD.AperFunction*%
%TD*%
M02*
